<svg width="326" height="320" viewBox="0 0 326 320" fill="none" xmlns="http://www.w3.org/2000/svg">
<mask id="mask0_6568_1955" style="mask-type:alpha" maskUnits="userSpaceOnUse" x="0" y="0" width="326" height="320">
<rect width="326" height="320" fill="#D9D9D9"/>
</mask>
<g mask="url(#mask0_6568_1955)">
<path d="M-2.29235 278.191C-7.6508 286.87 -9.76974 335.463 6.73348 341.514C16.0038 344.917 13.5996 373.93 13.5996 373.93" stroke="#F3E1FA" stroke-width="1.11" stroke-miterlimit="10"/>
<path d="M7.16094 262.237C-0.886926 275.257 -4.06532 326.946 20.6895 335.993C34.6052 341.086 30.9989 373.93 30.9989 373.93" stroke="#F0D6FB" stroke-width="1.16" stroke-miterlimit="10"/>
<path d="M16.6144 246.284C5.89745 263.643 1.63921 318.41 34.6456 330.492C53.1863 337.276 48.3983 373.93 48.3983 373.93" stroke="#EECCFB" stroke-width="1.21" stroke-miterlimit="10"/>
<path d="M26.0478 230.331C12.6415 252.03 7.34414 309.873 48.5818 324.97C71.7678 333.446 65.7574 373.93 65.7574 373.93" stroke="#EBC1FB" stroke-width="1.25" stroke-miterlimit="10"/>
<path d="M35.5017 214.358C19.4263 240.376 13.0492 301.315 62.5588 319.428C90.3902 329.615 83.1777 373.909 83.1777 373.909" stroke="#E9B7FB" stroke-width="1.3" stroke-miterlimit="10"/>
<path d="M44.9354 198.405C26.1707 228.762 18.734 292.779 76.4953 313.927C108.952 325.805 100.557 373.93 100.557 373.93" stroke="#E6ACFC" stroke-width="1.35" stroke-miterlimit="10"/>
<path d="M54.3889 182.452C32.9551 217.149 24.4386 284.262 90.4514 308.406C127.553 321.975 117.936 373.93 117.936 373.93" stroke="#E3A2FC" stroke-width="1.39" stroke-miterlimit="10"/>
<path d="M63.8428 166.498C39.7196 205.536 30.164 275.725 104.408 302.905C146.135 318.185 135.336 373.95 135.336 373.95" stroke="#E197FC" stroke-width="1.44" stroke-miterlimit="10"/>
<path d="M73.2762 150.525C46.4839 193.902 35.8485 267.168 118.365 297.363C164.737 314.335 152.716 373.909 152.716 373.909" stroke="#DE8DFC" stroke-width="1.49" stroke-miterlimit="10"/>
<path d="M82.7295 134.572C53.2478 182.289 41.5529 258.631 132.321 291.862C183.338 310.525 170.115 373.93 170.115 373.93" stroke="#DC82FD" stroke-width="1.53" stroke-miterlimit="10"/>
<path d="M92.1835 118.619C60.0328 170.675 47.2785 250.115 146.277 286.34C201.92 306.715 187.515 373.93 187.515 373.93" stroke="#D978FD" stroke-width="1.58" stroke-miterlimit="10"/>
<path d="M101.616 102.666C66.7762 159.062 52.9624 241.578 160.213 280.819C220.501 302.884 204.874 373.93 204.874 373.93" stroke="#D76DFD" stroke-width="1.63" stroke-miterlimit="10"/>
<path d="M111.07 86.6922C73.5611 147.428 58.6674 233.021 174.19 275.297C239.103 299.054 222.294 373.93 222.294 373.93" stroke="#D463FD" stroke-width="1.67" stroke-miterlimit="10"/>
<path d="M120.524 70.7391C80.3256 135.815 64.3929 224.484 188.147 269.776C257.705 295.224 239.694 373.93 239.694 373.93" stroke="#D158FE" stroke-width="1.72" stroke-miterlimit="10"/>
<path d="M129.957 54.786C87.0895 124.201 70.0769 215.947 202.082 264.275C276.286 291.434 257.052 373.93 257.052 373.93" stroke="#CF4EFE" stroke-width="1.77" stroke-miterlimit="10"/>
<path d="M139.411 38.8328C93.8538 112.588 75.7818 207.43 216.059 258.753C294.887 287.604 274.472 373.93 274.472 373.93" stroke="#CC43FE" stroke-width="1.81" stroke-miterlimit="10"/>
<path d="M148.844 22.8594C100.618 100.934 81.4868 198.873 229.995 253.232C313.469 283.773 291.852 373.93 291.852 373.93" stroke="#CA39FE" stroke-width="1.86" stroke-miterlimit="10"/>
<path d="M158.298 6.90625C107.382 89.3205 87.1913 190.336 243.951 247.711C332.05 279.963 309.231 373.93 309.231 373.93" stroke="#C72EFF" stroke-width="1.91" stroke-miterlimit="10"/>
<path d="M167.751 -9.04681C114.167 77.7071 92.8958 181.8 257.908 242.189C350.652 276.133 326.63 373.93 326.63 373.93" stroke="#C524FF" stroke-width="1.95" stroke-miterlimit="10"/>
<path d="M177.185 -25C120.911 66.0937 98.5812 173.263 271.865 236.688C369.254 272.323 344.031 373.95 344.031 373.95" stroke="#C219FF" stroke-width="2" stroke-miterlimit="10"/>
<path d="M328.057 278.191C333.416 286.87 335.535 335.463 319.031 341.514C309.761 344.917 312.165 373.93 312.165 373.93" stroke="#F3E1FA" stroke-width="1.11" stroke-miterlimit="10"/>
<path d="M318.623 262.237C326.671 275.257 329.85 326.946 305.095 335.993C291.179 341.086 294.785 373.93 294.785 373.93" stroke="#F0D6FB" stroke-width="1.16" stroke-miterlimit="10"/>
<path d="M309.17 246.284C319.887 263.643 324.146 318.41 291.139 330.492C272.598 337.276 277.386 373.93 277.386 373.93" stroke="#EECCFB" stroke-width="1.21" stroke-miterlimit="10"/>
<path d="M299.736 230.331C313.143 252.03 318.44 309.873 277.202 324.97C254.016 333.446 260.027 373.93 260.027 373.93" stroke="#EBC1FB" stroke-width="1.25" stroke-miterlimit="10"/>
<path d="M290.283 214.358C306.358 240.376 312.736 301.315 263.226 319.428C235.395 329.615 242.607 373.909 242.607 373.909" stroke="#E9B7FB" stroke-width="1.3" stroke-miterlimit="10"/>
<path d="M280.829 198.405C299.594 228.762 307.03 292.779 249.269 313.927C216.813 325.805 225.207 373.93 225.207 373.93" stroke="#E6ACFC" stroke-width="1.35" stroke-miterlimit="10"/>
<path d="M271.396 182.452C292.83 217.149 301.346 284.262 235.333 308.406C198.232 321.975 207.848 373.93 207.848 373.93" stroke="#E3A2FC" stroke-width="1.39" stroke-miterlimit="10"/>
<path d="M261.942 166.498C286.065 205.536 295.621 275.725 221.377 302.905C179.65 318.185 190.448 373.95 190.448 373.95" stroke="#E197FC" stroke-width="1.44" stroke-miterlimit="10"/>
<path d="M252.488 150.525C279.281 193.902 289.916 267.168 207.4 297.363C161.028 314.335 173.049 373.909 173.049 373.909" stroke="#DE8DFC" stroke-width="1.49" stroke-miterlimit="10"/>
<path d="M243.056 134.572C272.537 182.289 284.232 258.631 193.464 291.862C142.447 310.525 155.67 373.93 155.67 373.93" stroke="#DC82FD" stroke-width="1.53" stroke-miterlimit="10"/>
<path d="M233.602 118.619C265.752 170.675 278.507 250.115 179.508 286.34C123.865 306.715 138.27 373.93 138.27 373.93" stroke="#D978FD" stroke-width="1.58" stroke-miterlimit="10"/>
<path d="M224.148 102.666C258.988 159.062 272.802 241.578 165.552 280.819C105.264 302.884 120.891 373.93 120.891 373.93" stroke="#D76DFD" stroke-width="1.63" stroke-miterlimit="10"/>
<path d="M214.714 86.6922C252.224 147.428 267.117 233.021 151.595 275.297C86.6821 299.054 103.491 373.93 103.491 373.93" stroke="#D463FD" stroke-width="1.67" stroke-miterlimit="10"/>
<path d="M205.261 70.7391C245.46 135.815 261.392 224.484 137.639 269.776C68.0807 295.224 86.0917 373.93 86.0917 373.93" stroke="#D158FE" stroke-width="1.72" stroke-miterlimit="10"/>
<path d="M195.827 54.786C238.695 124.201 255.707 215.947 123.702 264.275C49.4987 291.434 68.7321 373.93 68.7321 373.93" stroke="#CF4EFE" stroke-width="1.77" stroke-miterlimit="10"/>
<path d="M186.374 38.8328C231.931 112.588 250.003 207.431 109.726 258.753C30.8974 287.604 51.3125 373.93 51.3125 373.93" stroke="#CC43FE" stroke-width="1.81" stroke-miterlimit="10"/>
<path d="M176.92 22.8594C225.146 100.934 244.277 198.873 95.7688 253.232C12.2951 283.773 33.9123 373.93 33.9123 373.93" stroke="#CA39FE" stroke-width="1.86" stroke-miterlimit="10"/>
<path d="M167.487 6.90631C218.403 89.3205 238.594 190.337 81.8333 247.711C-6.26536 279.963 16.5539 373.93 16.5539 373.93" stroke="#C72EFF" stroke-width="1.91" stroke-miterlimit="10"/>
<path d="M158.033 -9.04681C211.617 77.7071 232.888 181.8 67.8763 242.189C-24.8677 276.133 -0.846319 373.93 -0.846319 373.93" stroke="#C524FF" stroke-width="1.95" stroke-miterlimit="10"/>
<path d="M148.579 -25C204.853 66.0937 227.184 173.263 53.8998 236.688C-43.4692 272.323 -18.2457 373.93 -18.2457 373.93" stroke="#C219FF" stroke-width="2" stroke-miterlimit="10"/>
</g>
</svg>
