<svg id="visual" viewBox="0 0 1920 100" width="1920" height="100" xmlns="http://www.w3.org/2000/svg" xmlns:xlink="http://www.w3.org/1999/xlink" version="1.1"><rect x="0" y="0" width="1920" height="100" fill="#f1f6f8"></rect><path d="M0 21L64 28.8C128 36.7 256 52.3 384 57.2C512 62 640 56 768 49.8C896 43.7 1024 37.3 1152 34.7C1280 32 1408 33 1536 40.2C1664 47.3 1792 60.7 1856 67.3L1920 74L1920 0L1856 0C1792 0 1664 0 1536 0C1408 0 1280 0 1152 0C1024 0 896 0 768 0C640 0 512 0 384 0C256 0 128 0 64 0L0 0Z" fill="#3c647c" stroke-linecap="round" stroke-linejoin="miter"></path></svg>