<svg id="visual" viewBox="0 0 1920 100" width="1920" height="100" xmlns="http://www.w3.org/2000/svg" xmlns:xlink="http://www.w3.org/1999/xlink" version="1.1"><rect x="0" y="0" width="1920" height="100" fill="#f1f6f8"></rect><path d="M0 22L64 30.3C128 38.7 256 55.3 384 58.8C512 62.3 640 52.7 768 45.3C896 38 1024 33 1152 38.2C1280 43.3 1408 58.7 1536 59.5C1664 60.3 1792 46.7 1856 39.8L1920 33L1920 101L1856 101C1792 101 1664 101 1536 101C1408 101 1280 101 1152 101C1024 101 896 101 768 101C640 101 512 101 384 101C256 101 128 101 64 101L0 101Z" fill="#3c647c" stroke-linecap="round" stroke-linejoin="miter"></path></svg>