<svg id="visual" viewBox="0 0 1920 100" width="1920" height="100" xmlns="http://www.w3.org/2000/svg" xmlns:xlink="http://www.w3.org/1999/xlink" version="1.1"><rect x="0" y="0" width="1920" height="100" fill="#f1f6f8"></rect><path d="M0 45L45.7 40C91.3 35 182.7 25 274.2 21.3C365.7 17.7 457.3 20.3 548.8 26.5C640.3 32.7 731.7 42.3 823 49.8C914.3 57.3 1005.7 62.7 1097 60.7C1188.3 58.7 1279.7 49.3 1371.2 41.7C1462.7 34 1554.3 28 1645.8 27C1737.3 26 1828.7 30 1874.3 32L1920 34L1920 101L1874.3 101C1828.7 101 1737.3 101 1645.8 101C1554.3 101 1462.7 101 1371.2 101C1279.7 101 1188.3 101 1097 101C1005.7 101 914.3 101 823 101C731.7 101 640.3 101 548.8 101C457.3 101 365.7 101 274.2 101C182.7 101 91.3 101 45.7 101L0 101Z" fill="#3c647c" stroke-linecap="round" stroke-linejoin="miter"></path></svg>