<svg width="328" height="326" viewBox="0 0 328 326" fill="none" xmlns="http://www.w3.org/2000/svg">
<mask id="mask0_6568_2014" style="mask-type:alpha" maskUnits="userSpaceOnUse" x="-139" y="172" width="728" height="610">
<ellipse cx="224.651" cy="476.704" rx="389.494" ry="270.137" transform="rotate(-29.9536 224.651 476.704)" fill="#D9D9D9"/>
</mask>
<g mask="url(#mask0_6568_2014)">
<path d="M0.509766 269.544V325.571" stroke="#F8F6FA" stroke-width="1.02" stroke-miterlimit="10"/>
<path d="M15.7686 263.694V325.571" stroke="#F5EBFA" stroke-width="1.07" stroke-miterlimit="10"/>
<path d="M31.0449 257.862V325.57" stroke="#F3E1FA" stroke-width="1.12" stroke-miterlimit="10"/>
<path d="M46.3223 252.031V325.57" stroke="#F0D6FB" stroke-width="1.16" stroke-miterlimit="10"/>
<path d="M61.5811 246.199V325.571" stroke="#EECCFB" stroke-width="1.21" stroke-miterlimit="10"/>
<path d="M76.8584 240.35V325.571" stroke="#EBC1FB" stroke-width="1.26" stroke-miterlimit="10"/>
<path d="M92.1172 234.518V325.571" stroke="#E9B7FB" stroke-width="1.31" stroke-miterlimit="10"/>
<path d="M107.394 228.687V325.571" stroke="#E6ACFC" stroke-width="1.36" stroke-miterlimit="10"/>
<path d="M122.652 222.855V325.571" stroke="#E3A2FC" stroke-width="1.41" stroke-miterlimit="10"/>
<path d="M137.929 217.006V325.571" stroke="#E197FC" stroke-width="1.46" stroke-miterlimit="10"/>
<path d="M153.188 211.174V325.571" stroke="#DE8DFC" stroke-width="1.5" stroke-miterlimit="10"/>
<path d="M168.465 205.342V325.571" stroke="#DC82FD" stroke-width="1.55" stroke-miterlimit="10"/>
<path d="M183.742 199.511V325.571" stroke="#D978FD" stroke-width="1.6" stroke-miterlimit="10"/>
<path d="M199 193.661V325.571" stroke="#D76DFD" stroke-width="1.65" stroke-miterlimit="10"/>
<path d="M214.277 187.829V325.57" stroke="#D463FD" stroke-width="1.7" stroke-miterlimit="10"/>
<path d="M229.536 181.998V325.571" stroke="#D158FE" stroke-width="1.75" stroke-miterlimit="10"/>
<path d="M244.813 176.166V325.571" stroke="#CF4EFE" stroke-width="1.79" stroke-miterlimit="10"/>
<path d="M260.072 170.316V325.571" stroke="#CC43FE" stroke-width="1.84" stroke-miterlimit="10"/>
<path d="M275.349 164.485V325.57" stroke="#CA39FE" stroke-width="1.89" stroke-miterlimit="10"/>
<path d="M290.607 158.653V325.57" stroke="#C72EFF" stroke-width="1.94" stroke-miterlimit="10"/>
<path d="M305.885 152.821V325.571" stroke="#C524FF" stroke-width="1.99" stroke-miterlimit="10"/>
<path d="M321.144 146.972V325.57" stroke="#C219FF" stroke-width="2.04" stroke-miterlimit="10"/>
</g>
<path d="M326.511 223.427V325.57" stroke="#F8F6FA" stroke-width="1.38" stroke-miterlimit="10"/>
<path d="M311.251 212.784V325.571" stroke="#F5EBFA" stroke-width="1.44" stroke-miterlimit="10"/>
<path d="M295.975 202.14V325.571" stroke="#F3E1FA" stroke-width="1.51" stroke-miterlimit="10"/>
<path d="M280.716 191.514V325.571" stroke="#F0D6FB" stroke-width="1.57" stroke-miterlimit="10"/>
<path d="M265.438 180.871V325.571" stroke="#EECCFB" stroke-width="1.64" stroke-miterlimit="10"/>
<path d="M250.181 170.227V325.57" stroke="#EBC1FB" stroke-width="1.7" stroke-miterlimit="10"/>
<path d="M234.903 159.583V325.57" stroke="#E9B7FB" stroke-width="1.77" stroke-miterlimit="10"/>
<path d="M219.645 148.957V325.571" stroke="#E6ACFC" stroke-width="1.83" stroke-miterlimit="10"/>
<path d="M204.367 138.314V325.571" stroke="#E3A2FC" stroke-width="1.9" stroke-miterlimit="10"/>
<path d="M189.109 127.67V325.571" stroke="#E197FC" stroke-width="1.96" stroke-miterlimit="10"/>
<path d="M173.832 117.026V325.57" stroke="#DE8DFC" stroke-width="2.03" stroke-miterlimit="10"/>
<path d="M158.556 106.401V325.571" stroke="#DC82FD" stroke-width="2.1" stroke-miterlimit="10"/>
<path d="M143.296 95.7572V325.571" stroke="#D978FD" stroke-width="2.16" stroke-miterlimit="10"/>
<path d="M128.02 85.1134V325.571" stroke="#D76DFD" stroke-width="2.23" stroke-miterlimit="10"/>
<path d="M112.761 74.4695V325.57" stroke="#D463FD" stroke-width="2.29" stroke-miterlimit="10"/>
<path d="M97.4844 63.844V325.571" stroke="#D158FE" stroke-width="2.36" stroke-miterlimit="10"/>
<path d="M82.2256 53.2002V325.57" stroke="#CF4EFE" stroke-width="2.42" stroke-miterlimit="10"/>
<path d="M66.9482 42.5568V325.571" stroke="#CC43FE" stroke-width="2.49" stroke-miterlimit="10"/>
<path d="M51.6895 31.9132V325.571" stroke="#CA39FE" stroke-width="2.55" stroke-miterlimit="10"/>
<path d="M36.4131 21.287V325.57" stroke="#C72EFF" stroke-width="2.62" stroke-miterlimit="10"/>
<path d="M21.1357 10.6434V325.57" stroke="#C524FF" stroke-width="2.69" stroke-miterlimit="10"/>
<path d="M5.87695 0V325.571" stroke="#C219FF" stroke-width="2.75" stroke-miterlimit="10"/>
</svg>
