<?xml version="1.0" encoding="UTF-8"?>
<!DOCTYPE svg PUBLIC "-//W3C//DTD SVG 1.1//EN" "http://www.w3.org/Graphics/SVG/1.1/DTD/svg11.dtd">
<svg version="1.1" xmlns="http://www.w3.org/2000/svg" xmlns:xlink="http://www.w3.org/1999/xlink" x="0" y="0" width="441" height="413" viewBox="0, 0, 441, 413">
  <g id="Layer_1"/>
  <g id="Layer_2">
    <path d="M0.099,292.6 C9.764,279.649 107.377,27.311 248.71,12.645 C334.413,3.751 426.044,33.113 435.377,109.978 C448.135,215.049 368.703,236.839 353.707,240.922 C323.565,249.443 282.046,236.909 271.568,230.241 C262.462,223.853 242.877,205.835 243.366,172.794 C244.705,134.809 268.796,126.64 273.656,125.791 C272.19,135.91 273.993,149.223 286.527,163.324 C299.061,177.425 307.939,178.991 324.129,176.902 C340.319,174.813 360.165,151.312 360.687,128.855 C361.209,106.398 342.808,79.12 288.493,80.164 C234.179,81.209 181.555,126.244 180.51,212.415 C179.466,298.587 281.075,330.457 315.979,330.733 C348.652,330.991 413.646,320.733 440.988,292.571 C440.903,303.642 440.988,411.363 440.988,411.363 C440.988,411.363 0.043,413 0.043,413 C0.043,413 -0.055,299.673 0.099,292.6 z" fill="#29586C"/>
    <path d="M49.191,77.574 C37.365,77.574 27.778,67.988 27.778,56.162 C27.778,44.336 37.365,34.75 49.191,34.75 C61.016,34.75 70.603,44.336 70.603,56.162 C70.603,67.988 61.016,77.574 49.191,77.574 z" fill="#29586C"/>
    <path d="M121.973,346.458 C110.148,346.458 100.561,336.872 100.561,325.046 C100.561,313.22 110.148,303.634 121.973,303.634 C133.799,303.634 143.386,313.22 143.386,325.046 C143.386,336.872 133.799,346.458 121.973,346.458 z" fill="#FFFDFD"/>
  </g>
</svg>
