<?xml version="1.0" encoding="UTF-8"?>
<!DOCTYPE svg PUBLIC "-//W3C//DTD SVG 1.1//EN" "http://www.w3.org/Graphics/SVG/1.1/DTD/svg11.dtd">
<svg version="1.1" xmlns="http://www.w3.org/2000/svg" xmlns:xlink="http://www.w3.org/1999/xlink" x="0" y="0" width="441" height="413" viewBox="0, 0, 441, 413">
  <g id="Layer_1"/>
  <g id="Layer_2">
    <path d="M0.083,294.237 C9.749,281.286 107.361,28.948 248.695,14.281 C334.397,5.388 426.028,34.749 435.361,111.615 C448.12,216.686 368.687,238.476 353.691,242.558 C323.55,251.08 282.031,238.546 271.552,231.878 C262.446,225.49 242.862,207.472 243.35,174.43 C244.69,136.446 268.78,128.276 273.641,127.428 C272.175,137.546 273.978,150.86 286.512,164.96 C299.046,179.061 307.924,180.628 324.114,178.539 C340.304,176.45 360.149,152.949 360.671,130.492 C361.194,108.035 342.792,80.757 288.478,81.801 C234.164,82.846 181.539,127.881 180.495,214.052 C179.45,300.224 281.06,332.094 315.964,332.37 C348.636,332.628 413.63,322.37 440.972,294.208 C440.888,305.278 440.972,413 440.972,413 C440.972,413 0.028,414.637 0.028,414.637 C0.028,414.637 -0.071,301.31 0.083,294.237 z" fill="#000000"/>
    <path d="M49.191,77.574 C37.365,77.574 27.778,67.988 27.778,56.162 C27.778,44.336 37.365,34.75 49.191,34.75 C61.016,34.75 70.603,44.336 70.603,56.162 C70.603,67.988 61.016,77.574 49.191,77.574 z" fill="#000000"/>
    <path d="M121.973,346.458 C110.148,346.458 100.561,336.872 100.561,325.046 C100.561,313.22 110.148,303.634 121.973,303.634 C133.799,303.634 143.386,313.22 143.386,325.046 C143.386,336.872 133.799,346.458 121.973,346.458 z" fill="#FFFDFD"/>
  </g>
</svg>
