<svg xmlns="http://www.w3.org/2000/svg" viewBox="0 0 960 600" font-family="Helvetica, Arial, sans-serif" font-size="12">
<rect width="100%" height="100%" fill="white"/>
<text x="480.0" y="22" text-anchor="middle" font-size="16" font-weight="bold">Chunking benefit: n = 2 parallel chunks (pointwise 95% bootstrap CI)</text>
<text x="480.0" y="40" text-anchor="middle" fill="#555">size=12500 kB, link=1000 Mbps, RTT=50 ms, p=1.00e-04</text>
<text x="480.0" y="56" text-anchor="middle" fill="#555">scenario=optimistic, runs=500000, bootstrap B=500; curve is F_chunk(t)^n</text>
<rect x="80" y="70" width="820" height="470" fill="#fafafa" stroke="#888"/>
<line x1="80.00" y1="70" x2="80.00" y2="540" stroke="#e0e0e0"/>
<text x="80.00" y="556" text-anchor="middle" fill="#333">0.000</text>
<line x1="182.50" y1="70" x2="182.50" y2="540" stroke="#e0e0e0"/>
<text x="182.50" y="556" text-anchor="middle" fill="#333">0.902</text>
<line x1="285.00" y1="70" x2="285.00" y2="540" stroke="#e0e0e0"/>
<text x="285.00" y="556" text-anchor="middle" fill="#333">1.80</text>
<line x1="387.50" y1="70" x2="387.50" y2="540" stroke="#e0e0e0"/>
<text x="387.50" y="556" text-anchor="middle" fill="#333">2.71</text>
<line x1="490.00" y1="70" x2="490.00" y2="540" stroke="#e0e0e0"/>
<text x="490.00" y="556" text-anchor="middle" fill="#333">3.61</text>
<line x1="592.50" y1="70" x2="592.50" y2="540" stroke="#e0e0e0"/>
<text x="592.50" y="556" text-anchor="middle" fill="#333">4.51</text>
<line x1="695.00" y1="70" x2="695.00" y2="540" stroke="#e0e0e0"/>
<text x="695.00" y="556" text-anchor="middle" fill="#333">5.41</text>
<line x1="797.50" y1="70" x2="797.50" y2="540" stroke="#e0e0e0"/>
<text x="797.50" y="556" text-anchor="middle" fill="#333">6.32</text>
<line x1="900.00" y1="70" x2="900.00" y2="540" stroke="#e0e0e0"/>
<text x="900.00" y="556" text-anchor="middle" fill="#333">7.22</text>
<line x1="80" y1="540.00" x2="900" y2="540.00" stroke="#e0e0e0"/>
<text x="72" y="544.00" text-anchor="end" fill="#333">0.0</text>
<line x1="80" y1="493.00" x2="900" y2="493.00" stroke="#e0e0e0"/>
<text x="72" y="497.00" text-anchor="end" fill="#333">0.1</text>
<line x1="80" y1="446.00" x2="900" y2="446.00" stroke="#e0e0e0"/>
<text x="72" y="450.00" text-anchor="end" fill="#333">0.2</text>
<line x1="80" y1="399.00" x2="900" y2="399.00" stroke="#e0e0e0"/>
<text x="72" y="403.00" text-anchor="end" fill="#333">0.3</text>
<line x1="80" y1="352.00" x2="900" y2="352.00" stroke="#e0e0e0"/>
<text x="72" y="356.00" text-anchor="end" fill="#333">0.4</text>
<line x1="80" y1="305.00" x2="900" y2="305.00" stroke="#e0e0e0"/>
<text x="72" y="309.00" text-anchor="end" fill="#333">0.5</text>
<line x1="80" y1="258.00" x2="900" y2="258.00" stroke="#e0e0e0"/>
<text x="72" y="262.00" text-anchor="end" fill="#333">0.6</text>
<line x1="80" y1="211.00" x2="900" y2="211.00" stroke="#e0e0e0"/>
<text x="72" y="215.00" text-anchor="end" fill="#333">0.7</text>
<line x1="80" y1="164.00" x2="900" y2="164.00" stroke="#e0e0e0"/>
<text x="72" y="168.00" text-anchor="end" fill="#333">0.8</text>
<line x1="80" y1="117.00" x2="900" y2="117.00" stroke="#e0e0e0"/>
<text x="72" y="121.00" text-anchor="end" fill="#333">0.9</text>
<line x1="80" y1="70.00" x2="900" y2="70.00" stroke="#e0e0e0"/>
<text x="72" y="74.00" text-anchor="end" fill="#333">1.0</text>
<line x1="80" y1="74.70" x2="900" y2="74.70" stroke="#888" stroke-width="1" stroke-dasharray="4,4"/>
<text x="894.00" y="70.70" text-anchor="end" fill="#555" font-style="italic">P99</text>
<text x="490.0" y="585" text-anchor="middle">Download time (seconds)</text>
<text transform="translate(20,305.0) rotate(-90)" text-anchor="middle">Cumulative probability  (whole-file)</text>
<polygon points="80.00,540.00 121.41,540.00 124.42,540.00 124.86,540.00 125.16,540.00 125.38,539.99 125.56,539.99 125.72,539.98 125.86,539.98 125.97,539.97 126.08,539.96 126.17,539.95 126.25,539.94 126.33,539.93 126.41,539.92 126.47,539.90 126.54,539.89 126.60,539.87 126.65,539.86 126.71,539.84 126.77,539.82 126.82,539.80 126.87,539.78 126.92,539.76 126.96,539.74 127.01,539.72 127.05,539.69 127.09,539.67 127.14,539.65 127.17,539.62 127.21,539.59 127.25,539.56 127.29,539.53 127.32,539.50 127.36,539.47 127.39,539.44 127.42,539.41 127.45,539.37 127.48,539.34 127.52,539.30 127.54,539.27 127.57,539.23 127.60,539.19 127.63,539.15 127.66,539.11 127.68,539.07 127.71,539.02 127.73,538.98 127.76,538.94 127.79,538.89 127.81,538.84 127.84,538.80 127.86,538.75 127.89,538.70 127.91,538.65 127.93,538.60 127.96,538.55 127.98,538.49 128.00,538.44 128.02,538.38 128.05,538.32 128.07,538.27 128.09,538.21 128.11,538.15 128.13,538.10 128.15,538.03 128.17,537.97 128.19,537.91 128.21,537.85 128.23,537.78 128.25,537.72 128.27,537.65 128.29,537.58 128.31,537.52 128.32,537.45 128.34,537.37 128.36,537.30 128.38,537.23 128.40,537.15 128.41,537.09 128.43,537.01 128.45,536.93 128.47,536.86 128.48,536.78 128.50,536.70 128.52,536.62 128.54,536.54 128.55,536.46 128.57,536.38 128.58,536.29 128.60,536.21 128.62,536.13 128.64,536.04 128.65,535.96 128.67,535.86 128.68,535.77 128.70,535.68 128.71,535.60 128.73,535.50 128.74,535.41 128.76,535.31 128.77,535.21 128.79,535.13 128.80,535.04 128.82,534.93 128.83,534.84 128.85,534.73 128.86,534.64 128.88,534.53 128.89,534.42 128.90,534.33 128.92,534.22 128.93,534.12 128.95,534.01 128.96,533.90 128.98,533.79 128.99,533.68 129.00,533.58 129.02,533.47 129.03,533.35 129.04,533.25 129.06,533.13 129.07,533.02 129.08,532.90 129.10,532.79 129.11,532.66 129.12,532.55 129.14,532.43 129.15,532.32 129.16,532.19 129.18,532.07 129.19,531.96 129.20,531.83 129.21,531.69 129.23,531.55 129.24,531.44 129.25,531.30 129.26,531.19 129.28,531.06 129.29,530.93 129.30,530.80 129.32,530.66 129.33,530.53 129.34,530.38 129.35,530.24 129.36,530.11 129.38,529.99 129.39,529.86 129.40,529.70 129.41,529.57 129.43,529.43 129.44,529.30 129.45,529.14 129.46,529.01 129.47,528.84 129.48,528.70 129.50,528.57 129.51,528.44 129.52,528.27 129.53,528.12 129.54,527.97 129.55,527.81 129.56,527.65 129.58,527.50 129.59,527.35 129.60,527.20 129.61,527.04 129.62,526.90 129.63,526.73 129.64,526.57 129.65,526.40 129.66,526.25 129.67,526.08 129.69,525.93 129.70,525.76 129.71,525.59 129.72,525.43 129.73,525.29 129.74,525.09 129.75,524.94 129.76,524.76 129.77,524.59 129.78,524.41 129.79,524.26 129.80,524.08 129.81,523.91 129.82,523.72 129.83,523.57 129.84,523.38 129.85,523.20 129.87,523.02 129.88,522.85 129.89,522.65 129.90,522.49 129.91,522.30 129.92,522.11 129.93,521.94 129.94,521.75 129.95,521.55 129.96,521.37 129.97,521.18 129.98,520.99 129.99,520.79 130.00,520.63 130.01,520.42 130.02,520.23 130.03,520.00 130.04,519.84 130.05,519.63 130.06,519.45 130.07,519.25 130.08,519.05 130.09,518.81 130.10,518.66 130.11,518.45 130.12,518.27 130.13,518.05 130.14,517.84 130.15,517.66 130.16,517.40 130.17,517.21 130.18,517.03 130.19,516.80 130.20,516.60 130.21,516.37 130.22,516.16 130.22,515.96 130.23,515.76 130.24,515.55 130.25,515.29 130.26,515.10 130.27,514.89 130.28,514.67 130.29,514.41 130.30,514.23 130.31,514.03 130.32,513.79 130.33,513.53 130.33,513.34 130.34,513.11 130.35,512.87 130.36,512.68 130.37,512.38 130.38,512.21 130.39,511.97 130.40,511.77 130.41,511.50 130.42,511.30 130.43,511.06 130.44,510.80 130.45,510.58 130.46,510.34 130.47,510.10 130.47,509.86 130.48,509.61 130.49,509.39 130.50,509.15 130.51,508.91 130.52,508.65 130.53,508.42 130.54,508.19 130.54,507.93 130.55,507.68 130.56,507.44 130.57,507.21 130.58,506.96 130.59,506.68 130.60,506.40 130.61,506.20 130.62,505.90 130.63,505.70 130.63,505.43 130.64,505.16 130.65,504.90 130.66,504.65 130.67,504.38 130.68,504.13 130.69,503.87 130.70,503.64 130.70,503.36 130.71,503.07 130.72,502.79 130.73,502.61 130.74,502.28 130.75,502.00 130.76,501.74 130.76,501.52 130.77,501.22 130.78,500.92 130.79,500.67 130.80,500.42 130.81,500.12 130.82,499.84 130.83,499.56 130.83,499.35 130.84,499.02 130.85,498.76 130.86,498.48 130.87,498.18 130.88,497.91 130.89,497.61 130.89,497.30 130.90,497.00 130.91,496.80 130.92,496.53 130.93,496.19 130.94,495.93 130.95,495.63 130.96,495.33 130.96,495.04 130.97,494.77 130.98,494.48 130.99,494.15 131.00,493.90 131.01,493.58 131.01,493.28 131.02,492.99 131.03,492.67 131.04,492.36 131.05,492.09 131.06,491.81 131.07,491.49 131.07,491.17 131.08,490.89 131.09,490.59 131.10,490.27 131.11,489.92 131.12,489.67 131.13,489.37 131.13,489.04 131.14,488.71 131.15,488.45 131.16,488.09 131.17,487.82 131.18,487.47 131.18,487.16 131.19,486.86 131.20,486.54 131.21,486.17 131.22,485.86 131.23,485.50 131.23,485.23 131.24,484.93 131.25,484.60 131.26,484.24 131.27,483.93 131.28,483.65 131.29,483.30 131.29,483.02 131.30,482.65 131.31,482.32 131.32,481.97 131.33,481.62 131.34,481.33 131.34,481.00 131.35,480.67 131.36,480.32 131.37,479.94 131.38,479.71 131.39,479.32 131.40,479.01 131.40,478.63 131.41,478.33 131.42,477.90 131.43,477.57 131.44,477.24 131.45,476.93 131.45,476.57 131.46,476.22 131.47,475.90 131.48,475.57 131.49,475.18 131.49,474.89 131.50,474.49 131.51,474.10 131.52,473.76 131.53,473.42 131.53,473.04 131.54,472.72 131.55,472.41 131.56,472.00 131.57,471.59 131.58,471.29 131.58,470.96 131.59,470.57 131.60,470.20 131.61,469.86 131.62,469.45 131.62,469.13 131.63,468.69 131.64,468.38 131.65,467.99 131.66,467.62 131.67,467.26 131.67,466.91 131.68,466.55 131.69,466.20 131.70,465.81 131.71,465.45 131.72,465.04 131.72,464.65 131.73,464.29 131.74,463.92 131.75,463.56 131.76,463.21 131.77,462.82 131.77,462.38 131.78,461.98 131.79,461.61 131.80,461.27 131.81,460.84 131.82,460.38 131.82,460.07 131.83,459.65 131.84,459.32 131.85,458.92 131.86,458.58 131.87,458.10 131.87,457.74 131.88,457.33 131.89,456.95 131.90,456.57 131.91,456.17 131.92,455.74 131.92,455.39 131.93,454.95 131.94,454.57 131.95,454.18 131.96,453.74 131.97,453.31 131.97,452.91 131.98,452.54 131.99,452.12 132.00,451.76 132.01,451.28 132.02,450.86 132.03,450.48 132.03,450.13 132.04,449.71 132.05,449.35 132.06,448.87 132.07,448.47 132.08,448.00 132.09,447.61 132.09,447.14 132.10,446.79 132.11,446.35 132.12,445.93 132.13,445.51 132.14,445.10 132.14,444.64 132.15,444.22 132.16,443.84 132.17,443.26 132.18,442.97 132.19,442.45 132.19,442.05 132.20,441.71 132.21,441.31 132.22,440.87 132.23,440.40 132.24,439.97 132.25,439.54 132.26,439.08 132.26,438.64 132.27,438.23 132.28,437.77 132.29,437.31 132.30,436.86 132.31,436.41 132.31,436.01 132.32,435.59 132.33,435.17 132.34,434.66 132.35,434.25 132.36,433.71 132.37,433.33 132.38,432.87 132.38,432.47 132.39,431.99 132.40,431.56 132.41,431.08 132.42,430.62 132.43,430.20 132.44,429.68 132.44,429.31 132.45,428.85 132.46,428.36 132.47,427.88 132.48,427.44 132.49,426.97 132.50,426.47 132.51,426.06 132.51,425.60 132.52,425.15 132.53,424.65 132.54,424.17 132.55,423.74 132.56,423.27 132.57,422.78 132.58,422.33 132.59,421.84 132.60,421.35 132.60,420.91 132.61,420.42 132.62,419.97 132.63,419.52 132.64,418.91 132.65,418.45 132.66,418.06 132.67,417.64 132.68,417.09 132.68,416.62 132.69,416.11 132.70,415.67 132.71,415.17 132.72,414.65 132.73,414.28 132.74,413.77 132.75,413.19 132.76,412.74 132.77,412.24 132.78,411.70 132.79,411.14 132.80,410.77 132.80,410.30 132.81,409.84 132.82,409.21 132.83,408.75 132.84,408.28 132.85,407.78 132.86,407.32 132.87,406.73 132.88,406.26 132.88,405.79 132.89,405.26 132.90,404.83 132.91,404.26 132.92,403.76 132.93,403.27 132.94,402.71 132.95,402.18 132.96,401.75 132.97,401.27 132.98,400.66 132.99,400.24 133.00,399.67 133.01,399.23 133.02,398.62 133.03,398.20 133.04,397.70 133.04,397.11 133.05,396.55 133.06,396.09 133.07,395.53 133.08,395.04 133.09,394.61 133.10,394.05 133.11,393.46 133.12,392.93 133.13,392.39 133.14,391.91 133.15,391.41 133.16,390.78 133.17,390.36 133.18,389.74 133.19,389.23 133.20,388.68 133.21,388.18 133.22,387.64 133.23,387.09 133.24,386.56 133.25,385.93 133.26,385.45 133.27,384.90 133.28,384.40 133.29,383.85 133.30,383.33 133.31,382.82 133.32,382.28 133.33,381.68 133.34,381.15 133.35,380.59 133.36,379.94 133.37,379.49 133.38,379.05 133.40,378.38 133.41,377.84 133.42,377.18 133.43,376.77 133.44,376.20 133.45,375.68 133.46,375.14 133.47,374.46 133.48,373.90 133.49,373.30 133.50,372.80 133.51,372.38 133.52,371.74 133.53,371.19 133.54,370.65 133.55,370.14 133.56,369.45 133.57,368.89 133.58,368.37 133.59,367.70 133.60,367.14 133.61,366.61 133.63,366.06 133.64,365.38 133.65,364.89 133.66,364.34 133.67,363.74 133.68,363.19 133.69,362.71 133.70,362.00 133.71,361.42 133.72,360.92 133.73,360.36 133.75,359.59 133.76,359.14 133.77,358.62 133.78,358.00 133.79,357.37 133.80,356.77 133.81,356.26 133.82,355.53 133.84,355.01 133.85,354.49 133.86,353.89 133.87,353.35 133.88,352.61 133.89,352.07 133.91,351.48 133.92,350.92 133.93,350.26 133.94,349.65 133.95,349.12 133.96,348.62 133.98,348.01 133.99,347.28 134.00,346.70 134.01,346.10 134.02,345.48 134.04,344.89 134.05,344.29 134.06,343.64 134.07,343.14 134.08,342.37 134.10,341.75 134.11,341.23 134.12,340.57 134.13,340.01 134.15,339.43 134.16,338.76 134.17,338.22 134.18,337.59 134.19,336.95 134.21,336.32 134.22,335.67 134.23,335.19 134.25,334.45 134.26,333.82 134.27,333.12 134.28,332.66 134.30,331.93 134.31,331.39 134.32,330.72 134.34,330.04 134.35,329.41 134.36,328.93 134.38,328.24 134.39,327.47 134.40,326.82 134.42,326.31 134.43,325.60 134.44,325.01 134.46,324.30 134.47,323.69 134.48,323.20 134.50,322.46 134.51,321.82 134.53,321.11 134.54,320.50 134.56,319.88 134.57,319.24 134.58,318.72 134.60,317.94 134.61,317.30 134.63,316.69 134.64,316.06 134.66,315.49 134.67,314.63 134.69,314.13 134.70,313.50 134.72,312.82 134.73,312.19 134.75,311.57 134.76,310.90 134.78,310.14 134.79,309.57 134.81,308.81 134.82,308.26 134.84,307.62 134.85,307.00 134.87,306.18 134.89,305.58 134.90,304.89 134.92,304.24 134.93,303.59 134.95,302.88 134.97,302.24 134.98,301.61 135.00,300.90 135.01,300.34 135.03,299.55 135.05,298.86 135.06,298.18 135.08,297.47 135.10,296.91 135.11,296.21 135.13,295.52 135.14,294.83 135.16,294.17 135.18,293.45 135.20,292.76 135.21,292.14 135.23,291.31 135.25,290.82 135.27,290.17 135.28,289.43 135.30,288.71 135.32,287.94 135.34,287.28 135.36,286.63 135.38,285.98 135.40,285.27 135.41,284.61 135.43,283.87 135.45,283.12 135.47,282.58 135.49,281.86 135.51,281.03 135.53,280.43 135.55,279.71 135.57,279.02 135.59,278.31 135.61,277.69 135.63,276.93 135.65,276.09 135.67,275.53 135.69,274.75 135.71,274.07 135.73,273.35 135.75,272.65 135.77,271.92 135.80,271.34 135.82,270.37 135.84,269.88 135.86,269.06 135.88,268.45 135.91,267.58 135.93,266.97 135.96,266.22 135.98,265.53 136.00,264.84 136.03,264.10 136.05,263.37 136.07,262.65 136.10,261.95 136.13,261.25 136.15,260.48 136.18,259.80 136.20,259.02 136.23,258.27 136.25,257.59 136.28,256.92 136.30,256.05 136.33,255.43 136.35,254.65 136.38,253.93 136.41,253.15 136.43,252.40 136.46,251.77 136.49,250.99 136.52,250.29 136.55,249.48 136.58,248.77 136.61,248.07 136.64,247.32 136.67,246.60 136.70,245.81 136.73,245.07 136.76,244.43 136.79,243.59 136.82,242.83 136.85,242.08 136.88,241.36 136.92,240.68 136.95,239.93 136.98,239.13 137.02,238.29 137.05,237.67 137.09,236.91 137.12,236.15 137.16,235.26 137.19,234.53 137.23,233.83 137.27,233.07 137.31,232.35 137.34,231.57 137.37,230.77 137.41,230.07 137.45,229.35 137.49,228.51 137.53,227.81 137.57,226.99 137.61,226.28 137.65,225.52 137.70,224.64 137.74,223.97 137.78,223.13 137.83,222.35 137.87,221.57 137.92,220.86 137.97,220.02 138.01,219.25 138.06,218.50 138.11,217.77 138.16,216.91 138.21,216.16 138.27,215.42 138.32,214.62 138.38,213.80 138.43,213.07 138.49,212.25 138.55,211.37 138.60,210.71 138.66,209.88 138.72,209.20 138.78,208.40 138.84,207.56 138.91,206.78 138.97,205.89 139.04,205.22 139.11,204.48 139.18,203.56 139.26,202.77 139.33,202.06 139.42,201.28 139.50,200.40 139.58,199.60 139.66,198.81 139.75,198.05 139.84,197.24 139.93,196.35 140.02,195.61 140.11,194.86 140.21,194.04 140.31,193.21 140.43,192.48 140.54,191.61 140.65,190.78 140.77,190.04 140.90,189.15 141.03,188.29 141.17,187.56 141.33,186.74 141.50,185.89 141.69,185.04 141.87,184.31 142.06,183.51 142.30,182.67 142.56,181.85 142.85,181.07 143.20,180.24 143.58,179.34 144.06,178.56 144.59,177.73 145.23,176.92 146.18,176.08 148.01,175.31 153.28,174.39 154.64,173.61 155.35,172.77 155.86,172.02 156.27,171.16 156.64,170.34 156.97,169.50 157.25,168.63 157.52,167.79 157.76,167.06 157.98,166.19 158.21,165.37 158.42,164.43 158.62,163.56 158.81,162.85 159.00,161.92 159.19,161.05 159.35,160.25 159.53,159.42 159.70,158.53 159.87,157.77 160.04,156.91 160.21,156.04 160.38,155.17 160.55,154.33 160.73,153.51 160.90,152.65 161.07,151.87 161.24,150.94 161.43,150.06 161.63,149.24 161.82,148.32 162.01,147.51 162.22,146.73 162.43,145.84 162.64,144.96 162.85,144.12 163.07,143.31 163.30,142.38 163.56,141.57 163.86,140.64 164.16,139.86 164.50,138.98 164.89,138.08 165.36,137.23 165.88,136.30 166.58,135.42 167.44,134.70 168.51,133.74 169.84,132.84 171.33,131.97 172.83,131.19 174.41,130.31 176.25,129.38 178.38,128.56 181.02,127.60 183.84,126.73 188.40,125.85 197.94,124.88 200.15,124.14 201.34,123.27 202.20,122.36 202.91,121.50 203.53,120.58 204.08,119.70 204.55,118.88 205.03,117.93 205.49,117.09 205.94,116.21 206.38,115.21 206.80,114.40 207.22,113.54 207.65,112.64 208.13,111.68 208.65,110.85 209.20,109.94 209.79,109.04 210.43,108.12 211.17,107.28 212.15,106.39 213.42,105.52 215.98,104.60 221.14,103.67 227.26,102.71 233.30,101.86 239.02,100.98 245.50,100.06 251.34,99.19 261.71,98.28 278.98,97.36 281.32,96.43 283.05,95.50 284.45,94.63 285.79,93.71 287.02,92.80 288.20,91.87 289.53,91.00 291.02,90.03 293.03,89.14 296.08,88.29 307.00,87.33 326.01,86.44 344.64,85.53 367.93,84.59 422.18,83.67 432.64,82.75 435.79,81.83 438.68,80.91 441.74,80.00 446.82,79.09 446.98,79.08 447.08,79.06 447.26,79.05 447.39,79.00 447.59,78.97 447.80,79.01 447.90,78.97 448.10,78.93 448.34,78.91 448.46,78.92 448.66,78.89 448.90,78.85 449.13,78.87 449.36,78.84 449.55,78.83 450.00,78.80 450.38,78.79 450.76,78.77 451.14,78.76 451.58,78.72 451.96,78.71 452.52,78.70 452.92,78.69 453.71,78.65 454.56,78.63 455.82,78.62 456.66,78.59 457.41,78.60 458.36,78.55 459.27,78.54 460.18,78.53 461.45,78.53 462.78,78.47 463.96,78.48 465.08,78.47 466.26,78.43 467.26,78.41 468.14,78.41 469.43,78.37 470.68,78.34 471.59,78.36 472.16,78.34 473.01,78.30 474.00,78.28 474.91,78.26 475.97,78.24 477.41,78.23 477.96,78.19 478.36,78.20 479.00,78.14 479.53,78.16 480.54,78.14 482.37,78.14 483.55,78.12 484.34,78.05 485.14,78.07 485.91,78.07 486.83,78.06 487.46,78.03 488.49,78.00 489.03,77.97 490.09,77.93 491.53,77.91 492.65,77.90 493.42,77.89 494.04,77.92 494.77,77.88 495.25,77.84 495.98,77.85 496.85,77.81 498.01,77.76 499.07,77.78 499.96,77.74 500.76,77.74 502.06,77.74 503.93,77.70 505.43,77.70 506.21,77.64 507.13,77.64 508.45,77.60 509.08,77.60 510.13,77.61 511.75,77.55 513.06,77.58 513.95,77.54 514.86,77.49 516.74,77.48 517.56,77.46 518.68,77.46 519.44,77.43 520.59,77.44 521.96,77.40 523.17,77.41 524.23,77.38 526.17,77.36 527.72,77.32 529.44,77.31 531.36,77.29 532.17,77.29 533.90,77.25 536.32,77.23 538.41,77.23 539.73,77.21 543.48,77.18 545.96,77.20 546.60,77.16 548.42,77.14 550.46,77.11 552.04,77.08 554.97,77.09 556.35,77.06 558.81,77.02 561.32,77.02 564.05,77.00 565.35,76.98 567.42,76.96 570.34,76.95 572.17,76.92 574.77,76.92 576.51,76.92 578.74,76.88 580.48,76.86 583.28,76.84 584.96,76.83 587.42,76.79 589.32,76.81 591.66,76.77 596.25,76.74 598.63,76.72 604.33,76.68 606.33,76.67 609.58,76.66 613.40,76.64 617.02,76.62 620.38,76.62 622.70,76.58 628.73,76.59 633.59,76.55 640.33,76.55 647.04,76.52 657.46,76.52 670.38,76.47 683.17,76.47 700.60,76.45 709.31,76.41 712.57,76.43 714.07,76.41 715.04,76.39 716.03,76.35 716.80,76.33 717.43,76.33 717.89,76.29 718.11,76.28 718.63,76.27 719.03,76.24 719.31,76.25 719.53,76.23 719.73,76.20 719.99,76.19 720.24,76.15 720.47,76.14 720.71,76.12 721.01,76.08 721.31,76.08 721.43,76.07 721.70,76.05 721.89,76.02 722.14,75.99 722.28,75.97 722.44,75.98 722.71,75.95 722.83,75.94 723.05,75.92 723.13,75.90 723.28,75.87 723.49,75.87 723.64,75.85 723.86,75.82 724.02,75.82 724.18,75.78 724.43,75.78 724.51,75.73 724.69,75.74 724.86,75.71 725.06,75.71 725.15,75.68 725.26,75.65 725.44,75.64 725.64,75.63 725.80,75.60 725.95,75.59 726.12,75.56 726.35,75.54 726.60,75.53 726.75,75.51 726.89,75.49 727.02,75.46 727.25,75.47 727.36,75.45 727.58,75.42 727.75,75.40 727.89,75.38 728.02,75.36 728.12,75.34 728.30,75.31 728.46,75.31 728.67,75.28 728.80,75.29 728.91,75.26 729.07,75.25 729.20,75.23 729.38,75.20 729.57,75.16 729.77,75.15 729.98,75.14 730.18,75.14 730.32,75.11 730.47,75.08 730.73,75.06 730.98,75.04 731.19,75.04 731.36,75.02 731.50,74.99 731.70,74.98 731.80,74.97 731.90,74.93 732.09,74.94 732.37,74.91 732.64,74.90 732.88,74.88 733.02,74.86 733.13,74.82 733.26,74.82 733.50,74.81 733.62,74.76 733.87,74.74 733.97,74.76 734.20,74.72 734.39,74.72 734.55,74.69 734.84,74.65 734.98,74.65 735.12,74.63 735.31,74.64 735.49,74.59 735.61,74.59 735.80,74.56 736.09,74.54 736.28,74.52 736.57,74.50 736.81,74.49 736.94,74.47 737.23,74.46 737.36,74.41 737.65,74.40 737.92,74.40 738.06,74.37 738.42,74.36 738.74,74.35 739.04,74.33 739.28,74.31 739.61,74.29 739.88,74.29 740.27,74.26 740.49,74.24 740.74,74.23 740.96,74.21 741.29,74.18 741.55,74.16 742.07,74.15 742.44,74.14 742.92,74.09 743.35,74.07 743.57,74.05 743.84,74.04 744.19,74.04 744.68,74.01 745.14,73.97 745.67,73.95 746.21,73.94 746.96,73.95 747.71,73.90 748.88,73.90 750.04,73.87 751.29,73.86 751.95,73.83 752.55,73.81 753.46,73.81 754.85,73.79 755.97,73.77 758.08,73.76 759.32,73.74 760.53,73.73 762.11,73.69 762.83,73.66 764.17,73.67 765.64,73.65 766.45,73.63 767.57,73.60 768.59,73.59 770.11,73.57 771.59,73.54 773.44,73.53 775.00,73.53 777.22,73.52 781.60,73.48 802.48,73.45 813.90,73.45 818.33,73.42 823.53,73.39 826.85,73.39 830.59,73.37 832.42,73.34 834.37,73.35 836.49,73.31 839.35,73.31 841.54,73.28 843.18,73.26 844.18,73.24 847.25,73.23 850.86,73.21 853.79,73.19 857.57,73.15 860.15,73.14 863.18,73.12 867.23,73.12 872.42,73.09 877.08,73.07 882.30,73.05 887.79,73.03 891.13,73.02 896.94,72.99 900.00,72.98 900.00,73.29 896.94,73.30 891.13,73.33 887.79,73.34 882.30,73.35 877.08,73.38 872.42,73.40 867.23,73.42 863.18,73.43 860.15,73.46 857.57,73.47 853.79,73.50 850.86,73.52 847.25,73.54 844.18,73.56 843.18,73.55 841.54,73.59 839.35,73.61 836.49,73.63 834.37,73.67 832.42,73.65 830.59,73.67 826.85,73.70 823.53,73.72 818.33,73.75 813.90,73.74 802.48,73.77 781.60,73.81 777.22,73.82 775.00,73.85 773.44,73.89 771.59,73.86 770.11,73.91 768.59,73.93 767.57,73.94 766.45,73.94 765.64,73.97 764.17,74.00 762.83,74.00 762.11,74.04 760.53,74.07 759.32,74.07 758.08,74.09 755.97,74.08 754.85,74.13 753.46,74.13 752.55,74.16 751.95,74.17 751.29,74.19 750.04,74.24 748.88,74.26 747.71,74.27 746.96,74.27 746.21,74.29 745.67,74.31 745.14,74.34 744.68,74.35 744.19,74.37 743.84,74.40 743.57,74.42 743.35,74.45 742.92,74.47 742.44,74.45 742.07,74.50 741.55,74.51 741.29,74.53 740.96,74.55 740.74,74.56 740.49,74.58 740.27,74.60 739.88,74.62 739.61,74.66 739.28,74.65 739.04,74.69 738.74,74.71 738.42,74.73 738.06,74.74 737.92,74.75 737.65,74.78 737.36,74.80 737.23,74.80 736.94,74.83 736.81,74.85 736.57,74.88 736.28,74.89 736.09,74.90 735.80,74.92 735.61,74.95 735.49,74.97 735.31,74.99 735.12,74.99 734.98,75.02 734.84,75.05 734.55,75.05 734.39,75.10 734.20,75.08 733.97,75.12 733.87,75.16 733.62,75.16 733.50,75.18 733.26,75.20 733.13,75.21 733.02,75.22 732.88,75.25 732.64,75.28 732.37,75.29 732.09,75.31 731.90,75.32 731.80,75.33 731.70,75.37 731.50,75.40 731.36,75.42 731.19,75.41 730.98,75.44 730.73,75.46 730.47,75.49 730.32,75.51 730.18,75.53 729.98,75.54 729.77,75.54 729.57,75.58 729.38,75.58 729.20,75.62 729.07,75.62 728.91,75.65 728.80,75.67 728.67,75.69 728.46,75.71 728.30,75.73 728.12,75.73 728.02,75.76 727.89,75.81 727.75,75.82 727.58,75.81 727.36,75.86 727.25,75.87 727.02,75.88 726.89,75.88 726.75,75.91 726.60,75.93 726.35,75.94 726.12,75.98 725.95,75.99 725.80,76.01 725.64,76.02 725.44,76.04 725.26,76.08 725.15,76.10 725.06,76.10 724.86,76.11 724.69,76.15 724.51,76.18 724.43,76.18 724.18,76.19 724.02,76.23 723.86,76.24 723.64,76.26 723.49,76.30 723.28,76.32 723.13,76.30 723.05,76.34 722.83,76.35 722.71,76.38 722.44,76.37 722.28,76.41 722.14,76.43 721.89,76.43 721.70,76.45 721.43,76.49 721.31,76.51 721.01,76.50 720.71,76.54 720.47,76.56 720.24,76.60 719.99,76.60 719.73,76.61 719.53,76.63 719.31,76.66 719.03,76.69 718.63,76.68 718.11,76.74 717.89,76.74 717.43,76.78 716.80,76.78 716.03,76.80 715.04,76.79 714.07,76.81 712.57,76.85 709.31,76.88 700.60,76.92 683.17,76.91 670.38,76.92 657.46,76.95 647.04,76.97 640.33,76.99 633.59,77.00 628.73,77.03 622.70,77.04 620.38,77.06 617.02,77.09 613.40,77.12 609.58,77.11 606.33,77.14 604.33,77.15 598.63,77.17 596.25,77.18 591.66,77.24 589.32,77.22 587.42,77.26 584.96,77.27 583.28,77.27 580.48,77.31 578.74,77.31 576.51,77.35 574.77,77.35 572.17,77.38 570.34,77.42 567.42,77.41 565.35,77.43 564.05,77.45 561.32,77.47 558.81,77.51 556.35,77.52 554.97,77.55 552.04,77.54 550.46,77.59 548.42,77.61 546.60,77.58 545.96,77.65 543.48,77.66 539.73,77.65 538.41,77.71 536.32,77.72 533.90,77.75 532.17,77.72 531.36,77.75 529.44,77.77 527.72,77.80 526.17,77.81 524.23,77.85 523.17,77.85 521.96,77.85 520.59,77.91 519.44,77.87 518.68,77.96 517.56,77.95 516.74,77.97 514.86,78.02 513.95,77.99 513.06,78.04 511.75,78.05 510.13,78.06 509.08,78.06 508.45,78.10 507.13,78.09 506.21,78.14 505.43,78.16 503.93,78.19 502.06,78.21 500.76,78.21 499.96,78.24 499.07,78.26 498.01,78.27 496.85,78.31 495.98,78.31 495.25,78.30 494.77,78.37 494.04,78.34 493.42,78.38 492.65,78.39 491.53,78.39 490.09,78.43 489.03,78.46 488.49,78.49 487.46,78.48 486.83,78.51 485.91,78.53 485.14,78.53 484.34,78.59 483.55,78.58 482.37,78.59 480.54,78.61 479.53,78.64 479.00,78.63 478.36,78.69 477.96,78.69 477.41,78.74 475.97,78.73 474.91,78.75 474.00,78.77 473.01,78.81 472.16,78.80 471.59,78.85 470.68,78.86 469.43,78.87 468.14,78.87 467.26,78.89 466.26,78.92 465.08,78.92 463.96,78.99 462.78,79.00 461.45,78.99 460.18,79.03 459.27,79.04 458.36,79.05 457.41,79.08 456.66,79.11 455.82,79.12 454.56,79.12 453.71,79.15 452.92,79.18 452.52,79.19 451.96,79.21 451.58,79.21 451.14,79.24 450.76,79.25 450.38,79.30 450.00,79.33 449.55,79.31 449.36,79.34 449.13,79.37 448.90,79.40 448.66,79.40 448.46,79.45 448.34,79.48 448.10,79.48 447.90,79.46 447.80,79.52 447.59,79.50 447.39,79.52 447.26,79.55 447.08,79.54 446.98,79.58 446.82,79.58 441.74,80.57 438.68,81.48 435.79,82.43 432.64,83.37 422.18,84.29 367.93,85.22 344.64,86.18 326.01,87.12 307.00,88.03 296.08,88.96 293.03,89.87 291.02,90.83 289.53,91.73 288.20,92.66 287.02,93.59 285.79,94.47 284.45,95.47 283.05,96.32 281.32,97.28 278.98,98.21 261.71,99.13 251.34,100.06 245.50,100.91 239.02,101.89 233.30,102.77 227.26,103.66 221.14,104.61 215.98,105.55 213.42,106.42 212.15,107.33 211.17,108.27 210.43,109.14 209.79,110.06 209.20,111.00 208.65,111.88 208.13,112.76 207.65,113.64 207.22,114.56 206.80,115.46 206.38,116.38 205.94,117.29 205.49,118.14 205.03,119.04 204.55,119.96 204.08,120.83 203.53,121.77 202.91,122.59 202.20,123.50 201.34,124.41 200.15,125.27 197.94,126.18 188.40,127.08 183.84,127.96 181.02,128.75 178.38,129.72 176.25,130.62 174.41,131.46 172.83,132.37 171.33,133.20 169.84,134.10 168.51,134.95 167.44,135.87 166.58,136.77 165.88,137.64 165.36,138.39 164.89,139.34 164.50,140.24 164.16,141.16 163.86,141.95 163.56,142.74 163.30,143.74 163.07,144.51 162.85,145.41 162.64,146.31 162.43,147.12 162.22,148.03 162.01,148.95 161.82,149.68 161.63,150.59 161.43,151.45 161.24,152.29 161.07,153.19 160.90,154.07 160.73,154.82 160.55,155.71 160.38,156.58 160.21,157.43 160.04,158.31 159.87,159.24 159.70,159.96 159.53,160.83 159.35,161.74 159.19,162.49 159.00,163.33 158.81,164.19 158.62,165.15 158.42,165.97 158.21,166.73 157.98,167.54 157.76,168.52 157.52,169.23 157.25,170.07 156.97,170.92 156.64,171.75 156.27,172.64 155.86,173.49 155.35,174.38 154.64,175.15 153.28,175.88 148.01,176.76 146.18,177.69 145.23,178.49 144.59,179.28 144.06,179.98 143.58,180.85 143.20,181.72 142.85,182.54 142.56,183.40 142.30,184.27 142.06,184.99 141.87,185.85 141.69,186.61 141.50,187.46 141.33,188.32 141.17,189.11 141.03,189.86 140.90,190.73 140.77,191.61 140.65,192.32 140.54,193.15 140.43,193.94 140.31,194.83 140.21,195.68 140.11,196.40 140.02,197.18 139.93,198.02 139.84,198.86 139.75,199.70 139.66,200.35 139.58,201.27 139.50,201.97 139.42,202.81 139.33,203.68 139.26,204.37 139.18,205.21 139.11,206.08 139.04,206.78 138.97,207.63 138.91,208.37 138.84,209.19 138.78,210.03 138.72,210.80 138.66,211.59 138.60,212.34 138.55,213.06 138.49,213.90 138.43,214.75 138.38,215.48 138.32,216.16 138.27,217.05 138.21,217.80 138.16,218.57 138.11,219.30 138.06,220.06 138.01,220.91 137.97,221.68 137.92,222.53 137.87,223.21 137.83,224.06 137.78,224.79 137.74,225.54 137.70,226.23 137.65,227.09 137.61,227.78 137.57,228.61 137.53,229.38 137.49,230.17 137.45,231.02 137.41,231.66 137.37,232.46 137.34,233.17 137.31,233.96 137.27,234.77 137.23,235.67 137.19,236.26 137.16,236.99 137.12,237.71 137.09,238.57 137.05,239.29 137.02,240.02 136.98,240.79 136.95,241.57 136.92,242.37 136.88,243.11 136.85,243.83 136.82,244.57 136.79,245.26 136.76,245.99 136.73,246.67 136.70,247.43 136.67,248.19 136.64,248.91 136.61,249.68 136.58,250.41 136.55,251.21 136.52,251.99 136.49,252.64 136.46,253.39 136.43,254.09 136.41,254.81 136.38,255.66 136.35,256.44 136.33,257.19 136.30,257.83 136.28,258.36 136.25,259.27 136.23,260.03 136.20,260.64 136.18,261.50 136.15,262.31 136.13,262.91 136.10,263.59 136.07,264.38 136.05,265.06 136.03,265.84 136.00,266.46 135.98,267.15 135.96,268.00 135.93,268.57 135.91,269.40 135.88,270.09 135.86,270.82 135.84,271.56 135.82,272.35 135.80,272.91 135.77,273.59 135.75,274.38 135.73,275.03 135.71,275.71 135.69,276.34 135.67,277.18 135.65,277.88 135.63,278.57 135.61,279.23 135.59,280.02 135.57,280.57 135.55,281.34 135.53,282.16 135.51,282.76 135.49,283.48 135.47,284.08 135.45,284.88 135.43,285.59 135.41,286.31 135.40,286.91 135.38,287.57 135.36,288.33 135.34,288.98 135.32,289.66 135.30,290.35 135.28,290.97 135.27,291.79 135.25,292.49 135.23,293.21 135.21,293.83 135.20,294.43 135.18,295.08 135.16,295.78 135.14,296.55 135.13,297.15 135.11,297.92 135.10,298.52 135.08,299.17 135.06,299.88 135.05,300.47 135.03,301.18 135.01,301.95 135.00,302.65 134.98,303.25 134.97,303.89 134.95,304.54 134.93,305.23 134.92,305.91 134.90,306.52 134.89,307.27 134.87,307.88 134.85,308.68 134.84,309.30 134.82,309.89 134.81,310.58 134.79,311.21 134.78,311.83 134.76,312.45 134.75,313.09 134.73,313.79 134.72,314.47 134.70,315.15 134.69,315.77 134.67,316.39 134.66,316.97 134.64,317.72 134.63,318.45 134.61,318.99 134.60,319.62 134.58,320.27 134.57,320.87 134.56,321.60 134.54,322.22 134.53,322.93 134.51,323.50 134.50,324.07 134.48,324.76 134.47,325.43 134.46,326.00 134.44,326.66 134.43,327.31 134.42,328.03 134.40,328.50 134.39,329.22 134.38,329.76 134.36,330.50 134.35,331.11 134.34,331.71 134.32,332.34 134.31,333.00 134.30,333.63 134.28,334.15 134.27,334.90 134.26,335.44 134.25,336.10 134.23,336.70 134.22,337.35 134.21,337.89 134.19,338.58 134.18,339.13 134.17,339.81 134.16,340.30 134.15,340.96 134.13,341.58 134.12,342.21 134.11,342.78 134.10,343.39 134.08,344.13 134.07,344.71 134.06,345.39 134.05,345.85 134.04,346.50 134.02,347.07 134.01,347.70 134.00,348.30 133.99,348.96 133.98,349.47 133.96,350.09 133.95,350.62 133.94,351.33 133.93,351.90 133.92,352.36 133.91,353.06 133.89,353.64 133.88,354.22 133.87,354.83 133.86,355.38 133.85,356.00 133.84,356.62 133.82,357.14 133.81,357.78 133.80,358.31 133.79,358.94 133.78,359.54 133.77,360.16 133.76,360.67 133.75,361.27 133.73,361.75 133.72,362.38 133.71,363.08 133.70,363.60 133.69,364.17 133.68,364.78 133.67,365.31 133.66,365.85 133.65,366.47 133.64,367.03 133.63,367.59 133.61,368.18 133.60,368.71 133.59,369.39 133.58,369.99 133.57,370.48 133.56,371.01 133.55,371.50 133.54,372.13 133.53,372.68 133.52,373.32 133.51,373.78 133.50,374.33 133.49,374.90 133.48,375.53 133.47,376.09 133.46,376.54 133.45,377.19 133.44,377.70 133.43,378.25 133.42,378.82 133.41,379.38 133.40,379.94 133.38,380.46 133.37,380.99 133.36,381.52 133.35,382.10 133.34,382.72 133.33,383.19 133.32,383.76 133.31,384.28 133.30,384.80 133.29,385.37 133.28,385.86 133.27,386.50 133.26,387.05 133.25,387.40 133.24,387.99 133.23,388.61 133.22,389.04 133.21,389.59 133.20,390.13 133.19,390.74 133.18,391.16 133.17,391.73 133.16,392.36 133.15,392.77 133.14,393.33 133.13,393.87 133.12,394.40 133.11,394.86 133.10,395.35 133.09,395.90 133.08,396.53 133.07,397.06 133.06,397.49 133.05,397.99 133.04,398.49 133.04,399.03 133.03,399.59 133.02,400.10 133.01,400.63 133.00,401.07 132.99,401.58 132.98,402.09 132.97,402.57 132.96,403.13 132.95,403.61 132.94,404.13 132.93,404.65 132.92,405.19 132.91,405.55 132.90,406.18 132.89,406.71 132.88,407.18 132.88,407.60 132.87,408.12 132.86,408.68 132.85,409.13 132.84,409.67 132.83,410.16 132.82,410.66 132.81,411.19 132.80,411.63 132.80,412.11 132.79,412.65 132.78,413.09 132.77,413.68 132.76,414.08 132.75,414.52 132.74,414.93 132.73,415.51 132.72,415.98 132.71,416.50 132.70,416.96 132.69,417.50 132.68,417.90 132.68,418.38 132.67,418.82 132.66,419.37 132.65,419.88 132.64,420.30 132.63,420.71 132.62,421.20 132.61,421.74 132.60,422.25 132.60,422.67 132.59,423.12 132.58,423.55 132.57,424.15 132.56,424.54 132.55,425.02 132.54,425.42 132.53,425.89 132.52,426.40 132.51,426.93 132.51,427.35 132.50,427.77 132.49,428.19 132.48,428.66 132.47,429.17 132.46,429.62 132.45,430.04 132.44,430.49 132.44,431.03 132.43,431.42 132.42,431.93 132.41,432.31 132.40,432.78 132.39,433.19 132.38,433.65 132.38,434.12 132.37,434.52 132.36,435.01 132.35,435.45 132.34,435.89 132.33,436.42 132.32,436.82 132.31,437.27 132.31,437.65 132.30,438.08 132.29,438.54 132.28,438.99 132.27,439.42 132.26,439.86 132.26,440.28 132.25,440.69 132.24,441.16 132.23,441.66 132.22,441.98 132.21,442.44 132.20,442.92 132.19,443.34 132.19,443.71 132.18,444.19 132.17,444.57 132.16,444.97 132.15,445.37 132.14,445.88 132.14,446.22 132.13,446.62 132.12,447.17 132.11,447.49 132.10,447.97 132.09,448.29 132.09,448.76 132.08,449.11 132.07,449.56 132.06,449.98 132.05,450.39 132.04,450.87 132.03,451.25 132.03,451.60 132.02,452.00 132.01,452.44 132.00,452.86 131.99,453.25 131.98,453.73 131.97,454.06 131.97,454.46 131.96,454.80 131.95,455.21 131.94,455.63 131.93,456.07 131.92,456.43 131.92,456.83 131.91,457.24 131.90,457.63 131.89,458.03 131.88,458.41 131.87,458.84 131.87,459.16 131.86,459.65 131.85,459.98 131.84,460.39 131.83,460.71 131.82,461.14 131.82,461.51 131.81,461.93 131.80,462.24 131.79,462.60 131.78,463.01 131.77,463.35 131.77,463.79 131.76,464.13 131.75,464.56 131.74,464.91 131.73,465.25 131.72,465.65 131.72,466.07 131.71,466.44 131.70,466.72 131.69,467.18 131.68,467.59 131.67,467.99 131.67,468.26 131.66,468.61 131.65,468.95 131.64,469.38 131.63,469.74 131.62,470.10 131.62,470.42 131.61,470.81 131.60,471.15 131.59,471.54 131.58,471.89 131.58,472.22 131.57,472.65 131.56,472.94 131.55,473.30 131.54,473.65 131.53,474.01 131.53,474.37 131.52,474.67 131.51,475.06 131.50,475.44 131.49,475.76 131.49,476.13 131.48,476.45 131.47,476.80 131.46,477.12 131.45,477.54 131.45,477.81 131.44,478.16 131.43,478.53 131.42,478.87 131.41,479.21 131.40,479.57 131.40,479.91 131.39,480.23 131.38,480.55 131.37,480.89 131.36,481.20 131.35,481.53 131.34,481.86 131.34,482.17 131.33,482.52 131.32,482.84 131.31,483.19 131.30,483.48 131.29,483.83 131.29,484.18 131.28,484.47 131.27,484.79 131.26,485.10 131.25,485.41 131.24,485.75 131.23,486.09 131.23,486.38 131.22,486.73 131.21,487.09 131.20,487.35 131.19,487.67 131.18,488.01 131.18,488.29 131.17,488.60 131.16,488.92 131.15,489.20 131.14,489.54 131.13,489.84 131.13,490.17 131.12,490.49 131.11,490.73 131.10,491.02 131.09,491.36 131.08,491.69 131.07,491.97 131.07,492.26 131.06,492.54 131.05,492.84 131.04,493.11 131.03,493.48 131.02,493.77 131.01,494.01 131.01,494.34 131.00,494.59 130.99,494.93 130.98,495.22 130.97,495.45 130.96,495.76 130.96,496.11 130.95,496.34 130.94,496.68 130.93,496.94 130.92,497.17 130.91,497.48 130.90,497.75 130.89,498.02 130.89,498.38 130.88,498.59 130.87,498.86 130.86,499.21 130.85,499.43 130.84,499.73 130.83,500.01 130.83,500.24 130.82,500.52 130.81,500.82 130.80,501.11 130.79,501.35 130.78,501.65 130.77,501.87 130.76,502.13 130.76,502.43 130.75,502.71 130.74,502.96 130.73,503.21 130.72,503.46 130.71,503.70 130.70,504.00 130.70,504.25 130.69,504.52 130.68,504.79 130.67,505.02 130.66,505.29 130.65,505.54 130.64,505.80 130.63,506.04 130.63,506.27 130.62,506.55 130.61,506.78 130.60,507.04 130.59,507.33 130.58,507.55 130.57,507.79 130.56,508.03 130.55,508.31 130.54,508.50 130.54,508.77 130.53,509.02 130.52,509.24 130.51,509.50 130.50,509.75 130.49,509.97 130.48,510.19 130.47,510.44 130.47,510.66 130.46,510.89 130.45,511.17 130.44,511.38 130.43,511.60 130.42,511.84 130.41,512.05 130.40,512.27 130.39,512.50 130.38,512.75 130.37,512.96 130.36,513.21 130.35,513.43 130.34,513.62 130.33,513.86 130.33,514.05 130.32,514.28 130.31,514.55 130.30,514.75 130.29,514.96 130.28,515.19 130.27,515.39 130.26,515.61 130.25,515.83 130.24,516.03 130.23,516.26 130.22,516.45 130.22,516.67 130.21,516.86 130.20,517.11 130.19,517.27 130.18,517.48 130.17,517.70 130.16,517.90 130.15,518.11 130.14,518.30 130.13,518.53 130.12,518.71 130.11,518.90 130.10,519.11 130.09,519.28 130.08,519.49 130.07,519.67 130.06,519.89 130.05,520.05 130.04,520.27 130.03,520.47 130.02,520.65 130.01,520.83 130.00,521.07 129.99,521.24 129.98,521.40 129.97,521.58 129.96,521.78 129.95,521.95 129.94,522.18 129.93,522.33 129.92,522.50 129.91,522.68 129.90,522.88 129.89,523.08 129.88,523.23 129.87,523.39 129.85,523.57 129.84,523.77 129.83,523.91 129.82,524.10 129.81,524.27 129.80,524.44 129.79,524.62 129.78,524.77 129.77,524.96 129.76,525.11 129.75,525.28 129.74,525.47 129.73,525.61 129.72,525.79 129.71,525.94 129.70,526.11 129.69,526.27 129.67,526.42 129.66,526.59 129.65,526.75 129.64,526.89 129.63,527.05 129.62,527.22 129.61,527.36 129.60,527.51 129.59,527.66 129.58,527.82 129.56,527.96 129.55,528.11 129.54,528.26 129.53,528.41 129.52,528.55 129.51,528.70 129.50,528.86 129.48,529.00 129.47,529.14 129.46,529.29 129.45,529.42 129.44,529.57 129.43,529.71 129.41,529.84 129.40,529.96 129.39,530.10 129.38,530.25 129.36,530.39 129.35,530.53 129.34,530.65 129.33,530.79 129.32,530.92 129.30,531.05 129.29,531.18 129.28,531.31 129.26,531.43 129.25,531.55 129.24,531.67 129.23,531.82 129.21,531.93 129.20,532.04 129.19,532.18 129.18,532.29 129.16,532.41 129.15,532.52 129.14,532.64 129.12,532.76 129.11,532.88 129.10,532.99 129.08,533.11 129.07,533.23 129.06,533.33 129.04,533.45 129.03,533.56 129.02,533.66 129.00,533.77 128.99,533.87 128.98,533.99 128.96,534.09 128.95,534.20 128.93,534.30 128.92,534.41 128.90,534.51 128.89,534.60 128.88,534.71 128.86,534.81 128.85,534.90 128.83,535.00 128.82,535.10 128.80,535.19 128.79,535.29 128.77,535.38 128.76,535.47 128.74,535.56 128.73,535.66 128.71,535.75 128.70,535.83 128.68,535.93 128.67,536.01 128.65,536.09 128.64,536.19 128.62,536.26 128.60,536.35 128.58,536.42 128.57,536.50 128.55,536.58 128.54,536.66 128.52,536.74 128.50,536.82 128.48,536.90 128.47,536.98 128.45,537.05 128.43,537.12 128.41,537.19 128.40,537.26 128.38,537.34 128.36,537.41 128.34,537.47 128.32,537.54 128.31,537.61 128.29,537.68 128.27,537.74 128.25,537.81 128.23,537.87 128.21,537.93 128.19,538.00 128.17,538.05 128.15,538.11 128.13,538.17 128.11,538.23 128.09,538.29 128.07,538.34 128.05,538.40 128.02,538.45 128.00,538.51 127.98,538.56 127.96,538.61 127.93,538.66 127.91,538.71 127.89,538.76 127.86,538.80 127.84,538.85 127.81,538.90 127.79,538.94 127.76,538.99 127.73,539.03 127.71,539.07 127.68,539.11 127.66,539.15 127.63,539.19 127.60,539.23 127.57,539.27 127.54,539.30 127.52,539.34 127.48,539.37 127.45,539.41 127.42,539.44 127.39,539.47 127.36,539.50 127.32,539.54 127.29,539.56 127.25,539.59 127.21,539.62 127.17,539.64 127.14,539.67 127.09,539.69 127.05,539.72 127.01,539.74 126.96,539.76 126.92,539.78 126.87,539.80 126.82,539.82 126.77,539.84 126.71,539.85 126.65,539.87 126.60,539.89 126.54,539.90 126.47,539.91 126.41,539.92 126.33,539.94 126.25,539.95 126.17,539.96 126.08,539.96 125.97,539.97 125.86,539.98 125.72,539.98 125.56,539.99 125.38,539.99 125.16,540.00 124.86,540.00 124.42,540.00 121.41,540.00 80.00,540.00" fill="#ff7f0e" fill-opacity="0.35" stroke="none"/>
<polyline points="80.00,540.00 121.41,540.00 124.42,540.00 124.86,540.00 125.16,540.00 125.38,539.99 125.56,539.99 125.72,539.98 125.86,539.98 125.97,539.97 126.08,539.96 126.17,539.95 126.25,539.94 126.33,539.93 126.41,539.92 126.47,539.90 126.54,539.89 126.60,539.87 126.65,539.86 126.71,539.84 126.77,539.82 126.82,539.80 126.87,539.78 126.92,539.76 126.96,539.74 127.01,539.72 127.05,539.69 127.09,539.67 127.14,539.65 127.17,539.62 127.21,539.59 127.25,539.56 127.29,539.53 127.32,539.50 127.36,539.47 127.39,539.44 127.42,539.41 127.45,539.37 127.48,539.34 127.52,539.30 127.54,539.27 127.57,539.23 127.60,539.19 127.63,539.15 127.66,539.11 127.68,539.07 127.71,539.02 127.73,538.98 127.76,538.94 127.79,538.89 127.81,538.84 127.84,538.80 127.86,538.75 127.89,538.70 127.91,538.65 127.93,538.60 127.96,538.55 127.98,538.49 128.00,538.44 128.02,538.38 128.05,538.32 128.07,538.27 128.09,538.21 128.11,538.15 128.13,538.10 128.15,538.03 128.17,537.97 128.19,537.91 128.21,537.85 128.23,537.78 128.25,537.72 128.27,537.65 128.29,537.58 128.31,537.52 128.32,537.45 128.34,537.37 128.36,537.30 128.38,537.23 128.40,537.15 128.41,537.09 128.43,537.01 128.45,536.93 128.47,536.86 128.48,536.78 128.50,536.70 128.52,536.62 128.54,536.54 128.55,536.46 128.57,536.38 128.58,536.29 128.60,536.21 128.62,536.13 128.64,536.04 128.65,535.96 128.67,535.86 128.68,535.77 128.70,535.68 128.71,535.60 128.73,535.50 128.74,535.41 128.76,535.31 128.77,535.21 128.79,535.13 128.80,535.04 128.82,534.93 128.83,534.84 128.85,534.73 128.86,534.64 128.88,534.53 128.89,534.42 128.90,534.33 128.92,534.22 128.93,534.12 128.95,534.01 128.96,533.90 128.98,533.79 128.99,533.68 129.00,533.58 129.02,533.47 129.03,533.35 129.04,533.25 129.06,533.13 129.07,533.02 129.08,532.90 129.10,532.79 129.11,532.66 129.12,532.55 129.14,532.43 129.15,532.32 129.16,532.19 129.18,532.07 129.19,531.96 129.20,531.83 129.21,531.69 129.23,531.55 129.24,531.44 129.25,531.30 129.26,531.19 129.28,531.06 129.29,530.93 129.30,530.80 129.32,530.66 129.33,530.53 129.34,530.38 129.35,530.24 129.36,530.11 129.38,529.99 129.39,529.86 129.40,529.70 129.41,529.57 129.43,529.43 129.44,529.30 129.45,529.14 129.46,529.01 129.47,528.84 129.48,528.70 129.50,528.57 129.51,528.44 129.52,528.27 129.53,528.12 129.54,527.97 129.55,527.81 129.56,527.65 129.58,527.50 129.59,527.35 129.60,527.20 129.61,527.04 129.62,526.90 129.63,526.73 129.64,526.57 129.65,526.40 129.66,526.25 129.67,526.08 129.69,525.93 129.70,525.76 129.71,525.59 129.72,525.43 129.73,525.29 129.74,525.09 129.75,524.94 129.76,524.76 129.77,524.59 129.78,524.41 129.79,524.26 129.80,524.08 129.81,523.91 129.82,523.72 129.83,523.57 129.84,523.38 129.85,523.20 129.87,523.02 129.88,522.85 129.89,522.65 129.90,522.49 129.91,522.30 129.92,522.11 129.93,521.94 129.94,521.75 129.95,521.55 129.96,521.37 129.97,521.18 129.98,520.99 129.99,520.79 130.00,520.63 130.01,520.42 130.02,520.23 130.03,520.00 130.04,519.84 130.05,519.63 130.06,519.45 130.07,519.25 130.08,519.05 130.09,518.81 130.10,518.66 130.11,518.45 130.12,518.27 130.13,518.05 130.14,517.84 130.15,517.66 130.16,517.40 130.17,517.21 130.18,517.03 130.19,516.80 130.20,516.60 130.21,516.37 130.22,516.16 130.22,515.96 130.23,515.76 130.24,515.55 130.25,515.29 130.26,515.10 130.27,514.89 130.28,514.67 130.29,514.41 130.30,514.23 130.31,514.03 130.32,513.79 130.33,513.53 130.33,513.34 130.34,513.11 130.35,512.87 130.36,512.68 130.37,512.38 130.38,512.21 130.39,511.97 130.40,511.77 130.41,511.50 130.42,511.30 130.43,511.06 130.44,510.80 130.45,510.58 130.46,510.34 130.47,510.10 130.47,509.86 130.48,509.61 130.49,509.39 130.50,509.15 130.51,508.91 130.52,508.65 130.53,508.42 130.54,508.19 130.54,507.93 130.55,507.68 130.56,507.44 130.57,507.21 130.58,506.96 130.59,506.68 130.60,506.40 130.61,506.20 130.62,505.90 130.63,505.70 130.63,505.43 130.64,505.16 130.65,504.90 130.66,504.65 130.67,504.38 130.68,504.13 130.69,503.87 130.70,503.64 130.70,503.36 130.71,503.07 130.72,502.79 130.73,502.61 130.74,502.28 130.75,502.00 130.76,501.74 130.76,501.52 130.77,501.22 130.78,500.92 130.79,500.67 130.80,500.42 130.81,500.12 130.82,499.84 130.83,499.56 130.83,499.35 130.84,499.02 130.85,498.76 130.86,498.48 130.87,498.18 130.88,497.91 130.89,497.61 130.89,497.30 130.90,497.00 130.91,496.80 130.92,496.53 130.93,496.19 130.94,495.93 130.95,495.63 130.96,495.33 130.96,495.04 130.97,494.77 130.98,494.48 130.99,494.15 131.00,493.90 131.01,493.58 131.01,493.28 131.02,492.99 131.03,492.67 131.04,492.36 131.05,492.09 131.06,491.81 131.07,491.49 131.07,491.17 131.08,490.89 131.09,490.59 131.10,490.27 131.11,489.92 131.12,489.67 131.13,489.37 131.13,489.04 131.14,488.71 131.15,488.45 131.16,488.09 131.17,487.82 131.18,487.47 131.18,487.16 131.19,486.86 131.20,486.54 131.21,486.17 131.22,485.86 131.23,485.50 131.23,485.23 131.24,484.93 131.25,484.60 131.26,484.24 131.27,483.93 131.28,483.65 131.29,483.30 131.29,483.02 131.30,482.65 131.31,482.32 131.32,481.97 131.33,481.62 131.34,481.33 131.34,481.00 131.35,480.67 131.36,480.32 131.37,479.94 131.38,479.71 131.39,479.32 131.40,479.01 131.40,478.63 131.41,478.33 131.42,477.90 131.43,477.57 131.44,477.24 131.45,476.93 131.45,476.57 131.46,476.22 131.47,475.90 131.48,475.57 131.49,475.18 131.49,474.89 131.50,474.49 131.51,474.10 131.52,473.76 131.53,473.42 131.53,473.04 131.54,472.72 131.55,472.41 131.56,472.00 131.57,471.59 131.58,471.29 131.58,470.96 131.59,470.57 131.60,470.20 131.61,469.86 131.62,469.45 131.62,469.13 131.63,468.69 131.64,468.38 131.65,467.99 131.66,467.62 131.67,467.26 131.67,466.91 131.68,466.55 131.69,466.20 131.70,465.81 131.71,465.45 131.72,465.04 131.72,464.65 131.73,464.29 131.74,463.92 131.75,463.56 131.76,463.21 131.77,462.82 131.77,462.38 131.78,461.98 131.79,461.61 131.80,461.27 131.81,460.84 131.82,460.38 131.82,460.07 131.83,459.65 131.84,459.32 131.85,458.92 131.86,458.58 131.87,458.10 131.87,457.74 131.88,457.33 131.89,456.95 131.90,456.57 131.91,456.17 131.92,455.74 131.92,455.39 131.93,454.95 131.94,454.57 131.95,454.18 131.96,453.74 131.97,453.31 131.97,452.91 131.98,452.54 131.99,452.12 132.00,451.76 132.01,451.28 132.02,450.86 132.03,450.48 132.03,450.13 132.04,449.71 132.05,449.35 132.06,448.87 132.07,448.47 132.08,448.00 132.09,447.61 132.09,447.14 132.10,446.79 132.11,446.35 132.12,445.93 132.13,445.51 132.14,445.10 132.14,444.64 132.15,444.22 132.16,443.84 132.17,443.26 132.18,442.97 132.19,442.45 132.19,442.05 132.20,441.71 132.21,441.31 132.22,440.87 132.23,440.40 132.24,439.97 132.25,439.54 132.26,439.08 132.26,438.64 132.27,438.23 132.28,437.77 132.29,437.31 132.30,436.86 132.31,436.41 132.31,436.01 132.32,435.59 132.33,435.17 132.34,434.66 132.35,434.25 132.36,433.71 132.37,433.33 132.38,432.87 132.38,432.47 132.39,431.99 132.40,431.56 132.41,431.08 132.42,430.62 132.43,430.20 132.44,429.68 132.44,429.31 132.45,428.85 132.46,428.36 132.47,427.88 132.48,427.44 132.49,426.97 132.50,426.47 132.51,426.06 132.51,425.60 132.52,425.15 132.53,424.65 132.54,424.17 132.55,423.74 132.56,423.27 132.57,422.78 132.58,422.33 132.59,421.84 132.60,421.35 132.60,420.91 132.61,420.42 132.62,419.97 132.63,419.52 132.64,418.91 132.65,418.45 132.66,418.06 132.67,417.64 132.68,417.09 132.68,416.62 132.69,416.11 132.70,415.67 132.71,415.17 132.72,414.65 132.73,414.28 132.74,413.77 132.75,413.19 132.76,412.74 132.77,412.24 132.78,411.70 132.79,411.14 132.80,410.77 132.80,410.30 132.81,409.84 132.82,409.21 132.83,408.75 132.84,408.28 132.85,407.78 132.86,407.32 132.87,406.73 132.88,406.26 132.88,405.79 132.89,405.26 132.90,404.83 132.91,404.26 132.92,403.76 132.93,403.27 132.94,402.71 132.95,402.18 132.96,401.75 132.97,401.27 132.98,400.66 132.99,400.24 133.00,399.67 133.01,399.23 133.02,398.62 133.03,398.20 133.04,397.70 133.04,397.11 133.05,396.55 133.06,396.09 133.07,395.53 133.08,395.04 133.09,394.61 133.10,394.05 133.11,393.46 133.12,392.93 133.13,392.39 133.14,391.91 133.15,391.41 133.16,390.78 133.17,390.36 133.18,389.74 133.19,389.23 133.20,388.68 133.21,388.18 133.22,387.64 133.23,387.09 133.24,386.56 133.25,385.93 133.26,385.45 133.27,384.90 133.28,384.40 133.29,383.85 133.30,383.33 133.31,382.82 133.32,382.28 133.33,381.68 133.34,381.15 133.35,380.59 133.36,379.94 133.37,379.49 133.38,379.05 133.40,378.38 133.41,377.84 133.42,377.18 133.43,376.77 133.44,376.20 133.45,375.68 133.46,375.14 133.47,374.46 133.48,373.90 133.49,373.30 133.50,372.80 133.51,372.38 133.52,371.74 133.53,371.19 133.54,370.65 133.55,370.14 133.56,369.45 133.57,368.89 133.58,368.37 133.59,367.70 133.60,367.14 133.61,366.61 133.63,366.06 133.64,365.38 133.65,364.89 133.66,364.34 133.67,363.74 133.68,363.19 133.69,362.71 133.70,362.00 133.71,361.42 133.72,360.92 133.73,360.36 133.75,359.59 133.76,359.14 133.77,358.62 133.78,358.00 133.79,357.37 133.80,356.77 133.81,356.26 133.82,355.53 133.84,355.01 133.85,354.49 133.86,353.89 133.87,353.35 133.88,352.61 133.89,352.07 133.91,351.48 133.92,350.92 133.93,350.26 133.94,349.65 133.95,349.12 133.96,348.62 133.98,348.01 133.99,347.28 134.00,346.70 134.01,346.10 134.02,345.48 134.04,344.89 134.05,344.29 134.06,343.64 134.07,343.14 134.08,342.37 134.10,341.75 134.11,341.23 134.12,340.57 134.13,340.01 134.15,339.43 134.16,338.76 134.17,338.22 134.18,337.59 134.19,336.95 134.21,336.32 134.22,335.67 134.23,335.19 134.25,334.45 134.26,333.82 134.27,333.12 134.28,332.66 134.30,331.93 134.31,331.39 134.32,330.72 134.34,330.04 134.35,329.41 134.36,328.93 134.38,328.24 134.39,327.47 134.40,326.82 134.42,326.31 134.43,325.60 134.44,325.01 134.46,324.30 134.47,323.69 134.48,323.20 134.50,322.46 134.51,321.82 134.53,321.11 134.54,320.50 134.56,319.88 134.57,319.24 134.58,318.72 134.60,317.94 134.61,317.30 134.63,316.69 134.64,316.06 134.66,315.49 134.67,314.63 134.69,314.13 134.70,313.50 134.72,312.82 134.73,312.19 134.75,311.57 134.76,310.90 134.78,310.14 134.79,309.57 134.81,308.81 134.82,308.26 134.84,307.62 134.85,307.00 134.87,306.18 134.89,305.58 134.90,304.89 134.92,304.24 134.93,303.59 134.95,302.88 134.97,302.24 134.98,301.61 135.00,300.90 135.01,300.34 135.03,299.55 135.05,298.86 135.06,298.18 135.08,297.47 135.10,296.91 135.11,296.21 135.13,295.52 135.14,294.83 135.16,294.17 135.18,293.45 135.20,292.76 135.21,292.14 135.23,291.31 135.25,290.82 135.27,290.17 135.28,289.43 135.30,288.71 135.32,287.94 135.34,287.28 135.36,286.63 135.38,285.98 135.40,285.27 135.41,284.61 135.43,283.87 135.45,283.12 135.47,282.58 135.49,281.86 135.51,281.03 135.53,280.43 135.55,279.71 135.57,279.02 135.59,278.31 135.61,277.69 135.63,276.93 135.65,276.09 135.67,275.53 135.69,274.75 135.71,274.07 135.73,273.35 135.75,272.65 135.77,271.92 135.80,271.34 135.82,270.37 135.84,269.88 135.86,269.06 135.88,268.45 135.91,267.58 135.93,266.97 135.96,266.22 135.98,265.53 136.00,264.84 136.03,264.10 136.05,263.37 136.07,262.65 136.10,261.95 136.13,261.25 136.15,260.48 136.18,259.80 136.20,259.02 136.23,258.27 136.25,257.59 136.28,256.92 136.30,256.05 136.33,255.43 136.35,254.65 136.38,253.93 136.41,253.15 136.43,252.40 136.46,251.77 136.49,250.99 136.52,250.29 136.55,249.48 136.58,248.77 136.61,248.07 136.64,247.32 136.67,246.60 136.70,245.81 136.73,245.07 136.76,244.43 136.79,243.59 136.82,242.83 136.85,242.08 136.88,241.36 136.92,240.68 136.95,239.93 136.98,239.13 137.02,238.29 137.05,237.67 137.09,236.91 137.12,236.15 137.16,235.26 137.19,234.53 137.23,233.83 137.27,233.07 137.31,232.35 137.34,231.57 137.37,230.77 137.41,230.07 137.45,229.35 137.49,228.51 137.53,227.81 137.57,226.99 137.61,226.28 137.65,225.52 137.70,224.64 137.74,223.97 137.78,223.13 137.83,222.35 137.87,221.57 137.92,220.86 137.97,220.02 138.01,219.25 138.06,218.50 138.11,217.77 138.16,216.91 138.21,216.16 138.27,215.42 138.32,214.62 138.38,213.80 138.43,213.07 138.49,212.25 138.55,211.37 138.60,210.71 138.66,209.88 138.72,209.20 138.78,208.40 138.84,207.56 138.91,206.78 138.97,205.89 139.04,205.22 139.11,204.48 139.18,203.56 139.26,202.77 139.33,202.06 139.42,201.28 139.50,200.40 139.58,199.60 139.66,198.81 139.75,198.05 139.84,197.24 139.93,196.35 140.02,195.61 140.11,194.86 140.21,194.04 140.31,193.21 140.43,192.48 140.54,191.61 140.65,190.78 140.77,190.04 140.90,189.15 141.03,188.29 141.17,187.56 141.33,186.74 141.50,185.89 141.69,185.04 141.87,184.31 142.06,183.51 142.30,182.67 142.56,181.85 142.85,181.07 143.20,180.24 143.58,179.34 144.06,178.56 144.59,177.73 145.23,176.92 146.18,176.08 148.01,175.31 153.28,174.39 154.64,173.61 155.35,172.77 155.86,172.02 156.27,171.16 156.64,170.34 156.97,169.50 157.25,168.63 157.52,167.79 157.76,167.06 157.98,166.19 158.21,165.37 158.42,164.43 158.62,163.56 158.81,162.85 159.00,161.92 159.19,161.05 159.35,160.25 159.53,159.42 159.70,158.53 159.87,157.77 160.04,156.91 160.21,156.04 160.38,155.17 160.55,154.33 160.73,153.51 160.90,152.65 161.07,151.87 161.24,150.94 161.43,150.06 161.63,149.24 161.82,148.32 162.01,147.51 162.22,146.73 162.43,145.84 162.64,144.96 162.85,144.12 163.07,143.31 163.30,142.38 163.56,141.57 163.86,140.64 164.16,139.86 164.50,138.98 164.89,138.08 165.36,137.23 165.88,136.30 166.58,135.42 167.44,134.70 168.51,133.74 169.84,132.84 171.33,131.97 172.83,131.19 174.41,130.31 176.25,129.38 178.38,128.56 181.02,127.60 183.84,126.73 188.40,125.85 197.94,124.88 200.15,124.14 201.34,123.27 202.20,122.36 202.91,121.50 203.53,120.58 204.08,119.70 204.55,118.88 205.03,117.93 205.49,117.09 205.94,116.21 206.38,115.21 206.80,114.40 207.22,113.54 207.65,112.64 208.13,111.68 208.65,110.85 209.20,109.94 209.79,109.04 210.43,108.12 211.17,107.28 212.15,106.39 213.42,105.52 215.98,104.60 221.14,103.67 227.26,102.71 233.30,101.86 239.02,100.98 245.50,100.06 251.34,99.19 261.71,98.28 278.98,97.36 281.32,96.43 283.05,95.50 284.45,94.63 285.79,93.71 287.02,92.80 288.20,91.87 289.53,91.00 291.02,90.03 293.03,89.14 296.08,88.29 307.00,87.33 326.01,86.44 344.64,85.53 367.93,84.59 422.18,83.67 432.64,82.75 435.79,81.83 438.68,80.91 441.74,80.00 446.82,79.09 446.98,79.08 447.08,79.06 447.26,79.05 447.39,79.00 447.59,78.97 447.80,79.01 447.90,78.97 448.10,78.93 448.34,78.91 448.46,78.92 448.66,78.89 448.90,78.85 449.13,78.87 449.36,78.84 449.55,78.83 450.00,78.80 450.38,78.79 450.76,78.77 451.14,78.76 451.58,78.72 451.96,78.71 452.52,78.70 452.92,78.69 453.71,78.65 454.56,78.63 455.82,78.62 456.66,78.59 457.41,78.60 458.36,78.55 459.27,78.54 460.18,78.53 461.45,78.53 462.78,78.47 463.96,78.48 465.08,78.47 466.26,78.43 467.26,78.41 468.14,78.41 469.43,78.37 470.68,78.34 471.59,78.36 472.16,78.34 473.01,78.30 474.00,78.28 474.91,78.26 475.97,78.24 477.41,78.23 477.96,78.19 478.36,78.20 479.00,78.14 479.53,78.16 480.54,78.14 482.37,78.14 483.55,78.12 484.34,78.05 485.14,78.07 485.91,78.07 486.83,78.06 487.46,78.03 488.49,78.00 489.03,77.97 490.09,77.93 491.53,77.91 492.65,77.90 493.42,77.89 494.04,77.92 494.77,77.88 495.25,77.84 495.98,77.85 496.85,77.81 498.01,77.76 499.07,77.78 499.96,77.74 500.76,77.74 502.06,77.74 503.93,77.70 505.43,77.70 506.21,77.64 507.13,77.64 508.45,77.60 509.08,77.60 510.13,77.61 511.75,77.55 513.06,77.58 513.95,77.54 514.86,77.49 516.74,77.48 517.56,77.46 518.68,77.46 519.44,77.43 520.59,77.44 521.96,77.40 523.17,77.41 524.23,77.38 526.17,77.36 527.72,77.32 529.44,77.31 531.36,77.29 532.17,77.29 533.90,77.25 536.32,77.23 538.41,77.23 539.73,77.21 543.48,77.18 545.96,77.20 546.60,77.16 548.42,77.14 550.46,77.11 552.04,77.08 554.97,77.09 556.35,77.06 558.81,77.02 561.32,77.02 564.05,77.00 565.35,76.98 567.42,76.96 570.34,76.95 572.17,76.92 574.77,76.92 576.51,76.92 578.74,76.88 580.48,76.86 583.28,76.84 584.96,76.83 587.42,76.79 589.32,76.81 591.66,76.77 596.25,76.74 598.63,76.72 604.33,76.68 606.33,76.67 609.58,76.66 613.40,76.64 617.02,76.62 620.38,76.62 622.70,76.58 628.73,76.59 633.59,76.55 640.33,76.55 647.04,76.52 657.46,76.52 670.38,76.47 683.17,76.47 700.60,76.45 709.31,76.41 712.57,76.43 714.07,76.41 715.04,76.39 716.03,76.35 716.80,76.33 717.43,76.33 717.89,76.29 718.11,76.28 718.63,76.27 719.03,76.24 719.31,76.25 719.53,76.23 719.73,76.20 719.99,76.19 720.24,76.15 720.47,76.14 720.71,76.12 721.01,76.08 721.31,76.08 721.43,76.07 721.70,76.05 721.89,76.02 722.14,75.99 722.28,75.97 722.44,75.98 722.71,75.95 722.83,75.94 723.05,75.92 723.13,75.90 723.28,75.87 723.49,75.87 723.64,75.85 723.86,75.82 724.02,75.82 724.18,75.78 724.43,75.78 724.51,75.73 724.69,75.74 724.86,75.71 725.06,75.71 725.15,75.68 725.26,75.65 725.44,75.64 725.64,75.63 725.80,75.60 725.95,75.59 726.12,75.56 726.35,75.54 726.60,75.53 726.75,75.51 726.89,75.49 727.02,75.46 727.25,75.47 727.36,75.45 727.58,75.42 727.75,75.40 727.89,75.38 728.02,75.36 728.12,75.34 728.30,75.31 728.46,75.31 728.67,75.28 728.80,75.29 728.91,75.26 729.07,75.25 729.20,75.23 729.38,75.20 729.57,75.16 729.77,75.15 729.98,75.14 730.18,75.14 730.32,75.11 730.47,75.08 730.73,75.06 730.98,75.04 731.19,75.04 731.36,75.02 731.50,74.99 731.70,74.98 731.80,74.97 731.90,74.93 732.09,74.94 732.37,74.91 732.64,74.90 732.88,74.88 733.02,74.86 733.13,74.82 733.26,74.82 733.50,74.81 733.62,74.76 733.87,74.74 733.97,74.76 734.20,74.72 734.39,74.72 734.55,74.69 734.84,74.65 734.98,74.65 735.12,74.63 735.31,74.64 735.49,74.59 735.61,74.59 735.80,74.56 736.09,74.54 736.28,74.52 736.57,74.50 736.81,74.49 736.94,74.47 737.23,74.46 737.36,74.41 737.65,74.40 737.92,74.40 738.06,74.37 738.42,74.36 738.74,74.35 739.04,74.33 739.28,74.31 739.61,74.29 739.88,74.29 740.27,74.26 740.49,74.24 740.74,74.23 740.96,74.21 741.29,74.18 741.55,74.16 742.07,74.15 742.44,74.14 742.92,74.09 743.35,74.07 743.57,74.05 743.84,74.04 744.19,74.04 744.68,74.01 745.14,73.97 745.67,73.95 746.21,73.94 746.96,73.95 747.71,73.90 748.88,73.90 750.04,73.87 751.29,73.86 751.95,73.83 752.55,73.81 753.46,73.81 754.85,73.79 755.97,73.77 758.08,73.76 759.32,73.74 760.53,73.73 762.11,73.69 762.83,73.66 764.17,73.67 765.64,73.65 766.45,73.63 767.57,73.60 768.59,73.59 770.11,73.57 771.59,73.54 773.44,73.53 775.00,73.53 777.22,73.52 781.60,73.48 802.48,73.45 813.90,73.45 818.33,73.42 823.53,73.39 826.85,73.39 830.59,73.37 832.42,73.34 834.37,73.35 836.49,73.31 839.35,73.31 841.54,73.28 843.18,73.26 844.18,73.24 847.25,73.23 850.86,73.21 853.79,73.19 857.57,73.15 860.15,73.14 863.18,73.12 867.23,73.12 872.42,73.09 877.08,73.07 882.30,73.05 887.79,73.03 891.13,73.02 896.94,72.99 900.00,72.98" fill="none" stroke="#ff7f0e" stroke-width="0.9" stroke-opacity="0.85"/>
<polyline points="80.00,540.00 121.41,540.00 124.42,540.00 124.86,540.00 125.16,540.00 125.38,539.99 125.56,539.99 125.72,539.98 125.86,539.98 125.97,539.97 126.08,539.96 126.17,539.96 126.25,539.95 126.33,539.94 126.41,539.92 126.47,539.91 126.54,539.90 126.60,539.89 126.65,539.87 126.71,539.85 126.77,539.84 126.82,539.82 126.87,539.80 126.92,539.78 126.96,539.76 127.01,539.74 127.05,539.72 127.09,539.69 127.14,539.67 127.17,539.64 127.21,539.62 127.25,539.59 127.29,539.56 127.32,539.54 127.36,539.50 127.39,539.47 127.42,539.44 127.45,539.41 127.48,539.37 127.52,539.34 127.54,539.30 127.57,539.27 127.60,539.23 127.63,539.19 127.66,539.15 127.68,539.11 127.71,539.07 127.73,539.03 127.76,538.99 127.79,538.94 127.81,538.90 127.84,538.85 127.86,538.80 127.89,538.76 127.91,538.71 127.93,538.66 127.96,538.61 127.98,538.56 128.00,538.51 128.02,538.45 128.05,538.40 128.07,538.34 128.09,538.29 128.11,538.23 128.13,538.17 128.15,538.11 128.17,538.05 128.19,538.00 128.21,537.93 128.23,537.87 128.25,537.81 128.27,537.74 128.29,537.68 128.31,537.61 128.32,537.54 128.34,537.47 128.36,537.41 128.38,537.34 128.40,537.26 128.41,537.19 128.43,537.12 128.45,537.05 128.47,536.98 128.48,536.90 128.50,536.82 128.52,536.74 128.54,536.66 128.55,536.58 128.57,536.50 128.58,536.42 128.60,536.35 128.62,536.26 128.64,536.19 128.65,536.09 128.67,536.01 128.68,535.93 128.70,535.83 128.71,535.75 128.73,535.66 128.74,535.56 128.76,535.47 128.77,535.38 128.79,535.29 128.80,535.19 128.82,535.10 128.83,535.00 128.85,534.90 128.86,534.81 128.88,534.71 128.89,534.60 128.90,534.51 128.92,534.41 128.93,534.30 128.95,534.20 128.96,534.09 128.98,533.99 128.99,533.87 129.00,533.77 129.02,533.66 129.03,533.56 129.04,533.45 129.06,533.33 129.07,533.23 129.08,533.11 129.10,532.99 129.11,532.88 129.12,532.76 129.14,532.64 129.15,532.52 129.16,532.41 129.18,532.29 129.19,532.18 129.20,532.04 129.21,531.93 129.23,531.82 129.24,531.67 129.25,531.55 129.26,531.43 129.28,531.31 129.29,531.18 129.30,531.05 129.32,530.92 129.33,530.79 129.34,530.65 129.35,530.53 129.36,530.39 129.38,530.25 129.39,530.10 129.40,529.96 129.41,529.84 129.43,529.71 129.44,529.57 129.45,529.42 129.46,529.29 129.47,529.14 129.48,529.00 129.50,528.86 129.51,528.70 129.52,528.55 129.53,528.41 129.54,528.26 129.55,528.11 129.56,527.96 129.58,527.82 129.59,527.66 129.60,527.51 129.61,527.36 129.62,527.22 129.63,527.05 129.64,526.89 129.65,526.75 129.66,526.59 129.67,526.42 129.69,526.27 129.70,526.11 129.71,525.94 129.72,525.79 129.73,525.61 129.74,525.47 129.75,525.28 129.76,525.11 129.77,524.96 129.78,524.77 129.79,524.62 129.80,524.44 129.81,524.27 129.82,524.10 129.83,523.91 129.84,523.77 129.85,523.57 129.87,523.39 129.88,523.23 129.89,523.08 129.90,522.88 129.91,522.68 129.92,522.50 129.93,522.33 129.94,522.18 129.95,521.95 129.96,521.78 129.97,521.58 129.98,521.40 129.99,521.24 130.00,521.07 130.01,520.83 130.02,520.65 130.03,520.47 130.04,520.27 130.05,520.05 130.06,519.89 130.07,519.67 130.08,519.49 130.09,519.28 130.10,519.11 130.11,518.90 130.12,518.71 130.13,518.53 130.14,518.30 130.15,518.11 130.16,517.90 130.17,517.70 130.18,517.48 130.19,517.27 130.20,517.11 130.21,516.86 130.22,516.67 130.22,516.45 130.23,516.26 130.24,516.03 130.25,515.83 130.26,515.61 130.27,515.39 130.28,515.19 130.29,514.96 130.30,514.75 130.31,514.55 130.32,514.28 130.33,514.05 130.33,513.86 130.34,513.62 130.35,513.43 130.36,513.21 130.37,512.96 130.38,512.75 130.39,512.50 130.40,512.27 130.41,512.05 130.42,511.84 130.43,511.60 130.44,511.38 130.45,511.17 130.46,510.89 130.47,510.66 130.47,510.44 130.48,510.19 130.49,509.97 130.50,509.75 130.51,509.50 130.52,509.24 130.53,509.02 130.54,508.77 130.54,508.50 130.55,508.31 130.56,508.03 130.57,507.79 130.58,507.55 130.59,507.33 130.60,507.04 130.61,506.78 130.62,506.55 130.63,506.27 130.63,506.04 130.64,505.80 130.65,505.54 130.66,505.29 130.67,505.02 130.68,504.79 130.69,504.52 130.70,504.25 130.70,504.00 130.71,503.70 130.72,503.46 130.73,503.21 130.74,502.96 130.75,502.71 130.76,502.43 130.76,502.13 130.77,501.87 130.78,501.65 130.79,501.35 130.80,501.11 130.81,500.82 130.82,500.52 130.83,500.24 130.83,500.01 130.84,499.73 130.85,499.43 130.86,499.21 130.87,498.86 130.88,498.59 130.89,498.38 130.89,498.02 130.90,497.75 130.91,497.48 130.92,497.17 130.93,496.94 130.94,496.68 130.95,496.34 130.96,496.11 130.96,495.76 130.97,495.45 130.98,495.22 130.99,494.93 131.00,494.59 131.01,494.34 131.01,494.01 131.02,493.77 131.03,493.48 131.04,493.11 131.05,492.84 131.06,492.54 131.07,492.26 131.07,491.97 131.08,491.69 131.09,491.36 131.10,491.02 131.11,490.73 131.12,490.49 131.13,490.17 131.13,489.84 131.14,489.54 131.15,489.20 131.16,488.92 131.17,488.60 131.18,488.29 131.18,488.01 131.19,487.67 131.20,487.35 131.21,487.09 131.22,486.73 131.23,486.38 131.23,486.09 131.24,485.75 131.25,485.41 131.26,485.10 131.27,484.79 131.28,484.47 131.29,484.18 131.29,483.83 131.30,483.48 131.31,483.19 131.32,482.84 131.33,482.52 131.34,482.17 131.34,481.86 131.35,481.53 131.36,481.20 131.37,480.89 131.38,480.55 131.39,480.23 131.40,479.91 131.40,479.57 131.41,479.21 131.42,478.87 131.43,478.53 131.44,478.16 131.45,477.81 131.45,477.54 131.46,477.12 131.47,476.80 131.48,476.45 131.49,476.13 131.49,475.76 131.50,475.44 131.51,475.06 131.52,474.67 131.53,474.37 131.53,474.01 131.54,473.65 131.55,473.30 131.56,472.94 131.57,472.65 131.58,472.22 131.58,471.89 131.59,471.54 131.60,471.15 131.61,470.81 131.62,470.42 131.62,470.10 131.63,469.74 131.64,469.38 131.65,468.95 131.66,468.61 131.67,468.26 131.67,467.99 131.68,467.59 131.69,467.18 131.70,466.72 131.71,466.44 131.72,466.07 131.72,465.65 131.73,465.25 131.74,464.91 131.75,464.56 131.76,464.13 131.77,463.79 131.77,463.35 131.78,463.01 131.79,462.60 131.80,462.24 131.81,461.93 131.82,461.51 131.82,461.14 131.83,460.71 131.84,460.39 131.85,459.98 131.86,459.65 131.87,459.16 131.87,458.84 131.88,458.41 131.89,458.03 131.90,457.63 131.91,457.24 131.92,456.83 131.92,456.43 131.93,456.07 131.94,455.63 131.95,455.21 131.96,454.80 131.97,454.46 131.97,454.06 131.98,453.73 131.99,453.25 132.00,452.86 132.01,452.44 132.02,452.00 132.03,451.60 132.03,451.25 132.04,450.87 132.05,450.39 132.06,449.98 132.07,449.56 132.08,449.11 132.09,448.76 132.09,448.29 132.10,447.97 132.11,447.49 132.12,447.17 132.13,446.62 132.14,446.22 132.14,445.88 132.15,445.37 132.16,444.97 132.17,444.57 132.18,444.19 132.19,443.71 132.19,443.34 132.20,442.92 132.21,442.44 132.22,441.98 132.23,441.66 132.24,441.16 132.25,440.69 132.26,440.28 132.26,439.86 132.27,439.42 132.28,438.99 132.29,438.54 132.30,438.08 132.31,437.65 132.31,437.27 132.32,436.82 132.33,436.42 132.34,435.89 132.35,435.45 132.36,435.01 132.37,434.52 132.38,434.12 132.38,433.65 132.39,433.19 132.40,432.78 132.41,432.31 132.42,431.93 132.43,431.42 132.44,431.03 132.44,430.49 132.45,430.04 132.46,429.62 132.47,429.17 132.48,428.66 132.49,428.19 132.50,427.77 132.51,427.35 132.51,426.93 132.52,426.40 132.53,425.89 132.54,425.42 132.55,425.02 132.56,424.54 132.57,424.15 132.58,423.55 132.59,423.12 132.60,422.67 132.60,422.25 132.61,421.74 132.62,421.20 132.63,420.71 132.64,420.30 132.65,419.88 132.66,419.37 132.67,418.82 132.68,418.38 132.68,417.90 132.69,417.50 132.70,416.96 132.71,416.50 132.72,415.98 132.73,415.51 132.74,414.93 132.75,414.52 132.76,414.08 132.77,413.68 132.78,413.09 132.79,412.65 132.80,412.11 132.80,411.63 132.81,411.19 132.82,410.66 132.83,410.16 132.84,409.67 132.85,409.13 132.86,408.68 132.87,408.12 132.88,407.60 132.88,407.18 132.89,406.71 132.90,406.18 132.91,405.55 132.92,405.19 132.93,404.65 132.94,404.13 132.95,403.61 132.96,403.13 132.97,402.57 132.98,402.09 132.99,401.58 133.00,401.07 133.01,400.63 133.02,400.10 133.03,399.59 133.04,399.03 133.04,398.49 133.05,397.99 133.06,397.49 133.07,397.06 133.08,396.53 133.09,395.90 133.10,395.35 133.11,394.86 133.12,394.40 133.13,393.87 133.14,393.33 133.15,392.77 133.16,392.36 133.17,391.73 133.18,391.16 133.19,390.74 133.20,390.13 133.21,389.59 133.22,389.04 133.23,388.61 133.24,387.99 133.25,387.40 133.26,387.05 133.27,386.50 133.28,385.86 133.29,385.37 133.30,384.80 133.31,384.28 133.32,383.76 133.33,383.19 133.34,382.72 133.35,382.10 133.36,381.52 133.37,380.99 133.38,380.46 133.40,379.94 133.41,379.38 133.42,378.82 133.43,378.25 133.44,377.70 133.45,377.19 133.46,376.54 133.47,376.09 133.48,375.53 133.49,374.90 133.50,374.33 133.51,373.78 133.52,373.32 133.53,372.68 133.54,372.13 133.55,371.50 133.56,371.01 133.57,370.48 133.58,369.99 133.59,369.39 133.60,368.71 133.61,368.18 133.63,367.59 133.64,367.03 133.65,366.47 133.66,365.85 133.67,365.31 133.68,364.78 133.69,364.17 133.70,363.60 133.71,363.08 133.72,362.38 133.73,361.75 133.75,361.27 133.76,360.67 133.77,360.16 133.78,359.54 133.79,358.94 133.80,358.31 133.81,357.78 133.82,357.14 133.84,356.62 133.85,356.00 133.86,355.38 133.87,354.83 133.88,354.22 133.89,353.64 133.91,353.06 133.92,352.36 133.93,351.90 133.94,351.33 133.95,350.62 133.96,350.09 133.98,349.47 133.99,348.96 134.00,348.30 134.01,347.70 134.02,347.07 134.04,346.50 134.05,345.85 134.06,345.39 134.07,344.71 134.08,344.13 134.10,343.39 134.11,342.78 134.12,342.21 134.13,341.58 134.15,340.96 134.16,340.30 134.17,339.81 134.18,339.13 134.19,338.58 134.21,337.89 134.22,337.35 134.23,336.70 134.25,336.10 134.26,335.44 134.27,334.90 134.28,334.15 134.30,333.63 134.31,333.00 134.32,332.34 134.34,331.71 134.35,331.11 134.36,330.50 134.38,329.76 134.39,329.22 134.40,328.50 134.42,328.03 134.43,327.31 134.44,326.66 134.46,326.00 134.47,325.43 134.48,324.76 134.50,324.07 134.51,323.50 134.53,322.93 134.54,322.22 134.56,321.60 134.57,320.87 134.58,320.27 134.60,319.62 134.61,318.99 134.63,318.45 134.64,317.72 134.66,316.97 134.67,316.39 134.69,315.77 134.70,315.15 134.72,314.47 134.73,313.79 134.75,313.09 134.76,312.45 134.78,311.83 134.79,311.21 134.81,310.58 134.82,309.89 134.84,309.30 134.85,308.68 134.87,307.88 134.89,307.27 134.90,306.52 134.92,305.91 134.93,305.23 134.95,304.54 134.97,303.89 134.98,303.25 135.00,302.65 135.01,301.95 135.03,301.18 135.05,300.47 135.06,299.88 135.08,299.17 135.10,298.52 135.11,297.92 135.13,297.15 135.14,296.55 135.16,295.78 135.18,295.08 135.20,294.43 135.21,293.83 135.23,293.21 135.25,292.49 135.27,291.79 135.28,290.97 135.30,290.35 135.32,289.66 135.34,288.98 135.36,288.33 135.38,287.57 135.40,286.91 135.41,286.31 135.43,285.59 135.45,284.88 135.47,284.08 135.49,283.48 135.51,282.76 135.53,282.16 135.55,281.34 135.57,280.57 135.59,280.02 135.61,279.23 135.63,278.57 135.65,277.88 135.67,277.18 135.69,276.34 135.71,275.71 135.73,275.03 135.75,274.38 135.77,273.59 135.80,272.91 135.82,272.35 135.84,271.56 135.86,270.82 135.88,270.09 135.91,269.40 135.93,268.57 135.96,268.00 135.98,267.15 136.00,266.46 136.03,265.84 136.05,265.06 136.07,264.38 136.10,263.59 136.13,262.91 136.15,262.31 136.18,261.50 136.20,260.64 136.23,260.03 136.25,259.27 136.28,258.36 136.30,257.83 136.33,257.19 136.35,256.44 136.38,255.66 136.41,254.81 136.43,254.09 136.46,253.39 136.49,252.64 136.52,251.99 136.55,251.21 136.58,250.41 136.61,249.68 136.64,248.91 136.67,248.19 136.70,247.43 136.73,246.67 136.76,245.99 136.79,245.26 136.82,244.57 136.85,243.83 136.88,243.11 136.92,242.37 136.95,241.57 136.98,240.79 137.02,240.02 137.05,239.29 137.09,238.57 137.12,237.71 137.16,236.99 137.19,236.26 137.23,235.67 137.27,234.77 137.31,233.96 137.34,233.17 137.37,232.46 137.41,231.66 137.45,231.02 137.49,230.17 137.53,229.38 137.57,228.61 137.61,227.78 137.65,227.09 137.70,226.23 137.74,225.54 137.78,224.79 137.83,224.06 137.87,223.21 137.92,222.53 137.97,221.68 138.01,220.91 138.06,220.06 138.11,219.30 138.16,218.57 138.21,217.80 138.27,217.05 138.32,216.16 138.38,215.48 138.43,214.75 138.49,213.90 138.55,213.06 138.60,212.34 138.66,211.59 138.72,210.80 138.78,210.03 138.84,209.19 138.91,208.37 138.97,207.63 139.04,206.78 139.11,206.08 139.18,205.21 139.26,204.37 139.33,203.68 139.42,202.81 139.50,201.97 139.58,201.27 139.66,200.35 139.75,199.70 139.84,198.86 139.93,198.02 140.02,197.18 140.11,196.40 140.21,195.68 140.31,194.83 140.43,193.94 140.54,193.15 140.65,192.32 140.77,191.61 140.90,190.73 141.03,189.86 141.17,189.11 141.33,188.32 141.50,187.46 141.69,186.61 141.87,185.85 142.06,184.99 142.30,184.27 142.56,183.40 142.85,182.54 143.20,181.72 143.58,180.85 144.06,179.98 144.59,179.28 145.23,178.49 146.18,177.69 148.01,176.76 153.28,175.88 154.64,175.15 155.35,174.38 155.86,173.49 156.27,172.64 156.64,171.75 156.97,170.92 157.25,170.07 157.52,169.23 157.76,168.52 157.98,167.54 158.21,166.73 158.42,165.97 158.62,165.15 158.81,164.19 159.00,163.33 159.19,162.49 159.35,161.74 159.53,160.83 159.70,159.96 159.87,159.24 160.04,158.31 160.21,157.43 160.38,156.58 160.55,155.71 160.73,154.82 160.90,154.07 161.07,153.19 161.24,152.29 161.43,151.45 161.63,150.59 161.82,149.68 162.01,148.95 162.22,148.03 162.43,147.12 162.64,146.31 162.85,145.41 163.07,144.51 163.30,143.74 163.56,142.74 163.86,141.95 164.16,141.16 164.50,140.24 164.89,139.34 165.36,138.39 165.88,137.64 166.58,136.77 167.44,135.87 168.51,134.95 169.84,134.10 171.33,133.20 172.83,132.37 174.41,131.46 176.25,130.62 178.38,129.72 181.02,128.75 183.84,127.96 188.40,127.08 197.94,126.18 200.15,125.27 201.34,124.41 202.20,123.50 202.91,122.59 203.53,121.77 204.08,120.83 204.55,119.96 205.03,119.04 205.49,118.14 205.94,117.29 206.38,116.38 206.80,115.46 207.22,114.56 207.65,113.64 208.13,112.76 208.65,111.88 209.20,111.00 209.79,110.06 210.43,109.14 211.17,108.27 212.15,107.33 213.42,106.42 215.98,105.55 221.14,104.61 227.26,103.66 233.30,102.77 239.02,101.89 245.50,100.91 251.34,100.06 261.71,99.13 278.98,98.21 281.32,97.28 283.05,96.32 284.45,95.47 285.79,94.47 287.02,93.59 288.20,92.66 289.53,91.73 291.02,90.83 293.03,89.87 296.08,88.96 307.00,88.03 326.01,87.12 344.64,86.18 367.93,85.22 422.18,84.29 432.64,83.37 435.79,82.43 438.68,81.48 441.74,80.57 446.82,79.58 446.98,79.58 447.08,79.54 447.26,79.55 447.39,79.52 447.59,79.50 447.80,79.52 447.90,79.46 448.10,79.48 448.34,79.48 448.46,79.45 448.66,79.40 448.90,79.40 449.13,79.37 449.36,79.34 449.55,79.31 450.00,79.33 450.38,79.30 450.76,79.25 451.14,79.24 451.58,79.21 451.96,79.21 452.52,79.19 452.92,79.18 453.71,79.15 454.56,79.12 455.82,79.12 456.66,79.11 457.41,79.08 458.36,79.05 459.27,79.04 460.18,79.03 461.45,78.99 462.78,79.00 463.96,78.99 465.08,78.92 466.26,78.92 467.26,78.89 468.14,78.87 469.43,78.87 470.68,78.86 471.59,78.85 472.16,78.80 473.01,78.81 474.00,78.77 474.91,78.75 475.97,78.73 477.41,78.74 477.96,78.69 478.36,78.69 479.00,78.63 479.53,78.64 480.54,78.61 482.37,78.59 483.55,78.58 484.34,78.59 485.14,78.53 485.91,78.53 486.83,78.51 487.46,78.48 488.49,78.49 489.03,78.46 490.09,78.43 491.53,78.39 492.65,78.39 493.42,78.38 494.04,78.34 494.77,78.37 495.25,78.30 495.98,78.31 496.85,78.31 498.01,78.27 499.07,78.26 499.96,78.24 500.76,78.21 502.06,78.21 503.93,78.19 505.43,78.16 506.21,78.14 507.13,78.09 508.45,78.10 509.08,78.06 510.13,78.06 511.75,78.05 513.06,78.04 513.95,77.99 514.86,78.02 516.74,77.97 517.56,77.95 518.68,77.96 519.44,77.87 520.59,77.91 521.96,77.85 523.17,77.85 524.23,77.85 526.17,77.81 527.72,77.80 529.44,77.77 531.36,77.75 532.17,77.72 533.90,77.75 536.32,77.72 538.41,77.71 539.73,77.65 543.48,77.66 545.96,77.65 546.60,77.58 548.42,77.61 550.46,77.59 552.04,77.54 554.97,77.55 556.35,77.52 558.81,77.51 561.32,77.47 564.05,77.45 565.35,77.43 567.42,77.41 570.34,77.42 572.17,77.38 574.77,77.35 576.51,77.35 578.74,77.31 580.48,77.31 583.28,77.27 584.96,77.27 587.42,77.26 589.32,77.22 591.66,77.24 596.25,77.18 598.63,77.17 604.33,77.15 606.33,77.14 609.58,77.11 613.40,77.12 617.02,77.09 620.38,77.06 622.70,77.04 628.73,77.03 633.59,77.00 640.33,76.99 647.04,76.97 657.46,76.95 670.38,76.92 683.17,76.91 700.60,76.92 709.31,76.88 712.57,76.85 714.07,76.81 715.04,76.79 716.03,76.80 716.80,76.78 717.43,76.78 717.89,76.74 718.11,76.74 718.63,76.68 719.03,76.69 719.31,76.66 719.53,76.63 719.73,76.61 719.99,76.60 720.24,76.60 720.47,76.56 720.71,76.54 721.01,76.50 721.31,76.51 721.43,76.49 721.70,76.45 721.89,76.43 722.14,76.43 722.28,76.41 722.44,76.37 722.71,76.38 722.83,76.35 723.05,76.34 723.13,76.30 723.28,76.32 723.49,76.30 723.64,76.26 723.86,76.24 724.02,76.23 724.18,76.19 724.43,76.18 724.51,76.18 724.69,76.15 724.86,76.11 725.06,76.10 725.15,76.10 725.26,76.08 725.44,76.04 725.64,76.02 725.80,76.01 725.95,75.99 726.12,75.98 726.35,75.94 726.60,75.93 726.75,75.91 726.89,75.88 727.02,75.88 727.25,75.87 727.36,75.86 727.58,75.81 727.75,75.82 727.89,75.81 728.02,75.76 728.12,75.73 728.30,75.73 728.46,75.71 728.67,75.69 728.80,75.67 728.91,75.65 729.07,75.62 729.20,75.62 729.38,75.58 729.57,75.58 729.77,75.54 729.98,75.54 730.18,75.53 730.32,75.51 730.47,75.49 730.73,75.46 730.98,75.44 731.19,75.41 731.36,75.42 731.50,75.40 731.70,75.37 731.80,75.33 731.90,75.32 732.09,75.31 732.37,75.29 732.64,75.28 732.88,75.25 733.02,75.22 733.13,75.21 733.26,75.20 733.50,75.18 733.62,75.16 733.87,75.16 733.97,75.12 734.20,75.08 734.39,75.10 734.55,75.05 734.84,75.05 734.98,75.02 735.12,74.99 735.31,74.99 735.49,74.97 735.61,74.95 735.80,74.92 736.09,74.90 736.28,74.89 736.57,74.88 736.81,74.85 736.94,74.83 737.23,74.80 737.36,74.80 737.65,74.78 737.92,74.75 738.06,74.74 738.42,74.73 738.74,74.71 739.04,74.69 739.28,74.65 739.61,74.66 739.88,74.62 740.27,74.60 740.49,74.58 740.74,74.56 740.96,74.55 741.29,74.53 741.55,74.51 742.07,74.50 742.44,74.45 742.92,74.47 743.35,74.45 743.57,74.42 743.84,74.40 744.19,74.37 744.68,74.35 745.14,74.34 745.67,74.31 746.21,74.29 746.96,74.27 747.71,74.27 748.88,74.26 750.04,74.24 751.29,74.19 751.95,74.17 752.55,74.16 753.46,74.13 754.85,74.13 755.97,74.08 758.08,74.09 759.32,74.07 760.53,74.07 762.11,74.04 762.83,74.00 764.17,74.00 765.64,73.97 766.45,73.94 767.57,73.94 768.59,73.93 770.11,73.91 771.59,73.86 773.44,73.89 775.00,73.85 777.22,73.82 781.60,73.81 802.48,73.77 813.90,73.74 818.33,73.75 823.53,73.72 826.85,73.70 830.59,73.67 832.42,73.65 834.37,73.67 836.49,73.63 839.35,73.61 841.54,73.59 843.18,73.55 844.18,73.56 847.25,73.54 850.86,73.52 853.79,73.50 857.57,73.47 860.15,73.46 863.18,73.43 867.23,73.42 872.42,73.40 877.08,73.38 882.30,73.35 887.79,73.34 891.13,73.33 896.94,73.30 900.00,73.29" fill="none" stroke="#ff7f0e" stroke-width="0.9" stroke-opacity="0.85"/>
<polyline points="80.00,540.00 121.41,540.00 124.42,540.00 124.86,540.00 125.16,540.00 125.38,539.99 125.56,539.99 125.72,539.98 125.86,539.98 125.97,539.97 126.08,539.96 126.17,539.95 126.25,539.94 126.33,539.93 126.41,539.92 126.47,539.91 126.54,539.89 126.60,539.88 126.65,539.86 126.71,539.85 126.77,539.83 126.82,539.81 126.87,539.79 126.92,539.77 126.96,539.75 127.01,539.73 127.05,539.71 127.09,539.68 127.14,539.66 127.17,539.63 127.21,539.60 127.25,539.58 127.29,539.55 127.32,539.52 127.36,539.49 127.39,539.46 127.42,539.42 127.45,539.39 127.48,539.36 127.52,539.32 127.54,539.29 127.57,539.25 127.60,539.21 127.63,539.17 127.66,539.13 127.68,539.09 127.71,539.05 127.73,539.01 127.76,538.96 127.79,538.92 127.81,538.87 127.84,538.82 127.86,538.78 127.89,538.73 127.91,538.68 127.93,538.63 127.96,538.58 127.98,538.53 128.00,538.47 128.02,538.42 128.05,538.36 128.07,538.31 128.09,538.25 128.11,538.19 128.13,538.13 128.15,538.07 128.17,538.01 128.19,537.95 128.21,537.89 128.23,537.83 128.25,537.76 128.27,537.70 128.29,537.63 128.31,537.56 128.32,537.50 128.34,537.43 128.36,537.36 128.38,537.29 128.40,537.21 128.41,537.14 128.43,537.07 128.45,536.99 128.47,536.92 128.48,536.84 128.50,536.76 128.52,536.68 128.54,536.60 128.55,536.52 128.57,536.44 128.58,536.36 128.60,536.28 128.62,536.19 128.64,536.11 128.65,536.02 128.67,535.93 128.68,535.85 128.70,535.76 128.71,535.67 128.73,535.58 128.74,535.49 128.76,535.39 128.77,535.30 128.79,535.21 128.80,535.11 128.82,535.01 128.83,534.92 128.85,534.82 128.86,534.72 128.88,534.62 128.89,534.52 128.90,534.42 128.92,534.31 128.93,534.21 128.95,534.10 128.96,534.00 128.98,533.89 128.99,533.78 129.00,533.68 129.02,533.57 129.03,533.46 129.04,533.34 129.06,533.23 129.07,533.12 129.08,533.00 129.10,532.89 129.11,532.77 129.12,532.66 129.14,532.54 129.15,532.42 129.16,532.30 129.18,532.18 129.19,532.06 129.20,531.93 129.21,531.81 129.23,531.69 129.24,531.56 129.25,531.43 129.26,531.31 129.28,531.18 129.29,531.05 129.30,530.92 129.32,530.79 129.33,530.66 129.34,530.52 129.35,530.39 129.36,530.25 129.38,530.12 129.39,529.98 129.40,529.84 129.41,529.70 129.43,529.57 129.44,529.42 129.45,529.28 129.46,529.14 129.47,529.00 129.48,528.85 129.50,528.71 129.51,528.56 129.52,528.41 129.53,528.27 129.54,528.12 129.55,527.97 129.56,527.82 129.58,527.67 129.59,527.51 129.60,527.36 129.61,527.20 129.62,527.05 129.63,526.89 129.64,526.73 129.65,526.58 129.66,526.42 129.67,526.26 129.69,526.10 129.70,525.93 129.71,525.77 129.72,525.61 129.73,525.44 129.74,525.28 129.75,525.11 129.76,524.94 129.77,524.77 129.78,524.60 129.79,524.43 129.80,524.26 129.81,524.09 129.82,523.91 129.83,523.74 129.84,523.56 129.85,523.39 129.87,523.21 129.88,523.03 129.89,522.85 129.90,522.67 129.91,522.49 129.92,522.31 129.93,522.13 129.94,521.94 129.95,521.76 129.96,521.57 129.97,521.39 129.98,521.20 129.99,521.01 130.00,520.82 130.01,520.63 130.02,520.44 130.03,520.25 130.04,520.05 130.05,519.86 130.06,519.67 130.07,519.47 130.08,519.27 130.09,519.07 130.10,518.88 130.11,518.68 130.12,518.48 130.13,518.27 130.14,518.07 130.15,517.87 130.16,517.66 130.17,517.46 130.18,517.25 130.19,517.04 130.20,516.84 130.21,516.63 130.22,516.42 130.22,516.21 130.23,515.99 130.24,515.78 130.25,515.57 130.26,515.35 130.27,515.14 130.28,514.92 130.29,514.70 130.30,514.48 130.31,514.26 130.32,514.04 130.33,513.82 130.33,513.60 130.34,513.38 130.35,513.15 130.36,512.93 130.37,512.70 130.38,512.47 130.39,512.25 130.40,512.02 130.41,511.79 130.42,511.56 130.43,511.33 130.44,511.09 130.45,510.86 130.46,510.62 130.47,510.39 130.47,510.15 130.48,509.92 130.49,509.68 130.50,509.44 130.51,509.20 130.52,508.96 130.53,508.71 130.54,508.47 130.54,508.23 130.55,507.98 130.56,507.74 130.57,507.49 130.58,507.24 130.59,506.99 130.60,506.74 130.61,506.49 130.62,506.24 130.63,505.99 130.63,505.74 130.64,505.48 130.65,505.23 130.66,504.97 130.67,504.71 130.68,504.46 130.69,504.20 130.70,503.94 130.70,503.68 130.71,503.41 130.72,503.15 130.73,502.89 130.74,502.62 130.75,502.36 130.76,502.09 130.76,501.82 130.77,501.56 130.78,501.29 130.79,501.02 130.80,500.74 130.81,500.47 130.82,500.20 130.83,499.93 130.83,499.65 130.84,499.37 130.85,499.10 130.86,498.82 130.87,498.54 130.88,498.26 130.89,497.98 130.89,497.70 130.90,497.42 130.91,497.13 130.92,496.85 130.93,496.56 130.94,496.28 130.95,495.99 130.96,495.70 130.96,495.41 130.97,495.12 130.98,494.83 130.99,494.54 131.00,494.25 131.01,493.95 131.01,493.66 131.02,493.36 131.03,493.07 131.04,492.77 131.05,492.47 131.06,492.17 131.07,491.87 131.07,491.57 131.08,491.27 131.09,490.96 131.10,490.66 131.11,490.36 131.12,490.05 131.13,489.74 131.13,489.43 131.14,489.13 131.15,488.82 131.16,488.51 131.17,488.19 131.18,487.88 131.18,487.57 131.19,487.25 131.20,486.94 131.21,486.62 131.22,486.30 131.23,485.99 131.23,485.67 131.24,485.35 131.25,485.03 131.26,484.70 131.27,484.38 131.28,484.06 131.29,483.73 131.29,483.41 131.30,483.08 131.31,482.75 131.32,482.42 131.33,482.09 131.34,481.76 131.34,481.43 131.35,481.10 131.36,480.77 131.37,480.43 131.38,480.10 131.39,479.76 131.40,479.43 131.40,479.09 131.41,478.75 131.42,478.41 131.43,478.07 131.44,477.73 131.45,477.38 131.45,477.04 131.46,476.70 131.47,476.35 131.48,476.00 131.49,475.66 131.49,475.31 131.50,474.96 131.51,474.61 131.52,474.26 131.53,473.91 131.53,473.55 131.54,473.20 131.55,472.84 131.56,472.49 131.57,472.13 131.58,471.77 131.58,471.42 131.59,471.06 131.60,470.69 131.61,470.33 131.62,469.97 131.62,469.61 131.63,469.24 131.64,468.88 131.65,468.51 131.66,468.15 131.67,467.78 131.67,467.41 131.68,467.04 131.69,466.67 131.70,466.30 131.71,465.92 131.72,465.55 131.72,465.17 131.73,464.80 131.74,464.42 131.75,464.05 131.76,463.67 131.77,463.29 131.77,462.91 131.78,462.53 131.79,462.14 131.80,461.76 131.81,461.38 131.82,460.99 131.82,460.61 131.83,460.22 131.84,459.83 131.85,459.44 131.86,459.05 131.87,458.66 131.87,458.27 131.88,457.88 131.89,457.49 131.90,457.09 131.91,456.70 131.92,456.30 131.92,455.90 131.93,455.50 131.94,455.11 131.95,454.71 131.96,454.30 131.97,453.90 131.97,453.50 131.98,453.10 131.99,452.69 132.00,452.29 132.01,451.88 132.02,451.47 132.03,451.06 132.03,450.65 132.04,450.24 132.05,449.83 132.06,449.42 132.07,449.01 132.08,448.59 132.09,448.18 132.09,447.76 132.10,447.35 132.11,446.93 132.12,446.51 132.13,446.09 132.14,445.67 132.14,445.25 132.15,444.82 132.16,444.40 132.17,443.98 132.18,443.55 132.19,443.12 132.19,442.70 132.20,442.27 132.21,441.84 132.22,441.41 132.23,440.98 132.24,440.55 132.25,440.11 132.26,439.68 132.26,439.25 132.27,438.81 132.28,438.37 132.29,437.94 132.30,437.50 132.31,437.06 132.31,436.62 132.32,436.18 132.33,435.73 132.34,435.29 132.35,434.85 132.36,434.40 132.37,433.96 132.38,433.51 132.38,433.06 132.39,432.61 132.40,432.16 132.41,431.71 132.42,431.26 132.43,430.81 132.44,430.35 132.44,429.90 132.45,429.44 132.46,428.99 132.47,428.53 132.48,428.07 132.49,427.61 132.50,427.15 132.51,426.69 132.51,426.23 132.52,425.77 132.53,425.30 132.54,424.84 132.55,424.37 132.56,423.90 132.57,423.44 132.58,422.97 132.59,422.50 132.60,422.03 132.60,421.56 132.61,421.08 132.62,420.61 132.63,420.14 132.64,419.66 132.65,419.19 132.66,418.71 132.67,418.23 132.68,417.75 132.68,417.27 132.69,416.79 132.70,416.31 132.71,415.83 132.72,415.34 132.73,414.86 132.74,414.37 132.75,413.89 132.76,413.40 132.77,412.91 132.78,412.42 132.79,411.93 132.80,411.44 132.80,410.95 132.81,410.46 132.82,409.96 132.83,409.47 132.84,408.97 132.85,408.47 132.86,407.98 132.87,407.48 132.88,406.98 132.88,406.48 132.89,405.98 132.90,405.47 132.91,404.97 132.92,404.47 132.93,403.96 132.94,403.45 132.95,402.95 132.96,402.44 132.97,401.93 132.98,401.42 132.99,400.91 133.00,400.40 133.01,399.88 133.02,399.37 133.03,398.86 133.04,398.34 133.04,397.82 133.05,397.31 133.06,396.79 133.07,396.27 133.08,395.75 133.09,395.23 133.10,394.71 133.11,394.18 133.12,393.66 133.13,393.13 133.14,392.61 133.15,392.08 133.16,391.55 133.17,391.02 133.18,390.49 133.19,389.96 133.20,389.43 133.21,388.90 133.22,388.37 133.23,387.83 133.24,387.30 133.25,386.76 133.26,386.22 133.27,385.68 133.28,385.15 133.29,384.61 133.30,384.06 133.31,383.52 133.32,382.98 133.33,382.44 133.34,381.89 133.35,381.35 133.36,380.80 133.37,380.25 133.38,379.70 133.40,379.15 133.41,378.60 133.42,378.05 133.43,377.50 133.44,376.95 133.45,376.39 133.46,375.84 133.47,375.28 133.48,374.72 133.49,374.17 133.50,373.61 133.51,373.05 133.52,372.49 133.53,371.92 133.54,371.36 133.55,370.80 133.56,370.23 133.57,369.67 133.58,369.10 133.59,368.54 133.60,367.97 133.61,367.40 133.63,366.83 133.64,366.26 133.65,365.68 133.66,365.11 133.67,364.54 133.68,363.96 133.69,363.39 133.70,362.81 133.71,362.23 133.72,361.65 133.73,361.08 133.75,360.49 133.76,359.91 133.77,359.33 133.78,358.75 133.79,358.16 133.80,357.58 133.81,356.99 133.82,356.41 133.84,355.82 133.85,355.23 133.86,354.64 133.87,354.05 133.88,353.46 133.89,352.86 133.91,352.27 133.92,351.67 133.93,351.08 133.94,350.48 133.95,349.89 133.96,349.29 133.98,348.69 133.99,348.09 134.00,347.49 134.01,346.88 134.02,346.28 134.04,345.68 134.05,345.07 134.06,344.47 134.07,343.86 134.08,343.25 134.10,342.64 134.11,342.03 134.12,341.42 134.13,340.81 134.15,340.20 134.16,339.59 134.17,338.97 134.18,338.36 134.19,337.74 134.21,337.12 134.22,336.51 134.23,335.89 134.25,335.27 134.26,334.65 134.27,334.02 134.28,333.40 134.30,332.78 134.31,332.15 134.32,331.53 134.34,330.90 134.35,330.27 134.36,329.65 134.38,329.02 134.39,328.39 134.40,327.75 134.42,327.12 134.43,326.49 134.44,325.85 134.46,325.22 134.47,324.58 134.48,323.95 134.50,323.31 134.51,322.67 134.53,322.03 134.54,321.39 134.56,320.75 134.57,320.11 134.58,319.46 134.60,318.82 134.61,318.17 134.63,317.53 134.64,316.88 134.66,316.23 134.67,315.58 134.69,314.93 134.70,314.28 134.72,313.63 134.73,312.98 134.75,312.32 134.76,311.67 134.78,311.01 134.79,310.36 134.81,309.70 134.82,309.04 134.84,308.38 134.85,307.72 134.87,307.06 134.89,306.40 134.90,305.73 134.92,305.07 134.93,304.40 134.95,303.74 134.97,303.07 134.98,302.40 135.00,301.73 135.01,301.07 135.03,300.39 135.05,299.72 135.06,299.05 135.08,298.38 135.10,297.70 135.11,297.03 135.13,296.35 135.14,295.67 135.16,295.00 135.18,294.32 135.20,293.64 135.21,292.95 135.23,292.27 135.25,291.59 135.27,290.91 135.28,290.22 135.30,289.54 135.32,288.85 135.34,288.16 135.36,287.47 135.38,286.78 135.40,286.09 135.41,285.40 135.43,284.71 135.45,284.02 135.47,283.32 135.49,282.63 135.51,281.93 135.53,281.23 135.55,280.54 135.57,279.84 135.59,279.14 135.61,278.44 135.63,277.73 135.65,277.03 135.67,276.33 135.69,275.62 135.71,274.92 135.73,274.21 135.75,273.50 135.77,272.80 135.80,272.09 135.82,271.38 135.84,270.67 135.86,269.95 135.88,269.24 135.91,268.53 135.93,267.81 135.96,267.10 135.98,266.38 136.00,265.66 136.03,264.94 136.05,264.22 136.07,263.50 136.10,262.78 136.13,262.06 136.15,261.34 136.18,260.61 136.20,259.89 136.23,259.16 136.25,258.43 136.28,257.70 136.30,256.98 136.33,256.25 136.35,255.52 136.38,254.78 136.41,254.05 136.43,253.32 136.46,252.58 136.49,251.85 136.52,251.11 136.55,250.37 136.58,249.63 136.61,248.90 136.64,248.15 136.67,247.41 136.70,246.67 136.73,245.93 136.76,245.18 136.79,244.44 136.82,243.69 136.85,242.95 136.88,242.20 136.92,241.45 136.95,240.70 136.98,239.95 137.02,239.20 137.05,238.45 137.09,237.69 137.12,236.94 137.16,236.18 137.19,235.43 137.23,234.67 137.27,233.91 137.31,233.15 137.34,232.39 137.37,231.63 137.41,230.87 137.45,230.11 137.49,229.34 137.53,228.58 137.57,227.81 137.61,227.05 137.65,226.28 137.70,225.51 137.74,224.74 137.78,223.97 137.83,223.20 137.87,222.43 137.92,221.65 137.97,220.88 138.01,220.10 138.06,219.33 138.11,218.55 138.16,217.77 138.21,217.00 138.27,216.22 138.32,215.43 138.38,214.65 138.43,213.87 138.49,213.09 138.55,212.30 138.60,211.52 138.66,210.73 138.72,209.94 138.78,209.16 138.84,208.37 138.91,207.58 138.97,206.79 139.04,205.99 139.11,205.20 139.18,204.41 139.26,203.61 139.33,202.82 139.42,202.02 139.50,201.22 139.58,200.42 139.66,199.62 139.75,198.82 139.84,198.02 139.93,197.22 140.02,196.42 140.11,195.61 140.21,194.81 140.31,194.00 140.43,193.19 140.54,192.39 140.65,191.58 140.77,190.77 140.90,189.96 141.03,189.15 141.17,188.33 141.33,187.52 141.50,186.70 141.69,185.89 141.87,185.07 142.06,184.26 142.30,183.44 142.56,182.62 142.85,181.80 143.20,180.98 143.58,180.15 144.06,179.33 144.59,178.51 145.23,177.68 146.18,176.86 148.01,176.03 153.28,175.20 154.64,174.37 155.35,173.54 155.86,172.71 156.27,171.88 156.64,171.05 156.97,170.22 157.25,169.38 157.52,168.55 157.76,167.71 157.98,166.87 158.21,166.04 158.42,165.20 158.62,164.36 158.81,163.52 159.00,162.67 159.19,161.83 159.35,160.99 159.53,160.14 159.70,159.30 159.87,158.45 160.04,157.60 160.21,156.76 160.38,155.91 160.55,155.06 160.73,154.21 160.90,153.35 161.07,152.50 161.24,151.65 161.43,150.79 161.63,149.94 161.82,149.08 162.01,148.22 162.22,147.36 162.43,146.50 162.64,145.64 162.85,144.78 163.07,143.92 163.30,143.05 163.56,142.19 163.86,141.32 164.16,140.46 164.50,139.59 164.89,138.72 165.36,137.85 165.88,136.98 166.58,136.11 167.44,135.24 168.51,134.37 169.84,133.50 171.33,132.62 172.83,131.74 174.41,130.87 176.25,129.99 178.38,129.11 181.02,128.23 183.84,127.35 188.40,126.47 197.94,125.59 200.15,124.71 201.34,123.82 202.20,122.94 202.91,122.05 203.53,121.16 204.08,120.28 204.55,119.39 205.03,118.50 205.49,117.61 205.94,116.72 206.38,115.82 206.80,114.93 207.22,114.04 207.65,113.14 208.13,112.24 208.65,111.35 209.20,110.45 209.79,109.55 210.43,108.65 211.17,107.75 212.15,106.85 213.42,105.94 215.98,105.04 221.14,104.13 227.26,103.23 233.30,102.32 239.02,101.41 245.50,100.51 251.34,99.60 261.71,98.69 278.98,97.78 281.32,96.86 283.05,95.95 284.45,95.04 285.79,94.12 287.02,93.20 288.20,92.29 289.53,91.37 291.02,90.45 293.03,89.53 296.08,88.61 307.00,87.69 326.01,86.77 344.64,85.84 367.93,84.92 422.18,83.99 432.64,83.07 435.79,82.14 438.68,81.21 441.74,80.28 446.82,79.35 446.98,79.33 447.08,79.31 447.26,79.30 447.39,79.28 447.59,79.26 447.80,79.24 447.90,79.22 448.10,79.20 448.34,79.18 448.46,79.16 448.66,79.15 448.90,79.13 449.13,79.11 449.36,79.09 449.55,79.07 450.00,79.05 450.38,79.03 450.76,79.02 451.14,79.00 451.58,78.98 451.96,78.96 452.52,78.94 452.92,78.92 453.71,78.90 454.56,78.89 455.82,78.87 456.66,78.85 457.41,78.83 458.36,78.81 459.27,78.79 460.18,78.77 461.45,78.76 462.78,78.74 463.96,78.72 465.08,78.70 466.26,78.68 467.26,78.66 468.14,78.64 469.43,78.62 470.68,78.61 471.59,78.59 472.16,78.57 473.01,78.55 474.00,78.53 474.91,78.51 475.97,78.49 477.41,78.48 477.96,78.46 478.36,78.44 479.00,78.42 479.53,78.40 480.54,78.38 482.37,78.36 483.55,78.35 484.34,78.33 485.14,78.31 485.91,78.29 486.83,78.27 487.46,78.25 488.49,78.23 489.03,78.22 490.09,78.20 491.53,78.18 492.65,78.16 493.42,78.14 494.04,78.12 494.77,78.10 495.25,78.08 495.98,78.07 496.85,78.05 498.01,78.03 499.07,78.01 499.96,77.99 500.76,77.97 502.06,77.95 503.93,77.94 505.43,77.92 506.21,77.90 507.13,77.88 508.45,77.86 509.08,77.84 510.13,77.82 511.75,77.81 513.06,77.79 513.95,77.77 514.86,77.75 516.74,77.73 517.56,77.71 518.68,77.69 519.44,77.67 520.59,77.66 521.96,77.64 523.17,77.62 524.23,77.60 526.17,77.58 527.72,77.56 529.44,77.54 531.36,77.53 532.17,77.51 533.90,77.49 536.32,77.47 538.41,77.45 539.73,77.43 543.48,77.41 545.96,77.39 546.60,77.38 548.42,77.36 550.46,77.34 552.04,77.32 554.97,77.30 556.35,77.28 558.81,77.26 561.32,77.25 564.05,77.23 565.35,77.21 567.42,77.19 570.34,77.17 572.17,77.15 574.77,77.13 576.51,77.11 578.74,77.10 580.48,77.08 583.28,77.06 584.96,77.04 587.42,77.02 589.32,77.00 591.66,76.98 596.25,76.97 598.63,76.95 604.33,76.93 606.33,76.91 609.58,76.89 613.40,76.87 617.02,76.85 620.38,76.84 622.70,76.82 628.73,76.80 633.59,76.78 640.33,76.76 647.04,76.74 657.46,76.72 670.38,76.70 683.17,76.69 700.60,76.67 709.31,76.65 712.57,76.63 714.07,76.61 715.04,76.59 716.03,76.57 716.80,76.56 717.43,76.54 717.89,76.52 718.11,76.50 718.63,76.48 719.03,76.46 719.31,76.44 719.53,76.42 719.73,76.41 719.99,76.39 720.24,76.37 720.47,76.35 720.71,76.33 721.01,76.31 721.31,76.29 721.43,76.28 721.70,76.26 721.89,76.24 722.14,76.22 722.28,76.20 722.44,76.18 722.71,76.16 722.83,76.14 723.05,76.13 723.13,76.11 723.28,76.09 723.49,76.07 723.64,76.05 723.86,76.03 724.02,76.01 724.18,75.99 724.43,75.98 724.51,75.96 724.69,75.94 724.86,75.92 725.06,75.90 725.15,75.88 725.26,75.86 725.44,75.85 725.64,75.83 725.80,75.81 725.95,75.79 726.12,75.77 726.35,75.75 726.60,75.73 726.75,75.71 726.89,75.70 727.02,75.68 727.25,75.66 727.36,75.64 727.58,75.62 727.75,75.60 727.89,75.58 728.02,75.57 728.12,75.55 728.30,75.53 728.46,75.51 728.67,75.49 728.80,75.47 728.91,75.45 729.07,75.43 729.20,75.42 729.38,75.40 729.57,75.38 729.77,75.36 729.98,75.34 730.18,75.32 730.32,75.30 730.47,75.28 730.73,75.27 730.98,75.25 731.19,75.23 731.36,75.21 731.50,75.19 731.70,75.17 731.80,75.15 731.90,75.14 732.09,75.12 732.37,75.10 732.64,75.08 732.88,75.06 733.02,75.04 733.13,75.02 733.26,75.00 733.50,74.99 733.62,74.97 733.87,74.95 733.97,74.93 734.20,74.91 734.39,74.89 734.55,74.87 734.84,74.85 734.98,74.84 735.12,74.82 735.31,74.80 735.49,74.78 735.61,74.76 735.80,74.74 736.09,74.72 736.28,74.71 736.57,74.69 736.81,74.67 736.94,74.65 737.23,74.63 737.36,74.61 737.65,74.59 737.92,74.57 738.06,74.56 738.42,74.54 738.74,74.52 739.04,74.50 739.28,74.48 739.61,74.46 739.88,74.44 740.27,74.42 740.49,74.41 740.74,74.39 740.96,74.37 741.29,74.35 741.55,74.33 742.07,74.31 742.44,74.29 742.92,74.27 743.35,74.26 743.57,74.24 743.84,74.22 744.19,74.20 744.68,74.18 745.14,74.16 745.67,74.14 746.21,74.13 746.96,74.11 747.71,74.09 748.88,74.07 750.04,74.05 751.29,74.03 751.95,74.01 752.55,73.99 753.46,73.98 754.85,73.96 755.97,73.94 758.08,73.92 759.32,73.90 760.53,73.88 762.11,73.86 762.83,73.84 764.17,73.83 765.64,73.81 766.45,73.79 767.57,73.77 768.59,73.75 770.11,73.73 771.59,73.71 773.44,73.69 775.00,73.68 777.22,73.66 781.60,73.64 802.48,73.62 813.90,73.60 818.33,73.58 823.53,73.56 826.85,73.54 830.59,73.53 832.42,73.51 834.37,73.49 836.49,73.47 839.35,73.45 841.54,73.43 843.18,73.41 844.18,73.39 847.25,73.38 850.86,73.36 853.79,73.34 857.57,73.32 860.15,73.30 863.18,73.28 867.23,73.26 872.42,73.24 877.08,73.23 882.30,73.21 887.79,73.19 891.13,73.17 896.94,73.15 900.00,73.14" fill="none" stroke="#ff7f0e" stroke-width="2.0"/>
<text x="903.00" y="77.14" fill="#ff7f0e" font-size="13" font-weight="bold">▶</text>
<text x="917.00" y="77.14" fill="#ff7f0e" font-size="10">0.67%</text>
<rect x="86" y="514" width="90" height="20" fill="white" fill-opacity="0.85" stroke="#888"/>
<text x="92" y="528" font-weight="bold" fill="#ff7f0e">n = 2</text>
</svg>