<svg xmlns="http://www.w3.org/2000/svg" viewBox="0 0 960 600" font-family="Helvetica, Arial, sans-serif" font-size="12">
<rect width="100%" height="100%" fill="white"/>
<text x="480.0" y="22" text-anchor="middle" font-size="16" font-weight="bold">Chunking benefit: n = 16 parallel chunks (pointwise 95% bootstrap CI)</text>
<text x="480.0" y="40" text-anchor="middle" fill="#555">size=12500 kB, link=1000 Mbps, RTT=50 ms, p=1.00e-04</text>
<text x="480.0" y="56" text-anchor="middle" fill="#555">scenario=optimistic, runs=500000, bootstrap B=500; curve is F_chunk(t)^n</text>
<rect x="80" y="70" width="820" height="470" fill="#fafafa" stroke="#888"/>
<line x1="80.00" y1="70" x2="80.00" y2="540" stroke="#e0e0e0"/>
<text x="80.00" y="556" text-anchor="middle" fill="#333">0.000</text>
<line x1="182.50" y1="70" x2="182.50" y2="540" stroke="#e0e0e0"/>
<text x="182.50" y="556" text-anchor="middle" fill="#333">1.50</text>
<line x1="285.00" y1="70" x2="285.00" y2="540" stroke="#e0e0e0"/>
<text x="285.00" y="556" text-anchor="middle" fill="#333">3.00</text>
<line x1="387.50" y1="70" x2="387.50" y2="540" stroke="#e0e0e0"/>
<text x="387.50" y="556" text-anchor="middle" fill="#333">4.50</text>
<line x1="490.00" y1="70" x2="490.00" y2="540" stroke="#e0e0e0"/>
<text x="490.00" y="556" text-anchor="middle" fill="#333">6.00</text>
<line x1="592.50" y1="70" x2="592.50" y2="540" stroke="#e0e0e0"/>
<text x="592.50" y="556" text-anchor="middle" fill="#333">7.50</text>
<line x1="695.00" y1="70" x2="695.00" y2="540" stroke="#e0e0e0"/>
<text x="695.00" y="556" text-anchor="middle" fill="#333">9.00</text>
<line x1="797.50" y1="70" x2="797.50" y2="540" stroke="#e0e0e0"/>
<text x="797.50" y="556" text-anchor="middle" fill="#333">10.5</text>
<line x1="900.00" y1="70" x2="900.00" y2="540" stroke="#e0e0e0"/>
<text x="900.00" y="556" text-anchor="middle" fill="#333">12.0</text>
<line x1="80" y1="540.00" x2="900" y2="540.00" stroke="#e0e0e0"/>
<text x="72" y="544.00" text-anchor="end" fill="#333">0.90</text>
<line x1="80" y1="493.00" x2="900" y2="493.00" stroke="#e0e0e0"/>
<text x="72" y="497.00" text-anchor="end" fill="#333">0.91</text>
<line x1="80" y1="446.00" x2="900" y2="446.00" stroke="#e0e0e0"/>
<text x="72" y="450.00" text-anchor="end" fill="#333">0.92</text>
<line x1="80" y1="399.00" x2="900" y2="399.00" stroke="#e0e0e0"/>
<text x="72" y="403.00" text-anchor="end" fill="#333">0.93</text>
<line x1="80" y1="352.00" x2="900" y2="352.00" stroke="#e0e0e0"/>
<text x="72" y="356.00" text-anchor="end" fill="#333">0.94</text>
<line x1="80" y1="305.00" x2="900" y2="305.00" stroke="#e0e0e0"/>
<text x="72" y="309.00" text-anchor="end" fill="#333">0.95</text>
<line x1="80" y1="258.00" x2="900" y2="258.00" stroke="#e0e0e0"/>
<text x="72" y="262.00" text-anchor="end" fill="#333">0.96</text>
<line x1="80" y1="211.00" x2="900" y2="211.00" stroke="#e0e0e0"/>
<text x="72" y="215.00" text-anchor="end" fill="#333">0.97</text>
<line x1="80" y1="164.00" x2="900" y2="164.00" stroke="#e0e0e0"/>
<text x="72" y="168.00" text-anchor="end" fill="#333">0.98</text>
<line x1="80" y1="117.00" x2="900" y2="117.00" stroke="#e0e0e0"/>
<text x="72" y="121.00" text-anchor="end" fill="#333">0.99</text>
<line x1="80" y1="70.00" x2="900" y2="70.00" stroke="#e0e0e0"/>
<text x="72" y="74.00" text-anchor="end" fill="#333">1.00</text>
<line x1="80" y1="117.00" x2="900" y2="117.00" stroke="#888" stroke-width="1" stroke-dasharray="4,4"/>
<text x="894.00" y="113.00" text-anchor="end" fill="#555" font-style="italic">P99</text>
<text x="490.0" y="585" text-anchor="middle">Download time (seconds)</text>
<text transform="translate(20,305.0) rotate(-90)" text-anchor="middle">Cumulative probability  (whole-file)</text>
<polygon points="140.98,540.00 140.98,523.66 141.01,524.75 141.03,525.44 141.04,523.11 141.06,522.43 141.07,523.25 141.08,523.11 141.10,521.20 141.12,521.20 141.13,521.88 141.13,520.79 141.15,518.74 141.16,519.15 141.18,519.69 141.19,519.97 141.21,518.87 141.22,516.27 141.23,517.91 141.26,518.46 141.27,517.78 141.27,515.59 141.28,516.96 141.30,515.04 141.31,515.17 141.31,515.45 141.32,515.04 141.35,514.90 141.36,513.12 141.37,513.39 141.38,511.47 141.39,512.85 141.42,510.24 141.44,511.75 141.46,512.02 141.46,510.65 141.49,512.43 141.50,510.79 141.51,509.97 141.53,511.06 141.56,508.18 141.57,508.04 141.58,508.04 141.59,507.08 141.59,507.22 141.60,506.67 141.61,506.54 141.61,505.85 141.62,506.40 141.62,503.93 141.63,504.75 141.64,504.61 141.66,503.93 141.68,502.96 141.69,504.06 141.70,501.59 141.71,503.10 141.71,502.69 141.73,501.73 141.75,500.90 141.75,502.55 141.76,500.08 141.76,501.18 141.77,501.59 141.78,498.43 141.79,499.39 141.81,498.70 141.81,497.47 141.83,498.43 141.83,497.33 141.85,495.54 141.87,497.19 141.88,495.68 141.89,494.99 141.90,496.23 141.91,493.48 141.91,495.13 141.93,495.82 141.94,493.75 141.94,493.20 141.95,493.20 141.96,491.69 141.97,492.37 141.98,491.14 142.00,491.82 142.01,491.27 142.03,491.55 142.04,490.86 142.05,490.31 142.05,489.34 142.06,488.10 142.06,486.17 142.07,487.28 142.08,486.73 142.11,484.93 142.12,487.00 142.13,485.49 142.15,485.07 142.15,485.76 142.15,485.07 142.16,483.28 142.17,484.11 142.17,484.66 142.18,483.28 142.18,481.90 142.18,482.59 142.19,482.17 142.20,481.07 142.22,481.76 142.23,480.52 142.24,480.10 142.26,478.45 142.27,481.21 142.28,482.31 142.29,478.31 142.30,479.00 142.30,479.14 142.31,477.62 142.33,476.93 142.34,476.79 142.35,475.68 142.36,475.55 142.37,473.89 142.38,474.99 142.39,475.68 142.40,474.72 142.41,474.44 142.42,474.16 142.43,474.03 142.44,474.30 142.45,474.16 142.47,473.20 142.47,470.84 142.48,469.32 142.49,471.26 142.49,469.60 142.50,470.43 142.51,468.49 142.52,468.49 142.53,467.94 142.54,467.94 142.55,467.11 142.57,468.08 142.58,466.97 142.59,467.25 142.59,465.31 142.60,467.66 142.61,466.14 142.61,465.58 142.62,463.23 142.63,463.92 142.63,464.48 142.65,465.45 142.66,462.81 142.67,462.26 142.68,462.40 142.69,461.70 142.70,460.46 142.70,461.70 142.71,461.43 142.71,460.87 142.72,459.35 142.74,461.01 142.74,459.07 142.74,459.49 142.76,458.93 142.76,457.41 142.77,457.41 142.77,457.13 142.78,455.60 142.80,454.35 142.81,456.99 142.82,455.46 142.83,455.88 142.83,454.91 142.85,456.02 142.85,454.07 142.86,452.27 142.86,453.38 142.87,452.27 142.90,453.24 142.90,451.16 142.91,451.30 142.92,451.44 142.93,449.21 142.94,451.02 142.94,449.21 142.94,447.96 142.95,447.54 142.96,448.10 142.97,446.99 142.97,447.82 142.98,446.29 142.99,447.27 142.99,446.99 143.01,445.88 143.01,446.43 143.02,444.76 143.03,445.74 143.03,443.79 143.04,442.40 143.05,444.21 143.06,443.93 143.06,442.95 143.07,442.40 143.08,441.98 143.09,441.84 143.09,441.70 143.10,441.70 143.11,440.17 143.11,440.17 143.12,439.61 143.13,440.45 143.15,437.24 143.15,435.71 143.16,437.52 143.17,436.55 143.19,436.13 143.19,436.96 143.20,436.13 143.21,436.83 143.21,433.76 143.22,436.27 143.22,433.48 143.23,433.34 143.23,434.87 143.24,433.48 143.25,431.53 143.25,431.81 143.26,431.39 143.27,431.39 143.28,429.15 143.28,429.85 143.29,428.73 143.30,431.81 143.30,430.13 143.31,429.43 143.31,428.87 143.32,429.01 143.32,427.90 143.33,427.62 143.34,426.92 143.35,427.62 143.35,427.06 143.35,426.64 143.36,425.10 143.36,423.99 143.37,424.96 143.37,424.96 143.38,424.27 143.39,423.85 143.39,422.59 143.40,423.01 143.41,421.89 143.42,420.91 143.42,421.61 143.43,420.21 143.43,420.77 143.44,419.23 143.45,419.09 143.46,419.23 143.46,418.95 143.46,417.27 143.47,416.85 143.48,418.39 143.49,416.99 143.49,417.13 143.51,417.55 143.51,414.89 143.51,415.31 143.52,415.03 143.52,415.31 143.53,414.75 143.53,413.63 143.54,412.79 143.54,412.65 143.55,413.49 143.56,412.37 143.57,412.09 143.59,410.55 143.60,408.87 143.61,409.71 143.62,410.41 143.63,410.13 143.64,409.85 143.65,408.59 143.66,408.87 143.67,409.01 143.67,407.32 143.68,407.18 143.70,408.03 143.70,407.32 143.71,406.62 143.73,406.62 143.73,403.68 143.75,405.64 143.75,405.50 143.76,402.69 143.77,404.38 143.78,404.24 143.79,403.26 143.80,403.82 143.80,401.15 143.80,400.03 143.81,401.43 143.82,399.32 143.82,400.73 143.83,401.43 143.83,399.32 143.84,398.48 143.85,399.18 143.85,398.06 143.85,397.92 143.86,396.65 143.87,395.53 143.88,398.20 143.88,396.93 143.88,396.09 143.90,394.40 143.91,394.68 143.91,393.70 143.92,394.12 143.93,393.56 143.93,391.03 143.94,392.72 143.95,389.90 143.96,391.73 143.97,391.59 143.97,390.75 143.98,392.57 143.98,390.18 143.99,387.93 143.99,389.34 144.00,389.06 144.01,388.63 144.01,389.06 144.01,387.65 144.02,385.82 144.03,386.80 144.04,387.65 144.05,386.66 144.05,387.08 144.06,385.82 144.07,384.41 144.07,384.69 144.08,383.84 144.11,382.57 144.12,383.42 144.13,382.72 144.14,384.27 144.14,382.15 144.15,380.60 144.16,382.15 144.18,379.75 144.18,381.16 144.19,379.61 144.20,377.64 144.21,380.46 144.21,378.62 144.22,377.78 144.23,378.48 144.24,377.21 144.25,377.64 144.26,375.38 144.27,377.35 144.27,377.21 144.28,375.80 144.29,375.66 144.30,374.95 144.30,373.12 144.31,374.81 144.32,374.67 144.33,372.13 144.34,372.98 144.35,371.14 144.35,372.13 144.37,371.85 144.38,370.29 144.38,371.42 144.39,368.45 144.40,369.58 144.41,369.73 144.42,368.88 144.42,367.60 144.43,369.02 144.44,368.74 144.45,367.32 144.46,365.91 144.47,367.04 144.48,366.05 144.48,365.62 144.50,365.06 144.51,365.91 144.51,363.92 144.53,364.92 144.54,363.22 144.55,363.50 144.56,362.93 144.57,362.23 144.58,361.52 144.58,360.81 144.59,361.09 144.60,361.94 144.61,360.24 144.62,360.24 144.63,359.82 144.63,358.68 144.65,357.98 144.65,358.83 144.66,357.98 144.67,356.84 144.67,356.98 144.68,356.84 144.69,355.42 144.70,355.14 144.72,355.85 144.72,354.57 144.72,355.71 144.73,353.15 144.74,353.72 144.75,352.73 144.76,351.59 144.79,352.02 144.79,352.16 144.81,351.45 144.81,351.02 144.82,350.88 144.83,350.60 144.84,350.17 144.85,348.61 144.86,349.32 144.87,349.04 144.88,347.76 144.90,347.47 144.91,347.19 144.92,346.62 144.93,345.91 144.94,345.20 144.94,345.49 144.95,345.77 144.97,343.64 144.98,345.63 144.98,342.78 145.00,343.64 145.01,343.64 145.02,342.64 145.03,343.07 145.04,341.65 145.05,341.50 145.06,340.22 145.07,340.51 145.08,338.80 145.09,339.51 145.10,339.37 145.11,339.51 145.11,337.38 145.12,337.95 145.13,337.52 145.14,336.67 145.15,336.52 145.15,336.38 145.17,336.24 145.18,334.96 145.20,335.53 145.20,334.96 145.22,333.25 145.22,333.10 145.23,331.96 145.24,333.82 145.25,333.25 145.28,332.96 145.30,331.82 145.31,331.54 145.32,332.25 145.33,331.39 145.34,329.68 145.34,329.83 145.35,329.26 145.36,327.83 145.39,328.69 145.40,328.54 145.40,327.83 145.41,327.26 145.42,326.97 145.44,326.55 145.44,326.69 145.47,325.40 145.48,324.98 145.50,324.69 145.52,325.26 145.54,323.26 145.55,323.12 145.57,321.69 145.58,322.26 145.60,321.98 145.61,323.26 145.63,320.69 145.64,320.69 145.65,320.83 145.65,319.98 145.67,319.12 145.68,318.12 145.70,319.55 145.72,317.83 145.74,318.26 145.76,317.12 145.79,317.55 145.82,316.26 145.83,316.55 145.84,316.12 145.84,314.97 145.85,314.54 145.87,314.97 145.90,313.69 145.93,314.69 145.95,313.11 145.97,313.40 145.98,314.69 146.00,312.54 146.01,312.11 146.02,311.11 146.03,311.83 146.04,310.54 146.05,310.39 146.07,310.11 146.08,309.25 146.11,308.68 146.13,308.25 146.15,307.82 146.18,306.96 146.21,307.53 146.21,305.95 146.22,306.53 146.25,305.24 146.26,305.95 146.27,303.80 146.29,304.52 146.31,304.52 146.33,303.66 146.34,303.66 146.40,302.94 146.41,302.66 146.43,302.66 146.45,302.37 146.45,301.37 146.50,299.93 146.53,299.50 146.55,300.65 146.58,300.22 146.63,298.78 146.64,298.06 146.66,298.64 146.70,296.63 146.74,298.35 146.78,296.05 146.81,295.48 146.85,295.77 146.89,295.05 146.96,296.05 146.98,294.04 147.02,293.90 147.05,294.19 147.12,293.47 147.14,293.04 147.16,292.75 147.21,293.18 147.25,291.60 147.29,290.88 147.35,290.02 147.36,291.31 147.37,291.17 147.41,289.16 147.46,289.44 147.56,289.16 147.68,289.01 147.76,287.72 147.87,285.99 148.03,288.01 148.21,287.14 148.32,286.14 148.40,285.56 148.55,284.55 148.96,284.55 149.46,284.55 149.73,284.84 149.89,284.55 150.35,282.82 151.61,281.82 153.26,281.10 153.41,281.82 154.50,280.81 155.87,280.23 156.92,281.67 158.27,281.24 159.90,281.24 160.32,279.22 160.90,278.65 161.24,278.79 162.96,278.36 163.57,277.35 168.12,277.78 171.01,276.05 172.35,276.63 172.66,275.91 181.97,275.33 183.35,275.04 183.84,275.76 184.08,274.75 184.27,273.60 184.51,273.45 184.62,273.89 185.16,272.59 185.26,271.72 185.29,272.88 185.43,270.86 185.58,270.42 185.67,269.99 185.77,271.29 185.87,269.56 185.91,268.84 186.00,268.69 186.10,269.56 186.14,268.98 186.20,267.97 186.26,267.97 186.32,266.09 186.41,266.38 186.43,265.80 186.49,265.95 186.53,264.50 186.58,264.79 186.62,263.49 186.69,264.21 186.77,263.05 186.80,263.92 186.83,262.77 186.87,261.75 186.88,262.33 186.90,261.03 186.93,260.74 187.05,260.02 187.07,258.86 187.08,260.60 187.09,258.86 187.11,259.73 187.14,259.58 187.15,257.85 187.18,258.57 187.22,257.99 187.23,256.98 187.25,256.25 187.35,255.82 187.39,257.27 187.47,255.38 187.49,254.52 187.52,253.79 187.54,253.07 187.63,253.94 187.65,252.05 187.66,252.78 187.69,251.91 187.71,252.34 187.74,251.47 187.78,251.04 187.85,249.59 187.90,250.02 187.95,249.59 187.97,248.43 187.98,248.28 188.01,247.12 188.05,248.43 188.10,247.12 188.13,247.99 188.15,246.69 188.20,246.11 188.30,245.38 188.31,246.11 188.34,243.78 188.37,244.80 188.41,243.64 188.44,243.20 188.48,243.78 188.50,241.90 188.53,241.90 188.55,241.75 188.60,242.48 188.62,241.03 188.65,241.61 188.68,239.86 188.71,240.30 188.73,239.86 188.76,238.56 188.77,238.26 188.78,238.41 188.81,238.12 188.84,238.56 188.86,237.39 188.92,236.81 188.93,236.08 188.95,235.94 188.97,235.21 188.99,234.48 189.01,234.34 189.03,233.76 189.06,234.48 189.08,234.19 189.09,232.59 189.14,231.86 189.18,231.28 189.19,231.72 189.20,231.14 189.21,230.85 189.24,230.41 189.26,229.97 189.30,230.70 189.34,227.93 189.37,228.23 189.39,228.23 189.42,226.19 189.44,228.52 189.46,225.89 189.47,226.62 189.49,225.60 189.54,225.17 189.55,225.02 189.57,224.58 189.58,224.44 189.58,224.44 189.61,223.12 189.64,223.27 189.66,223.12 189.67,222.83 189.73,221.52 189.73,221.23 189.76,221.23 189.77,221.23 189.82,219.77 189.82,220.21 189.85,219.77 189.91,218.60 189.95,218.75 190.00,217.44 190.02,217.44 190.05,216.56 190.08,216.85 190.09,215.83 190.10,216.56 190.11,215.10 190.13,215.68 190.16,214.37 190.19,214.22 190.21,213.49 190.26,213.20 190.28,213.20 190.31,212.62 190.38,211.15 190.42,211.45 190.44,210.72 190.45,211.15 190.51,210.13 190.52,209.40 190.56,209.69 190.59,209.11 190.62,208.82 190.65,208.67 190.70,207.21 190.71,206.91 190.72,205.60 190.77,206.62 190.79,205.60 190.82,205.89 190.86,205.30 190.90,204.28 190.94,204.57 190.96,204.57 190.96,203.69 190.99,202.08 191.00,202.67 191.06,202.52 191.08,201.79 191.10,201.21 191.10,200.77 191.12,200.77 191.13,200.18 191.16,198.86 191.18,199.74 191.21,198.42 191.23,198.57 191.26,197.98 191.28,197.84 191.28,196.96 191.33,196.52 191.35,196.37 191.38,196.08 191.40,195.34 191.42,193.44 191.42,194.32 191.44,194.46 191.47,194.02 191.49,193.44 191.50,193.29 191.56,193.00 191.57,192.70 191.61,191.09 191.64,191.53 191.67,190.35 191.68,190.50 191.70,190.65 191.74,188.89 191.75,189.03 191.79,188.15 191.83,188.15 191.85,186.54 191.89,187.71 191.91,186.68 191.95,186.24 191.96,185.66 191.99,185.80 191.99,184.92 192.01,184.48 192.03,185.36 192.05,183.89 192.10,183.16 192.13,183.01 192.15,182.86 192.17,181.69 192.21,182.42 192.26,181.54 192.27,180.66 192.30,180.36 192.35,179.92 192.45,178.89 192.48,178.89 192.51,179.63 192.52,177.72 192.56,177.72 192.57,176.98 192.59,177.42 192.62,176.24 192.66,175.95 192.70,175.07 192.78,174.48 192.83,174.48 192.90,174.48 192.92,173.00 192.94,173.30 192.96,173.59 193.06,172.27 193.07,172.86 193.12,172.41 193.13,171.38 193.16,171.68 193.19,169.61 193.22,169.76 193.26,169.32 193.27,169.32 193.30,168.73 193.31,167.84 193.32,168.29 193.36,167.40 193.40,167.26 193.40,167.11 193.44,166.37 193.46,166.08 193.53,165.19 193.60,165.04 193.64,164.60 193.67,164.45 193.72,163.86 193.77,164.01 193.78,162.68 193.82,162.24 193.84,161.80 193.90,161.94 193.93,161.35 193.98,161.06 194.03,160.17 194.06,159.58 194.07,159.73 194.11,159.58 194.17,157.95 194.20,158.69 194.25,156.62 194.33,157.81 194.36,156.33 194.44,155.89 194.46,156.03 194.62,155.59 194.68,154.41 194.78,154.85 194.84,154.70 194.91,153.82 194.99,153.37 195.07,153.08 195.17,153.37 195.23,152.04 195.43,152.04 195.54,150.86 195.58,150.41 195.65,150.86 195.72,149.23 195.79,149.38 195.80,149.67 195.81,149.08 196.00,148.79 196.18,147.30 196.24,148.19 196.42,147.30 196.78,146.86 197.01,145.68 197.23,145.97 197.46,145.53 197.69,145.68 197.80,144.49 198.90,143.90 199.43,144.19 201.57,144.05 203.80,142.56 207.31,142.86 208.99,141.38 212.51,142.27 215.40,140.93 217.17,141.08 220.03,140.49 229.19,139.30 231.90,139.45 240.83,137.67 259.20,138.86 277.97,138.12 278.58,137.52 279.02,137.52 280.23,137.37 280.94,136.48 281.25,136.78 281.44,135.59 281.54,135.74 281.70,135.15 281.88,134.26 281.98,134.11 282.10,133.66 282.27,133.22 282.45,132.47 282.49,132.18 282.55,131.58 282.75,131.43 282.83,130.69 282.97,130.54 283.10,130.54 283.20,130.10 283.35,129.35 283.39,128.17 283.43,128.31 283.63,128.61 283.76,127.72 283.84,127.12 284.00,127.27 284.03,126.68 284.23,125.19 284.32,124.89 284.47,124.60 284.52,124.60 284.58,124.15 284.61,123.85 284.71,123.11 284.89,122.81 284.96,122.51 285.03,122.07 285.07,121.17 285.13,121.02 285.16,121.02 285.20,120.43 285.24,119.98 285.35,119.09 285.39,119.09 285.43,118.20 285.47,118.05 285.52,118.20 285.57,117.30 285.60,117.00 285.62,117.00 285.68,116.11 285.75,115.22 285.86,115.81 285.87,114.92 285.89,114.02 285.95,114.32 285.97,114.17 286.02,113.28 286.07,112.98 286.10,112.38 286.18,111.79 286.39,111.49 286.45,111.19 286.49,110.44 286.54,110.15 286.57,109.85 286.64,109.25 286.67,109.40 286.74,108.50 286.82,108.06 286.83,107.46 286.93,107.16 286.95,107.61 287.01,105.97 287.02,106.12 287.04,105.22 287.07,104.77 287.17,104.62 287.28,103.73 287.40,103.88 287.46,103.73 287.48,102.98 287.52,102.83 287.57,102.23 287.59,101.48 287.61,101.34 287.76,101.34 287.78,100.89 287.85,100.14 287.87,99.84 287.94,99.09 287.97,98.79 288.06,98.49 288.07,97.75 288.18,97.45 288.21,96.85 288.31,96.85 288.39,96.40 288.42,95.95 288.51,95.80 288.52,94.90 288.56,94.90 288.59,94.75 288.64,94.01 288.72,93.71 288.78,93.41 288.90,92.51 289.00,91.76 289.07,91.46 289.14,91.01 289.19,91.16 289.24,90.86 289.29,89.81 289.37,89.81 289.49,89.36 289.53,88.32 289.56,88.76 289.70,87.72 289.72,87.72 289.86,87.12 290.00,86.52 290.11,86.37 290.20,86.07 290.33,85.47 290.37,85.17 290.43,84.42 290.44,84.12 290.56,84.12 290.63,83.37 290.71,83.37 290.73,82.77 290.97,82.17 291.03,82.02 291.21,81.42 291.54,81.27 291.69,80.52 291.80,80.52 291.84,79.92 292.00,79.62 292.16,79.02 292.25,78.72 292.34,78.42 292.42,77.96 292.48,77.66 292.58,77.06 292.72,76.61 292.81,76.31 293.01,76.16 293.12,75.56 293.24,75.26 293.41,74.66 293.54,74.21 293.75,74.06 293.85,73.61 294.15,73.31 294.72,72.86 295.12,72.41 297.86,72.11 312.51,71.80 323.62,71.50 332.34,71.05 335.14,70.75 341.06,70.45 349.92,70.15 378.77,70.00 385.51,70.00 900.00,70.00 900.00,70.00 385.51,70.00 378.77,70.75 349.92,71.50 341.06,72.11 335.14,72.71 332.34,73.31 323.62,73.76 312.51,74.36 297.86,74.81 295.12,75.41 294.72,76.01 294.15,76.61 293.85,77.06 293.75,77.66 293.54,77.96 293.41,78.72 293.24,79.47 293.12,79.62 293.01,80.37 292.81,80.67 292.72,81.12 292.58,81.87 292.48,82.32 292.42,82.62 292.34,83.07 292.25,83.82 292.16,83.97 292.00,84.57 291.84,85.02 291.80,85.92 291.69,86.07 291.54,87.12 291.21,86.82 291.03,88.17 290.97,88.17 290.73,88.61 290.71,88.91 290.63,89.81 290.56,90.41 290.44,90.41 290.43,90.86 290.37,91.46 290.33,92.21 290.20,92.66 290.11,93.41 290.00,94.16 289.86,93.86 289.72,94.31 289.70,95.05 289.56,95.80 289.53,95.95 289.49,96.40 289.37,97.00 289.29,97.75 289.24,97.90 289.19,98.64 289.14,98.49 289.07,99.24 289.00,99.84 288.90,100.29 288.78,101.04 288.72,101.78 288.64,101.63 288.59,102.08 288.56,102.98 288.52,102.98 288.51,103.58 288.42,104.47 288.39,104.62 288.31,105.07 288.21,105.37 288.18,106.12 288.07,106.41 288.06,107.31 287.97,107.46 287.94,107.76 287.87,108.21 287.85,109.25 287.78,109.85 287.76,109.85 287.61,110.44 287.59,111.19 287.57,111.49 287.52,111.19 287.48,112.38 287.46,112.53 287.40,113.43 287.28,113.87 287.17,113.87 287.07,114.47 287.04,115.22 287.02,115.66 287.01,116.56 286.95,116.56 286.93,117.00 286.83,117.30 286.82,117.90 286.74,118.34 286.67,118.79 286.64,119.68 286.57,119.09 286.54,120.73 286.49,120.88 286.45,121.47 286.39,121.77 286.18,122.81 286.10,123.11 286.07,123.70 286.02,123.85 285.97,123.70 285.95,124.60 285.89,125.64 285.87,125.19 285.86,126.68 285.75,126.23 285.68,126.23 285.62,126.83 285.60,128.02 285.57,128.02 285.52,128.31 285.47,129.21 285.43,130.25 285.39,130.39 285.35,130.54 285.24,130.54 285.20,131.43 285.16,132.18 285.13,132.62 285.07,132.62 285.03,132.77 284.96,133.37 284.89,135.00 284.71,134.11 284.61,135.15 284.58,136.48 284.52,136.33 284.47,136.48 284.32,136.93 284.23,137.23 284.03,138.12 284.00,138.71 283.84,139.15 283.76,139.45 283.63,139.75 283.43,140.04 283.39,140.78 283.35,140.93 283.20,141.97 283.10,142.56 282.97,142.86 282.83,143.45 282.75,143.45 282.55,144.79 282.49,144.93 282.45,144.64 282.27,145.68 282.10,146.27 281.98,146.27 281.88,147.90 281.70,147.45 281.54,147.90 281.44,148.49 281.25,148.79 280.94,149.23 280.23,150.27 279.02,150.41 278.58,150.56 277.97,151.30 259.20,151.15 240.83,152.34 231.90,152.78 229.19,152.48 220.03,154.41 217.17,153.82 215.40,154.70 212.51,155.59 208.99,155.00 207.31,155.59 203.80,156.62 201.57,156.92 199.43,157.36 198.90,157.66 197.80,157.07 197.69,157.22 197.46,159.14 197.23,159.73 197.01,159.73 196.78,160.32 196.42,160.32 196.24,160.91 196.18,161.50 196.00,162.39 195.81,162.09 195.80,163.71 195.79,163.12 195.72,163.71 195.65,164.30 195.58,164.75 195.54,165.19 195.43,166.08 195.23,167.26 195.17,166.37 195.07,168.14 194.99,167.55 194.91,168.29 194.84,168.88 194.78,170.65 194.68,169.17 194.62,169.91 194.46,171.24 194.44,170.94 194.36,171.38 194.33,172.27 194.25,171.97 194.20,172.41 194.17,173.15 194.11,173.30 194.07,173.45 194.06,174.18 194.03,174.92 193.98,174.92 193.93,175.65 193.90,176.83 193.84,177.72 193.82,177.42 193.78,177.57 193.77,178.60 193.72,178.89 193.67,179.48 193.64,179.63 193.60,180.66 193.53,180.07 193.46,180.22 193.44,180.80 193.40,181.83 193.40,183.01 193.36,182.57 193.32,183.75 193.31,183.01 193.30,184.04 193.27,185.07 193.26,184.92 193.22,186.24 193.19,186.10 193.16,187.27 193.13,187.12 193.12,186.98 193.07,187.57 193.06,188.59 192.96,189.33 192.94,188.30 192.92,189.77 192.90,189.91 192.83,191.38 192.78,190.21 192.70,190.94 192.66,192.56 192.62,192.85 192.59,193.14 192.57,193.58 192.56,194.02 192.52,195.64 192.51,194.02 192.48,195.64 192.45,196.22 192.35,195.64 192.30,197.10 192.27,196.52 192.26,197.25 192.21,197.98 192.17,199.15 192.15,199.45 192.13,198.42 192.10,200.03 192.05,201.06 192.03,200.77 192.01,201.06 191.99,201.50 191.99,201.94 191.96,201.50 191.95,202.96 191.91,203.99 191.89,204.57 191.85,203.40 191.83,204.72 191.79,205.16 191.75,205.45 191.74,205.89 191.70,206.62 191.68,206.91 191.67,206.77 191.64,207.94 191.61,208.38 191.57,209.98 191.56,209.69 191.50,208.67 191.49,210.13 191.47,210.57 191.44,212.18 191.42,212.03 191.42,212.62 191.40,211.74 191.38,212.47 191.35,213.49 191.33,215.25 191.28,214.37 191.28,214.81 191.26,216.41 191.23,215.68 191.21,216.56 191.18,217.29 191.16,217.00 191.13,217.00 191.12,218.02 191.10,217.44 191.10,218.46 191.08,219.77 191.06,218.89 191.00,219.48 190.99,220.21 190.96,221.52 190.96,220.94 190.94,222.54 190.90,221.67 190.86,222.83 190.82,222.98 190.79,224.87 190.77,223.71 190.72,225.17 190.71,224.29 190.70,225.60 190.65,226.04 190.62,225.75 190.59,227.35 190.56,228.66 190.52,228.37 190.51,228.52 190.45,227.79 190.44,229.24 190.42,229.10 190.38,229.54 190.31,229.54 190.28,231.57 190.26,230.55 190.21,230.70 190.19,232.74 190.16,232.59 190.13,233.76 190.11,234.48 190.10,233.61 190.09,234.77 190.08,234.92 190.05,235.94 190.02,235.07 190.00,236.67 189.95,236.81 189.91,236.67 189.85,237.68 189.82,239.28 189.82,237.25 189.77,239.14 189.76,239.72 189.73,240.44 189.73,240.73 189.67,240.44 189.66,241.03 189.64,241.90 189.61,242.19 189.58,243.06 189.58,244.07 189.57,244.07 189.55,243.64 189.54,244.22 189.49,244.51 189.47,245.09 189.46,245.53 189.44,247.85 189.42,247.56 189.39,247.41 189.37,246.98 189.34,248.14 189.30,249.73 189.26,248.86 189.24,250.02 189.21,249.44 189.20,251.04 189.19,251.33 189.18,251.04 189.14,251.47 189.09,251.33 189.08,252.92 189.06,253.36 189.03,252.92 189.01,253.79 188.99,253.94 188.97,255.10 188.95,255.38 188.93,255.24 188.92,256.83 188.86,256.83 188.84,257.41 188.81,256.25 188.78,257.70 188.77,259.29 188.76,257.27 188.73,258.71 188.71,258.86 188.68,260.02 188.65,261.32 188.62,260.89 188.60,262.33 188.55,261.32 188.53,262.04 188.50,263.34 188.48,263.34 188.44,264.79 188.41,264.21 188.37,265.22 188.34,264.93 188.31,265.37 188.30,265.80 188.20,266.52 188.15,267.10 188.13,266.52 188.10,266.81 188.05,268.55 188.01,268.40 187.98,268.69 187.97,269.12 187.95,270.57 187.90,270.86 187.85,270.71 187.78,271.72 187.74,271.58 187.71,272.30 187.69,272.59 187.66,273.74 187.65,273.45 187.63,274.46 187.54,274.18 187.52,275.47 187.49,275.76 187.47,275.47 187.39,275.76 187.35,276.63 187.25,276.63 187.23,277.20 187.22,277.49 187.18,278.65 187.15,277.93 187.14,278.50 187.11,279.08 187.09,280.09 187.08,279.80 187.07,280.52 187.05,281.10 186.93,281.38 186.90,282.39 186.88,282.54 186.87,283.69 186.83,283.69 186.80,283.69 186.77,285.27 186.69,285.42 186.62,285.56 186.58,285.56 186.53,285.99 186.49,287.57 186.43,287.43 186.41,286.71 186.32,287.72 186.26,288.72 186.20,288.29 186.14,289.30 186.10,288.72 186.00,290.16 185.91,290.16 185.87,291.17 185.77,292.46 185.67,291.89 185.58,293.04 185.43,292.61 185.29,294.19 185.26,293.18 185.16,294.33 184.62,294.04 184.51,295.48 184.27,296.34 184.08,295.48 183.84,296.05 183.35,296.05 181.97,297.20 172.66,298.64 172.35,297.63 171.01,299.36 168.12,298.93 163.57,300.50 162.96,300.07 161.24,300.22 160.90,300.65 160.32,301.08 159.90,301.51 158.27,302.23 156.92,302.51 155.87,303.09 154.50,303.37 153.41,303.80 153.26,305.38 151.61,305.52 150.35,305.67 149.89,305.09 149.73,305.52 149.46,306.53 148.96,307.39 148.55,306.81 148.40,307.96 148.32,308.39 148.21,309.82 148.03,310.39 147.87,309.25 147.76,310.25 147.68,311.25 147.56,310.97 147.46,312.11 147.41,311.97 147.37,312.83 147.36,311.83 147.35,314.11 147.29,315.69 147.25,313.83 147.21,313.83 147.16,315.69 147.14,315.40 147.12,315.55 147.05,315.83 147.02,316.69 146.98,316.69 146.96,317.69 146.89,319.41 146.85,317.69 146.81,317.69 146.78,318.98 146.74,320.98 146.70,320.26 146.66,319.83 146.64,321.26 146.63,322.26 146.58,322.55 146.55,322.55 146.53,323.26 146.50,325.26 146.45,323.98 146.45,324.12 146.43,325.26 146.41,325.26 146.40,324.40 146.34,326.12 146.33,326.83 146.31,326.97 146.29,327.83 146.27,327.40 146.26,328.26 146.25,328.11 146.22,329.40 146.21,328.11 146.21,330.82 146.18,330.54 146.15,330.54 146.13,330.25 146.11,333.25 146.08,331.68 146.07,332.39 146.05,333.10 146.04,333.67 146.03,334.81 146.02,335.38 146.01,335.38 146.00,335.67 145.98,335.24 145.97,336.67 145.95,337.95 145.93,337.38 145.90,337.52 145.87,339.23 145.85,339.37 145.84,338.37 145.84,338.94 145.83,339.80 145.82,340.08 145.79,339.51 145.76,339.80 145.74,340.79 145.72,341.65 145.70,342.22 145.68,341.36 145.67,342.36 145.65,343.78 145.65,344.49 145.64,343.64 145.63,344.21 145.61,346.34 145.60,345.34 145.58,346.48 145.57,346.05 145.55,345.77 145.54,347.47 145.52,347.90 145.50,347.90 145.48,349.46 145.47,349.75 145.44,349.75 145.44,351.17 145.42,350.31 145.41,350.03 145.40,352.30 145.40,351.02 145.39,352.44 145.36,353.44 145.35,353.01 145.34,353.15 145.34,354.29 145.33,354.29 145.32,354.57 145.31,355.42 145.30,355.71 145.28,355.99 145.25,357.27 145.24,357.27 145.23,356.70 145.22,357.41 145.22,358.26 145.20,359.68 145.20,359.82 145.18,360.95 145.17,359.68 145.15,360.24 145.15,360.67 145.14,362.08 145.13,361.52 145.12,361.38 145.11,363.92 145.11,361.94 145.10,363.36 145.09,364.49 145.08,366.05 145.07,366.47 145.06,366.19 145.05,368.74 145.04,365.91 145.03,366.61 145.02,367.89 145.01,366.90 145.00,367.32 144.98,368.59 144.98,370.29 144.97,369.44 144.95,368.31 144.94,369.02 144.94,370.71 144.93,371.28 144.92,370.01 144.91,371.85 144.90,371.85 144.88,371.85 144.87,372.83 144.86,375.09 144.85,373.12 144.84,374.39 144.83,375.24 144.82,377.35 144.81,376.08 144.81,376.08 144.79,377.35 144.79,375.66 144.76,377.07 144.75,378.34 144.74,377.92 144.73,378.91 144.72,379.19 144.72,380.04 144.72,380.04 144.70,380.60 144.69,380.74 144.68,381.30 144.67,380.04 144.67,382.01 144.66,381.59 144.65,383.84 144.65,383.56 144.63,385.25 144.63,383.56 144.62,384.97 144.61,384.27 144.60,383.70 144.59,386.80 144.58,384.83 144.58,385.96 144.57,386.80 144.56,388.77 144.55,388.07 144.54,387.93 144.53,388.91 144.51,388.91 144.51,389.48 144.50,390.46 144.48,389.62 144.48,391.45 144.47,390.75 144.46,391.87 144.45,392.72 144.44,392.72 144.43,392.72 144.42,393.14 144.42,393.56 144.41,394.40 144.40,394.26 144.39,395.11 144.38,396.79 144.38,397.78 144.37,397.36 144.35,395.95 144.35,397.64 144.34,398.48 144.33,397.50 144.32,399.74 144.31,400.03 144.30,399.89 144.30,398.90 144.29,400.73 144.28,400.31 144.27,403.12 144.27,402.41 144.26,402.55 144.25,402.55 144.24,404.38 144.23,403.96 144.22,404.94 144.21,406.48 144.21,405.50 144.20,404.94 144.19,405.22 144.18,405.36 144.18,406.90 144.16,407.61 144.15,407.32 144.14,408.17 144.14,408.31 144.13,410.27 144.12,408.17 144.11,408.59 144.08,410.55 144.07,409.29 144.07,409.57 144.06,411.95 144.05,412.51 144.05,413.77 144.04,412.79 144.03,411.53 144.02,413.77 144.01,416.01 144.01,415.31 144.01,414.33 144.00,414.47 143.99,416.85 143.99,416.43 143.98,416.43 143.98,416.15 143.97,417.27 143.97,417.41 143.96,417.55 143.95,420.35 143.94,418.53 143.93,419.51 143.93,421.33 143.92,421.19 143.91,420.91 143.91,424.13 143.90,421.33 143.88,421.33 143.88,421.89 143.88,423.71 143.87,423.71 143.86,423.57 143.85,424.27 143.85,425.38 143.85,424.54 143.84,425.94 143.83,425.10 143.83,425.24 143.82,426.92 143.82,427.34 143.81,428.04 143.80,427.20 143.80,428.87 143.80,427.20 143.79,428.32 143.78,431.81 143.77,431.67 143.76,431.94 143.75,430.83 143.75,432.22 143.73,432.08 143.73,432.08 143.71,433.20 143.70,432.64 143.70,434.18 143.68,434.46 143.67,435.15 143.67,434.46 143.66,435.43 143.65,436.55 143.64,436.83 143.63,436.13 143.62,437.10 143.61,438.36 143.60,438.36 143.59,439.47 143.57,439.05 143.56,439.61 143.55,438.64 143.54,438.92 143.54,440.45 143.53,441.14 143.53,440.73 143.52,441.70 143.52,442.81 143.51,442.40 143.51,442.81 143.51,444.62 143.49,444.07 143.49,445.04 143.48,446.71 143.47,444.90 143.46,445.32 143.46,445.32 143.46,446.71 143.45,447.54 143.44,448.38 143.43,448.10 143.43,447.96 143.42,448.10 143.42,448.66 143.41,449.07 143.40,451.44 143.39,450.60 143.39,451.16 143.38,451.30 143.37,450.32 143.37,452.13 143.36,451.30 143.36,452.13 143.35,452.55 143.35,454.07 143.35,453.66 143.34,454.35 143.33,457.96 143.32,454.49 143.32,457.68 143.31,456.30 143.31,456.85 143.30,456.71 143.30,459.07 143.29,456.85 143.28,457.13 143.28,458.24 143.27,459.07 143.26,458.93 143.25,460.32 143.25,460.87 143.24,461.57 143.23,461.70 143.23,461.01 143.22,463.51 143.22,462.81 143.21,463.09 143.21,463.78 143.20,463.23 143.19,464.34 143.19,467.25 143.17,466.14 143.16,464.34 143.15,465.72 143.15,468.35 143.13,466.69 143.12,467.94 143.11,466.28 143.11,468.63 143.10,468.22 143.09,468.63 143.09,469.88 143.08,469.46 143.07,470.01 143.06,469.32 143.06,470.98 143.05,471.54 143.04,472.37 143.03,472.09 143.03,472.37 143.02,472.92 143.01,474.30 143.01,473.20 142.99,476.79 142.99,474.44 142.98,474.58 142.97,474.44 142.97,476.24 142.96,475.55 142.95,476.79 142.94,478.45 142.94,476.65 142.94,477.76 142.93,478.45 142.92,479.83 142.91,478.31 142.90,480.66 142.90,480.10 142.87,481.21 142.86,480.79 142.86,479.97 142.85,482.59 142.85,483.28 142.83,482.45 142.83,482.45 142.82,484.24 142.81,482.59 142.80,484.93 142.78,486.73 142.77,486.04 142.77,485.49 142.76,485.35 142.76,486.45 142.74,487.00 142.74,486.31 142.74,489.76 142.72,490.45 142.71,488.38 142.71,489.90 142.70,488.66 142.70,489.90 142.69,491.96 142.68,491.41 142.67,491.96 142.66,492.79 142.65,492.79 142.63,491.82 142.63,490.86 142.62,492.93 142.61,493.20 142.61,494.30 142.60,493.75 142.59,494.58 142.59,496.37 142.58,496.78 142.57,498.57 142.55,496.92 142.54,497.05 142.53,496.23 142.52,496.92 142.51,499.25 142.50,497.60 142.49,499.67 142.49,500.49 142.48,502.42 142.47,501.45 142.47,499.94 142.45,502.14 142.44,502.55 142.43,503.93 142.42,502.96 142.41,502.83 142.40,504.75 142.39,502.55 142.38,505.85 142.37,503.65 142.36,505.99 142.35,504.20 142.34,505.44 142.33,507.08 142.31,505.99 142.30,506.81 142.30,511.34 142.29,509.01 142.28,510.24 142.27,507.77 142.26,508.87 142.24,510.24 142.23,509.83 142.22,512.30 142.20,509.83 142.19,510.24 142.18,513.12 142.18,511.89 142.18,512.30 142.17,512.02 142.17,513.94 142.16,515.31 142.15,515.17 142.15,516.00 142.15,515.17 142.13,514.90 142.12,516.96 142.11,517.37 142.08,517.23 142.07,517.09 142.06,517.91 142.06,516.41 142.05,519.56 142.05,518.87 142.04,518.74 142.03,520.79 142.01,518.74 142.00,520.65 141.98,520.24 141.97,521.75 141.96,522.02 141.95,522.43 141.94,523.11 141.94,522.57 141.93,524.34 141.91,524.34 141.91,524.75 141.90,525.71 141.89,524.75 141.88,526.40 141.87,526.81 141.85,527.22 141.83,528.99 141.83,528.17 141.81,526.94 141.81,527.90 141.79,528.85 141.78,528.58 141.77,528.31 141.76,529.40 141.76,530.77 141.75,531.99 141.75,531.99 141.73,531.45 141.71,530.77 141.71,531.99 141.70,533.91 141.69,532.68 141.68,534.18 141.66,533.77 141.64,533.09 141.63,534.31 141.62,534.86 141.62,535.27 141.61,535.00 141.61,538.00 141.60,537.59 141.59,537.59 141.59,537.18 141.58,538.41 141.57,537.72 141.56,537.86 141.53,540.00 141.51,539.50 141.50,540.00 141.49,540.00 141.46,540.00 141.46,540.00 141.44,540.00 141.42,540.00 141.39,540.00 141.38,540.00 141.37,540.00 141.36,540.00 141.35,540.00 141.32,540.00 141.31,540.00 141.31,540.00 141.30,540.00 141.28,540.00 141.27,540.00 141.27,540.00 141.26,540.00 141.23,540.00 141.22,540.00 141.21,540.00 141.19,540.00 141.18,540.00 141.16,540.00 141.15,540.00 141.13,540.00 141.13,540.00 141.12,540.00 141.10,540.00 141.08,540.00 141.07,540.00 141.06,540.00 141.04,540.00 141.03,540.00 141.01,540.00 140.98,540.00 140.98,540.00" fill="#17becf" fill-opacity="0.35" stroke="none"/>
<polyline points="140.98,540.00 140.98,523.66 141.01,524.75 141.03,525.44 141.04,523.11 141.06,522.43 141.07,523.25 141.08,523.11 141.10,521.20 141.12,521.20 141.13,521.88 141.13,520.79 141.15,518.74 141.16,519.15 141.18,519.69 141.19,519.97 141.21,518.87 141.22,516.27 141.23,517.91 141.26,518.46 141.27,517.78 141.27,515.59 141.28,516.96 141.30,515.04 141.31,515.17 141.31,515.45 141.32,515.04 141.35,514.90 141.36,513.12 141.37,513.39 141.38,511.47 141.39,512.85 141.42,510.24 141.44,511.75 141.46,512.02 141.46,510.65 141.49,512.43 141.50,510.79 141.51,509.97 141.53,511.06 141.56,508.18 141.57,508.04 141.58,508.04 141.59,507.08 141.59,507.22 141.60,506.67 141.61,506.54 141.61,505.85 141.62,506.40 141.62,503.93 141.63,504.75 141.64,504.61 141.66,503.93 141.68,502.96 141.69,504.06 141.70,501.59 141.71,503.10 141.71,502.69 141.73,501.73 141.75,500.90 141.75,502.55 141.76,500.08 141.76,501.18 141.77,501.59 141.78,498.43 141.79,499.39 141.81,498.70 141.81,497.47 141.83,498.43 141.83,497.33 141.85,495.54 141.87,497.19 141.88,495.68 141.89,494.99 141.90,496.23 141.91,493.48 141.91,495.13 141.93,495.82 141.94,493.75 141.94,493.20 141.95,493.20 141.96,491.69 141.97,492.37 141.98,491.14 142.00,491.82 142.01,491.27 142.03,491.55 142.04,490.86 142.05,490.31 142.05,489.34 142.06,488.10 142.06,486.17 142.07,487.28 142.08,486.73 142.11,484.93 142.12,487.00 142.13,485.49 142.15,485.07 142.15,485.76 142.15,485.07 142.16,483.28 142.17,484.11 142.17,484.66 142.18,483.28 142.18,481.90 142.18,482.59 142.19,482.17 142.20,481.07 142.22,481.76 142.23,480.52 142.24,480.10 142.26,478.45 142.27,481.21 142.28,482.31 142.29,478.31 142.30,479.00 142.30,479.14 142.31,477.62 142.33,476.93 142.34,476.79 142.35,475.68 142.36,475.55 142.37,473.89 142.38,474.99 142.39,475.68 142.40,474.72 142.41,474.44 142.42,474.16 142.43,474.03 142.44,474.30 142.45,474.16 142.47,473.20 142.47,470.84 142.48,469.32 142.49,471.26 142.49,469.60 142.50,470.43 142.51,468.49 142.52,468.49 142.53,467.94 142.54,467.94 142.55,467.11 142.57,468.08 142.58,466.97 142.59,467.25 142.59,465.31 142.60,467.66 142.61,466.14 142.61,465.58 142.62,463.23 142.63,463.92 142.63,464.48 142.65,465.45 142.66,462.81 142.67,462.26 142.68,462.40 142.69,461.70 142.70,460.46 142.70,461.70 142.71,461.43 142.71,460.87 142.72,459.35 142.74,461.01 142.74,459.07 142.74,459.49 142.76,458.93 142.76,457.41 142.77,457.41 142.77,457.13 142.78,455.60 142.80,454.35 142.81,456.99 142.82,455.46 142.83,455.88 142.83,454.91 142.85,456.02 142.85,454.07 142.86,452.27 142.86,453.38 142.87,452.27 142.90,453.24 142.90,451.16 142.91,451.30 142.92,451.44 142.93,449.21 142.94,451.02 142.94,449.21 142.94,447.96 142.95,447.54 142.96,448.10 142.97,446.99 142.97,447.82 142.98,446.29 142.99,447.27 142.99,446.99 143.01,445.88 143.01,446.43 143.02,444.76 143.03,445.74 143.03,443.79 143.04,442.40 143.05,444.21 143.06,443.93 143.06,442.95 143.07,442.40 143.08,441.98 143.09,441.84 143.09,441.70 143.10,441.70 143.11,440.17 143.11,440.17 143.12,439.61 143.13,440.45 143.15,437.24 143.15,435.71 143.16,437.52 143.17,436.55 143.19,436.13 143.19,436.96 143.20,436.13 143.21,436.83 143.21,433.76 143.22,436.27 143.22,433.48 143.23,433.34 143.23,434.87 143.24,433.48 143.25,431.53 143.25,431.81 143.26,431.39 143.27,431.39 143.28,429.15 143.28,429.85 143.29,428.73 143.30,431.81 143.30,430.13 143.31,429.43 143.31,428.87 143.32,429.01 143.32,427.90 143.33,427.62 143.34,426.92 143.35,427.62 143.35,427.06 143.35,426.64 143.36,425.10 143.36,423.99 143.37,424.96 143.37,424.96 143.38,424.27 143.39,423.85 143.39,422.59 143.40,423.01 143.41,421.89 143.42,420.91 143.42,421.61 143.43,420.21 143.43,420.77 143.44,419.23 143.45,419.09 143.46,419.23 143.46,418.95 143.46,417.27 143.47,416.85 143.48,418.39 143.49,416.99 143.49,417.13 143.51,417.55 143.51,414.89 143.51,415.31 143.52,415.03 143.52,415.31 143.53,414.75 143.53,413.63 143.54,412.79 143.54,412.65 143.55,413.49 143.56,412.37 143.57,412.09 143.59,410.55 143.60,408.87 143.61,409.71 143.62,410.41 143.63,410.13 143.64,409.85 143.65,408.59 143.66,408.87 143.67,409.01 143.67,407.32 143.68,407.18 143.70,408.03 143.70,407.32 143.71,406.62 143.73,406.62 143.73,403.68 143.75,405.64 143.75,405.50 143.76,402.69 143.77,404.38 143.78,404.24 143.79,403.26 143.80,403.82 143.80,401.15 143.80,400.03 143.81,401.43 143.82,399.32 143.82,400.73 143.83,401.43 143.83,399.32 143.84,398.48 143.85,399.18 143.85,398.06 143.85,397.92 143.86,396.65 143.87,395.53 143.88,398.20 143.88,396.93 143.88,396.09 143.90,394.40 143.91,394.68 143.91,393.70 143.92,394.12 143.93,393.56 143.93,391.03 143.94,392.72 143.95,389.90 143.96,391.73 143.97,391.59 143.97,390.75 143.98,392.57 143.98,390.18 143.99,387.93 143.99,389.34 144.00,389.06 144.01,388.63 144.01,389.06 144.01,387.65 144.02,385.82 144.03,386.80 144.04,387.65 144.05,386.66 144.05,387.08 144.06,385.82 144.07,384.41 144.07,384.69 144.08,383.84 144.11,382.57 144.12,383.42 144.13,382.72 144.14,384.27 144.14,382.15 144.15,380.60 144.16,382.15 144.18,379.75 144.18,381.16 144.19,379.61 144.20,377.64 144.21,380.46 144.21,378.62 144.22,377.78 144.23,378.48 144.24,377.21 144.25,377.64 144.26,375.38 144.27,377.35 144.27,377.21 144.28,375.80 144.29,375.66 144.30,374.95 144.30,373.12 144.31,374.81 144.32,374.67 144.33,372.13 144.34,372.98 144.35,371.14 144.35,372.13 144.37,371.85 144.38,370.29 144.38,371.42 144.39,368.45 144.40,369.58 144.41,369.73 144.42,368.88 144.42,367.60 144.43,369.02 144.44,368.74 144.45,367.32 144.46,365.91 144.47,367.04 144.48,366.05 144.48,365.62 144.50,365.06 144.51,365.91 144.51,363.92 144.53,364.92 144.54,363.22 144.55,363.50 144.56,362.93 144.57,362.23 144.58,361.52 144.58,360.81 144.59,361.09 144.60,361.94 144.61,360.24 144.62,360.24 144.63,359.82 144.63,358.68 144.65,357.98 144.65,358.83 144.66,357.98 144.67,356.84 144.67,356.98 144.68,356.84 144.69,355.42 144.70,355.14 144.72,355.85 144.72,354.57 144.72,355.71 144.73,353.15 144.74,353.72 144.75,352.73 144.76,351.59 144.79,352.02 144.79,352.16 144.81,351.45 144.81,351.02 144.82,350.88 144.83,350.60 144.84,350.17 144.85,348.61 144.86,349.32 144.87,349.04 144.88,347.76 144.90,347.47 144.91,347.19 144.92,346.62 144.93,345.91 144.94,345.20 144.94,345.49 144.95,345.77 144.97,343.64 144.98,345.63 144.98,342.78 145.00,343.64 145.01,343.64 145.02,342.64 145.03,343.07 145.04,341.65 145.05,341.50 145.06,340.22 145.07,340.51 145.08,338.80 145.09,339.51 145.10,339.37 145.11,339.51 145.11,337.38 145.12,337.95 145.13,337.52 145.14,336.67 145.15,336.52 145.15,336.38 145.17,336.24 145.18,334.96 145.20,335.53 145.20,334.96 145.22,333.25 145.22,333.10 145.23,331.96 145.24,333.82 145.25,333.25 145.28,332.96 145.30,331.82 145.31,331.54 145.32,332.25 145.33,331.39 145.34,329.68 145.34,329.83 145.35,329.26 145.36,327.83 145.39,328.69 145.40,328.54 145.40,327.83 145.41,327.26 145.42,326.97 145.44,326.55 145.44,326.69 145.47,325.40 145.48,324.98 145.50,324.69 145.52,325.26 145.54,323.26 145.55,323.12 145.57,321.69 145.58,322.26 145.60,321.98 145.61,323.26 145.63,320.69 145.64,320.69 145.65,320.83 145.65,319.98 145.67,319.12 145.68,318.12 145.70,319.55 145.72,317.83 145.74,318.26 145.76,317.12 145.79,317.55 145.82,316.26 145.83,316.55 145.84,316.12 145.84,314.97 145.85,314.54 145.87,314.97 145.90,313.69 145.93,314.69 145.95,313.11 145.97,313.40 145.98,314.69 146.00,312.54 146.01,312.11 146.02,311.11 146.03,311.83 146.04,310.54 146.05,310.39 146.07,310.11 146.08,309.25 146.11,308.68 146.13,308.25 146.15,307.82 146.18,306.96 146.21,307.53 146.21,305.95 146.22,306.53 146.25,305.24 146.26,305.95 146.27,303.80 146.29,304.52 146.31,304.52 146.33,303.66 146.34,303.66 146.40,302.94 146.41,302.66 146.43,302.66 146.45,302.37 146.45,301.37 146.50,299.93 146.53,299.50 146.55,300.65 146.58,300.22 146.63,298.78 146.64,298.06 146.66,298.64 146.70,296.63 146.74,298.35 146.78,296.05 146.81,295.48 146.85,295.77 146.89,295.05 146.96,296.05 146.98,294.04 147.02,293.90 147.05,294.19 147.12,293.47 147.14,293.04 147.16,292.75 147.21,293.18 147.25,291.60 147.29,290.88 147.35,290.02 147.36,291.31 147.37,291.17 147.41,289.16 147.46,289.44 147.56,289.16 147.68,289.01 147.76,287.72 147.87,285.99 148.03,288.01 148.21,287.14 148.32,286.14 148.40,285.56 148.55,284.55 148.96,284.55 149.46,284.55 149.73,284.84 149.89,284.55 150.35,282.82 151.61,281.82 153.26,281.10 153.41,281.82 154.50,280.81 155.87,280.23 156.92,281.67 158.27,281.24 159.90,281.24 160.32,279.22 160.90,278.65 161.24,278.79 162.96,278.36 163.57,277.35 168.12,277.78 171.01,276.05 172.35,276.63 172.66,275.91 181.97,275.33 183.35,275.04 183.84,275.76 184.08,274.75 184.27,273.60 184.51,273.45 184.62,273.89 185.16,272.59 185.26,271.72 185.29,272.88 185.43,270.86 185.58,270.42 185.67,269.99 185.77,271.29 185.87,269.56 185.91,268.84 186.00,268.69 186.10,269.56 186.14,268.98 186.20,267.97 186.26,267.97 186.32,266.09 186.41,266.38 186.43,265.80 186.49,265.95 186.53,264.50 186.58,264.79 186.62,263.49 186.69,264.21 186.77,263.05 186.80,263.92 186.83,262.77 186.87,261.75 186.88,262.33 186.90,261.03 186.93,260.74 187.05,260.02 187.07,258.86 187.08,260.60 187.09,258.86 187.11,259.73 187.14,259.58 187.15,257.85 187.18,258.57 187.22,257.99 187.23,256.98 187.25,256.25 187.35,255.82 187.39,257.27 187.47,255.38 187.49,254.52 187.52,253.79 187.54,253.07 187.63,253.94 187.65,252.05 187.66,252.78 187.69,251.91 187.71,252.34 187.74,251.47 187.78,251.04 187.85,249.59 187.90,250.02 187.95,249.59 187.97,248.43 187.98,248.28 188.01,247.12 188.05,248.43 188.10,247.12 188.13,247.99 188.15,246.69 188.20,246.11 188.30,245.38 188.31,246.11 188.34,243.78 188.37,244.80 188.41,243.64 188.44,243.20 188.48,243.78 188.50,241.90 188.53,241.90 188.55,241.75 188.60,242.48 188.62,241.03 188.65,241.61 188.68,239.86 188.71,240.30 188.73,239.86 188.76,238.56 188.77,238.26 188.78,238.41 188.81,238.12 188.84,238.56 188.86,237.39 188.92,236.81 188.93,236.08 188.95,235.94 188.97,235.21 188.99,234.48 189.01,234.34 189.03,233.76 189.06,234.48 189.08,234.19 189.09,232.59 189.14,231.86 189.18,231.28 189.19,231.72 189.20,231.14 189.21,230.85 189.24,230.41 189.26,229.97 189.30,230.70 189.34,227.93 189.37,228.23 189.39,228.23 189.42,226.19 189.44,228.52 189.46,225.89 189.47,226.62 189.49,225.60 189.54,225.17 189.55,225.02 189.57,224.58 189.58,224.44 189.58,224.44 189.61,223.12 189.64,223.27 189.66,223.12 189.67,222.83 189.73,221.52 189.73,221.23 189.76,221.23 189.77,221.23 189.82,219.77 189.82,220.21 189.85,219.77 189.91,218.60 189.95,218.75 190.00,217.44 190.02,217.44 190.05,216.56 190.08,216.85 190.09,215.83 190.10,216.56 190.11,215.10 190.13,215.68 190.16,214.37 190.19,214.22 190.21,213.49 190.26,213.20 190.28,213.20 190.31,212.62 190.38,211.15 190.42,211.45 190.44,210.72 190.45,211.15 190.51,210.13 190.52,209.40 190.56,209.69 190.59,209.11 190.62,208.82 190.65,208.67 190.70,207.21 190.71,206.91 190.72,205.60 190.77,206.62 190.79,205.60 190.82,205.89 190.86,205.30 190.90,204.28 190.94,204.57 190.96,204.57 190.96,203.69 190.99,202.08 191.00,202.67 191.06,202.52 191.08,201.79 191.10,201.21 191.10,200.77 191.12,200.77 191.13,200.18 191.16,198.86 191.18,199.74 191.21,198.42 191.23,198.57 191.26,197.98 191.28,197.84 191.28,196.96 191.33,196.52 191.35,196.37 191.38,196.08 191.40,195.34 191.42,193.44 191.42,194.32 191.44,194.46 191.47,194.02 191.49,193.44 191.50,193.29 191.56,193.00 191.57,192.70 191.61,191.09 191.64,191.53 191.67,190.35 191.68,190.50 191.70,190.65 191.74,188.89 191.75,189.03 191.79,188.15 191.83,188.15 191.85,186.54 191.89,187.71 191.91,186.68 191.95,186.24 191.96,185.66 191.99,185.80 191.99,184.92 192.01,184.48 192.03,185.36 192.05,183.89 192.10,183.16 192.13,183.01 192.15,182.86 192.17,181.69 192.21,182.42 192.26,181.54 192.27,180.66 192.30,180.36 192.35,179.92 192.45,178.89 192.48,178.89 192.51,179.63 192.52,177.72 192.56,177.72 192.57,176.98 192.59,177.42 192.62,176.24 192.66,175.95 192.70,175.07 192.78,174.48 192.83,174.48 192.90,174.48 192.92,173.00 192.94,173.30 192.96,173.59 193.06,172.27 193.07,172.86 193.12,172.41 193.13,171.38 193.16,171.68 193.19,169.61 193.22,169.76 193.26,169.32 193.27,169.32 193.30,168.73 193.31,167.84 193.32,168.29 193.36,167.40 193.40,167.26 193.40,167.11 193.44,166.37 193.46,166.08 193.53,165.19 193.60,165.04 193.64,164.60 193.67,164.45 193.72,163.86 193.77,164.01 193.78,162.68 193.82,162.24 193.84,161.80 193.90,161.94 193.93,161.35 193.98,161.06 194.03,160.17 194.06,159.58 194.07,159.73 194.11,159.58 194.17,157.95 194.20,158.69 194.25,156.62 194.33,157.81 194.36,156.33 194.44,155.89 194.46,156.03 194.62,155.59 194.68,154.41 194.78,154.85 194.84,154.70 194.91,153.82 194.99,153.37 195.07,153.08 195.17,153.37 195.23,152.04 195.43,152.04 195.54,150.86 195.58,150.41 195.65,150.86 195.72,149.23 195.79,149.38 195.80,149.67 195.81,149.08 196.00,148.79 196.18,147.30 196.24,148.19 196.42,147.30 196.78,146.86 197.01,145.68 197.23,145.97 197.46,145.53 197.69,145.68 197.80,144.49 198.90,143.90 199.43,144.19 201.57,144.05 203.80,142.56 207.31,142.86 208.99,141.38 212.51,142.27 215.40,140.93 217.17,141.08 220.03,140.49 229.19,139.30 231.90,139.45 240.83,137.67 259.20,138.86 277.97,138.12 278.58,137.52 279.02,137.52 280.23,137.37 280.94,136.48 281.25,136.78 281.44,135.59 281.54,135.74 281.70,135.15 281.88,134.26 281.98,134.11 282.10,133.66 282.27,133.22 282.45,132.47 282.49,132.18 282.55,131.58 282.75,131.43 282.83,130.69 282.97,130.54 283.10,130.54 283.20,130.10 283.35,129.35 283.39,128.17 283.43,128.31 283.63,128.61 283.76,127.72 283.84,127.12 284.00,127.27 284.03,126.68 284.23,125.19 284.32,124.89 284.47,124.60 284.52,124.60 284.58,124.15 284.61,123.85 284.71,123.11 284.89,122.81 284.96,122.51 285.03,122.07 285.07,121.17 285.13,121.02 285.16,121.02 285.20,120.43 285.24,119.98 285.35,119.09 285.39,119.09 285.43,118.20 285.47,118.05 285.52,118.20 285.57,117.30 285.60,117.00 285.62,117.00 285.68,116.11 285.75,115.22 285.86,115.81 285.87,114.92 285.89,114.02 285.95,114.32 285.97,114.17 286.02,113.28 286.07,112.98 286.10,112.38 286.18,111.79 286.39,111.49 286.45,111.19 286.49,110.44 286.54,110.15 286.57,109.85 286.64,109.25 286.67,109.40 286.74,108.50 286.82,108.06 286.83,107.46 286.93,107.16 286.95,107.61 287.01,105.97 287.02,106.12 287.04,105.22 287.07,104.77 287.17,104.62 287.28,103.73 287.40,103.88 287.46,103.73 287.48,102.98 287.52,102.83 287.57,102.23 287.59,101.48 287.61,101.34 287.76,101.34 287.78,100.89 287.85,100.14 287.87,99.84 287.94,99.09 287.97,98.79 288.06,98.49 288.07,97.75 288.18,97.45 288.21,96.85 288.31,96.85 288.39,96.40 288.42,95.95 288.51,95.80 288.52,94.90 288.56,94.90 288.59,94.75 288.64,94.01 288.72,93.71 288.78,93.41 288.90,92.51 289.00,91.76 289.07,91.46 289.14,91.01 289.19,91.16 289.24,90.86 289.29,89.81 289.37,89.81 289.49,89.36 289.53,88.32 289.56,88.76 289.70,87.72 289.72,87.72 289.86,87.12 290.00,86.52 290.11,86.37 290.20,86.07 290.33,85.47 290.37,85.17 290.43,84.42 290.44,84.12 290.56,84.12 290.63,83.37 290.71,83.37 290.73,82.77 290.97,82.17 291.03,82.02 291.21,81.42 291.54,81.27 291.69,80.52 291.80,80.52 291.84,79.92 292.00,79.62 292.16,79.02 292.25,78.72 292.34,78.42 292.42,77.96 292.48,77.66 292.58,77.06 292.72,76.61 292.81,76.31 293.01,76.16 293.12,75.56 293.24,75.26 293.41,74.66 293.54,74.21 293.75,74.06 293.85,73.61 294.15,73.31 294.72,72.86 295.12,72.41 297.86,72.11 312.51,71.80 323.62,71.50 332.34,71.05 335.14,70.75 341.06,70.45 349.92,70.15 378.77,70.00 385.51,70.00 900.00,70.00" fill="none" stroke="#17becf" stroke-width="0.9" stroke-opacity="0.85"/>
<polyline points="140.98,540.00 140.98,540.00 141.01,540.00 141.03,540.00 141.04,540.00 141.06,540.00 141.07,540.00 141.08,540.00 141.10,540.00 141.12,540.00 141.13,540.00 141.13,540.00 141.15,540.00 141.16,540.00 141.18,540.00 141.19,540.00 141.21,540.00 141.22,540.00 141.23,540.00 141.26,540.00 141.27,540.00 141.27,540.00 141.28,540.00 141.30,540.00 141.31,540.00 141.31,540.00 141.32,540.00 141.35,540.00 141.36,540.00 141.37,540.00 141.38,540.00 141.39,540.00 141.42,540.00 141.44,540.00 141.46,540.00 141.46,540.00 141.49,540.00 141.50,540.00 141.51,539.50 141.53,540.00 141.56,537.86 141.57,537.72 141.58,538.41 141.59,537.18 141.59,537.59 141.60,537.59 141.61,538.00 141.61,535.00 141.62,535.27 141.62,534.86 141.63,534.31 141.64,533.09 141.66,533.77 141.68,534.18 141.69,532.68 141.70,533.91 141.71,531.99 141.71,530.77 141.73,531.45 141.75,531.99 141.75,531.99 141.76,530.77 141.76,529.40 141.77,528.31 141.78,528.58 141.79,528.85 141.81,527.90 141.81,526.94 141.83,528.17 141.83,528.99 141.85,527.22 141.87,526.81 141.88,526.40 141.89,524.75 141.90,525.71 141.91,524.75 141.91,524.34 141.93,524.34 141.94,522.57 141.94,523.11 141.95,522.43 141.96,522.02 141.97,521.75 141.98,520.24 142.00,520.65 142.01,518.74 142.03,520.79 142.04,518.74 142.05,518.87 142.05,519.56 142.06,516.41 142.06,517.91 142.07,517.09 142.08,517.23 142.11,517.37 142.12,516.96 142.13,514.90 142.15,515.17 142.15,516.00 142.15,515.17 142.16,515.31 142.17,513.94 142.17,512.02 142.18,512.30 142.18,511.89 142.18,513.12 142.19,510.24 142.20,509.83 142.22,512.30 142.23,509.83 142.24,510.24 142.26,508.87 142.27,507.77 142.28,510.24 142.29,509.01 142.30,511.34 142.30,506.81 142.31,505.99 142.33,507.08 142.34,505.44 142.35,504.20 142.36,505.99 142.37,503.65 142.38,505.85 142.39,502.55 142.40,504.75 142.41,502.83 142.42,502.96 142.43,503.93 142.44,502.55 142.45,502.14 142.47,499.94 142.47,501.45 142.48,502.42 142.49,500.49 142.49,499.67 142.50,497.60 142.51,499.25 142.52,496.92 142.53,496.23 142.54,497.05 142.55,496.92 142.57,498.57 142.58,496.78 142.59,496.37 142.59,494.58 142.60,493.75 142.61,494.30 142.61,493.20 142.62,492.93 142.63,490.86 142.63,491.82 142.65,492.79 142.66,492.79 142.67,491.96 142.68,491.41 142.69,491.96 142.70,489.90 142.70,488.66 142.71,489.90 142.71,488.38 142.72,490.45 142.74,489.76 142.74,486.31 142.74,487.00 142.76,486.45 142.76,485.35 142.77,485.49 142.77,486.04 142.78,486.73 142.80,484.93 142.81,482.59 142.82,484.24 142.83,482.45 142.83,482.45 142.85,483.28 142.85,482.59 142.86,479.97 142.86,480.79 142.87,481.21 142.90,480.10 142.90,480.66 142.91,478.31 142.92,479.83 142.93,478.45 142.94,477.76 142.94,476.65 142.94,478.45 142.95,476.79 142.96,475.55 142.97,476.24 142.97,474.44 142.98,474.58 142.99,474.44 142.99,476.79 143.01,473.20 143.01,474.30 143.02,472.92 143.03,472.37 143.03,472.09 143.04,472.37 143.05,471.54 143.06,470.98 143.06,469.32 143.07,470.01 143.08,469.46 143.09,469.88 143.09,468.63 143.10,468.22 143.11,468.63 143.11,466.28 143.12,467.94 143.13,466.69 143.15,468.35 143.15,465.72 143.16,464.34 143.17,466.14 143.19,467.25 143.19,464.34 143.20,463.23 143.21,463.78 143.21,463.09 143.22,462.81 143.22,463.51 143.23,461.01 143.23,461.70 143.24,461.57 143.25,460.87 143.25,460.32 143.26,458.93 143.27,459.07 143.28,458.24 143.28,457.13 143.29,456.85 143.30,459.07 143.30,456.71 143.31,456.85 143.31,456.30 143.32,457.68 143.32,454.49 143.33,457.96 143.34,454.35 143.35,453.66 143.35,454.07 143.35,452.55 143.36,452.13 143.36,451.30 143.37,452.13 143.37,450.32 143.38,451.30 143.39,451.16 143.39,450.60 143.40,451.44 143.41,449.07 143.42,448.66 143.42,448.10 143.43,447.96 143.43,448.10 143.44,448.38 143.45,447.54 143.46,446.71 143.46,445.32 143.46,445.32 143.47,444.90 143.48,446.71 143.49,445.04 143.49,444.07 143.51,444.62 143.51,442.81 143.51,442.40 143.52,442.81 143.52,441.70 143.53,440.73 143.53,441.14 143.54,440.45 143.54,438.92 143.55,438.64 143.56,439.61 143.57,439.05 143.59,439.47 143.60,438.36 143.61,438.36 143.62,437.10 143.63,436.13 143.64,436.83 143.65,436.55 143.66,435.43 143.67,434.46 143.67,435.15 143.68,434.46 143.70,434.18 143.70,432.64 143.71,433.20 143.73,432.08 143.73,432.08 143.75,432.22 143.75,430.83 143.76,431.94 143.77,431.67 143.78,431.81 143.79,428.32 143.80,427.20 143.80,428.87 143.80,427.20 143.81,428.04 143.82,427.34 143.82,426.92 143.83,425.24 143.83,425.10 143.84,425.94 143.85,424.54 143.85,425.38 143.85,424.27 143.86,423.57 143.87,423.71 143.88,423.71 143.88,421.89 143.88,421.33 143.90,421.33 143.91,424.13 143.91,420.91 143.92,421.19 143.93,421.33 143.93,419.51 143.94,418.53 143.95,420.35 143.96,417.55 143.97,417.41 143.97,417.27 143.98,416.15 143.98,416.43 143.99,416.43 143.99,416.85 144.00,414.47 144.01,414.33 144.01,415.31 144.01,416.01 144.02,413.77 144.03,411.53 144.04,412.79 144.05,413.77 144.05,412.51 144.06,411.95 144.07,409.57 144.07,409.29 144.08,410.55 144.11,408.59 144.12,408.17 144.13,410.27 144.14,408.31 144.14,408.17 144.15,407.32 144.16,407.61 144.18,406.90 144.18,405.36 144.19,405.22 144.20,404.94 144.21,405.50 144.21,406.48 144.22,404.94 144.23,403.96 144.24,404.38 144.25,402.55 144.26,402.55 144.27,402.41 144.27,403.12 144.28,400.31 144.29,400.73 144.30,398.90 144.30,399.89 144.31,400.03 144.32,399.74 144.33,397.50 144.34,398.48 144.35,397.64 144.35,395.95 144.37,397.36 144.38,397.78 144.38,396.79 144.39,395.11 144.40,394.26 144.41,394.40 144.42,393.56 144.42,393.14 144.43,392.72 144.44,392.72 144.45,392.72 144.46,391.87 144.47,390.75 144.48,391.45 144.48,389.62 144.50,390.46 144.51,389.48 144.51,388.91 144.53,388.91 144.54,387.93 144.55,388.07 144.56,388.77 144.57,386.80 144.58,385.96 144.58,384.83 144.59,386.80 144.60,383.70 144.61,384.27 144.62,384.97 144.63,383.56 144.63,385.25 144.65,383.56 144.65,383.84 144.66,381.59 144.67,382.01 144.67,380.04 144.68,381.30 144.69,380.74 144.70,380.60 144.72,380.04 144.72,380.04 144.72,379.19 144.73,378.91 144.74,377.92 144.75,378.34 144.76,377.07 144.79,375.66 144.79,377.35 144.81,376.08 144.81,376.08 144.82,377.35 144.83,375.24 144.84,374.39 144.85,373.12 144.86,375.09 144.87,372.83 144.88,371.85 144.90,371.85 144.91,371.85 144.92,370.01 144.93,371.28 144.94,370.71 144.94,369.02 144.95,368.31 144.97,369.44 144.98,370.29 144.98,368.59 145.00,367.32 145.01,366.90 145.02,367.89 145.03,366.61 145.04,365.91 145.05,368.74 145.06,366.19 145.07,366.47 145.08,366.05 145.09,364.49 145.10,363.36 145.11,361.94 145.11,363.92 145.12,361.38 145.13,361.52 145.14,362.08 145.15,360.67 145.15,360.24 145.17,359.68 145.18,360.95 145.20,359.82 145.20,359.68 145.22,358.26 145.22,357.41 145.23,356.70 145.24,357.27 145.25,357.27 145.28,355.99 145.30,355.71 145.31,355.42 145.32,354.57 145.33,354.29 145.34,354.29 145.34,353.15 145.35,353.01 145.36,353.44 145.39,352.44 145.40,351.02 145.40,352.30 145.41,350.03 145.42,350.31 145.44,351.17 145.44,349.75 145.47,349.75 145.48,349.46 145.50,347.90 145.52,347.90 145.54,347.47 145.55,345.77 145.57,346.05 145.58,346.48 145.60,345.34 145.61,346.34 145.63,344.21 145.64,343.64 145.65,344.49 145.65,343.78 145.67,342.36 145.68,341.36 145.70,342.22 145.72,341.65 145.74,340.79 145.76,339.80 145.79,339.51 145.82,340.08 145.83,339.80 145.84,338.94 145.84,338.37 145.85,339.37 145.87,339.23 145.90,337.52 145.93,337.38 145.95,337.95 145.97,336.67 145.98,335.24 146.00,335.67 146.01,335.38 146.02,335.38 146.03,334.81 146.04,333.67 146.05,333.10 146.07,332.39 146.08,331.68 146.11,333.25 146.13,330.25 146.15,330.54 146.18,330.54 146.21,330.82 146.21,328.11 146.22,329.40 146.25,328.11 146.26,328.26 146.27,327.40 146.29,327.83 146.31,326.97 146.33,326.83 146.34,326.12 146.40,324.40 146.41,325.26 146.43,325.26 146.45,324.12 146.45,323.98 146.50,325.26 146.53,323.26 146.55,322.55 146.58,322.55 146.63,322.26 146.64,321.26 146.66,319.83 146.70,320.26 146.74,320.98 146.78,318.98 146.81,317.69 146.85,317.69 146.89,319.41 146.96,317.69 146.98,316.69 147.02,316.69 147.05,315.83 147.12,315.55 147.14,315.40 147.16,315.69 147.21,313.83 147.25,313.83 147.29,315.69 147.35,314.11 147.36,311.83 147.37,312.83 147.41,311.97 147.46,312.11 147.56,310.97 147.68,311.25 147.76,310.25 147.87,309.25 148.03,310.39 148.21,309.82 148.32,308.39 148.40,307.96 148.55,306.81 148.96,307.39 149.46,306.53 149.73,305.52 149.89,305.09 150.35,305.67 151.61,305.52 153.26,305.38 153.41,303.80 154.50,303.37 155.87,303.09 156.92,302.51 158.27,302.23 159.90,301.51 160.32,301.08 160.90,300.65 161.24,300.22 162.96,300.07 163.57,300.50 168.12,298.93 171.01,299.36 172.35,297.63 172.66,298.64 181.97,297.20 183.35,296.05 183.84,296.05 184.08,295.48 184.27,296.34 184.51,295.48 184.62,294.04 185.16,294.33 185.26,293.18 185.29,294.19 185.43,292.61 185.58,293.04 185.67,291.89 185.77,292.46 185.87,291.17 185.91,290.16 186.00,290.16 186.10,288.72 186.14,289.30 186.20,288.29 186.26,288.72 186.32,287.72 186.41,286.71 186.43,287.43 186.49,287.57 186.53,285.99 186.58,285.56 186.62,285.56 186.69,285.42 186.77,285.27 186.80,283.69 186.83,283.69 186.87,283.69 186.88,282.54 186.90,282.39 186.93,281.38 187.05,281.10 187.07,280.52 187.08,279.80 187.09,280.09 187.11,279.08 187.14,278.50 187.15,277.93 187.18,278.65 187.22,277.49 187.23,277.20 187.25,276.63 187.35,276.63 187.39,275.76 187.47,275.47 187.49,275.76 187.52,275.47 187.54,274.18 187.63,274.46 187.65,273.45 187.66,273.74 187.69,272.59 187.71,272.30 187.74,271.58 187.78,271.72 187.85,270.71 187.90,270.86 187.95,270.57 187.97,269.12 187.98,268.69 188.01,268.40 188.05,268.55 188.10,266.81 188.13,266.52 188.15,267.10 188.20,266.52 188.30,265.80 188.31,265.37 188.34,264.93 188.37,265.22 188.41,264.21 188.44,264.79 188.48,263.34 188.50,263.34 188.53,262.04 188.55,261.32 188.60,262.33 188.62,260.89 188.65,261.32 188.68,260.02 188.71,258.86 188.73,258.71 188.76,257.27 188.77,259.29 188.78,257.70 188.81,256.25 188.84,257.41 188.86,256.83 188.92,256.83 188.93,255.24 188.95,255.38 188.97,255.10 188.99,253.94 189.01,253.79 189.03,252.92 189.06,253.36 189.08,252.92 189.09,251.33 189.14,251.47 189.18,251.04 189.19,251.33 189.20,251.04 189.21,249.44 189.24,250.02 189.26,248.86 189.30,249.73 189.34,248.14 189.37,246.98 189.39,247.41 189.42,247.56 189.44,247.85 189.46,245.53 189.47,245.09 189.49,244.51 189.54,244.22 189.55,243.64 189.57,244.07 189.58,244.07 189.58,243.06 189.61,242.19 189.64,241.90 189.66,241.03 189.67,240.44 189.73,240.73 189.73,240.44 189.76,239.72 189.77,239.14 189.82,237.25 189.82,239.28 189.85,237.68 189.91,236.67 189.95,236.81 190.00,236.67 190.02,235.07 190.05,235.94 190.08,234.92 190.09,234.77 190.10,233.61 190.11,234.48 190.13,233.76 190.16,232.59 190.19,232.74 190.21,230.70 190.26,230.55 190.28,231.57 190.31,229.54 190.38,229.54 190.42,229.10 190.44,229.24 190.45,227.79 190.51,228.52 190.52,228.37 190.56,228.66 190.59,227.35 190.62,225.75 190.65,226.04 190.70,225.60 190.71,224.29 190.72,225.17 190.77,223.71 190.79,224.87 190.82,222.98 190.86,222.83 190.90,221.67 190.94,222.54 190.96,220.94 190.96,221.52 190.99,220.21 191.00,219.48 191.06,218.89 191.08,219.77 191.10,218.46 191.10,217.44 191.12,218.02 191.13,217.00 191.16,217.00 191.18,217.29 191.21,216.56 191.23,215.68 191.26,216.41 191.28,214.81 191.28,214.37 191.33,215.25 191.35,213.49 191.38,212.47 191.40,211.74 191.42,212.62 191.42,212.03 191.44,212.18 191.47,210.57 191.49,210.13 191.50,208.67 191.56,209.69 191.57,209.98 191.61,208.38 191.64,207.94 191.67,206.77 191.68,206.91 191.70,206.62 191.74,205.89 191.75,205.45 191.79,205.16 191.83,204.72 191.85,203.40 191.89,204.57 191.91,203.99 191.95,202.96 191.96,201.50 191.99,201.94 191.99,201.50 192.01,201.06 192.03,200.77 192.05,201.06 192.10,200.03 192.13,198.42 192.15,199.45 192.17,199.15 192.21,197.98 192.26,197.25 192.27,196.52 192.30,197.10 192.35,195.64 192.45,196.22 192.48,195.64 192.51,194.02 192.52,195.64 192.56,194.02 192.57,193.58 192.59,193.14 192.62,192.85 192.66,192.56 192.70,190.94 192.78,190.21 192.83,191.38 192.90,189.91 192.92,189.77 192.94,188.30 192.96,189.33 193.06,188.59 193.07,187.57 193.12,186.98 193.13,187.12 193.16,187.27 193.19,186.10 193.22,186.24 193.26,184.92 193.27,185.07 193.30,184.04 193.31,183.01 193.32,183.75 193.36,182.57 193.40,183.01 193.40,181.83 193.44,180.80 193.46,180.22 193.53,180.07 193.60,180.66 193.64,179.63 193.67,179.48 193.72,178.89 193.77,178.60 193.78,177.57 193.82,177.42 193.84,177.72 193.90,176.83 193.93,175.65 193.98,174.92 194.03,174.92 194.06,174.18 194.07,173.45 194.11,173.30 194.17,173.15 194.20,172.41 194.25,171.97 194.33,172.27 194.36,171.38 194.44,170.94 194.46,171.24 194.62,169.91 194.68,169.17 194.78,170.65 194.84,168.88 194.91,168.29 194.99,167.55 195.07,168.14 195.17,166.37 195.23,167.26 195.43,166.08 195.54,165.19 195.58,164.75 195.65,164.30 195.72,163.71 195.79,163.12 195.80,163.71 195.81,162.09 196.00,162.39 196.18,161.50 196.24,160.91 196.42,160.32 196.78,160.32 197.01,159.73 197.23,159.73 197.46,159.14 197.69,157.22 197.80,157.07 198.90,157.66 199.43,157.36 201.57,156.92 203.80,156.62 207.31,155.59 208.99,155.00 212.51,155.59 215.40,154.70 217.17,153.82 220.03,154.41 229.19,152.48 231.90,152.78 240.83,152.34 259.20,151.15 277.97,151.30 278.58,150.56 279.02,150.41 280.23,150.27 280.94,149.23 281.25,148.79 281.44,148.49 281.54,147.90 281.70,147.45 281.88,147.90 281.98,146.27 282.10,146.27 282.27,145.68 282.45,144.64 282.49,144.93 282.55,144.79 282.75,143.45 282.83,143.45 282.97,142.86 283.10,142.56 283.20,141.97 283.35,140.93 283.39,140.78 283.43,140.04 283.63,139.75 283.76,139.45 283.84,139.15 284.00,138.71 284.03,138.12 284.23,137.23 284.32,136.93 284.47,136.48 284.52,136.33 284.58,136.48 284.61,135.15 284.71,134.11 284.89,135.00 284.96,133.37 285.03,132.77 285.07,132.62 285.13,132.62 285.16,132.18 285.20,131.43 285.24,130.54 285.35,130.54 285.39,130.39 285.43,130.25 285.47,129.21 285.52,128.31 285.57,128.02 285.60,128.02 285.62,126.83 285.68,126.23 285.75,126.23 285.86,126.68 285.87,125.19 285.89,125.64 285.95,124.60 285.97,123.70 286.02,123.85 286.07,123.70 286.10,123.11 286.18,122.81 286.39,121.77 286.45,121.47 286.49,120.88 286.54,120.73 286.57,119.09 286.64,119.68 286.67,118.79 286.74,118.34 286.82,117.90 286.83,117.30 286.93,117.00 286.95,116.56 287.01,116.56 287.02,115.66 287.04,115.22 287.07,114.47 287.17,113.87 287.28,113.87 287.40,113.43 287.46,112.53 287.48,112.38 287.52,111.19 287.57,111.49 287.59,111.19 287.61,110.44 287.76,109.85 287.78,109.85 287.85,109.25 287.87,108.21 287.94,107.76 287.97,107.46 288.06,107.31 288.07,106.41 288.18,106.12 288.21,105.37 288.31,105.07 288.39,104.62 288.42,104.47 288.51,103.58 288.52,102.98 288.56,102.98 288.59,102.08 288.64,101.63 288.72,101.78 288.78,101.04 288.90,100.29 289.00,99.84 289.07,99.24 289.14,98.49 289.19,98.64 289.24,97.90 289.29,97.75 289.37,97.00 289.49,96.40 289.53,95.95 289.56,95.80 289.70,95.05 289.72,94.31 289.86,93.86 290.00,94.16 290.11,93.41 290.20,92.66 290.33,92.21 290.37,91.46 290.43,90.86 290.44,90.41 290.56,90.41 290.63,89.81 290.71,88.91 290.73,88.61 290.97,88.17 291.03,88.17 291.21,86.82 291.54,87.12 291.69,86.07 291.80,85.92 291.84,85.02 292.00,84.57 292.16,83.97 292.25,83.82 292.34,83.07 292.42,82.62 292.48,82.32 292.58,81.87 292.72,81.12 292.81,80.67 293.01,80.37 293.12,79.62 293.24,79.47 293.41,78.72 293.54,77.96 293.75,77.66 293.85,77.06 294.15,76.61 294.72,76.01 295.12,75.41 297.86,74.81 312.51,74.36 323.62,73.76 332.34,73.31 335.14,72.71 341.06,72.11 349.92,71.50 378.77,70.75 385.51,70.00 900.00,70.00" fill="none" stroke="#17becf" stroke-width="0.9" stroke-opacity="0.85"/>
<polyline points="140.98,540.00 140.98,539.90 141.01,539.50 141.03,539.09 141.04,538.68 141.06,538.27 141.07,537.86 141.08,537.45 141.10,537.04 141.12,536.63 141.13,536.22 141.13,535.82 141.15,535.41 141.16,535.00 141.18,534.59 141.19,534.18 141.21,533.77 141.22,533.36 141.23,532.95 141.26,532.54 141.27,532.13 141.27,531.72 141.28,531.31 141.30,530.90 141.31,530.49 141.31,530.08 141.32,529.67 141.35,529.26 141.36,528.85 141.37,528.44 141.38,528.03 141.39,527.62 141.42,527.22 141.44,526.81 141.46,526.40 141.46,525.99 141.49,525.58 141.50,525.16 141.51,524.75 141.53,524.34 141.56,523.93 141.57,523.52 141.58,523.11 141.59,522.70 141.59,522.29 141.60,521.88 141.61,521.47 141.61,521.06 141.62,520.65 141.62,520.24 141.63,519.83 141.64,519.42 141.66,519.01 141.68,518.60 141.69,518.19 141.70,517.78 141.71,517.37 141.71,516.96 141.73,516.54 141.75,516.13 141.75,515.72 141.76,515.31 141.76,514.90 141.77,514.49 141.78,514.08 141.79,513.67 141.81,513.26 141.81,512.85 141.83,512.43 141.83,512.02 141.85,511.61 141.87,511.20 141.88,510.79 141.89,510.38 141.90,509.97 141.91,509.55 141.91,509.14 141.93,508.73 141.94,508.32 141.94,507.91 141.95,507.50 141.96,507.08 141.97,506.67 141.98,506.26 142.00,505.85 142.01,505.44 142.03,505.03 142.04,504.61 142.05,504.20 142.05,503.79 142.06,503.38 142.06,502.96 142.07,502.55 142.08,502.14 142.11,501.73 142.12,501.32 142.13,500.90 142.15,500.49 142.15,500.08 142.15,499.67 142.16,499.25 142.17,498.84 142.17,498.43 142.18,498.02 142.18,497.60 142.18,497.19 142.19,496.78 142.20,496.37 142.22,495.95 142.23,495.54 142.24,495.13 142.26,494.72 142.27,494.30 142.28,493.89 142.29,493.48 142.30,493.06 142.30,492.65 142.31,492.24 142.33,491.82 142.34,491.41 142.35,491.00 142.36,490.58 142.37,490.17 142.38,489.76 142.39,489.34 142.40,488.93 142.41,488.52 142.42,488.10 142.43,487.69 142.44,487.28 142.45,486.86 142.47,486.45 142.47,486.04 142.48,485.62 142.49,485.21 142.49,484.80 142.50,484.38 142.51,483.97 142.52,483.55 142.53,483.14 142.54,482.73 142.55,482.31 142.57,481.90 142.58,481.48 142.59,481.07 142.59,480.66 142.60,480.24 142.61,479.83 142.61,479.41 142.62,479.00 142.63,478.58 142.63,478.17 142.65,477.76 142.66,477.34 142.67,476.93 142.68,476.51 142.69,476.10 142.70,475.68 142.70,475.27 142.71,474.85 142.71,474.44 142.72,474.03 142.74,473.61 142.74,473.20 142.74,472.78 142.76,472.37 142.76,471.95 142.77,471.54 142.77,471.12 142.78,470.71 142.80,470.29 142.81,469.88 142.82,469.46 142.83,469.05 142.83,468.63 142.85,468.22 142.85,467.80 142.86,467.38 142.86,466.97 142.87,466.55 142.90,466.14 142.90,465.72 142.91,465.31 142.92,464.89 142.93,464.48 142.94,464.06 142.94,463.64 142.94,463.23 142.95,462.81 142.96,462.40 142.97,461.98 142.97,461.57 142.98,461.15 142.99,460.73 142.99,460.32 143.01,459.90 143.01,459.49 143.02,459.07 143.03,458.65 143.03,458.24 143.04,457.82 143.05,457.41 143.06,456.99 143.06,456.57 143.07,456.16 143.08,455.74 143.09,455.32 143.09,454.91 143.10,454.49 143.11,454.07 143.11,453.66 143.12,453.24 143.13,452.82 143.15,452.41 143.15,451.99 143.16,451.57 143.17,451.16 143.19,450.74 143.19,450.32 143.20,449.91 143.21,449.49 143.21,449.07 143.22,448.66 143.22,448.24 143.23,447.82 143.23,447.40 143.24,446.99 143.25,446.57 143.25,446.15 143.26,445.74 143.27,445.32 143.28,444.90 143.28,444.48 143.29,444.07 143.30,443.65 143.30,443.23 143.31,442.81 143.31,442.40 143.32,441.98 143.32,441.56 143.33,441.14 143.34,440.73 143.35,440.31 143.35,439.89 143.35,439.47 143.36,439.05 143.36,438.64 143.37,438.22 143.37,437.80 143.38,437.38 143.39,436.96 143.39,436.55 143.40,436.13 143.41,435.71 143.42,435.29 143.42,434.87 143.43,434.46 143.43,434.04 143.44,433.62 143.45,433.20 143.46,432.78 143.46,432.36 143.46,431.94 143.47,431.53 143.48,431.11 143.49,430.69 143.49,430.27 143.51,429.85 143.51,429.43 143.51,429.01 143.52,428.60 143.52,428.18 143.53,427.76 143.53,427.34 143.54,426.92 143.54,426.50 143.55,426.08 143.56,425.66 143.57,425.24 143.59,424.82 143.60,424.40 143.61,423.99 143.62,423.57 143.63,423.15 143.64,422.73 143.65,422.31 143.66,421.89 143.67,421.47 143.67,421.05 143.68,420.63 143.70,420.21 143.70,419.79 143.71,419.37 143.73,418.95 143.73,418.53 143.75,418.11 143.75,417.69 143.76,417.27 143.77,416.85 143.78,416.43 143.79,416.01 143.80,415.59 143.80,415.17 143.80,414.75 143.81,414.33 143.82,413.91 143.82,413.49 143.83,413.07 143.83,412.65 143.84,412.23 143.85,411.81 143.85,411.39 143.85,410.97 143.86,410.55 143.87,410.13 143.88,409.71 143.88,409.29 143.88,408.87 143.90,408.45 143.91,408.03 143.91,407.61 143.92,407.18 143.93,406.76 143.93,406.34 143.94,405.92 143.95,405.50 143.96,405.08 143.97,404.66 143.97,404.24 143.98,403.82 143.98,403.40 143.99,402.97 143.99,402.55 144.00,402.13 144.01,401.71 144.01,401.29 144.01,400.87 144.02,400.45 144.03,400.03 144.04,399.60 144.05,399.18 144.05,398.76 144.06,398.34 144.07,397.92 144.07,397.50 144.08,397.07 144.11,396.65 144.12,396.23 144.13,395.81 144.14,395.39 144.14,394.97 144.15,394.54 144.16,394.12 144.18,393.70 144.18,393.28 144.19,392.86 144.20,392.43 144.21,392.01 144.21,391.59 144.22,391.17 144.23,390.75 144.24,390.32 144.25,389.90 144.26,389.48 144.27,389.06 144.27,388.63 144.28,388.21 144.29,387.79 144.30,387.37 144.30,386.94 144.31,386.52 144.32,386.10 144.33,385.68 144.34,385.25 144.35,384.83 144.35,384.41 144.37,383.98 144.38,383.56 144.38,383.14 144.39,382.72 144.40,382.29 144.41,381.87 144.42,381.45 144.42,381.02 144.43,380.60 144.44,380.18 144.45,379.75 144.46,379.33 144.47,378.91 144.48,378.48 144.48,378.06 144.50,377.64 144.51,377.21 144.51,376.79 144.53,376.37 144.54,375.94 144.55,375.52 144.56,375.09 144.57,374.67 144.58,374.25 144.58,373.82 144.59,373.40 144.60,372.98 144.61,372.55 144.62,372.13 144.63,371.70 144.63,371.28 144.65,370.86 144.65,370.43 144.66,370.01 144.67,369.58 144.67,369.16 144.68,368.74 144.69,368.31 144.70,367.89 144.72,367.46 144.72,367.04 144.72,366.61 144.73,366.19 144.74,365.76 144.75,365.34 144.76,364.92 144.79,364.49 144.79,364.07 144.81,363.64 144.81,363.22 144.82,362.79 144.83,362.37 144.84,361.94 144.85,361.52 144.86,361.09 144.87,360.67 144.88,360.24 144.90,359.82 144.91,359.39 144.92,358.97 144.93,358.54 144.94,358.12 144.94,357.69 144.95,357.27 144.97,356.84 144.98,356.42 144.98,355.99 145.00,355.56 145.01,355.14 145.02,354.71 145.03,354.29 145.04,353.86 145.05,353.44 145.06,353.01 145.07,352.59 145.08,352.16 145.09,351.73 145.10,351.31 145.11,350.88 145.11,350.46 145.12,350.03 145.13,349.60 145.14,349.18 145.15,348.75 145.15,348.33 145.17,347.90 145.18,347.47 145.20,347.05 145.20,346.62 145.22,346.20 145.22,345.77 145.23,345.34 145.24,344.92 145.25,344.49 145.28,344.06 145.30,343.64 145.31,343.21 145.32,342.78 145.33,342.36 145.34,341.93 145.34,341.50 145.35,341.08 145.36,340.65 145.39,340.22 145.40,339.80 145.40,339.37 145.41,338.94 145.42,338.52 145.44,338.09 145.44,337.66 145.47,337.23 145.48,336.81 145.50,336.38 145.52,335.95 145.54,335.53 145.55,335.10 145.57,334.67 145.58,334.24 145.60,333.82 145.61,333.39 145.63,332.96 145.64,332.53 145.65,332.11 145.65,331.68 145.67,331.25 145.68,330.82 145.70,330.40 145.72,329.97 145.74,329.54 145.76,329.11 145.79,328.69 145.82,328.26 145.83,327.83 145.84,327.40 145.84,326.97 145.85,326.55 145.87,326.12 145.90,325.69 145.93,325.26 145.95,324.83 145.97,324.40 145.98,323.98 146.00,323.55 146.01,323.12 146.02,322.69 146.03,322.26 146.04,321.83 146.05,321.41 146.07,320.98 146.08,320.55 146.11,320.12 146.13,319.69 146.15,319.26 146.18,318.83 146.21,318.40 146.21,317.98 146.22,317.55 146.25,317.12 146.26,316.69 146.27,316.26 146.29,315.83 146.31,315.40 146.33,314.97 146.34,314.54 146.40,314.11 146.41,313.69 146.43,313.26 146.45,312.83 146.45,312.40 146.50,311.97 146.53,311.54 146.55,311.11 146.58,310.68 146.63,310.25 146.64,309.82 146.66,309.39 146.70,308.96 146.74,308.53 146.78,308.10 146.81,307.67 146.85,307.24 146.89,306.81 146.96,306.38 146.98,305.95 147.02,305.52 147.05,305.09 147.12,304.66 147.14,304.23 147.16,303.80 147.21,303.37 147.25,302.94 147.29,302.51 147.35,302.08 147.36,301.65 147.37,301.22 147.41,300.79 147.46,300.36 147.56,299.93 147.68,299.50 147.76,299.07 147.87,298.64 148.03,298.21 148.21,297.78 148.32,297.35 148.40,296.92 148.55,296.49 148.96,296.05 149.46,295.62 149.73,295.19 149.89,294.76 150.35,294.33 151.61,293.90 153.26,293.47 153.41,293.04 154.50,292.61 155.87,292.18 156.92,291.74 158.27,291.31 159.90,290.88 160.32,290.45 160.90,290.02 161.24,289.59 162.96,289.16 163.57,288.72 168.12,288.29 171.01,287.86 172.35,287.43 172.66,287.00 181.97,286.57 183.35,286.14 183.84,285.70 184.08,285.27 184.27,284.84 184.51,284.41 184.62,283.98 185.16,283.54 185.26,283.11 185.29,282.68 185.43,282.25 185.58,281.82 185.67,281.38 185.77,280.95 185.87,280.52 185.91,280.09 186.00,279.66 186.10,279.22 186.14,278.79 186.20,278.36 186.26,277.93 186.32,277.49 186.41,277.06 186.43,276.63 186.49,276.20 186.53,275.76 186.58,275.33 186.62,274.90 186.69,274.46 186.77,274.03 186.80,273.60 186.83,273.17 186.87,272.73 186.88,272.30 186.90,271.87 186.93,271.43 187.05,271.00 187.07,270.57 187.08,270.14 187.09,269.70 187.11,269.27 187.14,268.84 187.15,268.40 187.18,267.97 187.22,267.54 187.23,267.10 187.25,266.67 187.35,266.23 187.39,265.80 187.47,265.37 187.49,264.93 187.52,264.50 187.54,264.07 187.63,263.63 187.65,263.20 187.66,262.77 187.69,262.33 187.71,261.90 187.74,261.46 187.78,261.03 187.85,260.60 187.90,260.16 187.95,259.73 187.97,259.29 187.98,258.86 188.01,258.43 188.05,257.99 188.10,257.56 188.13,257.12 188.15,256.69 188.20,256.25 188.30,255.82 188.31,255.38 188.34,254.95 188.37,254.52 188.41,254.08 188.44,253.65 188.48,253.21 188.50,252.78 188.53,252.34 188.55,251.91 188.60,251.47 188.62,251.04 188.65,250.60 188.68,250.17 188.71,249.73 188.73,249.30 188.76,248.86 188.77,248.43 188.78,247.99 188.81,247.56 188.84,247.12 188.86,246.69 188.92,246.25 188.93,245.82 188.95,245.38 188.97,244.95 188.99,244.51 189.01,244.07 189.03,243.64 189.06,243.20 189.08,242.77 189.09,242.33 189.14,241.90 189.18,241.46 189.19,241.03 189.20,240.59 189.21,240.15 189.24,239.72 189.26,239.28 189.30,238.85 189.34,238.41 189.37,237.97 189.39,237.54 189.42,237.10 189.44,236.67 189.46,236.23 189.47,235.79 189.49,235.36 189.54,234.92 189.55,234.48 189.57,234.05 189.58,233.61 189.58,233.17 189.61,232.74 189.64,232.30 189.66,231.86 189.67,231.43 189.73,230.99 189.73,230.55 189.76,230.12 189.77,229.68 189.82,229.24 189.82,228.81 189.85,228.37 189.91,227.93 189.95,227.50 190.00,227.06 190.02,226.62 190.05,226.19 190.08,225.75 190.09,225.31 190.10,224.87 190.11,224.44 190.13,224.00 190.16,223.56 190.19,223.12 190.21,222.69 190.26,222.25 190.28,221.81 190.31,221.37 190.38,220.94 190.42,220.50 190.44,220.06 190.45,219.62 190.51,219.19 190.52,218.75 190.56,218.31 190.59,217.87 190.62,217.44 190.65,217.00 190.70,216.56 190.71,216.12 190.72,215.68 190.77,215.25 190.79,214.81 190.82,214.37 190.86,213.93 190.90,213.49 190.94,213.05 190.96,212.62 190.96,212.18 190.99,211.74 191.00,211.30 191.06,210.86 191.08,210.42 191.10,209.98 191.10,209.55 191.12,209.11 191.13,208.67 191.16,208.23 191.18,207.79 191.21,207.35 191.23,206.91 191.26,206.47 191.28,206.04 191.28,205.60 191.33,205.16 191.35,204.72 191.38,204.28 191.40,203.84 191.42,203.40 191.42,202.96 191.44,202.52 191.47,202.08 191.49,201.64 191.50,201.21 191.56,200.77 191.57,200.33 191.61,199.89 191.64,199.45 191.67,199.01 191.68,198.57 191.70,198.13 191.74,197.69 191.75,197.25 191.79,196.81 191.83,196.37 191.85,195.93 191.89,195.49 191.91,195.05 191.95,194.61 191.96,194.17 191.99,193.73 191.99,193.29 192.01,192.85 192.03,192.41 192.05,191.97 192.10,191.53 192.13,191.09 192.15,190.65 192.17,190.21 192.21,189.77 192.26,189.33 192.27,188.89 192.30,188.45 192.35,188.01 192.45,187.57 192.48,187.12 192.51,186.68 192.52,186.24 192.56,185.80 192.57,185.36 192.59,184.92 192.62,184.48 192.66,184.04 192.70,183.60 192.78,183.16 192.83,182.72 192.90,182.28 192.92,181.83 192.94,181.39 192.96,180.95 193.06,180.51 193.07,180.07 193.12,179.63 193.13,179.19 193.16,178.75 193.19,178.30 193.22,177.86 193.26,177.42 193.27,176.98 193.30,176.54 193.31,176.10 193.32,175.65 193.36,175.21 193.40,174.77 193.40,174.33 193.44,173.89 193.46,173.45 193.53,173.00 193.60,172.56 193.64,172.12 193.67,171.68 193.72,171.24 193.77,170.79 193.78,170.35 193.82,169.91 193.84,169.47 193.90,169.02 193.93,168.58 193.98,168.14 194.03,167.70 194.06,167.26 194.07,166.81 194.11,166.37 194.17,165.93 194.20,165.48 194.25,165.04 194.33,164.60 194.36,164.16 194.44,163.71 194.46,163.27 194.62,162.83 194.68,162.39 194.78,161.94 194.84,161.50 194.91,161.06 194.99,160.61 195.07,160.17 195.17,159.73 195.23,159.28 195.43,158.84 195.54,158.40 195.58,157.95 195.65,157.51 195.72,157.07 195.79,156.62 195.80,156.18 195.81,155.74 196.00,155.29 196.18,154.85 196.24,154.41 196.42,153.96 196.78,153.52 197.01,153.08 197.23,152.63 197.46,152.19 197.69,151.75 197.80,151.30 198.90,150.86 199.43,150.41 201.57,149.97 203.80,149.53 207.31,149.08 208.99,148.64 212.51,148.19 215.40,147.75 217.17,147.30 220.03,146.86 229.19,146.42 231.90,145.97 240.83,145.53 259.20,145.08 277.97,144.64 278.58,144.19 279.02,143.75 280.23,143.31 280.94,142.86 281.25,142.42 281.44,141.97 281.54,141.53 281.70,141.08 281.88,140.64 281.98,140.19 282.10,139.75 282.27,139.30 282.45,138.86 282.49,138.41 282.55,137.97 282.75,137.52 282.83,137.08 282.97,136.63 283.10,136.19 283.20,135.74 283.35,135.30 283.39,134.85 283.43,134.41 283.63,133.96 283.76,133.51 283.84,133.07 284.00,132.62 284.03,132.18 284.23,131.73 284.32,131.29 284.47,130.84 284.52,130.39 284.58,129.95 284.61,129.50 284.71,129.06 284.89,128.61 284.96,128.17 285.03,127.72 285.07,127.27 285.13,126.83 285.16,126.38 285.20,125.94 285.24,125.49 285.35,125.04 285.39,124.60 285.43,124.15 285.47,123.70 285.52,123.26 285.57,122.81 285.60,122.36 285.62,121.92 285.68,121.47 285.75,121.02 285.86,120.58 285.87,120.13 285.89,119.68 285.95,119.24 285.97,118.79 286.02,118.34 286.07,117.90 286.10,117.45 286.18,117.00 286.39,116.56 286.45,116.11 286.49,115.66 286.54,115.22 286.57,114.77 286.64,114.32 286.67,113.87 286.74,113.43 286.82,112.98 286.83,112.53 286.93,112.08 286.95,111.64 287.01,111.19 287.02,110.74 287.04,110.29 287.07,109.85 287.17,109.40 287.28,108.95 287.40,108.50 287.46,108.06 287.48,107.61 287.52,107.16 287.57,106.71 287.59,106.26 287.61,105.82 287.76,105.37 287.78,104.92 287.85,104.47 287.87,104.02 287.94,103.58 287.97,103.13 288.06,102.68 288.07,102.23 288.18,101.78 288.21,101.34 288.31,100.89 288.39,100.44 288.42,99.99 288.51,99.54 288.52,99.09 288.56,98.64 288.59,98.20 288.64,97.75 288.72,97.30 288.78,96.85 288.90,96.40 289.00,95.95 289.07,95.50 289.14,95.05 289.19,94.61 289.24,94.16 289.29,93.71 289.37,93.26 289.49,92.81 289.53,92.36 289.56,91.91 289.70,91.46 289.72,91.01 289.86,90.56 290.00,90.11 290.11,89.66 290.20,89.21 290.33,88.76 290.37,88.32 290.43,87.87 290.44,87.42 290.56,86.97 290.63,86.52 290.71,86.07 290.73,85.62 290.97,85.17 291.03,84.72 291.21,84.27 291.54,83.82 291.69,83.37 291.80,82.92 291.84,82.47 292.00,82.02 292.16,81.57 292.25,81.12 292.34,80.67 292.42,80.22 292.48,79.77 292.58,79.32 292.72,78.87 292.81,78.42 293.01,77.96 293.12,77.51 293.24,77.06 293.41,76.61 293.54,76.16 293.75,75.71 293.85,75.26 294.15,74.81 294.72,74.36 295.12,73.91 297.86,73.46 312.51,73.01 323.62,72.56 332.34,72.11 335.14,71.65 341.06,71.20 349.92,70.75 378.77,70.30 385.51,70.00 900.00,70.00" fill="none" stroke="#17becf" stroke-width="2.0"/>
<rect x="86" y="514" width="90" height="20" fill="white" fill-opacity="0.85" stroke="#888"/>
<text x="92" y="528" font-weight="bold" fill="#17becf">n = 16</text>
</svg>