<svg xmlns="http://www.w3.org/2000/svg" viewBox="0 0 960 600" font-family="Helvetica, Arial, sans-serif" font-size="12">
<rect width="100%" height="100%" fill="white"/>
<text x="480.0" y="22" text-anchor="middle" font-size="16" font-weight="bold">Chunking benefit: n = 1 parallel chunks (pointwise 95% bootstrap CI)</text>
<text x="480.0" y="40" text-anchor="middle" fill="#555">size=12500 kB, link=1000 Mbps, RTT=50 ms, p=1.00e-04</text>
<text x="480.0" y="56" text-anchor="middle" fill="#555">scenario=optimistic, runs=500000, bootstrap B=500; curve is F_chunk(t)^n</text>
<rect x="80" y="70" width="820" height="470" fill="#fafafa" stroke="#888"/>
<line x1="80.00" y1="70" x2="80.00" y2="540" stroke="#e0e0e0"/>
<text x="80.00" y="556" text-anchor="middle" fill="#333">0.000</text>
<line x1="182.50" y1="70" x2="182.50" y2="540" stroke="#e0e0e0"/>
<text x="182.50" y="556" text-anchor="middle" fill="#333">0.902</text>
<line x1="285.00" y1="70" x2="285.00" y2="540" stroke="#e0e0e0"/>
<text x="285.00" y="556" text-anchor="middle" fill="#333">1.80</text>
<line x1="387.50" y1="70" x2="387.50" y2="540" stroke="#e0e0e0"/>
<text x="387.50" y="556" text-anchor="middle" fill="#333">2.71</text>
<line x1="490.00" y1="70" x2="490.00" y2="540" stroke="#e0e0e0"/>
<text x="490.00" y="556" text-anchor="middle" fill="#333">3.61</text>
<line x1="592.50" y1="70" x2="592.50" y2="540" stroke="#e0e0e0"/>
<text x="592.50" y="556" text-anchor="middle" fill="#333">4.51</text>
<line x1="695.00" y1="70" x2="695.00" y2="540" stroke="#e0e0e0"/>
<text x="695.00" y="556" text-anchor="middle" fill="#333">5.41</text>
<line x1="797.50" y1="70" x2="797.50" y2="540" stroke="#e0e0e0"/>
<text x="797.50" y="556" text-anchor="middle" fill="#333">6.32</text>
<line x1="900.00" y1="70" x2="900.00" y2="540" stroke="#e0e0e0"/>
<text x="900.00" y="556" text-anchor="middle" fill="#333">7.22</text>
<line x1="80" y1="540.00" x2="900" y2="540.00" stroke="#e0e0e0"/>
<text x="72" y="544.00" text-anchor="end" fill="#333">0.0</text>
<line x1="80" y1="493.00" x2="900" y2="493.00" stroke="#e0e0e0"/>
<text x="72" y="497.00" text-anchor="end" fill="#333">0.1</text>
<line x1="80" y1="446.00" x2="900" y2="446.00" stroke="#e0e0e0"/>
<text x="72" y="450.00" text-anchor="end" fill="#333">0.2</text>
<line x1="80" y1="399.00" x2="900" y2="399.00" stroke="#e0e0e0"/>
<text x="72" y="403.00" text-anchor="end" fill="#333">0.3</text>
<line x1="80" y1="352.00" x2="900" y2="352.00" stroke="#e0e0e0"/>
<text x="72" y="356.00" text-anchor="end" fill="#333">0.4</text>
<line x1="80" y1="305.00" x2="900" y2="305.00" stroke="#e0e0e0"/>
<text x="72" y="309.00" text-anchor="end" fill="#333">0.5</text>
<line x1="80" y1="258.00" x2="900" y2="258.00" stroke="#e0e0e0"/>
<text x="72" y="262.00" text-anchor="end" fill="#333">0.6</text>
<line x1="80" y1="211.00" x2="900" y2="211.00" stroke="#e0e0e0"/>
<text x="72" y="215.00" text-anchor="end" fill="#333">0.7</text>
<line x1="80" y1="164.00" x2="900" y2="164.00" stroke="#e0e0e0"/>
<text x="72" y="168.00" text-anchor="end" fill="#333">0.8</text>
<line x1="80" y1="117.00" x2="900" y2="117.00" stroke="#e0e0e0"/>
<text x="72" y="121.00" text-anchor="end" fill="#333">0.9</text>
<line x1="80" y1="70.00" x2="900" y2="70.00" stroke="#e0e0e0"/>
<text x="72" y="74.00" text-anchor="end" fill="#333">1.0</text>
<line x1="80" y1="74.70" x2="900" y2="74.70" stroke="#888" stroke-width="1" stroke-dasharray="4,4"/>
<text x="894.00" y="70.70" text-anchor="end" fill="#555" font-style="italic">P99</text>
<text x="490.0" y="585" text-anchor="middle">Download time (seconds)</text>
<text transform="translate(20,305.0) rotate(-90)" text-anchor="middle">Cumulative probability  (whole-file)</text>
<polygon points="80.00,540.00 126.32,540.00 129.89,539.48 130.42,539.00 130.74,538.52 130.99,538.04 131.19,537.55 131.36,537.08 131.50,536.61 131.61,536.14 131.73,535.66 131.83,535.17 131.92,534.69 132.01,534.21 132.09,533.74 132.17,533.26 132.24,532.78 132.31,532.31 132.38,531.84 132.44,531.39 132.50,530.92 132.56,530.41 132.61,529.91 132.67,529.47 132.72,529.00 132.77,528.49 132.82,528.02 132.86,527.58 132.91,527.10 132.95,526.61 132.99,526.18 133.03,525.65 133.07,525.21 133.11,524.73 133.15,524.25 133.19,523.78 133.23,523.32 133.27,522.85 133.30,522.36 133.34,521.87 133.37,521.43 133.40,520.96 133.43,520.47 133.46,519.98 133.50,519.52 133.53,519.04 133.56,518.58 133.59,518.12 133.62,517.63 133.65,517.17 133.68,516.69 133.71,516.25 133.74,515.75 133.77,515.28 133.79,514.79 133.82,514.33 133.85,513.86 133.87,513.39 133.90,512.92 133.93,512.45 133.95,511.91 133.98,511.51 134.00,511.00 134.02,510.55 134.04,510.11 134.07,509.61 134.09,509.10 134.12,508.67 134.14,508.21 134.16,507.70 134.18,507.28 134.20,506.76 134.23,506.27 134.25,505.83 134.27,505.35 134.29,504.85 134.31,504.40 134.33,503.92 134.35,503.43 134.37,503.00 134.39,502.51 134.41,502.03 134.43,501.56 134.45,501.11 134.47,500.62 134.49,500.13 134.51,499.68 134.53,499.23 134.55,498.77 134.57,498.26 134.59,497.79 134.61,497.36 134.63,496.84 134.65,496.40 134.67,495.91 134.68,495.41 134.70,494.93 134.72,494.51 134.74,494.02 134.76,493.53 134.77,493.06 134.79,492.55 134.81,492.16 134.83,491.70 134.85,491.20 134.86,490.73 134.88,490.21 134.90,489.80 134.91,489.32 134.93,488.81 134.95,488.37 134.96,487.88 134.98,487.41 135.00,486.94 135.01,486.47 135.03,485.98 135.04,485.52 135.06,485.06 135.08,484.61 135.09,484.10 135.11,483.67 135.12,483.17 135.14,482.74 135.16,482.22 135.17,481.79 135.19,481.27 135.20,480.82 135.22,480.35 135.23,479.92 135.25,479.42 135.26,478.95 135.28,478.51 135.29,478.01 135.31,477.50 135.32,476.97 135.34,476.56 135.35,476.06 135.37,475.67 135.38,475.17 135.40,474.69 135.41,474.24 135.42,473.75 135.44,473.29 135.46,472.75 135.47,472.27 135.48,471.82 135.50,471.40 135.52,470.95 135.53,470.44 135.54,469.98 135.56,469.52 135.57,469.08 135.59,468.57 135.60,468.12 135.61,467.59 135.63,467.11 135.64,466.71 135.66,466.27 135.67,465.75 135.68,465.27 135.70,464.80 135.71,464.31 135.72,463.83 135.74,463.36 135.75,462.88 135.76,462.45 135.78,461.97 135.79,461.52 135.80,461.04 135.81,460.54 135.83,460.04 135.84,459.61 135.85,459.11 135.87,458.67 135.88,458.18 135.89,457.70 135.90,457.25 135.92,456.84 135.93,456.29 135.94,455.87 135.96,455.37 135.97,454.90 135.98,454.40 135.99,453.99 136.01,453.51 136.02,453.05 136.03,452.54 136.04,452.11 136.06,451.61 136.07,451.13 136.08,450.65 136.10,450.23 136.11,449.69 136.12,449.29 136.13,448.79 136.15,448.31 136.16,447.86 136.17,447.40 136.18,446.87 136.19,446.43 136.21,445.96 136.22,445.47 136.23,444.99 136.24,444.59 136.26,444.08 136.27,443.60 136.28,443.05 136.29,442.66 136.30,442.16 136.32,441.72 136.33,441.25 136.34,440.77 136.35,440.21 136.37,439.86 136.38,439.37 136.39,438.93 136.40,438.43 136.41,437.94 136.42,437.52 136.44,436.94 136.45,436.51 136.46,436.09 136.47,435.57 136.48,435.12 136.50,434.62 136.51,434.14 136.52,433.70 136.53,433.27 136.54,432.80 136.55,432.24 136.57,431.83 136.58,431.35 136.59,430.89 136.60,430.34 136.61,429.94 136.62,429.51 136.64,429.01 136.65,428.46 136.66,428.07 136.67,427.58 136.68,427.08 136.69,426.69 136.70,426.07 136.71,425.71 136.73,425.22 136.74,424.80 136.75,424.26 136.76,423.86 136.77,423.37 136.78,422.84 136.80,422.42 136.81,421.94 136.82,421.45 136.83,420.98 136.84,420.48 136.85,420.05 136.86,419.59 136.88,419.13 136.89,418.62 136.90,418.17 136.91,417.73 136.92,417.23 136.93,416.75 136.94,416.29 136.95,415.86 136.97,415.38 136.98,414.87 136.99,414.34 137.00,413.95 137.01,413.41 137.02,413.03 137.03,412.53 137.04,412.04 137.05,411.56 137.06,411.10 137.08,410.62 137.09,410.16 137.10,409.69 137.11,409.27 137.12,408.77 137.13,408.26 137.14,407.76 137.15,407.43 137.16,406.86 137.17,406.36 137.18,405.89 137.19,405.52 137.21,405.00 137.22,404.47 137.23,404.03 137.24,403.61 137.25,403.09 137.26,402.62 137.27,402.14 137.28,401.77 137.30,401.22 137.31,400.77 137.32,400.31 137.33,399.81 137.34,399.36 137.35,398.84 137.36,398.34 137.37,397.84 137.39,397.50 137.40,397.07 137.41,396.50 137.42,396.09 137.43,395.59 137.44,395.10 137.45,394.63 137.46,394.20 137.47,393.73 137.48,393.20 137.49,392.80 137.51,392.29 137.52,391.81 137.53,391.35 137.54,390.85 137.55,390.37 137.56,389.94 137.57,389.50 137.58,389.00 137.59,388.51 137.61,388.07 137.62,387.61 137.63,387.11 137.64,386.59 137.65,386.20 137.66,385.73 137.67,385.24 137.68,384.73 137.69,384.34 137.70,383.80 137.72,383.40 137.73,382.87 137.74,382.41 137.75,381.96 137.76,381.49 137.77,380.93 137.78,380.49 137.80,379.96 137.81,379.56 137.82,379.12 137.83,378.64 137.84,378.11 137.85,377.66 137.86,377.26 137.88,376.76 137.89,376.35 137.90,375.82 137.91,375.34 137.92,374.85 137.93,374.35 137.94,373.95 137.96,373.48 137.97,373.02 137.98,372.52 137.99,371.99 138.00,371.66 138.01,371.12 138.02,370.69 138.04,370.17 138.05,369.75 138.06,369.16 138.07,368.70 138.08,368.25 138.09,367.83 138.10,367.34 138.11,366.86 138.12,366.43 138.14,365.98 138.15,365.46 138.16,365.06 138.17,364.53 138.18,364.01 138.19,363.55 138.21,363.11 138.22,362.60 138.23,362.17 138.24,361.76 138.25,361.22 138.26,360.69 138.28,360.30 138.29,359.87 138.30,359.36 138.31,358.87 138.32,358.43 138.34,357.90 138.35,357.49 138.36,356.93 138.37,356.53 138.38,356.03 138.39,355.56 138.40,355.11 138.42,354.66 138.43,354.20 138.44,353.75 138.45,353.27 138.46,352.81 138.47,352.30 138.48,351.81 138.50,351.36 138.51,350.90 138.52,350.46 138.53,350.03 138.54,349.55 138.56,349.00 138.57,348.51 138.58,348.06 138.59,347.64 138.60,347.11 138.61,346.55 138.63,346.17 138.64,345.67 138.65,345.28 138.66,344.79 138.67,344.39 138.69,343.80 138.70,343.38 138.71,342.88 138.72,342.43 138.74,341.98 138.75,341.50 138.76,341.00 138.77,340.58 138.78,340.07 138.80,339.62 138.81,339.16 138.82,338.65 138.83,338.14 138.84,337.68 138.86,337.26 138.87,336.76 138.88,336.35 138.89,335.80 138.91,335.31 138.92,334.88 138.93,334.48 138.94,333.99 138.95,333.59 138.97,333.05 138.98,332.59 138.99,332.06 139.00,331.62 139.02,331.09 139.03,330.69 139.04,330.20 139.05,329.74 139.07,329.27 139.08,328.80 139.09,328.29 139.11,327.83 139.12,327.41 139.13,326.77 139.15,326.45 139.16,325.88 139.17,325.43 139.18,325.06 139.20,324.63 139.21,324.15 139.22,323.64 139.24,323.18 139.25,322.71 139.26,322.22 139.28,321.74 139.29,321.29 139.30,320.80 139.32,320.31 139.33,319.83 139.34,319.35 139.36,318.92 139.37,318.48 139.38,318.03 139.40,317.49 139.41,317.06 139.43,316.49 139.44,316.10 139.45,315.61 139.47,315.19 139.48,314.69 139.50,314.24 139.51,313.74 139.52,313.27 139.54,312.83 139.55,312.29 139.57,311.91 139.58,311.44 139.60,310.93 139.61,310.44 139.63,309.99 139.64,309.52 139.65,309.00 139.67,308.59 139.68,308.13 139.69,307.67 139.71,307.16 139.72,306.68 139.74,306.24 139.75,305.77 139.77,305.28 139.78,304.83 139.80,304.35 139.81,303.85 139.82,303.41 139.84,302.93 139.85,302.48 139.87,302.04 139.89,301.44 139.90,300.99 139.92,300.60 139.93,300.19 139.95,299.65 139.96,299.19 139.98,298.69 139.99,298.26 140.00,297.78 140.02,297.28 140.04,296.92 140.05,296.42 140.07,295.87 140.08,295.43 140.10,294.96 140.11,294.44 140.13,293.90 140.14,293.55 140.16,293.10 140.17,292.67 140.19,292.07 140.20,291.63 140.22,291.19 140.24,290.72 140.25,290.28 140.27,289.73 140.29,289.29 140.30,288.85 140.32,288.35 140.33,287.95 140.35,287.42 140.37,286.96 140.38,286.49 140.40,285.98 140.42,285.49 140.43,285.10 140.45,284.66 140.47,284.09 140.49,283.70 140.50,283.18 140.52,282.78 140.54,282.23 140.55,281.84 140.57,281.39 140.59,280.85 140.61,280.34 140.62,279.93 140.64,279.42 140.66,278.98 140.68,278.59 140.70,278.09 140.71,277.57 140.73,277.09 140.75,276.61 140.77,276.18 140.78,275.73 140.80,275.17 140.82,274.80 140.84,274.25 140.86,273.80 140.87,273.31 140.89,272.87 140.91,272.40 140.93,271.92 140.95,271.46 140.97,270.90 140.99,270.49 141.01,270.01 141.03,269.57 141.05,269.09 141.06,268.64 141.08,268.20 141.10,267.74 141.12,267.22 141.14,266.76 141.16,266.28 141.18,265.73 141.20,265.33 141.22,264.96 141.24,264.39 141.26,263.93 141.28,263.37 141.30,263.02 141.32,262.54 141.34,262.10 141.36,261.64 141.39,261.07 141.41,260.59 141.43,260.10 141.45,259.67 141.47,259.32 141.49,258.78 141.51,258.33 141.53,257.87 141.56,257.45 141.58,256.88 141.60,256.41 141.62,255.98 141.64,255.43 141.66,254.96 141.69,254.53 141.71,254.08 141.73,253.52 141.76,253.12 141.78,252.67 141.80,252.18 141.82,251.73 141.85,251.34 141.87,250.76 141.90,250.29 141.92,249.88 141.94,249.43 141.97,248.81 141.99,248.45 142.02,248.02 142.04,247.53 142.06,247.02 142.09,246.54 142.11,246.13 142.14,245.55 142.16,245.14 142.19,244.72 142.21,244.24 142.24,243.81 142.26,243.23 142.29,242.80 142.32,242.33 142.34,241.89 142.37,241.37 142.40,240.90 142.42,240.48 142.45,240.08 142.48,239.61 142.51,239.04 142.53,238.59 142.56,238.12 142.59,237.64 142.62,237.17 142.65,236.71 142.67,236.21 142.70,235.82 142.73,235.22 142.76,234.75 142.79,234.35 142.82,233.85 142.85,233.42 142.88,232.97 142.91,232.46 142.94,232.04 142.97,231.56 143.00,231.08 143.03,230.60 143.06,230.10 143.09,229.74 143.13,229.18 143.16,228.71 143.19,228.18 143.22,227.83 143.25,227.28 143.28,226.88 143.32,226.37 143.35,225.87 143.38,225.40 143.41,225.03 143.45,224.52 143.48,223.94 143.52,223.47 143.55,223.09 143.58,222.56 143.62,222.12 143.66,221.60 143.69,221.15 143.73,220.79 143.76,220.25 143.80,219.77 143.84,219.25 143.88,218.81 143.92,218.35 143.96,217.89 143.99,217.51 144.03,216.94 144.07,216.48 144.11,216.03 144.15,215.57 144.18,215.17 144.23,214.54 144.27,214.18 144.31,213.73 144.35,213.24 144.39,212.79 144.43,212.34 144.47,211.86 144.51,211.31 144.56,210.91 144.60,210.36 144.65,209.97 144.69,209.52 144.74,209.08 144.78,208.49 144.83,208.07 144.88,207.58 144.93,207.12 144.98,206.67 145.03,206.16 145.08,205.71 145.13,205.27 145.18,204.77 145.23,204.38 145.28,203.83 145.33,203.35 145.38,202.87 145.44,202.38 145.50,201.99 145.55,201.50 145.61,201.03 145.67,200.55 145.73,200.09 145.79,199.59 145.84,199.12 145.91,198.69 145.97,198.12 146.03,197.78 146.09,197.33 146.16,196.82 146.23,196.33 146.30,195.80 146.37,195.36 146.44,194.92 146.50,194.47 146.58,193.99 146.65,193.55 146.74,193.04 146.82,192.53 146.90,192.17 146.98,191.68 147.07,191.12 147.16,190.72 147.25,190.23 147.35,189.77 147.45,189.30 147.55,188.88 147.66,188.37 147.76,187.81 147.86,187.44 147.97,186.92 148.09,186.47 148.21,185.99 148.32,185.52 148.44,185.04 148.57,184.65 148.72,184.01 148.87,183.69 149.03,183.15 149.18,182.75 149.36,182.18 149.53,181.78 149.71,181.28 149.91,180.83 150.10,180.38 150.30,179.90 150.54,179.43 150.79,178.95 151.06,178.50 151.36,178.04 151.71,177.55 152.10,177.10 152.62,176.60 153.26,176.11 154.06,175.68 155.71,175.25 158.57,174.68 159.71,174.29 160.40,173.78 160.89,173.32 161.28,172.82 161.61,172.35 161.90,171.94 162.19,171.44 162.43,171.00 162.64,170.48 162.84,170.03 163.03,169.59 163.20,169.11 163.38,168.66 163.55,168.15 163.71,167.69 163.87,167.28 164.03,166.75 164.19,166.28 164.33,165.80 164.47,165.35 164.61,164.93 164.73,164.46 164.85,163.96 164.98,163.43 165.11,163.05 165.24,162.57 165.36,162.10 165.49,161.55 165.62,161.09 165.76,160.66 165.87,160.19 166.00,159.74 166.12,159.26 166.24,158.77 166.35,158.34 166.47,157.90 166.59,157.38 166.71,156.95 166.84,156.45 166.97,156.01 167.09,155.55 167.21,155.01 167.34,154.60 167.47,154.09 167.61,153.61 167.74,153.14 167.88,152.71 168.02,152.20 168.15,151.73 168.29,151.28 168.45,150.84 168.59,150.32 168.75,149.87 168.92,149.42 169.09,148.94 169.26,148.45 169.44,148.01 169.62,147.52 169.80,146.99 170.01,146.60 170.23,146.10 170.45,145.70 170.68,145.22 170.93,144.72 171.19,144.26 171.49,143.73 171.82,143.33 172.15,142.89 172.52,142.35 172.92,141.88 173.36,141.46 173.83,141.00 174.30,140.49 174.86,140.01 175.38,139.55 175.94,139.11 176.48,138.63 177.01,138.11 177.57,137.68 178.15,137.24 178.71,136.76 179.31,136.28 179.90,135.85 180.45,135.35 181.06,134.87 181.72,134.44 182.37,133.92 183.08,133.42 183.76,133.00 184.47,132.53 185.23,132.04 186.05,131.55 186.85,131.13 187.64,130.67 188.58,130.19 189.52,129.72 190.56,129.27 191.70,128.80 193.11,128.28 195.05,127.84 197.98,127.37 201.08,126.90 203.40,126.43 204.89,125.99 205.88,125.47 206.60,125.03 207.31,124.55 207.82,124.13 208.29,123.64 208.78,123.18 209.20,122.70 209.57,122.21 209.92,121.74 210.27,121.33 210.63,120.84 210.97,120.39 211.29,119.86 211.63,119.37 211.95,118.98 212.29,118.46 212.59,117.97 212.92,117.53 213.24,117.06 213.59,116.58 213.92,116.15 214.28,115.67 214.64,115.19 215.05,114.71 215.46,114.25 215.97,113.79 216.44,113.32 216.94,112.89 217.54,112.38 218.21,111.90 219.06,111.45 220.06,110.94 221.46,110.50 223.23,110.07 225.32,109.59 227.49,109.10 229.76,108.65 231.96,108.21 234.49,107.70 236.85,107.26 239.21,106.76 241.19,106.34 243.19,105.86 245.08,105.37 247.09,104.91 249.25,104.41 251.47,103.93 253.71,103.54 255.79,103.03 258.14,102.54 260.32,102.08 262.99,101.66 266.39,101.19 271.89,100.69 281.39,100.25 288.04,99.74 290.66,99.27 292.42,98.81 293.69,98.29 294.74,97.90 295.79,97.43 296.70,96.95 297.57,96.50 298.39,96.01 299.24,95.55 300.12,95.11 301.10,94.61 302.12,94.17 303.25,93.70 304.46,93.18 306.27,92.75 309.05,92.30 313.16,91.82 318.72,91.32 324.65,90.89 330.82,90.41 337.01,89.94 343.52,89.46 350.56,89.03 357.81,88.56 364.20,88.11 370.70,87.63 377.96,87.15 384.96,86.65 392.88,86.21 404.96,85.75 431.69,85.28 443.22,84.83 446.48,84.36 448.64,83.89 450.63,83.41 452.40,82.93 454.70,82.48 457.18,82.01 461.79,81.54 474.21,81.07 490.94,80.62 507.37,80.13 523.76,79.67 543.26,79.24 567.40,78.74 592.23,78.29 626.14,77.83 684.90,77.35 736.52,76.88 744.44,76.42 751.29,75.95 760.63,75.49 785.53,75.03 843.22,74.57 843.94,74.56 845.02,74.55 845.53,74.55 846.78,74.52 847.42,74.51 848.08,74.53 849.23,74.51 850.16,74.49 850.86,74.48 851.68,74.48 853.03,74.46 853.73,74.45 854.62,74.46 855.78,74.44 857.51,74.43 858.60,74.42 859.63,74.41 860.60,74.40 861.36,74.40 862.32,74.38 862.93,74.38 864.99,74.37 866.03,74.36 867.08,74.34 867.96,74.34 868.60,74.33 869.94,74.31 871.42,74.32 873.07,74.29 874.79,74.29 875.56,74.28 876.65,74.28 878.21,74.25 879.62,74.26 881.60,74.25 882.79,74.24 884.12,74.23 885.57,74.22 887.00,74.20 888.60,74.19 890.05,74.20 891.25,74.19 893.99,74.17 895.15,74.16 896.90,74.15 898.31,74.14 898.98,74.13 899.91,74.11 900.00,74.13 900.00,74.38 899.91,74.37 898.98,74.39 898.31,74.38 896.90,74.39 895.15,74.40 893.99,74.43 891.25,74.42 890.05,74.45 888.60,74.45 887.00,74.45 885.57,74.46 884.12,74.46 882.79,74.48 881.60,74.48 879.62,74.52 878.21,74.52 876.65,74.52 875.56,74.54 874.79,74.54 873.07,74.55 871.42,74.56 869.94,74.58 868.60,74.58 867.96,74.58 867.08,74.60 866.03,74.61 864.99,74.62 862.93,74.63 862.32,74.63 861.36,74.64 860.60,74.65 859.63,74.67 858.60,74.69 857.51,74.68 855.78,74.69 854.62,74.71 853.73,74.72 853.03,74.72 851.68,74.75 850.86,74.76 850.16,74.77 849.23,74.75 848.08,74.79 847.42,74.78 846.78,74.78 845.53,74.80 845.02,74.79 843.94,74.81 843.22,74.82 785.53,75.32 760.63,75.77 751.29,76.26 744.44,76.74 736.52,77.20 684.90,77.67 626.14,78.16 592.23,78.64 567.40,79.10 543.26,79.58 523.76,80.04 507.37,80.53 490.94,80.99 474.21,81.47 461.79,81.94 457.18,82.40 454.70,82.91 452.40,83.35 450.63,83.84 448.64,84.32 446.48,84.80 443.22,85.28 431.69,85.72 404.96,86.22 392.88,86.68 384.96,87.14 377.96,87.64 370.70,88.13 364.20,88.58 357.81,89.05 350.56,89.54 343.52,89.99 337.01,90.48 330.82,90.97 324.65,91.43 318.72,91.89 313.16,92.35 309.05,92.83 306.27,93.31 304.46,93.79 303.25,94.27 302.12,94.72 301.10,95.19 300.12,95.68 299.24,96.14 298.39,96.64 297.57,97.07 296.70,97.56 295.79,98.04 294.74,98.50 293.69,98.99 292.42,99.47 290.66,99.94 288.04,100.36 281.39,100.87 271.89,101.35 266.39,101.81 262.99,102.29 260.32,102.74 258.14,103.22 255.79,103.68 253.71,104.18 251.47,104.66 249.25,105.13 247.09,105.54 245.08,106.05 243.19,106.54 241.19,107.04 239.21,107.47 236.85,107.90 234.49,108.44 231.96,108.86 229.76,109.35 227.49,109.84 225.32,110.29 223.23,110.79 221.46,111.29 220.06,111.69 219.06,112.19 218.21,112.66 217.54,113.12 216.94,113.62 216.44,114.11 215.97,114.52 215.46,115.01 215.05,115.49 214.64,115.97 214.28,116.45 213.92,116.97 213.59,117.37 213.24,117.85 212.92,118.36 212.59,118.78 212.29,119.25 211.95,119.72 211.63,120.26 211.29,120.72 210.97,121.15 210.63,121.60 210.27,122.15 209.92,122.56 209.57,123.03 209.20,123.51 208.78,123.97 208.29,124.48 207.82,124.96 207.31,125.46 206.60,125.90 205.88,126.32 204.89,126.82 203.40,127.34 201.08,127.80 197.98,128.25 195.05,128.65 193.11,129.14 191.70,129.64 190.56,130.12 189.52,130.61 188.58,131.10 187.64,131.52 186.85,132.01 186.05,132.45 185.23,132.94 184.47,133.44 183.76,133.90 183.08,134.33 182.37,134.84 181.72,135.35 181.06,135.76 180.45,136.24 179.90,136.70 179.31,137.22 178.71,137.72 178.15,138.14 177.57,138.60 177.01,139.09 176.48,139.58 175.94,140.08 175.38,140.46 174.86,140.99 174.30,141.41 173.83,141.91 173.36,142.42 172.92,142.83 172.52,143.32 172.15,143.84 171.82,144.26 171.49,144.76 171.19,145.20 170.93,145.69 170.68,146.19 170.45,146.65 170.23,147.12 170.01,147.57 169.80,148.00 169.62,148.51 169.44,149.02 169.26,149.46 169.09,149.87 168.92,150.40 168.75,150.86 168.59,151.32 168.45,151.76 168.29,152.22 168.15,152.74 168.02,153.20 167.88,153.72 167.74,154.14 167.61,154.65 167.47,155.10 167.34,155.56 167.21,155.98 167.09,156.51 166.97,156.93 166.84,157.44 166.71,157.91 166.59,158.40 166.47,158.92 166.35,159.32 166.24,159.81 166.12,160.25 166.00,160.74 165.87,161.24 165.76,161.80 165.62,162.17 165.49,162.62 165.36,163.07 165.24,163.61 165.11,164.05 164.98,164.51 164.85,165.00 164.73,165.48 164.61,165.99 164.47,166.45 164.33,166.91 164.19,167.37 164.03,167.81 163.87,168.27 163.71,168.70 163.55,169.18 163.38,169.66 163.20,170.12 163.03,170.61 162.84,171.08 162.64,171.58 162.43,172.08 162.19,172.50 161.90,172.98 161.61,173.42 161.28,173.89 160.89,174.43 160.40,174.94 159.71,175.41 158.57,175.83 155.71,176.17 154.06,176.76 153.26,177.25 152.62,177.65 152.10,178.21 151.71,178.73 151.36,179.12 151.06,179.56 150.79,180.08 150.54,180.53 150.30,181.04 150.10,181.44 149.91,181.90 149.71,182.45 149.53,182.83 149.36,183.37 149.18,183.83 149.03,184.31 148.87,184.80 148.72,185.32 148.57,185.69 148.44,186.15 148.32,186.67 148.21,187.10 148.09,187.56 147.97,187.98 147.86,188.54 147.76,189.00 147.66,189.47 147.55,189.91 147.45,190.44 147.35,190.81 147.25,191.33 147.16,191.89 147.07,192.29 146.98,192.78 146.90,193.18 146.82,193.72 146.74,194.21 146.65,194.70 146.58,195.10 146.50,195.56 146.44,196.07 146.37,196.52 146.30,196.98 146.23,197.46 146.16,197.88 146.09,198.44 146.03,198.93 145.97,199.42 145.91,199.86 145.84,200.27 145.79,200.72 145.73,201.20 145.67,201.74 145.61,202.15 145.55,202.69 145.50,203.11 145.44,203.56 145.38,204.06 145.33,204.47 145.28,204.97 145.23,205.51 145.18,206.00 145.13,206.42 145.08,206.88 145.03,207.33 144.98,207.82 144.93,208.30 144.88,208.74 144.83,209.27 144.78,209.70 144.74,210.27 144.69,210.71 144.65,211.14 144.60,211.63 144.56,212.08 144.51,212.53 144.47,212.97 144.43,213.43 144.39,213.94 144.35,214.43 144.31,214.92 144.27,215.37 144.23,215.81 144.18,216.23 144.15,216.78 144.11,217.31 144.07,217.71 144.03,218.17 143.99,218.64 143.96,219.08 143.92,219.61 143.88,220.06 143.84,220.59 143.80,221.01 143.76,221.43 143.73,221.94 143.69,222.43 143.66,222.86 143.62,223.35 143.58,223.83 143.55,224.36 143.52,224.71 143.48,225.25 143.45,225.65 143.41,226.21 143.38,226.66 143.35,227.11 143.32,227.59 143.28,228.09 143.25,228.56 143.22,228.95 143.19,229.52 143.16,229.93 143.13,230.43 143.09,230.89 143.06,231.38 143.03,231.79 143.00,232.32 142.97,232.74 142.94,233.26 142.91,233.64 142.88,234.14 142.85,234.62 142.82,235.11 142.79,235.55 142.76,236.01 142.73,236.59 142.70,237.04 142.67,237.56 142.65,237.92 142.62,238.43 142.59,238.88 142.56,239.36 142.53,239.84 142.51,240.35 142.48,240.75 142.45,241.24 142.42,241.66 142.40,242.22 142.37,242.66 142.34,243.03 142.32,243.58 142.29,244.04 142.26,244.51 142.24,244.99 142.21,245.43 142.19,245.93 142.16,246.42 142.14,246.84 142.11,247.35 142.09,247.78 142.06,248.29 142.04,248.76 142.02,249.27 141.99,249.68 141.97,250.17 141.94,250.56 141.92,251.07 141.90,251.64 141.87,252.06 141.85,252.53 141.82,253.03 141.80,253.46 141.78,253.91 141.76,254.41 141.73,254.88 141.71,255.34 141.69,255.83 141.66,256.26 141.64,256.83 141.62,257.32 141.60,257.74 141.58,258.17 141.56,258.59 141.53,259.11 141.51,259.57 141.49,260.11 141.47,260.50 141.45,260.96 141.43,261.43 141.41,261.97 141.39,262.44 141.36,262.82 141.34,263.37 141.32,263.81 141.30,264.28 141.28,264.77 141.26,265.25 141.24,265.72 141.22,266.16 141.20,266.63 141.18,267.08 141.16,267.58 141.14,268.12 141.12,268.52 141.10,269.01 141.08,269.47 141.06,269.92 141.05,270.42 141.03,270.84 141.01,271.40 140.99,271.88 140.97,272.19 140.95,272.71 140.93,273.25 140.91,273.64 140.89,274.12 140.87,274.60 140.86,275.14 140.84,275.51 140.82,276.02 140.80,276.58 140.78,276.94 140.77,277.44 140.75,277.93 140.73,278.41 140.71,278.82 140.70,279.26 140.68,279.76 140.66,280.32 140.64,280.81 140.62,281.19 140.61,281.65 140.59,282.11 140.57,282.60 140.55,283.11 140.54,283.58 140.52,284.07 140.50,284.47 140.49,284.94 140.47,285.41 140.45,285.85 140.43,286.37 140.42,286.82 140.40,287.30 140.38,287.78 140.37,288.29 140.35,288.62 140.33,289.21 140.32,289.70 140.30,290.15 140.29,290.55 140.27,291.03 140.25,291.56 140.24,291.99 140.22,292.50 140.20,292.97 140.19,293.45 140.17,293.95 140.16,294.37 140.14,294.83 140.13,295.35 140.11,295.77 140.10,296.34 140.08,296.73 140.07,297.15 140.05,297.54 140.04,298.11 140.02,298.57 140.00,299.07 139.99,299.52 139.98,300.05 139.96,300.45 139.95,300.92 139.93,301.35 139.92,301.89 139.90,302.40 139.89,302.81 139.87,303.21 139.85,303.71 139.84,304.24 139.82,304.75 139.81,305.17 139.80,305.62 139.78,306.05 139.77,306.66 139.75,307.04 139.74,307.54 139.72,307.94 139.71,308.42 139.69,308.93 139.68,309.47 139.67,309.90 139.65,310.33 139.64,310.76 139.63,311.25 139.61,311.77 139.60,312.23 139.58,312.66 139.57,313.13 139.55,313.69 139.54,314.09 139.52,314.63 139.51,315.02 139.50,315.51 139.48,315.95 139.47,316.42 139.45,316.92 139.44,317.35 139.43,317.86 139.41,318.32 139.40,318.80 139.38,319.36 139.37,319.79 139.36,320.26 139.34,320.67 139.33,321.13 139.32,321.63 139.30,322.11 139.29,322.57 139.28,323.05 139.26,323.51 139.25,323.96 139.24,324.47 139.22,325.01 139.21,325.36 139.20,325.86 139.18,326.39 139.17,326.85 139.16,327.26 139.15,327.80 139.13,328.21 139.12,328.66 139.11,329.11 139.09,329.67 139.08,330.05 139.07,330.50 139.05,331.12 139.04,331.48 139.03,332.03 139.02,332.39 139.00,332.91 138.99,333.31 138.98,333.83 138.97,334.31 138.95,334.77 138.94,335.33 138.93,335.76 138.92,336.16 138.91,336.63 138.89,337.14 138.88,337.62 138.87,338.08 138.86,338.64 138.84,339.03 138.83,339.49 138.82,339.89 138.81,340.37 138.80,340.87 138.78,341.39 138.77,341.81 138.76,342.29 138.75,342.77 138.74,343.24 138.72,343.72 138.71,344.17 138.70,344.70 138.69,345.08 138.67,345.67 138.66,346.07 138.65,346.57 138.64,346.96 138.63,347.48 138.61,347.93 138.60,348.44 138.59,348.83 138.58,349.27 138.57,349.78 138.56,350.20 138.54,350.74 138.53,351.16 138.52,351.70 138.51,352.14 138.50,352.56 138.48,353.06 138.47,353.59 138.46,354.06 138.45,354.42 138.44,355.00 138.43,355.52 138.42,356.03 138.40,356.38 138.39,356.82 138.38,357.26 138.37,357.81 138.36,358.28 138.35,358.75 138.34,359.16 138.32,359.67 138.31,360.11 138.30,360.62 138.29,361.08 138.28,361.52 138.26,362.08 138.25,362.46 138.24,362.94 138.23,363.41 138.22,363.89 138.21,364.37 138.19,364.77 138.18,365.29 138.17,365.81 138.16,366.24 138.15,366.74 138.14,367.17 138.12,367.65 138.11,368.08 138.10,368.67 138.09,369.03 138.08,369.51 138.07,370.02 138.06,370.50 138.05,370.98 138.04,371.47 138.02,371.95 138.01,372.39 138.00,372.84 137.99,373.32 137.98,373.76 137.97,374.23 137.96,374.70 137.94,375.14 137.93,375.64 137.92,376.10 137.91,376.60 137.90,377.02 137.89,377.51 137.88,378.02 137.86,378.45 137.85,378.92 137.84,379.36 137.83,379.83 137.82,380.32 137.81,380.81 137.80,381.25 137.78,381.76 137.77,382.30 137.76,382.69 137.75,383.17 137.74,383.68 137.73,384.11 137.72,384.57 137.70,385.05 137.69,385.49 137.68,385.99 137.67,386.46 137.66,386.96 137.65,387.46 137.64,387.83 137.63,388.28 137.62,388.79 137.61,389.31 137.59,389.76 137.58,390.21 137.57,390.65 137.56,391.12 137.55,391.54 137.54,392.13 137.53,392.60 137.52,392.98 137.51,393.51 137.49,393.92 137.48,394.46 137.47,394.93 137.46,395.30 137.45,395.80 137.44,396.38 137.43,396.75 137.42,397.31 137.41,397.75 137.40,398.12 137.39,398.63 137.37,399.08 137.36,399.54 137.35,400.14 137.34,400.50 137.33,400.94 137.32,401.54 137.31,401.92 137.30,402.42 137.28,402.91 137.27,403.30 137.26,403.79 137.25,404.30 137.24,404.81 137.23,405.22 137.22,405.75 137.21,406.13 137.19,406.59 137.18,407.12 137.17,407.62 137.16,408.06 137.15,408.51 137.14,408.95 137.13,409.39 137.12,409.93 137.11,410.37 137.10,410.86 137.09,411.36 137.08,411.77 137.06,412.28 137.05,412.73 137.04,413.21 137.03,413.66 137.02,414.09 137.01,414.61 137.00,415.04 136.99,415.54 136.98,416.09 136.97,416.50 136.95,416.95 136.94,417.43 136.93,417.96 136.92,418.33 136.91,418.85 136.90,419.33 136.89,419.77 136.88,420.27 136.86,420.75 136.85,421.19 136.84,421.63 136.83,422.14 136.82,422.57 136.81,423.02 136.80,423.59 136.78,424.03 136.77,424.46 136.76,424.96 136.75,425.38 136.74,425.84 136.73,426.30 136.71,426.83 136.70,427.26 136.69,427.80 136.68,428.24 136.67,428.66 136.66,429.15 136.65,429.57 136.64,430.05 136.62,430.63 136.61,431.06 136.60,431.51 136.59,432.01 136.58,432.45 136.57,432.93 136.55,433.42 136.54,433.86 136.53,434.36 136.52,434.79 136.51,435.28 136.50,435.71 136.48,436.27 136.47,436.63 136.46,437.12 136.45,437.63 136.44,438.08 136.42,438.56 136.41,439.01 136.40,439.56 136.39,439.97 136.38,440.40 136.37,440.90 136.35,441.33 136.34,441.83 136.33,442.25 136.32,442.78 136.30,443.18 136.29,443.71 136.28,444.19 136.27,444.62 136.26,445.08 136.24,445.68 136.23,446.10 136.22,446.50 136.21,446.95 136.19,447.47 136.18,447.90 136.17,448.48 136.16,448.87 136.15,449.31 136.13,449.79 136.12,450.30 136.11,450.82 136.10,451.22 136.08,451.64 136.07,452.13 136.06,452.66 136.04,453.03 136.03,453.56 136.02,454.01 136.01,454.48 135.99,454.99 135.98,455.40 135.97,455.92 135.96,456.34 135.94,456.81 135.93,457.36 135.92,457.75 135.90,458.28 135.89,458.72 135.88,459.19 135.87,459.68 135.85,460.11 135.84,460.62 135.83,461.07 135.81,461.51 135.80,461.97 135.79,462.48 135.78,462.93 135.76,463.39 135.75,463.85 135.74,464.35 135.72,464.78 135.71,465.26 135.70,465.73 135.68,466.18 135.67,466.64 135.66,467.12 135.64,467.65 135.63,468.09 135.61,468.56 135.60,469.04 135.59,469.48 135.57,469.99 135.56,470.46 135.54,470.91 135.53,471.32 135.52,471.78 135.50,472.31 135.48,472.78 135.47,473.27 135.46,473.71 135.44,474.21 135.42,474.66 135.41,475.13 135.40,475.62 135.38,476.08 135.37,476.54 135.35,477.00 135.34,477.44 135.32,477.98 135.31,478.41 135.29,478.85 135.28,479.36 135.26,479.80 135.25,480.28 135.23,480.72 135.22,481.18 135.20,481.66 135.19,482.15 135.17,482.62 135.16,483.10 135.14,483.58 135.12,484.01 135.11,484.52 135.09,484.97 135.08,485.42 135.06,485.87 135.04,486.31 135.03,486.83 135.01,487.28 135.00,487.81 134.98,488.25 134.96,488.73 134.95,489.19 134.93,489.61 134.91,490.14 134.90,490.59 134.88,491.05 134.86,491.54 134.85,491.99 134.83,492.43 134.81,492.96 134.79,493.39 134.77,493.87 134.76,494.32 134.74,494.82 134.72,495.28 134.70,495.73 134.68,496.25 134.67,496.69 134.65,497.12 134.63,497.67 134.61,498.09 134.59,498.56 134.57,498.99 134.55,499.45 134.53,499.94 134.51,500.39 134.49,500.88 134.47,501.33 134.45,501.84 134.43,502.30 134.41,502.74 134.39,503.22 134.37,503.68 134.35,504.11 134.33,504.64 134.31,505.08 134.29,505.51 134.27,506.03 134.25,506.47 134.23,506.95 134.20,507.42 134.18,507.91 134.16,508.34 134.14,508.83 134.12,509.31 134.09,509.76 134.07,510.23 134.04,510.70 134.02,511.15 134.00,511.65 133.98,512.09 133.95,512.56 133.93,513.04 133.90,513.51 133.87,513.95 133.85,514.43 133.82,514.94 133.79,515.39 133.77,515.85 133.74,516.29 133.71,516.78 133.68,517.27 133.65,517.72 133.62,518.17 133.59,518.66 133.56,519.15 133.53,519.60 133.50,520.04 133.46,520.51 133.43,521.01 133.40,521.46 133.37,521.91 133.34,522.39 133.30,522.85 133.27,523.32 133.23,523.78 133.19,524.24 133.15,524.71 133.11,525.22 133.07,525.65 133.03,526.10 132.99,526.59 132.95,527.06 132.91,527.53 132.86,527.98 132.82,528.45 132.77,528.91 132.72,529.38 132.67,529.86 132.61,530.32 132.56,530.78 132.50,531.24 132.44,531.70 132.38,532.19 132.31,532.67 132.24,533.10 132.17,533.56 132.09,534.04 132.01,534.51 131.92,534.97 131.83,535.43 131.73,535.89 131.61,536.36 131.50,536.82 131.36,537.27 131.19,537.74 130.99,538.21 130.74,538.66 130.42,539.11 129.89,539.57 126.32,540.00 80.00,540.00" fill="#d62728" fill-opacity="0.35" stroke="none"/>
<polyline points="80.00,540.00 126.32,540.00 129.89,539.48 130.42,539.00 130.74,538.52 130.99,538.04 131.19,537.55 131.36,537.08 131.50,536.61 131.61,536.14 131.73,535.66 131.83,535.17 131.92,534.69 132.01,534.21 132.09,533.74 132.17,533.26 132.24,532.78 132.31,532.31 132.38,531.84 132.44,531.39 132.50,530.92 132.56,530.41 132.61,529.91 132.67,529.47 132.72,529.00 132.77,528.49 132.82,528.02 132.86,527.58 132.91,527.10 132.95,526.61 132.99,526.18 133.03,525.65 133.07,525.21 133.11,524.73 133.15,524.25 133.19,523.78 133.23,523.32 133.27,522.85 133.30,522.36 133.34,521.87 133.37,521.43 133.40,520.96 133.43,520.47 133.46,519.98 133.50,519.52 133.53,519.04 133.56,518.58 133.59,518.12 133.62,517.63 133.65,517.17 133.68,516.69 133.71,516.25 133.74,515.75 133.77,515.28 133.79,514.79 133.82,514.33 133.85,513.86 133.87,513.39 133.90,512.92 133.93,512.45 133.95,511.91 133.98,511.51 134.00,511.00 134.02,510.55 134.04,510.11 134.07,509.61 134.09,509.10 134.12,508.67 134.14,508.21 134.16,507.70 134.18,507.28 134.20,506.76 134.23,506.27 134.25,505.83 134.27,505.35 134.29,504.85 134.31,504.40 134.33,503.92 134.35,503.43 134.37,503.00 134.39,502.51 134.41,502.03 134.43,501.56 134.45,501.11 134.47,500.62 134.49,500.13 134.51,499.68 134.53,499.23 134.55,498.77 134.57,498.26 134.59,497.79 134.61,497.36 134.63,496.84 134.65,496.40 134.67,495.91 134.68,495.41 134.70,494.93 134.72,494.51 134.74,494.02 134.76,493.53 134.77,493.06 134.79,492.55 134.81,492.16 134.83,491.70 134.85,491.20 134.86,490.73 134.88,490.21 134.90,489.80 134.91,489.32 134.93,488.81 134.95,488.37 134.96,487.88 134.98,487.41 135.00,486.94 135.01,486.47 135.03,485.98 135.04,485.52 135.06,485.06 135.08,484.61 135.09,484.10 135.11,483.67 135.12,483.17 135.14,482.74 135.16,482.22 135.17,481.79 135.19,481.27 135.20,480.82 135.22,480.35 135.23,479.92 135.25,479.42 135.26,478.95 135.28,478.51 135.29,478.01 135.31,477.50 135.32,476.97 135.34,476.56 135.35,476.06 135.37,475.67 135.38,475.17 135.40,474.69 135.41,474.24 135.42,473.75 135.44,473.29 135.46,472.75 135.47,472.27 135.48,471.82 135.50,471.40 135.52,470.95 135.53,470.44 135.54,469.98 135.56,469.52 135.57,469.08 135.59,468.57 135.60,468.12 135.61,467.59 135.63,467.11 135.64,466.71 135.66,466.27 135.67,465.75 135.68,465.27 135.70,464.80 135.71,464.31 135.72,463.83 135.74,463.36 135.75,462.88 135.76,462.45 135.78,461.97 135.79,461.52 135.80,461.04 135.81,460.54 135.83,460.04 135.84,459.61 135.85,459.11 135.87,458.67 135.88,458.18 135.89,457.70 135.90,457.25 135.92,456.84 135.93,456.29 135.94,455.87 135.96,455.37 135.97,454.90 135.98,454.40 135.99,453.99 136.01,453.51 136.02,453.05 136.03,452.54 136.04,452.11 136.06,451.61 136.07,451.13 136.08,450.65 136.10,450.23 136.11,449.69 136.12,449.29 136.13,448.79 136.15,448.31 136.16,447.86 136.17,447.40 136.18,446.87 136.19,446.43 136.21,445.96 136.22,445.47 136.23,444.99 136.24,444.59 136.26,444.08 136.27,443.60 136.28,443.05 136.29,442.66 136.30,442.16 136.32,441.72 136.33,441.25 136.34,440.77 136.35,440.21 136.37,439.86 136.38,439.37 136.39,438.93 136.40,438.43 136.41,437.94 136.42,437.52 136.44,436.94 136.45,436.51 136.46,436.09 136.47,435.57 136.48,435.12 136.50,434.62 136.51,434.14 136.52,433.70 136.53,433.27 136.54,432.80 136.55,432.24 136.57,431.83 136.58,431.35 136.59,430.89 136.60,430.34 136.61,429.94 136.62,429.51 136.64,429.01 136.65,428.46 136.66,428.07 136.67,427.58 136.68,427.08 136.69,426.69 136.70,426.07 136.71,425.71 136.73,425.22 136.74,424.80 136.75,424.26 136.76,423.86 136.77,423.37 136.78,422.84 136.80,422.42 136.81,421.94 136.82,421.45 136.83,420.98 136.84,420.48 136.85,420.05 136.86,419.59 136.88,419.13 136.89,418.62 136.90,418.17 136.91,417.73 136.92,417.23 136.93,416.75 136.94,416.29 136.95,415.86 136.97,415.38 136.98,414.87 136.99,414.34 137.00,413.95 137.01,413.41 137.02,413.03 137.03,412.53 137.04,412.04 137.05,411.56 137.06,411.10 137.08,410.62 137.09,410.16 137.10,409.69 137.11,409.27 137.12,408.77 137.13,408.26 137.14,407.76 137.15,407.43 137.16,406.86 137.17,406.36 137.18,405.89 137.19,405.52 137.21,405.00 137.22,404.47 137.23,404.03 137.24,403.61 137.25,403.09 137.26,402.62 137.27,402.14 137.28,401.77 137.30,401.22 137.31,400.77 137.32,400.31 137.33,399.81 137.34,399.36 137.35,398.84 137.36,398.34 137.37,397.84 137.39,397.50 137.40,397.07 137.41,396.50 137.42,396.09 137.43,395.59 137.44,395.10 137.45,394.63 137.46,394.20 137.47,393.73 137.48,393.20 137.49,392.80 137.51,392.29 137.52,391.81 137.53,391.35 137.54,390.85 137.55,390.37 137.56,389.94 137.57,389.50 137.58,389.00 137.59,388.51 137.61,388.07 137.62,387.61 137.63,387.11 137.64,386.59 137.65,386.20 137.66,385.73 137.67,385.24 137.68,384.73 137.69,384.34 137.70,383.80 137.72,383.40 137.73,382.87 137.74,382.41 137.75,381.96 137.76,381.49 137.77,380.93 137.78,380.49 137.80,379.96 137.81,379.56 137.82,379.12 137.83,378.64 137.84,378.11 137.85,377.66 137.86,377.26 137.88,376.76 137.89,376.35 137.90,375.82 137.91,375.34 137.92,374.85 137.93,374.35 137.94,373.95 137.96,373.48 137.97,373.02 137.98,372.52 137.99,371.99 138.00,371.66 138.01,371.12 138.02,370.69 138.04,370.17 138.05,369.75 138.06,369.16 138.07,368.70 138.08,368.25 138.09,367.83 138.10,367.34 138.11,366.86 138.12,366.43 138.14,365.98 138.15,365.46 138.16,365.06 138.17,364.53 138.18,364.01 138.19,363.55 138.21,363.11 138.22,362.60 138.23,362.17 138.24,361.76 138.25,361.22 138.26,360.69 138.28,360.30 138.29,359.87 138.30,359.36 138.31,358.87 138.32,358.43 138.34,357.90 138.35,357.49 138.36,356.93 138.37,356.53 138.38,356.03 138.39,355.56 138.40,355.11 138.42,354.66 138.43,354.20 138.44,353.75 138.45,353.27 138.46,352.81 138.47,352.30 138.48,351.81 138.50,351.36 138.51,350.90 138.52,350.46 138.53,350.03 138.54,349.55 138.56,349.00 138.57,348.51 138.58,348.06 138.59,347.64 138.60,347.11 138.61,346.55 138.63,346.17 138.64,345.67 138.65,345.28 138.66,344.79 138.67,344.39 138.69,343.80 138.70,343.38 138.71,342.88 138.72,342.43 138.74,341.98 138.75,341.50 138.76,341.00 138.77,340.58 138.78,340.07 138.80,339.62 138.81,339.16 138.82,338.65 138.83,338.14 138.84,337.68 138.86,337.26 138.87,336.76 138.88,336.35 138.89,335.80 138.91,335.31 138.92,334.88 138.93,334.48 138.94,333.99 138.95,333.59 138.97,333.05 138.98,332.59 138.99,332.06 139.00,331.62 139.02,331.09 139.03,330.69 139.04,330.20 139.05,329.74 139.07,329.27 139.08,328.80 139.09,328.29 139.11,327.83 139.12,327.41 139.13,326.77 139.15,326.45 139.16,325.88 139.17,325.43 139.18,325.06 139.20,324.63 139.21,324.15 139.22,323.64 139.24,323.18 139.25,322.71 139.26,322.22 139.28,321.74 139.29,321.29 139.30,320.80 139.32,320.31 139.33,319.83 139.34,319.35 139.36,318.92 139.37,318.48 139.38,318.03 139.40,317.49 139.41,317.06 139.43,316.49 139.44,316.10 139.45,315.61 139.47,315.19 139.48,314.69 139.50,314.24 139.51,313.74 139.52,313.27 139.54,312.83 139.55,312.29 139.57,311.91 139.58,311.44 139.60,310.93 139.61,310.44 139.63,309.99 139.64,309.52 139.65,309.00 139.67,308.59 139.68,308.13 139.69,307.67 139.71,307.16 139.72,306.68 139.74,306.24 139.75,305.77 139.77,305.28 139.78,304.83 139.80,304.35 139.81,303.85 139.82,303.41 139.84,302.93 139.85,302.48 139.87,302.04 139.89,301.44 139.90,300.99 139.92,300.60 139.93,300.19 139.95,299.65 139.96,299.19 139.98,298.69 139.99,298.26 140.00,297.78 140.02,297.28 140.04,296.92 140.05,296.42 140.07,295.87 140.08,295.43 140.10,294.96 140.11,294.44 140.13,293.90 140.14,293.55 140.16,293.10 140.17,292.67 140.19,292.07 140.20,291.63 140.22,291.19 140.24,290.72 140.25,290.28 140.27,289.73 140.29,289.29 140.30,288.85 140.32,288.35 140.33,287.95 140.35,287.42 140.37,286.96 140.38,286.49 140.40,285.98 140.42,285.49 140.43,285.10 140.45,284.66 140.47,284.09 140.49,283.70 140.50,283.18 140.52,282.78 140.54,282.23 140.55,281.84 140.57,281.39 140.59,280.85 140.61,280.34 140.62,279.93 140.64,279.42 140.66,278.98 140.68,278.59 140.70,278.09 140.71,277.57 140.73,277.09 140.75,276.61 140.77,276.18 140.78,275.73 140.80,275.17 140.82,274.80 140.84,274.25 140.86,273.80 140.87,273.31 140.89,272.87 140.91,272.40 140.93,271.92 140.95,271.46 140.97,270.90 140.99,270.49 141.01,270.01 141.03,269.57 141.05,269.09 141.06,268.64 141.08,268.20 141.10,267.74 141.12,267.22 141.14,266.76 141.16,266.28 141.18,265.73 141.20,265.33 141.22,264.96 141.24,264.39 141.26,263.93 141.28,263.37 141.30,263.02 141.32,262.54 141.34,262.10 141.36,261.64 141.39,261.07 141.41,260.59 141.43,260.10 141.45,259.67 141.47,259.32 141.49,258.78 141.51,258.33 141.53,257.87 141.56,257.45 141.58,256.88 141.60,256.41 141.62,255.98 141.64,255.43 141.66,254.96 141.69,254.53 141.71,254.08 141.73,253.52 141.76,253.12 141.78,252.67 141.80,252.18 141.82,251.73 141.85,251.34 141.87,250.76 141.90,250.29 141.92,249.88 141.94,249.43 141.97,248.81 141.99,248.45 142.02,248.02 142.04,247.53 142.06,247.02 142.09,246.54 142.11,246.13 142.14,245.55 142.16,245.14 142.19,244.72 142.21,244.24 142.24,243.81 142.26,243.23 142.29,242.80 142.32,242.33 142.34,241.89 142.37,241.37 142.40,240.90 142.42,240.48 142.45,240.08 142.48,239.61 142.51,239.04 142.53,238.59 142.56,238.12 142.59,237.64 142.62,237.17 142.65,236.71 142.67,236.21 142.70,235.82 142.73,235.22 142.76,234.75 142.79,234.35 142.82,233.85 142.85,233.42 142.88,232.97 142.91,232.46 142.94,232.04 142.97,231.56 143.00,231.08 143.03,230.60 143.06,230.10 143.09,229.74 143.13,229.18 143.16,228.71 143.19,228.18 143.22,227.83 143.25,227.28 143.28,226.88 143.32,226.37 143.35,225.87 143.38,225.40 143.41,225.03 143.45,224.52 143.48,223.94 143.52,223.47 143.55,223.09 143.58,222.56 143.62,222.12 143.66,221.60 143.69,221.15 143.73,220.79 143.76,220.25 143.80,219.77 143.84,219.25 143.88,218.81 143.92,218.35 143.96,217.89 143.99,217.51 144.03,216.94 144.07,216.48 144.11,216.03 144.15,215.57 144.18,215.17 144.23,214.54 144.27,214.18 144.31,213.73 144.35,213.24 144.39,212.79 144.43,212.34 144.47,211.86 144.51,211.31 144.56,210.91 144.60,210.36 144.65,209.97 144.69,209.52 144.74,209.08 144.78,208.49 144.83,208.07 144.88,207.58 144.93,207.12 144.98,206.67 145.03,206.16 145.08,205.71 145.13,205.27 145.18,204.77 145.23,204.38 145.28,203.83 145.33,203.35 145.38,202.87 145.44,202.38 145.50,201.99 145.55,201.50 145.61,201.03 145.67,200.55 145.73,200.09 145.79,199.59 145.84,199.12 145.91,198.69 145.97,198.12 146.03,197.78 146.09,197.33 146.16,196.82 146.23,196.33 146.30,195.80 146.37,195.36 146.44,194.92 146.50,194.47 146.58,193.99 146.65,193.55 146.74,193.04 146.82,192.53 146.90,192.17 146.98,191.68 147.07,191.12 147.16,190.72 147.25,190.23 147.35,189.77 147.45,189.30 147.55,188.88 147.66,188.37 147.76,187.81 147.86,187.44 147.97,186.92 148.09,186.47 148.21,185.99 148.32,185.52 148.44,185.04 148.57,184.65 148.72,184.01 148.87,183.69 149.03,183.15 149.18,182.75 149.36,182.18 149.53,181.78 149.71,181.28 149.91,180.83 150.10,180.38 150.30,179.90 150.54,179.43 150.79,178.95 151.06,178.50 151.36,178.04 151.71,177.55 152.10,177.10 152.62,176.60 153.26,176.11 154.06,175.68 155.71,175.25 158.57,174.68 159.71,174.29 160.40,173.78 160.89,173.32 161.28,172.82 161.61,172.35 161.90,171.94 162.19,171.44 162.43,171.00 162.64,170.48 162.84,170.03 163.03,169.59 163.20,169.11 163.38,168.66 163.55,168.15 163.71,167.69 163.87,167.28 164.03,166.75 164.19,166.28 164.33,165.80 164.47,165.35 164.61,164.93 164.73,164.46 164.85,163.96 164.98,163.43 165.11,163.05 165.24,162.57 165.36,162.10 165.49,161.55 165.62,161.09 165.76,160.66 165.87,160.19 166.00,159.74 166.12,159.26 166.24,158.77 166.35,158.34 166.47,157.90 166.59,157.38 166.71,156.95 166.84,156.45 166.97,156.01 167.09,155.55 167.21,155.01 167.34,154.60 167.47,154.09 167.61,153.61 167.74,153.14 167.88,152.71 168.02,152.20 168.15,151.73 168.29,151.28 168.45,150.84 168.59,150.32 168.75,149.87 168.92,149.42 169.09,148.94 169.26,148.45 169.44,148.01 169.62,147.52 169.80,146.99 170.01,146.60 170.23,146.10 170.45,145.70 170.68,145.22 170.93,144.72 171.19,144.26 171.49,143.73 171.82,143.33 172.15,142.89 172.52,142.35 172.92,141.88 173.36,141.46 173.83,141.00 174.30,140.49 174.86,140.01 175.38,139.55 175.94,139.11 176.48,138.63 177.01,138.11 177.57,137.68 178.15,137.24 178.71,136.76 179.31,136.28 179.90,135.85 180.45,135.35 181.06,134.87 181.72,134.44 182.37,133.92 183.08,133.42 183.76,133.00 184.47,132.53 185.23,132.04 186.05,131.55 186.85,131.13 187.64,130.67 188.58,130.19 189.52,129.72 190.56,129.27 191.70,128.80 193.11,128.28 195.05,127.84 197.98,127.37 201.08,126.90 203.40,126.43 204.89,125.99 205.88,125.47 206.60,125.03 207.31,124.55 207.82,124.13 208.29,123.64 208.78,123.18 209.20,122.70 209.57,122.21 209.92,121.74 210.27,121.33 210.63,120.84 210.97,120.39 211.29,119.86 211.63,119.37 211.95,118.98 212.29,118.46 212.59,117.97 212.92,117.53 213.24,117.06 213.59,116.58 213.92,116.15 214.28,115.67 214.64,115.19 215.05,114.71 215.46,114.25 215.97,113.79 216.44,113.32 216.94,112.89 217.54,112.38 218.21,111.90 219.06,111.45 220.06,110.94 221.46,110.50 223.23,110.07 225.32,109.59 227.49,109.10 229.76,108.65 231.96,108.21 234.49,107.70 236.85,107.26 239.21,106.76 241.19,106.34 243.19,105.86 245.08,105.37 247.09,104.91 249.25,104.41 251.47,103.93 253.71,103.54 255.79,103.03 258.14,102.54 260.32,102.08 262.99,101.66 266.39,101.19 271.89,100.69 281.39,100.25 288.04,99.74 290.66,99.27 292.42,98.81 293.69,98.29 294.74,97.90 295.79,97.43 296.70,96.95 297.57,96.50 298.39,96.01 299.24,95.55 300.12,95.11 301.10,94.61 302.12,94.17 303.25,93.70 304.46,93.18 306.27,92.75 309.05,92.30 313.16,91.82 318.72,91.32 324.65,90.89 330.82,90.41 337.01,89.94 343.52,89.46 350.56,89.03 357.81,88.56 364.20,88.11 370.70,87.63 377.96,87.15 384.96,86.65 392.88,86.21 404.96,85.75 431.69,85.28 443.22,84.83 446.48,84.36 448.64,83.89 450.63,83.41 452.40,82.93 454.70,82.48 457.18,82.01 461.79,81.54 474.21,81.07 490.94,80.62 507.37,80.13 523.76,79.67 543.26,79.24 567.40,78.74 592.23,78.29 626.14,77.83 684.90,77.35 736.52,76.88 744.44,76.42 751.29,75.95 760.63,75.49 785.53,75.03 843.22,74.57 843.94,74.56 845.02,74.55 845.53,74.55 846.78,74.52 847.42,74.51 848.08,74.53 849.23,74.51 850.16,74.49 850.86,74.48 851.68,74.48 853.03,74.46 853.73,74.45 854.62,74.46 855.78,74.44 857.51,74.43 858.60,74.42 859.63,74.41 860.60,74.40 861.36,74.40 862.32,74.38 862.93,74.38 864.99,74.37 866.03,74.36 867.08,74.34 867.96,74.34 868.60,74.33 869.94,74.31 871.42,74.32 873.07,74.29 874.79,74.29 875.56,74.28 876.65,74.28 878.21,74.25 879.62,74.26 881.60,74.25 882.79,74.24 884.12,74.23 885.57,74.22 887.00,74.20 888.60,74.19 890.05,74.20 891.25,74.19 893.99,74.17 895.15,74.16 896.90,74.15 898.31,74.14 898.98,74.13 899.91,74.11 900.00,74.13" fill="none" stroke="#d62728" stroke-width="0.9" stroke-opacity="0.85"/>
<polyline points="80.00,540.00 126.32,540.00 129.89,539.57 130.42,539.11 130.74,538.66 130.99,538.21 131.19,537.74 131.36,537.27 131.50,536.82 131.61,536.36 131.73,535.89 131.83,535.43 131.92,534.97 132.01,534.51 132.09,534.04 132.17,533.56 132.24,533.10 132.31,532.67 132.38,532.19 132.44,531.70 132.50,531.24 132.56,530.78 132.61,530.32 132.67,529.86 132.72,529.38 132.77,528.91 132.82,528.45 132.86,527.98 132.91,527.53 132.95,527.06 132.99,526.59 133.03,526.10 133.07,525.65 133.11,525.22 133.15,524.71 133.19,524.24 133.23,523.78 133.27,523.32 133.30,522.85 133.34,522.39 133.37,521.91 133.40,521.46 133.43,521.01 133.46,520.51 133.50,520.04 133.53,519.60 133.56,519.15 133.59,518.66 133.62,518.17 133.65,517.72 133.68,517.27 133.71,516.78 133.74,516.29 133.77,515.85 133.79,515.39 133.82,514.94 133.85,514.43 133.87,513.95 133.90,513.51 133.93,513.04 133.95,512.56 133.98,512.09 134.00,511.65 134.02,511.15 134.04,510.70 134.07,510.23 134.09,509.76 134.12,509.31 134.14,508.83 134.16,508.34 134.18,507.91 134.20,507.42 134.23,506.95 134.25,506.47 134.27,506.03 134.29,505.51 134.31,505.08 134.33,504.64 134.35,504.11 134.37,503.68 134.39,503.22 134.41,502.74 134.43,502.30 134.45,501.84 134.47,501.33 134.49,500.88 134.51,500.39 134.53,499.94 134.55,499.45 134.57,498.99 134.59,498.56 134.61,498.09 134.63,497.67 134.65,497.12 134.67,496.69 134.68,496.25 134.70,495.73 134.72,495.28 134.74,494.82 134.76,494.32 134.77,493.87 134.79,493.39 134.81,492.96 134.83,492.43 134.85,491.99 134.86,491.54 134.88,491.05 134.90,490.59 134.91,490.14 134.93,489.61 134.95,489.19 134.96,488.73 134.98,488.25 135.00,487.81 135.01,487.28 135.03,486.83 135.04,486.31 135.06,485.87 135.08,485.42 135.09,484.97 135.11,484.52 135.12,484.01 135.14,483.58 135.16,483.10 135.17,482.62 135.19,482.15 135.20,481.66 135.22,481.18 135.23,480.72 135.25,480.28 135.26,479.80 135.28,479.36 135.29,478.85 135.31,478.41 135.32,477.98 135.34,477.44 135.35,477.00 135.37,476.54 135.38,476.08 135.40,475.62 135.41,475.13 135.42,474.66 135.44,474.21 135.46,473.71 135.47,473.27 135.48,472.78 135.50,472.31 135.52,471.78 135.53,471.32 135.54,470.91 135.56,470.46 135.57,469.99 135.59,469.48 135.60,469.04 135.61,468.56 135.63,468.09 135.64,467.65 135.66,467.12 135.67,466.64 135.68,466.18 135.70,465.73 135.71,465.26 135.72,464.78 135.74,464.35 135.75,463.85 135.76,463.39 135.78,462.93 135.79,462.48 135.80,461.97 135.81,461.51 135.83,461.07 135.84,460.62 135.85,460.11 135.87,459.68 135.88,459.19 135.89,458.72 135.90,458.28 135.92,457.75 135.93,457.36 135.94,456.81 135.96,456.34 135.97,455.92 135.98,455.40 135.99,454.99 136.01,454.48 136.02,454.01 136.03,453.56 136.04,453.03 136.06,452.66 136.07,452.13 136.08,451.64 136.10,451.22 136.11,450.82 136.12,450.30 136.13,449.79 136.15,449.31 136.16,448.87 136.17,448.48 136.18,447.90 136.19,447.47 136.21,446.95 136.22,446.50 136.23,446.10 136.24,445.68 136.26,445.08 136.27,444.62 136.28,444.19 136.29,443.71 136.30,443.18 136.32,442.78 136.33,442.25 136.34,441.83 136.35,441.33 136.37,440.90 136.38,440.40 136.39,439.97 136.40,439.56 136.41,439.01 136.42,438.56 136.44,438.08 136.45,437.63 136.46,437.12 136.47,436.63 136.48,436.27 136.50,435.71 136.51,435.28 136.52,434.79 136.53,434.36 136.54,433.86 136.55,433.42 136.57,432.93 136.58,432.45 136.59,432.01 136.60,431.51 136.61,431.06 136.62,430.63 136.64,430.05 136.65,429.57 136.66,429.15 136.67,428.66 136.68,428.24 136.69,427.80 136.70,427.26 136.71,426.83 136.73,426.30 136.74,425.84 136.75,425.38 136.76,424.96 136.77,424.46 136.78,424.03 136.80,423.59 136.81,423.02 136.82,422.57 136.83,422.14 136.84,421.63 136.85,421.19 136.86,420.75 136.88,420.27 136.89,419.77 136.90,419.33 136.91,418.85 136.92,418.33 136.93,417.96 136.94,417.43 136.95,416.95 136.97,416.50 136.98,416.09 136.99,415.54 137.00,415.04 137.01,414.61 137.02,414.09 137.03,413.66 137.04,413.21 137.05,412.73 137.06,412.28 137.08,411.77 137.09,411.36 137.10,410.86 137.11,410.37 137.12,409.93 137.13,409.39 137.14,408.95 137.15,408.51 137.16,408.06 137.17,407.62 137.18,407.12 137.19,406.59 137.21,406.13 137.22,405.75 137.23,405.22 137.24,404.81 137.25,404.30 137.26,403.79 137.27,403.30 137.28,402.91 137.30,402.42 137.31,401.92 137.32,401.54 137.33,400.94 137.34,400.50 137.35,400.14 137.36,399.54 137.37,399.08 137.39,398.63 137.40,398.12 137.41,397.75 137.42,397.31 137.43,396.75 137.44,396.38 137.45,395.80 137.46,395.30 137.47,394.93 137.48,394.46 137.49,393.92 137.51,393.51 137.52,392.98 137.53,392.60 137.54,392.13 137.55,391.54 137.56,391.12 137.57,390.65 137.58,390.21 137.59,389.76 137.61,389.31 137.62,388.79 137.63,388.28 137.64,387.83 137.65,387.46 137.66,386.96 137.67,386.46 137.68,385.99 137.69,385.49 137.70,385.05 137.72,384.57 137.73,384.11 137.74,383.68 137.75,383.17 137.76,382.69 137.77,382.30 137.78,381.76 137.80,381.25 137.81,380.81 137.82,380.32 137.83,379.83 137.84,379.36 137.85,378.92 137.86,378.45 137.88,378.02 137.89,377.51 137.90,377.02 137.91,376.60 137.92,376.10 137.93,375.64 137.94,375.14 137.96,374.70 137.97,374.23 137.98,373.76 137.99,373.32 138.00,372.84 138.01,372.39 138.02,371.95 138.04,371.47 138.05,370.98 138.06,370.50 138.07,370.02 138.08,369.51 138.09,369.03 138.10,368.67 138.11,368.08 138.12,367.65 138.14,367.17 138.15,366.74 138.16,366.24 138.17,365.81 138.18,365.29 138.19,364.77 138.21,364.37 138.22,363.89 138.23,363.41 138.24,362.94 138.25,362.46 138.26,362.08 138.28,361.52 138.29,361.08 138.30,360.62 138.31,360.11 138.32,359.67 138.34,359.16 138.35,358.75 138.36,358.28 138.37,357.81 138.38,357.26 138.39,356.82 138.40,356.38 138.42,356.03 138.43,355.52 138.44,355.00 138.45,354.42 138.46,354.06 138.47,353.59 138.48,353.06 138.50,352.56 138.51,352.14 138.52,351.70 138.53,351.16 138.54,350.74 138.56,350.20 138.57,349.78 138.58,349.27 138.59,348.83 138.60,348.44 138.61,347.93 138.63,347.48 138.64,346.96 138.65,346.57 138.66,346.07 138.67,345.67 138.69,345.08 138.70,344.70 138.71,344.17 138.72,343.72 138.74,343.24 138.75,342.77 138.76,342.29 138.77,341.81 138.78,341.39 138.80,340.87 138.81,340.37 138.82,339.89 138.83,339.49 138.84,339.03 138.86,338.64 138.87,338.08 138.88,337.62 138.89,337.14 138.91,336.63 138.92,336.16 138.93,335.76 138.94,335.33 138.95,334.77 138.97,334.31 138.98,333.83 138.99,333.31 139.00,332.91 139.02,332.39 139.03,332.03 139.04,331.48 139.05,331.12 139.07,330.50 139.08,330.05 139.09,329.67 139.11,329.11 139.12,328.66 139.13,328.21 139.15,327.80 139.16,327.26 139.17,326.85 139.18,326.39 139.20,325.86 139.21,325.36 139.22,325.01 139.24,324.47 139.25,323.96 139.26,323.51 139.28,323.05 139.29,322.57 139.30,322.11 139.32,321.63 139.33,321.13 139.34,320.67 139.36,320.26 139.37,319.79 139.38,319.36 139.40,318.80 139.41,318.32 139.43,317.86 139.44,317.35 139.45,316.92 139.47,316.42 139.48,315.95 139.50,315.51 139.51,315.02 139.52,314.63 139.54,314.09 139.55,313.69 139.57,313.13 139.58,312.66 139.60,312.23 139.61,311.77 139.63,311.25 139.64,310.76 139.65,310.33 139.67,309.90 139.68,309.47 139.69,308.93 139.71,308.42 139.72,307.94 139.74,307.54 139.75,307.04 139.77,306.66 139.78,306.05 139.80,305.62 139.81,305.17 139.82,304.75 139.84,304.24 139.85,303.71 139.87,303.21 139.89,302.81 139.90,302.40 139.92,301.89 139.93,301.35 139.95,300.92 139.96,300.45 139.98,300.05 139.99,299.52 140.00,299.07 140.02,298.57 140.04,298.11 140.05,297.54 140.07,297.15 140.08,296.73 140.10,296.34 140.11,295.77 140.13,295.35 140.14,294.83 140.16,294.37 140.17,293.95 140.19,293.45 140.20,292.97 140.22,292.50 140.24,291.99 140.25,291.56 140.27,291.03 140.29,290.55 140.30,290.15 140.32,289.70 140.33,289.21 140.35,288.62 140.37,288.29 140.38,287.78 140.40,287.30 140.42,286.82 140.43,286.37 140.45,285.85 140.47,285.41 140.49,284.94 140.50,284.47 140.52,284.07 140.54,283.58 140.55,283.11 140.57,282.60 140.59,282.11 140.61,281.65 140.62,281.19 140.64,280.81 140.66,280.32 140.68,279.76 140.70,279.26 140.71,278.82 140.73,278.41 140.75,277.93 140.77,277.44 140.78,276.94 140.80,276.58 140.82,276.02 140.84,275.51 140.86,275.14 140.87,274.60 140.89,274.12 140.91,273.64 140.93,273.25 140.95,272.71 140.97,272.19 140.99,271.88 141.01,271.40 141.03,270.84 141.05,270.42 141.06,269.92 141.08,269.47 141.10,269.01 141.12,268.52 141.14,268.12 141.16,267.58 141.18,267.08 141.20,266.63 141.22,266.16 141.24,265.72 141.26,265.25 141.28,264.77 141.30,264.28 141.32,263.81 141.34,263.37 141.36,262.82 141.39,262.44 141.41,261.97 141.43,261.43 141.45,260.96 141.47,260.50 141.49,260.11 141.51,259.57 141.53,259.11 141.56,258.59 141.58,258.17 141.60,257.74 141.62,257.32 141.64,256.83 141.66,256.26 141.69,255.83 141.71,255.34 141.73,254.88 141.76,254.41 141.78,253.91 141.80,253.46 141.82,253.03 141.85,252.53 141.87,252.06 141.90,251.64 141.92,251.07 141.94,250.56 141.97,250.17 141.99,249.68 142.02,249.27 142.04,248.76 142.06,248.29 142.09,247.78 142.11,247.35 142.14,246.84 142.16,246.42 142.19,245.93 142.21,245.43 142.24,244.99 142.26,244.51 142.29,244.04 142.32,243.58 142.34,243.03 142.37,242.66 142.40,242.22 142.42,241.66 142.45,241.24 142.48,240.75 142.51,240.35 142.53,239.84 142.56,239.36 142.59,238.88 142.62,238.43 142.65,237.92 142.67,237.56 142.70,237.04 142.73,236.59 142.76,236.01 142.79,235.55 142.82,235.11 142.85,234.62 142.88,234.14 142.91,233.64 142.94,233.26 142.97,232.74 143.00,232.32 143.03,231.79 143.06,231.38 143.09,230.89 143.13,230.43 143.16,229.93 143.19,229.52 143.22,228.95 143.25,228.56 143.28,228.09 143.32,227.59 143.35,227.11 143.38,226.66 143.41,226.21 143.45,225.65 143.48,225.25 143.52,224.71 143.55,224.36 143.58,223.83 143.62,223.35 143.66,222.86 143.69,222.43 143.73,221.94 143.76,221.43 143.80,221.01 143.84,220.59 143.88,220.06 143.92,219.61 143.96,219.08 143.99,218.64 144.03,218.17 144.07,217.71 144.11,217.31 144.15,216.78 144.18,216.23 144.23,215.81 144.27,215.37 144.31,214.92 144.35,214.43 144.39,213.94 144.43,213.43 144.47,212.97 144.51,212.53 144.56,212.08 144.60,211.63 144.65,211.14 144.69,210.71 144.74,210.27 144.78,209.70 144.83,209.27 144.88,208.74 144.93,208.30 144.98,207.82 145.03,207.33 145.08,206.88 145.13,206.42 145.18,206.00 145.23,205.51 145.28,204.97 145.33,204.47 145.38,204.06 145.44,203.56 145.50,203.11 145.55,202.69 145.61,202.15 145.67,201.74 145.73,201.20 145.79,200.72 145.84,200.27 145.91,199.86 145.97,199.42 146.03,198.93 146.09,198.44 146.16,197.88 146.23,197.46 146.30,196.98 146.37,196.52 146.44,196.07 146.50,195.56 146.58,195.10 146.65,194.70 146.74,194.21 146.82,193.72 146.90,193.18 146.98,192.78 147.07,192.29 147.16,191.89 147.25,191.33 147.35,190.81 147.45,190.44 147.55,189.91 147.66,189.47 147.76,189.00 147.86,188.54 147.97,187.98 148.09,187.56 148.21,187.10 148.32,186.67 148.44,186.15 148.57,185.69 148.72,185.32 148.87,184.80 149.03,184.31 149.18,183.83 149.36,183.37 149.53,182.83 149.71,182.45 149.91,181.90 150.10,181.44 150.30,181.04 150.54,180.53 150.79,180.08 151.06,179.56 151.36,179.12 151.71,178.73 152.10,178.21 152.62,177.65 153.26,177.25 154.06,176.76 155.71,176.17 158.57,175.83 159.71,175.41 160.40,174.94 160.89,174.43 161.28,173.89 161.61,173.42 161.90,172.98 162.19,172.50 162.43,172.08 162.64,171.58 162.84,171.08 163.03,170.61 163.20,170.12 163.38,169.66 163.55,169.18 163.71,168.70 163.87,168.27 164.03,167.81 164.19,167.37 164.33,166.91 164.47,166.45 164.61,165.99 164.73,165.48 164.85,165.00 164.98,164.51 165.11,164.05 165.24,163.61 165.36,163.07 165.49,162.62 165.62,162.17 165.76,161.80 165.87,161.24 166.00,160.74 166.12,160.25 166.24,159.81 166.35,159.32 166.47,158.92 166.59,158.40 166.71,157.91 166.84,157.44 166.97,156.93 167.09,156.51 167.21,155.98 167.34,155.56 167.47,155.10 167.61,154.65 167.74,154.14 167.88,153.72 168.02,153.20 168.15,152.74 168.29,152.22 168.45,151.76 168.59,151.32 168.75,150.86 168.92,150.40 169.09,149.87 169.26,149.46 169.44,149.02 169.62,148.51 169.80,148.00 170.01,147.57 170.23,147.12 170.45,146.65 170.68,146.19 170.93,145.69 171.19,145.20 171.49,144.76 171.82,144.26 172.15,143.84 172.52,143.32 172.92,142.83 173.36,142.42 173.83,141.91 174.30,141.41 174.86,140.99 175.38,140.46 175.94,140.08 176.48,139.58 177.01,139.09 177.57,138.60 178.15,138.14 178.71,137.72 179.31,137.22 179.90,136.70 180.45,136.24 181.06,135.76 181.72,135.35 182.37,134.84 183.08,134.33 183.76,133.90 184.47,133.44 185.23,132.94 186.05,132.45 186.85,132.01 187.64,131.52 188.58,131.10 189.52,130.61 190.56,130.12 191.70,129.64 193.11,129.14 195.05,128.65 197.98,128.25 201.08,127.80 203.40,127.34 204.89,126.82 205.88,126.32 206.60,125.90 207.31,125.46 207.82,124.96 208.29,124.48 208.78,123.97 209.20,123.51 209.57,123.03 209.92,122.56 210.27,122.15 210.63,121.60 210.97,121.15 211.29,120.72 211.63,120.26 211.95,119.72 212.29,119.25 212.59,118.78 212.92,118.36 213.24,117.85 213.59,117.37 213.92,116.97 214.28,116.45 214.64,115.97 215.05,115.49 215.46,115.01 215.97,114.52 216.44,114.11 216.94,113.62 217.54,113.12 218.21,112.66 219.06,112.19 220.06,111.69 221.46,111.29 223.23,110.79 225.32,110.29 227.49,109.84 229.76,109.35 231.96,108.86 234.49,108.44 236.85,107.90 239.21,107.47 241.19,107.04 243.19,106.54 245.08,106.05 247.09,105.54 249.25,105.13 251.47,104.66 253.71,104.18 255.79,103.68 258.14,103.22 260.32,102.74 262.99,102.29 266.39,101.81 271.89,101.35 281.39,100.87 288.04,100.36 290.66,99.94 292.42,99.47 293.69,98.99 294.74,98.50 295.79,98.04 296.70,97.56 297.57,97.07 298.39,96.64 299.24,96.14 300.12,95.68 301.10,95.19 302.12,94.72 303.25,94.27 304.46,93.79 306.27,93.31 309.05,92.83 313.16,92.35 318.72,91.89 324.65,91.43 330.82,90.97 337.01,90.48 343.52,89.99 350.56,89.54 357.81,89.05 364.20,88.58 370.70,88.13 377.96,87.64 384.96,87.14 392.88,86.68 404.96,86.22 431.69,85.72 443.22,85.28 446.48,84.80 448.64,84.32 450.63,83.84 452.40,83.35 454.70,82.91 457.18,82.40 461.79,81.94 474.21,81.47 490.94,80.99 507.37,80.53 523.76,80.04 543.26,79.58 567.40,79.10 592.23,78.64 626.14,78.16 684.90,77.67 736.52,77.20 744.44,76.74 751.29,76.26 760.63,75.77 785.53,75.32 843.22,74.82 843.94,74.81 845.02,74.79 845.53,74.80 846.78,74.78 847.42,74.78 848.08,74.79 849.23,74.75 850.16,74.77 850.86,74.76 851.68,74.75 853.03,74.72 853.73,74.72 854.62,74.71 855.78,74.69 857.51,74.68 858.60,74.69 859.63,74.67 860.60,74.65 861.36,74.64 862.32,74.63 862.93,74.63 864.99,74.62 866.03,74.61 867.08,74.60 867.96,74.58 868.60,74.58 869.94,74.58 871.42,74.56 873.07,74.55 874.79,74.54 875.56,74.54 876.65,74.52 878.21,74.52 879.62,74.52 881.60,74.48 882.79,74.48 884.12,74.46 885.57,74.46 887.00,74.45 888.60,74.45 890.05,74.45 891.25,74.42 893.99,74.43 895.15,74.40 896.90,74.39 898.31,74.38 898.98,74.39 899.91,74.37 900.00,74.38" fill="none" stroke="#d62728" stroke-width="0.9" stroke-opacity="0.85"/>
<polyline points="80.00,540.00 126.32,540.00 129.89,539.53 130.42,539.06 130.74,538.59 130.99,538.12 131.19,537.65 131.36,537.18 131.50,536.71 131.61,536.24 131.73,535.77 131.83,535.30 131.92,534.83 132.01,534.36 132.09,533.89 132.17,533.42 132.24,532.95 132.31,532.48 132.38,532.01 132.44,531.54 132.50,531.07 132.56,530.60 132.61,530.13 132.67,529.66 132.72,529.19 132.77,528.72 132.82,528.25 132.86,527.78 132.91,527.31 132.95,526.84 132.99,526.37 133.03,525.90 133.07,525.43 133.11,524.96 133.15,524.49 133.19,524.02 133.23,523.55 133.27,523.08 133.30,522.61 133.34,522.14 133.37,521.67 133.40,521.20 133.43,520.73 133.46,520.26 133.50,519.79 133.53,519.32 133.56,518.85 133.59,518.38 133.62,517.91 133.65,517.44 133.68,516.97 133.71,516.50 133.74,516.03 133.77,515.56 133.79,515.09 133.82,514.62 133.85,514.15 133.87,513.68 133.90,513.21 133.93,512.74 133.95,512.27 133.98,511.80 134.00,511.33 134.02,510.86 134.04,510.39 134.07,509.92 134.09,509.45 134.12,508.98 134.14,508.51 134.16,508.04 134.18,507.57 134.20,507.10 134.23,506.63 134.25,506.16 134.27,505.69 134.29,505.22 134.31,504.75 134.33,504.28 134.35,503.81 134.37,503.34 134.39,502.87 134.41,502.40 134.43,501.93 134.45,501.46 134.47,500.99 134.49,500.52 134.51,500.05 134.53,499.58 134.55,499.11 134.57,498.64 134.59,498.17 134.61,497.70 134.63,497.23 134.65,496.76 134.67,496.29 134.68,495.82 134.70,495.35 134.72,494.88 134.74,494.41 134.76,493.94 134.77,493.47 134.79,493.00 134.81,492.53 134.83,492.06 134.85,491.59 134.86,491.12 134.88,490.65 134.90,490.18 134.91,489.71 134.93,489.24 134.95,488.77 134.96,488.30 134.98,487.83 135.00,487.36 135.01,486.89 135.03,486.42 135.04,485.95 135.06,485.48 135.08,485.01 135.09,484.54 135.11,484.07 135.12,483.60 135.14,483.13 135.16,482.66 135.17,482.19 135.19,481.72 135.20,481.25 135.22,480.78 135.23,480.31 135.25,479.84 135.26,479.37 135.28,478.90 135.29,478.43 135.31,477.96 135.32,477.49 135.34,477.02 135.35,476.55 135.37,476.08 135.38,475.61 135.40,475.14 135.41,474.67 135.42,474.20 135.44,473.73 135.46,473.26 135.47,472.79 135.48,472.32 135.50,471.85 135.52,471.38 135.53,470.91 135.54,470.44 135.56,469.97 135.57,469.50 135.59,469.03 135.60,468.56 135.61,468.09 135.63,467.62 135.64,467.15 135.66,466.68 135.67,466.21 135.68,465.74 135.70,465.27 135.71,464.80 135.72,464.33 135.74,463.86 135.75,463.39 135.76,462.92 135.78,462.45 135.79,461.98 135.80,461.51 135.81,461.04 135.83,460.57 135.84,460.10 135.85,459.63 135.87,459.16 135.88,458.69 135.89,458.22 135.90,457.75 135.92,457.28 135.93,456.81 135.94,456.34 135.96,455.87 135.97,455.40 135.98,454.93 135.99,454.46 136.01,453.99 136.02,453.52 136.03,453.05 136.04,452.58 136.06,452.11 136.07,451.64 136.08,451.17 136.10,450.70 136.11,450.23 136.12,449.76 136.13,449.29 136.15,448.82 136.16,448.35 136.17,447.88 136.18,447.41 136.19,446.94 136.21,446.47 136.22,446.00 136.23,445.53 136.24,445.06 136.26,444.59 136.27,444.12 136.28,443.65 136.29,443.18 136.30,442.71 136.32,442.24 136.33,441.77 136.34,441.30 136.35,440.83 136.37,440.36 136.38,439.89 136.39,439.42 136.40,438.95 136.41,438.48 136.42,438.01 136.44,437.54 136.45,437.07 136.46,436.60 136.47,436.13 136.48,435.66 136.50,435.19 136.51,434.72 136.52,434.25 136.53,433.78 136.54,433.31 136.55,432.84 136.57,432.37 136.58,431.90 136.59,431.43 136.60,430.96 136.61,430.49 136.62,430.02 136.64,429.55 136.65,429.08 136.66,428.61 136.67,428.14 136.68,427.67 136.69,427.20 136.70,426.73 136.71,426.26 136.73,425.79 136.74,425.32 136.75,424.85 136.76,424.38 136.77,423.91 136.78,423.44 136.80,422.97 136.81,422.50 136.82,422.03 136.83,421.56 136.84,421.09 136.85,420.62 136.86,420.15 136.88,419.68 136.89,419.21 136.90,418.74 136.91,418.27 136.92,417.80 136.93,417.33 136.94,416.86 136.95,416.39 136.97,415.92 136.98,415.45 136.99,414.98 137.00,414.51 137.01,414.04 137.02,413.57 137.03,413.10 137.04,412.63 137.05,412.16 137.06,411.69 137.08,411.22 137.09,410.75 137.10,410.28 137.11,409.81 137.12,409.34 137.13,408.87 137.14,408.40 137.15,407.93 137.16,407.46 137.17,406.99 137.18,406.52 137.19,406.05 137.21,405.58 137.22,405.11 137.23,404.64 137.24,404.17 137.25,403.70 137.26,403.23 137.27,402.76 137.28,402.29 137.30,401.82 137.31,401.35 137.32,400.88 137.33,400.41 137.34,399.94 137.35,399.47 137.36,399.00 137.37,398.53 137.39,398.06 137.40,397.59 137.41,397.12 137.42,396.65 137.43,396.18 137.44,395.71 137.45,395.24 137.46,394.77 137.47,394.30 137.48,393.83 137.49,393.36 137.51,392.89 137.52,392.42 137.53,391.95 137.54,391.48 137.55,391.01 137.56,390.54 137.57,390.07 137.58,389.60 137.59,389.13 137.61,388.66 137.62,388.19 137.63,387.72 137.64,387.25 137.65,386.78 137.66,386.31 137.67,385.84 137.68,385.37 137.69,384.90 137.70,384.43 137.72,383.96 137.73,383.49 137.74,383.02 137.75,382.55 137.76,382.08 137.77,381.61 137.78,381.14 137.80,380.67 137.81,380.20 137.82,379.73 137.83,379.26 137.84,378.79 137.85,378.32 137.86,377.85 137.88,377.38 137.89,376.91 137.90,376.44 137.91,375.97 137.92,375.50 137.93,375.03 137.94,374.56 137.96,374.09 137.97,373.62 137.98,373.15 137.99,372.68 138.00,372.21 138.01,371.74 138.02,371.27 138.04,370.80 138.05,370.33 138.06,369.86 138.07,369.39 138.08,368.92 138.09,368.45 138.10,367.98 138.11,367.51 138.12,367.04 138.14,366.57 138.15,366.10 138.16,365.63 138.17,365.16 138.18,364.69 138.19,364.22 138.21,363.75 138.22,363.28 138.23,362.81 138.24,362.34 138.25,361.87 138.26,361.40 138.28,360.93 138.29,360.46 138.30,359.99 138.31,359.52 138.32,359.05 138.34,358.58 138.35,358.11 138.36,357.64 138.37,357.17 138.38,356.70 138.39,356.23 138.40,355.76 138.42,355.29 138.43,354.82 138.44,354.35 138.45,353.88 138.46,353.41 138.47,352.94 138.48,352.47 138.50,352.00 138.51,351.53 138.52,351.06 138.53,350.59 138.54,350.12 138.56,349.65 138.57,349.18 138.58,348.71 138.59,348.24 138.60,347.77 138.61,347.30 138.63,346.83 138.64,346.36 138.65,345.89 138.66,345.42 138.67,344.95 138.69,344.48 138.70,344.01 138.71,343.54 138.72,343.07 138.74,342.60 138.75,342.13 138.76,341.66 138.77,341.19 138.78,340.72 138.80,340.25 138.81,339.78 138.82,339.31 138.83,338.84 138.84,338.37 138.86,337.90 138.87,337.43 138.88,336.96 138.89,336.49 138.91,336.02 138.92,335.55 138.93,335.08 138.94,334.61 138.95,334.14 138.97,333.67 138.98,333.20 138.99,332.73 139.00,332.26 139.02,331.79 139.03,331.32 139.04,330.85 139.05,330.38 139.07,329.91 139.08,329.44 139.09,328.97 139.11,328.50 139.12,328.03 139.13,327.56 139.15,327.09 139.16,326.62 139.17,326.15 139.18,325.68 139.20,325.21 139.21,324.74 139.22,324.27 139.24,323.80 139.25,323.33 139.26,322.86 139.28,322.39 139.29,321.92 139.30,321.45 139.32,320.98 139.33,320.51 139.34,320.04 139.36,319.57 139.37,319.10 139.38,318.63 139.40,318.16 139.41,317.69 139.43,317.22 139.44,316.75 139.45,316.28 139.47,315.81 139.48,315.34 139.50,314.87 139.51,314.40 139.52,313.93 139.54,313.46 139.55,312.99 139.57,312.52 139.58,312.05 139.60,311.58 139.61,311.11 139.63,310.64 139.64,310.17 139.65,309.70 139.67,309.23 139.68,308.76 139.69,308.29 139.71,307.82 139.72,307.35 139.74,306.88 139.75,306.41 139.77,305.94 139.78,305.47 139.80,305.00 139.81,304.53 139.82,304.06 139.84,303.59 139.85,303.12 139.87,302.65 139.89,302.18 139.90,301.71 139.92,301.24 139.93,300.77 139.95,300.30 139.96,299.83 139.98,299.36 139.99,298.89 140.00,298.42 140.02,297.95 140.04,297.48 140.05,297.01 140.07,296.54 140.08,296.07 140.10,295.60 140.11,295.13 140.13,294.66 140.14,294.19 140.16,293.72 140.17,293.25 140.19,292.78 140.20,292.31 140.22,291.84 140.24,291.37 140.25,290.90 140.27,290.43 140.29,289.96 140.30,289.49 140.32,289.02 140.33,288.55 140.35,288.08 140.37,287.61 140.38,287.14 140.40,286.67 140.42,286.20 140.43,285.73 140.45,285.26 140.47,284.79 140.49,284.32 140.50,283.85 140.52,283.38 140.54,282.91 140.55,282.44 140.57,281.97 140.59,281.50 140.61,281.03 140.62,280.56 140.64,280.09 140.66,279.62 140.68,279.15 140.70,278.68 140.71,278.21 140.73,277.74 140.75,277.27 140.77,276.80 140.78,276.33 140.80,275.86 140.82,275.39 140.84,274.92 140.86,274.45 140.87,273.98 140.89,273.51 140.91,273.04 140.93,272.57 140.95,272.10 140.97,271.63 140.99,271.16 141.01,270.69 141.03,270.22 141.05,269.75 141.06,269.28 141.08,268.81 141.10,268.34 141.12,267.87 141.14,267.40 141.16,266.93 141.18,266.46 141.20,265.99 141.22,265.52 141.24,265.05 141.26,264.58 141.28,264.11 141.30,263.64 141.32,263.17 141.34,262.70 141.36,262.23 141.39,261.76 141.41,261.29 141.43,260.82 141.45,260.35 141.47,259.88 141.49,259.41 141.51,258.94 141.53,258.47 141.56,258.00 141.58,257.53 141.60,257.06 141.62,256.59 141.64,256.12 141.66,255.65 141.69,255.18 141.71,254.71 141.73,254.24 141.76,253.77 141.78,253.30 141.80,252.83 141.82,252.36 141.85,251.89 141.87,251.42 141.90,250.95 141.92,250.48 141.94,250.01 141.97,249.54 141.99,249.07 142.02,248.60 142.04,248.13 142.06,247.66 142.09,247.19 142.11,246.72 142.14,246.25 142.16,245.78 142.19,245.31 142.21,244.84 142.24,244.37 142.26,243.90 142.29,243.43 142.32,242.96 142.34,242.49 142.37,242.02 142.40,241.55 142.42,241.08 142.45,240.61 142.48,240.14 142.51,239.67 142.53,239.20 142.56,238.73 142.59,238.26 142.62,237.79 142.65,237.32 142.67,236.85 142.70,236.38 142.73,235.91 142.76,235.44 142.79,234.97 142.82,234.50 142.85,234.03 142.88,233.56 142.91,233.09 142.94,232.62 142.97,232.15 143.00,231.68 143.03,231.21 143.06,230.74 143.09,230.27 143.13,229.80 143.16,229.33 143.19,228.86 143.22,228.39 143.25,227.92 143.28,227.45 143.32,226.98 143.35,226.51 143.38,226.04 143.41,225.57 143.45,225.10 143.48,224.63 143.52,224.16 143.55,223.69 143.58,223.22 143.62,222.75 143.66,222.28 143.69,221.81 143.73,221.34 143.76,220.87 143.80,220.40 143.84,219.93 143.88,219.46 143.92,218.99 143.96,218.52 143.99,218.05 144.03,217.58 144.07,217.11 144.11,216.64 144.15,216.17 144.18,215.70 144.23,215.23 144.27,214.76 144.31,214.29 144.35,213.82 144.39,213.35 144.43,212.88 144.47,212.41 144.51,211.94 144.56,211.47 144.60,211.00 144.65,210.53 144.69,210.06 144.74,209.59 144.78,209.12 144.83,208.65 144.88,208.18 144.93,207.71 144.98,207.24 145.03,206.77 145.08,206.30 145.13,205.83 145.18,205.36 145.23,204.89 145.28,204.42 145.33,203.95 145.38,203.48 145.44,203.01 145.50,202.54 145.55,202.07 145.61,201.60 145.67,201.13 145.73,200.66 145.79,200.19 145.84,199.72 145.91,199.25 145.97,198.78 146.03,198.31 146.09,197.84 146.16,197.37 146.23,196.90 146.30,196.43 146.37,195.96 146.44,195.49 146.50,195.02 146.58,194.55 146.65,194.08 146.74,193.61 146.82,193.14 146.90,192.67 146.98,192.20 147.07,191.73 147.16,191.26 147.25,190.79 147.35,190.32 147.45,189.85 147.55,189.38 147.66,188.91 147.76,188.44 147.86,187.97 147.97,187.50 148.09,187.03 148.21,186.56 148.32,186.09 148.44,185.62 148.57,185.15 148.72,184.68 148.87,184.21 149.03,183.74 149.18,183.27 149.36,182.80 149.53,182.33 149.71,181.86 149.91,181.39 150.10,180.92 150.30,180.45 150.54,179.98 150.79,179.51 151.06,179.04 151.36,178.57 151.71,178.10 152.10,177.63 152.62,177.16 153.26,176.69 154.06,176.22 155.71,175.75 158.57,175.28 159.71,174.81 160.40,174.34 160.89,173.87 161.28,173.40 161.61,172.93 161.90,172.46 162.19,171.99 162.43,171.52 162.64,171.05 162.84,170.58 163.03,170.11 163.20,169.64 163.38,169.17 163.55,168.70 163.71,168.23 163.87,167.76 164.03,167.29 164.19,166.82 164.33,166.35 164.47,165.88 164.61,165.41 164.73,164.94 164.85,164.47 164.98,164.00 165.11,163.53 165.24,163.06 165.36,162.59 165.49,162.12 165.62,161.65 165.76,161.18 165.87,160.71 166.00,160.24 166.12,159.77 166.24,159.30 166.35,158.83 166.47,158.36 166.59,157.89 166.71,157.42 166.84,156.95 166.97,156.48 167.09,156.01 167.21,155.54 167.34,155.07 167.47,154.60 167.61,154.13 167.74,153.66 167.88,153.19 168.02,152.72 168.15,152.25 168.29,151.78 168.45,151.31 168.59,150.84 168.75,150.37 168.92,149.90 169.09,149.43 169.26,148.96 169.44,148.49 169.62,148.02 169.80,147.55 170.01,147.08 170.23,146.61 170.45,146.14 170.68,145.67 170.93,145.20 171.19,144.73 171.49,144.26 171.82,143.79 172.15,143.32 172.52,142.85 172.92,142.38 173.36,141.91 173.83,141.44 174.30,140.97 174.86,140.50 175.38,140.03 175.94,139.56 176.48,139.09 177.01,138.62 177.57,138.15 178.15,137.68 178.71,137.21 179.31,136.74 179.90,136.27 180.45,135.80 181.06,135.33 181.72,134.86 182.37,134.39 183.08,133.92 183.76,133.45 184.47,132.98 185.23,132.51 186.05,132.04 186.85,131.57 187.64,131.10 188.58,130.63 189.52,130.16 190.56,129.69 191.70,129.22 193.11,128.75 195.05,128.28 197.98,127.81 201.08,127.34 203.40,126.87 204.89,126.40 205.88,125.93 206.60,125.46 207.31,124.99 207.82,124.52 208.29,124.05 208.78,123.58 209.20,123.11 209.57,122.64 209.92,122.17 210.27,121.70 210.63,121.23 210.97,120.76 211.29,120.29 211.63,119.82 211.95,119.35 212.29,118.88 212.59,118.41 212.92,117.94 213.24,117.47 213.59,117.00 213.92,116.53 214.28,116.06 214.64,115.59 215.05,115.12 215.46,114.65 215.97,114.18 216.44,113.71 216.94,113.24 217.54,112.77 218.21,112.30 219.06,111.83 220.06,111.36 221.46,110.89 223.23,110.42 225.32,109.95 227.49,109.48 229.76,109.01 231.96,108.54 234.49,108.07 236.85,107.60 239.21,107.13 241.19,106.66 243.19,106.19 245.08,105.72 247.09,105.25 249.25,104.78 251.47,104.31 253.71,103.84 255.79,103.37 258.14,102.90 260.32,102.43 262.99,101.96 266.39,101.49 271.89,101.02 281.39,100.55 288.04,100.08 290.66,99.61 292.42,99.14 293.69,98.67 294.74,98.20 295.79,97.73 296.70,97.26 297.57,96.79 298.39,96.32 299.24,95.85 300.12,95.38 301.10,94.91 302.12,94.44 303.25,93.97 304.46,93.50 306.27,93.03 309.05,92.56 313.16,92.09 318.72,91.62 324.65,91.15 330.82,90.68 337.01,90.21 343.52,89.74 350.56,89.27 357.81,88.80 364.20,88.33 370.70,87.86 377.96,87.39 384.96,86.92 392.88,86.45 404.96,85.98 431.69,85.51 443.22,85.04 446.48,84.57 448.64,84.10 450.63,83.63 452.40,83.16 454.70,82.69 457.18,82.22 461.79,81.75 474.21,81.28 490.94,80.81 507.37,80.34 523.76,79.87 543.26,79.40 567.40,78.93 592.23,78.46 626.14,77.99 684.90,77.52 736.52,77.05 744.44,76.58 751.29,76.11 760.63,75.64 785.53,75.17 843.22,74.70 843.94,74.69 845.02,74.68 845.53,74.67 846.78,74.66 847.42,74.65 848.08,74.64 849.23,74.63 850.16,74.62 850.86,74.61 851.68,74.61 853.03,74.60 853.73,74.59 854.62,74.58 855.78,74.57 857.51,74.56 858.60,74.55 859.63,74.54 860.60,74.53 861.36,74.52 862.32,74.51 862.93,74.50 864.99,74.49 866.03,74.48 867.08,74.47 867.96,74.46 868.60,74.45 869.94,74.45 871.42,74.44 873.07,74.43 874.79,74.42 875.56,74.41 876.65,74.40 878.21,74.39 879.62,74.38 881.60,74.37 882.79,74.36 884.12,74.35 885.57,74.34 887.00,74.33 888.60,74.32 890.05,74.31 891.25,74.30 893.99,74.29 895.15,74.29 896.90,74.28 898.31,74.27 898.98,74.26 899.91,74.25 900.00,74.25" fill="none" stroke="#d62728" stroke-width="2.0"/>
<text x="903.00" y="78.25" fill="#d62728" font-size="13" font-weight="bold">▶</text>
<text x="917.00" y="78.25" fill="#d62728" font-size="10">0.9%</text>
<rect x="86" y="514" width="90" height="20" fill="white" fill-opacity="0.85" stroke="#888"/>
<text x="92" y="528" font-weight="bold" fill="#d62728">n = 1</text>
</svg>