<?xml version="1.0" encoding="iso-8859-1"?>
<!-- Uploaded to: SVG Repo, www.svgrepo.com, Generator: SVG Repo Mixer Tools -->
<svg height="800px" width="800px" version="1.1" id="Layer_1" xmlns="http://www.w3.org/2000/svg" xmlns:xlink="http://www.w3.org/1999/xlink" 
	 viewBox="0 0 488.401 488.401" xml:space="preserve">
<path style="fill:#1B4660;" d="M133.388,336.561h213.756V189.389c0-8.704,0.567-15.77-8.137-15.77H141.533
	c-8.696,0-8.137,7.058-8.137,15.77v147.172H133.388z"/>
<path style="fill:#00B7A5;" d="M199.727,171.65c0,2.308-1.875,4.183-4.183,4.183h-55.54c-2.308,0-4.183-1.875-4.183-4.183v-55.524
	c0-2.324,1.875-4.198,4.183-4.198h55.54c2.308,0,4.183,1.875,4.183,4.198V171.65z"/>
<path style="fill:#009BB5;" d="M135.814,116.126c0-2.324,1.875-4.198,4.183-4.198h55.54c2.308,0,4.183,1.875,4.183,4.198v55.524
	c0,2.308-1.875,4.183-4.183,4.183"/>
<path style="fill:#00B7A5;" d="M272.219,171.65c0,2.308-1.875,4.183-4.183,4.183h-55.54c-2.308,0-4.183-1.875-4.183-4.183v-55.524
	c0-2.324,1.875-4.198,4.183-4.198h55.54c2.308,0,4.183,1.875,4.183,4.198V171.65z"/>
<path style="fill:#009BB5;" d="M208.305,116.126c0-2.324,1.875-4.198,4.183-4.198h55.54c2.308,0,4.183,1.875,4.183,4.198v55.524
	c0,2.308-1.875,4.183-4.183,4.183"/>
<path style="fill:#00B7A5;" d="M344.71,171.65c0,2.308-1.875,4.183-4.183,4.183h-55.54c-2.308,0-4.183-1.875-4.183-4.183v-55.524
	c0-2.324,1.875-4.198,4.183-4.198h55.54c2.308,0,4.183,1.875,4.183,4.198V171.65z"/>
<path style="fill:#009BB5;" d="M280.797,116.126c0-2.324,1.875-4.198,4.183-4.198h55.54c2.308,0,4.183,1.875,4.183,4.198v55.524
	c0,2.308-1.875,4.183-4.183,4.183"/>
<path style="fill:#00B7A5;" d="M235.969,97.725c0,2.308-1.875,4.183-4.183,4.183h-55.54c-2.308,0-4.183-1.875-4.183-4.183V42.201
	c0-2.324,1.875-4.198,4.183-4.198h55.54c2.308,0,4.183,1.875,4.183,4.198V97.725z"/>
<path style="fill:#009BB5;" d="M172.063,42.201c0-2.324,1.875-4.198,4.183-4.198h55.54c2.308,0,4.183,1.875,4.183,4.198v55.524
	c0,2.308-1.875,4.183-4.183,4.183"/>
<path style="fill:#00B7A5;" d="M308.46,97.725c0,2.308-1.875,4.183-4.183,4.183h-55.54c-2.308,0-4.183-1.875-4.183-4.183V42.201
	c0-2.324,1.875-4.198,4.183-4.198h55.54c2.308,0,4.183,1.875,4.183,4.198V97.725z"/>
<path style="fill:#009BB5;" d="M244.555,42.201c0-2.324,1.875-4.198,4.183-4.198h55.54c2.308,0,4.183,1.875,4.183,4.198v55.524
	c0,2.308-1.875,4.183-4.183,4.183"/>
<polygon style="fill:#1B4660;" points="347.412,337.916 240.262,363.91 133.128,337.916 117.87,196.588 240.262,152.8 
	362.669,196.588 "/>
<polyline style="fill:#116189;" points="240.262,363.91 133.128,337.916 117.87,196.588 240.262,152.8 "/>
<g>
	<path style="fill:#3BABFF;" d="M462.848,336.837c-11.839,0-22.67-4.12-31.248-10.957c-8.578,6.829-19.417,10.957-31.232,10.957
		c-11.823,0-22.662-4.12-31.24-10.957c-8.578,6.829-19.409,10.957-31.224,10.957c-11.831,0-22.662-4.12-31.24-10.957
		c-8.578,6.829-19.417,10.957-31.232,10.957c-11.823,0-22.67-4.12-31.24-10.957c-8.586,6.829-19.417,10.957-31.24,10.957
		c-11.808,0-22.654-4.12-31.224-10.957c-8.586,6.829-19.417,10.957-31.248,10.957c-11.808,0-22.646-4.12-31.232-10.957
		c-8.57,6.829-19.417,10.957-31.232,10.957s-22.662-4.12-31.232-10.957c-8.57,6.829-19.417,10.957-31.248,10.957
		c-9.342,0-18.062-2.615-25.537-7.058v37.864c7.475,4.443,16.203,7.05,25.537,7.05c11.831,0,22.678-4.104,31.248-10.957
		c8.57,6.845,19.417,10.957,31.232,10.957s22.662-4.104,31.232-10.957c8.586,6.845,19.424,10.957,31.232,10.957
		c11.831,0,22.662-4.104,31.248-10.957c8.57,6.845,19.417,10.957,31.224,10.957c11.823,0,22.654-4.104,31.24-10.957
		c8.57,6.845,19.417,10.957,31.24,10.957c11.815,0,22.654-4.104,31.232-10.957c8.578,6.845,19.409,10.957,31.24,10.957
		c11.815,0,22.646-4.104,31.224-10.957c8.578,6.845,19.417,10.957,31.24,10.957c11.815,0,22.654-4.104,31.232-10.957
		c8.578,6.845,19.409,10.957,31.248,10.957c9.326,0,18.054-2.599,25.537-7.05v-37.864
		C480.902,334.222,472.166,336.837,462.848,336.837z"/>
	<path style="fill:#3BABFF;" d="M431.6,401.585c-8.578,6.845-19.417,10.957-31.232,10.957c-11.823,0-22.662-4.104-31.24-10.957
		c-8.578,6.845-19.409,10.957-31.224,10.957c-11.831,0-22.662-4.104-31.24-10.957c-8.578,6.845-19.417,10.957-31.232,10.957
		c-11.823,0-22.67-4.104-31.24-10.957c-8.586,6.845-19.417,10.957-31.24,10.957c-11.808,0-22.654-4.104-31.224-10.957
		c-8.586,6.845-19.417,10.957-31.248,10.957c-11.808,0-22.646-4.104-31.232-10.957c-8.57,6.845-19.417,10.957-31.232,10.957
		s-22.646-4.104-31.216-10.957c-8.57,6.845-19.417,10.957-31.248,10.957c-9.342,0-18.062-2.607-25.537-7.05v37.849
		c7.475,4.458,16.203,7.058,25.537,7.058c11.831,0,22.678-4.12,31.248-10.957c8.57,6.829,19.417,10.957,31.232,10.957
		s22.662-4.12,31.232-10.957c8.586,6.829,19.424,10.957,31.232,10.957c11.831,0,22.662-4.12,31.248-10.957
		c8.57,6.829,19.417,10.957,31.224,10.957c11.823,0,22.654-4.12,31.24-10.957c8.57,6.829,19.417,10.957,31.24,10.957
		c11.815,0,22.654-4.12,31.232-10.957c8.578,6.829,19.409,10.957,31.24,10.957c11.815,0,22.646-4.12,31.224-10.957
		c8.578,6.829,19.417,10.957,31.24,10.957c11.815,0,22.654-4.12,31.232-10.957c8.578,6.829,19.409,10.957,31.248,10.957
		c9.326,0,18.054-2.599,25.537-7.058v-37.849c-7.483,4.435-16.219,7.05-25.537,7.05C451.009,412.542,440.178,408.438,431.6,401.585z
		"/>
</g>
<g>
	<path style="fill:#1B4660;" d="M150.985,271.08c0,2.458-1.977,4.427-4.443,4.427l0,0c-2.458,0-4.443-1.977-4.443-4.427v-8.279
		c0-2.458,1.985-4.443,4.443-4.443l0,0c2.465,0,4.443,1.985,4.443,4.443V271.08z"/>
	<path style="fill:#1B4660;" d="M183.91,266.11c0,3.679-2.962,6.648-6.656,6.648l0,0c-3.671,0-6.656-2.97-6.656-6.648v-12.351
		c0-3.663,2.985-6.632,6.656-6.632l0,0c3.694,0,6.656,2.97,6.656,6.632V266.11z"/>
</g>
<g>
	<path style="fill:#116189;" d="M329.539,271.08c0,2.458,1.993,4.427,4.45,4.427l0,0c2.458,0,4.435-1.977,4.435-4.427v-8.279
		c0-2.458-1.977-4.443-4.435-4.443l0,0c-2.458,0-4.45,1.985-4.45,4.443V271.08z"/>
	<path style="fill:#116189;" d="M296.613,266.11c0,3.679,2.977,6.648,6.656,6.648l0,0c3.663,0,6.648-2.97,6.648-6.648v-12.351
		c0-3.663-2.985-6.632-6.648-6.632l0,0c-3.678,0-6.656,2.97-6.656,6.632V266.11z"/>
</g>
</svg>