<svg width="326" height="320" viewBox="0 0 326 320" fill="none" xmlns="http://www.w3.org/2000/svg">
<mask id="mask0_6782_2035" style="mask-type:alpha" maskUnits="userSpaceOnUse" x="0" y="0" width="326" height="320">
<rect width="326" height="320" fill="#D9D9D9"/>
</mask>
<g mask="url(#mask0_6782_2035)">
<path d="M493.419 218.349L216.51 183.579" stroke="#F8F6FA" stroke-width="1.02" stroke-miterlimit="10"/>
<path d="M477.178 223.197L216.51 183.579" stroke="#F5EBFA" stroke-width="1.07" stroke-miterlimit="10"/>
<path d="M460.937 228.045L216.51 183.579" stroke="#F3E1FA" stroke-width="1.12" stroke-miterlimit="10"/>
<path d="M444.682 232.889L216.51 183.579" stroke="#F0D6FB" stroke-width="1.16" stroke-miterlimit="10"/>
<path d="M428.441 237.737L216.51 183.579" stroke="#EECCFB" stroke-width="1.21" stroke-miterlimit="10"/>
<path d="M412.2 242.585L216.51 183.579" stroke="#EBC1FB" stroke-width="1.26" stroke-miterlimit="10"/>
<path d="M395.963 247.419L216.51 183.579" stroke="#E9B7FB" stroke-width="1.31" stroke-miterlimit="10"/>
<path d="M379.708 252.263L216.51 183.579" stroke="#E6ACFC" stroke-width="1.36" stroke-miterlimit="10"/>
<path d="M363.467 257.111L216.51 183.579" stroke="#E3A2FC" stroke-width="1.41" stroke-miterlimit="10"/>
<path d="M347.226 261.959L216.51 183.579" stroke="#E197FC" stroke-width="1.46" stroke-miterlimit="10"/>
<path d="M330.985 266.807L216.51 183.579" stroke="#DE8DFC" stroke-width="1.5" stroke-miterlimit="10"/>
<path d="M314.73 271.651L216.51 183.579" stroke="#DC82FD" stroke-width="1.55" stroke-miterlimit="10"/>
<path d="M298.49 276.499L216.511 183.579" stroke="#D978FD" stroke-width="1.6" stroke-miterlimit="10"/>
<path d="M282.249 281.347L216.511 183.579" stroke="#D76DFD" stroke-width="1.65" stroke-miterlimit="10"/>
<path d="M266.008 286.195L216.511 183.579" stroke="#D463FD" stroke-width="1.7" stroke-miterlimit="10"/>
<path d="M249.756 291.025L216.51 183.579" stroke="#D158FE" stroke-width="1.75" stroke-miterlimit="10"/>
<path d="M233.515 295.873L216.51 183.579" stroke="#CF4EFE" stroke-width="1.79" stroke-miterlimit="10"/>
<path d="M217.274 300.721L216.51 183.579" stroke="#CC43FE" stroke-width="1.84" stroke-miterlimit="10"/>
<path d="M201.033 305.569L216.51 183.579" stroke="#CA39FE" stroke-width="1.89" stroke-miterlimit="10"/>
<path d="M184.792 310.417L216.51 183.579" stroke="#C72EFF" stroke-width="1.94" stroke-miterlimit="10"/>
<path d="M168.537 315.261L216.51 183.579" stroke="#C524FF" stroke-width="1.99" stroke-miterlimit="10"/>
<path d="M152.296 320.109L216.51 183.579" stroke="#C219FF" stroke-width="2.04" stroke-miterlimit="10"/>
<path d="M-41.064 -83.1073L130.158 137.285" stroke="#F8F6FA" stroke-width="1.02" stroke-miterlimit="10"/>
<path d="M-26.1549 -75.0445L130.158 137.285" stroke="#F5EBFA" stroke-width="1.07" stroke-miterlimit="10"/>
<path d="M-11.2453 -66.9815L130.158 137.285" stroke="#F3E1FA" stroke-width="1.12" stroke-miterlimit="10"/>
<path d="M3.66377 -58.9188L130.158 137.285" stroke="#F0D6FB" stroke-width="1.16" stroke-miterlimit="10"/>
<path d="M18.5913 -50.8667L130.158 137.285" stroke="#EECCFB" stroke-width="1.21" stroke-miterlimit="10"/>
<path d="M33.5004 -42.8039L130.158 137.285" stroke="#EBC1FB" stroke-width="1.26" stroke-miterlimit="10"/>
<path d="M48.41 -34.7411L130.158 137.285" stroke="#E9B7FB" stroke-width="1.31" stroke-miterlimit="10"/>
<path d="M63.3191 -26.6781L130.158 137.285" stroke="#E6ACFC" stroke-width="1.36" stroke-miterlimit="10"/>
<path d="M78.2321 -18.63L130.158 137.285" stroke="#E3A2FC" stroke-width="1.41" stroke-miterlimit="10"/>
<path d="M93.1412 -10.5671L130.158 137.285" stroke="#E197FC" stroke-width="1.46" stroke-miterlimit="10"/>
<path d="M108.051 -2.5044L130.158 137.285" stroke="#DE8DFC" stroke-width="1.5" stroke-miterlimit="10"/>
<path d="M122.974 5.56233L130.158 137.285" stroke="#DC82FD" stroke-width="1.55" stroke-miterlimit="10"/>
<path d="M137.887 13.6106L130.158 137.285" stroke="#D978FD" stroke-width="1.6" stroke-miterlimit="10"/>
<path d="M152.797 21.6734L130.158 137.285" stroke="#D76DFD" stroke-width="1.65" stroke-miterlimit="10"/>
<path d="M167.706 29.7362L130.158 137.285" stroke="#D463FD" stroke-width="1.7" stroke-miterlimit="10"/>
<path d="M182.615 37.7992L130.158 137.285" stroke="#D158FE" stroke-width="1.75" stroke-miterlimit="10"/>
<path d="M197.528 45.8473L130.157 137.285" stroke="#CF4EFE" stroke-width="1.79" stroke-miterlimit="10"/>
<path d="M212.452 53.914L130.158 137.285" stroke="#CC43FE" stroke-width="1.84" stroke-miterlimit="10"/>
<path d="M227.361 61.9769L130.158 137.285" stroke="#CA39FE" stroke-width="1.89" stroke-miterlimit="10"/>
<path d="M242.27 70.0397L130.157 137.285" stroke="#C72EFF" stroke-width="1.94" stroke-miterlimit="10"/>
<path d="M257.184 78.0881L130.158 137.285" stroke="#C524FF" stroke-width="1.99" stroke-miterlimit="10"/>
<path d="M272.093 86.1508L130.158 137.285" stroke="#C219FF" stroke-width="2.04" stroke-miterlimit="10"/>
<path d="M95.3695 414.205L130.158 137.285" stroke="#F8F6FA" stroke-width="1.02" stroke-miterlimit="10"/>
<path d="M90.5254 397.949L130.158 137.285" stroke="#F5EBFA" stroke-width="1.07" stroke-miterlimit="10"/>
<path d="M85.692 381.712L130.158 137.285" stroke="#F3E1FA" stroke-width="1.12" stroke-miterlimit="10"/>
<path d="M80.8434 365.471L130.157 137.285" stroke="#F0D6FB" stroke-width="1.16" stroke-miterlimit="10"/>
<path d="M75.9959 349.231L130.158 137.285" stroke="#EECCFB" stroke-width="1.21" stroke-miterlimit="10"/>
<path d="M71.1515 332.975L130.158 137.285" stroke="#EBC1FB" stroke-width="1.26" stroke-miterlimit="10"/>
<path d="M66.3035 316.734L130.158 137.285" stroke="#E9B7FB" stroke-width="1.31" stroke-miterlimit="10"/>
<path d="M61.4554 300.494L130.158 137.285" stroke="#E6ACFC" stroke-width="1.36" stroke-miterlimit="10"/>
<path d="M56.6074 284.253L130.158 137.285" stroke="#E3A2FC" stroke-width="1.41" stroke-miterlimit="10"/>
<path d="M51.7632 267.997L130.158 137.285" stroke="#E197FC" stroke-width="1.46" stroke-miterlimit="10"/>
<path d="M46.9152 251.757L130.158 137.285" stroke="#DE8DFC" stroke-width="1.5" stroke-miterlimit="10"/>
<path d="M42.0817 235.52L130.158 137.285" stroke="#DC82FD" stroke-width="1.55" stroke-miterlimit="10"/>
<path d="M37.2337 219.279L130.158 137.285" stroke="#D978FD" stroke-width="1.6" stroke-miterlimit="10"/>
<path d="M32.3857 203.038L130.158 137.285" stroke="#D76DFD" stroke-width="1.65" stroke-miterlimit="10"/>
<path d="M27.5415 186.783L130.158 137.285" stroke="#D463FD" stroke-width="1.7" stroke-miterlimit="10"/>
<path d="M22.6934 170.542L130.158 137.285" stroke="#D158FE" stroke-width="1.75" stroke-miterlimit="10"/>
<path d="M17.8454 154.301L130.158 137.285" stroke="#CF4EFE" stroke-width="1.79" stroke-miterlimit="10"/>
<path d="M12.9973 138.06L130.158 137.285" stroke="#CC43FE" stroke-width="1.84" stroke-miterlimit="10"/>
<path d="M8.15319 121.805L130.158 137.285" stroke="#CA39FE" stroke-width="1.89" stroke-miterlimit="10"/>
<path d="M3.30514 105.564L130.158 137.285" stroke="#C72EFF" stroke-width="1.94" stroke-miterlimit="10"/>
<path d="M-1.52814 89.327L130.158 137.285" stroke="#C524FF" stroke-width="1.99" stroke-miterlimit="10"/>
<path d="M-6.37628 73.0862L130.158 137.285" stroke="#C219FF" stroke-width="2.04" stroke-miterlimit="10"/>
<path d="M151.339 -87.8L216.51 183.579" stroke="#F8F6FA" stroke-width="1.02" stroke-miterlimit="10"/>
<path d="M161.614 -74.298L216.51 183.579" stroke="#F5EBFA" stroke-width="1.07" stroke-miterlimit="10"/>
<path d="M171.879 -60.8146L216.51 183.579" stroke="#F3E1FA" stroke-width="1.12" stroke-miterlimit="10"/>
<path d="M182.144 -47.331L216.51 183.579" stroke="#F0D6FB" stroke-width="1.16" stroke-miterlimit="10"/>
<path d="M192.405 -33.8327L216.51 183.579" stroke="#EECCFB" stroke-width="1.21" stroke-miterlimit="10"/>
<path d="M202.67 -20.3492L216.51 183.579" stroke="#EBC1FB" stroke-width="1.26" stroke-miterlimit="10"/>
<path d="M212.932 -6.85108L216.51 183.579" stroke="#E9B7FB" stroke-width="1.31" stroke-miterlimit="10"/>
<path d="M223.197 6.63249L216.51 183.579" stroke="#E6ACFC" stroke-width="1.36" stroke-miterlimit="10"/>
<path d="M233.461 20.116L216.51 183.579" stroke="#E3A2FC" stroke-width="1.41" stroke-miterlimit="10"/>
<path d="M243.737 33.6181L216.51 183.579" stroke="#E197FC" stroke-width="1.46" stroke-miterlimit="10"/>
<path d="M254.002 47.1016L216.51 183.579" stroke="#DE8DFC" stroke-width="1.5" stroke-miterlimit="10"/>
<path d="M264.267 60.5851L216.51 183.579" stroke="#DC82FD" stroke-width="1.55" stroke-miterlimit="10"/>
<path d="M274.528 74.0833L216.51 183.579" stroke="#D978FD" stroke-width="1.6" stroke-miterlimit="10"/>
<path d="M284.793 87.5668L216.51 183.579" stroke="#D76DFD" stroke-width="1.65" stroke-miterlimit="10"/>
<path d="M295.055 101.065L216.511 183.579" stroke="#D463FD" stroke-width="1.7" stroke-miterlimit="10"/>
<path d="M305.319 114.549L216.51 183.579" stroke="#D158FE" stroke-width="1.75" stroke-miterlimit="10"/>
<path d="M315.584 128.032L216.51 183.579" stroke="#CF4EFE" stroke-width="1.79" stroke-miterlimit="10"/>
<path d="M325.846 141.53L216.511 183.579" stroke="#CC43FE" stroke-width="1.84" stroke-miterlimit="10"/>
<path d="M336.125 155.018L216.51 183.579" stroke="#CA39FE" stroke-width="1.89" stroke-miterlimit="10"/>
<path d="M346.386 168.516L216.51 183.579" stroke="#C72EFF" stroke-width="1.94" stroke-miterlimit="10"/>
<path d="M356.651 182L216.511 183.579" stroke="#C524FF" stroke-width="1.99" stroke-miterlimit="10"/>
<path d="M366.916 195.483L216.51 183.579" stroke="#C219FF" stroke-width="2.04" stroke-miterlimit="10"/>
</g>
</svg>
