<svg width="628" height="210" viewBox="0 0 628 210" fill="none" xmlns="http://www.w3.org/2000/svg">
<path d="M2.00391 -137.134H63.4473V-137.802H64.7832V-137.134H126.228V-137.802H127.563V-137.134H189.007V-137.802H190.343V-137.134H251.787V-137.802H253.123V-137.134H314.566V-137.802H315.902V-137.134H377.347V-137.802H378.683V-137.134H440.126V-137.802H441.462V-137.134H502.906V-137.802H504.242V-137.134H565.686V-137.802H567.021V-137.134H628.466V-137.802H629.802V491.332H629.134V492H0V490.664H0.667969V429.221H0V427.885H0.667969V366.44H0V365.104H0.667969V303.661H0V302.325H0.667969V240.881H0V239.545H0.667969V178.102H0V176.766H0.667969V115.321H0V113.985H0.667969V52.542H0V51.2061H0.667969V-10.2383H0V-11.5742H0.667969V-73.0176H0V-74.3535H0.667969V-135.798H0V-137.134H0.667969V-137.802H2.00391V-137.134ZM2.00391 429.221V490.664H63.4473V429.221H2.00391ZM64.7832 429.221V490.664H126.228V429.221H64.7832ZM127.563 429.221V490.664H189.007V429.221H127.563ZM190.343 429.221V490.664H251.787V429.221H190.343ZM253.123 429.221V490.664H314.566V429.221H253.123ZM315.902 429.221V490.664H377.347V429.221H315.902ZM378.683 429.221V490.664H440.126V429.221H378.683ZM441.462 429.221V490.664H502.906V429.221H441.462ZM504.242 429.221V490.664H565.686V429.221H504.242ZM567.021 429.221V490.664H628.466V429.221H567.021ZM2.00391 366.44V427.885H63.4473V366.44H2.00391ZM64.7832 366.44V427.885H126.228V366.44H64.7832ZM127.563 366.44V427.885H189.007V366.44H127.563ZM190.343 366.44V427.885H251.787V366.44H190.343ZM253.123 366.44V427.885H314.566V366.44H253.123ZM315.902 366.44V427.885H377.347V366.44H315.902ZM378.683 366.44V427.885H440.126V366.44H378.683ZM441.462 366.44V427.885H502.906V366.44H441.462ZM504.242 366.44V427.885H565.686V366.44H504.242ZM567.021 366.44V427.885H628.466V366.44H567.021ZM2.00391 303.661V365.104H63.4473V303.661H2.00391ZM64.7832 303.661V365.104H126.228V303.661H64.7832ZM127.563 303.661V365.104H189.007V303.661H127.563ZM190.343 303.661V365.104H251.787V303.661H190.343ZM253.123 303.661V365.104H314.566V303.661H253.123ZM315.902 303.661V365.104H377.347V303.661H315.902ZM378.683 303.661V365.104H440.126V303.661H378.683ZM441.462 303.661V365.104H502.906V303.661H441.462ZM504.242 303.661V365.104H565.686V303.661H504.242ZM567.021 303.661V365.104H628.466V303.661H567.021ZM2.00391 240.881V302.325H63.4473V240.881H2.00391ZM64.7832 240.881V302.325H126.228V240.881H64.7832ZM127.563 240.881V302.325H189.007V240.881H127.563ZM190.343 240.881V302.325H251.787V240.881H190.343ZM253.123 240.881V302.325H314.566V240.881H253.123ZM315.902 240.881V302.325H377.347V240.881H315.902ZM378.683 240.881V302.325H440.126V240.881H378.683ZM441.462 240.881V302.325H502.906V240.881H441.462ZM504.242 240.881V302.325H565.686V240.881H504.242ZM567.021 240.881V302.325H628.466V240.881H567.021ZM2.00391 178.102V239.545H63.4473V178.102H2.00391ZM64.7832 178.102V239.545H126.228V178.102H64.7832ZM127.563 178.102V239.545H189.007V178.102H127.563ZM190.343 178.102V239.545H251.787V178.102H190.343ZM253.123 178.102V239.545H314.566V178.102H253.123ZM315.902 178.102V239.545H377.347V178.102H315.902ZM378.683 178.102V239.545H440.126V178.102H378.683ZM441.462 178.102V239.545H502.906V178.102H441.462ZM504.242 178.102V239.545H565.686V178.102H504.242ZM567.021 178.102V239.545H628.466V178.102H567.021ZM2.00391 115.321V176.766H63.4473V115.321H2.00391ZM64.7832 115.321V176.766H126.228V115.321H64.7832ZM127.563 115.321V176.766H189.007V115.321H127.563ZM190.343 115.321V176.766H251.787V115.321H190.343ZM253.123 115.321V176.766H314.566V115.321H253.123ZM315.902 115.321V176.766H377.347V115.321H315.902ZM378.683 115.321V176.766H440.126V115.321H378.683ZM441.462 115.321V176.766H502.906V115.321H441.462ZM504.242 115.321V176.766H565.686V115.321H504.242ZM567.021 115.321V176.766H628.466V115.321H567.021ZM2.00391 52.542V113.985H63.4473V52.542H2.00391ZM64.7832 52.542V113.985H126.228V52.542H64.7832ZM127.563 52.542V113.985H189.007V52.542H127.563ZM190.343 52.542V113.985H251.787V52.542H190.343ZM253.123 52.542V113.985H314.566V52.542H253.123ZM315.902 52.542V113.985H377.347V52.542H315.902ZM378.683 52.542V113.985H440.126V52.542H378.683ZM441.462 52.542V113.985H502.906V52.542H441.462ZM504.242 52.542V113.985H565.686V52.542H504.242ZM567.021 52.542V113.985H628.466V52.542H567.021ZM2.00391 -10.2383V51.2061H63.4473V-10.2383H2.00391ZM64.7832 -10.2383V51.2061H126.228V-10.2383H64.7832ZM127.563 -10.2383V51.2061H189.007V-10.2383H127.563ZM190.343 -10.2383V51.2061H251.787V-10.2383H190.343ZM253.123 -10.2383V51.2061H314.566V-10.2383H253.123ZM315.902 -10.2383V51.2061H377.347V-10.2383H315.902ZM378.683 -10.2383V51.2061H440.126V-10.2383H378.683ZM441.462 -10.2383V51.2061H502.906V-10.2383H441.462ZM504.242 -10.2383V51.2061H565.686V-10.2383H504.242ZM567.021 -10.2383V51.2061H628.466V-10.2383H567.021ZM2.00391 -73.0176V-11.5742H63.4473V-73.0176H2.00391ZM64.7832 -73.0176V-11.5742H126.228V-73.0176H64.7832ZM127.563 -73.0176V-11.5742H189.007V-73.0176H127.563ZM190.343 -73.0176V-11.5742H251.787V-73.0176H190.343ZM253.123 -73.0176V-11.5742H314.566V-73.0176H253.123ZM315.902 -73.0176V-11.5742H377.347V-73.0176H315.902ZM378.683 -73.0176V-11.5742H440.126V-73.0176H378.683ZM441.462 -73.0176V-11.5742H502.906V-73.0176H441.462ZM504.242 -73.0176V-11.5742H565.686V-73.0176H504.242ZM567.021 -73.0176V-11.5742H628.466V-73.0176H567.021ZM2.00391 -135.798V-74.3535H63.4473V-135.798H2.00391ZM64.7832 -135.798V-74.3535H126.228V-135.798H64.7832ZM127.563 -135.798V-74.3535H189.007V-135.798H127.563ZM190.343 -135.798V-74.3535H251.787V-135.798H190.343ZM253.123 -135.798V-74.3535H314.566V-135.798H253.123ZM315.902 -135.798V-74.3535H377.347V-135.798H315.902ZM378.683 -135.798V-74.3535H440.126V-135.798H378.683ZM441.462 -135.798V-74.3535H502.906V-135.798H441.462ZM504.242 -135.798V-74.3535H565.686V-135.798H504.242ZM567.021 -135.798V-74.3535H628.466V-135.798H567.021Z" fill="url(#paint0_radial_6428_1692)"/>
<defs>
<radialGradient id="paint0_radial_6428_1692" cx="0" cy="0" r="1" gradientUnits="userSpaceOnUse" gradientTransform="translate(314.901 177.099) rotate(90) scale(477.193)">
<stop stop-color="white" stop-opacity="0.25"/>
<stop offset="1" stop-opacity="0"/>
</radialGradient>
</defs>
</svg>
