<svg width="133" height="33" viewBox="0 0 133 33" fill="none" xmlns="http://www.w3.org/2000/svg">
<mask id="mask0_6560_187" style="mask-type:luminance" maskUnits="userSpaceOnUse" x="0" y="0" width="133" height="33">
<path d="M132.332 0H0V32.675H132.332V0Z" fill="white"/>
</mask>
<g mask="url(#mask0_6560_187)">
<path d="M89.898 20.998H77.303C77.537 23.498 79.569 25.062 82.303 25.062C84.1653 25.0686 85.9706 24.4201 87.403 23.23L89.17 25.696C87.263 27.4353 84.7493 28.3564 82.17 28.261C77.04 28.261 73.54 24.93 73.54 19.661C73.54 14.529 77.172 11.061 82.24 11.061C86.671 11.061 89.97 13.861 89.97 19.491C89.97 20.024 89.936 20.523 89.903 20.991M77.337 18.166H86.437C86.269 15.566 84.504 14.266 82.105 14.266C80.9619 14.1797 79.8294 14.5366 78.9422 15.2626C78.0551 15.9887 77.4814 17.0284 77.34 18.166" fill="#F8F6FA"/>
<path d="M92.188 6.704C92.188 6.06748 92.4408 5.45703 92.8909 5.00694C93.341 4.55686 93.9515 4.304 94.588 4.304C95.2245 4.304 95.835 4.55686 96.285 5.00694C96.7351 5.45703 96.988 6.06748 96.988 6.704C96.988 7.34052 96.7351 7.95097 96.285 8.40106C95.835 8.85114 95.2245 9.104 94.588 9.104C93.9515 9.104 93.341 8.85114 92.8909 8.40106C92.4408 7.95097 92.188 7.34052 92.188 6.704ZM92.753 11.436H96.485V27.895H92.753V11.436Z" fill="#F8F6FA"/>
<path d="M99.3062 19.73C99.3062 14.765 102.806 11.067 108.206 11.067C109.346 11.0026 110.487 11.1786 111.555 11.5835C112.623 11.9885 113.594 12.6134 114.405 13.4176C115.216 14.2219 115.849 15.1876 116.262 16.2521C116.676 17.3167 116.861 18.4562 116.806 19.597C116.806 24.561 113.342 28.26 107.943 28.26C102.678 28.26 99.3132 24.628 99.3132 19.73M113.108 19.73C113.108 16.765 111.141 14.366 108.108 14.366C107.425 14.3532 106.747 14.481 106.116 14.7415C105.484 15.002 104.913 15.3897 104.438 15.8803C103.963 16.3709 103.594 16.9541 103.354 17.5935C103.113 18.2329 103.007 18.9149 103.042 19.597C103.042 22.562 105.009 24.961 108.042 24.961C108.725 24.9735 109.403 24.8455 110.034 24.5849C110.665 24.3242 111.236 23.9366 111.711 23.446C112.186 22.9553 112.555 22.3723 112.795 21.733C113.035 21.0938 113.141 20.412 113.106 19.73" fill="#F8F6FA"/>
<path d="M118.238 26.362L119.771 23.53C121.555 24.5637 123.574 25.1254 125.636 25.162C127.468 25.162 128.668 24.33 128.668 23.096C128.668 21.862 127.634 21.196 125.301 20.965C121.137 20.531 118.937 18.832 118.937 16.065C118.937 13.098 121.603 11.1 125.568 11.1C127.645 11.0993 129.692 11.6027 131.532 12.567L130.367 15.433C128.852 14.6359 127.177 14.1915 125.467 14.133C123.633 14.133 122.567 14.833 122.567 15.999C122.567 17.165 123.467 17.766 125.667 18.031C130.467 18.665 132.332 20.097 132.332 23.163C132.332 26.263 129.632 28.363 125.568 28.363C122.99 28.3571 120.461 27.6659 118.238 26.362Z" fill="#F8F6FA"/>
<path d="M28.844 8.038C29.906 7.45 30.744 7.024 31.354 6.767C33.8108 5.61529 36.3783 4.71634 39.017 4.084C39.851 3.884 40.763 3.711 41.73 3.568V0L41.691 0.005C40.572 0.181 39.501 0.392 38.511 0.632C35.7039 1.35086 32.9684 2.32526 30.339 3.543C29.618 3.894 28.67 4.382 27.525 4.994C26.402 5.594 25.068 6.337 23.451 7.267C21.5783 8.36633 19.9813 9.259 18.66 9.945C18.398 9.812 18.152 9.688 17.931 9.582C15.3418 8.30109 12.6134 7.32329 9.8 6.668C6.58748 5.91376 3.29984 5.52595 0 5.512L0 9.1C0.061 9.105 0.116 9.113 0.176 9.113C3.18838 9.08425 6.19349 9.4139 9.128 10.095C10.9744 10.5495 12.7881 11.1275 14.557 11.825C14.033 12.035 13.506 12.238 12.987 12.425C11.7166 12.8817 10.424 13.2739 9.114 13.6C6.18212 14.2534 3.18339 14.5585 0.18 14.509H0.165C0.11 14.509 0.059 14.509 0.004 14.509H0V18.167C0.055 18.167 0.106 18.167 0.161 18.167H0.18C3.18339 18.1175 6.18212 18.4226 9.114 19.076C10.4243 19.4014 11.7173 19.7929 12.988 20.249C13.507 20.436 14.034 20.639 14.558 20.849C12.7891 21.5466 10.9754 22.1245 9.129 22.579C6.19449 23.2601 3.18938 23.5898 0.177 23.561C0.116 23.561 0.061 23.569 0.001 23.574V27.166C3.30084 27.1479 6.58805 26.7567 9.8 26C12.6127 25.3449 15.3404 24.3674 17.929 23.087C18.151 22.981 18.396 22.857 18.658 22.724C19.976 23.41 21.573 24.3027 23.449 25.402C25.066 26.332 26.401 27.074 27.523 27.675C28.668 28.287 29.616 28.775 30.337 29.126C32.9664 30.3437 35.7019 31.3181 38.509 32.037C39.499 32.277 40.57 32.487 41.689 32.664L41.728 32.669V29.1C40.761 28.957 39.849 28.784 39.015 28.584C36.3763 27.9517 33.8088 27.0527 31.352 25.901C30.745 25.644 29.905 25.219 28.842 24.63C27.779 24.041 26.47 23.3 24.823 22.347C23.8897 21.799 23.01 21.299 22.184 20.847C23.008 20.39 23.902 19.886 24.884 19.324C25.573 18.924 26.203 18.568 26.784 18.238C27.036 18.376 27.284 18.51 27.522 18.638C28.663 19.248 29.613 19.738 30.339 20.089C32.9675 21.3074 35.7023 22.2818 38.509 23C39.549 23.252 40.629 23.461 41.73 23.632V20.06C40.785 19.92 39.874 19.751 39.012 19.544C36.3741 18.9114 33.8072 18.0124 31.351 16.861C31.038 16.73 30.667 16.553 30.24 16.337C30.667 16.12 31.04 15.944 31.351 15.813C33.8072 14.6616 36.3741 13.7626 39.012 13.13C39.874 12.923 40.785 12.753 41.73 12.614V9.043C40.63 9.214 39.55 9.423 38.509 9.675C35.7019 10.3937 32.9667 11.3688 30.338 12.588C29.612 12.939 28.662 13.428 27.521 14.039C27.286 14.165 27.035 14.3 26.783 14.439C26.2 14.11 25.569 13.75 24.883 13.353C23.905 12.792 23.011 12.287 22.183 11.83C23.0083 11.376 23.888 10.876 24.822 10.33C26.469 9.375 27.782 8.63 28.843 8.042M12.143 16.342C12.694 16.166 13.249 15.979 13.804 15.776C15.159 15.276 16.547 14.7 17.931 14.053C18.156 13.942 18.39 13.824 18.631 13.7C19.883 14.359 21.475 15.241 23.391 16.342C21.475 17.442 19.883 18.325 18.631 18.984C18.386 18.86 18.152 18.742 17.931 18.631C16.548 17.984 15.159 17.406 13.804 16.908C13.2493 16.7047 12.6957 16.516 12.143 16.342Z" fill="#F8F6FA"/>
<path d="M62.0549 24.3623H72.2929V27.8943H58.1929V4.57031H62.0569L62.0549 24.3623Z" fill="#F8F6FA"/>
</g>
</svg>
