<svg width="326" height="320" viewBox="0 0 326 320" fill="none" xmlns="http://www.w3.org/2000/svg">
<g>
<path d="M118.095 5.14058L1.51074 4.99683" stroke="#EECCFB" stroke-width="1.77" stroke-miterlimit="10"/>
<path d="M126.654 27.5664L1.49316 27.4047" stroke="#EBC1FB" stroke-width="1.84" stroke-miterlimit="10"/>
<path d="M135.194 49.9922L1.45703 49.8304" stroke="#E9B7FB" stroke-width="1.91" stroke-miterlimit="10"/>
<path d="M143.735 72.4179L1.4209 72.2382" stroke="#E6ACFC" stroke-width="1.98" stroke-miterlimit="10"/>
<path d="M152.276 94.8437L1.40332 94.646" stroke="#E3A2FC" stroke-width="2.06" stroke-miterlimit="10"/>
<path d="M160.816 117.269L1.36719 117.072" stroke="#E197FC" stroke-width="2.13" stroke-miterlimit="10"/>
<path d="M169.356 139.695L1.34863 139.48" stroke="#DE8DFC" stroke-width="2.2" stroke-miterlimit="10"/>
<path d="M177.916 162.121L1.31348 161.887" stroke="#DC82FD" stroke-width="2.27" stroke-miterlimit="10"/>
<path d="M186.456 184.547L1.27734 184.313" stroke="#D978FD" stroke-width="2.34" stroke-miterlimit="10"/>
<path d="M194.996 206.973L1.25879 206.721" stroke="#D76DFD" stroke-width="2.41" stroke-miterlimit="10"/>
<path d="M203.536 229.398L1.22266 229.129" stroke="#D463FD" stroke-width="2.48" stroke-miterlimit="10"/>
<path d="M212.078 251.824L1.20508 251.554" stroke="#D158FE" stroke-width="2.55" stroke-miterlimit="10"/>
<path d="M220.636 274.25L1.16895 273.962" stroke="#CF4EFE" stroke-width="2.62" stroke-miterlimit="10"/>
<path d="M229.176 296.676L1.13281 296.388" stroke="#CC43FE" stroke-width="2.69" stroke-miterlimit="10"/>
<path d="M237.717 319.101L1.11523 318.796" stroke="#CA39FE" stroke-width="2.76" stroke-miterlimit="10"/>
<path d="M324.76 286.181V388.786" stroke="#F8F6FA" stroke-width="1.38" stroke-miterlimit="10"/>
<path d="M309.423 275.49V388.786" stroke="#F5EBFA" stroke-width="1.44" stroke-miterlimit="10"/>
<path d="M294.067 264.816V388.787" stroke="#F3E1FA" stroke-width="1.51" stroke-miterlimit="10"/>
<path d="M278.713 254.124V388.787" stroke="#F0D6FB" stroke-width="1.57" stroke-miterlimit="10"/>
<path d="M263.375 243.432V388.787" stroke="#EECCFB" stroke-width="1.64" stroke-miterlimit="10"/>
<path d="M248.021 232.741V388.787" stroke="#EBC1FB" stroke-width="1.7" stroke-miterlimit="10"/>
<path d="M232.683 222.067V388.787" stroke="#E9B7FB" stroke-width="1.77" stroke-miterlimit="10"/>
<path d="M217.328 211.375V388.786" stroke="#E6ACFC" stroke-width="1.83" stroke-miterlimit="10"/>
<path d="M201.99 200.683V388.787" stroke="#E3A2FC" stroke-width="1.9" stroke-miterlimit="10"/>
<path d="M186.636 189.991V388.787" stroke="#E197FC" stroke-width="1.96" stroke-miterlimit="10"/>
<path d="M171.299 179.318V388.787" stroke="#DE8DFC" stroke-width="2.03" stroke-miterlimit="10"/>
<path d="M155.943 168.626V388.786" stroke="#DC82FD" stroke-width="2.1" stroke-miterlimit="10"/>
<path d="M140.588 157.934V388.786" stroke="#D978FD" stroke-width="2.16" stroke-miterlimit="10"/>
<path d="M125.251 147.242V388.786" stroke="#D76DFD" stroke-width="2.23" stroke-miterlimit="10"/>
<path d="M109.896 136.569V388.787" stroke="#D463FD" stroke-width="2.29" stroke-miterlimit="10"/>
<path d="M94.5586 125.877V388.786" stroke="#D158FE" stroke-width="2.36" stroke-miterlimit="10"/>
<path d="M79.2031 115.185V388.787" stroke="#CF4EFE" stroke-width="2.42" stroke-miterlimit="10"/>
<path d="M63.8662 104.493V388.786" stroke="#CC43FE" stroke-width="2.49" stroke-miterlimit="10"/>
<path d="M48.5117 93.8014V388.786" stroke="#CA39FE" stroke-width="2.55" stroke-miterlimit="10"/>
<path d="M33.1738 83.1277V388.787" stroke="#C72EFF" stroke-width="2.62" stroke-miterlimit="10"/>
<path d="M17.8193 72.4358V388.786" stroke="#C524FF" stroke-width="2.69" stroke-miterlimit="10"/>
<path d="M2.48145 61.7441V388.787" stroke="#C219FF" stroke-width="2.75" stroke-miterlimit="10"/>
</g>
</svg>
