<?xml version="1.0" ?>
<!DOCTYPE svg  PUBLIC '-//W3C//DTD SVG 1.1//EN'  'http://www.w3.org/Graphics/SVG/1.1/DTD/svg11.dtd'>
<!-- Uploaded to: SVG Repo, www.svgrepo.com, Generator: SVG Repo Mixer Tools -->
<svg width="800px" height="800px" viewBox="0 0 32 32" enable-background="new 0 0 32 32" version="1.1" xml:space="preserve" xmlns="http://www.w3.org/2000/svg" xmlns:xlink="http://www.w3.org/1999/xlink">
<g id="Layer_2"/>
<g id="Layer_3"/>
<g id="Layer_4"/>
<g id="Layer_5">
<g>
<path d="M23,31H11c-1.6543,0-3-1.3457-3-3v-1c0-0.5527,0.4478-1,1-1s1,0.4473,1,1v1c0,0.5518,0.4487,1,1,1h12    c0.5513,0,1-0.4482,1-1V13c0-0.5527,0.4478-1,1-1s1,0.4473,1,1v15C26,29.6543,24.6543,31,23,31z" fill="#4391B2"/>
</g>
<g>
<path d="M17,6v17c0,2.76-2.24,5-5,5H6c-2.76,0-5-2.24-5-5V6c0-2.76,2.24-5,5-5h6C14.76,1,17,3.24,17,6z" fill="#48B1DD"/>
</g>
<g>
<circle cx="9" cy="20" fill="#96CEE5" r="5"/>
<circle cx="9" cy="9" fill="#96CEE5" r="5"/>
</g>
<g>
<g>
<circle cx="7.5" cy="9" fill="#231F20" r="1"/>
</g>
<g>
<circle cx="10.5" cy="9" fill="#231F20" r="1"/>
</g>
</g>
<g>
<g>
<circle cx="7.5" cy="9" fill="#4391B2" r="1"/>
</g>
<g>
<circle cx="10.5" cy="9" fill="#4391B2" r="1"/>
</g>
</g>
<g>
<g>
<circle cx="7.5" cy="20" fill="#4391B2" r="1"/>
</g>
<g>
<circle cx="10.5" cy="20" fill="#4391B2" r="1"/>
</g>
</g>
<g>
<path d="M23,7c-0.5522,0-1-0.4473-1-1V2c0-0.5527,0.4478-1,1-1s1,0.4473,1,1v4C24,6.5527,23.5522,7,23,7z" fill="#48B1DD"/>
</g>
<g>
<path d="M27,7c-0.5522,0-1-0.4473-1-1V2c0-0.5527,0.4478-1,1-1s1,0.4473,1,1v4C28,6.5527,27.5522,7,27,7z" fill="#48B1DD"/>
</g>
<g>
<path d="M31,6c0,0.55-0.45,1-1,1v4c0,1.65-1.35,3-3,3h-4c-1.65,0-3-1.35-3-3V7c-0.55,0-1-0.45-1-1s0.45-1,1-1h10    C30.55,5,31,5.45,31,6z" fill="#96CEE5"/>
</g>
</g>
<g id="Layer_6"/>
<g id="Layer_7"/>
<g id="Layer_8"/>
<g id="Layer_9"/>
<g id="Layer_10"/>
<g id="Layer_11"/>
<g id="Layer_12"/>
<g id="Layer_13"/>
<g id="Layer_14"/>
<g id="Layer_15"/>
<g id="Layer_16"/>
<g id="Layer_17"/>
<g id="Layer_18"/>
<g id="Layer_19"/>
<g id="Layer_20"/>
<g id="Layer_21"/>
<g id="Layer_22"/>
<g id="Layer_23"/>
<g id="Layer_24"/>
<g id="Layer_25"/>
<g id="Layer_26"/>
<g id="Layer_27"/>
<g id="Layer_28"/>
<g id="Layer_29"/>
<g id="Layer_30"/>
<g id="Layer_31"/>
</svg>