<?xml version="1.0" encoding="utf-8" standalone="no"?>
<!DOCTYPE svg PUBLIC "-//W3C//DTD SVG 1.1//EN"
  "http://www.w3.org/Graphics/SVG/1.1/DTD/svg11.dtd">
<svg xmlns:xlink="http://www.w3.org/1999/xlink" width="576pt" height="360pt" viewBox="0 0 576 360" xmlns="http://www.w3.org/2000/svg" version="1.1">
 <metadata>
  <rdf:RDF xmlns:dc="http://purl.org/dc/elements/1.1/" xmlns:cc="http://creativecommons.org/ns#" xmlns:rdf="http://www.w3.org/1999/02/22-rdf-syntax-ns#">
   <cc:Work>
    <dc:type rdf:resource="http://purl.org/dc/dcmitype/StillImage"/>
    <dc:date>2026-05-11T19:32:28.611901</dc:date>
    <dc:format>image/svg+xml</dc:format>
    <dc:creator>
     <cc:Agent>
      <dc:title>Matplotlib v3.10.9, https://matplotlib.org/</dc:title>
     </cc:Agent>
    </dc:creator>
   </cc:Work>
  </rdf:RDF>
 </metadata>
 <defs>
  <style type="text/css">*{stroke-linejoin: round; stroke-linecap: butt}</style>
 </defs>
 <g id="figure_1">
  <g id="patch_1">
   <path d="M 0 360 
L 576 360 
L 576 0 
L 0 0 
z
" style="fill: #ffffff"/>
  </g>
  <g id="axes_1">
   <g id="patch_2">
    <path d="M 47.72 318.04 
L 558.9 318.04 
L 558.9 43.584 
L 47.72 43.584 
z
" style="fill: #ffffff"/>
   </g>
   <g id="matplotlib.axis_1">
    <g id="xtick_1">
     <g id="line2d_1">
      <path d="M 47.72 318.04 
L 47.72 43.584 
" clip-path="url(#p6db2c25229)" style="fill: none; stroke: #b0b0b0; stroke-opacity: 0.3; stroke-width: 0.8; stroke-linecap: square"/>
     </g>
     <g id="line2d_2">
      <defs>
       <path id="m42c70f3915" d="M 0 0 
L 0 3.5 
" style="stroke: #000000; stroke-width: 0.8"/>
      </defs>
      <g>
       <use xlink:href="#m42c70f3915" x="47.72" y="318.04" style="stroke: #000000; stroke-width: 0.8"/>
      </g>
     </g>
     <g id="text_1">
      <!-- 0 -->
      <g transform="translate(44.53875 332.638438) scale(0.1 -0.1)">
       <defs>
        <path id="DejaVuSans-30" d="M 2034 4250 
Q 1547 4250 1301 3770 
Q 1056 3291 1056 2328 
Q 1056 1369 1301 889 
Q 1547 409 2034 409 
Q 2525 409 2770 889 
Q 3016 1369 3016 2328 
Q 3016 3291 2770 3770 
Q 2525 4250 2034 4250 
z
M 2034 4750 
Q 2819 4750 3233 4129 
Q 3647 3509 3647 2328 
Q 3647 1150 3233 529 
Q 2819 -91 2034 -91 
Q 1250 -91 836 529 
Q 422 1150 422 2328 
Q 422 3509 836 4129 
Q 1250 4750 2034 4750 
z
" transform="scale(0.015625)"/>
       </defs>
       <use xlink:href="#DejaVuSans-30"/>
      </g>
     </g>
    </g>
    <g id="xtick_2">
     <g id="line2d_3">
      <path d="M 120.745714 318.04 
L 120.745714 43.584 
" clip-path="url(#p6db2c25229)" style="fill: none; stroke: #b0b0b0; stroke-opacity: 0.3; stroke-width: 0.8; stroke-linecap: square"/>
     </g>
     <g id="line2d_4">
      <g>
       <use xlink:href="#m42c70f3915" x="120.745714" y="318.04" style="stroke: #000000; stroke-width: 0.8"/>
      </g>
     </g>
     <g id="text_2">
      <!-- 5 -->
      <g transform="translate(117.564464 332.638438) scale(0.1 -0.1)">
       <defs>
        <path id="DejaVuSans-35" d="M 691 4666 
L 3169 4666 
L 3169 4134 
L 1269 4134 
L 1269 2991 
Q 1406 3038 1543 3061 
Q 1681 3084 1819 3084 
Q 2600 3084 3056 2656 
Q 3513 2228 3513 1497 
Q 3513 744 3044 326 
Q 2575 -91 1722 -91 
Q 1428 -91 1123 -41 
Q 819 9 494 109 
L 494 744 
Q 775 591 1075 516 
Q 1375 441 1709 441 
Q 2250 441 2565 725 
Q 2881 1009 2881 1497 
Q 2881 1984 2565 2268 
Q 2250 2553 1709 2553 
Q 1456 2553 1204 2497 
Q 953 2441 691 2322 
L 691 4666 
z
" transform="scale(0.015625)"/>
       </defs>
       <use xlink:href="#DejaVuSans-35"/>
      </g>
     </g>
    </g>
    <g id="xtick_3">
     <g id="line2d_5">
      <path d="M 193.771429 318.04 
L 193.771429 43.584 
" clip-path="url(#p6db2c25229)" style="fill: none; stroke: #b0b0b0; stroke-opacity: 0.3; stroke-width: 0.8; stroke-linecap: square"/>
     </g>
     <g id="line2d_6">
      <g>
       <use xlink:href="#m42c70f3915" x="193.771429" y="318.04" style="stroke: #000000; stroke-width: 0.8"/>
      </g>
     </g>
     <g id="text_3">
      <!-- 10 -->
      <g transform="translate(187.408929 332.638438) scale(0.1 -0.1)">
       <defs>
        <path id="DejaVuSans-31" d="M 794 531 
L 1825 531 
L 1825 4091 
L 703 3866 
L 703 4441 
L 1819 4666 
L 2450 4666 
L 2450 531 
L 3481 531 
L 3481 0 
L 794 0 
L 794 531 
z
" transform="scale(0.015625)"/>
       </defs>
       <use xlink:href="#DejaVuSans-31"/>
       <use xlink:href="#DejaVuSans-30" transform="translate(63.623047 0)"/>
      </g>
     </g>
    </g>
    <g id="xtick_4">
     <g id="line2d_7">
      <path d="M 266.797143 318.04 
L 266.797143 43.584 
" clip-path="url(#p6db2c25229)" style="fill: none; stroke: #b0b0b0; stroke-opacity: 0.3; stroke-width: 0.8; stroke-linecap: square"/>
     </g>
     <g id="line2d_8">
      <g>
       <use xlink:href="#m42c70f3915" x="266.797143" y="318.04" style="stroke: #000000; stroke-width: 0.8"/>
      </g>
     </g>
     <g id="text_4">
      <!-- 15 -->
      <g transform="translate(260.434643 332.638438) scale(0.1 -0.1)">
       <use xlink:href="#DejaVuSans-31"/>
       <use xlink:href="#DejaVuSans-35" transform="translate(63.623047 0)"/>
      </g>
     </g>
    </g>
    <g id="xtick_5">
     <g id="line2d_9">
      <path d="M 339.822857 318.04 
L 339.822857 43.584 
" clip-path="url(#p6db2c25229)" style="fill: none; stroke: #b0b0b0; stroke-opacity: 0.3; stroke-width: 0.8; stroke-linecap: square"/>
     </g>
     <g id="line2d_10">
      <g>
       <use xlink:href="#m42c70f3915" x="339.822857" y="318.04" style="stroke: #000000; stroke-width: 0.8"/>
      </g>
     </g>
     <g id="text_5">
      <!-- 20 -->
      <g transform="translate(333.460357 332.638438) scale(0.1 -0.1)">
       <defs>
        <path id="DejaVuSans-32" d="M 1228 531 
L 3431 531 
L 3431 0 
L 469 0 
L 469 531 
Q 828 903 1448 1529 
Q 2069 2156 2228 2338 
Q 2531 2678 2651 2914 
Q 2772 3150 2772 3378 
Q 2772 3750 2511 3984 
Q 2250 4219 1831 4219 
Q 1534 4219 1204 4116 
Q 875 4013 500 3803 
L 500 4441 
Q 881 4594 1212 4672 
Q 1544 4750 1819 4750 
Q 2544 4750 2975 4387 
Q 3406 4025 3406 3419 
Q 3406 3131 3298 2873 
Q 3191 2616 2906 2266 
Q 2828 2175 2409 1742 
Q 1991 1309 1228 531 
z
" transform="scale(0.015625)"/>
       </defs>
       <use xlink:href="#DejaVuSans-32"/>
       <use xlink:href="#DejaVuSans-30" transform="translate(63.623047 0)"/>
      </g>
     </g>
    </g>
    <g id="xtick_6">
     <g id="line2d_11">
      <path d="M 412.848571 318.04 
L 412.848571 43.584 
" clip-path="url(#p6db2c25229)" style="fill: none; stroke: #b0b0b0; stroke-opacity: 0.3; stroke-width: 0.8; stroke-linecap: square"/>
     </g>
     <g id="line2d_12">
      <g>
       <use xlink:href="#m42c70f3915" x="412.848571" y="318.04" style="stroke: #000000; stroke-width: 0.8"/>
      </g>
     </g>
     <g id="text_6">
      <!-- 25 -->
      <g transform="translate(406.486071 332.638438) scale(0.1 -0.1)">
       <use xlink:href="#DejaVuSans-32"/>
       <use xlink:href="#DejaVuSans-35" transform="translate(63.623047 0)"/>
      </g>
     </g>
    </g>
    <g id="xtick_7">
     <g id="line2d_13">
      <path d="M 485.874286 318.04 
L 485.874286 43.584 
" clip-path="url(#p6db2c25229)" style="fill: none; stroke: #b0b0b0; stroke-opacity: 0.3; stroke-width: 0.8; stroke-linecap: square"/>
     </g>
     <g id="line2d_14">
      <g>
       <use xlink:href="#m42c70f3915" x="485.874286" y="318.04" style="stroke: #000000; stroke-width: 0.8"/>
      </g>
     </g>
     <g id="text_7">
      <!-- 30 -->
      <g transform="translate(479.511786 332.638438) scale(0.1 -0.1)">
       <defs>
        <path id="DejaVuSans-33" d="M 2597 2516 
Q 3050 2419 3304 2112 
Q 3559 1806 3559 1356 
Q 3559 666 3084 287 
Q 2609 -91 1734 -91 
Q 1441 -91 1130 -33 
Q 819 25 488 141 
L 488 750 
Q 750 597 1062 519 
Q 1375 441 1716 441 
Q 2309 441 2620 675 
Q 2931 909 2931 1356 
Q 2931 1769 2642 2001 
Q 2353 2234 1838 2234 
L 1294 2234 
L 1294 2753 
L 1863 2753 
Q 2328 2753 2575 2939 
Q 2822 3125 2822 3475 
Q 2822 3834 2567 4026 
Q 2313 4219 1838 4219 
Q 1578 4219 1281 4162 
Q 984 4106 628 3988 
L 628 4550 
Q 988 4650 1302 4700 
Q 1616 4750 1894 4750 
Q 2613 4750 3031 4423 
Q 3450 4097 3450 3541 
Q 3450 3153 3228 2886 
Q 3006 2619 2597 2516 
z
" transform="scale(0.015625)"/>
       </defs>
       <use xlink:href="#DejaVuSans-33"/>
       <use xlink:href="#DejaVuSans-30" transform="translate(63.623047 0)"/>
      </g>
     </g>
    </g>
    <g id="xtick_8">
     <g id="line2d_15">
      <path d="M 558.9 318.04 
L 558.9 43.584 
" clip-path="url(#p6db2c25229)" style="fill: none; stroke: #b0b0b0; stroke-opacity: 0.3; stroke-width: 0.8; stroke-linecap: square"/>
     </g>
     <g id="line2d_16">
      <g>
       <use xlink:href="#m42c70f3915" x="558.9" y="318.04" style="stroke: #000000; stroke-width: 0.8"/>
      </g>
     </g>
     <g id="text_8">
      <!-- 35 -->
      <g transform="translate(552.5375 332.638438) scale(0.1 -0.1)">
       <use xlink:href="#DejaVuSans-33"/>
       <use xlink:href="#DejaVuSans-35" transform="translate(63.623047 0)"/>
      </g>
     </g>
    </g>
    <g id="text_9">
     <!-- Time (seconds) -->
     <g transform="translate(265.148281 346.316563) scale(0.1 -0.1)">
      <defs>
       <path id="DejaVuSans-54" d="M -19 4666 
L 3928 4666 
L 3928 4134 
L 2272 4134 
L 2272 0 
L 1638 0 
L 1638 4134 
L -19 4134 
L -19 4666 
z
" transform="scale(0.015625)"/>
       <path id="DejaVuSans-69" d="M 603 3500 
L 1178 3500 
L 1178 0 
L 603 0 
L 603 3500 
z
M 603 4863 
L 1178 4863 
L 1178 4134 
L 603 4134 
L 603 4863 
z
" transform="scale(0.015625)"/>
       <path id="DejaVuSans-6d" d="M 3328 2828 
Q 3544 3216 3844 3400 
Q 4144 3584 4550 3584 
Q 5097 3584 5394 3201 
Q 5691 2819 5691 2113 
L 5691 0 
L 5113 0 
L 5113 2094 
Q 5113 2597 4934 2840 
Q 4756 3084 4391 3084 
Q 3944 3084 3684 2787 
Q 3425 2491 3425 1978 
L 3425 0 
L 2847 0 
L 2847 2094 
Q 2847 2600 2669 2842 
Q 2491 3084 2119 3084 
Q 1678 3084 1418 2786 
Q 1159 2488 1159 1978 
L 1159 0 
L 581 0 
L 581 3500 
L 1159 3500 
L 1159 2956 
Q 1356 3278 1631 3431 
Q 1906 3584 2284 3584 
Q 2666 3584 2933 3390 
Q 3200 3197 3328 2828 
z
" transform="scale(0.015625)"/>
       <path id="DejaVuSans-65" d="M 3597 1894 
L 3597 1613 
L 953 1613 
Q 991 1019 1311 708 
Q 1631 397 2203 397 
Q 2534 397 2845 478 
Q 3156 559 3463 722 
L 3463 178 
Q 3153 47 2828 -22 
Q 2503 -91 2169 -91 
Q 1331 -91 842 396 
Q 353 884 353 1716 
Q 353 2575 817 3079 
Q 1281 3584 2069 3584 
Q 2775 3584 3186 3129 
Q 3597 2675 3597 1894 
z
M 3022 2063 
Q 3016 2534 2758 2815 
Q 2500 3097 2075 3097 
Q 1594 3097 1305 2825 
Q 1016 2553 972 2059 
L 3022 2063 
z
" transform="scale(0.015625)"/>
       <path id="DejaVuSans-20" transform="scale(0.015625)"/>
       <path id="DejaVuSans-28" d="M 1984 4856 
Q 1566 4138 1362 3434 
Q 1159 2731 1159 2009 
Q 1159 1288 1364 580 
Q 1569 -128 1984 -844 
L 1484 -844 
Q 1016 -109 783 600 
Q 550 1309 550 2009 
Q 550 2706 781 3412 
Q 1013 4119 1484 4856 
L 1984 4856 
z
" transform="scale(0.015625)"/>
       <path id="DejaVuSans-73" d="M 2834 3397 
L 2834 2853 
Q 2591 2978 2328 3040 
Q 2066 3103 1784 3103 
Q 1356 3103 1142 2972 
Q 928 2841 928 2578 
Q 928 2378 1081 2264 
Q 1234 2150 1697 2047 
L 1894 2003 
Q 2506 1872 2764 1633 
Q 3022 1394 3022 966 
Q 3022 478 2636 193 
Q 2250 -91 1575 -91 
Q 1294 -91 989 -36 
Q 684 19 347 128 
L 347 722 
Q 666 556 975 473 
Q 1284 391 1588 391 
Q 1994 391 2212 530 
Q 2431 669 2431 922 
Q 2431 1156 2273 1281 
Q 2116 1406 1581 1522 
L 1381 1569 
Q 847 1681 609 1914 
Q 372 2147 372 2553 
Q 372 3047 722 3315 
Q 1072 3584 1716 3584 
Q 2034 3584 2315 3537 
Q 2597 3491 2834 3397 
z
" transform="scale(0.015625)"/>
       <path id="DejaVuSans-63" d="M 3122 3366 
L 3122 2828 
Q 2878 2963 2633 3030 
Q 2388 3097 2138 3097 
Q 1578 3097 1268 2742 
Q 959 2388 959 1747 
Q 959 1106 1268 751 
Q 1578 397 2138 397 
Q 2388 397 2633 464 
Q 2878 531 3122 666 
L 3122 134 
Q 2881 22 2623 -34 
Q 2366 -91 2075 -91 
Q 1284 -91 818 406 
Q 353 903 353 1747 
Q 353 2603 823 3093 
Q 1294 3584 2113 3584 
Q 2378 3584 2631 3529 
Q 2884 3475 3122 3366 
z
" transform="scale(0.015625)"/>
       <path id="DejaVuSans-6f" d="M 1959 3097 
Q 1497 3097 1228 2736 
Q 959 2375 959 1747 
Q 959 1119 1226 758 
Q 1494 397 1959 397 
Q 2419 397 2687 759 
Q 2956 1122 2956 1747 
Q 2956 2369 2687 2733 
Q 2419 3097 1959 3097 
z
M 1959 3584 
Q 2709 3584 3137 3096 
Q 3566 2609 3566 1747 
Q 3566 888 3137 398 
Q 2709 -91 1959 -91 
Q 1206 -91 779 398 
Q 353 888 353 1747 
Q 353 2609 779 3096 
Q 1206 3584 1959 3584 
z
" transform="scale(0.015625)"/>
       <path id="DejaVuSans-6e" d="M 3513 2113 
L 3513 0 
L 2938 0 
L 2938 2094 
Q 2938 2591 2744 2837 
Q 2550 3084 2163 3084 
Q 1697 3084 1428 2787 
Q 1159 2491 1159 1978 
L 1159 0 
L 581 0 
L 581 3500 
L 1159 3500 
L 1159 2956 
Q 1366 3272 1645 3428 
Q 1925 3584 2291 3584 
Q 2894 3584 3203 3211 
Q 3513 2838 3513 2113 
z
" transform="scale(0.015625)"/>
       <path id="DejaVuSans-64" d="M 2906 2969 
L 2906 4863 
L 3481 4863 
L 3481 0 
L 2906 0 
L 2906 525 
Q 2725 213 2448 61 
Q 2172 -91 1784 -91 
Q 1150 -91 751 415 
Q 353 922 353 1747 
Q 353 2572 751 3078 
Q 1150 3584 1784 3584 
Q 2172 3584 2448 3432 
Q 2725 3281 2906 2969 
z
M 947 1747 
Q 947 1113 1208 752 
Q 1469 391 1925 391 
Q 2381 391 2643 752 
Q 2906 1113 2906 1747 
Q 2906 2381 2643 2742 
Q 2381 3103 1925 3103 
Q 1469 3103 1208 2742 
Q 947 2381 947 1747 
z
" transform="scale(0.015625)"/>
       <path id="DejaVuSans-29" d="M 513 4856 
L 1013 4856 
Q 1481 4119 1714 3412 
Q 1947 2706 1947 2009 
Q 1947 1309 1714 600 
Q 1481 -109 1013 -844 
L 513 -844 
Q 928 -128 1133 580 
Q 1338 1288 1338 2009 
Q 1338 2731 1133 3434 
Q 928 4138 513 4856 
z
" transform="scale(0.015625)"/>
      </defs>
      <use xlink:href="#DejaVuSans-54"/>
      <use xlink:href="#DejaVuSans-69" transform="translate(57.958984 0)"/>
      <use xlink:href="#DejaVuSans-6d" transform="translate(85.742188 0)"/>
      <use xlink:href="#DejaVuSans-65" transform="translate(183.154297 0)"/>
      <use xlink:href="#DejaVuSans-20" transform="translate(244.677734 0)"/>
      <use xlink:href="#DejaVuSans-28" transform="translate(276.464844 0)"/>
      <use xlink:href="#DejaVuSans-73" transform="translate(315.478516 0)"/>
      <use xlink:href="#DejaVuSans-65" transform="translate(367.578125 0)"/>
      <use xlink:href="#DejaVuSans-63" transform="translate(429.101562 0)"/>
      <use xlink:href="#DejaVuSans-6f" transform="translate(484.082031 0)"/>
      <use xlink:href="#DejaVuSans-6e" transform="translate(545.263672 0)"/>
      <use xlink:href="#DejaVuSans-64" transform="translate(608.642578 0)"/>
      <use xlink:href="#DejaVuSans-73" transform="translate(672.119141 0)"/>
      <use xlink:href="#DejaVuSans-29" transform="translate(724.21875 0)"/>
     </g>
    </g>
   </g>
   <g id="matplotlib.axis_2">
    <g id="ytick_1">
     <g id="line2d_17">
      <path d="M 47.72 305.564727 
L 558.9 305.564727 
" clip-path="url(#p6db2c25229)" style="fill: none; stroke: #b0b0b0; stroke-opacity: 0.3; stroke-width: 0.8; stroke-linecap: square"/>
     </g>
     <g id="line2d_18">
      <defs>
       <path id="maa7720d72d" d="M 0 0 
L -3.5 0 
" style="stroke: #000000; stroke-width: 0.8"/>
      </defs>
      <g>
       <use xlink:href="#maa7720d72d" x="47.72" y="305.564727" style="stroke: #000000; stroke-width: 0.8"/>
      </g>
     </g>
     <g id="text_10">
      <!-- 0.0 -->
      <g transform="translate(24.816875 309.363946) scale(0.1 -0.1)">
       <defs>
        <path id="DejaVuSans-2e" d="M 684 794 
L 1344 794 
L 1344 0 
L 684 0 
L 684 794 
z
" transform="scale(0.015625)"/>
       </defs>
       <use xlink:href="#DejaVuSans-30"/>
       <use xlink:href="#DejaVuSans-2e" transform="translate(63.623047 0)"/>
       <use xlink:href="#DejaVuSans-30" transform="translate(95.410156 0)"/>
      </g>
     </g>
    </g>
    <g id="ytick_2">
     <g id="line2d_19">
      <path d="M 47.72 255.663636 
L 558.9 255.663636 
" clip-path="url(#p6db2c25229)" style="fill: none; stroke: #b0b0b0; stroke-opacity: 0.3; stroke-width: 0.8; stroke-linecap: square"/>
     </g>
     <g id="line2d_20">
      <g>
       <use xlink:href="#maa7720d72d" x="47.72" y="255.663636" style="stroke: #000000; stroke-width: 0.8"/>
      </g>
     </g>
     <g id="text_11">
      <!-- 0.2 -->
      <g transform="translate(24.816875 259.462855) scale(0.1 -0.1)">
       <use xlink:href="#DejaVuSans-30"/>
       <use xlink:href="#DejaVuSans-2e" transform="translate(63.623047 0)"/>
       <use xlink:href="#DejaVuSans-32" transform="translate(95.410156 0)"/>
      </g>
     </g>
    </g>
    <g id="ytick_3">
     <g id="line2d_21">
      <path d="M 47.72 205.762545 
L 558.9 205.762545 
" clip-path="url(#p6db2c25229)" style="fill: none; stroke: #b0b0b0; stroke-opacity: 0.3; stroke-width: 0.8; stroke-linecap: square"/>
     </g>
     <g id="line2d_22">
      <g>
       <use xlink:href="#maa7720d72d" x="47.72" y="205.762545" style="stroke: #000000; stroke-width: 0.8"/>
      </g>
     </g>
     <g id="text_12">
      <!-- 0.4 -->
      <g transform="translate(24.816875 209.561764) scale(0.1 -0.1)">
       <defs>
        <path id="DejaVuSans-34" d="M 2419 4116 
L 825 1625 
L 2419 1625 
L 2419 4116 
z
M 2253 4666 
L 3047 4666 
L 3047 1625 
L 3713 1625 
L 3713 1100 
L 3047 1100 
L 3047 0 
L 2419 0 
L 2419 1100 
L 313 1100 
L 313 1709 
L 2253 4666 
z
" transform="scale(0.015625)"/>
       </defs>
       <use xlink:href="#DejaVuSans-30"/>
       <use xlink:href="#DejaVuSans-2e" transform="translate(63.623047 0)"/>
       <use xlink:href="#DejaVuSans-34" transform="translate(95.410156 0)"/>
      </g>
     </g>
    </g>
    <g id="ytick_4">
     <g id="line2d_23">
      <path d="M 47.72 155.861455 
L 558.9 155.861455 
" clip-path="url(#p6db2c25229)" style="fill: none; stroke: #b0b0b0; stroke-opacity: 0.3; stroke-width: 0.8; stroke-linecap: square"/>
     </g>
     <g id="line2d_24">
      <g>
       <use xlink:href="#maa7720d72d" x="47.72" y="155.861455" style="stroke: #000000; stroke-width: 0.8"/>
      </g>
     </g>
     <g id="text_13">
      <!-- 0.6 -->
      <g transform="translate(24.816875 159.660673) scale(0.1 -0.1)">
       <defs>
        <path id="DejaVuSans-36" d="M 2113 2584 
Q 1688 2584 1439 2293 
Q 1191 2003 1191 1497 
Q 1191 994 1439 701 
Q 1688 409 2113 409 
Q 2538 409 2786 701 
Q 3034 994 3034 1497 
Q 3034 2003 2786 2293 
Q 2538 2584 2113 2584 
z
M 3366 4563 
L 3366 3988 
Q 3128 4100 2886 4159 
Q 2644 4219 2406 4219 
Q 1781 4219 1451 3797 
Q 1122 3375 1075 2522 
Q 1259 2794 1537 2939 
Q 1816 3084 2150 3084 
Q 2853 3084 3261 2657 
Q 3669 2231 3669 1497 
Q 3669 778 3244 343 
Q 2819 -91 2113 -91 
Q 1303 -91 875 529 
Q 447 1150 447 2328 
Q 447 3434 972 4092 
Q 1497 4750 2381 4750 
Q 2619 4750 2861 4703 
Q 3103 4656 3366 4563 
z
" transform="scale(0.015625)"/>
       </defs>
       <use xlink:href="#DejaVuSans-30"/>
       <use xlink:href="#DejaVuSans-2e" transform="translate(63.623047 0)"/>
       <use xlink:href="#DejaVuSans-36" transform="translate(95.410156 0)"/>
      </g>
     </g>
    </g>
    <g id="ytick_5">
     <g id="line2d_25">
      <path d="M 47.72 105.960364 
L 558.9 105.960364 
" clip-path="url(#p6db2c25229)" style="fill: none; stroke: #b0b0b0; stroke-opacity: 0.3; stroke-width: 0.8; stroke-linecap: square"/>
     </g>
     <g id="line2d_26">
      <g>
       <use xlink:href="#maa7720d72d" x="47.72" y="105.960364" style="stroke: #000000; stroke-width: 0.8"/>
      </g>
     </g>
     <g id="text_14">
      <!-- 0.8 -->
      <g transform="translate(24.816875 109.759582) scale(0.1 -0.1)">
       <defs>
        <path id="DejaVuSans-38" d="M 2034 2216 
Q 1584 2216 1326 1975 
Q 1069 1734 1069 1313 
Q 1069 891 1326 650 
Q 1584 409 2034 409 
Q 2484 409 2743 651 
Q 3003 894 3003 1313 
Q 3003 1734 2745 1975 
Q 2488 2216 2034 2216 
z
M 1403 2484 
Q 997 2584 770 2862 
Q 544 3141 544 3541 
Q 544 4100 942 4425 
Q 1341 4750 2034 4750 
Q 2731 4750 3128 4425 
Q 3525 4100 3525 3541 
Q 3525 3141 3298 2862 
Q 3072 2584 2669 2484 
Q 3125 2378 3379 2068 
Q 3634 1759 3634 1313 
Q 3634 634 3220 271 
Q 2806 -91 2034 -91 
Q 1263 -91 848 271 
Q 434 634 434 1313 
Q 434 1759 690 2068 
Q 947 2378 1403 2484 
z
M 1172 3481 
Q 1172 3119 1398 2916 
Q 1625 2713 2034 2713 
Q 2441 2713 2670 2916 
Q 2900 3119 2900 3481 
Q 2900 3844 2670 4047 
Q 2441 4250 2034 4250 
Q 1625 4250 1398 4047 
Q 1172 3844 1172 3481 
z
" transform="scale(0.015625)"/>
       </defs>
       <use xlink:href="#DejaVuSans-30"/>
       <use xlink:href="#DejaVuSans-2e" transform="translate(63.623047 0)"/>
       <use xlink:href="#DejaVuSans-38" transform="translate(95.410156 0)"/>
      </g>
     </g>
    </g>
    <g id="ytick_6">
     <g id="line2d_27">
      <path d="M 47.72 56.059273 
L 558.9 56.059273 
" clip-path="url(#p6db2c25229)" style="fill: none; stroke: #b0b0b0; stroke-opacity: 0.3; stroke-width: 0.8; stroke-linecap: square"/>
     </g>
     <g id="line2d_28">
      <g>
       <use xlink:href="#maa7720d72d" x="47.72" y="56.059273" style="stroke: #000000; stroke-width: 0.8"/>
      </g>
     </g>
     <g id="text_15">
      <!-- 1.0 -->
      <g transform="translate(24.816875 59.858491) scale(0.1 -0.1)">
       <use xlink:href="#DejaVuSans-31"/>
       <use xlink:href="#DejaVuSans-2e" transform="translate(63.623047 0)"/>
       <use xlink:href="#DejaVuSans-30" transform="translate(95.410156 0)"/>
      </g>
     </g>
    </g>
    <g id="text_16">
     <!-- CDF -->
     <g transform="translate(18.737187 191.029188) rotate(-90) scale(0.1 -0.1)">
      <defs>
       <path id="DejaVuSans-43" d="M 4122 4306 
L 4122 3641 
Q 3803 3938 3442 4084 
Q 3081 4231 2675 4231 
Q 1875 4231 1450 3742 
Q 1025 3253 1025 2328 
Q 1025 1406 1450 917 
Q 1875 428 2675 428 
Q 3081 428 3442 575 
Q 3803 722 4122 1019 
L 4122 359 
Q 3791 134 3420 21 
Q 3050 -91 2638 -91 
Q 1578 -91 968 557 
Q 359 1206 359 2328 
Q 359 3453 968 4101 
Q 1578 4750 2638 4750 
Q 3056 4750 3426 4639 
Q 3797 4528 4122 4306 
z
" transform="scale(0.015625)"/>
       <path id="DejaVuSans-44" d="M 1259 4147 
L 1259 519 
L 2022 519 
Q 2988 519 3436 956 
Q 3884 1394 3884 2338 
Q 3884 3275 3436 3711 
Q 2988 4147 2022 4147 
L 1259 4147 
z
M 628 4666 
L 1925 4666 
Q 3281 4666 3915 4102 
Q 4550 3538 4550 2338 
Q 4550 1131 3912 565 
Q 3275 0 1925 0 
L 628 0 
L 628 4666 
z
" transform="scale(0.015625)"/>
       <path id="DejaVuSans-46" d="M 628 4666 
L 3309 4666 
L 3309 4134 
L 1259 4134 
L 1259 2759 
L 3109 2759 
L 3109 2228 
L 1259 2228 
L 1259 0 
L 628 0 
L 628 4666 
z
" transform="scale(0.015625)"/>
      </defs>
      <use xlink:href="#DejaVuSans-43"/>
      <use xlink:href="#DejaVuSans-44" transform="translate(69.824219 0)"/>
      <use xlink:href="#DejaVuSans-46" transform="translate(146.826172 0)"/>
     </g>
    </g>
   </g>
   <g id="line2d_29">
    <path d="M 47.866051 305.564727 
L 73.132949 305.480627 
L 73.571103 305.270406 
L 74.009257 304.797466 
L 74.447411 303.990822 
L 75.031617 302.332203 
L 75.469771 300.432634 
L 75.907926 297.594945 
L 76.492131 291.824142 
L 77.514491 277.782516 
L 78.244749 269.412882 
L 78.975006 260.78295 
L 80.143417 244.601795 
L 80.727623 240.258713 
L 82.188137 231.566136 
L 83.210497 226.007882 
L 84.671011 218.904525 
L 85.839423 215.111055 
L 86.423629 211.537558 
L 87.445989 205.274777 
L 88.322297 199.702041 
L 88.906503 196.125156 
L 89.344657 194.556037 
L 89.928863 193.49062 
L 90.513069 192.394945 
L 91.68148 189.470232 
L 92.265686 187.58685 
L 92.849891 184.989178 
L 94.456457 176.96451 
L 95.186714 174.486349 
L 95.624869 171.827886 
L 97.231434 160.327743 
L 97.81564 158.095912 
L 98.545897 156.221842 
L 99.568257 154.056849 
L 100.006411 152.45515 
L 100.736669 148.501002 
L 101.320874 145.6416 
L 101.90508 143.944322 
L 104.826109 137.315783 
L 105.99452 133.634562 
L 107.01688 129.613911 
L 107.747137 126.896208 
L 108.331343 125.663331 
L 109.0616 124.233421 
L 110.668166 120.24601 
L 111.544474 118.882032 
L 111.982629 117.560566 
L 112.420783 115.477202 
L 114.1734 105.78313 
L 114.611554 104.848788 
L 115.049709 104.421013 
L 116.656274 103.323905 
L 117.094429 102.586407 
L 117.824686 100.677278 
L 118.408891 99.374149 
L 118.847046 98.860152 
L 119.431251 98.574707 
L 124.250949 97.108448 
L 124.689103 96.715331 
L 125.127257 96.062444 
L 125.711463 94.715632 
L 127.171977 90.736693 
L 127.610131 90.3077 
L 128.48644 89.932374 
L 129.216697 89.515941 
L 129.654851 89.080201 
L 130.093006 88.318045 
L 130.677211 86.656845 
L 132.429829 80.927423 
L 132.867983 80.502586 
L 133.890343 80.076687 
L 135.350857 79.559069 
L 136.227166 79.30822 
L 136.66532 78.871194 
L 138.125834 76.898985 
L 140.316606 75.152155 
L 141.77712 73.734351 
L 144.259994 71.586045 
L 144.990251 71.32904 
L 147.034971 70.790843 
L 148.057331 70.267629 
L 149.809949 69.123327 
L 150.394154 68.402739 
L 151.416514 67.026711 
L 152.146771 66.584801 
L 154.337543 65.62459 
L 155.213851 65.40136 
L 155.652006 65.069358 
L 157.11252 63.686606 
L 158.573034 63.115035 
L 160.763806 62.34752 
L 161.932217 61.873807 
L 163.24668 61.623518 
L 164.707194 61.402163 
L 167.044017 60.766334 
L 169.234789 60.467685 
L 171.279509 60.05118 
L 173.324229 59.59178 
L 174.638691 59.284433 
L 176.099206 58.857977 
L 177.267617 58.525772 
L 178.874183 57.993889 
L 180.188646 57.936432 
L 181.941263 57.826242 
L 183.69388 57.629715 
L 190.558297 57.396336 
L 192.164863 57.153005 
L 195.377994 56.954792 
L 197.422714 56.585011 
L 210.129189 56.360301 
L 215.38704 56.250587 
L 217.577811 56.208318 
L 222.105406 56.096462 
L 251.461743 56.059669 
L 559.046051 56.059273 
L 559.046051 56.059273 
" clip-path="url(#p6db2c25229)" style="fill: none; stroke: #1f77b4; stroke-width: 2; stroke-linecap: square"/>
   </g>
   <g id="line2d_30">
    <path d="M 47.866051 305.564727 
L 73.132949 305.480627 
L 73.571103 305.270406 
L 74.009257 304.79747 
L 74.447411 303.990896 
L 75.031617 302.333595 
L 75.469771 300.440568 
L 75.907926 297.626642 
L 76.492131 291.947635 
L 80.43552 245.039195 
L 81.165777 241.244664 
L 82.188137 235.546773 
L 83.5026 228.92252 
L 84.671011 223.523117 
L 85.839423 219.924919 
L 86.423629 216.502096 
L 87.445989 210.477795 
L 88.322297 205.016043 
L 88.906503 201.609443 
L 89.344657 200.239928 
L 89.782811 199.644774 
L 90.513069 198.856609 
L 91.827531 196.851371 
L 92.411737 195.424447 
L 92.995943 193.198825 
L 94.310406 187.509994 
L 95.186714 185.10648 
L 95.624869 182.73323 
L 97.231434 172.032506 
L 97.81564 169.932719 
L 98.399846 168.581939 
L 99.714309 166.317482 
L 100.152463 164.686752 
L 101.612977 157.939481 
L 102.197183 156.660409 
L 103.803749 153.97442 
L 104.534006 152.736447 
L 105.264263 150.963565 
L 106.140571 148.263522 
L 108.03924 141.59342 
L 109.353703 139.208388 
L 110.376063 136.918924 
L 111.690526 134.891033 
L 112.12868 133.456915 
L 112.712886 130.457142 
L 113.881297 123.879338 
L 114.319451 122.468375 
L 114.757606 121.784265 
L 115.19576 121.504212 
L 116.802326 120.808573 
L 117.24048 120.097905 
L 118.700994 116.935524 
L 119.139149 116.619064 
L 119.869406 116.422571 
L 123.958846 115.668369 
L 124.543051 115.274129 
L 124.981206 114.689307 
L 125.565411 113.442542 
L 126.295669 111.233025 
L 127.025926 109.253324 
L 127.46408 108.667307 
L 128.048286 108.362974 
L 129.5088 107.917688 
L 129.946954 107.434927 
L 130.385109 106.486323 
L 130.969314 104.585779 
L 132.283777 99.92752 
L 132.721931 99.32166 
L 133.160086 99.095719 
L 134.6206 98.827626 
L 136.081114 98.426467 
L 136.519269 98.031565 
L 137.103474 97.100779 
L 137.68768 96.238523 
L 138.125834 95.897373 
L 138.856091 95.661252 
L 140.900811 95.378019 
L 142.945531 95.044087 
L 145.282354 94.26384 
L 148.787589 93.334552 
L 149.517846 92.88084 
L 150.248103 92.103159 
L 151.270463 90.868511 
L 151.854669 90.561367 
L 153.02308 90.317607 
L 155.213851 89.901789 
L 155.652006 89.562033 
L 157.11252 88.125907 
L 158.13488 87.812207 
L 159.887497 87.263658 
L 161.932217 86.385394 
L 164.26904 85.329248 
L 167.044017 84.49598 
L 173.324229 82.911335 
L 174.49264 82.39369 
L 176.975514 80.921534 
L 178.728131 80.252324 
L 185.592549 78.142444 
L 187.345166 77.67656 
L 191.726709 76.533501 
L 194.209583 75.896154 
L 202.09636 74.115902 
L 207.938417 73.130019 
L 210.421291 72.403335 
L 212.173909 71.8884 
L 215.825194 71.041365 
L 220.206737 70.314827 
L 222.105406 69.840809 
L 223.711971 69.253053 
L 226.340897 68.25552 
L 229.115874 67.472834 
L 232.182954 66.793841 
L 233.497417 66.536982 
L 235.250034 66.190065 
L 238.609217 65.313756 
L 246.495994 63.552174 
L 253.944617 62.510157 
L 258.034057 62.002548 
L 260.224829 61.705165 
L 268.111606 60.916165 
L 271.178686 60.618256 
L 278.627309 59.694932 
L 285.783829 59.012278 
L 290.01932 58.522192 
L 297.906097 57.925002 
L 304.770514 57.527244 
L 319.66776 56.94793 
L 347.417531 56.327548 
L 358.955594 56.221834 
L 379.987 56.111444 
L 559.046051 56.059273 
L 559.046051 56.059273 
" clip-path="url(#p6db2c25229)" style="fill: none; stroke-dasharray: 7.4,3.2; stroke-dashoffset: 0; stroke: #ff7f0e; stroke-width: 2"/>
   </g>
   <g id="line2d_31">
    <path d="M 252.192 318.04 
L 252.192 43.584 
" clip-path="url(#p6db2c25229)" style="fill: none; stroke-dasharray: 3.7,1.6; stroke-dashoffset: 0; stroke: #ff0000"/>
   </g>
   <g id="patch_3">
    <path d="M 47.72 318.04 
L 47.72 43.584 
" style="fill: none; stroke: #000000; stroke-width: 0.8; stroke-linejoin: miter; stroke-linecap: square"/>
   </g>
   <g id="patch_4">
    <path d="M 558.9 318.04 
L 558.9 43.584 
" style="fill: none; stroke: #000000; stroke-width: 0.8; stroke-linejoin: miter; stroke-linecap: square"/>
   </g>
   <g id="patch_5">
    <path d="M 47.72 318.04 
L 558.9 318.04 
" style="fill: none; stroke: #000000; stroke-width: 0.8; stroke-linejoin: miter; stroke-linecap: square"/>
   </g>
   <g id="patch_6">
    <path d="M 47.72 43.584 
L 558.9 43.584 
" style="fill: none; stroke: #000000; stroke-width: 0.8; stroke-linejoin: miter; stroke-linecap: square"/>
   </g>
   <g id="text_17">
    <g id="patch_7">
     <path d="M 303.31 316.83713 
L 415.3625 316.83713 
Q 417.7625 316.83713 417.7625 314.43713 
L 417.7625 297.21438 
Q 417.7625 294.81438 415.3625 294.81438 
L 303.31 294.81438 
Q 300.91 294.81438 300.91 297.21438 
L 300.91 314.43713 
Q 300.91 316.83713 303.31 316.83713 
z
" style="fill: #ffffff; opacity: 0.8; stroke: #000000; stroke-linejoin: miter"/>
    </g>
    <!-- P(≤14s | 1-hop)   = 1.0000 -->
    <g transform="translate(303.31 303.32813) scale(0.08 -0.08)">
     <defs>
      <path id="DejaVuSans-50" d="M 1259 4147 
L 1259 2394 
L 2053 2394 
Q 2494 2394 2734 2622 
Q 2975 2850 2975 3272 
Q 2975 3691 2734 3919 
Q 2494 4147 2053 4147 
L 1259 4147 
z
M 628 4666 
L 2053 4666 
Q 2838 4666 3239 4311 
Q 3641 3956 3641 3272 
Q 3641 2581 3239 2228 
Q 2838 1875 2053 1875 
L 1259 1875 
L 1259 0 
L 628 0 
L 628 4666 
z
" transform="scale(0.015625)"/>
      <path id="DejaVuSans-2264" d="M 4684 3175 
L 1684 2309 
L 4684 1453 
L 4684 897 
L 678 2047 
L 678 2578 
L 4684 3725 
L 4684 3175 
z
M 678 531 
L 4684 531 
L 4684 0 
L 678 0 
L 678 531 
z
" transform="scale(0.015625)"/>
      <path id="DejaVuSans-7c" d="M 1344 4891 
L 1344 -1509 
L 813 -1509 
L 813 4891 
L 1344 4891 
z
" transform="scale(0.015625)"/>
      <path id="DejaVuSans-2d" d="M 313 2009 
L 1997 2009 
L 1997 1497 
L 313 1497 
L 313 2009 
z
" transform="scale(0.015625)"/>
      <path id="DejaVuSans-68" d="M 3513 2113 
L 3513 0 
L 2938 0 
L 2938 2094 
Q 2938 2591 2744 2837 
Q 2550 3084 2163 3084 
Q 1697 3084 1428 2787 
Q 1159 2491 1159 1978 
L 1159 0 
L 581 0 
L 581 4863 
L 1159 4863 
L 1159 2956 
Q 1366 3272 1645 3428 
Q 1925 3584 2291 3584 
Q 2894 3584 3203 3211 
Q 3513 2838 3513 2113 
z
" transform="scale(0.015625)"/>
      <path id="DejaVuSans-70" d="M 1159 525 
L 1159 -1331 
L 581 -1331 
L 581 3500 
L 1159 3500 
L 1159 2969 
Q 1341 3281 1617 3432 
Q 1894 3584 2278 3584 
Q 2916 3584 3314 3078 
Q 3713 2572 3713 1747 
Q 3713 922 3314 415 
Q 2916 -91 2278 -91 
Q 1894 -91 1617 61 
Q 1341 213 1159 525 
z
M 3116 1747 
Q 3116 2381 2855 2742 
Q 2594 3103 2138 3103 
Q 1681 3103 1420 2742 
Q 1159 2381 1159 1747 
Q 1159 1113 1420 752 
Q 1681 391 2138 391 
Q 2594 391 2855 752 
Q 3116 1113 3116 1747 
z
" transform="scale(0.015625)"/>
      <path id="DejaVuSans-3d" d="M 678 2906 
L 4684 2906 
L 4684 2381 
L 678 2381 
L 678 2906 
z
M 678 1631 
L 4684 1631 
L 4684 1100 
L 678 1100 
L 678 1631 
z
" transform="scale(0.015625)"/>
     </defs>
     <use xlink:href="#DejaVuSans-50"/>
     <use xlink:href="#DejaVuSans-28" transform="translate(60.302734 0)"/>
     <use xlink:href="#DejaVuSans-2264" transform="translate(99.316406 0)"/>
     <use xlink:href="#DejaVuSans-31" transform="translate(183.105469 0)"/>
     <use xlink:href="#DejaVuSans-34" transform="translate(246.728516 0)"/>
     <use xlink:href="#DejaVuSans-73" transform="translate(310.351562 0)"/>
     <use xlink:href="#DejaVuSans-20" transform="translate(362.451172 0)"/>
     <use xlink:href="#DejaVuSans-7c" transform="translate(394.238281 0)"/>
     <use xlink:href="#DejaVuSans-20" transform="translate(427.929688 0)"/>
     <use xlink:href="#DejaVuSans-31" transform="translate(459.716797 0)"/>
     <use xlink:href="#DejaVuSans-2d" transform="translate(523.339844 0)"/>
     <use xlink:href="#DejaVuSans-68" transform="translate(559.423828 0)"/>
     <use xlink:href="#DejaVuSans-6f" transform="translate(622.802734 0)"/>
     <use xlink:href="#DejaVuSans-70" transform="translate(683.984375 0)"/>
     <use xlink:href="#DejaVuSans-29" transform="translate(747.460938 0)"/>
     <use xlink:href="#DejaVuSans-20" transform="translate(786.474609 0)"/>
     <use xlink:href="#DejaVuSans-20" transform="translate(818.261719 0)"/>
     <use xlink:href="#DejaVuSans-20" transform="translate(850.048828 0)"/>
     <use xlink:href="#DejaVuSans-3d" transform="translate(881.835938 0)"/>
     <use xlink:href="#DejaVuSans-20" transform="translate(965.625 0)"/>
     <use xlink:href="#DejaVuSans-31" transform="translate(997.412109 0)"/>
     <use xlink:href="#DejaVuSans-2e" transform="translate(1061.035156 0)"/>
     <use xlink:href="#DejaVuSans-30" transform="translate(1092.822266 0)"/>
     <use xlink:href="#DejaVuSans-30" transform="translate(1156.445312 0)"/>
     <use xlink:href="#DejaVuSans-30" transform="translate(1220.068359 0)"/>
     <use xlink:href="#DejaVuSans-30" transform="translate(1283.691406 0)"/>
    </g>
    <!-- P(≤14s | blended) = 0.9734 -->
    <g transform="translate(303.31 312.55088) scale(0.08 -0.08)">
     <defs>
      <path id="DejaVuSans-62" d="M 3116 1747 
Q 3116 2381 2855 2742 
Q 2594 3103 2138 3103 
Q 1681 3103 1420 2742 
Q 1159 2381 1159 1747 
Q 1159 1113 1420 752 
Q 1681 391 2138 391 
Q 2594 391 2855 752 
Q 3116 1113 3116 1747 
z
M 1159 2969 
Q 1341 3281 1617 3432 
Q 1894 3584 2278 3584 
Q 2916 3584 3314 3078 
Q 3713 2572 3713 1747 
Q 3713 922 3314 415 
Q 2916 -91 2278 -91 
Q 1894 -91 1617 61 
Q 1341 213 1159 525 
L 1159 0 
L 581 0 
L 581 4863 
L 1159 4863 
L 1159 2969 
z
" transform="scale(0.015625)"/>
      <path id="DejaVuSans-6c" d="M 603 4863 
L 1178 4863 
L 1178 0 
L 603 0 
L 603 4863 
z
" transform="scale(0.015625)"/>
      <path id="DejaVuSans-39" d="M 703 97 
L 703 672 
Q 941 559 1184 500 
Q 1428 441 1663 441 
Q 2288 441 2617 861 
Q 2947 1281 2994 2138 
Q 2813 1869 2534 1725 
Q 2256 1581 1919 1581 
Q 1219 1581 811 2004 
Q 403 2428 403 3163 
Q 403 3881 828 4315 
Q 1253 4750 1959 4750 
Q 2769 4750 3195 4129 
Q 3622 3509 3622 2328 
Q 3622 1225 3098 567 
Q 2575 -91 1691 -91 
Q 1453 -91 1209 -44 
Q 966 3 703 97 
z
M 1959 2075 
Q 2384 2075 2632 2365 
Q 2881 2656 2881 3163 
Q 2881 3666 2632 3958 
Q 2384 4250 1959 4250 
Q 1534 4250 1286 3958 
Q 1038 3666 1038 3163 
Q 1038 2656 1286 2365 
Q 1534 2075 1959 2075 
z
" transform="scale(0.015625)"/>
      <path id="DejaVuSans-37" d="M 525 4666 
L 3525 4666 
L 3525 4397 
L 1831 0 
L 1172 0 
L 2766 4134 
L 525 4134 
L 525 4666 
z
" transform="scale(0.015625)"/>
     </defs>
     <use xlink:href="#DejaVuSans-50"/>
     <use xlink:href="#DejaVuSans-28" transform="translate(60.302734 0)"/>
     <use xlink:href="#DejaVuSans-2264" transform="translate(99.316406 0)"/>
     <use xlink:href="#DejaVuSans-31" transform="translate(183.105469 0)"/>
     <use xlink:href="#DejaVuSans-34" transform="translate(246.728516 0)"/>
     <use xlink:href="#DejaVuSans-73" transform="translate(310.351562 0)"/>
     <use xlink:href="#DejaVuSans-20" transform="translate(362.451172 0)"/>
     <use xlink:href="#DejaVuSans-7c" transform="translate(394.238281 0)"/>
     <use xlink:href="#DejaVuSans-20" transform="translate(427.929688 0)"/>
     <use xlink:href="#DejaVuSans-62" transform="translate(459.716797 0)"/>
     <use xlink:href="#DejaVuSans-6c" transform="translate(523.193359 0)"/>
     <use xlink:href="#DejaVuSans-65" transform="translate(550.976562 0)"/>
     <use xlink:href="#DejaVuSans-6e" transform="translate(612.5 0)"/>
     <use xlink:href="#DejaVuSans-64" transform="translate(675.878906 0)"/>
     <use xlink:href="#DejaVuSans-65" transform="translate(739.355469 0)"/>
     <use xlink:href="#DejaVuSans-64" transform="translate(800.878906 0)"/>
     <use xlink:href="#DejaVuSans-29" transform="translate(864.355469 0)"/>
     <use xlink:href="#DejaVuSans-20" transform="translate(903.369141 0)"/>
     <use xlink:href="#DejaVuSans-3d" transform="translate(935.15625 0)"/>
     <use xlink:href="#DejaVuSans-20" transform="translate(1018.945312 0)"/>
     <use xlink:href="#DejaVuSans-30" transform="translate(1050.732422 0)"/>
     <use xlink:href="#DejaVuSans-2e" transform="translate(1114.355469 0)"/>
     <use xlink:href="#DejaVuSans-39" transform="translate(1146.142578 0)"/>
     <use xlink:href="#DejaVuSans-37" transform="translate(1209.765625 0)"/>
     <use xlink:href="#DejaVuSans-33" transform="translate(1273.388672 0)"/>
     <use xlink:href="#DejaVuSans-34" transform="translate(1337.011719 0)"/>
    </g>
   </g>
   <g id="text_18">
    <!-- Sensitivity: 1-hop vs multi-hop EB-closure fetch -->
    <g transform="translate(161.311562 24.146625) scale(0.12 -0.12)">
     <defs>
      <path id="DejaVuSans-53" d="M 3425 4513 
L 3425 3897 
Q 3066 4069 2747 4153 
Q 2428 4238 2131 4238 
Q 1616 4238 1336 4038 
Q 1056 3838 1056 3469 
Q 1056 3159 1242 3001 
Q 1428 2844 1947 2747 
L 2328 2669 
Q 3034 2534 3370 2195 
Q 3706 1856 3706 1288 
Q 3706 609 3251 259 
Q 2797 -91 1919 -91 
Q 1588 -91 1214 -16 
Q 841 59 441 206 
L 441 856 
Q 825 641 1194 531 
Q 1563 422 1919 422 
Q 2459 422 2753 634 
Q 3047 847 3047 1241 
Q 3047 1584 2836 1778 
Q 2625 1972 2144 2069 
L 1759 2144 
Q 1053 2284 737 2584 
Q 422 2884 422 3419 
Q 422 4038 858 4394 
Q 1294 4750 2059 4750 
Q 2388 4750 2728 4690 
Q 3069 4631 3425 4513 
z
" transform="scale(0.015625)"/>
      <path id="DejaVuSans-74" d="M 1172 4494 
L 1172 3500 
L 2356 3500 
L 2356 3053 
L 1172 3053 
L 1172 1153 
Q 1172 725 1289 603 
Q 1406 481 1766 481 
L 2356 481 
L 2356 0 
L 1766 0 
Q 1100 0 847 248 
Q 594 497 594 1153 
L 594 3053 
L 172 3053 
L 172 3500 
L 594 3500 
L 594 4494 
L 1172 4494 
z
" transform="scale(0.015625)"/>
      <path id="DejaVuSans-76" d="M 191 3500 
L 800 3500 
L 1894 563 
L 2988 3500 
L 3597 3500 
L 2284 0 
L 1503 0 
L 191 3500 
z
" transform="scale(0.015625)"/>
      <path id="DejaVuSans-79" d="M 2059 -325 
Q 1816 -950 1584 -1140 
Q 1353 -1331 966 -1331 
L 506 -1331 
L 506 -850 
L 844 -850 
Q 1081 -850 1212 -737 
Q 1344 -625 1503 -206 
L 1606 56 
L 191 3500 
L 800 3500 
L 1894 763 
L 2988 3500 
L 3597 3500 
L 2059 -325 
z
" transform="scale(0.015625)"/>
      <path id="DejaVuSans-3a" d="M 750 794 
L 1409 794 
L 1409 0 
L 750 0 
L 750 794 
z
M 750 3309 
L 1409 3309 
L 1409 2516 
L 750 2516 
L 750 3309 
z
" transform="scale(0.015625)"/>
      <path id="DejaVuSans-75" d="M 544 1381 
L 544 3500 
L 1119 3500 
L 1119 1403 
Q 1119 906 1312 657 
Q 1506 409 1894 409 
Q 2359 409 2629 706 
Q 2900 1003 2900 1516 
L 2900 3500 
L 3475 3500 
L 3475 0 
L 2900 0 
L 2900 538 
Q 2691 219 2414 64 
Q 2138 -91 1772 -91 
Q 1169 -91 856 284 
Q 544 659 544 1381 
z
M 1991 3584 
L 1991 3584 
z
" transform="scale(0.015625)"/>
      <path id="DejaVuSans-45" d="M 628 4666 
L 3578 4666 
L 3578 4134 
L 1259 4134 
L 1259 2753 
L 3481 2753 
L 3481 2222 
L 1259 2222 
L 1259 531 
L 3634 531 
L 3634 0 
L 628 0 
L 628 4666 
z
" transform="scale(0.015625)"/>
      <path id="DejaVuSans-42" d="M 1259 2228 
L 1259 519 
L 2272 519 
Q 2781 519 3026 730 
Q 3272 941 3272 1375 
Q 3272 1813 3026 2020 
Q 2781 2228 2272 2228 
L 1259 2228 
z
M 1259 4147 
L 1259 2741 
L 2194 2741 
Q 2656 2741 2882 2914 
Q 3109 3088 3109 3444 
Q 3109 3797 2882 3972 
Q 2656 4147 2194 4147 
L 1259 4147 
z
M 628 4666 
L 2241 4666 
Q 2963 4666 3353 4366 
Q 3744 4066 3744 3513 
Q 3744 3084 3544 2831 
Q 3344 2578 2956 2516 
Q 3422 2416 3680 2098 
Q 3938 1781 3938 1306 
Q 3938 681 3513 340 
Q 3088 0 2303 0 
L 628 0 
L 628 4666 
z
" transform="scale(0.015625)"/>
      <path id="DejaVuSans-72" d="M 2631 2963 
Q 2534 3019 2420 3045 
Q 2306 3072 2169 3072 
Q 1681 3072 1420 2755 
Q 1159 2438 1159 1844 
L 1159 0 
L 581 0 
L 581 3500 
L 1159 3500 
L 1159 2956 
Q 1341 3275 1631 3429 
Q 1922 3584 2338 3584 
Q 2397 3584 2469 3576 
Q 2541 3569 2628 3553 
L 2631 2963 
z
" transform="scale(0.015625)"/>
      <path id="DejaVuSans-66" d="M 2375 4863 
L 2375 4384 
L 1825 4384 
Q 1516 4384 1395 4259 
Q 1275 4134 1275 3809 
L 1275 3500 
L 2222 3500 
L 2222 3053 
L 1275 3053 
L 1275 0 
L 697 0 
L 697 3053 
L 147 3053 
L 147 3500 
L 697 3500 
L 697 3744 
Q 697 4328 969 4595 
Q 1241 4863 1831 4863 
L 2375 4863 
z
" transform="scale(0.015625)"/>
     </defs>
     <use xlink:href="#DejaVuSans-53"/>
     <use xlink:href="#DejaVuSans-65" transform="translate(63.476562 0)"/>
     <use xlink:href="#DejaVuSans-6e" transform="translate(125 0)"/>
     <use xlink:href="#DejaVuSans-73" transform="translate(188.378906 0)"/>
     <use xlink:href="#DejaVuSans-69" transform="translate(240.478516 0)"/>
     <use xlink:href="#DejaVuSans-74" transform="translate(268.261719 0)"/>
     <use xlink:href="#DejaVuSans-69" transform="translate(307.470703 0)"/>
     <use xlink:href="#DejaVuSans-76" transform="translate(335.253906 0)"/>
     <use xlink:href="#DejaVuSans-69" transform="translate(394.433594 0)"/>
     <use xlink:href="#DejaVuSans-74" transform="translate(422.216797 0)"/>
     <use xlink:href="#DejaVuSans-79" transform="translate(461.425781 0)"/>
     <use xlink:href="#DejaVuSans-3a" transform="translate(513.355469 0)"/>
     <use xlink:href="#DejaVuSans-20" transform="translate(547.046875 0)"/>
     <use xlink:href="#DejaVuSans-31" transform="translate(578.833984 0)"/>
     <use xlink:href="#DejaVuSans-2d" transform="translate(642.457031 0)"/>
     <use xlink:href="#DejaVuSans-68" transform="translate(678.541016 0)"/>
     <use xlink:href="#DejaVuSans-6f" transform="translate(741.919922 0)"/>
     <use xlink:href="#DejaVuSans-70" transform="translate(803.101562 0)"/>
     <use xlink:href="#DejaVuSans-20" transform="translate(866.578125 0)"/>
     <use xlink:href="#DejaVuSans-76" transform="translate(898.365234 0)"/>
     <use xlink:href="#DejaVuSans-73" transform="translate(957.544922 0)"/>
     <use xlink:href="#DejaVuSans-20" transform="translate(1009.644531 0)"/>
     <use xlink:href="#DejaVuSans-6d" transform="translate(1041.431641 0)"/>
     <use xlink:href="#DejaVuSans-75" transform="translate(1138.84375 0)"/>
     <use xlink:href="#DejaVuSans-6c" transform="translate(1202.222656 0)"/>
     <use xlink:href="#DejaVuSans-74" transform="translate(1230.005859 0)"/>
     <use xlink:href="#DejaVuSans-69" transform="translate(1269.214844 0)"/>
     <use xlink:href="#DejaVuSans-2d" transform="translate(1296.998047 0)"/>
     <use xlink:href="#DejaVuSans-68" transform="translate(1333.082031 0)"/>
     <use xlink:href="#DejaVuSans-6f" transform="translate(1396.460938 0)"/>
     <use xlink:href="#DejaVuSans-70" transform="translate(1457.642578 0)"/>
     <use xlink:href="#DejaVuSans-20" transform="translate(1521.119141 0)"/>
     <use xlink:href="#DejaVuSans-45" transform="translate(1552.90625 0)"/>
     <use xlink:href="#DejaVuSans-42" transform="translate(1616.089844 0)"/>
     <use xlink:href="#DejaVuSans-2d" transform="translate(1684.693359 0)"/>
     <use xlink:href="#DejaVuSans-63" transform="translate(1720.777344 0)"/>
     <use xlink:href="#DejaVuSans-6c" transform="translate(1775.757812 0)"/>
     <use xlink:href="#DejaVuSans-6f" transform="translate(1803.541016 0)"/>
     <use xlink:href="#DejaVuSans-73" transform="translate(1864.722656 0)"/>
     <use xlink:href="#DejaVuSans-75" transform="translate(1916.822266 0)"/>
     <use xlink:href="#DejaVuSans-72" transform="translate(1980.201172 0)"/>
     <use xlink:href="#DejaVuSans-65" transform="translate(2019.064453 0)"/>
     <use xlink:href="#DejaVuSans-20" transform="translate(2080.587891 0)"/>
     <use xlink:href="#DejaVuSans-66" transform="translate(2112.375 0)"/>
     <use xlink:href="#DejaVuSans-65" transform="translate(2147.580078 0)"/>
     <use xlink:href="#DejaVuSans-74" transform="translate(2209.103516 0)"/>
     <use xlink:href="#DejaVuSans-63" transform="translate(2248.3125 0)"/>
     <use xlink:href="#DejaVuSans-68" transform="translate(2303.292969 0)"/>
    </g>
    <!-- ($S_{EB-tx}$=12 MB) -->
    <g transform="translate(255.97 37.584) scale(0.12 -0.12)">
     <defs>
      <path id="DejaVuSans-Oblique-53" d="M 3859 4513 
L 3738 3897 
Q 3422 4066 3111 4152 
Q 2800 4238 2509 4238 
Q 1944 4238 1609 3991 
Q 1275 3744 1275 3334 
Q 1275 3109 1398 2989 
Q 1522 2869 2034 2731 
L 2413 2638 
Q 3053 2472 3303 2217 
Q 3553 1963 3553 1503 
Q 3553 797 2998 353 
Q 2444 -91 1538 -91 
Q 1166 -91 791 -17 
Q 416 56 38 206 
L 166 856 
Q 513 641 861 531 
Q 1209 422 1556 422 
Q 2147 422 2503 684 
Q 2859 947 2859 1369 
Q 2859 1650 2717 1795 
Q 2575 1941 2106 2059 
L 1728 2156 
Q 1081 2325 845 2545 
Q 609 2766 609 3163 
Q 609 3859 1145 4304 
Q 1681 4750 2541 4750 
Q 2875 4750 3203 4690 
Q 3531 4631 3859 4513 
z
" transform="scale(0.015625)"/>
      <path id="DejaVuSans-Oblique-45" d="M 1081 4666 
L 4031 4666 
L 3928 4134 
L 1606 4134 
L 1338 2753 
L 3566 2753 
L 3463 2222 
L 1234 2222 
L 909 531 
L 3284 531 
L 3181 0 
L 172 0 
L 1081 4666 
z
" transform="scale(0.015625)"/>
      <path id="DejaVuSans-Oblique-42" d="M 1081 4666 
L 2694 4666 
Q 3350 4666 3675 4422 
Q 4000 4178 4000 3688 
Q 4000 3238 3720 2911 
Q 3441 2584 2988 2516 
Q 3375 2428 3569 2181 
Q 3763 1934 3763 1522 
Q 3763 819 3242 409 
Q 2722 0 1819 0 
L 172 0 
L 1081 4666 
z
M 1234 2228 
L 903 519 
L 1919 519 
Q 2491 519 2800 781 
Q 3109 1044 3109 1522 
Q 3109 1891 2904 2059 
Q 2700 2228 2247 2228 
L 1234 2228 
z
M 1606 4147 
L 1331 2741 
L 2272 2741 
Q 2775 2741 3058 2959 
Q 3341 3178 3341 3566 
Q 3341 3869 3150 4008 
Q 2959 4147 2541 4147 
L 1606 4147 
z
" transform="scale(0.015625)"/>
      <path id="DejaVuSans-2212" d="M 678 2272 
L 4684 2272 
L 4684 1741 
L 678 1741 
L 678 2272 
z
" transform="scale(0.015625)"/>
      <path id="DejaVuSans-Oblique-74" d="M 2706 3500 
L 2619 3053 
L 1472 3053 
L 1100 1153 
Q 1081 1047 1072 975 
Q 1063 903 1063 863 
Q 1063 663 1183 572 
Q 1303 481 1569 481 
L 2150 481 
L 2053 0 
L 1503 0 
Q 991 0 739 200 
Q 488 400 488 806 
Q 488 878 497 964 
Q 506 1050 525 1153 
L 897 3053 
L 409 3053 
L 500 3500 
L 978 3500 
L 1172 4494 
L 1747 4494 
L 1556 3500 
L 2706 3500 
z
" transform="scale(0.015625)"/>
      <path id="DejaVuSans-Oblique-78" d="M 3841 3500 
L 2234 1784 
L 3219 0 
L 2559 0 
L 1819 1388 
L 531 0 
L -166 0 
L 1556 1844 
L 641 3500 
L 1300 3500 
L 1972 2234 
L 3144 3500 
L 3841 3500 
z
" transform="scale(0.015625)"/>
      <path id="DejaVuSans-4d" d="M 628 4666 
L 1569 4666 
L 2759 1491 
L 3956 4666 
L 4897 4666 
L 4897 0 
L 4281 0 
L 4281 4097 
L 3078 897 
L 2444 897 
L 1241 4097 
L 1241 0 
L 628 0 
L 628 4666 
z
" transform="scale(0.015625)"/>
     </defs>
     <use xlink:href="#DejaVuSans-28" transform="translate(0 0.125)"/>
     <use xlink:href="#DejaVuSans-Oblique-53" transform="translate(39.013672 0.125)"/>
     <use xlink:href="#DejaVuSans-Oblique-45" transform="translate(102.490234 -16.28125) scale(0.7)"/>
     <use xlink:href="#DejaVuSans-Oblique-42" transform="translate(146.71875 -16.28125) scale(0.7)"/>
     <use xlink:href="#DejaVuSans-2212" transform="translate(208.378906 -16.28125) scale(0.7)"/>
     <use xlink:href="#DejaVuSans-Oblique-74" transform="translate(280.668945 -16.28125) scale(0.7)"/>
     <use xlink:href="#DejaVuSans-Oblique-78" transform="translate(308.115234 -16.28125) scale(0.7)"/>
     <use xlink:href="#DejaVuSans-3d" transform="translate(352.275391 0.125)"/>
     <use xlink:href="#DejaVuSans-31" transform="translate(436.064453 0.125)"/>
     <use xlink:href="#DejaVuSans-32" transform="translate(499.6875 0.125)"/>
     <use xlink:href="#DejaVuSans-20" transform="translate(563.310547 0.125)"/>
     <use xlink:href="#DejaVuSans-4d" transform="translate(595.097656 0.125)"/>
     <use xlink:href="#DejaVuSans-42" transform="translate(681.376953 0.125)"/>
     <use xlink:href="#DejaVuSans-29" transform="translate(749.980469 0.125)"/>
    </g>
   </g>
   <g id="legend_1">
    <g id="patch_8">
     <path d="M 373.183594 201.977469 
L 552.6 201.977469 
Q 554.4 201.977469 554.4 200.177469 
L 554.4 161.446531 
Q 554.4 159.646531 552.6 159.646531 
L 373.183594 159.646531 
Q 371.383594 159.646531 371.383594 161.446531 
L 371.383594 200.177469 
Q 371.383594 201.977469 373.183594 201.977469 
z
" style="fill: #ffffff; opacity: 0.8; stroke: #cccccc; stroke-linejoin: miter"/>
    </g>
    <g id="line2d_32">
     <path d="M 374.983594 166.935125 
L 383.983594 166.935125 
L 392.983594 166.935125 
" style="fill: none; stroke: #1f77b4; stroke-width: 2; stroke-linecap: square"/>
    </g>
    <g id="text_19">
     <!-- 1-hop fetch (recommended) -->
     <g transform="translate(400.183594 170.085125) scale(0.09 -0.09)">
      <use xlink:href="#DejaVuSans-31"/>
      <use xlink:href="#DejaVuSans-2d" transform="translate(63.623047 0)"/>
      <use xlink:href="#DejaVuSans-68" transform="translate(99.707031 0)"/>
      <use xlink:href="#DejaVuSans-6f" transform="translate(163.085938 0)"/>
      <use xlink:href="#DejaVuSans-70" transform="translate(224.267578 0)"/>
      <use xlink:href="#DejaVuSans-20" transform="translate(287.744141 0)"/>
      <use xlink:href="#DejaVuSans-66" transform="translate(319.53125 0)"/>
      <use xlink:href="#DejaVuSans-65" transform="translate(354.736328 0)"/>
      <use xlink:href="#DejaVuSans-74" transform="translate(416.259766 0)"/>
      <use xlink:href="#DejaVuSans-63" transform="translate(455.46875 0)"/>
      <use xlink:href="#DejaVuSans-68" transform="translate(510.449219 0)"/>
      <use xlink:href="#DejaVuSans-20" transform="translate(573.828125 0)"/>
      <use xlink:href="#DejaVuSans-28" transform="translate(605.615234 0)"/>
      <use xlink:href="#DejaVuSans-72" transform="translate(644.628906 0)"/>
      <use xlink:href="#DejaVuSans-65" transform="translate(683.492188 0)"/>
      <use xlink:href="#DejaVuSans-63" transform="translate(745.015625 0)"/>
      <use xlink:href="#DejaVuSans-6f" transform="translate(799.996094 0)"/>
      <use xlink:href="#DejaVuSans-6d" transform="translate(861.177734 0)"/>
      <use xlink:href="#DejaVuSans-6d" transform="translate(958.589844 0)"/>
      <use xlink:href="#DejaVuSans-65" transform="translate(1056.001953 0)"/>
      <use xlink:href="#DejaVuSans-6e" transform="translate(1117.525391 0)"/>
      <use xlink:href="#DejaVuSans-64" transform="translate(1180.904297 0)"/>
      <use xlink:href="#DejaVuSans-65" transform="translate(1244.380859 0)"/>
      <use xlink:href="#DejaVuSans-64" transform="translate(1305.904297 0)"/>
      <use xlink:href="#DejaVuSans-29" transform="translate(1369.380859 0)"/>
     </g>
    </g>
    <g id="line2d_33">
     <path d="M 374.983594 180.145437 
L 383.983594 180.145437 
L 392.983594 180.145437 
" style="fill: none; stroke-dasharray: 7.4,3.2; stroke-dashoffset: 0; stroke: #ff7f0e; stroke-width: 2"/>
    </g>
    <g id="text_20">
     <!-- Blended multi-hop (conservative) -->
     <g transform="translate(400.183594 183.295437) scale(0.09 -0.09)">
      <defs>
       <path id="DejaVuSans-61" d="M 2194 1759 
Q 1497 1759 1228 1600 
Q 959 1441 959 1056 
Q 959 750 1161 570 
Q 1363 391 1709 391 
Q 2188 391 2477 730 
Q 2766 1069 2766 1631 
L 2766 1759 
L 2194 1759 
z
M 3341 1997 
L 3341 0 
L 2766 0 
L 2766 531 
Q 2569 213 2275 61 
Q 1981 -91 1556 -91 
Q 1019 -91 701 211 
Q 384 513 384 1019 
Q 384 1609 779 1909 
Q 1175 2209 1959 2209 
L 2766 2209 
L 2766 2266 
Q 2766 2663 2505 2880 
Q 2244 3097 1772 3097 
Q 1472 3097 1187 3025 
Q 903 2953 641 2809 
L 641 3341 
Q 956 3463 1253 3523 
Q 1550 3584 1831 3584 
Q 2591 3584 2966 3190 
Q 3341 2797 3341 1997 
z
" transform="scale(0.015625)"/>
      </defs>
      <use xlink:href="#DejaVuSans-42"/>
      <use xlink:href="#DejaVuSans-6c" transform="translate(68.603516 0)"/>
      <use xlink:href="#DejaVuSans-65" transform="translate(96.386719 0)"/>
      <use xlink:href="#DejaVuSans-6e" transform="translate(157.910156 0)"/>
      <use xlink:href="#DejaVuSans-64" transform="translate(221.289062 0)"/>
      <use xlink:href="#DejaVuSans-65" transform="translate(284.765625 0)"/>
      <use xlink:href="#DejaVuSans-64" transform="translate(346.289062 0)"/>
      <use xlink:href="#DejaVuSans-20" transform="translate(409.765625 0)"/>
      <use xlink:href="#DejaVuSans-6d" transform="translate(441.552734 0)"/>
      <use xlink:href="#DejaVuSans-75" transform="translate(538.964844 0)"/>
      <use xlink:href="#DejaVuSans-6c" transform="translate(602.34375 0)"/>
      <use xlink:href="#DejaVuSans-74" transform="translate(630.126953 0)"/>
      <use xlink:href="#DejaVuSans-69" transform="translate(669.335938 0)"/>
      <use xlink:href="#DejaVuSans-2d" transform="translate(697.119141 0)"/>
      <use xlink:href="#DejaVuSans-68" transform="translate(733.203125 0)"/>
      <use xlink:href="#DejaVuSans-6f" transform="translate(796.582031 0)"/>
      <use xlink:href="#DejaVuSans-70" transform="translate(857.763672 0)"/>
      <use xlink:href="#DejaVuSans-20" transform="translate(921.240234 0)"/>
      <use xlink:href="#DejaVuSans-28" transform="translate(953.027344 0)"/>
      <use xlink:href="#DejaVuSans-63" transform="translate(992.041016 0)"/>
      <use xlink:href="#DejaVuSans-6f" transform="translate(1047.021484 0)"/>
      <use xlink:href="#DejaVuSans-6e" transform="translate(1108.203125 0)"/>
      <use xlink:href="#DejaVuSans-73" transform="translate(1171.582031 0)"/>
      <use xlink:href="#DejaVuSans-65" transform="translate(1223.681641 0)"/>
      <use xlink:href="#DejaVuSans-72" transform="translate(1285.205078 0)"/>
      <use xlink:href="#DejaVuSans-76" transform="translate(1326.318359 0)"/>
      <use xlink:href="#DejaVuSans-61" transform="translate(1385.498047 0)"/>
      <use xlink:href="#DejaVuSans-74" transform="translate(1446.777344 0)"/>
      <use xlink:href="#DejaVuSans-69" transform="translate(1485.986328 0)"/>
      <use xlink:href="#DejaVuSans-76" transform="translate(1513.769531 0)"/>
      <use xlink:href="#DejaVuSans-65" transform="translate(1572.949219 0)"/>
      <use xlink:href="#DejaVuSans-29" transform="translate(1634.472656 0)"/>
     </g>
    </g>
    <g id="line2d_34">
     <path d="M 374.983594 193.35575 
L 383.983594 193.35575 
L 392.983594 193.35575 
" style="fill: none; stroke-dasharray: 3.7,1.6; stroke-dashoffset: 0; stroke: #ff0000"/>
    </g>
    <g id="text_21">
     <!-- Deadline 14s -->
     <g transform="translate(400.183594 196.50575) scale(0.09 -0.09)">
      <use xlink:href="#DejaVuSans-44"/>
      <use xlink:href="#DejaVuSans-65" transform="translate(77.001953 0)"/>
      <use xlink:href="#DejaVuSans-61" transform="translate(138.525391 0)"/>
      <use xlink:href="#DejaVuSans-64" transform="translate(199.804688 0)"/>
      <use xlink:href="#DejaVuSans-6c" transform="translate(263.28125 0)"/>
      <use xlink:href="#DejaVuSans-69" transform="translate(291.064453 0)"/>
      <use xlink:href="#DejaVuSans-6e" transform="translate(318.847656 0)"/>
      <use xlink:href="#DejaVuSans-65" transform="translate(382.226562 0)"/>
      <use xlink:href="#DejaVuSans-20" transform="translate(443.75 0)"/>
      <use xlink:href="#DejaVuSans-31" transform="translate(475.537109 0)"/>
      <use xlink:href="#DejaVuSans-34" transform="translate(539.160156 0)"/>
      <use xlink:href="#DejaVuSans-73" transform="translate(602.783203 0)"/>
     </g>
    </g>
   </g>
  </g>
 </g>
 <defs>
  <clipPath id="p6db2c25229">
   <rect x="47.72" y="43.584" width="511.18" height="274.456"/>
  </clipPath>
 </defs>
</svg>
