<svg xmlns="http://www.w3.org/2000/svg" xmlns:xlink="http://www.w3.org/1999/xlink" version="1.1" width="2320" height="1264"><g id="Chain selection"><g id="Cardano Node"><rect width="1976" height="1200" rx="8" ry="8" fill-opacity="0.02" fill="#000000" stroke-opacity="1" stroke-width="2" stroke="#cfd2d2" opacity="1" x="312" y="32"></rect><text font-family="IBM Plex Sans Medium, Arial, sans-serif" font-size="15" font-weight="500" fill="#0c0d0d" opacity="1" x="328" y="63.375"><tspan dy="0" x="328">Cardano Node</tspan></text><g opacity="1"><text font-family="IBM Plex Sans, Arial, sans-serif" font-size="14" text-anchor="middle" fill="#595f61" x="1300" y="1197.25"><tspan dy="0" x="1300">Generic node with outbound  inbound components, including optional block forging.</tspan></text></g><g id="App" opacity="1"><text font-family="Courier New, monospace" font-size="12" text-anchor="middle" fill="#595f61" x="1300" y="1220.6552734375"><tspan dy="0" x="1300">App</tspan></text></g></g><g id="Outbound mini-protocols"><rect width="368" height="1080" rx="8" ry="8" fill-opacity="0.02" fill="#000000" stroke-opacity="1" stroke-width="2" stroke="#cfd2d2" opacity="1" x="360" y="88"></rect><text font-family="IBM Plex Sans Medium, Arial, sans-serif" font-size="15" font-weight="500" fill="#0c0d0d" opacity="1" x="376" y="119.375"><tspan dy="0" x="376">Outbound mini-protocols</tspan></text><g opacity="1"><text font-family="IBM Plex Sans, Arial, sans-serif" font-size="14" text-anchor="middle" fill="#595f61" x="544" y="1133.25"><tspan dy="0" x="544">Protocols run as an Initiator</tspan></text></g><g id="Group" opacity="1"><text font-family="Courier New, monospace" font-size="12" text-anchor="middle" fill="#595f61" x="544" y="1156.6552734375"><tspan dy="0" x="544">Group</tspan></text></g></g><g id="Storage"><rect width="912" height="832" rx="8" ry="8" fill-opacity="0.02" fill="#000000" stroke-opacity="1" stroke-width="2" stroke="#cfd2d2" opacity="1" x="1328" y="128"></rect><text font-family="IBM Plex Sans Medium, Arial, sans-serif" font-size="15" font-weight="500" fill="#0c0d0d" opacity="1" x="1344" y="159.375"><tspan dy="0" x="1344">Storage</tspan></text><g id="Group" opacity="1"><text font-family="Courier New, monospace" font-size="12" text-anchor="middle" fill="#595f61" x="1784" y="948.6552734375"><tspan dy="0" x="1784">Group</tspan></text></g></g><g id="Schedules fetch requests"><polyline points="912,896 911.7,933.08 910.79,944.93 909.28,955.61 907.2,965.18 904.53,973.68 901.29,981.19 897.5,987.75 893.15,993.42 888.27,998.26 882.85,1002.33 876.9,1005.68 870.44,1008.37 856,1012 848.04,1013.05 830.69,1013.91 801.21,1012.94 730.68,1008.54 680,1008" fill="none" stroke-width="1" stroke="#adb3b3" opacity="0.9"></polyline></g><g id="Schedules fetch requests"><rect width="114.67599999999999" height="38.2" x="782.4795717894514" y="994.3575670467476" rx="4" ry="4" fill-opacity="0.8" fill="#e5e7e8" stroke-opacity="1" stroke-width="1" stroke="#cfd2d2" opacity="0.8"></rect><g opacity="0.9" fill="#434647"><text font-family="IBM Plex Sans Medium, Arial, sans-serif" font-size="14" text-anchor="middle" x="839.8175717894513" y="1010.7075670467475"><tspan dy="0" x="839.8175717894513">Schedules fetch</tspan></text><text font-family="IBM Plex Sans Medium, Arial, sans-serif" font-size="14" text-anchor="middle" x="839.8175717894513" y="1026.7075670467475"><tspan dy="0" x="839.8175717894513">requests</tspan></text></g></g><path id="Future" d="M771.6045717894514 1008.5825670467476A1.125 1.125 0 1 0 769.3545717894514 1008.5825670467476A1.125 1.125 0 1 0 771.6045717894514 1008.5825670467476ZM771.6045717894514 1018.3325670467476A1.125 1.125 0 1 0 769.3545717894514 1018.3325670467476A1.125 1.125 0 1 0 771.6045717894514 1018.3325670467476ZM765.6045717894514 1014.5825670467476A1.125 1.125 0 1 0 765.6045717894514 1012.3325670467476A1.125 1.125 0 1 0 765.6045717894514 1014.5825670467476ZM776.4795717894514 1013.4575670467476A1.125 1.125 0 1 0 774.2295717894514 1013.4575670467476A1.125 1.125 0 1 0 776.4795717894514 1013.4575670467476ZM767.8287905394513 1017.6997545467476A1.125 1.125 0 1 0 766.2373842894514 1016.1083482967476A1.125 1.125 0 1 0 767.8287905394513 1017.6997545467476ZM767.8287905394513 1010.8044420467476A1.125 1.125 0 1 0 766.2373842894514 1009.2153795467476A1.125 1.125 0 1 0 767.8287905394513 1010.8067857967476ZM773.1303530394514 1017.6997545467476A1.125 1.125 0 1 0 774.7217592894514 1016.1083482967476A1.125 1.125 0 1 0 773.1303530394514 1017.6997545467476Z " fill="#c083ea"></path><g id="Updates offers"><polyline points="680,832 848,832" fill="none" stroke-width="1" stroke="#adb3b3" opacity="0.9"></polyline></g><g id="Updates offers"><rect width="106.388" height="22.2" x="710.806" y="820.9" rx="4" ry="4" fill-opacity="0.8" fill="#e5e7e8" stroke-opacity="1" stroke-width="1" stroke="#cfd2d2" opacity="0.8"></rect><g opacity="0.9" fill="#434647"><text font-family="IBM Plex Sans Medium, Arial, sans-serif" font-size="14" text-anchor="middle" x="764" y="837.2500000000001"><tspan dy="0" x="764">Updates offers</tspan></text></g></g><path id="Future" d="M699.931 827.125A1.125 1.125 0 1 0 697.681 827.125A1.125 1.125 0 1 0 699.931 827.125ZM699.931 836.875A1.125 1.125 0 1 0 697.681 836.875A1.125 1.125 0 1 0 699.931 836.875ZM693.931 833.125A1.125 1.125 0 1 0 693.931 830.875A1.125 1.125 0 1 0 693.931 833.125ZM704.806 832A1.125 1.125 0 1 0 702.556 832A1.125 1.125 0 1 0 704.806 832ZM696.15521875 836.2421875A1.125 1.125 0 1 0 694.5638125 834.65078125A1.125 1.125 0 1 0 696.15521875 836.2421875ZM696.15521875 829.346875A1.125 1.125 0 1 0 694.5638125 827.7578125A1.125 1.125 0 1 0 696.15521875 829.34921875ZM701.4567812500001 836.2421875A1.125 1.125 0 1 0 703.0481875 834.65078125A1.125 1.125 0 1 0 701.4567812500001 836.2421875Z " fill="#c083ea"></path><g id="Determines missing txs"><polyline points="1376,832 1104,832" fill="none" stroke-width="1" stroke="#adb3b3" opacity="0.9"></polyline></g><g id="Determines missing txs"><rect width="138.98000000000002" height="38.2" x="1170.51" y="812.9" rx="4" ry="4" fill-opacity="0.8" fill="#e5e7e8" stroke-opacity="1" stroke-width="1" stroke="#cfd2d2" opacity="0.8"></rect><g opacity="0.9" fill="#434647"><text font-family="IBM Plex Sans Medium, Arial, sans-serif" font-size="14" text-anchor="middle" x="1240" y="829.2500000000001"><tspan dy="0" x="1240">Determines missing</tspan></text><text font-family="IBM Plex Sans Medium, Arial, sans-serif" font-size="14" text-anchor="middle" x="1240" y="845.2500000000001"><tspan dy="0" x="1240">txs</tspan></text></g></g><path id="Future" d="M1159.635 827.125A1.125 1.125 0 1 0 1157.385 827.125A1.125 1.125 0 1 0 1159.635 827.125ZM1159.635 836.875A1.125 1.125 0 1 0 1157.385 836.875A1.125 1.125 0 1 0 1159.635 836.875ZM1153.635 833.125A1.125 1.125 0 1 0 1153.635 830.875A1.125 1.125 0 1 0 1153.635 833.125ZM1164.51 832A1.125 1.125 0 1 0 1162.26 832A1.125 1.125 0 1 0 1164.51 832ZM1155.85921875 836.2421875A1.125 1.125 0 1 0 1154.2678125 834.65078125A1.125 1.125 0 1 0 1155.85921875 836.2421875ZM1155.85921875 829.346875A1.125 1.125 0 1 0 1154.2678125 827.7578125A1.125 1.125 0 1 0 1155.85921875 829.34921875ZM1161.16078125 836.2421875A1.125 1.125 0 1 0 1162.7521875 834.65078125A1.125 1.125 0 1 0 1161.16078125 836.2421875Z " fill="#c083ea"></path><g id="Schedules fetch requests"><polyline points="912,248 871.22,247.74 856.62,246.98 833.03,244.2 823.58,242.28 808.24,237.63 796.1,232.26 774.12,220.99 760.61,215.93 752.42,213.72 732.04,210.22 719.38,209.02 704.78,208.26 664,208" fill="none" stroke-width="1" stroke="#adb3b3" opacity="1"></polyline></g><g id="Schedules fetch requests"><rect width="114.67599999999999" height="38.2" x="730.6176116844928" y="208.98405567262205" rx="4" ry="4" fill-opacity="0.8" fill="#e5e7e8" stroke-opacity="1" stroke-width="1" stroke="#cfd2d2" opacity="0.8"></rect><g opacity="1" fill="#434647"><text font-family="IBM Plex Sans Medium, Arial, sans-serif" font-size="14" text-anchor="middle" x="787.9556116844927" y="225.33405567262204"><tspan dy="0" x="787.9556116844927">Schedules fetch</tspan></text><text font-family="IBM Plex Sans Medium, Arial, sans-serif" font-size="14" text-anchor="middle" x="787.9556116844927" y="241.33405567262204"><tspan dy="0" x="787.9556116844927">requests</tspan></text></g></g><g id="Stores bodies and txs"><polyline points="680,1072 743.18,1072.48 895.65,1076.75 966.44,1078.09 1039.92,1078.29 1101.82,1077.15 1175.23,1073.66 1234.37,1068.58 1290.45,1061.13 1332.37,1053.23 1361.72,1046.05 1380.15,1040.63 1397.6,1034.67 1413.98,1028.1399999999999 1436.42,1017.25 1449.8400000000001,1009.23 1461.95,1000.56 1472.67,991.23 1481.95,981.21 1489.7,970.48 1495.85,959.01 1498.3,953 1501.92,940.4 1503.77,927 1504,896" fill="none" stroke-width="1" stroke="#adb3b3" opacity="0.9"></polyline></g><g id="Stores bodies and txs"><rect width="126.95400000000001" height="38.2" x="1298.91528832272" y="1026.7522895979846" rx="4" ry="4" fill-opacity="0.8" fill="#e5e7e8" stroke-opacity="1" stroke-width="1" stroke="#cfd2d2" opacity="0.8"></rect><g opacity="0.9" fill="#434647"><text font-family="IBM Plex Sans Medium, Arial, sans-serif" font-size="14" text-anchor="middle" x="1362.39228832272" y="1043.1022895979845"><tspan dy="0" x="1362.39228832272">Stores bodies and</tspan></text><text font-family="IBM Plex Sans Medium, Arial, sans-serif" font-size="14" text-anchor="middle" x="1362.39228832272" y="1059.1022895979845"><tspan dy="0" x="1362.39228832272">txs</tspan></text></g></g><path id="Future" d="M1288.04028832272 1040.9772895979845A1.125 1.125 0 1 0 1285.79028832272 1040.9772895979845A1.125 1.125 0 1 0 1288.04028832272 1040.9772895979845ZM1288.04028832272 1050.7272895979845A1.125 1.125 0 1 0 1285.79028832272 1050.7272895979845A1.125 1.125 0 1 0 1288.04028832272 1050.7272895979845ZM1282.04028832272 1046.9772895979845A1.125 1.125 0 1 0 1282.04028832272 1044.7272895979845A1.125 1.125 0 1 0 1282.04028832272 1046.9772895979845ZM1292.91528832272 1045.8522895979845A1.125 1.125 0 1 0 1290.66528832272 1045.8522895979845A1.125 1.125 0 1 0 1292.91528832272 1045.8522895979845ZM1284.26450707272 1050.0944770979845A1.125 1.125 0 1 0 1282.67310082272 1048.5030708479844A1.125 1.125 0 1 0 1284.26450707272 1050.0944770979845ZM1284.26450707272 1043.1991645979845A1.125 1.125 0 1 0 1282.67310082272 1041.6101020979845A1.125 1.125 0 1 0 1284.26450707272 1043.2015083479846ZM1289.56606957272 1050.0944770979845A1.125 1.125 0 1 0 1291.15747582272 1048.5030708479844A1.125 1.125 0 1 0 1289.56606957272 1050.0944770979845Z " fill="#c083ea"></path><g id="Gets current chain and ledger"><polyline points="1168,248 1376,248" fill="none" stroke-width="1" stroke="#adb3b3" opacity="1"></polyline></g><g id="Gets current chain and ledger"><rect width="130.006" height="38.2" x="1206.997" y="228.89999999999998" rx="4" ry="4" fill-opacity="0.8" fill="#e5e7e8" stroke-opacity="1" stroke-width="1" stroke="#cfd2d2" opacity="0.8"></rect><g opacity="1" fill="#434647"><text font-family="IBM Plex Sans Medium, Arial, sans-serif" font-size="14" text-anchor="middle" x="1272" y="245.24999999999997"><tspan dy="0" x="1272">Gets current chain</tspan></text><text font-family="IBM Plex Sans Medium, Arial, sans-serif" font-size="14" text-anchor="middle" x="1272" y="261.25"><tspan dy="0" x="1272">and ledger</tspan></text></g></g><g id="Requests EB bodies and txs"><polyline points="424,1040 391.4,1039.78 382.67,1039.1100000000001 364.89,1036.52 337.63,1029.63 310.01,1019.41 282.45,1006.19 255.33000000000004,990.26 229.05999999999995,971.96 212.21000000000004,958.58 196.01999999999998,944.38 180.63,929.44 166.14,913.86 146.37,889.48 129.29999999999995,864.18 115.33000000000004,838.27 104.86000000000001,812.06 100.00999999999999,794.58 98.27999999999997,785.87 96.25999999999999,768.57 96,736" fill="none" stroke-width="1" stroke="#adb3b3" opacity="0.9"></polyline></g><g id="Requests EB bodies and txs"><rect width="139.036" height="38.2" x="132.01806025682887" y="930.1180516150074" rx="4" ry="4" fill-opacity="0.8" fill="#e5e7e8" stroke-opacity="1" stroke-width="1" stroke="#cfd2d2" opacity="0.8"></rect><g opacity="0.9" fill="#434647"><text font-family="IBM Plex Sans Medium, Arial, sans-serif" font-size="14" text-anchor="middle" x="201.53606025682888" y="946.4680516150075"><tspan dy="0" x="201.53606025682888">Requests EB bodies</tspan></text><text font-family="IBM Plex Sans Medium, Arial, sans-serif" font-size="14" text-anchor="middle" x="201.53606025682888" y="962.4680516150075"><tspan dy="0" x="201.53606025682888">and txs</tspan></text></g></g><path id="Future" d="M121.14306025682887 944.3430516150074A1.125 1.125 0 1 0 118.89306025682887 944.3430516150074A1.125 1.125 0 1 0 121.14306025682887 944.3430516150074ZM121.14306025682887 954.0930516150074A1.125 1.125 0 1 0 118.89306025682887 954.0930516150074A1.125 1.125 0 1 0 121.14306025682887 954.0930516150074ZM115.14306025682887 950.3430516150074A1.125 1.125 0 1 0 115.14306025682887 948.0930516150074A1.125 1.125 0 1 0 115.14306025682887 950.3430516150074ZM126.01806025682887 949.2180516150074A1.125 1.125 0 1 0 123.76806025682887 949.2180516150074A1.125 1.125 0 1 0 126.01806025682887 949.2180516150074ZM117.36727900682888 953.4602391150074A1.125 1.125 0 1 0 115.77587275682887 951.8688328650074A1.125 1.125 0 1 0 117.36727900682888 953.4602391150074ZM117.36727900682888 946.5649266150074A1.125 1.125 0 1 0 115.77587275682887 944.9758641150074A1.125 1.125 0 1 0 117.36727900682888 946.5672703650074ZM122.66884150682887 953.4602391150074A1.125 1.125 0 1 0 124.26024775682887 951.8688328650074A1.125 1.125 0 1 0 122.66884150682887 953.4602391150074Z " fill="#c083ea"></path><g id="Requests blocks"><polyline points="408,208 376.44,208.28 361.12,210.5 353.38,212.4 337.81,217.7 329.98,221.06 314.3,229.15 290.83,244.4 275.33,256.45 260.01,269.86 237.53999999999996,292.23 223.01,308.45 208.90999999999997,325.56 195.30999999999995,343.43 182.28999999999996,361.92 158.24,400.24 137.30999999999995,439.46 128.20000000000005,459.07 120.07000000000005,478.51 113.00999999999999,497.64 107.07000000000005,516.3299999999999 100.42999999999995,543.24 97.62,560.24 96.17999999999995,576.33 96,608" fill="none" stroke-width="1" stroke="#adb3b3" opacity="1"></polyline></g><g id="Requests blocks"><rect width="117.224" height="22.2" x="129.77045432923725" y="342.167966163779" rx="4" ry="4" fill-opacity="0.8" fill="#e5e7e8" stroke-opacity="1" stroke-width="1" stroke="#cfd2d2" opacity="0.8"></rect><g opacity="1" fill="#434647"><text font-family="IBM Plex Sans Medium, Arial, sans-serif" font-size="14" text-anchor="middle" x="188.38245432923725" y="358.517966163779"><tspan dy="0" x="188.38245432923725">Requests blocks</tspan></text></g></g><g id="Requests announcements and offers"><polyline points="424,832 373.24,832.7 305.07,837.98 286.62,838.62 270.4,837.6 263.15999999999997,836.26 256.5,834.26 250.44000000000005,831.53 244.98000000000002,827.97 240.13,823.5 235.89999999999998,818.05 232.29999999999995,811.52 229.33000000000004,803.85 227.01,794.94 225.34000000000003,784.72 224.34000000000003,773.1 224,736" fill="none" stroke-width="1" stroke="#adb3b3" opacity="0.9"></polyline></g><g id="Requests announcements and offers"><rect width="115.194" height="54.2" x="227.20824531991258" y="811.4058785589588" rx="4" ry="4" fill-opacity="0.8" fill="#e5e7e8" stroke-opacity="1" stroke-width="1" stroke="#cfd2d2" opacity="0.8"></rect><g opacity="0.9" fill="#434647"><text font-family="IBM Plex Sans Medium, Arial, sans-serif" font-size="14" text-anchor="middle" x="284.8052453199126" y="827.7558785589589"><tspan dy="0" x="284.8052453199126">Requests</tspan></text><text font-family="IBM Plex Sans Medium, Arial, sans-serif" font-size="14" text-anchor="middle" x="284.8052453199126" y="843.7558785589589"><tspan dy="0" x="284.8052453199126">announcements</tspan></text><text font-family="IBM Plex Sans Medium, Arial, sans-serif" font-size="14" text-anchor="middle" x="284.8052453199126" y="859.7558785589589"><tspan dy="0" x="284.8052453199126">and offers</tspan></text></g></g><path id="Future" d="M216.33324531991258 833.6308785589588A1.125 1.125 0 1 0 214.08324531991258 833.6308785589588A1.125 1.125 0 1 0 216.33324531991258 833.6308785589588ZM216.33324531991258 843.3808785589588A1.125 1.125 0 1 0 214.08324531991258 843.3808785589588A1.125 1.125 0 1 0 216.33324531991258 843.3808785589588ZM210.33324531991258 839.6308785589588A1.125 1.125 0 1 0 210.33324531991258 837.3808785589588A1.125 1.125 0 1 0 210.33324531991258 839.6308785589588ZM221.20824531991258 838.5058785589588A1.125 1.125 0 1 0 218.95824531991258 838.5058785589588A1.125 1.125 0 1 0 221.20824531991258 838.5058785589588ZM212.55746406991258 842.7480660589588A1.125 1.125 0 1 0 210.96605781991258 841.1566598089588A1.125 1.125 0 1 0 212.55746406991258 842.7480660589588ZM212.55746406991258 835.8527535589587A1.125 1.125 0 1 0 210.96605781991258 834.2636910589588A1.125 1.125 0 1 0 212.55746406991258 835.8550973089588ZM217.85902656991257 842.7480660589588A1.125 1.125 0 1 0 219.45043281991258 841.1566598089588A1.125 1.125 0 1 0 217.85902656991257 842.7480660589588Z " fill="#c083ea"></path><g id="Updates missing bodies/txs"><polyline points="680,1040 799.27,1039.5700000000002 833.02,1038.27 866.56,1035.78 899.16,1031.74 920,1028 949.4,1020.56 967.44,1014.22 983.98,1006.65 991.62,1002.37 1005.5,992.75 1017.34,981.63 1026.93,968.91 1034.05,954.46 1038.48,938.2 1040,920 1040,896" fill="none" stroke-width="1" stroke="#adb3b3" opacity="0.9"></polyline></g><g id="Updates missing bodies/txs"><rect width="118.20400000000001" height="38.2" x="971.813720716297" y="941.7210021979647" rx="4" ry="4" fill-opacity="0.8" fill="#e5e7e8" stroke-opacity="1" stroke-width="1" stroke="#cfd2d2" opacity="0.8"></rect><g opacity="0.9" fill="#434647"><text font-family="IBM Plex Sans Medium, Arial, sans-serif" font-size="14" text-anchor="middle" x="1030.915720716297" y="958.0710021979646"><tspan dy="0" x="1030.915720716297">Updates missing</tspan></text><text font-family="IBM Plex Sans Medium, Arial, sans-serif" font-size="14" text-anchor="middle" x="1030.915720716297" y="974.0710021979646"><tspan dy="0" x="1030.915720716297">bodies/txs</tspan></text></g></g><path id="Future" d="M960.938720716297 955.9460021979647A1.125 1.125 0 1 0 958.688720716297 955.9460021979647A1.125 1.125 0 1 0 960.938720716297 955.9460021979647ZM960.938720716297 965.6960021979647A1.125 1.125 0 1 0 958.688720716297 965.6960021979647A1.125 1.125 0 1 0 960.938720716297 965.6960021979647ZM954.938720716297 961.9460021979647A1.125 1.125 0 1 0 954.938720716297 959.6960021979647A1.125 1.125 0 1 0 954.938720716297 961.9460021979647ZM965.813720716297 960.8210021979647A1.125 1.125 0 1 0 963.563720716297 960.8210021979647A1.125 1.125 0 1 0 965.813720716297 960.8210021979647ZM957.162939466297 965.0631896979647A1.125 1.125 0 1 0 955.571533216297 963.4717834479648A1.125 1.125 0 1 0 957.162939466297 965.0631896979647ZM957.162939466297 958.1678771979647A1.125 1.125 0 1 0 955.571533216297 956.5788146979647A1.125 1.125 0 1 0 957.162939466297 958.1702209479647ZM962.464501966297 965.0631896979647A1.125 1.125 0 1 0 964.055908216297 963.4717834479648A1.125 1.125 0 1 0 962.464501966297 965.0631896979647Z " fill="#c083ea"></path><g id="Triggers chain selection"><polyline points="1632,488 1936,488" fill="none" stroke-width="1" stroke="#adb3b3" opacity="1"></polyline></g><g id="Triggers chain selection"><rect width="102.328" height="38.2" x="1732.836" y="468.9" rx="4" ry="4" fill-opacity="0.8" fill="#e5e7e8" stroke-opacity="1" stroke-width="1" stroke="#cfd2d2" opacity="0.8"></rect><g opacity="1" fill="#434647"><text font-family="IBM Plex Sans Medium, Arial, sans-serif" font-size="14" text-anchor="middle" x="1784" y="485.25"><tspan dy="0" x="1784">Triggers chain</tspan></text><text font-family="IBM Plex Sans Medium, Arial, sans-serif" font-size="14" text-anchor="middle" x="1784" y="501.25"><tspan dy="0" x="1784">selection</tspan></text></g></g><g id="Validates blocks"><polyline points="2064,392 2064,312" fill="none" stroke-width="1" stroke="#adb3b3" opacity="1"></polyline></g><g id="Validates blocks"><rect width="117.098" height="22.2" x="2005.451" y="340.9" rx="4" ry="4" fill-opacity="0.8" fill="#e5e7e8" stroke-opacity="1" stroke-width="1" stroke="#cfd2d2" opacity="0.8"></rect><g opacity="1" fill="#434647"><text font-family="IBM Plex Sans Medium, Arial, sans-serif" font-size="14" text-anchor="middle" x="2064" y="357.25"><tspan dy="0" x="2064">Validates blocks</tspan></text></g></g><g id="Gets candidates"><polyline points="680,512 704,512 715.1,511.37 725.16,509.55 734.25,506.6 742.44,502.6 749.8,497.64 756.39,491.78 762.28,485.11 767.53,477.71 772.21,469.64 776.4,461 783.53,442.28 789.46,422.16 802.54,369.84 811.85,340.15 819.79,322.36 824.47,314.29 829.72,306.89 835.61,300.22 842.2,294.36 849.56,289.4 857.75,285.4 866.84,282.45 876.9,280.63 888,280 912,280" fill="none" stroke-width="1" stroke="#adb3b3" opacity="1"></polyline></g><g id="Gets candidates"><rect width="115.67" height="22.2" x="753.3823330953643" y="331.06760262069105" rx="4" ry="4" fill-opacity="0.8" fill="#e5e7e8" stroke-opacity="1" stroke-width="1" stroke="#cfd2d2" opacity="0.8"></rect><g opacity="1" fill="#434647"><text font-family="IBM Plex Sans Medium, Arial, sans-serif" font-size="14" text-anchor="middle" x="811.2173330953643" y="347.41760262069107"><tspan dy="0" x="811.2173330953643">Gets candidates</tspan></text></g></g><g id="Gets completed EBs to ignore incomplete CertRBs"><polyline points="1632,648 1791.19,649.78 1826.55,649.3 1861.96,647.88 1896.7,645.22 1930.04,641.01 1961.26,634.98 1980.55,629.8 1998.37,623.59 2006.66,620.07 2021.87,612.16 2035.08,602.99 2040.87,597.92 2050.67,586.72 2057.9300000000003,574.06 2060.55,567.15 2062.45,559.85 2063.6099999999997,552.13 2064,544 2064,520" fill="none" stroke-width="1" stroke="#adb3b3" opacity="0.9"></polyline></g><g id="Gets completed EBs to ignore incomplete CertRBs"><rect width="141.276" height="54.2" x="1812.9430672115056" y="619.1245008986009" rx="4" ry="4" fill-opacity="0.8" fill="#e5e7e8" stroke-opacity="1" stroke-width="1" stroke="#cfd2d2" opacity="0.8"></rect><g opacity="0.9" fill="#434647"><text font-family="IBM Plex Sans Medium, Arial, sans-serif" font-size="14" text-anchor="middle" x="1883.5810672115056" y="635.4745008986008"><tspan dy="0" x="1883.5810672115056">Gets completed EBs</tspan></text><text font-family="IBM Plex Sans Medium, Arial, sans-serif" font-size="14" text-anchor="middle" x="1883.5810672115058" y="651.4745008986008"><tspan dy="0" x="1883.5810672115058">to ignore</tspan></text><text font-family="IBM Plex Sans Medium, Arial, sans-serif" font-size="14" text-anchor="middle" x="1883.5810672115056" y="667.4745008986008"><tspan dy="0" x="1883.5810672115056">incomplete CertRBs</tspan></text></g></g><path id="Future" d="M1802.0680672115056 641.3495008986009A1.125 1.125 0 1 0 1799.8180672115056 641.3495008986009A1.125 1.125 0 1 0 1802.0680672115056 641.3495008986009ZM1802.0680672115056 651.0995008986009A1.125 1.125 0 1 0 1799.8180672115056 651.0995008986009A1.125 1.125 0 1 0 1802.0680672115056 651.0995008986009ZM1796.0680672115056 647.3495008986009A1.125 1.125 0 1 0 1796.0680672115056 645.0995008986009A1.125 1.125 0 1 0 1796.0680672115056 647.3495008986009ZM1806.9430672115056 646.2245008986009A1.125 1.125 0 1 0 1804.6930672115056 646.2245008986009A1.125 1.125 0 1 0 1806.9430672115056 646.2245008986009ZM1798.2922859615057 650.4666883986009A1.125 1.125 0 1 0 1796.7008797115056 648.875282148601A1.125 1.125 0 1 0 1798.2922859615057 650.4666883986009ZM1798.2922859615057 643.5713758986009A1.125 1.125 0 1 0 1796.7008797115056 641.9823133986009A1.125 1.125 0 1 0 1798.2922859615057 643.5737196486009ZM1803.5938484615056 650.4666883986009A1.125 1.125 0 1 0 1805.1852547115056 648.875282148601A1.125 1.125 0 1 0 1803.5938484615056 650.4666883986009Z " fill="#c083ea"></path><g id="Notifies on completed EB closure"><polyline points="1504,768 1504,680" fill="none" stroke-width="1" stroke="#adb3b3" opacity="0.9"></polyline></g><g id="Notifies on completed EB closure"><rect width="101.39" height="54.2" x="1453.305" y="696.9" rx="4" ry="4" fill-opacity="0.8" fill="#e5e7e8" stroke-opacity="1" stroke-width="1" stroke="#cfd2d2" opacity="0.8"></rect><g opacity="0.9" fill="#434647"><text font-family="IBM Plex Sans Medium, Arial, sans-serif" font-size="14" text-anchor="middle" x="1504" y="713.2500000000001"><tspan dy="0" x="1504">Notifies on</tspan></text><text font-family="IBM Plex Sans Medium, Arial, sans-serif" font-size="14" text-anchor="middle" x="1504" y="729.2500000000001"><tspan dy="0" x="1504">completed EB</tspan></text><text font-family="IBM Plex Sans Medium, Arial, sans-serif" font-size="14" text-anchor="middle" x="1504" y="745.2500000000001"><tspan dy="0" x="1504">closure</tspan></text></g></g><path id="Future" d="M1442.43 719.125A1.125 1.125 0 1 0 1440.18 719.125A1.125 1.125 0 1 0 1442.43 719.125ZM1442.43 728.875A1.125 1.125 0 1 0 1440.18 728.875A1.125 1.125 0 1 0 1442.43 728.875ZM1436.43 725.125A1.125 1.125 0 1 0 1436.43 722.875A1.125 1.125 0 1 0 1436.43 725.125ZM1447.305 724A1.125 1.125 0 1 0 1445.055 724A1.125 1.125 0 1 0 1447.305 724ZM1438.6542187500002 728.2421875A1.125 1.125 0 1 0 1437.0628125 726.65078125A1.125 1.125 0 1 0 1438.6542187500002 728.2421875ZM1438.6542187500002 721.346875A1.125 1.125 0 1 0 1437.0628125 719.7578125A1.125 1.125 0 1 0 1438.6542187500002 721.34921875ZM1443.95578125 728.2421875A1.125 1.125 0 1 0 1445.5471875 726.65078125A1.125 1.125 0 1 0 1443.95578125 728.2421875Z " fill="#c083ea"></path><g id="Re-trigger chain selection for completed CertRBs"><polyline points="1632,616 1668.38,615.58 1679.97,614.37 1690.8200000000002,612.42 1710.52,606.52 1727.95,598.35 1735.95,593.55 1750.81,582.81 1764.54,570.94 1796.88,539.28 1810.21,527.01 1824.45,515.65 1840.05,505.65 1857.48,497.48 1877.18,491.58 1888.03,489.63 1899.62,488.42 1936,488" fill="none" stroke-width="1" stroke="#adb3b3" opacity="0.9"></polyline></g><g id="Re-trigger chain selection for completed CertRBs"><rect width="136.292" height="54.2" x="1715.797296593091" y="524.8446886166588" rx="4" ry="4" fill-opacity="0.8" fill="#e5e7e8" stroke-opacity="1" stroke-width="1" stroke="#cfd2d2" opacity="0.8"></rect><g opacity="0.9" fill="#434647"><text font-family="IBM Plex Sans Medium, Arial, sans-serif" font-size="14" text-anchor="middle" x="1783.943296593091" y="541.1946886166589"><tspan dy="0" x="1783.943296593091">Re-trigger chain</tspan></text><text font-family="IBM Plex Sans Medium, Arial, sans-serif" font-size="14" text-anchor="middle" x="1783.943296593091" y="557.1946886166589"><tspan dy="0" x="1783.943296593091">selection for</tspan></text><text font-family="IBM Plex Sans Medium, Arial, sans-serif" font-size="14" text-anchor="middle" x="1783.943296593091" y="573.1946886166589"><tspan dy="0" x="1783.943296593091">completed CertRBs</tspan></text></g></g><path id="Future" d="M1704.922296593091 547.0696886166588A1.125 1.125 0 1 0 1702.672296593091 547.0696886166588A1.125 1.125 0 1 0 1704.922296593091 547.0696886166588ZM1704.922296593091 556.8196886166588A1.125 1.125 0 1 0 1702.672296593091 556.8196886166588A1.125 1.125 0 1 0 1704.922296593091 556.8196886166588ZM1698.922296593091 553.0696886166588A1.125 1.125 0 1 0 1698.922296593091 550.8196886166588A1.125 1.125 0 1 0 1698.922296593091 553.0696886166588ZM1709.797296593091 551.9446886166588A1.125 1.125 0 1 0 1707.547296593091 551.9446886166588A1.125 1.125 0 1 0 1709.797296593091 551.9446886166588ZM1701.146515343091 556.1868761166588A1.125 1.125 0 1 0 1699.555109093091 554.5954698666588A1.125 1.125 0 1 0 1701.146515343091 556.1868761166588ZM1701.146515343091 549.2915636166588A1.125 1.125 0 1 0 1699.555109093091 547.7025011166588A1.125 1.125 0 1 0 1701.146515343091 549.2939073666588ZM1706.448077843091 556.1868761166588A1.125 1.125 0 1 0 1708.039484093091 554.5954698666588A1.125 1.125 0 1 0 1706.448077843091 556.1868761166588Z " fill="#c083ea"></path><g id="Gets EB announcing blocks"><polyline points="1936,424 1632,424" fill="none" stroke-width="1" stroke="#adb3b3" opacity="0.9"></polyline></g><g id="Gets EB announcing blocks"><rect width="140.324" height="38.2" x="1713.838" y="404.90000000000003" rx="4" ry="4" fill-opacity="0.8" fill="#e5e7e8" stroke-opacity="1" stroke-width="1" stroke="#cfd2d2" opacity="0.8"></rect><g opacity="0.9" fill="#434647"><text font-family="IBM Plex Sans Medium, Arial, sans-serif" font-size="14" text-anchor="middle" x="1784" y="421.25000000000006"><tspan dy="0" x="1784">Gets EB announcing</tspan></text><text font-family="IBM Plex Sans Medium, Arial, sans-serif" font-size="14" text-anchor="middle" x="1784" y="437.25000000000006"><tspan dy="0" x="1784">blocks</tspan></text></g></g><path id="Future" d="M1702.963 419.125A1.125 1.125 0 1 0 1700.713 419.125A1.125 1.125 0 1 0 1702.963 419.125ZM1702.963 428.875A1.125 1.125 0 1 0 1700.713 428.875A1.125 1.125 0 1 0 1702.963 428.875ZM1696.963 425.125A1.125 1.125 0 1 0 1696.963 422.875A1.125 1.125 0 1 0 1696.963 425.125ZM1707.838 424A1.125 1.125 0 1 0 1705.588 424A1.125 1.125 0 1 0 1707.838 424ZM1699.18721875 428.2421875A1.125 1.125 0 1 0 1697.5958125 426.65078125A1.125 1.125 0 1 0 1699.18721875 428.2421875ZM1699.18721875 421.346875A1.125 1.125 0 1 0 1697.5958125 419.7578125A1.125 1.125 0 1 0 1699.18721875 421.34921875ZM1704.4887812499999 428.2421875A1.125 1.125 0 1 0 1706.0801875 426.65078125A1.125 1.125 0 1 0 1704.4887812499999 428.2421875Z " fill="#c083ea"></path><g id="Adds block with punishment"><polyline points="536,272 536.23,302.98 538.03,316.36 541.56,328.99 546.76,340.88 553.55,352.05 561.88,362.54 571.67,372.35 582.84,381.51 595.35,390.04 609.11,397.96 631.95,408.75 648.55,415.25 666.17,421.21 684.74,426.65 714.22,433.91 734.86,438.16 767.14,443.73 823.86,451 883.31,456.05 956.76,459.65 1018.48,460.98 1091.55,461.07 1173.1100000000001,459.82 1313.03,456.42 1376,456" fill="none" stroke-width="1" stroke="#adb3b3" opacity="1"></polyline></g><g id="Adds block with punishment"><rect width="114.41000000000001" height="38.2" x="853.274684011525" y="438.28166592840694" rx="4" ry="4" fill-opacity="0.8" fill="#e5e7e8" stroke-opacity="1" stroke-width="1" stroke="#cfd2d2" opacity="0.8"></rect><g opacity="1" fill="#434647"><text font-family="IBM Plex Sans Medium, Arial, sans-serif" font-size="14" text-anchor="middle" x="910.479684011525" y="454.63166592840696"><tspan dy="0" x="910.479684011525">Adds block with</tspan></text><text font-family="IBM Plex Sans Medium, Arial, sans-serif" font-size="14" text-anchor="middle" x="910.479684011525" y="470.63166592840696"><tspan dy="0" x="910.479684011525">punishment</tspan></text></g></g><g id="Synthesizes offers from CertRB headers"><polyline points="680,544 714.14,544.15 744.77,546.37 775.37,551.23 805.46,558.67 834.58,568.64 862.25,581.1 888,596 903.87,607.27 918.53,619.58 925.36,626.13 937.96,639.99 949,654.87 953.89,662.69 962.34,679.06 968.89,696.42 973.39,714.74 975.7,734.01 976,768" fill="none" stroke-width="1" stroke="#adb3b3" opacity="0.9"></polyline></g><g id="Synthesizes offers from CertRB headers"><rect width="129.572" height="54.2" x="817.1932435601275" y="565.4161448173164" rx="4" ry="4" fill-opacity="0.8" fill="#e5e7e8" stroke-opacity="1" stroke-width="1" stroke="#cfd2d2" opacity="0.8"></rect><g opacity="0.9" fill="#434647"><text font-family="IBM Plex Sans Medium, Arial, sans-serif" font-size="14" text-anchor="middle" x="881.9792435601275" y="581.7661448173166"><tspan dy="0" x="881.9792435601275">Synthesizes offers</tspan></text><text font-family="IBM Plex Sans Medium, Arial, sans-serif" font-size="14" text-anchor="middle" x="881.9792435601275" y="597.7661448173166"><tspan dy="0" x="881.9792435601275">from CertRB</tspan></text><text font-family="IBM Plex Sans Medium, Arial, sans-serif" font-size="14" text-anchor="middle" x="881.9792435601275" y="613.7661448173166"><tspan dy="0" x="881.9792435601275">headers</tspan></text></g></g><path id="Future" d="M806.3182435601275 587.6411448173164A1.125 1.125 0 1 0 804.0682435601275 587.6411448173164A1.125 1.125 0 1 0 806.3182435601275 587.6411448173164ZM806.3182435601275 597.3911448173164A1.125 1.125 0 1 0 804.0682435601275 597.3911448173164A1.125 1.125 0 1 0 806.3182435601275 597.3911448173164ZM800.3182435601275 593.6411448173164A1.125 1.125 0 1 0 800.3182435601275 591.3911448173164A1.125 1.125 0 1 0 800.3182435601275 593.6411448173164ZM811.1932435601275 592.5161448173164A1.125 1.125 0 1 0 808.9432435601275 592.5161448173164A1.125 1.125 0 1 0 811.1932435601275 592.5161448173164ZM802.5424623101275 596.7583323173164A1.125 1.125 0 1 0 800.9510560601275 595.1669260673165A1.125 1.125 0 1 0 802.5424623101275 596.7583323173164ZM802.5424623101275 589.8630198173164A1.125 1.125 0 1 0 800.9510560601275 588.2739573173164A1.125 1.125 0 1 0 802.5424623101275 589.8653635673164ZM807.8440248101275 596.7583323173164A1.125 1.125 0 1 0 809.4354310601275 595.1669260673165A1.125 1.125 0 1 0 807.8440248101275 596.7583323173164Z " fill="#c083ea"></path><g id="Manages"><polyline points="1504,312 1504,392" fill="none" stroke-width="1" stroke="#adb3b3" opacity="1"></polyline></g><g id="Manages"><rect width="69.12" height="22.2" x="1469.44" y="340.9" rx="4" ry="4" fill-opacity="0.8" fill="#e5e7e8" stroke-opacity="1" stroke-width="1" stroke="#cfd2d2" opacity="0.8"></rect><g opacity="1" fill="#434647"><text font-family="IBM Plex Sans Medium, Arial, sans-serif" font-size="14" text-anchor="middle" x="1504" y="357.25"><tspan dy="0" x="1504">Manages</tspan></text></g></g><g id="Manages"><polyline points="1632,248 1936,248" fill="none" stroke-width="1" stroke="#adb3b3" opacity="1"></polyline></g><g id="Manages"><rect width="69.12" height="22.2" x="1749.44" y="236.89999999999998" rx="4" ry="4" fill-opacity="0.8" fill="#e5e7e8" stroke-opacity="1" stroke-width="1" stroke="#cfd2d2" opacity="0.8"></rect><g opacity="1" fill="#434647"><text font-family="IBM Plex Sans Medium, Arial, sans-serif" font-size="14" text-anchor="middle" x="1784" y="253.25"><tspan dy="0" x="1784">Manages</tspan></text></g></g><g id="Requests block headers"><polyline points="424,512 373.24,511.3 305.07,506.02 286.62,505.38 270.4,506.4 263.15999999999997,507.74 256.5,509.74 250.44000000000005,512.47 244.98000000000002,516.03 240.13,520.5 235.89999999999998,525.95 232.29999999999995,532.48 229.33000000000004,540.15 227.01,549.06 225.34000000000003,559.28 224.34000000000003,570.9 224,608" fill="none" stroke-width="1" stroke="#adb3b3" opacity="1"></polyline></g><g id="Requests block headers"><rect width="110.308" height="38.2" x="229.6512453199126" y="486.39412144104125" rx="4" ry="4" fill-opacity="0.8" fill="#e5e7e8" stroke-opacity="1" stroke-width="1" stroke="#cfd2d2" opacity="0.8"></rect><g opacity="1" fill="#434647"><text font-family="IBM Plex Sans Medium, Arial, sans-serif" font-size="14" text-anchor="middle" x="284.8052453199126" y="502.7441214410413"><tspan dy="0" x="284.8052453199126">Requests block</tspan></text><text font-family="IBM Plex Sans Medium, Arial, sans-serif" font-size="14" text-anchor="middle" x="284.8052453199126" y="518.7441214410412"><tspan dy="0" x="284.8052453199126">headers</tspan></text></g></g><a href="https://app.icepanel.io/landscapes/uXaSNEkX1PFAJr6ppM94/versions/latest/model/objects?object=rlW7JyrszM&amp;focus=rlW7JyrszM" id="Upstream Node" target="_blank"><rect width="256" height="128" rx="8" ry="8" fill-opacity="0.8" fill="#f5f6f6" stroke-opacity="1" stroke-width="1" stroke="#adb3b3" opacity="1" x="32" y="608"></rect><text font-family="IBM Plex Sans Medium, Arial, sans-serif" font-size="24" font-weight="500" text-anchor="middle" fill="#0c0d0d" opacity="1" x="160" y="659.0000000000001"><tspan dy="0" x="160">Upstream Node</tspan></text><g opacity="1"><text font-family="IBM Plex Sans, Arial, sans-serif" font-size="13" text-anchor="middle" fill="#595f61" x="160" y="685.375"><tspan dy="0" x="160">Isolated role of a Cardano node being an</tspan></text><text font-family="IBM Plex Sans, Arial, sans-serif" font-size="13" text-anchor="middle" fill="#595f61" x="160" y="700.375"><tspan dy="0" x="160">upstream peer.</tspan></text></g><g id="App" opacity="1"><text font-family="Courier New, monospace" font-size="12" text-anchor="middle" fill="#595f61" x="160" y="724.6552734375"><tspan dy="0" x="160">App</tspan></text></g></a><a href="https://app.icepanel.io/landscapes/uXaSNEkX1PFAJr6ppM94/versions/latest/model/objects?object=99QxLIcwqP&amp;focus=99QxLIcwqP" id="Chain DB" target="_blank"><rect width="256" height="128" rx="8" ry="8" fill-opacity="0.8" fill="#f5f6f6" stroke-opacity="1" stroke-width="1" stroke="#adb3b3" opacity="1" x="1376" y="184"></rect><text font-family="IBM Plex Sans Medium, Arial, sans-serif" font-size="24" font-weight="500" text-anchor="middle" fill="#0c0d0d" opacity="1" x="1503.9999999999998" y="234.99999999999997"><tspan dy="0" x="1503.9999999999998">Chain DB</tspan></text><g opacity="1"><text font-family="IBM Plex Sans, Arial, sans-serif" font-size="13" text-anchor="middle" fill="#595f61" x="1503.9999999999998" y="261.375"><tspan dy="0" x="1503.9999999999998">Facade for immutable, volatile and</tspan></text><text font-family="IBM Plex Sans, Arial, sans-serif" font-size="13" text-anchor="middle" fill="#595f61" x="1503.9999999999998" y="276.375"><tspan dy="0" x="1503.9999999999998">ledger DBs; also runs chain selection.</tspan></text></g><g id="Component" opacity="1"><text font-family="Courier New, monospace" font-size="12" text-anchor="middle" fill="#595f61" x="1504" y="300.6552734375"><tspan dy="0" x="1504">Component</tspan></text></g></a><a href="https://app.icepanel.io/landscapes/uXaSNEkX1PFAJr6ppM94/versions/latest/model/objects?object=8KWb7IlpWk&amp;focus=8KWb7IlpWk" id="Block fetch clients" target="_blank"><rect width="256" height="128" rx="8" ry="8" fill-opacity="0.8" fill="#f5f6f6" stroke-opacity="1" stroke-width="1" stroke="#adb3b3" opacity="1" x="408" y="144"></rect><text font-family="IBM Plex Sans Medium, Arial, sans-serif" font-size="24" font-weight="500" text-anchor="middle" fill="#0c0d0d" opacity="1" x="536" y="194.99999999999997"><tspan dy="0" x="536">Block fetch clients</tspan></text><g opacity="1"><text font-family="IBM Plex Sans, Arial, sans-serif" font-size="13" text-anchor="middle" fill="#595f61" x="536" y="221.375"><tspan dy="0" x="536">Clients that fetch blocks as determined</tspan></text><text font-family="IBM Plex Sans, Arial, sans-serif" font-size="13" text-anchor="middle" fill="#595f61" x="536" y="236.375"><tspan dy="0" x="536">by the block fetching decision logic.</tspan></text></g><g id="Component" opacity="1"><text font-family="Courier New, monospace" font-size="12" text-anchor="middle" fill="#595f61" x="536" y="260.6552734375"><tspan dy="0" x="536">Component</tspan></text></g></a><a href="https://app.icepanel.io/landscapes/uXaSNEkX1PFAJr6ppM94/versions/latest/model/objects?object=I50HBEXzla&amp;focus=I50HBEXzla" id="Leios fetching" target="_blank"><rect width="256" height="128" rx="8" ry="8" fill-opacity="0.8" fill="#f5f6f6" stroke-opacity="1" stroke-width="1" stroke="#adb3b3" opacity="0.9" x="848" y="768"></rect><text font-family="IBM Plex Sans Medium, Arial, sans-serif" font-size="24" font-weight="500" text-anchor="middle" fill="#0c0d0d" opacity="0.9" x="975.9999999999999" y="819.0000000000001"><tspan dy="0" x="975.9999999999999">Leios fetching</tspan></text><g opacity="0.9"><text font-family="IBM Plex Sans, Arial, sans-serif" font-size="13" text-anchor="middle" fill="#595f61" x="976" y="845.375"><tspan dy="0" x="976">Fetch Leios EBs, transactions and votes</tspan></text><text font-family="IBM Plex Sans, Arial, sans-serif" font-size="13" text-anchor="middle" fill="#595f61" x="976" y="860.375"><tspan dy="0" x="976">following a freshest first policy.</tspan></text></g><g id="Component" opacity="0.9"><text font-family="Courier New, monospace" font-size="12" text-anchor="middle" fill="#595f61" x="976" y="884.6552734375"><tspan dy="0" x="976">Component</tspan></text></g><path id="Future" d="M864.3125 875.3125A1.3125 1.3125 0 1 0 861.6875 875.3125A1.3125 1.3125 0 1 0 864.3125 875.3125ZM864.3125 886.6875A1.3125 1.3125 0 1 0 861.6875 886.6875A1.3125 1.3125 0 1 0 864.3125 886.6875ZM857.3125 882.3125A1.3125 1.3125 0 1 0 857.3125 879.6875A1.3125 1.3125 0 1 0 857.3125 882.3125ZM870 881A1.3125 1.3125 0 1 0 867.375 881A1.3125 1.3125 0 1 0 870 881ZM859.907421875 885.94921875A1.3125 1.3125 0 1 0 858.05078125 884.092578125A1.3125 1.3125 0 1 0 859.907421875 885.94921875ZM859.907421875 877.9046875A1.3125 1.3125 0 1 0 858.05078125 876.05078125A1.3125 1.3125 0 1 0 859.907421875 877.907421875ZM866.092578125 885.94921875A1.3125 1.3125 0 1 0 867.94921875 884.092578125A1.3125 1.3125 0 1 0 866.092578125 885.94921875Z " fill="#c083ea" opacity="1"></path></a><a href="https://app.icepanel.io/landscapes/uXaSNEkX1PFAJr6ppM94/versions/latest/model/objects?object=3tqa53jrJR&amp;focus=3tqa53jrJR" id="Leios notify clients" target="_blank"><rect width="256" height="128" rx="8" ry="8" fill-opacity="0.8" fill="#f5f6f6" stroke-opacity="1" stroke-width="1" stroke="#adb3b3" opacity="0.9" x="424" y="768"></rect><text font-family="IBM Plex Sans Medium, Arial, sans-serif" font-size="24" font-weight="500" text-anchor="middle" fill="#0c0d0d" opacity="0.9" x="552" y="819.0000000000001"><tspan dy="0" x="552">Leios notify clients</tspan></text><g opacity="0.9"><text font-family="IBM Plex Sans, Arial, sans-serif" font-size="13" text-anchor="middle" fill="#595f61" x="552" y="845.375"><tspan dy="0" x="552">Clients that get notified about block</tspan></text><text font-family="IBM Plex Sans, Arial, sans-serif" font-size="13" text-anchor="middle" fill="#595f61" x="552" y="860.375"><tspan dy="0" x="552">announcements and offers.</tspan></text></g><g id="Component" opacity="0.9"><text font-family="Courier New, monospace" font-size="12" text-anchor="middle" fill="#595f61" x="552" y="884.6552734375"><tspan dy="0" x="552">Component</tspan></text></g><path id="Future" d="M440.3125 875.3125A1.3125 1.3125 0 1 0 437.6875 875.3125A1.3125 1.3125 0 1 0 440.3125 875.3125ZM440.3125 886.6875A1.3125 1.3125 0 1 0 437.6875 886.6875A1.3125 1.3125 0 1 0 440.3125 886.6875ZM433.3125 882.3125A1.3125 1.3125 0 1 0 433.3125 879.6875A1.3125 1.3125 0 1 0 433.3125 882.3125ZM446 881A1.3125 1.3125 0 1 0 443.375 881A1.3125 1.3125 0 1 0 446 881ZM435.907421875 885.94921875A1.3125 1.3125 0 1 0 434.05078125 884.092578125A1.3125 1.3125 0 1 0 435.907421875 885.94921875ZM435.907421875 877.9046875A1.3125 1.3125 0 1 0 434.05078125 876.05078125A1.3125 1.3125 0 1 0 435.907421875 877.907421875ZM442.092578125 885.94921875A1.3125 1.3125 0 1 0 443.94921875 884.092578125A1.3125 1.3125 0 1 0 442.092578125 885.94921875Z " fill="#c083ea" opacity="1"></path></a><a href="https://app.icepanel.io/landscapes/uXaSNEkX1PFAJr6ppM94/versions/latest/model/objects?object=4iFHWsD9H7&amp;focus=4iFHWsD9H7" id="EBStore" target="_blank"><rect width="256" height="128" rx="8" ry="8" fill-opacity="0.8" fill="#f5f6f6" stroke-opacity="1" stroke-width="1" stroke="#adb3b3" opacity="0.9" x="1376" y="768"></rect><text font-family="IBM Plex Sans Medium, Arial, sans-serif" font-size="24" font-weight="500" text-anchor="middle" fill="#0c0d0d" opacity="0.9" x="1504" y="819.0000000000001"><tspan dy="0" x="1504">EBStore</tspan></text><g opacity="0.9"><text font-family="IBM Plex Sans, Arial, sans-serif" font-size="12" text-anchor="middle" fill="#595f61" x="1504" y="845.5"><tspan dy="0" x="1504">Stores all known EBs in the immutable and</tspan></text><text font-family="IBM Plex Sans, Arial, sans-serif" font-size="12" text-anchor="middle" fill="#595f61" x="1504" y="859.5"><tspan dy="0" x="1504">volatile chains, as well as their transactions.</tspan></text></g><g id="Component" opacity="0.9"><text font-family="Courier New, monospace" font-size="12" text-anchor="middle" fill="#595f61" x="1504" y="884.6552734375"><tspan dy="0" x="1504">Component</tspan></text></g><path id="Future" d="M1392.3125 875.3125A1.3125 1.3125 0 1 0 1389.6875 875.3125A1.3125 1.3125 0 1 0 1392.3125 875.3125ZM1392.3125 886.6875A1.3125 1.3125 0 1 0 1389.6875 886.6875A1.3125 1.3125 0 1 0 1392.3125 886.6875ZM1385.3125 882.3125A1.3125 1.3125 0 1 0 1385.3125 879.6875A1.3125 1.3125 0 1 0 1385.3125 882.3125ZM1398 881A1.3125 1.3125 0 1 0 1395.375 881A1.3125 1.3125 0 1 0 1398 881ZM1387.907421875 885.94921875A1.3125 1.3125 0 1 0 1386.05078125 884.092578125A1.3125 1.3125 0 1 0 1387.907421875 885.94921875ZM1387.907421875 877.9046875A1.3125 1.3125 0 1 0 1386.05078125 876.05078125A1.3125 1.3125 0 1 0 1387.907421875 877.907421875ZM1394.092578125 885.94921875A1.3125 1.3125 0 1 0 1395.94921875 884.092578125A1.3125 1.3125 0 1 0 1394.092578125 885.94921875Z " fill="#c083ea" opacity="1"></path></a><a href="https://app.icepanel.io/landscapes/uXaSNEkX1PFAJr6ppM94/versions/latest/model/objects?object=MGRSUEwlsw&amp;focus=MGRSUEwlsw" id="Leios fetch clients" target="_blank"><rect width="256" height="128" rx="8" ry="8" fill-opacity="0.8" fill="#f5f6f6" stroke-opacity="1" stroke-width="1" stroke="#adb3b3" opacity="0.9" x="424" y="976"></rect><text font-family="IBM Plex Sans Medium, Arial, sans-serif" font-size="24" font-weight="500" text-anchor="middle" fill="#0c0d0d" opacity="0.9" x="552" y="1027"><tspan dy="0" x="552">Leios fetch clients</tspan></text><g opacity="0.9"><text font-family="IBM Plex Sans, Arial, sans-serif" font-size="13" text-anchor="middle" fill="#595f61" x="552" y="1053.3750000000002"><tspan dy="0" x="552">Clients that fetch Leios data as decided</tspan></text><text font-family="IBM Plex Sans, Arial, sans-serif" font-size="13" text-anchor="middle" fill="#595f61" x="552" y="1068.3750000000002"><tspan dy="0" x="552">by the Leios fetching decision logic.</tspan></text></g><g id="Component" opacity="0.9"><text font-family="Courier New, monospace" font-size="12" text-anchor="middle" fill="#595f61" x="552" y="1092.6552734375"><tspan dy="0" x="552">Component</tspan></text></g><path id="Future" d="M440.3125 1083.3125A1.3125 1.3125 0 1 0 437.6875 1083.3125A1.3125 1.3125 0 1 0 440.3125 1083.3125ZM440.3125 1094.6875A1.3125 1.3125 0 1 0 437.6875 1094.6875A1.3125 1.3125 0 1 0 440.3125 1094.6875ZM433.3125 1090.3125A1.3125 1.3125 0 1 0 433.3125 1087.6875A1.3125 1.3125 0 1 0 433.3125 1090.3125ZM446 1089A1.3125 1.3125 0 1 0 443.375 1089A1.3125 1.3125 0 1 0 446 1089ZM435.907421875 1093.94921875A1.3125 1.3125 0 1 0 434.05078125 1092.092578125A1.3125 1.3125 0 1 0 435.907421875 1093.94921875ZM435.907421875 1085.9046875A1.3125 1.3125 0 1 0 434.05078125 1084.05078125A1.3125 1.3125 0 1 0 435.907421875 1085.907421875ZM442.092578125 1093.94921875A1.3125 1.3125 0 1 0 443.94921875 1092.092578125A1.3125 1.3125 0 1 0 442.092578125 1093.94921875Z " fill="#c083ea" opacity="1"></path></a><a href="https://app.icepanel.io/landscapes/uXaSNEkX1PFAJr6ppM94/versions/latest/model/objects?object=fr84tk8s14r&amp;focus=fr84tk8s14r" id="Block fetching" target="_blank"><rect width="256" height="128" rx="8" ry="8" fill-opacity="0.8" fill="#f5f6f6" stroke-opacity="1" stroke-width="1" stroke="#adb3b3" opacity="1" x="912" y="184"></rect><text font-family="IBM Plex Sans Medium, Arial, sans-serif" font-size="24" font-weight="500" text-anchor="middle" fill="#0c0d0d" opacity="1" x="1040" y="234.99999999999997"><tspan dy="0" x="1040">Block fetching</tspan></text><g opacity="1"><text font-family="IBM Plex Sans, Arial, sans-serif" font-size="10" text-anchor="middle" fill="#595f61" x="1040" y="261.75"><tspan dy="0" x="1040">Fetches blocks continuously by scheduling fetch</tspan></text><text font-family="IBM Plex Sans, Arial, sans-serif" font-size="10" text-anchor="middle" fill="#595f61" x="1040" y="273.75"><tspan dy="0" x="1040">requests across multiple N2N block fetch clients.</tspan></text></g><g id="Component" opacity="1"><text font-family="Courier New, monospace" font-size="12" text-anchor="middle" fill="#595f61" x="1040" y="300.6552734375"><tspan dy="0" x="1040">Component</tspan></text></g></a><a href="https://app.icepanel.io/landscapes/uXaSNEkX1PFAJr6ppM94/versions/latest/model/objects?object=cs175hVbeg&amp;focus=cs175hVbeg" id="VolatileDB" target="_blank"><rect width="256" height="128" rx="8" ry="8" fill-opacity="0.8" fill="#f5f6f6" stroke-opacity="1" stroke-width="1" stroke="#adb3b3" opacity="1" x="1376" y="392"></rect><text font-family="IBM Plex Sans Medium, Arial, sans-serif" font-size="24" font-weight="500" text-anchor="middle" fill="#0c0d0d" opacity="1" x="1504.0000000000002" y="443"><tspan dy="0" x="1504.0000000000002">VolatileDB</tspan></text><g opacity="1"><text font-family="IBM Plex Sans, Arial, sans-serif" font-size="11" text-anchor="middle" fill="#595f61" x="1504.0000000000002" y="469.625"><tspan dy="0" x="1504.0000000000002">Hot, efficient rollback storage of blocks in</tspan></text><text font-family="IBM Plex Sans, Arial, sans-serif" font-size="11" text-anchor="middle" fill="#595f61" x="1504" y="482.625"><tspan dy="0" x="1504">multiple chains. Keeps a LeiosAnnouncer index</tspan></text></g><g id="Component" opacity="1"><text font-family="Courier New, monospace" font-size="12" text-anchor="middle" fill="#595f61" x="1504" y="508.6552734375"><tspan dy="0" x="1504">Component</tspan></text></g></a><a href="https://app.icepanel.io/landscapes/uXaSNEkX1PFAJr6ppM94/versions/latest/model/objects?object=C4gcr2SLmQ&amp;focus=C4gcr2SLmQ" id="LedgerDB" target="_blank"><rect width="256" height="128" rx="8" ry="8" fill-opacity="0.8" fill="#f5f6f6" stroke-opacity="1" stroke-width="1" stroke="#adb3b3" opacity="1" x="1936" y="184"></rect><text font-family="IBM Plex Sans Medium, Arial, sans-serif" font-size="24" font-weight="500" text-anchor="middle" fill="#0c0d0d" opacity="1" x="2064" y="234.99999999999997"><tspan dy="0" x="2064">LedgerDB</tspan></text><g opacity="1"><text font-family="IBM Plex Sans, Arial, sans-serif" font-size="13" text-anchor="middle" fill="#595f61" x="2064" y="261.375"><tspan dy="0" x="2064">Stores the ledger states of the currently</tspan></text><text font-family="IBM Plex Sans, Arial, sans-serif" font-size="13" text-anchor="middle" fill="#595f61" x="2064" y="276.375"><tspan dy="0" x="2064">selected chain until the immutable tip.</tspan></text></g><g id="Component" opacity="1"><text font-family="Courier New, monospace" font-size="12" text-anchor="middle" fill="#595f61" x="2064" y="300.6552734375"><tspan dy="0" x="2064">Component</tspan></text></g></a><a href="https://app.icepanel.io/landscapes/uXaSNEkX1PFAJr6ppM94/versions/latest/model/objects?object=4bTwgI4Pp6&amp;focus=4bTwgI4Pp6" id="Chain Selection" target="_blank"><rect width="256" height="128" rx="8" ry="8" fill-opacity="0.8" fill="#f5f6f6" stroke-opacity="1" stroke-width="1" stroke="#adb3b3" opacity="1" x="1936" y="392"></rect><text font-family="IBM Plex Sans Medium, Arial, sans-serif" font-size="24" font-weight="500" text-anchor="middle" fill="#0c0d0d" opacity="1" x="2064" y="443"><tspan dy="0" x="2064">Chain Selection</tspan></text><g opacity="1"><text font-family="IBM Plex Sans, Arial, sans-serif" font-size="13" text-anchor="middle" fill="#595f61" x="2064" y="469.37499999999994"><tspan dy="0" x="2064">A thread that checks what chains could</tspan></text><text font-family="IBM Plex Sans, Arial, sans-serif" font-size="13" text-anchor="middle" fill="#595f61" x="2064" y="484.375"><tspan dy="0" x="2064">be selected. Ignores incomplete CertRBs</tspan></text></g><g id="Component" opacity="1"><text font-family="Courier New, monospace" font-size="12" text-anchor="middle" fill="#595f61" x="2064" y="508.6552734375"><tspan dy="0" x="2064">Component</tspan></text></g></a><a href="https://app.icepanel.io/landscapes/uXaSNEkX1PFAJr6ppM94/versions/latest/model/objects?object=fUDhiZRmE1&amp;focus=fUDhiZRmE1" id="Chain sync clients" target="_blank"><rect width="256" height="128" rx="8" ry="8" fill-opacity="0.8" fill="#f5f6f6" stroke-opacity="1" stroke-width="1" stroke="#adb3b3" opacity="1" x="424" y="448"></rect><text font-family="IBM Plex Sans Medium, Arial, sans-serif" font-size="24" font-weight="500" text-anchor="middle" fill="#0c0d0d" opacity="1" x="552" y="499"><tspan dy="0" x="552">Chain sync clients</tspan></text><g opacity="1"><text font-family="IBM Plex Sans, Arial, sans-serif" font-size="12" text-anchor="middle" fill="#595f61" x="552" y="525.5"><tspan dy="0" x="552">Clients that share state to find chain</tspan></text><text font-family="IBM Plex Sans, Arial, sans-serif" font-size="12" text-anchor="middle" fill="#595f61" x="552" y="539.5"><tspan dy="0" x="552">candidates by following the chain of peers</tspan></text></g><g id="Component" opacity="1"><text font-family="Courier New, monospace" font-size="12" text-anchor="middle" fill="#595f61" x="552" y="564.6552734375"><tspan dy="0" x="552">Component</tspan></text></g></a><a href="https://app.icepanel.io/landscapes/uXaSNEkX1PFAJr6ppM94/versions/latest/model/objects?object=T5RNjk4esY&amp;focus=T5RNjk4esY" id="Acquired EBs runner" target="_blank"><rect width="256" height="128" rx="8" ry="8" fill-opacity="0.8" fill="#f5f6f6" stroke-opacity="1" stroke-width="1" stroke="#adb3b3" opacity="0.9" x="1376" y="552"></rect><text font-family="IBM Plex Sans Medium, Arial, sans-serif" font-size="24" font-weight="500" text-anchor="middle" fill="#0c0d0d" opacity="0.9" x="1504" y="603.0000000000001"><tspan dy="0" x="1504">Acquired EBs runner</tspan></text><g opacity="0.9"><text font-family="IBM Plex Sans, Arial, sans-serif" font-size="13" text-anchor="middle" fill="#595f61" x="1503.9999999999998" y="636.875"><tspan dy="0" x="1503.9999999999998">Background thread managed by ChainDB</tspan></text></g><g id="Component" opacity="0.9"><text font-family="Courier New, monospace" font-size="12" text-anchor="middle" fill="#595f61" x="1504" y="668.6552734375"><tspan dy="0" x="1504">Component</tspan></text></g><path id="Future" d="M1392.3125 659.3125A1.3125 1.3125 0 1 0 1389.6875 659.3125A1.3125 1.3125 0 1 0 1392.3125 659.3125ZM1392.3125 670.6875A1.3125 1.3125 0 1 0 1389.6875 670.6875A1.3125 1.3125 0 1 0 1392.3125 670.6875ZM1385.3125 666.3125A1.3125 1.3125 0 1 0 1385.3125 663.6875A1.3125 1.3125 0 1 0 1385.3125 666.3125ZM1398 665A1.3125 1.3125 0 1 0 1395.375 665A1.3125 1.3125 0 1 0 1398 665ZM1387.907421875 669.94921875A1.3125 1.3125 0 1 0 1386.05078125 668.092578125A1.3125 1.3125 0 1 0 1387.907421875 669.94921875ZM1387.907421875 661.9046875A1.3125 1.3125 0 1 0 1386.05078125 660.05078125A1.3125 1.3125 0 1 0 1387.907421875 661.907421875ZM1394.092578125 669.94921875A1.3125 1.3125 0 1 0 1395.94921875 668.092578125A1.3125 1.3125 0 1 0 1394.092578125 669.94921875Z " fill="#c083ea" opacity="1"></path></a><g id="Schedules fetch requests"><polygon points="624.342305806742,1000.4243630983391 616.342305806742,1016.4243630983391 632.342305806742,1016.4243630983391 624.342305806742,1000.4243630983391" fill="#adb3b3" opacity="0.9" transform="matrix(0.01065448597574588,-0.9999432393534108,0.9999432393534108,0.01065448597574588,-327.01962470590865,1621.6478603873456)"></polygon><circle r="4" fill="#adb3b3" opacity="0.9" cx="912" cy="896"></circle></g><g id="Updates offers"><polygon points="840,760 832,776 848,776 840,760" fill="#adb3b3" opacity="0.9" transform="matrix(6.123233995736766e-17,1,-1,6.123233995736766e-17,1608,-8)"></polygon><circle r="4" fill="#adb3b3" opacity="0.9" cx="680" cy="832"></circle></g><g id="Determines missing txs"><polygon points="1048,824 1040,840 1056,840 1048,824" fill="#adb3b3" opacity="0.9" transform="matrix(-1.8369701987210297e-16,-1,1,-1.8369701987210297e-16,280.0000000000002,1880.0000000000002)"></polygon><circle r="4" fill="#adb3b3" opacity="0.9" cx="1376" cy="832"></circle></g><g id="Schedules fetch requests"><polygon points="608.2045052084828,200.2543714230936 600.2045052084828,216.2543714230936 616.2045052084828,216.2543714230936 608.2045052084828,200.2543714230936" fill="#adb3b3" opacity="1" transform="matrix(0.006375544771016041,-0.999979676007904,0.999979676007904,0.006375544771016041,459.87206349227813,814.9154133543267)"></polygon><circle r="4" fill="#adb3b3" opacity="1" cx="912" cy="248"></circle></g><g id="Stores bodies and txs"><polygon points="1504.1771789025288,895.7614862884083 1496.1771789025288,911.7614862884083 1512.1771789025288,911.7614862884083 1504.1771789025288,895.7614862884083" fill="#adb3b3" opacity="0.9" transform="matrix(0.9999724777231439,0.0074191506411719265,-0.0074191506411719265,0.9999724777231439,6.510008883563387,-10.896549974076493)"></polygon><circle r="4" fill="#adb3b3" opacity="0.9" cx="680" cy="1072"></circle></g><g id="Gets current chain and ledger"><polygon points="1368,175.99999999999994 1360,191.99999999999994 1376,191.99999999999994 1368,175.99999999999994" fill="#adb3b3" opacity="1" transform="matrix(6.123233995736766e-17,1,-1,6.123233995736766e-17,1552,-1120)"></polygon><circle r="4" fill="#adb3b3" opacity="1" cx="1168" cy="248"></circle></g><g id="Requests EB bodies and txs"><polygon points="95.80739919945141,736.2541672185181 87.80739919945141,752.2541672185181 103.80739919945141,752.2541672185181 95.80739919945141,736.2541672185181" fill="#adb3b3" opacity="0.9" transform="matrix(0.9999681389248372,-0.007982551922641374,0.007982551922641374,0.9999681389248372,-5.681533790787256,0.5340781695256283)"></polygon><circle r="4" fill="#adb3b3" opacity="0.9" cx="424" cy="1040"></circle></g><g id="Requests blocks"><polygon points="31.864112351767524,528.1825187078216 23.864112351767524,544.1825187078216 39.864112351767524,544.1825187078216 31.864112351767524,528.1825187078216" fill="#adb3b3" opacity="1" transform="matrix(-0.9999838486671949,-0.005683520453426752,0.005683520453426752,-0.9999838486671949,124.86166155566602,1136.3550881904619)"></polygon><circle r="4" fill="#adb3b3" opacity="1" cx="408" cy="208"></circle></g><g id="Requests announcements and offers"><polygon points="223.77871944303035,736.2915695150268 215.77871944303035,752.2915695150268 231.77871944303035,752.2915695150268 223.77871944303035,736.2915695150268" fill="#adb3b3" opacity="0.9" transform="matrix(0.9999580093435564,-0.009164035665143799,0.009164035665143799,0.9999580093435564,-6.516725030683233,1.7900640173871807)"></polygon><circle r="4" fill="#adb3b3" opacity="0.9" cx="424" cy="832"></circle></g><g id="Updates missing bodies/txs"><polygon points="1040,896 1032,912 1048,912 1040,896" fill="#adb3b3" opacity="0.9" transform="matrix(1,0,0,1,0,0)"></polygon><circle r="4" fill="#adb3b3" opacity="0.9" cx="680" cy="1040"></circle></g><g id="Triggers chain selection"><polygon points="1928,415.9999999999999 1920,431.9999999999999 1936,431.9999999999999 1928,415.9999999999999" fill="#adb3b3" opacity="1" transform="matrix(6.123233995736766e-17,1,-1,6.123233995736766e-17,2352,-1440)"></polygon><circle r="4" fill="#adb3b3" opacity="1" cx="1632" cy="488"></circle></g><g id="Validates blocks"><polygon points="2064,312 2056,328 2072,328 2064,312" fill="#adb3b3" opacity="1" transform="matrix(1,0,0,1,0,0)"></polygon><circle r="4" fill="#adb3b3" opacity="1" cx="2064" cy="392"></circle></g><g id="Gets candidates"><polygon points="904,207.99999999999997 896,223.99999999999997 912,223.99999999999997 904,207.99999999999997" fill="#adb3b3" opacity="1" transform="matrix(6.123233995736766e-17,1,-1,6.123233995736766e-17,1120,-624)"></polygon><circle r="4" fill="#adb3b3" opacity="1" cx="680" cy="512"></circle></g><g id="Gets completed EBs to ignore incomplete CertRBs"><polygon points="2064,520 2056,536 2072,536 2064,520" fill="#adb3b3" opacity="0.9" transform="matrix(1,0,0,1,0,0)"></polygon><circle r="4" fill="#adb3b3" opacity="0.9" cx="1632" cy="648"></circle></g><g id="Notifies on completed EB closure"><polygon points="1504,680 1496,696 1512,696 1504,680" fill="#adb3b3" opacity="0.9" transform="matrix(1,0,0,1,0,0)"></polygon><circle r="4" fill="#adb3b3" opacity="0.9" cx="1504" cy="768"></circle></g><g id="Re-trigger chain selection for completed CertRBs"><polygon points="1928.3678099073759,416.4638937293285 1920.3678099073759,432.4638937293285 1936.3678099073759,432.4638937293285 1928.3678099073759,416.4638937293285" fill="#adb3b3" opacity="0.9" transform="matrix(0.0115440355543882,0.9999333654014747,-0.9999333654014747,0.0115440355543882,2330.1749962654612,-1445.0469878888841)"></polygon><circle r="4" fill="#adb3b3" opacity="0.9" cx="1632" cy="616"></circle></g><g id="Gets EB announcing blocks"><polygon points="1576,416.00000000000006 1568,432.00000000000006 1584,432.00000000000006 1576,416.00000000000006" fill="#adb3b3" opacity="0.9" transform="matrix(-1.8369701987210297e-16,-1,1,-1.8369701987210297e-16,1216.0000000000002,2000)"></polygon><circle r="4" fill="#adb3b3" opacity="0.9" cx="1936" cy="424"></circle></g><g id="Adds block with punishment"><polygon points="1368.2128963978498,384.2674995421855 1360.2128963978498,400.2674995421855 1376.2128963978498,400.2674995421855 1368.2128963978498,384.2674995421855" fill="#adb3b3" opacity="1" transform="matrix(0.006669694427237206,0.9999777573407557,-0.9999777573407557,0.006669694427237206,1751.1333904807555,-914.7454105048864)"></polygon><circle r="4" fill="#adb3b3" opacity="1" cx="536" cy="272"></circle></g><g id="Synthesizes offers from CertRB headers"><polygon points="912.2130650927085,687.7191329084633 904.2130650927085,703.7191329084633 920.2130650927085,703.7191329084633 912.2130650927085,687.7191329084633" fill="#adb3b3" opacity="0.9" transform="matrix(-0.9999610520313555,0.008825781571325826,-0.008825781571325826,-0.9999610520313555,1894.2471950963238,1447.6413543862209)"></polygon><circle r="4" fill="#adb3b3" opacity="0.9" cx="680" cy="544"></circle></g><g id="Manages"><polygon points="1440,312 1432,328 1448,328 1440,312" fill="#adb3b3" opacity="1" transform="matrix(-1,1.2246467991473532e-16,-1.2246467991473532e-16,-1,2944,703.9999999999998)"></polygon><circle r="4" fill="#adb3b3" opacity="1" cx="1504" cy="312"></circle></g><g id="Manages"><polygon points="1928,175.9999999999999 1920,191.9999999999999 1936,191.9999999999999 1928,175.9999999999999" fill="#adb3b3" opacity="1" transform="matrix(6.123233995736766e-17,1,-1,6.123233995736766e-17,2112,-1680)"></polygon><circle r="4" fill="#adb3b3" opacity="1" cx="1632" cy="248"></circle></g><g id="Requests block headers"><polygon points="159.7814068450427,528.2949287675425 151.7814068450427,544.2949287675425 167.7814068450427,544.2949287675425 159.7814068450427,528.2949287675425" fill="#adb3b3" opacity="1" transform="matrix(-0.9999580093435564,-0.009164035665143875,0.009164035665143875,-0.9999580093435564,378.93338394994146,1137.7369878276422)"></polygon><circle r="4" fill="#adb3b3" opacity="1" cx="424" cy="512"></circle></g></g></svg>