<svg xmlns="http://www.w3.org/2000/svg" xmlns:xlink="http://www.w3.org/1999/xlink" version="1.1" width="1640" height="1112"><g id="Leios voting"><g id="Outbound mini-protocols"><rect width="352" height="248" rx="8" ry="8" fill-opacity="0.02" fill="#000000" stroke-opacity="1" stroke-width="2" stroke="#cfd2d2" opacity="1" x="80" y="392"></rect><text font-family="IBM Plex Sans Medium, Arial, sans-serif" font-size="15" font-weight="500" fill="#0c0d0d" opacity="1" x="96" y="423.375"><tspan dy="0" x="96">Outbound mini-protocols</tspan></text><g opacity="1"><text font-family="IBM Plex Sans, Arial, sans-serif" font-size="14" text-anchor="middle" fill="#595f61" x="256" y="605.2500000000001"><tspan dy="0" x="256">Protocols run as an Initiator</tspan></text></g><g id="Group" opacity="1"><text font-family="Courier New, monospace" font-size="12" text-anchor="middle" fill="#595f61" x="256" y="628.6552734375"><tspan dy="0" x="256">Group</tspan></text></g></g><g id="Inbound mini-protocols"><rect width="352" height="248" rx="8" ry="8" fill-opacity="0.02" fill="#000000" stroke-opacity="1" stroke-width="2" stroke="#cfd2d2" opacity="1" x="1208" y="376"></rect><text font-family="IBM Plex Sans Medium, Arial, sans-serif" font-size="15" font-weight="500" fill="#0c0d0d" opacity="1" x="1224" y="407.375"><tspan dy="0" x="1224">Inbound mini-protocols</tspan></text><g opacity="1"><text font-family="IBM Plex Sans, Arial, sans-serif" font-size="14" text-anchor="middle" fill="#595f61" x="1384" y="589.2500000000001"><tspan dy="0" x="1384">Protocols run as a Responder</tspan></text></g><g id="Group" opacity="1"><text font-family="Courier New, monospace" font-size="12" text-anchor="middle" fill="#595f61" x="1384" y="612.6552734375"><tspan dy="0" x="1384">Group</tspan></text></g></g><g id="Cardano Node"><rect width="1576" height="896" rx="8" ry="8" fill-opacity="0.02" fill="#000000" stroke-opacity="1" stroke-width="2" stroke="#cfd2d2" opacity="1" x="32" y="32"></rect><text font-family="IBM Plex Sans Medium, Arial, sans-serif" font-size="15" font-weight="500" fill="#0c0d0d" opacity="1" x="48" y="63.375"><tspan dy="0" x="48">Cardano Node</tspan></text><g opacity="1"><text font-family="IBM Plex Sans, Arial, sans-serif" font-size="14" text-anchor="middle" fill="#595f61" x="819.9999999999999" y="893.25"><tspan dy="0" x="819.9999999999999">Generic node with outbound  inbound components, including optional block forging.</tspan></text></g><g id="App" opacity="1"><text font-family="Courier New, monospace" font-size="12" text-anchor="middle" fill="#595f61" x="820" y="916.6552734375"><tspan dy="0" x="820">App</tspan></text></g></g><g id="Notifies on added EB bodies and txs"><polyline points="984,152 1016.48,152.51999999999998 1024.49,154.06999999999994 1032.05,156.57999999999993 1039.1799999999998,160.01 1045.9099999999999,164.31999999999994 1052.25,169.45000000000005 1063.87,181.98000000000002 1069.2,189.28999999999996 1079,205.75 1091.8899999999999,234.31999999999994 1099.55,255.3800000000001 1106.67,277.6099999999999 1129.92,358.96000000000004 1140.45,392.6199999999999 1152.19,423.6600000000001 1161,442.25 1165.76,450.77 1176.13,466.02 1181.77,472.6500000000001 1187.75,478.54999999999995 1194.0900000000001,483.68000000000006 1200.8200000000002,487.99 1207.95,491.4200000000001 1215.51,493.93000000000006 1223.52,495.48 1256,496" fill="none" stroke-width="1" stroke="#adb3b3" opacity="0.9"></polyline></g><g id="Notifies on added EB bodies and txs"><rect width="125.82000000000001" height="38.2" x="1057.0262884061538" y="304.92774459529477" rx="4" ry="4" fill-opacity="0.8" fill="#e5e7e8" stroke-opacity="1" stroke-width="1" stroke="#cfd2d2" opacity="0.8"></rect><g opacity="0.9" fill="#434647"><text font-family="IBM Plex Sans Medium, Arial, sans-serif" font-size="14" text-anchor="middle" x="1119.9362884061538" y="321.2777445952948"><tspan dy="0" x="1119.9362884061538">Notifies on added</tspan></text><text font-family="IBM Plex Sans Medium, Arial, sans-serif" font-size="14" text-anchor="middle" x="1119.9362884061538" y="337.2777445952948"><tspan dy="0" x="1119.9362884061538">EB bodies and txs</tspan></text></g></g><path id="Future" d="M1046.1512884061538 319.15274459529473A1.125 1.125 0 1 0 1043.9012884061538 319.15274459529473A1.125 1.125 0 1 0 1046.1512884061538 319.15274459529473ZM1046.1512884061538 328.90274459529473A1.125 1.125 0 1 0 1043.9012884061538 328.90274459529473A1.125 1.125 0 1 0 1046.1512884061538 328.90274459529473ZM1040.1512884061538 325.15274459529473A1.125 1.125 0 1 0 1040.1512884061538 322.90274459529473A1.125 1.125 0 1 0 1040.1512884061538 325.15274459529473ZM1051.0262884061538 324.02774459529473A1.125 1.125 0 1 0 1048.7762884061538 324.02774459529473A1.125 1.125 0 1 0 1051.0262884061538 324.02774459529473ZM1042.3755071561536 328.26993209529473A1.125 1.125 0 1 0 1040.7841009061538 326.67852584529476A1.125 1.125 0 1 0 1042.3755071561536 328.26993209529473ZM1042.3755071561536 321.37461959529475A1.125 1.125 0 1 0 1040.7841009061538 319.78555709529473A1.125 1.125 0 1 0 1042.3755071561536 321.3769633452947ZM1047.677069656154 328.26993209529473A1.125 1.125 0 1 0 1049.2684759061538 326.67852584529476A1.125 1.125 0 1 0 1047.677069656154 328.26993209529473Z " fill="#c083ea"></path><g id="Subscribes to votes"><polyline points="1256,528 1217.3899999999999,528.3399999999999 1204.19,529.31 1181.54,532.94 1163.06,538.45 1155.0900000000001,541.77 1141.04,549.28 1105.28,574.6600000000001 1092.21,582.5999999999999 1076.94,589.55 1068.1599999999999,592.51 1047.72,597.1400000000001 1035.81,598.69 1022.61,599.6600000000001 984,600" fill="none" stroke-width="1" stroke="#adb3b3" opacity="0.9"></polyline></g><g id="Subscribes to votes"><rect width="137.29999999999998" height="22.2" x="1051.4454964086408" y="553.0449748643372" rx="4" ry="4" fill-opacity="0.8" fill="#e5e7e8" stroke-opacity="1" stroke-width="1" stroke="#cfd2d2" opacity="0.8"></rect><g opacity="0.9" fill="#434647"><text font-family="IBM Plex Sans Medium, Arial, sans-serif" font-size="14" text-anchor="middle" x="1120.0954964086407" y="569.3949748643373"><tspan dy="0" x="1120.0954964086407">Subscribes to votes</tspan></text></g></g><path id="Future" d="M1040.5704964086408 559.2699748643372A1.125 1.125 0 1 0 1038.3204964086408 559.2699748643372A1.125 1.125 0 1 0 1040.5704964086408 559.2699748643372ZM1040.5704964086408 569.0199748643372A1.125 1.125 0 1 0 1038.3204964086408 569.0199748643372A1.125 1.125 0 1 0 1040.5704964086408 569.0199748643372ZM1034.5704964086408 565.2699748643372A1.125 1.125 0 1 0 1034.5704964086408 563.0199748643372A1.125 1.125 0 1 0 1034.5704964086408 565.2699748643372ZM1045.4454964086408 564.1449748643372A1.125 1.125 0 1 0 1043.1954964086408 564.1449748643372A1.125 1.125 0 1 0 1045.4454964086408 564.1449748643372ZM1036.7947151586409 568.3871623643372A1.125 1.125 0 1 0 1035.2033089086408 566.7957561143372A1.125 1.125 0 1 0 1036.7947151586409 568.3871623643372ZM1036.7947151586409 561.4918498643372A1.125 1.125 0 1 0 1035.2033089086408 559.9027873643372A1.125 1.125 0 1 0 1036.7947151586409 561.4941936143372ZM1042.0962776586407 568.3871623643372A1.125 1.125 0 1 0 1043.6876839086408 566.7957561143372A1.125 1.125 0 1 0 1042.0962776586407 568.3871623643372Z " fill="#c083ea"></path><g id="Requests annoncements and offers"><polyline points="256,576 256,600 255.04,621.95 252.32999999999998,642.73 248.09,662.49 242.56,681.3900000000001 232.36,708.47 220.57,734.5 187.43,802.76 180.03,820.4100000000001 173.44,838.6099999999999 165.62,867.27 162.11,887.52 160.24,908.8699999999999 160,944" fill="none" stroke-width="1" stroke="#adb3b3" opacity="0.9"></polyline></g><g id="Requests annoncements and offers"><rect width="134.47199999999998" height="54.2" x="140.9185312859444" y="732.9727186005262" rx="4" ry="4" fill-opacity="0.8" fill="#e5e7e8" stroke-opacity="1" stroke-width="1" stroke="#cfd2d2" opacity="0.8"></rect><g opacity="0.9" fill="#434647"><text font-family="IBM Plex Sans Medium, Arial, sans-serif" font-size="14" text-anchor="middle" x="208.1545312859444" y="749.3227186005261"><tspan dy="0" x="208.1545312859444">Requests</tspan></text><text font-family="IBM Plex Sans Medium, Arial, sans-serif" font-size="14" text-anchor="middle" x="208.1545312859444" y="765.3227186005261"><tspan dy="0" x="208.1545312859444">annoncements and</tspan></text><text font-family="IBM Plex Sans Medium, Arial, sans-serif" font-size="14" text-anchor="middle" x="208.1545312859444" y="781.3227186005261"><tspan dy="0" x="208.1545312859444">offers</tspan></text></g></g><path id="Future" d="M130.0435312859444 755.1977186005262A1.125 1.125 0 1 0 127.7935312859444 755.1977186005262A1.125 1.125 0 1 0 130.0435312859444 755.1977186005262ZM130.0435312859444 764.9477186005262A1.125 1.125 0 1 0 127.7935312859444 764.9477186005262A1.125 1.125 0 1 0 130.0435312859444 764.9477186005262ZM124.0435312859444 761.1977186005262A1.125 1.125 0 1 0 124.0435312859444 758.9477186005262A1.125 1.125 0 1 0 124.0435312859444 761.1977186005262ZM134.9185312859444 760.0727186005262A1.125 1.125 0 1 0 132.6685312859444 760.0727186005262A1.125 1.125 0 1 0 134.9185312859444 760.0727186005262ZM126.2677500359444 764.3149061005262A1.125 1.125 0 1 0 124.6763437859444 762.7234998505262A1.125 1.125 0 1 0 126.2677500359444 764.3149061005262ZM126.2677500359444 757.4195936005261A1.125 1.125 0 1 0 124.6763437859444 755.8305311005262A1.125 1.125 0 1 0 126.2677500359444 757.4219373505262ZM131.5693125359444 764.3149061005262A1.125 1.125 0 1 0 133.1607187859444 762.7234998505262A1.125 1.125 0 1 0 131.5693125359444 764.3149061005262Z " fill="#c083ea"></path><g id="Gets current committee"><polyline points="544,304 544.34,341.6099999999999 545.34,353.68000000000006 547.02,364.29999999999995 549.37,373.55999999999995 552.38,381.53999999999996 556.06,388.3399999999999 560.4,394.03999999999996 565.4100000000001,398.73 571.0699999999999,402.5 577.39,405.44000000000005 584.37,407.6300000000001 592,409.1700000000001 609.23,410.6400000000001 629.06,410.53999999999996 689.9100000000001,408.1400000000001 728,408" fill="none" stroke-width="1" stroke="#adb3b3" opacity="0.9"></polyline></g><g id="Gets current committee"><rect width="91.94" height="38.2" x="549.4794721327455" y="390.36429622954944" rx="4" ry="4" fill-opacity="0.8" fill="#e5e7e8" stroke-opacity="1" stroke-width="1" stroke="#cfd2d2" opacity="0.8"></rect><g opacity="0.9" fill="#434647"><text font-family="IBM Plex Sans Medium, Arial, sans-serif" font-size="14" text-anchor="middle" x="595.4494721327455" y="406.71429622954946"><tspan dy="0" x="595.4494721327455">Gets current</tspan></text><text font-family="IBM Plex Sans Medium, Arial, sans-serif" font-size="14" text-anchor="middle" x="595.4494721327455" y="422.71429622954946"><tspan dy="0" x="595.4494721327455">committee</tspan></text></g></g><path id="Future" d="M538.6044721327455 404.5892962295494A1.125 1.125 0 1 0 536.3544721327455 404.5892962295494A1.125 1.125 0 1 0 538.6044721327455 404.5892962295494ZM538.6044721327455 414.3392962295494A1.125 1.125 0 1 0 536.3544721327455 414.3392962295494A1.125 1.125 0 1 0 538.6044721327455 414.3392962295494ZM532.6044721327455 410.5892962295494A1.125 1.125 0 1 0 532.6044721327455 408.3392962295494A1.125 1.125 0 1 0 532.6044721327455 410.5892962295494ZM543.4794721327455 409.4642962295494A1.125 1.125 0 1 0 541.2294721327455 409.4642962295494A1.125 1.125 0 1 0 543.4794721327455 409.4642962295494ZM534.8286908827455 413.7064837295494A1.125 1.125 0 1 0 533.2372846327455 412.1150774795494A1.125 1.125 0 1 0 534.8286908827455 413.7064837295494ZM534.8286908827455 406.8111712295494A1.125 1.125 0 1 0 533.2372846327455 405.2221087295494A1.125 1.125 0 1 0 534.8286908827455 406.8135149795494ZM540.1302533827455 413.7064837295494A1.125 1.125 0 1 0 541.7216596327455 412.1150774795494A1.125 1.125 0 1 0 540.1302533827455 413.7064837295494Z " fill="#c083ea"></path><g id="Subscribes to completed EB closures"><polyline points="856,344 856,216" fill="none" stroke-width="1" stroke="#adb3b3" opacity="0.9"></polyline></g><g id="Subscribes to completed EB closures"><rect width="101.39" height="54.2" x="805.3050000000001" y="252.9" rx="4" ry="4" fill-opacity="0.8" fill="#e5e7e8" stroke-opacity="1" stroke-width="1" stroke="#cfd2d2" opacity="0.8"></rect><g opacity="0.9" fill="#434647"><text font-family="IBM Plex Sans Medium, Arial, sans-serif" font-size="14" text-anchor="middle" x="856" y="269.25"><tspan dy="0" x="856">Subscribes to</tspan></text><text font-family="IBM Plex Sans Medium, Arial, sans-serif" font-size="14" text-anchor="middle" x="856" y="285.25"><tspan dy="0" x="856">completed EB</tspan></text><text font-family="IBM Plex Sans Medium, Arial, sans-serif" font-size="14" text-anchor="middle" x="856" y="301.25"><tspan dy="0" x="856">closures</tspan></text></g></g><path id="Future" d="M794.4300000000001 275.125A1.125 1.125 0 1 0 792.1800000000001 275.125A1.125 1.125 0 1 0 794.4300000000001 275.125ZM794.4300000000001 284.875A1.125 1.125 0 1 0 792.1800000000001 284.875A1.125 1.125 0 1 0 794.4300000000001 284.875ZM788.4300000000001 281.125A1.125 1.125 0 1 0 788.4300000000001 278.875A1.125 1.125 0 1 0 788.4300000000001 281.125ZM799.3050000000001 280A1.125 1.125 0 1 0 797.0550000000001 280A1.125 1.125 0 1 0 799.3050000000001 280ZM790.65421875 284.2421875A1.125 1.125 0 1 0 789.0628125000001 282.65078125A1.125 1.125 0 1 0 790.65421875 284.2421875ZM790.65421875 277.346875A1.125 1.125 0 1 0 789.0628125000001 275.7578125A1.125 1.125 0 1 0 790.65421875 277.34921875ZM795.9557812500001 284.2421875A1.125 1.125 0 1 0 797.5471875000001 282.65078125A1.125 1.125 0 1 0 795.9557812500001 284.2421875Z " fill="#c083ea"></path><g id="Requests announcements and offers"><polyline points="1480,952 1480,928 1479.14,907.02 1476.71,886.71 1470.52,857.28 1465,838.25 1455.11,810.3699999999999 1443.89,783.05 1412.51,710.79 1402.11,683.1199999999999 1396.12,664.29 1389.04,635.23 1385.89,615.21 1384.22,594.5799999999999 1384,560" fill="none" stroke-width="1" stroke="#adb3b3" opacity="0.9"></polyline></g><g id="Requests announcements and offers"><rect width="115.194" height="54.2" x="1374.523140503861" y="728.8470666924471" rx="4" ry="4" fill-opacity="0.8" fill="#e5e7e8" stroke-opacity="1" stroke-width="1" stroke="#cfd2d2" opacity="0.8"></rect><g opacity="0.9" fill="#434647"><text font-family="IBM Plex Sans Medium, Arial, sans-serif" font-size="14" text-anchor="middle" x="1432.120140503861" y="745.1970666924473"><tspan dy="0" x="1432.120140503861">Requests</tspan></text><text font-family="IBM Plex Sans Medium, Arial, sans-serif" font-size="14" text-anchor="middle" x="1432.120140503861" y="761.1970666924473"><tspan dy="0" x="1432.120140503861">announcements</tspan></text><text font-family="IBM Plex Sans Medium, Arial, sans-serif" font-size="14" text-anchor="middle" x="1432.120140503861" y="777.1970666924473"><tspan dy="0" x="1432.120140503861">and offers</tspan></text></g></g><path id="Future" d="M1363.648140503861 751.0720666924472A1.125 1.125 0 1 0 1361.398140503861 751.0720666924472A1.125 1.125 0 1 0 1363.648140503861 751.0720666924472ZM1363.648140503861 760.8220666924472A1.125 1.125 0 1 0 1361.398140503861 760.8220666924472A1.125 1.125 0 1 0 1363.648140503861 760.8220666924472ZM1357.648140503861 757.0720666924472A1.125 1.125 0 1 0 1357.648140503861 754.8220666924472A1.125 1.125 0 1 0 1357.648140503861 757.0720666924472ZM1368.523140503861 755.9470666924472A1.125 1.125 0 1 0 1366.273140503861 755.9470666924472A1.125 1.125 0 1 0 1368.523140503861 755.9470666924472ZM1359.872359253861 760.1892541924472A1.125 1.125 0 1 0 1358.280953003861 758.5978479424472A1.125 1.125 0 1 0 1359.872359253861 760.1892541924472ZM1359.872359253861 753.2939416924471A1.125 1.125 0 1 0 1358.280953003861 751.7048791924472A1.125 1.125 0 1 0 1359.872359253861 753.2962854424471ZM1365.173921753861 760.1892541924472A1.125 1.125 0 1 0 1366.765328003861 758.5978479424472A1.125 1.125 0 1 0 1365.173921753861 760.1892541924472Z " fill="#c083ea"></path><g id="Adds and validate vote"><polyline points="384,544 408,544 431.01,544.99 452.22,547.78 471.88,552.1199999999999 490.25,557.75 507.59000000000003,564.4100000000001 532.23,575.77 571.79,596.21 596.05,607.95 612.97,615.03 630.79,621.21 649.77,626.23 670.1800000000001,629.8199999999999 692.25,631.75 728,632" fill="none" stroke-width="1" stroke="#adb3b3" opacity="0.9"></polyline></g><g id="Adds and validate vote"><rect width="126.84199999999998" height="38.2" x="492.55882804258493" y="568.9411447216996" rx="4" ry="4" fill-opacity="0.8" fill="#e5e7e8" stroke-opacity="1" stroke-width="1" stroke="#cfd2d2" opacity="0.8"></rect><g opacity="0.9" fill="#434647"><text font-family="IBM Plex Sans Medium, Arial, sans-serif" font-size="14" text-anchor="middle" x="555.9798280425848" y="585.2911447216995"><tspan dy="0" x="555.9798280425848">Adds and validate</tspan></text><text font-family="IBM Plex Sans Medium, Arial, sans-serif" font-size="14" text-anchor="middle" x="555.9798280425848" y="601.2911447216995"><tspan dy="0" x="555.9798280425848">vote</tspan></text></g></g><path id="Future" d="M481.68382804258493 583.1661447216997A1.125 1.125 0 1 0 479.43382804258493 583.1661447216997A1.125 1.125 0 1 0 481.68382804258493 583.1661447216997ZM481.68382804258493 592.9161447216997A1.125 1.125 0 1 0 479.43382804258493 592.9161447216997A1.125 1.125 0 1 0 481.68382804258493 592.9161447216997ZM475.68382804258493 589.1661447216997A1.125 1.125 0 1 0 475.68382804258493 586.9161447216997A1.125 1.125 0 1 0 475.68382804258493 589.1661447216997ZM486.55882804258493 588.0411447216997A1.125 1.125 0 1 0 484.30882804258493 588.0411447216997A1.125 1.125 0 1 0 486.55882804258493 588.0411447216997ZM477.9080467925849 592.2833322216997A1.125 1.125 0 1 0 476.31664054258493 590.6919259716997A1.125 1.125 0 1 0 477.9080467925849 592.2833322216997ZM477.9080467925849 585.3880197216996A1.125 1.125 0 1 0 476.31664054258493 583.7989572216997A1.125 1.125 0 1 0 477.9080467925849 585.3903634716996ZM483.20960929258496 592.2833322216997A1.125 1.125 0 1 0 484.80101554258493 590.6919259716997A1.125 1.125 0 1 0 483.20960929258496 592.2833322216997Z " fill="#c083ea"></path><g id="Adds vote"><polyline points="856,472 856,568" fill="none" stroke-width="1" stroke="#adb3b3" opacity="0.9"></polyline></g><g id="Adds vote"><rect width="75.952" height="22.2" x="818.024" y="508.9" rx="4" ry="4" fill-opacity="0.8" fill="#e5e7e8" stroke-opacity="1" stroke-width="1" stroke="#cfd2d2" opacity="0.8"></rect><g opacity="0.9" fill="#434647"><text font-family="IBM Plex Sans Medium, Arial, sans-serif" font-size="14" text-anchor="middle" x="856" y="525.25"><tspan dy="0" x="856">Adds vote</tspan></text></g></g><path id="Future" d="M807.149 515.125A1.125 1.125 0 1 0 804.899 515.125A1.125 1.125 0 1 0 807.149 515.125ZM807.149 524.875A1.125 1.125 0 1 0 804.899 524.875A1.125 1.125 0 1 0 807.149 524.875ZM801.149 521.125A1.125 1.125 0 1 0 801.149 518.875A1.125 1.125 0 1 0 801.149 521.125ZM812.024 520A1.125 1.125 0 1 0 809.774 520A1.125 1.125 0 1 0 812.024 520ZM803.37321875 524.2421875A1.125 1.125 0 1 0 801.7818125 522.65078125A1.125 1.125 0 1 0 803.37321875 524.2421875ZM803.37321875 517.346875A1.125 1.125 0 1 0 801.7818125 515.7578125A1.125 1.125 0 1 0 803.37321875 517.34921875ZM808.67478125 524.2421875A1.125 1.125 0 1 0 810.2661875 522.65078125A1.125 1.125 0 1 0 808.67478125 524.2421875Z " fill="#c083ea"></path><g id="Gets current committee and threshold param"><polyline points="544,304 544.31,349.45000000000005 546.02,381.8299999999999 549.44,413.95000000000005 554.79,445.25 562.28,475.18000000000006 568.5799999999999,494.0999999999999 580.15,520.52 589.37,536.5699999999999 599.88,551.2 605.63,557.9300000000001 618.1800000000001,570.0999999999999 632.19,580.4200000000001 647.7,588.74 664.8,594.8900000000001 683.54,598.69 704,600 728,600" fill="none" stroke-width="1" stroke="#adb3b3" opacity="0.9"></polyline></g><g id="Gets current committee and threshold param"><rect width="118.21799999999999" height="54.2" x="512.634122500793" y="474.2229642585093" rx="4" ry="4" fill-opacity="0.8" fill="#e5e7e8" stroke-opacity="1" stroke-width="1" stroke="#cfd2d2" opacity="0.8"></rect><g opacity="0.9" fill="#434647"><text font-family="IBM Plex Sans Medium, Arial, sans-serif" font-size="14" text-anchor="middle" x="571.743122500793" y="490.57296425850933"><tspan dy="0" x="571.743122500793">Gets current</tspan></text><text font-family="IBM Plex Sans Medium, Arial, sans-serif" font-size="14" text-anchor="middle" x="571.7431225007928" y="506.5729642585094"><tspan dy="0" x="571.7431225007928">committee and</tspan></text><text font-family="IBM Plex Sans Medium, Arial, sans-serif" font-size="14" text-anchor="middle" x="571.7431225007931" y="522.5729642585094"><tspan dy="0" x="571.7431225007931">threshold param</tspan></text></g></g><path id="Future" d="M501.759122500793 496.4479642585093A1.125 1.125 0 1 0 499.509122500793 496.4479642585093A1.125 1.125 0 1 0 501.759122500793 496.4479642585093ZM501.759122500793 506.1979642585093A1.125 1.125 0 1 0 499.509122500793 506.1979642585093A1.125 1.125 0 1 0 501.759122500793 506.1979642585093ZM495.759122500793 502.4479642585093A1.125 1.125 0 1 0 495.759122500793 500.1979642585093A1.125 1.125 0 1 0 495.759122500793 502.4479642585093ZM506.634122500793 501.3229642585093A1.125 1.125 0 1 0 504.384122500793 501.3229642585093A1.125 1.125 0 1 0 506.634122500793 501.3229642585093ZM497.983341250793 505.5651517585093A1.125 1.125 0 1 0 496.391935000793 503.9737455085093A1.125 1.125 0 1 0 497.983341250793 505.5651517585093ZM497.983341250793 498.6698392585093A1.125 1.125 0 1 0 496.391935000793 497.0807767585093A1.125 1.125 0 1 0 497.983341250793 498.67218300850925ZM503.28490375079303 505.5651517585093A1.125 1.125 0 1 0 504.876310000793 503.9737455085093A1.125 1.125 0 1 0 503.28490375079303 505.5651517585093Z " fill="#c083ea"></path><g id="Gets certificate for point"><polyline points="856,696 856.32,733.1300000000001 857.27,744.9200000000001 858.84,755.4200000000001 861.03,764.71 863.83,772.8499999999999 867.22,779.9200000000001 871.21,785.98 875.78,791.0899999999999 880.92,795.3399999999999 886.62,798.78 892.89,801.48 899.7,803.51 907.05,804.95 923.34,806.29 951.62,805.51 1021.2,800.6199999999999 1072,800" fill="none" stroke-width="1" stroke="#adb3b3" opacity="0.9"></polyline></g><g id="Gets certificate for point"><rect width="131.448" height="38.2" x="856.654610833305" y="787.1109170360115" rx="4" ry="4" fill-opacity="0.8" fill="#e5e7e8" stroke-opacity="1" stroke-width="1" stroke="#cfd2d2" opacity="0.8"></rect><g opacity="0.9" fill="#434647"><text font-family="IBM Plex Sans Medium, Arial, sans-serif" font-size="14" text-anchor="middle" x="922.3786108333051" y="803.4609170360117"><tspan dy="0" x="922.3786108333051">Gets certificate for</tspan></text><text font-family="IBM Plex Sans Medium, Arial, sans-serif" font-size="14" text-anchor="middle" x="922.3786108333051" y="819.4609170360117"><tspan dy="0" x="922.3786108333051">point</tspan></text></g></g><path id="Future" d="M845.779610833305 801.3359170360116A1.125 1.125 0 1 0 843.529610833305 801.3359170360116A1.125 1.125 0 1 0 845.779610833305 801.3359170360116ZM845.779610833305 811.0859170360116A1.125 1.125 0 1 0 843.529610833305 811.0859170360116A1.125 1.125 0 1 0 845.779610833305 811.0859170360116ZM839.779610833305 807.3359170360116A1.125 1.125 0 1 0 839.779610833305 805.0859170360116A1.125 1.125 0 1 0 839.779610833305 807.3359170360116ZM850.654610833305 806.2109170360116A1.125 1.125 0 1 0 848.404610833305 806.2109170360116A1.125 1.125 0 1 0 850.654610833305 806.2109170360116ZM842.003829583305 810.4531045360116A1.125 1.125 0 1 0 840.412423333305 808.8616982860116A1.125 1.125 0 1 0 842.003829583305 810.4531045360116ZM842.003829583305 803.5577920360115A1.125 1.125 0 1 0 840.412423333305 801.9687295360116A1.125 1.125 0 1 0 842.003829583305 803.5601357860115ZM847.305392083305 810.4531045360116A1.125 1.125 0 1 0 848.896798333305 808.8616982860116A1.125 1.125 0 1 0 847.305392083305 810.4531045360116Z " fill="#c083ea"></path><a href="https://app.icepanel.io/landscapes/uXaSNEkX1PFAJr6ppM94/versions/latest/model/objects?object=4iFHWsD9H7&amp;focus=4iFHWsD9H7" id="EBStore" target="_blank"><rect width="256" height="128" rx="8" ry="8" fill-opacity="0.8" fill="#f5f6f6" stroke-opacity="1" stroke-width="1" stroke="#adb3b3" opacity="0.9" x="728" y="88"></rect><text font-family="IBM Plex Sans Medium, Arial, sans-serif" font-size="24" font-weight="500" text-anchor="middle" fill="#0c0d0d" opacity="0.9" x="855.9999999999999" y="139"><tspan dy="0" x="855.9999999999999">EBStore</tspan></text><g opacity="0.9"><text font-family="IBM Plex Sans, Arial, sans-serif" font-size="12" text-anchor="middle" fill="#595f61" x="856" y="165.5"><tspan dy="0" x="856">Stores all known EBs in the immutable and</tspan></text><text font-family="IBM Plex Sans, Arial, sans-serif" font-size="12" text-anchor="middle" fill="#595f61" x="855.9999999999999" y="179.5"><tspan dy="0" x="855.9999999999999">volatile chains, as well as their transactions.</tspan></text></g><g id="Component" opacity="0.9"><text font-family="Courier New, monospace" font-size="12" text-anchor="middle" fill="#595f61" x="856" y="204.6552734375"><tspan dy="0" x="856">Component</tspan></text></g><path id="Future" d="M744.3125 195.3125A1.3125 1.3125 0 1 0 741.6875 195.3125A1.3125 1.3125 0 1 0 744.3125 195.3125ZM744.3125 206.6875A1.3125 1.3125 0 1 0 741.6875 206.6875A1.3125 1.3125 0 1 0 744.3125 206.6875ZM737.3125 202.3125A1.3125 1.3125 0 1 0 737.3125 199.6875A1.3125 1.3125 0 1 0 737.3125 202.3125ZM750 201A1.3125 1.3125 0 1 0 747.375 201A1.3125 1.3125 0 1 0 750 201ZM739.907421875 205.94921875A1.3125 1.3125 0 1 0 738.05078125 204.092578125A1.3125 1.3125 0 1 0 739.907421875 205.94921875ZM739.907421875 197.9046875A1.3125 1.3125 0 1 0 738.05078125 196.05078125A1.3125 1.3125 0 1 0 739.907421875 197.907421875ZM746.092578125 205.94921875A1.3125 1.3125 0 1 0 747.94921875 204.092578125A1.3125 1.3125 0 1 0 746.092578125 205.94921875Z " fill="#c083ea" opacity="1"></path></a><a href="https://app.icepanel.io/landscapes/uXaSNEkX1PFAJr6ppM94/versions/latest/model/objects?object=rlW7JyrszM&amp;focus=rlW7JyrszM" id="Upstream Node" target="_blank"><rect width="256" height="128" rx="8" ry="8" fill-opacity="0.8" fill="#f5f6f6" stroke-opacity="1" stroke-width="1" stroke="#adb3b3" opacity="1" x="32" y="944"></rect><text font-family="IBM Plex Sans Medium, Arial, sans-serif" font-size="24" font-weight="500" text-anchor="middle" fill="#0c0d0d" opacity="1" x="160" y="995.0000000000001"><tspan dy="0" x="160">Upstream Node</tspan></text><g opacity="1"><text font-family="IBM Plex Sans, Arial, sans-serif" font-size="13" text-anchor="middle" fill="#595f61" x="160" y="1021.375"><tspan dy="0" x="160">Isolated role of a Cardano node being an</tspan></text><text font-family="IBM Plex Sans, Arial, sans-serif" font-size="13" text-anchor="middle" fill="#595f61" x="160" y="1036.375"><tspan dy="0" x="160">upstream peer.</tspan></text></g><g id="App" opacity="1"><text font-family="Courier New, monospace" font-size="12" text-anchor="middle" fill="#595f61" x="160" y="1060.6552734375"><tspan dy="0" x="160">App</tspan></text></g></a><a href="https://app.icepanel.io/landscapes/uXaSNEkX1PFAJr6ppM94/versions/latest/model/objects?object=ahInhmiI1U&amp;focus=ahInhmiI1U" id="Leios notify servers" target="_blank"><rect width="256" height="128" rx="8" ry="8" fill-opacity="0.8" fill="#f5f6f6" stroke-opacity="1" stroke-width="1" stroke="#adb3b3" opacity="0.9" x="1256" y="432"></rect><text font-family="IBM Plex Sans Medium, Arial, sans-serif" font-size="24" font-weight="500" text-anchor="middle" fill="#0c0d0d" opacity="0.9" x="1384.0000000000002" y="483"><tspan dy="0" x="1384.0000000000002">Leios notify servers</tspan></text><g opacity="0.9"><text font-family="IBM Plex Sans, Arial, sans-serif" font-size="13" text-anchor="middle" fill="#595f61" x="1384" y="509.375"><tspan dy="0" x="1384">Serves notifications about new blocks an</tspan></text><text font-family="IBM Plex Sans, Arial, sans-serif" font-size="13" text-anchor="middle" fill="#595f61" x="1384" y="524.375"><tspan dy="0" x="1384">offers to serve blocks.</tspan></text></g><g id="Component" opacity="0.9"><text font-family="Courier New, monospace" font-size="12" text-anchor="middle" fill="#595f61" x="1384" y="548.6552734375"><tspan dy="0" x="1384">Component</tspan></text></g><path id="Future" d="M1272.3125 539.3125A1.3125 1.3125 0 1 0 1269.6875 539.3125A1.3125 1.3125 0 1 0 1272.3125 539.3125ZM1272.3125 550.6875A1.3125 1.3125 0 1 0 1269.6875 550.6875A1.3125 1.3125 0 1 0 1272.3125 550.6875ZM1265.3125 546.3125A1.3125 1.3125 0 1 0 1265.3125 543.6875A1.3125 1.3125 0 1 0 1265.3125 546.3125ZM1278 545A1.3125 1.3125 0 1 0 1275.375 545A1.3125 1.3125 0 1 0 1278 545ZM1267.907421875 549.94921875A1.3125 1.3125 0 1 0 1266.05078125 548.092578125A1.3125 1.3125 0 1 0 1267.907421875 549.94921875ZM1267.907421875 541.9046875A1.3125 1.3125 0 1 0 1266.05078125 540.05078125A1.3125 1.3125 0 1 0 1267.907421875 541.907421875ZM1274.092578125 549.94921875A1.3125 1.3125 0 1 0 1275.94921875 548.092578125A1.3125 1.3125 0 1 0 1274.092578125 549.94921875Z " fill="#c083ea" opacity="1"></path></a><a href="https://app.icepanel.io/landscapes/uXaSNEkX1PFAJr6ppM94/versions/latest/model/objects?object=99QxLIcwqP&amp;focus=99QxLIcwqP" id="Chain DB" target="_blank"><rect width="256" height="128" rx="8" ry="8" fill-opacity="0.8" fill="#f5f6f6" stroke-opacity="1" stroke-width="1" stroke="#adb3b3" opacity="1" x="416" y="176"></rect><text font-family="IBM Plex Sans Medium, Arial, sans-serif" font-size="24" font-weight="500" text-anchor="middle" fill="#0c0d0d" opacity="1" x="544" y="226.99999999999997"><tspan dy="0" x="544">Chain DB</tspan></text><g opacity="1"><text font-family="IBM Plex Sans, Arial, sans-serif" font-size="13" text-anchor="middle" fill="#595f61" x="543.9999999999999" y="253.375"><tspan dy="0" x="543.9999999999999">Stores immutable, volatile and ledger</tspan></text><text font-family="IBM Plex Sans, Arial, sans-serif" font-size="13" text-anchor="middle" fill="#595f61" x="544" y="268.375"><tspan dy="0" x="544">state, but also runs chain selection.</tspan></text></g><g id="Component" opacity="1"><text font-family="Courier New, monospace" font-size="12" text-anchor="middle" fill="#595f61" x="544" y="292.6552734375"><tspan dy="0" x="544">Component</tspan></text></g></a><a href="https://app.icepanel.io/landscapes/uXaSNEkX1PFAJr6ppM94/versions/latest/model/objects?object=0UWUcf7xkO&amp;focus=0UWUcf7xkO" id="Downstream Node" target="_blank"><rect width="256" height="128" rx="8" ry="8" fill-opacity="0.8" fill="#f5f6f6" stroke-opacity="1" stroke-width="1" stroke="#adb3b3" opacity="1" x="1352" y="952"></rect><text font-family="IBM Plex Sans Medium, Arial, sans-serif" font-size="24" font-weight="500" text-anchor="middle" fill="#0c0d0d" opacity="1" x="1480" y="1003.0000000000001"><tspan dy="0" x="1480">Downstream Node</tspan></text><g opacity="1"><text font-family="IBM Plex Sans, Arial, sans-serif" font-size="13" text-anchor="middle" fill="#595f61" x="1480" y="1029.375"><tspan dy="0" x="1480">Isolated role of a Cardano node being a</tspan></text><text font-family="IBM Plex Sans, Arial, sans-serif" font-size="13" text-anchor="middle" fill="#595f61" x="1480.0000000000002" y="1044.375"><tspan dy="0" x="1480.0000000000002">downstream peer.</tspan></text></g><g id="App" opacity="1"><text font-family="Courier New, monospace" font-size="12" text-anchor="middle" fill="#595f61" x="1480" y="1068.6552734375"><tspan dy="0" x="1480">App</tspan></text></g></a><a href="https://app.icepanel.io/landscapes/uXaSNEkX1PFAJr6ppM94/versions/latest/model/objects?object=ZOwfKqmmZ3&amp;focus=ZOwfKqmmZ3" id="VoteState" target="_blank"><rect width="256" height="128" rx="8" ry="8" fill-opacity="0.8" fill="#f5f6f6" stroke-opacity="1" stroke-width="1" stroke="#adb3b3" opacity="0.9" x="728" y="568"></rect><text font-family="IBM Plex Sans Medium, Arial, sans-serif" font-size="24" font-weight="500" text-anchor="middle" fill="#0c0d0d" opacity="0.9" x="856.0000000000001" y="619.0000000000001"><tspan dy="0" x="856.0000000000001">VoteState</tspan></text><g opacity="0.9"><text font-family="IBM Plex Sans, Arial, sans-serif" font-size="10" text-anchor="middle" fill="#595f61" x="856.0000000000001" y="639.75"><tspan dy="0" x="856.0000000000001">Keeps track of valid votes. Upon meeting the</tspan></text><text font-family="IBM Plex Sans, Arial, sans-serif" font-size="10" text-anchor="middle" fill="#595f61" x="856" y="651.75"><tspan dy="0" x="856">threshold, it aggregates votes and holds on to a</tspan></text><text font-family="IBM Plex Sans, Arial, sans-serif" font-size="10" text-anchor="middle" fill="#595f61" x="856" y="663.75"><tspan dy="0" x="856">certificate.</tspan></text></g><g id="Component" opacity="0.9"><text font-family="Courier New, monospace" font-size="12" text-anchor="middle" fill="#595f61" x="856" y="684.6552734375"><tspan dy="0" x="856">Component</tspan></text></g><path id="Future" d="M744.3125 675.3125A1.3125 1.3125 0 1 0 741.6875 675.3125A1.3125 1.3125 0 1 0 744.3125 675.3125ZM744.3125 686.6875A1.3125 1.3125 0 1 0 741.6875 686.6875A1.3125 1.3125 0 1 0 744.3125 686.6875ZM737.3125 682.3125A1.3125 1.3125 0 1 0 737.3125 679.6875A1.3125 1.3125 0 1 0 737.3125 682.3125ZM750 681A1.3125 1.3125 0 1 0 747.375 681A1.3125 1.3125 0 1 0 750 681ZM739.907421875 685.94921875A1.3125 1.3125 0 1 0 738.05078125 684.092578125A1.3125 1.3125 0 1 0 739.907421875 685.94921875ZM739.907421875 677.9046875A1.3125 1.3125 0 1 0 738.05078125 676.05078125A1.3125 1.3125 0 1 0 739.907421875 677.907421875ZM746.092578125 685.94921875A1.3125 1.3125 0 1 0 747.94921875 684.092578125A1.3125 1.3125 0 1 0 746.092578125 685.94921875Z " fill="#c083ea" opacity="1"></path></a><a href="https://app.icepanel.io/landscapes/uXaSNEkX1PFAJr6ppM94/versions/latest/model/objects?object=uWQ4Na2xDB&amp;focus=uWQ4Na2xDB" id="Leios voting" target="_blank"><rect width="256" height="128" rx="8" ry="8" fill-opacity="0.8" fill="#f5f6f6" stroke-opacity="1" stroke-width="1" stroke="#adb3b3" opacity="0.9" x="728" y="344"></rect><text font-family="IBM Plex Sans Medium, Arial, sans-serif" font-size="24" font-weight="500" text-anchor="middle" fill="#0c0d0d" opacity="0.9" x="856" y="395"><tspan dy="0" x="856">Leios voting</tspan></text><g opacity="0.9"><text font-family="IBM Plex Sans, Arial, sans-serif" font-size="13" text-anchor="middle" fill="#595f61" x="856" y="421.37499999999994"><tspan dy="0" x="856">Thread that issues votes on valid EBs on</tspan></text><text font-family="IBM Plex Sans, Arial, sans-serif" font-size="13" text-anchor="middle" fill="#595f61" x="856" y="436.37499999999994"><tspan dy="0" x="856">time</tspan></text></g><g id="Component" opacity="0.9"><text font-family="Courier New, monospace" font-size="12" text-anchor="middle" fill="#595f61" x="856" y="460.6552734375"><tspan dy="0" x="856">Component</tspan></text></g><path id="Future" d="M744.3125 451.3125A1.3125 1.3125 0 1 0 741.6875 451.3125A1.3125 1.3125 0 1 0 744.3125 451.3125ZM744.3125 462.6875A1.3125 1.3125 0 1 0 741.6875 462.6875A1.3125 1.3125 0 1 0 744.3125 462.6875ZM737.3125 458.3125A1.3125 1.3125 0 1 0 737.3125 455.6875A1.3125 1.3125 0 1 0 737.3125 458.3125ZM750 457A1.3125 1.3125 0 1 0 747.375 457A1.3125 1.3125 0 1 0 750 457ZM739.907421875 461.94921875A1.3125 1.3125 0 1 0 738.05078125 460.092578125A1.3125 1.3125 0 1 0 739.907421875 461.94921875ZM739.907421875 453.9046875A1.3125 1.3125 0 1 0 738.05078125 452.05078125A1.3125 1.3125 0 1 0 739.907421875 453.907421875ZM746.092578125 461.94921875A1.3125 1.3125 0 1 0 747.94921875 460.092578125A1.3125 1.3125 0 1 0 746.092578125 461.94921875Z " fill="#c083ea" opacity="1"></path></a><a href="https://app.icepanel.io/landscapes/uXaSNEkX1PFAJr6ppM94/versions/latest/model/objects?object=3tqa53jrJR&amp;focus=3tqa53jrJR" id="Leios notify clients" target="_blank"><rect width="256" height="128" rx="8" ry="8" fill-opacity="0.8" fill="#f5f6f6" stroke-opacity="1" stroke-width="1" stroke="#adb3b3" opacity="0.9" x="128" y="448"></rect><text font-family="IBM Plex Sans Medium, Arial, sans-serif" font-size="24" font-weight="500" text-anchor="middle" fill="#0c0d0d" opacity="0.9" x="255.99999999999997" y="499"><tspan dy="0" x="255.99999999999997">Leios notify clients</tspan></text><g opacity="0.9"><text font-family="IBM Plex Sans, Arial, sans-serif" font-size="13" text-anchor="middle" fill="#595f61" x="256" y="525.375"><tspan dy="0" x="256">Clients that get notified about block</tspan></text><text font-family="IBM Plex Sans, Arial, sans-serif" font-size="13" text-anchor="middle" fill="#595f61" x="256" y="540.375"><tspan dy="0" x="256">announcements and offers.</tspan></text></g><g id="Component" opacity="0.9"><text font-family="Courier New, monospace" font-size="12" text-anchor="middle" fill="#595f61" x="256" y="564.6552734375"><tspan dy="0" x="256">Component</tspan></text></g><path id="Future" d="M144.3125 555.3125A1.3125 1.3125 0 1 0 141.6875 555.3125A1.3125 1.3125 0 1 0 144.3125 555.3125ZM144.3125 566.6875A1.3125 1.3125 0 1 0 141.6875 566.6875A1.3125 1.3125 0 1 0 144.3125 566.6875ZM137.3125 562.3125A1.3125 1.3125 0 1 0 137.3125 559.6875A1.3125 1.3125 0 1 0 137.3125 562.3125ZM150 561A1.3125 1.3125 0 1 0 147.375 561A1.3125 1.3125 0 1 0 150 561ZM139.907421875 565.94921875A1.3125 1.3125 0 1 0 138.05078125 564.092578125A1.3125 1.3125 0 1 0 139.907421875 565.94921875ZM139.907421875 557.9046875A1.3125 1.3125 0 1 0 138.05078125 556.05078125A1.3125 1.3125 0 1 0 139.907421875 557.907421875ZM146.092578125 565.94921875A1.3125 1.3125 0 1 0 147.94921875 564.092578125A1.3125 1.3125 0 1 0 146.092578125 565.94921875Z " fill="#c083ea" opacity="1"></path></a><a href="https://app.icepanel.io/landscapes/uXaSNEkX1PFAJr6ppM94/versions/latest/model/objects?object=MRnGUgcxBT&amp;focus=MRnGUgcxBT" id="Block forging" target="_blank"><rect width="256" height="128" rx="8" ry="8" fill-opacity="0.8" fill="#f5f6f6" stroke-opacity="1" stroke-width="1" stroke="#adb3b3" opacity="0.9" x="1072" y="736"></rect><text font-family="IBM Plex Sans Medium, Arial, sans-serif" font-size="24" font-weight="500" text-anchor="middle" fill="#0c0d0d" opacity="0.9" x="1200" y="787.0000000000001"><tspan dy="0" x="1200">Block forging</tspan></text><g opacity="0.9"><text font-family="IBM Plex Sans, Arial, sans-serif" font-size="10" text-anchor="middle" fill="#595f61" x="1200" y="813.75"><tspan dy="0" x="1200">Determines whether node is leader and once active</tspan></text><text font-family="IBM Plex Sans, Arial, sans-serif" font-size="10" text-anchor="middle" fill="#595f61" x="1199.9999999999998" y="825.75"><tspan dy="0" x="1199.9999999999998">creates blocks from mempool transactions.</tspan></text></g><g id="Component" opacity="0.9"><text font-family="Courier New, monospace" font-size="12" text-anchor="middle" fill="#595f61" x="1200" y="852.6552734375"><tspan dy="0" x="1200">Component</tspan></text></g><path id="Future" d="M1088.3125 843.3125A1.3125 1.3125 0 1 0 1085.6875 843.3125A1.3125 1.3125 0 1 0 1088.3125 843.3125ZM1088.3125 854.6875A1.3125 1.3125 0 1 0 1085.6875 854.6875A1.3125 1.3125 0 1 0 1088.3125 854.6875ZM1081.3125 850.3125A1.3125 1.3125 0 1 0 1081.3125 847.6875A1.3125 1.3125 0 1 0 1081.3125 850.3125ZM1094 849A1.3125 1.3125 0 1 0 1091.375 849A1.3125 1.3125 0 1 0 1094 849ZM1083.907421875 853.94921875A1.3125 1.3125 0 1 0 1082.05078125 852.092578125A1.3125 1.3125 0 1 0 1083.907421875 853.94921875ZM1083.907421875 845.9046875A1.3125 1.3125 0 1 0 1082.05078125 844.05078125A1.3125 1.3125 0 1 0 1083.907421875 845.907421875ZM1090.092578125 853.94921875A1.3125 1.3125 0 1 0 1091.94921875 852.092578125A1.3125 1.3125 0 1 0 1090.092578125 853.94921875Z " fill="#c083ea" opacity="1"></path></a><g id="Notifies on added EB bodies and txs"><polygon points="1247.4846751803195,423.36378822466526 1239.4846751803195,439.36378822466526 1255.4846751803195,439.36378822466526 1247.4846751803195,423.36378822466526" fill="#adb3b3" opacity="0.9" transform="matrix(-0.016007800825510822,0.9998718669473258,-0.9998718669473258,-0.016007800825510822,1699.2790275432517,-744.5477079620903)"></polygon><circle r="4" fill="#adb3b3" opacity="0.9" cx="984" cy="152"></circle></g><g id="Subscribes to votes"><polygon points="927.7191491388515,591.6465326438419 919.7191491388515,607.6465326438419 935.7191491388515,607.6465326438419 927.7191491388515,591.6465326438419" fill="#adb3b3" opacity="0.9" transform="matrix(-0.008805667391403128,-0.9999612293593148,0.9999612293593148,-0.008805667391403128,400.54559213124,1532.893023452802)"></polygon><circle r="4" fill="#adb3b3" opacity="0.9" cx="1256" cy="528"></circle></g><g id="Requests annoncements and offers"><polygon points="95.83678814356514,864.2195448937936 87.83678814356514,880.2195448937936 103.83678814356514,880.2195448937936 95.83678814356514,864.2195448937936" fill="#adb3b3" opacity="0.9" transform="matrix(-0.999976664291769,-0.006831608295759555,0.006831608295759555,-0.999976664291769,249.93054231198525,1808.8540971155671)"></polygon><circle r="4" fill="#adb3b3" opacity="0.9" cx="256" cy="576"></circle></g><g id="Gets current committee"><polygon points="720.1174532673383,336.147235369464 712.1174532673383,352.147235369464 728.1174532673383,352.147235369464 720.1174532673383,336.147235369464" fill="#adb3b3" opacity="0.9" transform="matrix(0.0036754805554194275,0.9999932453985311,-0.9999932453985311,0.0036754805554194275,1061.4981871317518,-313.3480917882891)"></polygon><circle r="4" fill="#adb3b3" opacity="0.9" cx="544" cy="304"></circle></g><g id="Subscribes to completed EB closures"><polygon points="856,216 848,232 864,232 856,216" fill="#adb3b3" opacity="0.9" transform="matrix(1,0,0,1,0,0)"></polygon><circle r="4" fill="#adb3b3" opacity="0.9" cx="856" cy="344"></circle></g><g id="Requests announcements and offers"><polygon points="1383.8466660811162,560.2027722764519 1375.8466660811162,576.2027722764519 1391.8466660811162,576.2027722764519 1383.8466660811162,560.2027722764519" fill="#adb3b3" opacity="0.9" transform="matrix(0.9999797627170187,-0.006361930242850979,0.006361930242850979,0.9999797627170187,-3.382631743606453,8.612500661987383)"></polygon><circle r="4" fill="#adb3b3" opacity="0.9" cx="1480" cy="952"></circle></g><g id="Adds and validate vote"><polygon points="719.7756424433522,559.7210689651429 711.7756424433522,575.7210689651429 727.7756424433522,575.7210689651429 719.7756424433522,559.7210689651429" fill="#adb3b3" opacity="0.9" transform="matrix(-0.00699283601275039,0.9999755498233438,-0.9999755498233438,-0.00699283601275039,1292.7406567197067,-83.84400615358709)"></polygon><circle r="4" fill="#adb3b3" opacity="0.9" cx="384" cy="544"></circle></g><g id="Adds vote"><polygon points="791.9999999999999,488 783.9999999999999,504 799.9999999999999,504 791.9999999999999,488" fill="#adb3b3" opacity="0.9" transform="matrix(-1,1.2246467991473532e-16,-1.2246467991473532e-16,-1,1648,1056)"></polygon><circle r="4" fill="#adb3b3" opacity="0.9" cx="856" cy="472"></circle></g><g id="Gets current committee and threshold param"><polygon points="720,528 712,544 728,544 720,528" fill="#adb3b3" opacity="0.9" transform="matrix(6.123233995736766e-17,1,-1,6.123233995736766e-17,1256,-120)"></polygon><circle r="4" fill="#adb3b3" opacity="0.9" cx="544" cy="304"></circle></g><g id="Gets certificate for point"><polygon points="1064.388734833107,728.4905356398194 1056.388734833107,744.4905356398194 1072.388734833107,744.4905356398194 1064.388734833107,728.4905356398194" fill="#adb3b3" opacity="0.9" transform="matrix(0.01220381553180125,0.9999255306703924,-0.9999255306703924,0.01220381553180125,1787.4466816639742,-273.19983463119354)"></polygon><circle r="4" fill="#adb3b3" opacity="0.9" cx="856" cy="696"></circle></g></g></svg>