<?xml version="1.0" encoding="UTF-8" standalone="no"?>
<!-- Created with Inkscape (http://www.inkscape.org/) -->

<svg
   version="1.1"
   id="svg1"
   width="1536"
   height="1024"
   viewBox="0 0 1536 1024"
   xmlns="http://www.w3.org/2000/svg"
   xmlns:svg="http://www.w3.org/2000/svg">
  <defs
     id="defs1" />
  <g
     id="g1">
    <path
       style="fill:#fff6d5"
       d="m 1272.0523,395.29412 -8.366,84.07843 -39.7386,-49.35948 -7.1111,72.36601 -44.7582,-49.77777 -6.6928,69.43791 -38.0653,-40.99347 -5.8562,65.2549 -54.7974,-13.80392 104.1568,-119.21568 z"
       id="path2" />
    <path
       style="fill:#fff6d5"
       d="m 1118.1176,620.33987 30.536,-26.35294 10.0392,40.15686 36.3922,-36.39216 13.3856,48.94118 35.1372,-49.77778 18.8236,44.75817 33.464,-54.37908 12.9673,80.31372 -182.7973,-28.86274 z"
       id="path3" />
    <path
       style="fill:#ff0000"
       d="m 746.42483,890.60044 c -6.78367,-0.5387 -7.27961,-0.8374 -5.77265,-3.4771 0.69996,-1.2261 2.50807,-3.5988 4.01802,-5.2727 1.50996,-1.6739 2.74746,-3.3578 2.75,-3.7419 0.003,-0.3842 1.16073,-1.946 2.57375,-3.4706 1.41302,-1.5247 2.81927,-4.0229 3.125,-5.5516 0.30573,-1.5286 0.91931,-2.7794 1.36349,-2.7794 0.44419,0 1.11971,-1.0125 1.50115,-2.25 0.38145,-1.2375 1.98678,-4.0261 3.56739,-6.197 1.58062,-2.1708 2.87385,-4.7905 2.87385,-5.8214 0,-1.0309 0.675,-2.5494 1.5,-3.3744 0.825,-0.825 1.5,-2.3128 1.5,-3.3061 0,-0.9934 0.675,-2.3664 1.5,-3.0511 0.825,-0.6846 1.5,-2.1219 1.5,-3.1938 0,-1.072 0.675,-2.624 1.5,-3.449 0.825,-0.825 1.51431,-2.4804 1.5318,-3.6786 0.0175,-1.1982 0.6925,-3.0521 1.5,-4.1197 0.80751,-1.0676 1.4682,-3.0122 1.4682,-4.3214 0,-1.3092 0.675,-3.0553 1.5,-3.8803 0.825,-0.825 1.5,-3.075 1.5,-5 0,-1.925 0.675,-4.175 1.5,-5 0.825,-0.825 1.51431,-2.9304 1.5318,-4.6786 0.0175,-1.7482 0.6925,-4.0521 1.5,-5.1197 2.84412,-3.7602 1.15495,-15.5589 -2.2275,-15.5589 -0.75607,0 -2.44915,-0.704 -3.7624,-1.5645 -1.31325,-0.8604 -5.45992,-1.9994 -9.21482,-2.5309 -6.05742,-0.8576 -17.13542,-3.3916 -25.82708,-5.9079 -1.65,-0.4777 -7.275,-2.03236 -12.5,-3.45486 -5.225,-1.4225 -10.4,-2.99498 -11.5,-3.4944 -1.1,-0.49943 -3.6118,-1.39931 -5.58177,-1.99975 -1.96998,-0.60044 -5.32763,-1.98179 -7.46144,-3.06967 -2.13382,-1.08788 -4.5286,-1.97797 -5.32174,-1.97797 -1.68333,0 -9.83409,-3.59463 -19.32903,-8.52445 -3.6817,-1.91155 -7.2817,-3.48159 -8,-3.48896 -0.71831,-0.007 -2.43102,-0.91144 -3.80602,-2.00902 -4.64292,-3.70617 -9.49019,-6.97941 -11.25,-7.59684 -0.9625,-0.3377 -1.75,-1.01151 -1.75,-1.49736 0,-0.48585 -0.675,-0.88337 -1.5,-0.88337 -0.825,0 -1.5,-0.45 -1.5,-1 0,-0.55 -0.675,-1 -1.5,-1 -0.825,0 -1.5,-0.44468 -1.5,-0.98818 0,-0.5435 -1.8302,-1.28085 -4.06711,-1.63854 -2.23691,-0.3577 -4.67977,-1.26302 -5.42857,-2.01182 -1.86394,-1.86394 -2.1929,-1.73839 -2.90772,1.10968 -0.34112,1.35912 -1.5149,2.94995 -2.60841,3.53518 -1.0935,0.58523 -1.98819,1.73734 -1.98819,2.56025 0,0.82291 -0.675,1.75522 -1.5,2.0718 -0.825,0.31659 -1.5,1.15432 -1.5,1.86163 0,0.70731 -0.675,1.54504 -1.5,1.86163 -0.825,0.31658 -1.5,1.01195 -1.5,1.54527 0,0.53331 -1.35,2.44772 -3,4.25424 -1.65,1.80652 -3,3.60848 -3,4.00434 0,1.68863 -12.86106,13.76612 -16.75,15.7295 -2.3375,1.18012 -4.25,2.58652 -4.25,3.12534 0,0.53883 -0.47469,0.97968 -1.05487,0.97968 -0.58018,0 -3.61768,1.72615 -6.75,3.83595 -6.22275,4.1913 -18.35081,10.164 -20.63878,10.164 -0.79107,0 -1.69503,0.4154 -2.0088,0.9231 -0.31377,0.5077 -2.02782,1.2369 -3.80902,1.6204 -1.78119,0.3836 -4.42331,1.3025 -5.87138,2.0421 -1.44806,0.7395 -4.14806,1.6094 -6,1.933 -1.85193,0.3237 -5.27135,1.0657 -7.5987,1.649 -2.32735,0.5833 -4.91485,0.7984 -5.75,0.4779 -1.94766,-0.7474 -1.95823,-4.3485 -0.0185,-6.2883 0.825,-0.825 1.5,-2.7628 1.5,-4.3061 0,-1.5434 0.675,-3.3664 1.5,-4.0511 0.86994,-0.7219 1.5,-2.9036 1.5,-5.1938 0,-2.1769 0.67313,-4.62213 1.5,-5.44901 1.25287,-1.25287 1.5,-5.59524 1.5,-26.35714 0,-20.7619 -0.24713,-25.10427 -1.5,-26.35714 -0.82687,-0.82688 -1.5,-3.27211 -1.5,-5.44899 0,-2.29025 -0.63006,-4.47188 -1.5,-5.19387 -0.825,-0.68469 -1.5,-2.70969 -1.5,-4.5 0,-1.79031 -0.675,-3.81531 -1.5,-4.5 -0.825,-0.68469 -1.5,-2.53979 -1.5,-4.12244 5e-5,-1.89116 -0.51413,-2.87756 -1.49995,-2.87756 -0.825,0 -1.5,-0.86786 -1.5,-1.92857 0,-1.06072 -0.675,-2.60357 -1.5,-3.42857 -0.825,-0.825 -1.5,-1.79133 -1.5,-2.14739 0,-0.82365 -8.76066,-12.41072 -11.17809,-14.78443 -2.30982,-2.26803 -2.34585,-5.3039 -0.0719,-6.05853 0.9625,-0.31941 3.55,-1.27402 5.75,-2.12136 3.01239,-1.16023 18.70253,-4.53115 21.09051,-4.53115 0.1807,0 1.47175,-1.2329 2.86901,-2.73978 2.82312,-3.04461 3.34599,-7.01388 1.04047,-7.89859 -0.825,-0.31659 -1.5,-1.21659 -1.5,-2 0,-0.78342 -0.675,-1.68342 -1.5,-2 -0.825,-0.31659 -1.5,-1.10218 -1.5,-1.74576 0,-0.64358 -1.35,-2.64821 -3,-4.45473 -1.65,-1.80652 -3,-3.55894 -3,-3.89428 0,-0.33533 -2.025,-2.54999 -4.5,-4.92145 -2.475,-2.37147 -4.5,-4.58341 -4.5,-4.91542 0,-0.72872 -9.14206,-9.57327 -14.91538,-14.42999 -2.2883,-1.925 -6.95596,-5.02026 -10.37258,-6.87835 -3.41662,-1.8581 -7.76969,-4.2206 -9.67348,-5.25 -1.90379,-1.02941 -4.687,-1.87165 -6.1849,-1.87165 -1.4979,0 -3.98888,-0.48111 -5.53551,-1.06914 -4.37309,-1.66264 -19.70552,2.55236 -22.84154,6.27931 -1.29112,1.53441 -2.67427,2.78983 -3.07366,2.78983 -1.16215,0 -7.40131,7.37522 -7.40217,8.75 -4.3e-4,0.6875 -0.44221,1.25 -0.98173,1.25 -0.53952,0 -1.27344,1.16539 -1.63093,2.58976 -0.3575,1.42437 -1.74718,3.77364 -3.08818,5.22061 -1.341,1.44696 -2.68257,3.8528 -2.98128,5.34631 -0.2987,1.4935 -1.16759,2.95511 -1.93087,3.24801 -0.76329,0.2929 -1.38779,1.17352 -1.38779,1.95694 0,0.78341 -0.675,1.68341 -1.5,2 -0.825,0.31658 -1.5,1.43462 -1.5,2.48454 0,1.04992 -0.675,2.46914 -1.5,3.15383 -0.825,0.68469 -1.5,1.61202 -1.5,2.06073 0,0.44871 -1.35,2.29389 -3,4.10041 -1.65,1.80652 -3,3.81115 -3,4.45473 0,0.64358 -0.675,1.42917 -1.5,1.74576 -0.825,0.31658 -1.5,1.2989 -1.5,2.18294 0,0.88404 -2.025,4.23898 -4.5,7.45543 -2.475,3.21645 -4.5,6.12626 -4.5,6.46625 0,0.74213 -1.85089,3.06178 -4.25,5.32636 -0.9625,0.90853 -1.75,2.17872 -1.75,2.82264 0,0.64393 -0.675,1.42979 -1.5,1.74638 -0.825,0.31658 -1.5,1.07051 -1.5,1.67541 0,0.6049 -2.025,3.04004 -4.5,5.41143 -2.475,2.37139 -4.5,4.62139 -4.5,5 0,0.37861 -2.025,2.62861 -4.5,5 -2.475,2.37139 -4.5,4.73956 -4.5,5.2626 0,0.52303 -1.2375,1.57728 -2.75,2.34278 -1.5125,0.76549 -5.77805,4.44153 -9.479,8.16898 -3.70095,3.72744 -7.15095,6.77717 -7.66666,6.77717 -0.51572,0 -1.08767,0.41725 -1.27101,0.92722 -0.18333,0.50997 -5.28333,3.94631 -11.33333,7.6363 -6.05,3.69 -12.07386,7.77275 -13.38636,9.07278 -1.3125,1.30004 -3,2.3637 -3.75,2.3637 -0.75,0 -1.36364,0.40122 -1.36364,0.89159 0,0.49038 -1.23043,1.20041 -2.73428,1.57785 -1.50385,0.37745 -4.99135,1.70507 -7.75,2.95028 -6.41337,2.89489 -23.23768,8.01816 -31.07592,9.46311 -7.37332,1.35924 -21.4398,1.47484 -21.4398,0.17619 0,-0.51754 0.45,-1.2191 1,-1.55902 0.55,-0.33992 1,-1.66833 1,-2.95203 0,-1.2837 0.675,-2.59301 1.5,-2.9096 0.825,-0.31658 1.51431,-1.37722 1.5318,-2.35699 0.0175,-0.97976 0.6925,-2.65489 1.5,-3.72251 0.80751,-1.06762 1.48251,-2.86762 1.5,-4 0.0175,-1.13238 0.6925,-2.93238 1.5,-4 0.80751,-1.06762 1.4682,-3.15698 1.4682,-4.64301 0,-1.48604 0.675,-2.9609 1.5,-3.27749 0.90109,-0.34578 1.5127,-1.88577 1.5318,-3.85699 0.0175,-1.80476 0.6925,-4.15489 1.5,-5.22251 0.80751,-1.06762 1.4682,-3.23726 1.4682,-4.82143 0,-1.58416 0.675,-3.5553 1.5,-4.3803 0.825,-0.825 1.51431,-2.93035 1.5318,-4.67857 0.0175,-1.74821 0.6925,-4.05208 1.5,-5.1197 0.80751,-1.06762 1.4682,-3.46226 1.4682,-5.32143 0,-1.85916 0.675,-4.0553 1.5,-4.8803 0.8408,-0.8408 1.51398,-3.33633 1.5318,-5.67857 0.0175,-2.29821 0.6925,-5.05208 1.5,-6.1197 0.80751,-1.06762 1.48251,-3.99262 1.5,-6.5 0.0175,-2.50738 0.6925,-5.43238 1.5,-6.5 0.87002,-1.15026 1.48116,-4.20597 1.5,-7.5 0.0189,-3.29403 0.62999,-6.34974 1.5,-7.5 1.11857,-1.47887 1.4682,-5.08132 1.4682,-15.12755 0,-10.50132 0.30544,-13.43992 1.5,-14.43132 1.18504,-0.98349 1.50668,-3.89638 1.5318,-13.87244 0.024,-9.51603 0.39358,-13.10587 1.5,-14.56869 1.01971,-1.34818 1.4682,-4.50103 1.4682,-10.32143 0,-6.11582 0.40532,-8.78562 1.5,-9.8803 0.8408,-0.8408 1.51398,-3.33633 1.5318,-5.67857 0.0175,-2.29821 0.6925,-5.05208 1.5,-6.1197 0.80751,-1.06762 1.4682,-3.91226 1.4682,-6.32143 0,-2.56026 0.62326,-5.00355 1.5,-5.8803 0.825,-0.825 1.51431,-2.70535 1.5318,-4.17857 0.0175,-1.47321 0.6925,-3.55208 1.5,-4.6197 1.82014,-2.40644 1.92447,-9.95433 0.16225,-11.73744 -0.71828,-0.72679 -1.60416,-2.10893 -1.96862,-3.07143 -0.36446,-0.9625 -1.12678,-1.75 -1.69405,-1.75 -0.56726,0 -1.03138,-0.86786 -1.03138,-1.92857 0,-1.06072 -0.675,-2.60357 -1.5,-3.42857 -0.825,-0.825 -1.5,-2.44065 -1.5,-3.59033 0,-1.14968 -1.35,-4.62016 -3,-7.71219 -1.65,-3.09203 -3,-6.87639 -3,-8.40968 0,-1.53329 -0.675,-3.4628 -1.5,-4.2878 -0.825,-0.825 -1.5,-2.625 -1.5,-4 0,-1.375 -0.675,-3.175 -1.5,-4 -0.825,-0.825 -1.5,-3.075 -1.5,-5 0,-1.925 -0.675,-4.175 -1.5,-5 -0.82687,-0.82688 -1.5,-3.27211 -1.5,-5.44899 0,-2.29025 -0.63006,-4.47188 -1.5,-5.19387 -0.94286,-0.7825 -1.5,-2.98555 -1.5,-5.93132 0,-2.57753 -0.66069,-5.55993 -1.4682,-6.62755 -0.8075,-1.06762 -1.4825,-3.99262 -1.5,-6.5 -0.0175,-2.50738 -0.69249,-5.43238 -1.5,-6.5 -0.91252,-1.20646 -1.48023,-4.27957 -1.5,-8.1197 -0.0212,-4.12342 -0.53074,-6.67751 -1.5318,-7.67857 -1.02564,-1.02564 -1.5,-3.55556 -1.5,-8 0,-4.44445 -0.47436,-6.97436 -1.5,-8 -1.04552,-1.04552 -1.5,-3.60545 -1.5,-8.44899 0,-4.95692 -0.43,-7.30585 -1.5,-8.19387 -0.98846,-0.82035 -1.5,-3.05441 -1.5,-6.55102 0,-3.38322 -0.54359,-5.84971 -1.5,-6.80612 -0.825,-0.825 -1.5,-3.24614 -1.5,-5.3803 0,-2.13417 -0.66069,-4.75381 -1.4682,-5.82143 -0.8075,-1.06762 -1.4825,-3.34853 -1.5,-5.06869 -0.0175,-1.72015 -0.7068,-3.68775 -1.5318,-4.37244 -0.825,-0.68469 -1.5,-2.48469 -1.5,-4 0,-1.51531 -0.675,-3.31531 -1.5,-4 -0.825,-0.68469 -1.5,-2.28265 -1.5,-3.55102 0,-1.26837 -0.675,-2.98112 -1.5,-3.80612 -0.825,-0.825 -1.5,-2.44627 -1.5,-3.60282 0,-1.15654 -0.675,-2.36183 -1.5,-2.67841 -0.825,-0.31659 -1.5,-1.59736 -1.5,-2.84617 0,-1.24882 -0.63085,-2.79413 -1.40189,-3.43403 -0.77103,-0.63991 -1.67961,-2.27001 -2.01905,-3.62245 -0.33944,-1.35244 -1.05859,-2.45898 -1.59811,-2.45898 -0.53952,0 -0.98095,-0.83115 -0.98095,-1.84699 0,-1.62947 -0.82676,-2.93411 -4.98146,-7.8608 -0.5602,-0.66429 -1.01854,-1.5765 -1.01854,-2.02714 0,-0.45064 -1.28535,-2.22663 -2.85634,-3.94664 -1.57098,-1.72 -3.13186,-3.84529 -3.46861,-4.72286 -0.33675,-0.87756 -1.0764,-1.59557 -1.64367,-1.59557 -0.56726,0 -1.03138,-0.61197 -1.03138,-1.35993 0,-0.74796 -1.17486,-2.21046 -2.61081,-3.25 -6.63972,-4.80677 -6.58842,-4.86672 4.4288,-5.17506 5.70107,-0.15955 11.0339,0.17054 12.11664,0.75 1.06364,0.56925 2.94402,1.03499 4.17863,1.03499 1.23461,0 3.62669,0.40853 5.31574,0.90785 1.68905,0.49931 5.771,1.68356 9.071,2.63165 7.6214,2.18964 14.71142,4.61319 16,5.4692 0.55,0.36537 3.5875,1.69014 6.75,2.94395 3.1625,1.2538 5.75,2.67737 5.75,3.16349 0,0.48612 0.49303,0.88386 1.09563,0.88386 0.6026,0 2.2901,0.83891 3.75,1.86425 1.4599,1.02534 4.38449,2.48115 6.49907,3.23513 2.11459,0.75399 5.48959,2.77577 7.5,4.49286 2.01042,1.71708 5.63107,4.12769 8.0459,5.35692 2.41483,1.22922 6.38553,4.20166 8.82379,6.60541 2.43825,2.40376 7.11936,6.20404 10.40247,8.44507 3.28311,2.24104 8.55938,6.6454 11.72505,9.78748 3.16567,3.14209 6.95774,6.55324 8.42682,7.58034 1.46908,1.02711 2.942,2.72114 3.27316,3.76452 0.33116,1.04339 1.0197,1.63897 1.53011,1.32352 0.5104,-0.31544 0.928,-0.097 0.928,0.48548 0,0.58246 0.675,1.05902 1.5,1.05902 0.825,0 1.5,0.68912 1.5,1.53138 0,0.84227 0.675,1.79041 1.5,2.10699 0.825,0.31659 1.5,1.17702 1.5,1.91208 0,0.73506 1.35,2.13394 3,3.10862 1.65,0.97468 3,2.25011 3,2.8343 0,1.26516 3.60455,4.50663 5.01143,4.50663 0.54371,0 0.98857,0.60272 0.98857,1.33937 0,1.20277 5.70875,7.91361 14.75,17.33916 1.7875,1.86347 3.25,3.6133 3.25,3.88851 0,0.2752 1.35,1.82003 3,3.43296 1.65,1.61293 3,3.21428 3,3.55857 0,0.94895 9.91722,12.93599 16.07639,19.43169 0.86702,0.91439 1.86689,2.41954 2.22194,3.34478 0.35505,0.92525 1.78317,2.2006 3.17361,2.83413 1.39043,0.63352 2.52806,1.52963 2.52806,1.99135 0,0.46171 0.46921,0.83948 1.0427,0.83948 0.57348,0 3.38598,1.72792 6.25,3.83981 11.62928,8.57532 26.58104,10.67601 39.86303,5.60068 3.68399,-1.40773 7.23613,-3.20773 7.89366,-4 0.65752,-0.79227 1.8154,-1.44049 2.57305,-1.44049 0.75766,0 1.37756,-0.37396 1.37756,-0.83102 0,-0.45706 1.2312,-1.46956 2.73601,-2.25 3.88581,-2.0153 6.26399,-4.15704 6.26399,-5.64122 0,-0.70277 0.45589,-1.27776 1.01308,-1.27776 0.5572,0 3.1447,-2.00653 5.75,-4.45897 2.60531,-2.45243 6.87442,-6.44425 9.48692,-8.87071 2.6125,-2.42645 4.75,-4.81321 4.75,-5.3039 0,-0.49069 0.97569,-1.33637 2.1682,-1.87929 1.19252,-0.54292 2.65502,-1.88713 3.25,-2.98713 0.59499,-1.1 1.6443,-2.35986 2.3318,-2.79969 0.6875,-0.43983 1.25,-1.2349 1.25,-1.76682 0,-0.53193 2.025,-2.90743 4.5,-5.2789 2.475,-2.37146 4.5,-4.64468 4.5,-5.0516 0,-0.40691 2.025,-2.68007 4.5,-5.05146 2.475,-2.37139 4.5,-4.8156 4.5,-5.43158 0,-0.61597 0.44486,-1.11995 0.98857,-1.11995 1.26864,0 5.01143,-3.18785 5.01143,-4.26839 0,-0.86907 18.58076,-19.73161 19.43685,-19.73161 0.2741,0 4.12752,-3.6 8.56315,-8 4.43563,-4.4 8.7252,-8 9.53239,-8 0.80718,0 1.46761,-0.45 1.46761,-1 0,-0.55 0.44486,-1 0.98857,-1 1.52162,0 5.01143,-3.28842 5.01143,-4.72224 0,-0.70277 0.675,-1.27776 1.5,-1.27776 0.825,0 1.5,-0.41968 1.5,-0.93261 0,-0.51294 0.99524,-1.24849 2.21164,-1.63456 1.2164,-0.38607 3.85861,-2.3289 5.87156,-4.31739 4.9459,-4.88579 7.74359,-7.11544 8.92823,-7.11544 0.54371,0 0.98857,-0.45 0.98857,-1 0,-0.55 0.675,-1 1.5,-1 0.825,0 1.5,-0.45 1.5,-1 0,-0.55 0.60526,-1 1.34501,-1 0.73976,0 2.13067,-0.86814 3.09092,-1.9292 0.96024,-1.06106 3.16749,-2.66891 4.90498,-3.573 5.89619,-3.06801 7.77638,-4.23911 10.22749,-6.37032 1.34575,-1.17011 2.89339,-2.12748 3.43921,-2.12748 0.54581,0 0.99239,-0.39459 0.99239,-0.87686 0,-0.48227 2.3625,-1.88814 5.25,-3.12415 2.8875,-1.23601 6.40245,-3.06151 7.81099,-4.05665 1.40855,-0.99515 3.65855,-2.09181 5,-2.43703 5.71509,-1.47076 11.28535,-9.6677 7.54508,-11.10298 -0.88334,-0.33897 -1.60607,-1.11634 -1.60607,-1.72748 0,-0.61115 -1.2375,-2.17225 -2.75,-3.46911 -1.5125,-1.29686 -4.4179,-3.89868 -6.45644,-5.78183 -2.03854,-1.88315 -4.17604,-3.42391 -4.75,-3.42391 -0.57396,0 -1.04356,-0.45 -1.04356,-1 0,-0.55 -0.6375,-1 -1.41667,-1 -0.77916,0 -1.56666,-0.39737 -1.75,-0.88305 -0.18333,-0.48568 -3.48333,-2.42297 -7.33333,-4.30509 -5.80783,-2.83923 -7.05389,-3.88101 -7.31642,-6.11695 -0.22477,-1.91427 0.13733,-2.69491 1.25,-2.69491 2.59262,0 2.89672,-0.13274 7.56642,-3.30256 5.08815,-3.45387 10.54837,-9.38441 13.20667,-14.34423 2.26236,-4.22106 2.59957,-21.40412 0.462,-23.54168 -0.73223,-0.73224 -1.62137,-2.48695 -1.97587,-3.89937 -0.35449,-1.41242 -1.78039,-3.79365 -3.16867,-5.29162 -1.38827,-1.49797 -2.52413,-3.0953 -2.52413,-3.54962 0,-0.45432 -0.675,-1.38623 -1.5,-2.07092 -0.825,-0.68469 -1.5,-1.82034 -1.5,-2.52367 0,-1.52214 4.73777,-4.44696 11.20295,-6.91604 6.09951,-2.32942 15.78576,-11.26284 15.82885,-14.59861 0.0175,-1.35393 0.6925,-3.33519 1.5,-4.40281 1.90668,-2.52085 1.88781,-8.9964 -0.0318,-10.91601 -0.825,-0.825 -1.5,-3.075 -1.5,-5 0,-1.925 -0.675,-4.175 -1.5,-5 -0.825,-0.825 -1.5,-2.13829 -1.5,-2.91842 0,-1.2498 -0.89936,-2.59162 -4.98146,-7.43223 -0.5602,-0.66429 -1.01854,-1.69091 -1.01854,-2.28139 0,-0.59047 -0.675,-1.33261 -1.5,-1.64919 -0.825,-0.31659 -1.5,-1.10218 -1.5,-1.74576 0,-0.64358 -1.35,-2.64821 -3,-4.45473 -1.65,-1.80652 -3,-3.60679 -3,-4.00062 0,-0.79695 -2.68315,-3.10011 -5.49368,-4.71566 -1.00958,-0.58033 -2.4914,-2.04283 -3.29293,-3.25 -1.44923,-2.18265 -1.42189,-2.19486 4.91501,-2.19486 3.50479,0 9.52218,0.6836 13.37197,1.51911 3.8498,0.83551 9.02463,1.93868 11.49963,2.45148 9.22631,1.91165 20.20627,5.02706 24.65865,6.99656 2.52757,1.11807 5.10088,2.03404 5.71847,2.03549 0.61758,10e-4 7.08294,2.47646 14.36747,5.5 7.28452,3.02355 13.83717,5.49736 14.56144,5.49736 0.72426,0 2.22379,0.84495 3.33228,1.87766 1.10849,1.03272 3.10585,2.21219 4.43856,2.62105 1.33272,0.40886 6.24813,2.78059 10.92313,5.27051 11.48581,6.11738 12.42264,6.64321 13,7.29678 1.17009,1.32454 9.94496,6.934 10.84684,6.934 0.54257,0 1.13649,0.3375 1.31983,0.75 0.18333,0.4125 4.21382,2.69028 8.95665,5.06173 4.74283,2.37146 10.84619,6.42146 13.56303,9 5.0041,4.74937 10.72628,9.18827 11.84459,9.18827 0.33655,0 1.21952,0.5625 1.96215,1.25 0.74263,0.6875 4.30682,3.05 7.92042,5.25 3.61359,2.2 6.57384,4.46249 6.57833,5.02776 0.008,0.98371 3.52063,4.47224 4.50338,4.47224 0.65947,0 10.26984,8.89016 13.40971,12.40479 1.42729,1.59763 4.73257,5.07922 7.34507,7.73687 2.6125,2.65765 4.75,5.22429 4.75,5.70364 0,0.47935 2.44096,2.49224 5.42435,4.4731 l 5.42435,3.60157 44.678,0.0596 c 24.5729,0.0328 45.41944,0.44177 46.32565,0.90886 0.90621,0.46709 5.47266,1.13318 10.14766,1.48021 19.48236,1.44616 28.29276,2.8863 49.21876,8.04519 8.0006,1.97239 15.3869,3.58894 16.4139,3.59233 1.027,0.003 3.1562,0.67839 4.7316,1.5 1.5754,0.82161 3.2336,1.49384 3.6849,1.49384 0.4513,0 2.0874,0.51878 3.6357,1.15285 1.5483,0.63407 3.5602,1.29978 4.471,1.47936 5.1597,1.01742 25.073,8.36216 36.8441,13.58943 18.22,8.09112 57.9916,29.12094 60,31.72586 0.275,0.35669 2.6057,1.86474 5.1793,3.35122 2.5736,1.48649 5.2736,3.26488 6,3.95199 0.7264,0.68711 2.5067,1.86029 3.9563,2.60707 1.4497,0.74678 4.3747,2.88753 6.5,4.75723 2.1254,1.8697 4.8769,3.66998 6.1144,4.00063 1.2375,0.33065 2.25,1.00239 2.25,1.49277 0,0.49037 0.675,0.89159 1.5,0.89159 0.825,0 1.5,0.57499 1.5,1.27776 0,1.21624 3.4013,4.72224 4.5813,4.72224 1.7613,0 10.8331,7.1983 16.5402,13.1244 3.6418,3.78158 7.0465,6.8756 7.566,6.8756 0.5195,0 2.2924,1.4625 3.9398,3.25 4.2436,4.60456 7.5639,7.13825 9.8177,7.49183 1.0697,0.16782 3.7697,1.33496 6,2.59363 2.2302,1.25868 4.955,2.75503 6.055,3.32523 1.1,0.57019 3.35,1.80754 5,2.74966 1.65,0.94212 3.7875,1.96269 4.75,2.26793 0.9625,0.30524 1.75,0.9525 1.75,1.43835 0,0.48585 0.5248,0.88337 1.1661,0.88337 0.6414,0 1.8789,0.66263 2.75,1.4725 0.8712,0.80988 3.5897,3.17238 6.0411,5.25 6.2098,5.26275 11.0428,10.44927 11.0428,11.85047 0,0.65018 0.675,1.74234 1.5,2.42703 0.9497,0.78822 1.5,2.9949 1.5,6.01546 0,3.31801 -0.4567,4.94582 -1.5,5.34617 -0.825,0.31658 -1.5122,1.37722 -1.5271,2.35699 -0.025,1.67268 -6.2714,9.28138 -7.6191,9.28138 -0.3405,0 -1.4595,0.96885 -2.4865,2.15301 -1.6801,1.93711 -1.8705,4.068 -1.8991,21.25 -0.025,15.20615 -0.3309,19.49248 -1.5,21.03812 -0.9747,1.28861 -1.4682,4.35689 -1.4682,9.12755 0,5.16799 -0.4213,7.53608 -1.5,8.43132 -0.846,0.70213 -1.5,2.88207 -1.5,5 0,2.11793 -0.654,4.29787 -1.5,5 -0.825,0.68469 -1.5,2.71664 -1.5,4.51546 0,1.98468 -0.5898,3.49687 -1.5,3.84617 -0.825,0.31658 -1.5,1.68258 -1.5,3.03556 0,1.35297 -0.7776,3.2376 -1.7281,4.18805 -1.6375,1.63745 -1.7629,1.55767 -2.3926,-1.52122 -0.3655,-1.78713 -1.1629,-3.74763 -1.7719,-4.35667 -0.6091,-0.60904 -1.1074,-1.86225 -1.1074,-2.78491 0,-0.92265 -0.675,-2.23775 -1.5,-2.92244 -0.825,-0.68469 -1.5,-2.04164 -1.5,-3.01546 0,-0.97381 -0.675,-2.02958 -1.5,-2.34617 -0.825,-0.31658 -1.5,-1.65962 -1.5,-2.98454 0,-1.32492 -0.6308,-2.9325 -1.4019,-3.5724 -0.771,-0.63991 -1.6542,-2.16893 -1.9627,-3.39784 -0.3084,-1.2289 -2.2651,-3.31133 -4.3481,-4.62761 -2.083,-1.31629 -5.9745,-5.24236 -8.6478,-8.72461 -2.6733,-3.48226 -5.1483,-6.329 -5.5,-6.3261 -0.3517,0.003 -0.765,4.77341 -0.9183,10.60114 -0.1699,6.45435 -0.8539,11.9721 -1.75,14.11686 -0.8092,1.93654 -1.4712,5.45352 -1.4712,7.81552 0,2.54675 -0.5087,4.46412 -1.25,4.7112 -0.8056,0.26853 -1.2953,2.67079 -1.3774,6.75707 -0.092,4.58563 -0.5764,6.66878 -1.75,7.52692 -0.8924,0.65258 -1.6226,1.50654 -1.6226,1.89769 0,0.39115 -0.675,1.38619 -1.5,2.21119 -0.825,0.825 -1.5,2.53775 -1.5,3.80612 0,1.26837 -0.675,2.86633 -1.5,3.55102 -0.825,0.68469 -1.5,1.91293 -1.5,2.72943 0,0.94287 -0.5772,1.26307 -1.5818,0.87756 -0.87,-0.33385 -1.77,-0.60699 -2,-0.60699 -0.23,0 -0.4182,-0.67663 -0.4182,-1.50362 0,-2.09022 -3.3618,-8.15117 -6.4332,-11.59825 -1.4117,-1.58445 -2.5668,-3.28162 -2.5668,-3.77149 0,-0.48988 -2.5875,-3.54075 -5.75,-6.77971 -3.1625,-3.23897 -8.1125,-9.006 -11,-12.81561 -2.8875,-3.80962 -5.2609,-6.72515 -5.2742,-6.47895 -0.013,0.2462 -0.1257,5.4306 -0.25,11.52089 -0.1831,8.97958 -0.5544,11.40152 -1.9637,12.80937 -1.4036,1.40209 -1.7246,3.4543 -1.6683,10.66646 0.054,6.87837 -0.2938,9.29379 -1.5121,10.51206 -0.8699,0.86994 -1.5817,2.48171 -1.5817,3.58171 0,1.1 -0.675,2.675 -1.5,3.5 -0.825,0.825 -1.5,2.59285 -1.5,3.92857 0,3.19836 -3.216,6.44681 -5.2536,5.30654 -0.8377,-0.46884 -1.807,-1.98317 -2.1538,-3.3652 -0.3469,-1.38202 -1.0721,-2.51277 -1.6117,-2.51277 -0.5395,0 -0.9809,-0.68912 -0.9809,-1.53138 0,-0.84227 -0.675,-1.79041 -1.5,-2.10699 -0.825,-0.31659 -1.5,-1.14952 -1.5,-1.85097 0,-1.66845 -7.8561,-9.51066 -9.5275,-9.51066 -0.7107,0 -3.2222,-2.025 -5.581,-4.5 -2.3588,-2.475 -4.6494,-4.5 -5.0901,-4.5 -0.4408,0 -0.8014,2.44844 -0.8014,5.44098 0,2.99254 -0.45,5.7191 -1,6.05902 -0.55,0.33992 -1,2.11138 -1,3.93657 0,1.8252 -0.675,3.87874 -1.5,4.56343 -0.926,0.76848 -1.5136,3.01582 -1.5354,5.87244 -0.02,2.54516 -0.6786,5.75256 -1.4646,7.12756 -0.786,1.375 -1.4451,3.9625 -1.4646,5.75 -0.019,1.7875 -0.4768,3.25 -1.0163,3.25 -0.5396,0 -1.2882,1.22407 -1.6637,2.72014 -1.2583,5.01363 -4.43,7.3412 -10.425,7.65054 -2.9867,0.15411 -7.0054,1.05438 -8.9304,2.00061 -3.5004,1.72059 -8,7.47416 -8,10.22944 0,0.80412 -0.675,1.72106 -1.5,2.03764 -0.825,0.31659 -1.5,1.20246 -1.5,1.96862 0,0.76615 -0.4414,1.39301 -0.9809,1.39301 -0.5396,0 -1.2913,1.23634 -1.6706,2.74743 -0.3792,1.51109 -1.9628,4.02071 -3.519,5.57693 -1.5562,1.55622 -2.8295,3.63977 -2.8295,4.63012 0,0.99035 -0.675,2.36083 -1.5,3.04552 -1.641,1.36188 -1.9364,8.15727 -0.5,11.5 0.4727,1.1 0.8911,1.63932 0.9297,1.19848 0.039,-0.44084 1.0828,0.26769 2.3203,1.57451 1.2375,1.30682 3.0465,2.66932 4.0199,3.02777 0.9734,0.35846 4.5734,2.55907 8,4.89026 8.4114,5.72255 16.5665,9.80898 19.5753,9.80898 2.6512,0 11.1548,-4.52083 11.1548,-5.93035 0,-0.46533 2.025,-2.90011 4.5,-5.41062 2.475,-2.51052 4.5,-4.78306 4.5,-5.05008 0,-0.26703 1.35,-1.96357 3,-3.77009 1.65,-1.80652 3,-3.63429 3,-4.06172 0,-0.42743 0.8898,-1.66693 1.9773,-2.75446 2.7151,-2.71507 5.0227,-1.584 5.0227,2.46186 0,1.79882 0.675,3.83077 1.5,4.51546 1.0863,0.90159 1.5,3.28806 1.5,8.65383 0,5.66323 0.3534,7.54456 1.5,7.98454 0.9102,0.3493 1.5,1.86149 1.5,3.84617 0,1.79882 0.675,3.83077 1.5,4.51546 0.825,0.68469 1.5,2.61823 1.5,4.29676 v 3.05187 l 2.4992,-2.34786 c 1.3745,-1.29133 3.6175,-2.39682 4.9844,-2.45666 2.5889,-0.11333 9.4288,-6.09463 9.4846,-8.29411 0.017,-0.6875 0.4732,-1.25 1.0127,-1.25 0.5396,0 1.2797,-1.19013 1.6448,-2.64473 0.3651,-1.45461 1.3861,-3.392 2.269,-4.30533 3.0912,-3.1977 7.1053,-8.4432 7.1053,-9.28492 0,-0.46719 0.4659,-1.39294 1.0354,-2.05723 0.5695,-0.66428 2.1445,-2.75772 3.5,-4.65207 1.4467,-2.02168 2.4646,-2.79506 2.4646,-1.87244 0,0.8645 0.675,2.13203 1.5,2.81672 0.825,0.68469 1.5,2.22878 1.5,3.43132 0,1.20253 0.6607,3.05993 1.4682,4.12755 0.8075,1.06762 1.4825,3.12353 1.5,4.56869 0.017,1.44515 0.7068,3.18775 1.5318,3.87244 1.0855,0.9009 1.5,3.2853 1.5,8.62906 0,6.63012 0.2553,7.60614 2.5,9.55789 1.6264,1.41417 2.5126,3.24634 2.536,5.24339 l 0.036,3.06966 2.2516,-2.75 c 1.2384,-1.5125 3.1069,-2.75 4.1522,-2.75 3.0627,0 8.5098,-4.24834 8.5175,-6.64301 0,-1.17866 0.6818,-2.40203 1.5068,-2.71862 0.825,-0.31658 1.5,-1.20138 1.5,-1.96622 0,-1.49008 5.7882,-12.83914 6.973,-13.67215 0.3911,-0.275 2.5025,-4.16252 4.6919,-8.63892 3.345,-6.83924 4.2485,-7.98904 5.6579,-7.20031 0.9225,0.51623 1.6772,2.00911 1.6772,3.31749 0,1.30839 0.675,3.05388 1.5,3.87888 0.825,0.825 1.5,2.625 1.5,4 0,1.375 0.675,3.175 1.5,4 0.825,0.825 1.5,2.625 1.5,4 0,1.375 0.675,3.175 1.5,4 0.825,0.825 1.5,2.84568 1.5,4.49039 0,3.00374 2.8487,9.13433 4.25,9.14615 0.4125,0.003 0.7569,1.01882 0.7653,2.25632 0.01,1.2375 0.4275,2.90153 0.9313,3.69785 0.7336,1.15953 1.1608,0.91061 2.1452,-1.25 0.7091,-1.55633 2.0354,-2.69785 3.1345,-2.69785 2.767,0 5.7737,-1.84097 5.7737,-3.53518 0,-0.80565 0.406,-1.46482 0.9022,-1.46482 0.4962,0 1.3728,-1.35 1.948,-3 0.5751,-1.65 1.5192,-3 2.0978,-3 0.5786,0 1.052,-1.54723 1.052,-3.43828 0,-2.42374 0.8852,-4.40747 3,-6.72286 1.65,-1.80652 3,-4.02919 3,-4.93928 0,-0.91008 0.675,-2.21489 1.5,-2.89958 0.825,-0.68469 1.5,-2.03469 1.5,-3 0,-0.96531 0.675,-2.31531 1.5,-3 0.825,-0.68469 1.5143,-1.97729 1.5318,-2.87244 0.017,-0.89516 0.6925,-2.50107 1.5,-3.56869 0.8075,-1.06762 1.4682,-2.92502 1.4682,-4.12755 0,-1.20254 0.675,-2.74663 1.5,-3.43132 0.825,-0.68469 1.5285,-1.97729 1.5634,-2.87244 0.043,-1.1014 0.3557,-0.90018 0.9678,0.62244 0.4974,1.2375 1.3689,2.25 1.9366,2.25 0.5677,0 1.0322,1.9699 1.0322,4.37756 0,2.6712 0.5847,4.8628 1.5,5.62244 0.9429,0.7825 1.5,2.98555 1.5,5.93132 0,2.57753 0.6607,5.55993 1.4682,6.62755 0.9632,1.27347 1.4791,4.3927 1.5,9.06869 0.023,5.08515 0.4616,7.48427 1.5318,8.37244 1.2386,1.02799 1.5,4.61218 1.5,20.57092 0,21.67932 -0.1407,21.23058 8.25,26.31835 5.7804,3.50501 5.3754,5.12457 -3.5,13.99546 -2.6125,2.61118 -4.75,5.2426 -4.75,5.84761 0,0.60502 -1.35,1.69759 -3,2.42795 -1.65,0.73036 -3,1.66808 -3,2.08382 0,0.41574 -0.675,0.75589 -1.5,0.75589 -0.825,0 -1.5,0.45 -1.5,1 0,0.55 -0.4883,1 -1.0851,1 -0.5968,0 -4.0843,2.64599 -7.75,5.87997 -3.6657,3.23399 -7.7899,6.21964 -9.1649,6.63479 -1.375,0.41514 -2.725,1.051 -3,1.41302 -0.275,0.36202 -3.0875,1.94995 -6.25,3.52874 -3.1625,1.57878 -5.75,3.24694 -5.75,3.707 0,0.46006 -0.5901,0.83648 -1.3114,0.83648 -0.7213,0 -2.1868,0.81552 -3.2567,1.81227 -1.5902,1.4815 -12.5996,7.34699 -14.4319,7.68891 -0.275,0.0513 -2.7065,1.5224 -5.4032,3.26908 -2.6968,1.74668 -6.4093,3.67282 -8.25,4.28031 -1.8408,0.6075 -3.3468,1.51964 -3.3468,2.02698 0,0.50735 -0.8119,0.92245 -1.8042,0.92245 -0.9923,0 -3.933,1.35 -6.5347,3 -2.6018,1.65 -5.2222,3 -5.8231,3 -0.6009,0 -3.8478,1.30573 -7.2153,2.90162 -5.7382,2.7194 -8.4345,3.9355 -20.3727,9.18844 -2.6125,1.14953 -5.65,2.50324 -6.75,3.00824 -3.938,1.80792 -33.1262,12.07437 -39.5,13.89346 -3.575,1.02031 -12.6746,3.91459 -20.2213,6.43169 -7.5468,2.5171 -14.4627,4.5765 -15.3688,4.5765 -0.906,0 -4.4064,0.872 -7.7786,1.9378 -3.3722,1.0658 -8.8313,2.4428 -12.1313,3.0601 -3.3,0.6173 -7.4238,1.5605 -9.1641,2.0959 -3.928,1.2086 -14.998,3.4395 -26.8359,5.408 -4.95,0.8232 -11.025,1.9235 -13.5,2.4452 -2.475,0.5216 -6.525,1.25 -9,1.6186 -2.475,0.3687 -5.3237,0.8233 -6.3305,1.0104 -1.0068,0.1871 -3.9318,0.4291 -6.5,0.5376 -2.5682,0.1086 -5.4573,0.5935 -6.4203,1.0775 -0.9629,0.4841 -5.9129,1.0677 -10.99997,1.2968 -17.41089,0.7844 -32.9819,2.4112 -34.13671,3.5665 -0.24498,0.2451 -10.02223,0.4035 -21.72724,0.3519 -19.74625,-0.087 -21.5741,0.057 -25.33252,2 -4.77692,2.4691 -6.03759,3.6122 -10.58057,9.5937 -4.47827,5.8964 -10.09044,11.5646 -11.13883,11.25 -0.45843,-0.1375 -0.83343,0.2521 -0.83343,0.8657 0,1.2553 -8.66622,9.7769 -14,13.7664 -1.925,1.4399 -4.09464,3.1804 -4.82143,3.8679 -0.72678,0.6875 -1.70714,1.25 -2.17857,1.25 -0.47143,0 -1.4698,0.6127 -2.21861,1.3615 -3.07042,3.0704 -21.27435,13.6385 -23.49283,13.6385 -0.70871,0 -1.28856,0.3817 -1.28856,0.8482 0,0.4664 -1.9125,1.643 -4.25,2.6146 -2.3375,0.9716 -6.58417,2.8399 -9.43705,4.1519 -2.85288,1.3119 -5.60314,2.3853 -6.11169,2.3853 -0.50854,0 -3.79937,1.2944 -7.31294,2.8763 -8.96838,4.0379 -42.44452,12.2383 -53.38832,13.0782 -4.95,0.3798 -9.98292,1.2205 -11.18426,1.8681 -1.20134,0.6476 -2.77634,1.0988 -3.5,1.0027 -0.72366,-0.096 -3.34074,-0.3355 -5.81574,-0.532 z M 1300.1754,649.05719 c 0.6799,-6.44196 0.7804,-14.70819 0.2704,-22.25 -0.8592,-12.70641 -3.6828,-30.3857 -5.0963,-31.90944 -0.478,-0.51534 -2.028,1.86802 -3.5768,5.5 -5.7525,13.48975 -20.5984,40.13033 -29.5973,53.11148 -0.6489,0.93612 -0.8276,2.05432 -0.397,2.48489 0.9941,0.99413 19.7683,3.0011 29.7307,3.17822 l 7.5843,0.13485 z m -50.5006,6.26101 c 2.0797,-0.008 2.75,-0.49853 2.75,-2.01101 0,-1.1 0.45,-2 1,-2 1.5378,0 1.133,-12.14339 -0.5,-15 -0.9243,-1.61694 -1.4416,-5.53667 -1.4646,-11.09699 -0.028,-6.92377 -0.3988,-9.01603 -1.9027,-10.75 -1.027,-1.18416 -2.377,-2.15301 -3,-2.15301 -0.623,0 -1.1327,-0.46445 -1.1327,-1.03212 0,-0.56766 -0.711,-2.70516 -1.58,-4.75 l -1.5801,-3.71788 -2.8387,5.5 c -1.5613,3.025 -4.0003,6.35053 -5.42,7.39007 -1.4196,1.03954 -2.5812,2.68954 -2.5812,3.66667 0,0.97713 -0.4545,1.92808 -1.0099,2.11323 -0.5555,0.18515 -1.199,1.31845 -1.4301,2.51844 -0.7677,3.98639 -7.3137,13.88318 -13.8943,21.00666 l -2.9516,3.19508 2.643,0.55492 c 1.4536,0.30521 3.6817,0.76686 4.9513,1.02588 1.2695,0.25903 4.082,1.23859 6.25,2.17681 4.2893,1.85633 4.3338,1.86963 9.4112,2.8133 1.9083,0.35467 3.7083,0.88558 4,1.17981 0.2917,0.29423 2.1054,0.27536 4.0304,-0.0419 1.925,-0.31731 4.7375,-0.58187 6.25,-0.58792 z m -50.25,-11.10328 c 0,-0.60075 0.9,-2.23644 2,-3.63486 2.374,-3.01805 2.5787,-6.5513 0.5,-8.63001 -1.0434,-1.04336 -1.5,-3.59968 -1.5,-8.39712 0,-5.94481 -0.3242,-7.20167 -2.3479,-9.10285 -1.3962,-1.3117 -2.8451,-4.42753 -3.5746,-7.68722 -1.3492,-6.02903 -2.1756,-6.13458 -4.9941,-0.63782 -1.0384,2.02518 -3.0911,4.72133 -4.5615,5.99145 -1.4704,1.27011 -3.2793,3.74511 -4.0197,5.5 -1.3319,3.15665 -4.2787,6.81798 -6.7466,8.38243 -0.7013,0.44455 -2.5191,2.72773 -4.0397,5.07374 l -2.7647,4.26546 2.4283,0.92327 c 1.3357,0.50781 3.2592,1.78324 4.2745,2.83429 2.2948,2.37558 9.0332,4.26961 16.6544,4.68121 3.1946,0.17253 6.0821,0.58743 6.4166,0.922 0.9774,0.97738 2.275,0.70133 2.275,-0.48397 z m -49.9788,-17.90773 c 0.5215,-0.825 0.962,-1.05 0.9788,-0.5 0.017,0.55 0.4668,0.325 1,-0.5 1.2983,-2.0089 1.2983,-19 0,-19 -1.9854,0 -5,-4.05939 -5,-6.73282 0,-2.61246 -0.2019,-2.50203 -4.5838,2.50719 -2.5212,2.88202 -4.9142,5.03589 -5.3179,4.78639 -0.4037,-0.2495 -1.3785,0.47957 -2.1661,1.62017 -0.7877,1.14059 -2.6256,3.25399 -4.0841,4.69644 -3.7353,3.694 -4.4959,6.78224 -1.8754,7.61398 1.131,0.35895 1.8316,1.01628 1.5569,1.46073 -0.2747,0.44445 1.7662,1.92932 4.5352,3.2997 5.7509,2.84607 13.3888,3.22817 14.9564,0.74822 z m -30.0562,-93.80076 c 1.0955,-3.68458 2.4481,-9.62424 3.0058,-13.19924 1.2534,-8.03366 1.3548,-31 0.1369,-31 -2.2095,0 -20.3037,21.45303 -29.1446,34.55473 l -4.8549,7.19456 7.6959,0.45969 c 8.4462,0.5045 14.8014,3.05522 17.8949,7.18231 0.9906,1.32145 2.1325,2.20117 2.5376,1.95492 0.4052,-0.24625 1.633,-3.46238 2.7284,-7.14697 z m 44.8821,-26.44428 c 1.7176,-10.19198 2.4587,-26.77329 1.6964,-37.95672 -0.7035,-10.32221 -1.7824,-14.3417 -3.2935,-12.26995 -0.4125,0.56556 -6.6043,5.56408 -13.7595,11.10781 -7.1553,5.54373 -13.6209,10.81604 -14.368,11.71625 -1.1943,1.43907 -0.4685,2.55436 6.0096,9.23506 4.0523,4.17907 7.8199,8.11903 8.3724,8.75545 3.3717,3.88408 9.3452,11.56894 10.8349,13.93901 0.9616,1.53002 2.1321,2.54475 2.601,2.25496 0.4689,-0.2898 1.3269,-3.34164 1.9067,-6.78187 z m 49.2387,-22.8935 c 3.4142,-16.18028 3.6609,-53.46178 0.3753,-56.73039 -1.1171,-1.11135 -35.4611,18.31212 -35.4611,20.05526 0,0.4968 3.6621,5.49561 8.1381,11.10847 8.8183,11.05819 15.9532,21.3159 20.314,29.2052 3.7483,6.78109 3.6883,6.69292 4.2032,6.17799 0.2503,-0.25029 1.344,-4.66773 2.4305,-9.81653 z m 53.5591,-39.36146 c 2.7072,-18.56692 1.7444,-37.60876 -1.9375,-38.31783 -0.9378,-0.18061 -5.1932,1.02078 -9.4563,2.66976 -9.7268,3.76235 -29.4764,12.04008 -30.0178,12.58145 -0.2233,0.22333 3.5062,4.82968 8.2879,10.23634 11.0171,12.45692 17.0824,21.02639 23.0938,32.62817 l 4.768,9.20211 1.829,-9 c 1.0059,-4.95 2.5507,-13.95 3.4329,-20 z m -165.5693,-46.27635 c 11.8571,-5.78708 18.2769,-15.51022 18.3353,-27.77008 0.072,-15.23029 -10.7733,-27.4366 -26.9918,-30.37757 -6.7675,-1.22718 -15.1786,0.37618 -21.0681,4.0161 -5.1305,3.17081 -12.0146,11.47225 -13.759,16.59184 -5.1558,15.13163 3.6333,32.65544 19.1624,38.20597 7.6601,2.73791 17.9224,2.45678 24.3212,-0.66626 z"
       id="path1" />
  </g>
</svg>
