<?xml version="1.0" encoding="UTF-8"?>
<!DOCTYPE svg PUBLIC "-//W3C//DTD SVG 1.1//EN"
    "http://www.w3.org/Graphics/SVG/1.1/DTD/svg11.dtd"><svg font-size="1" viewBox="0.0 0.0 700.0 299.44444444444446" stroke="rgb(0,0,0)" xmlns="http://www.w3.org/2000/svg" width="700.0000" stroke-opacity="1" height="299.4444" version="1.1" xmlns:xlink="http://www.w3.org/1999/xlink"><defs></defs><g stroke-linejoin="miter" fill-opacity="0.0" fill="rgb(0,0,0)" stroke="rgb(0,0,0)" stroke-linecap="butt" stroke-miterlimit="10.0" stroke-opacity="1.0" stroke-width="1.8313322412325346"><path d="M 593.0556,52.5000 h 97.2222 "/></g><g stroke-linejoin="miter" fill-opacity="1.0" fill="rgb(255,255,255)" stroke="rgb(255,165,0)" stroke-linecap="butt" stroke-miterlimit="10.0" stroke-opacity="1.0" stroke-width="4.0"><path d="M 684.4444,52.5000 c 0.0000,-23.6255 -19.1523,-42.7778 -42.7778 -42.7778c -23.6255,-0.0000 -42.7778,19.1523 -42.7778 42.7778c -0.0000,23.6255 19.1523,42.7778 42.7778 42.7778c 23.6255,0.0000 42.7778,-19.1523 42.7778 -42.7778Z"/></g><g stroke-linejoin="miter" fill-opacity="1.0" font-size="14" fill="rgb(0,0,0)" stroke="rgb(0,0,0)" stroke-linecap="butt" stroke-miterlimit="10.0" stroke-opacity="1.0" stroke-width="1.8313322412325346"><text transform="matrix(1.0000,0.0000,0.0000,1.0000,641.6667,52.5000)" stroke="none" dominant-baseline="middle" text-anchor="middle">reapplyTxs</text></g><g stroke-linejoin="miter" fill-opacity="0.0" fill="rgb(0,0,0)" stroke="rgb(0,0,0)" stroke-linecap="butt" stroke-miterlimit="10.0" stroke-opacity="1.0" stroke-width="1.8313322412325346"><path d="M 495.8333,52.5000 h 97.2222 "/></g><g stroke-linejoin="miter" fill-opacity="0.0" fill="rgb(0,0,0)" stroke="rgb(0,0,0)" stroke-linecap="butt" stroke-miterlimit="10.0" stroke-opacity="1.0" stroke-width="1.8313322412325346"><path d="M 544.4444,52.5000 l -48.6111,97.2222 "/></g><g stroke-linejoin="miter" fill-opacity="0.0" fill="rgb(0,0,0)" stroke="rgb(0,0,0)" stroke-linecap="butt" stroke-miterlimit="10.0" stroke-opacity="1.0" stroke-width="1.8313322412325346"><path d="M 544.4444,52.5000 h -48.6111 "/></g><g stroke-linejoin="miter" fill-opacity="0.0" fill="rgb(0,0,0)" stroke="rgb(0,0,0)" stroke-linecap="butt" stroke-miterlimit="10.0" stroke-opacity="1.0" stroke-width="1.8313322412325346"><path d="M 398.6111,149.7222 h 97.2222 "/></g><g stroke-linejoin="miter" fill-opacity="0.0" fill="rgb(0,0,0)" stroke="rgb(0,0,0)" stroke-linecap="butt" stroke-miterlimit="10.0" stroke-opacity="1.0" stroke-width="1.8313322412325346"><path d="M 447.2222,149.7222 l -48.6111,97.2222 "/></g><g stroke-linejoin="miter" fill-opacity="0.0" fill="rgb(0,0,0)" stroke="rgb(0,0,0)" stroke-linecap="butt" stroke-miterlimit="10.0" stroke-opacity="1.0" stroke-width="1.8313322412325346"><path d="M 447.2222,149.7222 h -48.6111 "/></g><g stroke-linejoin="miter" fill-opacity="0.0" fill="rgb(0,0,0)" stroke="rgb(0,0,0)" stroke-linecap="butt" stroke-miterlimit="10.0" stroke-opacity="1.0" stroke-width="1.8313322412325346"><path d="M 398.6111,52.5000 h 97.2222 "/></g><g stroke-linejoin="miter" fill-opacity="0.0" fill="rgb(0,0,0)" stroke="rgb(0,0,0)" stroke-linecap="butt" stroke-miterlimit="10.0" stroke-opacity="1.0" stroke-width="1.8313322412325346"><path d="M 301.3889,246.9444 h 97.2222 "/></g><g stroke-linejoin="miter" fill-opacity="1.0" fill="rgb(255,255,255)" stroke="rgb(255,165,0)" stroke-linecap="butt" stroke-miterlimit="10.0" stroke-opacity="1.0" stroke-width="4.0"><path d="M 392.7778,246.9444 c 0.0000,-23.6255 -19.1523,-42.7778 -42.7778 -42.7778c -23.6255,-0.0000 -42.7778,19.1523 -42.7778 42.7778c -0.0000,23.6255 19.1523,42.7778 42.7778 42.7778c 23.6255,0.0000 42.7778,-19.1523 42.7778 -42.7778Z"/></g><g stroke-linejoin="miter" fill-opacity="1.0" font-size="14" fill="rgb(0,0,0)" stroke="rgb(0,0,0)" stroke-linecap="butt" stroke-miterlimit="10.0" stroke-opacity="1.0" stroke-width="1.8313322412325346"><text transform="matrix(1.0000,0.0000,0.0000,1.0000,350.0000,246.9444)" stroke="none" dominant-baseline="middle" text-anchor="middle">fetchTx</text></g><g stroke-linejoin="miter" fill-opacity="0.0" fill="rgb(0,0,0)" stroke="rgb(0,0,0)" stroke-linecap="butt" stroke-miterlimit="10.0" stroke-opacity="1.0" stroke-width="1.8313322412325346"><path d="M 301.3889,149.7222 h 97.2222 "/></g><g stroke-linejoin="miter" fill-opacity="1.0" fill="rgb(255,255,255)" stroke="rgb(255,165,0)" stroke-linecap="butt" stroke-miterlimit="10.0" stroke-opacity="1.0" stroke-width="4.0"><path d="M 392.7778,149.7222 c 0.0000,-23.6255 -19.1523,-42.7778 -42.7778 -42.7778c -23.6255,-0.0000 -42.7778,19.1523 -42.7778 42.7778c -0.0000,23.6255 19.1523,42.7778 42.7778 42.7778c 23.6255,0.0000 42.7778,-19.1523 42.7778 -42.7778Z"/></g><g stroke-linejoin="miter" fill-opacity="1.0" font-size="14" fill="rgb(0,0,0)" stroke="rgb(0,0,0)" stroke-linecap="butt" stroke-miterlimit="10.0" stroke-opacity="1.0" stroke-width="1.8313322412325346"><text transform="matrix(1.0000,0.0000,0.0000,1.0000,350.0000,149.7222)" stroke="none" dominant-baseline="middle" text-anchor="middle">cached</text></g><g stroke-linejoin="miter" fill-opacity="0.0" fill="rgb(0,0,0)" stroke="rgb(0,0,0)" stroke-linecap="butt" stroke-miterlimit="10.0" stroke-opacity="1.0" stroke-width="1.8313322412325346"><path d="M 301.3889,52.5000 h 97.2222 "/></g><g stroke-linejoin="miter" fill-opacity="1.0" fill="rgb(255,255,255)" stroke="rgb(255,165,0)" stroke-linecap="butt" stroke-miterlimit="10.0" stroke-opacity="1.0" stroke-width="4.0"><path d="M 392.7778,52.5000 c 0.0000,-23.6255 -19.1523,-42.7778 -42.7778 -42.7778c -23.6255,-0.0000 -42.7778,19.1523 -42.7778 42.7778c -0.0000,23.6255 19.1523,42.7778 42.7778 42.7778c 23.6255,0.0000 42.7778,-19.1523 42.7778 -42.7778Z"/></g><g stroke-linejoin="miter" fill-opacity="1.0" font-size="14" fill="rgb(0,0,0)" stroke="rgb(0,0,0)" stroke-linecap="butt" stroke-miterlimit="10.0" stroke-opacity="1.0" stroke-width="1.8313322412325346"><text transform="matrix(1.0000,0.0000,0.0000,1.0000,350.0000,52.5000)" stroke="none" dominant-baseline="middle" text-anchor="middle">applyTxs</text></g><g stroke-linejoin="miter" fill-opacity="0.0" fill="rgb(0,0,0)" stroke="rgb(0,0,0)" stroke-linecap="butt" stroke-miterlimit="10.0" stroke-opacity="1.0" stroke-width="1.8313322412325346"><path d="M 204.1667,149.7222 h 97.2222 "/></g><g stroke-linejoin="miter" fill-opacity="1.0" font-size="19.444444444444446px" fill="rgb(0,128,128)" stroke="rgb(0,0,0)" stroke-linecap="butt" stroke-miterlimit="10.0" stroke-opacity="1.0" stroke-width="1.8313322412325346"><text transform="matrix(1.0000,0.0000,0.0000,1.0000,272.2222,237.2222)" stroke="none" dominant-baseline="middle" text-anchor="middle">0.48</text></g><g stroke-linejoin="miter" fill-opacity="1.0" font-size="19.444444444444446px" fill="rgb(0,128,128)" stroke="rgb(0,0,0)" stroke-linecap="butt" stroke-miterlimit="10.0" stroke-opacity="1.0" stroke-width="1.8313322412325346"><text transform="matrix(1.0000,0.0000,0.0000,1.0000,272.2222,120.5556)" stroke="none" dominant-baseline="middle" text-anchor="middle">0.52</text></g><g stroke-linejoin="miter" fill-opacity="0.0" fill="rgb(0,0,0)" stroke="rgb(0,0,0)" stroke-linecap="butt" stroke-miterlimit="10.0" stroke-opacity="1.0" stroke-width="1.8313322412325346"><path d="M 252.7778,149.7222 l 48.6111,97.2222 "/></g><g stroke-linejoin="miter" fill-opacity="0.0" fill="rgb(0,0,0)" stroke="rgb(0,0,0)" stroke-linecap="butt" stroke-miterlimit="10.0" stroke-opacity="1.0" stroke-width="1.8313322412325346"><path d="M 252.7778,149.7222 h 48.6111 "/></g><g stroke-linejoin="miter" fill-opacity="1.0" fill="rgb(255,255,255)" stroke="rgb(0,0,0)" stroke-linecap="butt" stroke-miterlimit="10.0" stroke-opacity="1.0" stroke-width="1.8313322412325346"><path d="M 272.2222,169.1667 l -0.0000,-38.8889 h -38.8889 l -0.0000,38.8889 Z"/></g><g stroke-linejoin="miter" fill-opacity="0.0" fill="rgb(0,0,0)" stroke="rgb(0,0,0)" stroke-linecap="butt" stroke-miterlimit="10.0" stroke-opacity="1.0" stroke-width="1.7"><path d="M 252.7778,153.6111 h -12.8333 h 23.3333 l -7.7778,5.8333 "/></g><g stroke-linejoin="miter" fill-opacity="0.0" fill="rgb(0,0,0)" stroke="rgb(0,0,0)" stroke-linecap="butt" stroke-miterlimit="10.0" stroke-opacity="1.0" stroke-width="1.7"><path d="M 252.7778,145.8333 h 12.8333 h -23.3333 l 7.7778,-5.8333 "/></g><g stroke-linejoin="miter" fill-opacity="0.0" fill="rgb(0,0,0)" stroke="rgb(0,0,0)" stroke-linecap="butt" stroke-miterlimit="10.0" stroke-opacity="1.0" stroke-width="1.8313322412325346"><path d="M 204.1667,52.5000 h 97.2222 "/></g><g stroke-linejoin="miter" fill-opacity="0.0" fill="rgb(0,0,0)" stroke="rgb(0,0,0)" stroke-linecap="butt" stroke-miterlimit="10.0" stroke-opacity="1.0" stroke-width="1.8313322412325346"><path d="M 106.9444,149.7222 h 97.2222 "/></g><g stroke-linejoin="miter" fill-opacity="1.0" fill="rgb(255,255,255)" stroke="rgb(255,165,0)" stroke-linecap="butt" stroke-miterlimit="10.0" stroke-opacity="1.0" stroke-width="4.0"><path d="M 198.3333,149.7222 c 0.0000,-23.6255 -19.1523,-42.7778 -42.7778 -42.7778c -23.6255,-0.0000 -42.7778,19.1523 -42.7778 42.7778c -0.0000,23.6255 19.1523,42.7778 42.7778 42.7778c 23.6255,0.0000 42.7778,-19.1523 42.7778 -42.7778Z"/></g><g stroke-linejoin="miter" fill-opacity="1.0" font-size="14" fill="rgb(0,0,0)" stroke="rgb(0,0,0)" stroke-linecap="butt" stroke-miterlimit="10.0" stroke-opacity="1.0" stroke-width="1.8313322412325346"><text transform="matrix(1.0000,0.0000,0.0000,1.0000,155.5556,149.7222)" stroke="none" dominant-baseline="middle" text-anchor="middle">fetchingEB</text></g><g stroke-linejoin="miter" fill-opacity="0.0" fill="rgb(0,0,0)" stroke="rgb(0,0,0)" stroke-linecap="butt" stroke-miterlimit="10.0" stroke-opacity="1.0" stroke-width="1.8313322412325346"><path d="M 106.9444,52.5000 h 97.2222 "/></g><g stroke-linejoin="miter" fill-opacity="1.0" fill="rgb(255,255,255)" stroke="rgb(255,165,0)" stroke-linecap="butt" stroke-miterlimit="10.0" stroke-opacity="1.0" stroke-width="4.0"><path d="M 198.3333,52.5000 c 0.0000,-23.6255 -19.1523,-42.7778 -42.7778 -42.7778c -23.6255,-0.0000 -42.7778,19.1523 -42.7778 42.7778c -0.0000,23.6255 19.1523,42.7778 42.7778 42.7778c 23.6255,0.0000 42.7778,-19.1523 42.7778 -42.7778Z"/></g><g stroke-linejoin="miter" fill-opacity="1.0" font-size="14" fill="rgb(0,0,0)" stroke="rgb(0,0,0)" stroke-linecap="butt" stroke-miterlimit="10.0" stroke-opacity="1.0" stroke-width="1.8313322412325346"><text transform="matrix(1.0000,0.0000,0.0000,1.0000,155.5556,52.5000)" stroke="none" dominant-baseline="middle" text-anchor="middle">sendRBBody</text></g><g stroke-linejoin="miter" fill-opacity="0.0" fill="rgb(0,0,0)" stroke="rgb(0,0,0)" stroke-linecap="butt" stroke-miterlimit="10.0" stroke-opacity="1.0" stroke-width="1.8313322412325346"><path d="M 9.7222,52.5000 h 97.2222 "/></g><g stroke-linejoin="miter" fill-opacity="0.0" fill="rgb(0,0,0)" stroke="rgb(0,0,0)" stroke-linecap="butt" stroke-miterlimit="10.0" stroke-opacity="1.0" stroke-width="1.8313322412325346"><path d="M 58.3333,52.5000 l 48.6111,97.2222 "/></g><g stroke-linejoin="miter" fill-opacity="0.0" fill="rgb(0,0,0)" stroke="rgb(0,0,0)" stroke-linecap="butt" stroke-miterlimit="10.0" stroke-opacity="1.0" stroke-width="1.8313322412325346"><path d="M 58.3333,52.5000 h 48.6111 "/></g><g stroke-linejoin="miter" fill-opacity="1.0" fill="rgb(255,255,255)" stroke="rgb(0,0,0)" stroke-linecap="butt" stroke-miterlimit="10.0" stroke-opacity="1.0" stroke-width="1.8313322412325346"><path d="M 77.7778,71.9444 l -0.0000,-38.8889 h -38.8889 l -0.0000,38.8889 Z"/></g><g stroke-linejoin="miter" fill-opacity="0.0" fill="rgb(0,0,0)" stroke="rgb(0,0,0)" stroke-linecap="butt" stroke-miterlimit="10.0" stroke-opacity="1.0" stroke-width="1.7"><path d="M 58.3333,64.9444 l 9.7222,-23.3333 "/></g><g stroke-linejoin="miter" fill-opacity="0.0" fill="rgb(0,0,0)" stroke="rgb(0,0,0)" stroke-linecap="butt" stroke-miterlimit="10.0" stroke-opacity="1.0" stroke-width="1.7"><path d="M 58.3333,64.9444 l -9.7222,-23.3333 "/></g><g stroke-linejoin="miter" fill-opacity="0.0" fill="rgb(0,0,0)" stroke="rgb(0,0,0)" stroke-linecap="butt" stroke-miterlimit="10.0" stroke-opacity="1.0" stroke-width="1.7"><path d="M 58.3333,51.3333 h -6.2222 h 12.4444 "/></g></svg>
