<?xml version="1.0" encoding="UTF-8"?>
<!DOCTYPE svg PUBLIC "-//W3C//DTD SVG 1.1//EN"
    "http://www.w3.org/Graphics/SVG/1.1/DTD/svg11.dtd"><svg font-size="1" viewBox="0.0 0.0 700.0 280.00000000000006" stroke="rgb(0,0,0)" xmlns="http://www.w3.org/2000/svg" width="700.0000" stroke-opacity="1" height="280.0000" version="1.1" xmlns:xlink="http://www.w3.org/1999/xlink"><defs></defs><g stroke-linejoin="miter" fill-opacity="0.0" fill="rgb(0,0,0)" stroke="rgb(0,0,0)" stroke-linecap="butt" stroke-miterlimit="10.0" stroke-opacity="1.0" stroke-width="1.7708754896942929"><path d="M 551.9231,72.6923 h 134.6154 "/></g><g stroke-linejoin="miter" fill-opacity="1.0" fill="rgb(255,255,255)" stroke="rgb(255,165,0)" stroke-linecap="butt" stroke-miterlimit="10.0" stroke-opacity="1.0" stroke-width="4.0"><path d="M 678.4615,72.6923 c 0.0000,-32.7123 -26.5185,-59.2308 -59.2308 -59.2308c -32.7123,-0.0000 -59.2308,26.5185 -59.2308 59.2308c -0.0000,32.7123 26.5185,59.2308 59.2308 59.2308c 32.7123,0.0000 59.2308,-26.5185 59.2308 -59.2308Z"/></g><g stroke-linejoin="miter" fill-opacity="1.0" font-size="18" fill="rgb(0,0,0)" stroke="rgb(0,0,0)" stroke-linecap="butt" stroke-miterlimit="10.0" stroke-opacity="1.0" stroke-width="1.7708754896942929"><text transform="matrix(1.0000,0.0000,0.0000,1.0000,619.2308,72.6923)" stroke="none" dominant-baseline="middle" text-anchor="middle">reapplyTxs</text></g><g stroke-linejoin="miter" fill-opacity="0.0" fill="rgb(0,0,0)" stroke="rgb(0,0,0)" stroke-linecap="butt" stroke-miterlimit="10.0" stroke-opacity="1.0" stroke-width="1.7708754896942929"><path d="M 417.3077,72.6923 h 134.6154 "/></g><g stroke-linejoin="miter" fill-opacity="0.0" fill="rgb(0,0,0)" stroke="rgb(0,0,0)" stroke-linecap="butt" stroke-miterlimit="10.0" stroke-opacity="1.0" stroke-width="1.7708754896942929"><path d="M 484.6154,72.6923 l -67.3077,134.6154 "/></g><g stroke-linejoin="miter" fill-opacity="0.0" fill="rgb(0,0,0)" stroke="rgb(0,0,0)" stroke-linecap="butt" stroke-miterlimit="10.0" stroke-opacity="1.0" stroke-width="1.7708754896942929"><path d="M 484.6154,72.6923 h -67.3077 "/></g><g stroke-linejoin="miter" fill-opacity="0.0" fill="rgb(0,0,0)" stroke="rgb(0,0,0)" stroke-linecap="butt" stroke-miterlimit="10.0" stroke-opacity="1.0" stroke-width="1.7708754896942929"><path d="M 282.6923,207.3077 h 134.6154 "/></g><g stroke-linejoin="miter" fill-opacity="1.0" fill="rgb(255,255,255)" stroke="rgb(255,165,0)" stroke-linecap="butt" stroke-miterlimit="10.0" stroke-opacity="1.0" stroke-width="4.0"><path d="M 409.2308,207.3077 c 0.0000,-32.7123 -26.5185,-59.2308 -59.2308 -59.2308c -32.7123,-0.0000 -59.2308,26.5185 -59.2308 59.2308c -0.0000,32.7123 26.5185,59.2308 59.2308 59.2308c 32.7123,0.0000 59.2308,-26.5185 59.2308 -59.2308Z"/></g><g stroke-linejoin="miter" fill-opacity="1.0" font-size="18" fill="rgb(0,0,0)" stroke="rgb(0,0,0)" stroke-linecap="butt" stroke-miterlimit="10.0" stroke-opacity="1.0" stroke-width="1.7708754896942929"><text transform="matrix(1.0000,0.0000,0.0000,1.0000,350.0000,207.3077)" stroke="none" dominant-baseline="middle" text-anchor="middle">fetchTxs</text></g><g stroke-linejoin="miter" fill-opacity="0.0" fill="rgb(0,0,0)" stroke="rgb(0,0,0)" stroke-linecap="butt" stroke-miterlimit="10.0" stroke-opacity="1.0" stroke-width="1.7708754896942929"><path d="M 282.6923,72.6923 h 134.6154 "/></g><g stroke-linejoin="miter" fill-opacity="1.0" fill="rgb(255,255,255)" stroke="rgb(255,165,0)" stroke-linecap="butt" stroke-miterlimit="10.0" stroke-opacity="1.0" stroke-width="4.0"><path d="M 409.2308,72.6923 c 0.0000,-32.7123 -26.5185,-59.2308 -59.2308 -59.2308c -32.7123,-0.0000 -59.2308,26.5185 -59.2308 59.2308c -0.0000,32.7123 26.5185,59.2308 59.2308 59.2308c 32.7123,0.0000 59.2308,-26.5185 59.2308 -59.2308Z"/></g><g stroke-linejoin="miter" fill-opacity="1.0" font-size="18" fill="rgb(0,0,0)" stroke="rgb(0,0,0)" stroke-linecap="butt" stroke-miterlimit="10.0" stroke-opacity="1.0" stroke-width="1.7708754896942929"><text transform="matrix(1.0000,0.0000,0.0000,1.0000,350.0000,72.6923)" stroke="none" dominant-baseline="middle" text-anchor="middle">applyTxs</text></g><g stroke-linejoin="miter" fill-opacity="0.0" fill="rgb(0,0,0)" stroke="rgb(0,0,0)" stroke-linecap="butt" stroke-miterlimit="10.0" stroke-opacity="1.0" stroke-width="1.7708754896942929"><path d="M 148.0769,207.3077 h 134.6154 "/></g><g stroke-linejoin="miter" fill-opacity="1.0" fill="rgb(255,255,255)" stroke="rgb(255,165,0)" stroke-linecap="butt" stroke-miterlimit="10.0" stroke-opacity="1.0" stroke-width="4.0"><path d="M 274.6154,207.3077 c 0.0000,-32.7123 -26.5185,-59.2308 -59.2308 -59.2308c -32.7123,-0.0000 -59.2308,26.5185 -59.2308 59.2308c -0.0000,32.7123 26.5185,59.2308 59.2308 59.2308c 32.7123,0.0000 59.2308,-26.5185 59.2308 -59.2308Z"/></g><g stroke-linejoin="miter" fill-opacity="1.0" font-size="18" fill="rgb(0,0,0)" stroke="rgb(0,0,0)" stroke-linecap="butt" stroke-miterlimit="10.0" stroke-opacity="1.0" stroke-width="1.7708754896942929"><text transform="matrix(1.0000,0.0000,0.0000,1.0000,215.3846,207.3077)" stroke="none" dominant-baseline="middle" text-anchor="middle">fetchEB</text></g><g stroke-linejoin="miter" fill-opacity="0.0" fill="rgb(0,0,0)" stroke="rgb(0,0,0)" stroke-linecap="butt" stroke-miterlimit="10.0" stroke-opacity="1.0" stroke-width="1.7708754896942929"><path d="M 148.0769,72.6923 h 134.6154 "/></g><g stroke-linejoin="miter" fill-opacity="1.0" fill="rgb(255,255,255)" stroke="rgb(255,165,0)" stroke-linecap="butt" stroke-miterlimit="10.0" stroke-opacity="1.0" stroke-width="4.0"><path d="M 274.6154,72.6923 c 0.0000,-32.7123 -26.5185,-59.2308 -59.2308 -59.2308c -32.7123,-0.0000 -59.2308,26.5185 -59.2308 59.2308c -0.0000,32.7123 26.5185,59.2308 59.2308 59.2308c 32.7123,0.0000 59.2308,-26.5185 59.2308 -59.2308Z"/></g><g stroke-linejoin="miter" fill-opacity="1.0" font-size="18" fill="rgb(0,0,0)" stroke="rgb(0,0,0)" stroke-linecap="butt" stroke-miterlimit="10.0" stroke-opacity="1.0" stroke-width="1.7708754896942929"><text transform="matrix(1.0000,0.0000,0.0000,1.0000,215.3846,72.6923)" stroke="none" dominant-baseline="middle" text-anchor="middle">fetchRBBody</text></g><g stroke-linejoin="miter" fill-opacity="0.0" fill="rgb(0,0,0)" stroke="rgb(0,0,0)" stroke-linecap="butt" stroke-miterlimit="10.0" stroke-opacity="1.0" stroke-width="1.7708754896942929"><path d="M 13.4615,72.6923 h 134.6154 "/></g><g stroke-linejoin="miter" fill-opacity="0.0" fill="rgb(0,0,0)" stroke="rgb(0,0,0)" stroke-linecap="butt" stroke-miterlimit="10.0" stroke-opacity="1.0" stroke-width="1.7708754896942929"><path d="M 80.7692,72.6923 l 67.3077,134.6154 "/></g><g stroke-linejoin="miter" fill-opacity="0.0" fill="rgb(0,0,0)" stroke="rgb(0,0,0)" stroke-linecap="butt" stroke-miterlimit="10.0" stroke-opacity="1.0" stroke-width="1.7708754896942929"><path d="M 80.7692,72.6923 h 67.3077 "/></g><g stroke-linejoin="miter" fill-opacity="1.0" fill="rgb(255,255,255)" stroke="rgb(0,0,0)" stroke-linecap="butt" stroke-miterlimit="10.0" stroke-opacity="1.0" stroke-width="1.7708754896942929"><path d="M 107.6923,99.6154 l -0.0000,-53.8462 h -53.8462 l -0.0000,53.8462 Z"/></g><g stroke-linejoin="miter" fill-opacity="0.0" fill="rgb(0,0,0)" stroke="rgb(0,0,0)" stroke-linecap="butt" stroke-miterlimit="10.0" stroke-opacity="1.0" stroke-width="1.7"><path d="M 80.7692,89.9231 l 13.4615,-32.3077 "/></g><g stroke-linejoin="miter" fill-opacity="0.0" fill="rgb(0,0,0)" stroke="rgb(0,0,0)" stroke-linecap="butt" stroke-miterlimit="10.0" stroke-opacity="1.0" stroke-width="1.7"><path d="M 80.7692,89.9231 l -13.4615,-32.3077 "/></g><g stroke-linejoin="miter" fill-opacity="0.0" fill="rgb(0,0,0)" stroke="rgb(0,0,0)" stroke-linecap="butt" stroke-miterlimit="10.0" stroke-opacity="1.0" stroke-width="1.7"><path d="M 80.7692,71.0769 h -8.6154 h 17.2308 "/></g></svg>
