<svg xmlns="http://www.w3.org/2000/svg" xmlns:xlink="http://www.w3.org/1999/xlink" width="163pt" height="100pt" viewBox="0.00 0.00 163.00 100.00">
<g id="graph0" class="graph" transform="scale(1 1) rotate(0) translate(4 96.29)">
<title>TxCache</title>
<polygon fill="white" stroke="none" points="-4,4 -4,-96.29 158.62,-96.29 158.62,4 -4,4"/>
<!-- miss -->
<g id="node1" class="node">
<title>miss</title>
<ellipse fill="none" stroke="black" cx="28.75" cy="-28.75" rx="28.75" ry="28.75"/>
<text xml:space="preserve" text-anchor="middle" x="28.75" y="-24.55" font-family="Times,serif" font-size="14.00">miss</text>
</g>
<!-- miss&#45;&gt;miss -->
<g id="edge1" class="edge">
<title>miss-&gt;miss</title>
<path fill="none" stroke="black" d="M18.3,-55.65C17.71,-66.44 21.19,-75.49 28.75,-75.49 33.35,-75.49 36.44,-72.13 38.02,-67.06"/>
<polygon fill="black" stroke="black" points="41.5,-67.46 39.04,-57.15 34.54,-66.74 41.5,-67.46"/>
<text xml:space="preserve" text-anchor="middle" x="28.75" y="-79.69" font-family="Times,serif" font-size="14.00">1-p</text>
</g>
<!-- hit -->
<g id="node2" class="node">
<title>hit</title>
<ellipse fill="none" stroke="black" cx="133.39" cy="-28.75" rx="21.23" ry="21.23"/>
<text xml:space="preserve" text-anchor="middle" x="133.39" y="-24.55" font-family="Times,serif" font-size="14.00">hit</text>
</g>
<!-- miss&#45;&gt;hit -->
<g id="edge2" class="edge">
<title>miss-&gt;hit</title>
<path fill="none" stroke="black" d="M57.79,-28.75C71.02,-28.75 86.85,-28.75 100.52,-28.75"/>
<polygon fill="black" stroke="black" points="100.35,-32.25 110.35,-28.75 100.35,-25.25 100.35,-32.25"/>
<text xml:space="preserve" text-anchor="middle" x="84.83" y="-32.95" font-family="Times,serif" font-size="14.00">p</text>
</g>
<!-- hit&#45;&gt;miss -->
<g id="edge4" class="edge">
<title>hit-&gt;miss</title>
<path fill="none" stroke="black" d="M115.26,-17.06C108.91,-13.39 101.48,-9.81 94.16,-7.95 84.5,-5.49 74.17,-6.94 64.68,-9.99"/>
<polygon fill="black" stroke="black" points="63.46,-6.71 55.41,-13.6 66,-13.23 63.46,-6.71"/>
<text xml:space="preserve" text-anchor="middle" x="84.83" y="-12.15" font-family="Times,serif" font-size="14.00">1-q</text>
</g>
<!-- hit&#45;&gt;hit -->
<g id="edge3" class="edge">
<title>hit-&gt;hit</title>
<path fill="none" stroke="black" d="M124.6,-48.53C123.25,-58.76 126.18,-67.98 133.39,-67.98 137.67,-67.98 140.44,-64.73 141.7,-59.95"/>
<polygon fill="black" stroke="black" points="145.19,-60.18 142.11,-50.04 138.2,-59.89 145.19,-60.18"/>
<text xml:space="preserve" text-anchor="middle" x="133.39" y="-72.18" font-family="Times,serif" font-size="14.00">q</text>
</g>
</g>
</svg>