<svg xmlns="http://www.w3.org/2000/svg" xmlns:xlink="http://www.w3.org/1999/xlink" width="181pt" height="100pt" viewBox="0.00 0.00 181.00 100.00">
<g id="graph0" class="graph" transform="scale(1 1) rotate(0) translate(4 96.29)">
<title>TxCache</title>
<polygon fill="white" stroke="none" points="-4,4 -4,-96.29 176.51,-96.29 176.51,4 -4,4"/>
<!-- miss -->
<g id="node1" class="node">
<title>miss</title>
<ellipse fill="none" stroke="black" cx="28.75" cy="-28.75" rx="28.75" ry="28.75"/>
<text xml:space="preserve" text-anchor="middle" x="28.75" y="-24.55" font-family="Times,serif" font-size="14.00">miss</text>
</g>
<!-- miss&#45;&gt;miss -->
<g id="edge4" class="edge">
<title>miss-&gt;miss</title>
<path fill="none" stroke="black" d="M16.66,-55.18C15.83,-66.17 19.86,-75.49 28.75,-75.49 34.3,-75.49 37.96,-71.85 39.72,-66.44"/>
<polygon fill="black" stroke="black" points="43.18,-66.98 40.68,-56.68 36.22,-66.29 43.18,-66.98"/>
<text xml:space="preserve" text-anchor="middle" x="28.75" y="-79.69" font-family="Times,serif" font-size="14.00">1 - p</text>
</g>
<!-- hit -->
<g id="node2" class="node">
<title>hit</title>
<ellipse fill="none" stroke="black" cx="151.28" cy="-28.75" rx="21.23" ry="21.23"/>
<text xml:space="preserve" text-anchor="middle" x="151.28" y="-24.55" font-family="Times,serif" font-size="14.00">hit</text>
</g>
<!-- miss&#45;&gt;hit -->
<g id="edge2" class="edge">
<title>miss-&gt;hit</title>
<path fill="none" stroke="black" d="M57.7,-28.75C75.81,-28.75 99.46,-28.75 118.31,-28.75"/>
<polygon fill="black" stroke="black" points="118.11,-32.25 128.11,-28.75 118.11,-25.25 118.11,-32.25"/>
<text xml:space="preserve" text-anchor="middle" x="93.77" y="-32.95" font-family="Times,serif" font-size="14.00">p</text>
</g>
<!-- hit&#45;&gt;miss -->
<g id="edge1" class="edge">
<title>hit-&gt;miss</title>
<path fill="none" stroke="black" d="M132.63,-17.98C126.36,-14.73 119.11,-11.59 112.05,-9.95 96.22,-6.27 91.43,-6.8 75.49,-9.95 72.15,-10.61 68.74,-11.52 65.37,-12.58"/>
<polygon fill="black" stroke="black" points="64.48,-9.18 56.27,-15.87 66.86,-15.76 64.48,-9.18"/>
<text xml:space="preserve" text-anchor="middle" x="93.77" y="-14.15" font-family="Times,serif" font-size="14.00">1 - p/2</text>
</g>
<!-- hit&#45;&gt;hit -->
<g id="edge3" class="edge">
<title>hit-&gt;hit</title>
<path fill="none" stroke="black" d="M141.01,-47.72C139.09,-58.27 142.52,-67.98 151.28,-67.98 156.62,-67.98 159.97,-64.37 161.35,-59.17"/>
<polygon fill="black" stroke="black" points="164.84,-59.29 161.52,-49.23 157.85,-59.17 164.84,-59.29"/>
<text xml:space="preserve" text-anchor="middle" x="151.28" y="-72.18" font-family="Times,serif" font-size="14.00">p/2</text>
</g>
</g>
</svg>