<svg xmlns="http://www.w3.org/2000/svg" xmlns:xlink="http://www.w3.org/1999/xlink" width="225pt" height="115pt" viewBox="0.00 0.00 225.00 115.00">
<g id="graph0" class="graph" transform="scale(1 1) rotate(0) translate(4 110.9)">
<title>TxCache</title>
<polygon fill="white" stroke="none" points="-4,4 -4,-110.9 220.74,-110.9 220.74,4 -4,4"/>
<!-- hit -->
<g id="node1" class="node">
<title>hit</title>
<ellipse fill="none" stroke="black" cx="36.05" cy="-36.05" rx="36.05" ry="36.05"/>
<text xml:space="preserve" text-anchor="middle" x="36.05" y="-40.25" font-family="Times,serif" font-size="14.00">Cache</text>
<text xml:space="preserve" text-anchor="middle" x="36.05" y="-23.45" font-family="Times,serif" font-size="14.00">Hit</text>
</g>
<!-- hit&#45;&gt;hit -->
<g id="edge3" class="edge">
<title>hit-&gt;hit</title>
<path fill="none" stroke="black" d="M22.49,-69.83C22.49,-81.09 27.01,-90.1 36.05,-90.1 41.84,-90.1 45.78,-86.4 47.86,-80.78"/>
<polygon fill="black" stroke="black" points="51.25,-81.75 49.37,-71.32 44.33,-80.64 51.25,-81.75"/>
<text xml:space="preserve" text-anchor="middle" x="36.05" y="-94.3" font-family="Times,serif" font-size="14.00">p/2</text>
</g>
<!-- miss -->
<g id="node2" class="node">
<title>miss</title>
<ellipse fill="none" stroke="black" cx="180.7" cy="-36.05" rx="36.05" ry="36.05"/>
<text xml:space="preserve" text-anchor="middle" x="180.7" y="-40.25" font-family="Times,serif" font-size="14.00">Cache</text>
<text xml:space="preserve" text-anchor="middle" x="180.7" y="-23.45" font-family="Times,serif" font-size="14.00">Miss</text>
</g>
<!-- hit&#45;&gt;miss -->
<g id="edge1" class="edge">
<title>hit-&gt;miss</title>
<path fill="none" stroke="black" d="M72.31,-36.05C90.65,-36.05 113.32,-36.05 133.09,-36.05"/>
<polygon fill="black" stroke="black" points="132.83,-39.55 142.83,-36.05 132.83,-32.55 132.83,-39.55"/>
<text xml:space="preserve" text-anchor="middle" x="108.37" y="-40.25" font-family="Times,serif" font-size="14.00">1 - p/2</text>
</g>
<!-- miss&#45;&gt;hit -->
<g id="edge2" class="edge">
<title>miss-&gt;hit</title>
<path fill="none" stroke="black" d="M147.44,-21.2C140.7,-18.73 133.55,-16.55 126.65,-15.25 110.69,-12.23 106.06,-12.23 90.1,-15.25 86.75,-15.88 83.35,-16.72 79.97,-17.69"/>
<polygon fill="black" stroke="black" points="79.15,-14.28 70.74,-20.73 81.34,-20.93 79.15,-14.28"/>
<text xml:space="preserve" text-anchor="middle" x="108.37" y="-19.45" font-family="Times,serif" font-size="14.00">p</text>
</g>
<!-- miss&#45;&gt;miss -->
<g id="edge4" class="edge">
<title>miss-&gt;miss</title>
<path fill="none" stroke="black" d="M167.13,-69.83C167.13,-81.09 171.66,-90.1 180.7,-90.1 186.49,-90.1 190.42,-86.4 192.5,-80.78"/>
<polygon fill="black" stroke="black" points="195.89,-81.75 194.02,-71.32 188.98,-80.64 195.89,-81.75"/>
<text xml:space="preserve" text-anchor="middle" x="180.7" y="-94.3" font-family="Times,serif" font-size="14.00">1 - p</text>
</g>
</g>
</svg>