<?xml version="1.0" encoding="utf-8" standalone="no"?>
<!DOCTYPE svg PUBLIC "-//W3C//DTD SVG 1.1//EN"
  "http://www.w3.org/Graphics/SVG/1.1/DTD/svg11.dtd">
<svg xmlns:xlink="http://www.w3.org/1999/xlink" width="648pt" height="360pt" viewBox="0 0 648 360" xmlns="http://www.w3.org/2000/svg" version="1.1">
 <metadata>
  <rdf:RDF xmlns:dc="http://purl.org/dc/elements/1.1/" xmlns:cc="http://creativecommons.org/ns#" xmlns:rdf="http://www.w3.org/1999/02/22-rdf-syntax-ns#">
   <cc:Work>
    <dc:type rdf:resource="http://purl.org/dc/dcmitype/StillImage"/>
    <dc:date>2026-05-29T13:04:45.761132</dc:date>
    <dc:format>image/svg+xml</dc:format>
    <dc:creator>
     <cc:Agent>
      <dc:title>Matplotlib v3.10.9, https://matplotlib.org/</dc:title>
     </cc:Agent>
    </dc:creator>
   </cc:Work>
  </rdf:RDF>
 </metadata>
 <defs>
  <style type="text/css">*{stroke-linejoin: round; stroke-linecap: butt}</style>
 </defs>
 <g id="figure_1">
  <g id="patch_1">
   <path d="M 0 360 
L 648 360 
L 648 0 
L 0 0 
z
" style="fill: #ffffff"/>
  </g>
  <g id="axes_1">
   <g id="patch_2">
    <path d="M 47.72 318.04 
L 630.9 318.04 
L 630.9 41.856 
L 47.72 41.856 
z
" style="fill: #ffffff"/>
   </g>
   <g id="matplotlib.axis_1">
    <g id="xtick_1">
     <g id="line2d_1">
      <path d="M 47.72 318.04 
L 47.72 41.856 
" clip-path="url(#pf7ee67a792)" style="fill: none; stroke: #b0b0b0; stroke-opacity: 0.3; stroke-width: 0.8; stroke-linecap: square"/>
     </g>
     <g id="line2d_2">
      <defs>
       <path id="m097c28c3f9" d="M 0 0 
L 0 3.5 
" style="stroke: #000000; stroke-width: 0.8"/>
      </defs>
      <g>
       <use xlink:href="#m097c28c3f9" x="47.72" y="318.04" style="stroke: #000000; stroke-width: 0.8"/>
      </g>
     </g>
     <g id="text_1">
      <!-- 0 -->
      <g transform="translate(44.53875 332.638438) scale(0.1 -0.1)">
       <defs>
        <path id="DejaVuSans-30" d="M 2034 4250 
Q 1547 4250 1301 3770 
Q 1056 3291 1056 2328 
Q 1056 1369 1301 889 
Q 1547 409 2034 409 
Q 2525 409 2770 889 
Q 3016 1369 3016 2328 
Q 3016 3291 2770 3770 
Q 2525 4250 2034 4250 
z
M 2034 4750 
Q 2819 4750 3233 4129 
Q 3647 3509 3647 2328 
Q 3647 1150 3233 529 
Q 2819 -91 2034 -91 
Q 1250 -91 836 529 
Q 422 1150 422 2328 
Q 422 3509 836 4129 
Q 1250 4750 2034 4750 
z
" transform="scale(0.015625)"/>
       </defs>
       <use xlink:href="#DejaVuSans-30"/>
      </g>
     </g>
    </g>
    <g id="xtick_2">
     <g id="line2d_3">
      <path d="M 144.916667 318.04 
L 144.916667 41.856 
" clip-path="url(#pf7ee67a792)" style="fill: none; stroke: #b0b0b0; stroke-opacity: 0.3; stroke-width: 0.8; stroke-linecap: square"/>
     </g>
     <g id="line2d_4">
      <g>
       <use xlink:href="#m097c28c3f9" x="144.916667" y="318.04" style="stroke: #000000; stroke-width: 0.8"/>
      </g>
     </g>
     <g id="text_2">
      <!-- 5 -->
      <g transform="translate(141.735417 332.638438) scale(0.1 -0.1)">
       <defs>
        <path id="DejaVuSans-35" d="M 691 4666 
L 3169 4666 
L 3169 4134 
L 1269 4134 
L 1269 2991 
Q 1406 3038 1543 3061 
Q 1681 3084 1819 3084 
Q 2600 3084 3056 2656 
Q 3513 2228 3513 1497 
Q 3513 744 3044 326 
Q 2575 -91 1722 -91 
Q 1428 -91 1123 -41 
Q 819 9 494 109 
L 494 744 
Q 775 591 1075 516 
Q 1375 441 1709 441 
Q 2250 441 2565 725 
Q 2881 1009 2881 1497 
Q 2881 1984 2565 2268 
Q 2250 2553 1709 2553 
Q 1456 2553 1204 2497 
Q 953 2441 691 2322 
L 691 4666 
z
" transform="scale(0.015625)"/>
       </defs>
       <use xlink:href="#DejaVuSans-35"/>
      </g>
     </g>
    </g>
    <g id="xtick_3">
     <g id="line2d_5">
      <path d="M 242.113333 318.04 
L 242.113333 41.856 
" clip-path="url(#pf7ee67a792)" style="fill: none; stroke: #b0b0b0; stroke-opacity: 0.3; stroke-width: 0.8; stroke-linecap: square"/>
     </g>
     <g id="line2d_6">
      <g>
       <use xlink:href="#m097c28c3f9" x="242.113333" y="318.04" style="stroke: #000000; stroke-width: 0.8"/>
      </g>
     </g>
     <g id="text_3">
      <!-- 10 -->
      <g transform="translate(235.750833 332.638438) scale(0.1 -0.1)">
       <defs>
        <path id="DejaVuSans-31" d="M 794 531 
L 1825 531 
L 1825 4091 
L 703 3866 
L 703 4441 
L 1819 4666 
L 2450 4666 
L 2450 531 
L 3481 531 
L 3481 0 
L 794 0 
L 794 531 
z
" transform="scale(0.015625)"/>
       </defs>
       <use xlink:href="#DejaVuSans-31"/>
       <use xlink:href="#DejaVuSans-30" transform="translate(63.623047 0)"/>
      </g>
     </g>
    </g>
    <g id="xtick_4">
     <g id="line2d_7">
      <path d="M 339.31 318.04 
L 339.31 41.856 
" clip-path="url(#pf7ee67a792)" style="fill: none; stroke: #b0b0b0; stroke-opacity: 0.3; stroke-width: 0.8; stroke-linecap: square"/>
     </g>
     <g id="line2d_8">
      <g>
       <use xlink:href="#m097c28c3f9" x="339.31" y="318.04" style="stroke: #000000; stroke-width: 0.8"/>
      </g>
     </g>
     <g id="text_4">
      <!-- 15 -->
      <g transform="translate(332.9475 332.638438) scale(0.1 -0.1)">
       <use xlink:href="#DejaVuSans-31"/>
       <use xlink:href="#DejaVuSans-35" transform="translate(63.623047 0)"/>
      </g>
     </g>
    </g>
    <g id="xtick_5">
     <g id="line2d_9">
      <path d="M 436.506667 318.04 
L 436.506667 41.856 
" clip-path="url(#pf7ee67a792)" style="fill: none; stroke: #b0b0b0; stroke-opacity: 0.3; stroke-width: 0.8; stroke-linecap: square"/>
     </g>
     <g id="line2d_10">
      <g>
       <use xlink:href="#m097c28c3f9" x="436.506667" y="318.04" style="stroke: #000000; stroke-width: 0.8"/>
      </g>
     </g>
     <g id="text_5">
      <!-- 20 -->
      <g transform="translate(430.144167 332.638438) scale(0.1 -0.1)">
       <defs>
        <path id="DejaVuSans-32" d="M 1228 531 
L 3431 531 
L 3431 0 
L 469 0 
L 469 531 
Q 828 903 1448 1529 
Q 2069 2156 2228 2338 
Q 2531 2678 2651 2914 
Q 2772 3150 2772 3378 
Q 2772 3750 2511 3984 
Q 2250 4219 1831 4219 
Q 1534 4219 1204 4116 
Q 875 4013 500 3803 
L 500 4441 
Q 881 4594 1212 4672 
Q 1544 4750 1819 4750 
Q 2544 4750 2975 4387 
Q 3406 4025 3406 3419 
Q 3406 3131 3298 2873 
Q 3191 2616 2906 2266 
Q 2828 2175 2409 1742 
Q 1991 1309 1228 531 
z
" transform="scale(0.015625)"/>
       </defs>
       <use xlink:href="#DejaVuSans-32"/>
       <use xlink:href="#DejaVuSans-30" transform="translate(63.623047 0)"/>
      </g>
     </g>
    </g>
    <g id="xtick_6">
     <g id="line2d_11">
      <path d="M 533.703333 318.04 
L 533.703333 41.856 
" clip-path="url(#pf7ee67a792)" style="fill: none; stroke: #b0b0b0; stroke-opacity: 0.3; stroke-width: 0.8; stroke-linecap: square"/>
     </g>
     <g id="line2d_12">
      <g>
       <use xlink:href="#m097c28c3f9" x="533.703333" y="318.04" style="stroke: #000000; stroke-width: 0.8"/>
      </g>
     </g>
     <g id="text_6">
      <!-- 25 -->
      <g transform="translate(527.340833 332.638438) scale(0.1 -0.1)">
       <use xlink:href="#DejaVuSans-32"/>
       <use xlink:href="#DejaVuSans-35" transform="translate(63.623047 0)"/>
      </g>
     </g>
    </g>
    <g id="xtick_7">
     <g id="line2d_13">
      <path d="M 630.9 318.04 
L 630.9 41.856 
" clip-path="url(#pf7ee67a792)" style="fill: none; stroke: #b0b0b0; stroke-opacity: 0.3; stroke-width: 0.8; stroke-linecap: square"/>
     </g>
     <g id="line2d_14">
      <g>
       <use xlink:href="#m097c28c3f9" x="630.9" y="318.04" style="stroke: #000000; stroke-width: 0.8"/>
      </g>
     </g>
     <g id="text_7">
      <!-- 30 -->
      <g transform="translate(624.5375 332.638438) scale(0.1 -0.1)">
       <defs>
        <path id="DejaVuSans-33" d="M 2597 2516 
Q 3050 2419 3304 2112 
Q 3559 1806 3559 1356 
Q 3559 666 3084 287 
Q 2609 -91 1734 -91 
Q 1441 -91 1130 -33 
Q 819 25 488 141 
L 488 750 
Q 750 597 1062 519 
Q 1375 441 1716 441 
Q 2309 441 2620 675 
Q 2931 909 2931 1356 
Q 2931 1769 2642 2001 
Q 2353 2234 1838 2234 
L 1294 2234 
L 1294 2753 
L 1863 2753 
Q 2328 2753 2575 2939 
Q 2822 3125 2822 3475 
Q 2822 3834 2567 4026 
Q 2313 4219 1838 4219 
Q 1578 4219 1281 4162 
Q 984 4106 628 3988 
L 628 4550 
Q 988 4650 1302 4700 
Q 1616 4750 1894 4750 
Q 2613 4750 3031 4423 
Q 3450 4097 3450 3541 
Q 3450 3153 3228 2886 
Q 3006 2619 2597 2516 
z
" transform="scale(0.015625)"/>
       </defs>
       <use xlink:href="#DejaVuSans-33"/>
       <use xlink:href="#DejaVuSans-30" transform="translate(63.623047 0)"/>
      </g>
     </g>
    </g>
    <g id="text_8">
     <!-- Time (seconds) -->
     <g transform="translate(301.148281 346.316563) scale(0.1 -0.1)">
      <defs>
       <path id="DejaVuSans-54" d="M -19 4666 
L 3928 4666 
L 3928 4134 
L 2272 4134 
L 2272 0 
L 1638 0 
L 1638 4134 
L -19 4134 
L -19 4666 
z
" transform="scale(0.015625)"/>
       <path id="DejaVuSans-69" d="M 603 3500 
L 1178 3500 
L 1178 0 
L 603 0 
L 603 3500 
z
M 603 4863 
L 1178 4863 
L 1178 4134 
L 603 4134 
L 603 4863 
z
" transform="scale(0.015625)"/>
       <path id="DejaVuSans-6d" d="M 3328 2828 
Q 3544 3216 3844 3400 
Q 4144 3584 4550 3584 
Q 5097 3584 5394 3201 
Q 5691 2819 5691 2113 
L 5691 0 
L 5113 0 
L 5113 2094 
Q 5113 2597 4934 2840 
Q 4756 3084 4391 3084 
Q 3944 3084 3684 2787 
Q 3425 2491 3425 1978 
L 3425 0 
L 2847 0 
L 2847 2094 
Q 2847 2600 2669 2842 
Q 2491 3084 2119 3084 
Q 1678 3084 1418 2786 
Q 1159 2488 1159 1978 
L 1159 0 
L 581 0 
L 581 3500 
L 1159 3500 
L 1159 2956 
Q 1356 3278 1631 3431 
Q 1906 3584 2284 3584 
Q 2666 3584 2933 3390 
Q 3200 3197 3328 2828 
z
" transform="scale(0.015625)"/>
       <path id="DejaVuSans-65" d="M 3597 1894 
L 3597 1613 
L 953 1613 
Q 991 1019 1311 708 
Q 1631 397 2203 397 
Q 2534 397 2845 478 
Q 3156 559 3463 722 
L 3463 178 
Q 3153 47 2828 -22 
Q 2503 -91 2169 -91 
Q 1331 -91 842 396 
Q 353 884 353 1716 
Q 353 2575 817 3079 
Q 1281 3584 2069 3584 
Q 2775 3584 3186 3129 
Q 3597 2675 3597 1894 
z
M 3022 2063 
Q 3016 2534 2758 2815 
Q 2500 3097 2075 3097 
Q 1594 3097 1305 2825 
Q 1016 2553 972 2059 
L 3022 2063 
z
" transform="scale(0.015625)"/>
       <path id="DejaVuSans-20" transform="scale(0.015625)"/>
       <path id="DejaVuSans-28" d="M 1984 4856 
Q 1566 4138 1362 3434 
Q 1159 2731 1159 2009 
Q 1159 1288 1364 580 
Q 1569 -128 1984 -844 
L 1484 -844 
Q 1016 -109 783 600 
Q 550 1309 550 2009 
Q 550 2706 781 3412 
Q 1013 4119 1484 4856 
L 1984 4856 
z
" transform="scale(0.015625)"/>
       <path id="DejaVuSans-73" d="M 2834 3397 
L 2834 2853 
Q 2591 2978 2328 3040 
Q 2066 3103 1784 3103 
Q 1356 3103 1142 2972 
Q 928 2841 928 2578 
Q 928 2378 1081 2264 
Q 1234 2150 1697 2047 
L 1894 2003 
Q 2506 1872 2764 1633 
Q 3022 1394 3022 966 
Q 3022 478 2636 193 
Q 2250 -91 1575 -91 
Q 1294 -91 989 -36 
Q 684 19 347 128 
L 347 722 
Q 666 556 975 473 
Q 1284 391 1588 391 
Q 1994 391 2212 530 
Q 2431 669 2431 922 
Q 2431 1156 2273 1281 
Q 2116 1406 1581 1522 
L 1381 1569 
Q 847 1681 609 1914 
Q 372 2147 372 2553 
Q 372 3047 722 3315 
Q 1072 3584 1716 3584 
Q 2034 3584 2315 3537 
Q 2597 3491 2834 3397 
z
" transform="scale(0.015625)"/>
       <path id="DejaVuSans-63" d="M 3122 3366 
L 3122 2828 
Q 2878 2963 2633 3030 
Q 2388 3097 2138 3097 
Q 1578 3097 1268 2742 
Q 959 2388 959 1747 
Q 959 1106 1268 751 
Q 1578 397 2138 397 
Q 2388 397 2633 464 
Q 2878 531 3122 666 
L 3122 134 
Q 2881 22 2623 -34 
Q 2366 -91 2075 -91 
Q 1284 -91 818 406 
Q 353 903 353 1747 
Q 353 2603 823 3093 
Q 1294 3584 2113 3584 
Q 2378 3584 2631 3529 
Q 2884 3475 3122 3366 
z
" transform="scale(0.015625)"/>
       <path id="DejaVuSans-6f" d="M 1959 3097 
Q 1497 3097 1228 2736 
Q 959 2375 959 1747 
Q 959 1119 1226 758 
Q 1494 397 1959 397 
Q 2419 397 2687 759 
Q 2956 1122 2956 1747 
Q 2956 2369 2687 2733 
Q 2419 3097 1959 3097 
z
M 1959 3584 
Q 2709 3584 3137 3096 
Q 3566 2609 3566 1747 
Q 3566 888 3137 398 
Q 2709 -91 1959 -91 
Q 1206 -91 779 398 
Q 353 888 353 1747 
Q 353 2609 779 3096 
Q 1206 3584 1959 3584 
z
" transform="scale(0.015625)"/>
       <path id="DejaVuSans-6e" d="M 3513 2113 
L 3513 0 
L 2938 0 
L 2938 2094 
Q 2938 2591 2744 2837 
Q 2550 3084 2163 3084 
Q 1697 3084 1428 2787 
Q 1159 2491 1159 1978 
L 1159 0 
L 581 0 
L 581 3500 
L 1159 3500 
L 1159 2956 
Q 1366 3272 1645 3428 
Q 1925 3584 2291 3584 
Q 2894 3584 3203 3211 
Q 3513 2838 3513 2113 
z
" transform="scale(0.015625)"/>
       <path id="DejaVuSans-64" d="M 2906 2969 
L 2906 4863 
L 3481 4863 
L 3481 0 
L 2906 0 
L 2906 525 
Q 2725 213 2448 61 
Q 2172 -91 1784 -91 
Q 1150 -91 751 415 
Q 353 922 353 1747 
Q 353 2572 751 3078 
Q 1150 3584 1784 3584 
Q 2172 3584 2448 3432 
Q 2725 3281 2906 2969 
z
M 947 1747 
Q 947 1113 1208 752 
Q 1469 391 1925 391 
Q 2381 391 2643 752 
Q 2906 1113 2906 1747 
Q 2906 2381 2643 2742 
Q 2381 3103 1925 3103 
Q 1469 3103 1208 2742 
Q 947 2381 947 1747 
z
" transform="scale(0.015625)"/>
       <path id="DejaVuSans-29" d="M 513 4856 
L 1013 4856 
Q 1481 4119 1714 3412 
Q 1947 2706 1947 2009 
Q 1947 1309 1714 600 
Q 1481 -109 1013 -844 
L 513 -844 
Q 928 -128 1133 580 
Q 1338 1288 1338 2009 
Q 1338 2731 1133 3434 
Q 928 4138 513 4856 
z
" transform="scale(0.015625)"/>
      </defs>
      <use xlink:href="#DejaVuSans-54"/>
      <use xlink:href="#DejaVuSans-69" transform="translate(57.958984 0)"/>
      <use xlink:href="#DejaVuSans-6d" transform="translate(85.742188 0)"/>
      <use xlink:href="#DejaVuSans-65" transform="translate(183.154297 0)"/>
      <use xlink:href="#DejaVuSans-20" transform="translate(244.677734 0)"/>
      <use xlink:href="#DejaVuSans-28" transform="translate(276.464844 0)"/>
      <use xlink:href="#DejaVuSans-73" transform="translate(315.478516 0)"/>
      <use xlink:href="#DejaVuSans-65" transform="translate(367.578125 0)"/>
      <use xlink:href="#DejaVuSans-63" transform="translate(429.101562 0)"/>
      <use xlink:href="#DejaVuSans-6f" transform="translate(484.082031 0)"/>
      <use xlink:href="#DejaVuSans-6e" transform="translate(545.263672 0)"/>
      <use xlink:href="#DejaVuSans-64" transform="translate(608.642578 0)"/>
      <use xlink:href="#DejaVuSans-73" transform="translate(672.119141 0)"/>
      <use xlink:href="#DejaVuSans-29" transform="translate(724.21875 0)"/>
     </g>
    </g>
   </g>
   <g id="matplotlib.axis_2">
    <g id="ytick_1">
     <g id="line2d_15">
      <path d="M 47.72 318.04 
L 630.9 318.04 
" clip-path="url(#pf7ee67a792)" style="fill: none; stroke: #b0b0b0; stroke-opacity: 0.3; stroke-width: 0.8; stroke-linecap: square"/>
     </g>
     <g id="line2d_16">
      <defs>
       <path id="mdc718d1b63" d="M 0 0 
L -3.5 0 
" style="stroke: #000000; stroke-width: 0.8"/>
      </defs>
      <g>
       <use xlink:href="#mdc718d1b63" x="47.72" y="318.04" style="stroke: #000000; stroke-width: 0.8"/>
      </g>
     </g>
     <g id="text_9">
      <!-- 0.0 -->
      <g transform="translate(24.816875 321.839219) scale(0.1 -0.1)">
       <defs>
        <path id="DejaVuSans-2e" d="M 684 794 
L 1344 794 
L 1344 0 
L 684 0 
L 684 794 
z
" transform="scale(0.015625)"/>
       </defs>
       <use xlink:href="#DejaVuSans-30"/>
       <use xlink:href="#DejaVuSans-2e" transform="translate(63.623047 0)"/>
       <use xlink:href="#DejaVuSans-30" transform="translate(95.410156 0)"/>
      </g>
     </g>
    </g>
    <g id="ytick_2">
     <g id="line2d_17">
      <path d="M 47.72 263.886275 
L 630.9 263.886275 
" clip-path="url(#pf7ee67a792)" style="fill: none; stroke: #b0b0b0; stroke-opacity: 0.3; stroke-width: 0.8; stroke-linecap: square"/>
     </g>
     <g id="line2d_18">
      <g>
       <use xlink:href="#mdc718d1b63" x="47.72" y="263.886275" style="stroke: #000000; stroke-width: 0.8"/>
      </g>
     </g>
     <g id="text_10">
      <!-- 0.2 -->
      <g transform="translate(24.816875 267.685493) scale(0.1 -0.1)">
       <use xlink:href="#DejaVuSans-30"/>
       <use xlink:href="#DejaVuSans-2e" transform="translate(63.623047 0)"/>
       <use xlink:href="#DejaVuSans-32" transform="translate(95.410156 0)"/>
      </g>
     </g>
    </g>
    <g id="ytick_3">
     <g id="line2d_19">
      <path d="M 47.72 209.732549 
L 630.9 209.732549 
" clip-path="url(#pf7ee67a792)" style="fill: none; stroke: #b0b0b0; stroke-opacity: 0.3; stroke-width: 0.8; stroke-linecap: square"/>
     </g>
     <g id="line2d_20">
      <g>
       <use xlink:href="#mdc718d1b63" x="47.72" y="209.732549" style="stroke: #000000; stroke-width: 0.8"/>
      </g>
     </g>
     <g id="text_11">
      <!-- 0.4 -->
      <g transform="translate(24.816875 213.531768) scale(0.1 -0.1)">
       <defs>
        <path id="DejaVuSans-34" d="M 2419 4116 
L 825 1625 
L 2419 1625 
L 2419 4116 
z
M 2253 4666 
L 3047 4666 
L 3047 1625 
L 3713 1625 
L 3713 1100 
L 3047 1100 
L 3047 0 
L 2419 0 
L 2419 1100 
L 313 1100 
L 313 1709 
L 2253 4666 
z
" transform="scale(0.015625)"/>
       </defs>
       <use xlink:href="#DejaVuSans-30"/>
       <use xlink:href="#DejaVuSans-2e" transform="translate(63.623047 0)"/>
       <use xlink:href="#DejaVuSans-34" transform="translate(95.410156 0)"/>
      </g>
     </g>
    </g>
    <g id="ytick_4">
     <g id="line2d_21">
      <path d="M 47.72 155.578824 
L 630.9 155.578824 
" clip-path="url(#pf7ee67a792)" style="fill: none; stroke: #b0b0b0; stroke-opacity: 0.3; stroke-width: 0.8; stroke-linecap: square"/>
     </g>
     <g id="line2d_22">
      <g>
       <use xlink:href="#mdc718d1b63" x="47.72" y="155.578824" style="stroke: #000000; stroke-width: 0.8"/>
      </g>
     </g>
     <g id="text_12">
      <!-- 0.6 -->
      <g transform="translate(24.816875 159.378042) scale(0.1 -0.1)">
       <defs>
        <path id="DejaVuSans-36" d="M 2113 2584 
Q 1688 2584 1439 2293 
Q 1191 2003 1191 1497 
Q 1191 994 1439 701 
Q 1688 409 2113 409 
Q 2538 409 2786 701 
Q 3034 994 3034 1497 
Q 3034 2003 2786 2293 
Q 2538 2584 2113 2584 
z
M 3366 4563 
L 3366 3988 
Q 3128 4100 2886 4159 
Q 2644 4219 2406 4219 
Q 1781 4219 1451 3797 
Q 1122 3375 1075 2522 
Q 1259 2794 1537 2939 
Q 1816 3084 2150 3084 
Q 2853 3084 3261 2657 
Q 3669 2231 3669 1497 
Q 3669 778 3244 343 
Q 2819 -91 2113 -91 
Q 1303 -91 875 529 
Q 447 1150 447 2328 
Q 447 3434 972 4092 
Q 1497 4750 2381 4750 
Q 2619 4750 2861 4703 
Q 3103 4656 3366 4563 
z
" transform="scale(0.015625)"/>
       </defs>
       <use xlink:href="#DejaVuSans-30"/>
       <use xlink:href="#DejaVuSans-2e" transform="translate(63.623047 0)"/>
       <use xlink:href="#DejaVuSans-36" transform="translate(95.410156 0)"/>
      </g>
     </g>
    </g>
    <g id="ytick_5">
     <g id="line2d_23">
      <path d="M 47.72 101.425098 
L 630.9 101.425098 
" clip-path="url(#pf7ee67a792)" style="fill: none; stroke: #b0b0b0; stroke-opacity: 0.3; stroke-width: 0.8; stroke-linecap: square"/>
     </g>
     <g id="line2d_24">
      <g>
       <use xlink:href="#mdc718d1b63" x="47.72" y="101.425098" style="stroke: #000000; stroke-width: 0.8"/>
      </g>
     </g>
     <g id="text_13">
      <!-- 0.8 -->
      <g transform="translate(24.816875 105.224317) scale(0.1 -0.1)">
       <defs>
        <path id="DejaVuSans-38" d="M 2034 2216 
Q 1584 2216 1326 1975 
Q 1069 1734 1069 1313 
Q 1069 891 1326 650 
Q 1584 409 2034 409 
Q 2484 409 2743 651 
Q 3003 894 3003 1313 
Q 3003 1734 2745 1975 
Q 2488 2216 2034 2216 
z
M 1403 2484 
Q 997 2584 770 2862 
Q 544 3141 544 3541 
Q 544 4100 942 4425 
Q 1341 4750 2034 4750 
Q 2731 4750 3128 4425 
Q 3525 4100 3525 3541 
Q 3525 3141 3298 2862 
Q 3072 2584 2669 2484 
Q 3125 2378 3379 2068 
Q 3634 1759 3634 1313 
Q 3634 634 3220 271 
Q 2806 -91 2034 -91 
Q 1263 -91 848 271 
Q 434 634 434 1313 
Q 434 1759 690 2068 
Q 947 2378 1403 2484 
z
M 1172 3481 
Q 1172 3119 1398 2916 
Q 1625 2713 2034 2713 
Q 2441 2713 2670 2916 
Q 2900 3119 2900 3481 
Q 2900 3844 2670 4047 
Q 2441 4250 2034 4250 
Q 1625 4250 1398 4047 
Q 1172 3844 1172 3481 
z
" transform="scale(0.015625)"/>
       </defs>
       <use xlink:href="#DejaVuSans-30"/>
       <use xlink:href="#DejaVuSans-2e" transform="translate(63.623047 0)"/>
       <use xlink:href="#DejaVuSans-38" transform="translate(95.410156 0)"/>
      </g>
     </g>
    </g>
    <g id="ytick_6">
     <g id="line2d_25">
      <path d="M 47.72 47.271373 
L 630.9 47.271373 
" clip-path="url(#pf7ee67a792)" style="fill: none; stroke: #b0b0b0; stroke-opacity: 0.3; stroke-width: 0.8; stroke-linecap: square"/>
     </g>
     <g id="line2d_26">
      <g>
       <use xlink:href="#mdc718d1b63" x="47.72" y="47.271373" style="stroke: #000000; stroke-width: 0.8"/>
      </g>
     </g>
     <g id="text_14">
      <!-- 1.0 -->
      <g transform="translate(24.816875 51.070591) scale(0.1 -0.1)">
       <use xlink:href="#DejaVuSans-31"/>
       <use xlink:href="#DejaVuSans-2e" transform="translate(63.623047 0)"/>
       <use xlink:href="#DejaVuSans-30" transform="translate(95.410156 0)"/>
      </g>
     </g>
    </g>
    <g id="text_15">
     <!-- CDF  –  P(complete within t) -->
     <g transform="translate(18.737188 249.596438) rotate(-90) scale(0.1 -0.1)">
      <defs>
       <path id="DejaVuSans-43" d="M 4122 4306 
L 4122 3641 
Q 3803 3938 3442 4084 
Q 3081 4231 2675 4231 
Q 1875 4231 1450 3742 
Q 1025 3253 1025 2328 
Q 1025 1406 1450 917 
Q 1875 428 2675 428 
Q 3081 428 3442 575 
Q 3803 722 4122 1019 
L 4122 359 
Q 3791 134 3420 21 
Q 3050 -91 2638 -91 
Q 1578 -91 968 557 
Q 359 1206 359 2328 
Q 359 3453 968 4101 
Q 1578 4750 2638 4750 
Q 3056 4750 3426 4639 
Q 3797 4528 4122 4306 
z
" transform="scale(0.015625)"/>
       <path id="DejaVuSans-44" d="M 1259 4147 
L 1259 519 
L 2022 519 
Q 2988 519 3436 956 
Q 3884 1394 3884 2338 
Q 3884 3275 3436 3711 
Q 2988 4147 2022 4147 
L 1259 4147 
z
M 628 4666 
L 1925 4666 
Q 3281 4666 3915 4102 
Q 4550 3538 4550 2338 
Q 4550 1131 3912 565 
Q 3275 0 1925 0 
L 628 0 
L 628 4666 
z
" transform="scale(0.015625)"/>
       <path id="DejaVuSans-46" d="M 628 4666 
L 3309 4666 
L 3309 4134 
L 1259 4134 
L 1259 2759 
L 3109 2759 
L 3109 2228 
L 1259 2228 
L 1259 0 
L 628 0 
L 628 4666 
z
" transform="scale(0.015625)"/>
       <path id="DejaVuSans-2013" d="M 313 1978 
L 2888 1978 
L 2888 1528 
L 313 1528 
L 313 1978 
z
" transform="scale(0.015625)"/>
       <path id="DejaVuSans-50" d="M 1259 4147 
L 1259 2394 
L 2053 2394 
Q 2494 2394 2734 2622 
Q 2975 2850 2975 3272 
Q 2975 3691 2734 3919 
Q 2494 4147 2053 4147 
L 1259 4147 
z
M 628 4666 
L 2053 4666 
Q 2838 4666 3239 4311 
Q 3641 3956 3641 3272 
Q 3641 2581 3239 2228 
Q 2838 1875 2053 1875 
L 1259 1875 
L 1259 0 
L 628 0 
L 628 4666 
z
" transform="scale(0.015625)"/>
       <path id="DejaVuSans-70" d="M 1159 525 
L 1159 -1331 
L 581 -1331 
L 581 3500 
L 1159 3500 
L 1159 2969 
Q 1341 3281 1617 3432 
Q 1894 3584 2278 3584 
Q 2916 3584 3314 3078 
Q 3713 2572 3713 1747 
Q 3713 922 3314 415 
Q 2916 -91 2278 -91 
Q 1894 -91 1617 61 
Q 1341 213 1159 525 
z
M 3116 1747 
Q 3116 2381 2855 2742 
Q 2594 3103 2138 3103 
Q 1681 3103 1420 2742 
Q 1159 2381 1159 1747 
Q 1159 1113 1420 752 
Q 1681 391 2138 391 
Q 2594 391 2855 752 
Q 3116 1113 3116 1747 
z
" transform="scale(0.015625)"/>
       <path id="DejaVuSans-6c" d="M 603 4863 
L 1178 4863 
L 1178 0 
L 603 0 
L 603 4863 
z
" transform="scale(0.015625)"/>
       <path id="DejaVuSans-74" d="M 1172 4494 
L 1172 3500 
L 2356 3500 
L 2356 3053 
L 1172 3053 
L 1172 1153 
Q 1172 725 1289 603 
Q 1406 481 1766 481 
L 2356 481 
L 2356 0 
L 1766 0 
Q 1100 0 847 248 
Q 594 497 594 1153 
L 594 3053 
L 172 3053 
L 172 3500 
L 594 3500 
L 594 4494 
L 1172 4494 
z
" transform="scale(0.015625)"/>
       <path id="DejaVuSans-77" d="M 269 3500 
L 844 3500 
L 1563 769 
L 2278 3500 
L 2956 3500 
L 3675 769 
L 4391 3500 
L 4966 3500 
L 4050 0 
L 3372 0 
L 2619 2869 
L 1863 0 
L 1184 0 
L 269 3500 
z
" transform="scale(0.015625)"/>
       <path id="DejaVuSans-68" d="M 3513 2113 
L 3513 0 
L 2938 0 
L 2938 2094 
Q 2938 2591 2744 2837 
Q 2550 3084 2163 3084 
Q 1697 3084 1428 2787 
Q 1159 2491 1159 1978 
L 1159 0 
L 581 0 
L 581 4863 
L 1159 4863 
L 1159 2956 
Q 1366 3272 1645 3428 
Q 1925 3584 2291 3584 
Q 2894 3584 3203 3211 
Q 3513 2838 3513 2113 
z
" transform="scale(0.015625)"/>
      </defs>
      <use xlink:href="#DejaVuSans-43"/>
      <use xlink:href="#DejaVuSans-44" transform="translate(69.824219 0)"/>
      <use xlink:href="#DejaVuSans-46" transform="translate(146.826172 0)"/>
      <use xlink:href="#DejaVuSans-20" transform="translate(204.345703 0)"/>
      <use xlink:href="#DejaVuSans-20" transform="translate(236.132812 0)"/>
      <use xlink:href="#DejaVuSans-2013" transform="translate(267.919922 0)"/>
      <use xlink:href="#DejaVuSans-20" transform="translate(317.919922 0)"/>
      <use xlink:href="#DejaVuSans-20" transform="translate(349.707031 0)"/>
      <use xlink:href="#DejaVuSans-50" transform="translate(381.494141 0)"/>
      <use xlink:href="#DejaVuSans-28" transform="translate(441.796875 0)"/>
      <use xlink:href="#DejaVuSans-63" transform="translate(480.810547 0)"/>
      <use xlink:href="#DejaVuSans-6f" transform="translate(535.791016 0)"/>
      <use xlink:href="#DejaVuSans-6d" transform="translate(596.972656 0)"/>
      <use xlink:href="#DejaVuSans-70" transform="translate(694.384766 0)"/>
      <use xlink:href="#DejaVuSans-6c" transform="translate(757.861328 0)"/>
      <use xlink:href="#DejaVuSans-65" transform="translate(785.644531 0)"/>
      <use xlink:href="#DejaVuSans-74" transform="translate(847.167969 0)"/>
      <use xlink:href="#DejaVuSans-65" transform="translate(886.376953 0)"/>
      <use xlink:href="#DejaVuSans-20" transform="translate(947.900391 0)"/>
      <use xlink:href="#DejaVuSans-77" transform="translate(979.6875 0)"/>
      <use xlink:href="#DejaVuSans-69" transform="translate(1061.474609 0)"/>
      <use xlink:href="#DejaVuSans-74" transform="translate(1089.257812 0)"/>
      <use xlink:href="#DejaVuSans-68" transform="translate(1128.466797 0)"/>
      <use xlink:href="#DejaVuSans-69" transform="translate(1191.845703 0)"/>
      <use xlink:href="#DejaVuSans-6e" transform="translate(1219.628906 0)"/>
      <use xlink:href="#DejaVuSans-20" transform="translate(1283.007812 0)"/>
      <use xlink:href="#DejaVuSans-74" transform="translate(1314.794922 0)"/>
      <use xlink:href="#DejaVuSans-29" transform="translate(1354.003906 0)"/>
     </g>
    </g>
   </g>
   <g id="line2d_27">
    <path d="M 47.914393 318.04 
L 56.273307 317.966894 
L 57.05088 317.740138 
L 58.21724 317.098041 
L 58.80042 316.631873 
L 59.189207 316.033426 
L 59.577993 315.025372 
L 60.744353 311.49699 
L 61.327533 310.83069 
L 61.71632 310.256689 
L 62.105107 309.008824 
L 62.688287 305.758985 
L 63.271467 302.921725 
L 63.660253 302.030214 
L 64.63222 300.879661 
L 65.021007 299.911197 
L 66.187367 296.272031 
L 66.576153 295.951451 
L 67.54812 295.535487 
L 67.936907 295.008907 
L 68.325693 294.152504 
L 68.71448 292.71834 
L 69.492053 288.318306 
L 70.075233 285.373394 
L 70.658413 283.821327 
L 71.0472 282.946902 
L 71.241593 282.205948 
L 71.63038 279.214282 
L 72.019167 273.817369 
L 72.79674 261.521586 
L 73.185527 258.298191 
L 73.574313 256.907006 
L 73.9631 255.878652 
L 74.351887 253.941448 
L 74.740673 249.931597 
L 75.71264 236.60425 
L 76.101427 234.505188 
L 76.490213 233.850314 
L 77.073393 233.248744 
L 77.46218 232.21194 
L 78.04536 228.976142 
L 78.434147 226.995079 
L 78.822933 225.866491 
L 79.21172 225.313409 
L 79.7949 224.630795 
L 80.572473 223.225391 
L 80.96126 221.913911 
L 81.350047 219.483992 
L 81.933227 213.630079 
L 82.516407 207.909657 
L 82.905193 205.975083 
L 83.29398 205.213946 
L 83.488373 204.911233 
L 83.682767 204.396669 
L 83.87716 203.453853 
L 84.265947 199.508075 
L 84.654733 192.093756 
L 85.432307 175.38117 
L 86.015487 168.424278 
L 86.404273 165.912197 
L 86.987453 163.125953 
L 87.37624 160.011531 
L 88.153813 153.117111 
L 88.5426 151.461846 
L 88.931387 150.888746 
L 89.514567 150.550255 
L 89.903353 149.91149 
L 90.486533 148.21861 
L 90.87532 146.261838 
L 91.847287 140.244453 
L 92.430467 137.991273 
L 92.819253 136.276442 
L 93.596827 132.155261 
L 93.985613 130.277044 
L 94.568793 125.687406 
L 95.151973 121.767912 
L 95.54076 120.47927 
L 96.70712 117.627942 
L 97.095907 115.557969 
L 98.262267 107.79205 
L 98.845447 105.875946 
L 99.817413 101.142125 
L 100.2062 100.698358 
L 101.95574 99.236875 
L 102.927707 96.929794 
L 103.70528 94.748079 
L 104.094067 94.390304 
L 104.87164 94.082217 
L 105.260427 93.51118 
L 105.843607 92.36846 
L 106.62118 91.551987 
L 107.009967 90.528631 
L 107.981933 86.50678 
L 108.759507 82.097461 
L 109.148293 81.360178 
L 109.731473 81.039086 
L 112.258587 80.114574 
L 112.45298 79.979624 
L 112.647373 79.700249 
L 113.03616 78.435664 
L 114.20252 73.376122 
L 114.591307 72.249731 
L 114.980093 71.842399 
L 116.340847 71.396472 
L 117.507207 71.223719 
L 118.479173 71.175733 
L 118.86796 70.853823 
L 119.645533 69.139249 
L 120.03432 68.021754 
L 121.006287 63.370893 
L 121.395073 62.995502 
L 122.172647 62.711711 
L 122.95022 62.49702 
L 123.5334 62.357093 
L 124.310973 62.216693 
L 124.894153 61.761439 
L 125.28294 61.322496 
L 126.060513 59.719232 
L 126.4493 58.701731 
L 127.03248 57.031288 
L 127.421267 56.639635 
L 128.393233 56.30245 
L 130.142773 55.960945 
L 130.53156 55.437564 
L 131.11474 54.378676 
L 131.503527 54.119368 
L 132.2811 53.985603 
L 134.225033 53.8047 
L 137.52972 53.705012 
L 139.86244 53.652453 
L 140.251227 53.457161 
L 141.223193 52.661808 
L 142.19516 51.11917 
L 142.77834 50.96122 
L 144.722273 50.783366 
L 147.249387 50.641876 
L 147.638173 50.054019 
L 148.221353 48.728284 
L 148.61014 48.376914 
L 149.387713 48.176335 
L 152.6924 47.997349 
L 156.77466 47.885989 
L 168.632653 47.801616 
L 169.799013 47.397995 
L 172.52052 47.319738 
L 232.00488 47.271373 
L 631.094393 47.271373 
L 631.094393 47.271373 
" clip-path="url(#pf7ee67a792)" style="fill: none; stroke-dasharray: 5.55,2.4; stroke-dashoffset: 0; stroke: #000000; stroke-width: 1.5"/>
   </g>
   <g id="line2d_28">
    <path d="M 47.914393 317.853511 
L 48.30318 317.462181 
L 48.88636 314.733604 
L 49.663933 308.788551 
L 50.830293 300.69704 
L 51.21908 295.017148 
L 51.413473 292.587708 
L 51.80226 283.897565 
L 52.191047 279.82932 
L 52.38544 274.163573 
L 52.774227 272.335754 
L 52.96862 268.987208 
L 53.163013 263.667268 
L 53.357407 261.83322 
L 53.5518 256.659755 
L 53.940587 251.849381 
L 54.329373 247.431703 
L 55.106947 242.745035 
L 55.495733 236.939261 
L 55.88452 231.876721 
L 56.078913 223.091099 
L 56.856487 213.963508 
L 57.05088 213.558687 
L 57.439667 211.623612 
L 57.828453 208.352161 
L 58.80042 202.723515 
L 58.994813 199.642224 
L 59.3836 198.186277 
L 59.577993 197.85537 
L 59.772387 196.037614 
L 59.96678 195.746072 
L 60.355567 193.758404 
L 61.327533 185.694286 
L 61.71632 184.071332 
L 62.2995 178.466517 
L 62.493893 176.872914 
L 62.688287 174.208396 
L 63.660253 169.449763 
L 63.854647 167.697764 
L 64.63222 165.642541 
L 65.021007 161.680983 
L 65.2154 161.42015 
L 65.409793 158.479265 
L 65.79858 158.254196 
L 66.576153 155.025621 
L 67.936907 145.553371 
L 68.1313 142.011159 
L 68.520087 141.099609 
L 68.71448 140.737365 
L 68.908873 140.72834 
L 69.103267 140.486362 
L 69.492053 139.479154 
L 70.46402 131.805065 
L 70.658413 131.272765 
L 70.852807 130.307937 
L 71.0472 130.283373 
L 71.241593 129.318804 
L 71.435987 129.193206 
L 71.824773 128.517174 
L 72.407953 126.891141 
L 72.79674 126.209049 
L 72.991133 125.963616 
L 73.185527 124.711068 
L 73.574313 124.399899 
L 73.9631 124.096731 
L 74.157493 123.151826 
L 74.351887 123.140835 
L 74.54628 122.078699 
L 74.935067 121.994015 
L 75.12946 120.543466 
L 75.518247 120.542398 
L 75.71264 120.357138 
L 76.29582 120.318044 
L 76.684607 119.991111 
L 77.073393 118.837191 
L 77.46218 116.032121 
L 77.656573 115.008637 
L 77.850967 111.770236 
L 78.04536 111.427493 
L 78.239753 109.082239 
L 78.434147 108.726634 
L 78.62854 108.69836 
L 78.822933 107.325573 
L 79.017327 107.109366 
L 79.21172 104.149639 
L 79.7949 103.132056 
L 79.989293 101.958812 
L 80.183687 101.638589 
L 80.37808 100.61924 
L 80.572473 98.385677 
L 81.155653 96.191167 
L 81.350047 95.949131 
L 81.54444 95.913379 
L 81.738833 95.708073 
L 83.099587 95.547266 
L 83.29398 94.207511 
L 83.682767 93.584161 
L 83.87716 92.896163 
L 84.071553 92.618882 
L 84.265947 89.784512 
L 84.849127 89.541548 
L 85.04352 87.478978 
L 85.821093 87.176455 
L 86.015487 87.125028 
L 86.20988 84.335817 
L 86.598667 84.20733 
L 86.987453 83.443692 
L 87.37624 83.355249 
L 87.570633 82.285859 
L 88.5426 82.174359 
L 88.736993 81.99726 
L 89.12578 81.990257 
L 89.320173 81.076712 
L 90.097747 80.936845 
L 90.29214 79.955849 
L 90.680927 79.798914 
L 91.069713 79.309213 
L 91.264107 78.008901 
L 92.04168 77.212856 
L 92.236073 77.203502 
L 92.430467 74.459263 
L 92.819253 74.396054 
L 93.013647 74.224935 
L 93.402433 74.220663 
L 94.180007 73.599931 
L 95.151973 72.599584 
L 95.346367 72.569793 
L 95.54076 71.534166 
L 96.318333 71.457037 
L 96.512727 70.08791 
L 97.2903 69.994231 
L 98.45666 69.853472 
L 98.651053 68.940779 
L 99.03984 68.85522 
L 100.400593 68.495246 
L 100.594987 67.432705 
L 100.983773 67.432705 
L 101.37256 67.310148 
L 101.566953 64.57226 
L 101.95574 64.57226 
L 102.150133 64.401142 
L 102.344527 64.396869 
L 102.733313 64.280059 
L 103.899673 64.189972 
L 104.094067 64.018854 
L 104.87164 63.916103 
L 105.260427 63.673603 
L 106.038 63.577608 
L 106.232393 62.545501 
L 106.426787 62.54547 
L 106.62118 61.175458 
L 107.20436 61.025449 
L 107.398753 59.656505 
L 107.78754 59.545841 
L 108.176327 59.45002 
L 108.9539 59.335627 
L 109.342687 59.246983 
L 112.258587 59.152878 
L 112.45298 58.121689 
L 113.424947 58.017501 
L 113.61934 55.279399 
L 114.008127 55.279399 
L 114.20252 55.108281 
L 114.7857 55.005731 
L 115.174487 54.939145 
L 115.95206 54.932522 
L 116.146453 54.761404 
L 117.7016 54.754994 
L 117.895993 54.411264 
L 118.673567 54.389781 
L 118.86796 53.476381 
L 119.645533 53.416404 
L 119.839927 52.013093 
L 120.811893 51.903908 
L 121.20068 51.801357 
L 121.78386 51.737908 
L 123.727793 51.643803 
L 123.922187 50.731174 
L 124.69976 50.674135 
L 125.088547 50.605768 
L 129.753987 50.501726 
L 130.53156 50.465406 
L 133.44746 50.463269 
L 133.641853 50.119539 
L 134.61382 50.098056 
L 134.808213 49.185427 
L 135.974573 49.094204 
L 137.52972 49.013545 
L 140.834407 49.011409 
L 141.0288 48.098779 
L 141.223193 47.870622 
L 142.000767 47.799323 
L 142.389553 47.713864 
L 148.221353 47.613722 
L 148.998927 47.577402 
L 162.02328 47.574197 
L 162.217673 47.34604 
L 631.094393 47.271373 
L 631.094393 47.271373 
" clip-path="url(#pf7ee67a792)" style="fill: none; stroke: #1f77b4; stroke-width: 1.5; stroke-linecap: square"/>
   </g>
   <g id="line2d_29">
    <path d="M 47.914393 317.872084 
L 48.30318 317.480754 
L 48.88636 315.048578 
L 49.663933 310.245549 
L 50.6359 304.219708 
L 50.830293 303.304036 
L 51.607867 293.609519 
L 51.996653 288.815432 
L 52.38544 286.024486 
L 52.774227 284.365357 
L 53.357407 279.362289 
L 53.940587 273.224708 
L 54.523767 268.983063 
L 55.106947 266.52747 
L 55.30134 265.974417 
L 55.690127 263.669103 
L 56.662093 254.358338 
L 57.245273 252.440191 
L 58.022847 248.852634 
L 58.606027 247.047399 
L 59.3836 243.984593 
L 59.772387 243.409009 
L 59.96678 243.262896 
L 60.355567 241.361355 
L 61.13314 235.391882 
L 61.910713 232.589735 
L 63.46586 223.750575 
L 64.243433 221.6729 
L 64.826613 220.589308 
L 65.2154 220.160609 
L 65.992973 219.813095 
L 66.576153 217.435955 
L 67.159333 214.033628 
L 68.325693 209.104953 
L 68.520087 208.779367 
L 69.103267 208.441925 
L 69.492053 207.498166 
L 70.269627 201.299302 
L 70.46402 200.234393 
L 70.658413 199.894694 
L 71.241593 199.812241 
L 71.435987 199.81205 
L 72.407953 198.095751 
L 72.991133 197.239424 
L 73.37992 196.833178 
L 73.9631 196.719899 
L 75.907033 196.676874 
L 76.29582 196.639917 
L 76.684607 196.419045 
L 78.239753 192.359316 
L 78.822933 192.053671 
L 79.989293 190.669563 
L 80.183687 190.425521 
L 80.96126 187.307455 
L 81.350047 186.343228 
L 81.933227 185.475849 
L 82.516407 184.066555 
L 83.099587 182.182556 
L 84.654733 173.582119 
L 87.37624 157.939738 
L 88.153813 154.639998 
L 89.903353 148.841771 
L 92.04168 142.541037 
L 93.013647 140.903909 
L 93.985613 139.629594 
L 98.45666 129.844475 
L 100.2062 124.567382 
L 102.733313 119.558481 
L 103.316493 118.941781 
L 104.482853 117.955746 
L 106.232393 115.675129 
L 107.398753 114.389644 
L 108.176327 113.191612 
L 109.53708 110.953119 
L 110.897833 109.210456 
L 111.481013 107.673245 
L 112.45298 104.082056 
L 113.424947 100.758152 
L 114.20252 98.835049 
L 114.7857 97.844687 
L 115.36888 97.227846 
L 116.340847 96.674041 
L 116.924027 96.222326 
L 117.507207 95.406321 
L 118.090387 94.168056 
L 120.6175 88.166993 
L 121.589467 86.531744 
L 122.755827 85.094161 
L 123.922187 83.562216 
L 125.671727 80.788785 
L 127.226873 78.082339 
L 128.004447 77.349229 
L 129.170807 76.31585 
L 131.503527 73.828403 
L 134.03064 72.052599 
L 134.61382 71.304478 
L 136.557753 68.248833 
L 137.140933 67.867387 
L 139.668047 66.620461 
L 140.251227 65.845663 
L 141.806373 63.448792 
L 142.389553 63.005986 
L 143.167127 62.737844 
L 145.499847 62.195592 
L 146.083027 61.821437 
L 146.666207 61.201536 
L 147.638173 59.691502 
L 148.415747 58.675311 
L 148.998927 58.28589 
L 150.35968 57.835539 
L 151.52604 57.292601 
L 152.498007 56.574521 
L 154.830727 54.495298 
L 155.802693 54.234631 
L 156.969053 53.883963 
L 157.94102 53.266611 
L 158.912987 52.727955 
L 159.884953 52.48261 
L 161.828887 52.294303 
L 164.550393 51.954505 
L 167.660687 51.457215 
L 168.632653 50.954588 
L 169.60462 50.473954 
L 170.576587 50.278598 
L 174.27006 49.848467 
L 176.60278 48.769354 
L 178.741107 48.594893 
L 182.628973 48.312005 
L 185.93366 48.148824 
L 188.460773 47.978901 
L 193.126213 47.840406 
L 202.651487 47.485325 
L 256.304047 47.271586 
L 631.094393 47.271373 
L 631.094393 47.271373 
" clip-path="url(#pf7ee67a792)" style="fill: none; stroke: #ff7f0e; stroke-width: 1.5; stroke-linecap: square"/>
   </g>
   <g id="line2d_30">
    <path d="M 47.914393 317.706445 
L 48.30318 316.929094 
L 48.88636 312.097738 
L 49.663933 302.556839 
L 50.6359 290.586904 
L 50.830293 288.767983 
L 51.607867 269.510465 
L 51.996653 259.987328 
L 52.38544 254.443299 
L 52.774227 251.147548 
L 53.357407 241.209285 
L 53.940587 229.017385 
L 54.523767 220.591638 
L 55.106947 215.713766 
L 55.30134 214.615163 
L 55.690127 210.035809 
L 56.662093 191.54059 
L 57.245273 187.730318 
L 58.022847 180.603873 
L 58.606027 177.017893 
L 59.3836 170.933832 
L 59.772387 169.790472 
L 59.96678 169.500228 
L 60.355567 165.722944 
L 61.13314 153.86498 
L 61.71632 150.138245 
L 62.2995 143.764002 
L 62.688287 138.543653 
L 63.854647 128.118987 
L 64.243433 126.61313 
L 64.826613 124.460646 
L 65.2154 123.609064 
L 65.992973 122.918751 
L 66.576153 118.196718 
L 67.159333 111.438221 
L 68.325693 101.647734 
L 68.520087 101.000978 
L 68.71448 100.829273 
L 68.908873 100.811346 
L 69.103267 100.330673 
L 69.492053 98.455958 
L 70.269627 86.142325 
L 70.46402 84.026953 
L 70.658413 83.352163 
L 71.0472 83.199679 
L 71.435987 83.187996 
L 72.407953 79.778682 
L 72.79674 78.526986 
L 73.37992 77.270665 
L 73.768707 77.093813 
L 74.740673 76.963946 
L 76.29582 76.886764 
L 76.684607 76.448016 
L 78.04536 68.909072 
L 78.239753 68.383637 
L 78.822933 67.776577 
L 79.7949 65.533061 
L 80.183687 64.575632 
L 80.96126 58.685749 
L 81.155653 57.614658 
L 81.350047 57.261895 
L 81.933227 57.114283 
L 83.099587 57.110135 
L 84.071553 54.067991 
L 84.46034 53.825649 
L 85.237913 53.776505 
L 86.015487 53.674348 
L 87.181847 53.176931 
L 89.12578 53.106621 
L 90.29214 53.104737 
L 90.87532 52.643649 
L 91.652893 50.680439 
L 91.847287 50.328511 
L 92.236073 50.197433 
L 93.79122 50.181049 
L 94.763187 48.152953 
L 95.151973 47.991391 
L 96.318333 47.951262 
L 104.482853 47.873443 
L 105.649213 47.334476 
L 109.342687 47.279117 
L 631.094393 47.271373 
L 631.094393 47.271373 
" clip-path="url(#pf7ee67a792)" style="fill: none; stroke-dasharray: 1.5,2.475; stroke-dashoffset: 0; stroke: #2ca02c; stroke-width: 1.5"/>
   </g>
   <g id="line2d_31">
    <path d="M 319.870667 318.04 
L 319.870667 41.856 
" clip-path="url(#pf7ee67a792)" style="fill: none; stroke-dasharray: 3.7,1.6; stroke-dashoffset: 0; stroke: #ff0000"/>
   </g>
   <g id="line2d_32">
    <path d="M 47.72 55.394431 
L 630.9 55.394431 
" clip-path="url(#pf7ee67a792)" style="fill: none; stroke-dasharray: 0.8,1.32; stroke-dashoffset: 0; stroke: #808080; stroke-width: 0.8"/>
   </g>
   <g id="patch_3">
    <path d="M 47.72 318.04 
L 47.72 41.856 
" style="fill: none; stroke: #000000; stroke-width: 0.8; stroke-linejoin: miter; stroke-linecap: square"/>
   </g>
   <g id="patch_4">
    <path d="M 630.9 318.04 
L 630.9 41.856 
" style="fill: none; stroke: #000000; stroke-width: 0.8; stroke-linejoin: miter; stroke-linecap: square"/>
   </g>
   <g id="patch_5">
    <path d="M 47.72 318.04 
L 630.9 318.04 
" style="fill: none; stroke: #000000; stroke-width: 0.8; stroke-linejoin: miter; stroke-linecap: square"/>
   </g>
   <g id="patch_6">
    <path d="M 47.72 41.856 
L 630.9 41.856 
" style="fill: none; stroke: #000000; stroke-width: 0.8; stroke-linejoin: miter; stroke-linecap: square"/>
   </g>
   <g id="text_16">
    <!-- DeltaQ: Existing vs Improved Leios Model -->
    <g transform="translate(214.692813 22.418625) scale(0.12 -0.12)">
     <defs>
      <path id="DejaVuSans-61" d="M 2194 1759 
Q 1497 1759 1228 1600 
Q 959 1441 959 1056 
Q 959 750 1161 570 
Q 1363 391 1709 391 
Q 2188 391 2477 730 
Q 2766 1069 2766 1631 
L 2766 1759 
L 2194 1759 
z
M 3341 1997 
L 3341 0 
L 2766 0 
L 2766 531 
Q 2569 213 2275 61 
Q 1981 -91 1556 -91 
Q 1019 -91 701 211 
Q 384 513 384 1019 
Q 384 1609 779 1909 
Q 1175 2209 1959 2209 
L 2766 2209 
L 2766 2266 
Q 2766 2663 2505 2880 
Q 2244 3097 1772 3097 
Q 1472 3097 1187 3025 
Q 903 2953 641 2809 
L 641 3341 
Q 956 3463 1253 3523 
Q 1550 3584 1831 3584 
Q 2591 3584 2966 3190 
Q 3341 2797 3341 1997 
z
" transform="scale(0.015625)"/>
      <path id="DejaVuSans-51" d="M 2522 4238 
Q 1834 4238 1429 3725 
Q 1025 3213 1025 2328 
Q 1025 1447 1429 934 
Q 1834 422 2522 422 
Q 3209 422 3611 934 
Q 4013 1447 4013 2328 
Q 4013 3213 3611 3725 
Q 3209 4238 2522 4238 
z
M 3406 84 
L 4238 -825 
L 3475 -825 
L 2784 -78 
Q 2681 -84 2626 -87 
Q 2572 -91 2522 -91 
Q 1538 -91 948 567 
Q 359 1225 359 2328 
Q 359 3434 948 4092 
Q 1538 4750 2522 4750 
Q 3503 4750 4090 4092 
Q 4678 3434 4678 2328 
Q 4678 1516 4351 937 
Q 4025 359 3406 84 
z
" transform="scale(0.015625)"/>
      <path id="DejaVuSans-3a" d="M 750 794 
L 1409 794 
L 1409 0 
L 750 0 
L 750 794 
z
M 750 3309 
L 1409 3309 
L 1409 2516 
L 750 2516 
L 750 3309 
z
" transform="scale(0.015625)"/>
      <path id="DejaVuSans-45" d="M 628 4666 
L 3578 4666 
L 3578 4134 
L 1259 4134 
L 1259 2753 
L 3481 2753 
L 3481 2222 
L 1259 2222 
L 1259 531 
L 3634 531 
L 3634 0 
L 628 0 
L 628 4666 
z
" transform="scale(0.015625)"/>
      <path id="DejaVuSans-78" d="M 3513 3500 
L 2247 1797 
L 3578 0 
L 2900 0 
L 1881 1375 
L 863 0 
L 184 0 
L 1544 1831 
L 300 3500 
L 978 3500 
L 1906 2253 
L 2834 3500 
L 3513 3500 
z
" transform="scale(0.015625)"/>
      <path id="DejaVuSans-67" d="M 2906 1791 
Q 2906 2416 2648 2759 
Q 2391 3103 1925 3103 
Q 1463 3103 1205 2759 
Q 947 2416 947 1791 
Q 947 1169 1205 825 
Q 1463 481 1925 481 
Q 2391 481 2648 825 
Q 2906 1169 2906 1791 
z
M 3481 434 
Q 3481 -459 3084 -895 
Q 2688 -1331 1869 -1331 
Q 1566 -1331 1297 -1286 
Q 1028 -1241 775 -1147 
L 775 -588 
Q 1028 -725 1275 -790 
Q 1522 -856 1778 -856 
Q 2344 -856 2625 -561 
Q 2906 -266 2906 331 
L 2906 616 
Q 2728 306 2450 153 
Q 2172 0 1784 0 
Q 1141 0 747 490 
Q 353 981 353 1791 
Q 353 2603 747 3093 
Q 1141 3584 1784 3584 
Q 2172 3584 2450 3431 
Q 2728 3278 2906 2969 
L 2906 3500 
L 3481 3500 
L 3481 434 
z
" transform="scale(0.015625)"/>
      <path id="DejaVuSans-76" d="M 191 3500 
L 800 3500 
L 1894 563 
L 2988 3500 
L 3597 3500 
L 2284 0 
L 1503 0 
L 191 3500 
z
" transform="scale(0.015625)"/>
      <path id="DejaVuSans-49" d="M 628 4666 
L 1259 4666 
L 1259 0 
L 628 0 
L 628 4666 
z
" transform="scale(0.015625)"/>
      <path id="DejaVuSans-72" d="M 2631 2963 
Q 2534 3019 2420 3045 
Q 2306 3072 2169 3072 
Q 1681 3072 1420 2755 
Q 1159 2438 1159 1844 
L 1159 0 
L 581 0 
L 581 3500 
L 1159 3500 
L 1159 2956 
Q 1341 3275 1631 3429 
Q 1922 3584 2338 3584 
Q 2397 3584 2469 3576 
Q 2541 3569 2628 3553 
L 2631 2963 
z
" transform="scale(0.015625)"/>
      <path id="DejaVuSans-4c" d="M 628 4666 
L 1259 4666 
L 1259 531 
L 3531 531 
L 3531 0 
L 628 0 
L 628 4666 
z
" transform="scale(0.015625)"/>
      <path id="DejaVuSans-4d" d="M 628 4666 
L 1569 4666 
L 2759 1491 
L 3956 4666 
L 4897 4666 
L 4897 0 
L 4281 0 
L 4281 4097 
L 3078 897 
L 2444 897 
L 1241 4097 
L 1241 0 
L 628 0 
L 628 4666 
z
" transform="scale(0.015625)"/>
     </defs>
     <use xlink:href="#DejaVuSans-44"/>
     <use xlink:href="#DejaVuSans-65" transform="translate(77.001953 0)"/>
     <use xlink:href="#DejaVuSans-6c" transform="translate(138.525391 0)"/>
     <use xlink:href="#DejaVuSans-74" transform="translate(166.308594 0)"/>
     <use xlink:href="#DejaVuSans-61" transform="translate(205.517578 0)"/>
     <use xlink:href="#DejaVuSans-51" transform="translate(266.796875 0)"/>
     <use xlink:href="#DejaVuSans-3a" transform="translate(345.507812 0)"/>
     <use xlink:href="#DejaVuSans-20" transform="translate(379.199219 0)"/>
     <use xlink:href="#DejaVuSans-45" transform="translate(410.986328 0)"/>
     <use xlink:href="#DejaVuSans-78" transform="translate(474.169922 0)"/>
     <use xlink:href="#DejaVuSans-69" transform="translate(533.349609 0)"/>
     <use xlink:href="#DejaVuSans-73" transform="translate(561.132812 0)"/>
     <use xlink:href="#DejaVuSans-74" transform="translate(613.232422 0)"/>
     <use xlink:href="#DejaVuSans-69" transform="translate(652.441406 0)"/>
     <use xlink:href="#DejaVuSans-6e" transform="translate(680.224609 0)"/>
     <use xlink:href="#DejaVuSans-67" transform="translate(743.603516 0)"/>
     <use xlink:href="#DejaVuSans-20" transform="translate(807.080078 0)"/>
     <use xlink:href="#DejaVuSans-76" transform="translate(838.867188 0)"/>
     <use xlink:href="#DejaVuSans-73" transform="translate(898.046875 0)"/>
     <use xlink:href="#DejaVuSans-20" transform="translate(950.146484 0)"/>
     <use xlink:href="#DejaVuSans-49" transform="translate(981.933594 0)"/>
     <use xlink:href="#DejaVuSans-6d" transform="translate(1011.425781 0)"/>
     <use xlink:href="#DejaVuSans-70" transform="translate(1108.837891 0)"/>
     <use xlink:href="#DejaVuSans-72" transform="translate(1172.314453 0)"/>
     <use xlink:href="#DejaVuSans-6f" transform="translate(1211.177734 0)"/>
     <use xlink:href="#DejaVuSans-76" transform="translate(1272.359375 0)"/>
     <use xlink:href="#DejaVuSans-65" transform="translate(1331.539062 0)"/>
     <use xlink:href="#DejaVuSans-64" transform="translate(1393.0625 0)"/>
     <use xlink:href="#DejaVuSans-20" transform="translate(1456.539062 0)"/>
     <use xlink:href="#DejaVuSans-4c" transform="translate(1488.326172 0)"/>
     <use xlink:href="#DejaVuSans-65" transform="translate(1542.289062 0)"/>
     <use xlink:href="#DejaVuSans-69" transform="translate(1603.8125 0)"/>
     <use xlink:href="#DejaVuSans-6f" transform="translate(1631.595703 0)"/>
     <use xlink:href="#DejaVuSans-73" transform="translate(1692.777344 0)"/>
     <use xlink:href="#DejaVuSans-20" transform="translate(1744.876953 0)"/>
     <use xlink:href="#DejaVuSans-4d" transform="translate(1776.664062 0)"/>
     <use xlink:href="#DejaVuSans-6f" transform="translate(1862.943359 0)"/>
     <use xlink:href="#DejaVuSans-64" transform="translate(1924.125 0)"/>
     <use xlink:href="#DejaVuSans-65" transform="translate(1987.601562 0)"/>
     <use xlink:href="#DejaVuSans-6c" transform="translate(2049.125 0)"/>
    </g>
    <!-- (RB diffusion incl. EB-closure fetching) -->
    <g transform="translate(224.40625 35.856) scale(0.12 -0.12)">
     <defs>
      <path id="DejaVuSans-52" d="M 2841 2188 
Q 3044 2119 3236 1894 
Q 3428 1669 3622 1275 
L 4263 0 
L 3584 0 
L 2988 1197 
Q 2756 1666 2539 1819 
Q 2322 1972 1947 1972 
L 1259 1972 
L 1259 0 
L 628 0 
L 628 4666 
L 2053 4666 
Q 2853 4666 3247 4331 
Q 3641 3997 3641 3322 
Q 3641 2881 3436 2590 
Q 3231 2300 2841 2188 
z
M 1259 4147 
L 1259 2491 
L 2053 2491 
Q 2509 2491 2742 2702 
Q 2975 2913 2975 3322 
Q 2975 3731 2742 3939 
Q 2509 4147 2053 4147 
L 1259 4147 
z
" transform="scale(0.015625)"/>
      <path id="DejaVuSans-42" d="M 1259 2228 
L 1259 519 
L 2272 519 
Q 2781 519 3026 730 
Q 3272 941 3272 1375 
Q 3272 1813 3026 2020 
Q 2781 2228 2272 2228 
L 1259 2228 
z
M 1259 4147 
L 1259 2741 
L 2194 2741 
Q 2656 2741 2882 2914 
Q 3109 3088 3109 3444 
Q 3109 3797 2882 3972 
Q 2656 4147 2194 4147 
L 1259 4147 
z
M 628 4666 
L 2241 4666 
Q 2963 4666 3353 4366 
Q 3744 4066 3744 3513 
Q 3744 3084 3544 2831 
Q 3344 2578 2956 2516 
Q 3422 2416 3680 2098 
Q 3938 1781 3938 1306 
Q 3938 681 3513 340 
Q 3088 0 2303 0 
L 628 0 
L 628 4666 
z
" transform="scale(0.015625)"/>
      <path id="DejaVuSans-66" d="M 2375 4863 
L 2375 4384 
L 1825 4384 
Q 1516 4384 1395 4259 
Q 1275 4134 1275 3809 
L 1275 3500 
L 2222 3500 
L 2222 3053 
L 1275 3053 
L 1275 0 
L 697 0 
L 697 3053 
L 147 3053 
L 147 3500 
L 697 3500 
L 697 3744 
Q 697 4328 969 4595 
Q 1241 4863 1831 4863 
L 2375 4863 
z
" transform="scale(0.015625)"/>
      <path id="DejaVuSans-75" d="M 544 1381 
L 544 3500 
L 1119 3500 
L 1119 1403 
Q 1119 906 1312 657 
Q 1506 409 1894 409 
Q 2359 409 2629 706 
Q 2900 1003 2900 1516 
L 2900 3500 
L 3475 3500 
L 3475 0 
L 2900 0 
L 2900 538 
Q 2691 219 2414 64 
Q 2138 -91 1772 -91 
Q 1169 -91 856 284 
Q 544 659 544 1381 
z
M 1991 3584 
L 1991 3584 
z
" transform="scale(0.015625)"/>
      <path id="DejaVuSans-2d" d="M 313 2009 
L 1997 2009 
L 1997 1497 
L 313 1497 
L 313 2009 
z
" transform="scale(0.015625)"/>
     </defs>
     <use xlink:href="#DejaVuSans-28"/>
     <use xlink:href="#DejaVuSans-52" transform="translate(39.013672 0)"/>
     <use xlink:href="#DejaVuSans-42" transform="translate(108.496094 0)"/>
     <use xlink:href="#DejaVuSans-20" transform="translate(177.099609 0)"/>
     <use xlink:href="#DejaVuSans-64" transform="translate(208.886719 0)"/>
     <use xlink:href="#DejaVuSans-69" transform="translate(272.363281 0)"/>
     <use xlink:href="#DejaVuSans-66" transform="translate(300.146484 0)"/>
     <use xlink:href="#DejaVuSans-66" transform="translate(335.351562 0)"/>
     <use xlink:href="#DejaVuSans-75" transform="translate(370.556641 0)"/>
     <use xlink:href="#DejaVuSans-73" transform="translate(433.935547 0)"/>
     <use xlink:href="#DejaVuSans-69" transform="translate(486.035156 0)"/>
     <use xlink:href="#DejaVuSans-6f" transform="translate(513.818359 0)"/>
     <use xlink:href="#DejaVuSans-6e" transform="translate(575 0)"/>
     <use xlink:href="#DejaVuSans-20" transform="translate(638.378906 0)"/>
     <use xlink:href="#DejaVuSans-69" transform="translate(670.166016 0)"/>
     <use xlink:href="#DejaVuSans-6e" transform="translate(697.949219 0)"/>
     <use xlink:href="#DejaVuSans-63" transform="translate(761.328125 0)"/>
     <use xlink:href="#DejaVuSans-6c" transform="translate(816.308594 0)"/>
     <use xlink:href="#DejaVuSans-2e" transform="translate(844.091797 0)"/>
     <use xlink:href="#DejaVuSans-20" transform="translate(875.878906 0)"/>
     <use xlink:href="#DejaVuSans-45" transform="translate(907.666016 0)"/>
     <use xlink:href="#DejaVuSans-42" transform="translate(970.849609 0)"/>
     <use xlink:href="#DejaVuSans-2d" transform="translate(1039.453125 0)"/>
     <use xlink:href="#DejaVuSans-63" transform="translate(1075.537109 0)"/>
     <use xlink:href="#DejaVuSans-6c" transform="translate(1130.517578 0)"/>
     <use xlink:href="#DejaVuSans-6f" transform="translate(1158.300781 0)"/>
     <use xlink:href="#DejaVuSans-73" transform="translate(1219.482422 0)"/>
     <use xlink:href="#DejaVuSans-75" transform="translate(1271.582031 0)"/>
     <use xlink:href="#DejaVuSans-72" transform="translate(1334.960938 0)"/>
     <use xlink:href="#DejaVuSans-65" transform="translate(1373.824219 0)"/>
     <use xlink:href="#DejaVuSans-20" transform="translate(1435.347656 0)"/>
     <use xlink:href="#DejaVuSans-66" transform="translate(1467.134766 0)"/>
     <use xlink:href="#DejaVuSans-65" transform="translate(1502.339844 0)"/>
     <use xlink:href="#DejaVuSans-74" transform="translate(1563.863281 0)"/>
     <use xlink:href="#DejaVuSans-63" transform="translate(1603.072266 0)"/>
     <use xlink:href="#DejaVuSans-68" transform="translate(1658.052734 0)"/>
     <use xlink:href="#DejaVuSans-69" transform="translate(1721.431641 0)"/>
     <use xlink:href="#DejaVuSans-6e" transform="translate(1749.214844 0)"/>
     <use xlink:href="#DejaVuSans-67" transform="translate(1812.59375 0)"/>
     <use xlink:href="#DejaVuSans-29" transform="translate(1876.070312 0)"/>
    </g>
   </g>
   <g id="legend_1">
    <g id="patch_7">
     <path d="M 469.62 314.04 
L 625.3 314.04 
Q 626.9 314.04 626.9 312.44 
L 626.9 242.75 
Q 626.9 241.15 625.3 241.15 
L 469.62 241.15 
Q 468.02 241.15 468.02 242.75 
L 468.02 312.44 
Q 468.02 314.04 469.62 314.04 
z
" style="fill: #ffffff; opacity: 0.8; stroke: #cccccc; stroke-linejoin: miter"/>
    </g>
    <g id="line2d_33">
     <path d="M 471.22 247.62875 
L 479.22 247.62875 
L 487.22 247.62875 
" style="fill: none; stroke-dasharray: 5.55,2.4; stroke-dashoffset: 0; stroke: #000000; stroke-width: 1.5"/>
    </g>
    <g id="text_17">
     <!-- Existing model (broken) -->
     <g transform="translate(493.62 250.42875) scale(0.08 -0.08)">
      <defs>
       <path id="DejaVuSans-62" d="M 3116 1747 
Q 3116 2381 2855 2742 
Q 2594 3103 2138 3103 
Q 1681 3103 1420 2742 
Q 1159 2381 1159 1747 
Q 1159 1113 1420 752 
Q 1681 391 2138 391 
Q 2594 391 2855 752 
Q 3116 1113 3116 1747 
z
M 1159 2969 
Q 1341 3281 1617 3432 
Q 1894 3584 2278 3584 
Q 2916 3584 3314 3078 
Q 3713 2572 3713 1747 
Q 3713 922 3314 415 
Q 2916 -91 2278 -91 
Q 1894 -91 1617 61 
Q 1341 213 1159 525 
L 1159 0 
L 581 0 
L 581 4863 
L 1159 4863 
L 1159 2969 
z
" transform="scale(0.015625)"/>
       <path id="DejaVuSans-6b" d="M 581 4863 
L 1159 4863 
L 1159 1991 
L 2875 3500 
L 3609 3500 
L 1753 1863 
L 3688 0 
L 2938 0 
L 1159 1709 
L 1159 0 
L 581 0 
L 581 4863 
z
" transform="scale(0.015625)"/>
      </defs>
      <use xlink:href="#DejaVuSans-45"/>
      <use xlink:href="#DejaVuSans-78" transform="translate(63.183594 0)"/>
      <use xlink:href="#DejaVuSans-69" transform="translate(122.363281 0)"/>
      <use xlink:href="#DejaVuSans-73" transform="translate(150.146484 0)"/>
      <use xlink:href="#DejaVuSans-74" transform="translate(202.246094 0)"/>
      <use xlink:href="#DejaVuSans-69" transform="translate(241.455078 0)"/>
      <use xlink:href="#DejaVuSans-6e" transform="translate(269.238281 0)"/>
      <use xlink:href="#DejaVuSans-67" transform="translate(332.617188 0)"/>
      <use xlink:href="#DejaVuSans-20" transform="translate(396.09375 0)"/>
      <use xlink:href="#DejaVuSans-6d" transform="translate(427.880859 0)"/>
      <use xlink:href="#DejaVuSans-6f" transform="translate(525.292969 0)"/>
      <use xlink:href="#DejaVuSans-64" transform="translate(586.474609 0)"/>
      <use xlink:href="#DejaVuSans-65" transform="translate(649.951172 0)"/>
      <use xlink:href="#DejaVuSans-6c" transform="translate(711.474609 0)"/>
      <use xlink:href="#DejaVuSans-20" transform="translate(739.257812 0)"/>
      <use xlink:href="#DejaVuSans-28" transform="translate(771.044922 0)"/>
      <use xlink:href="#DejaVuSans-62" transform="translate(810.058594 0)"/>
      <use xlink:href="#DejaVuSans-72" transform="translate(873.535156 0)"/>
      <use xlink:href="#DejaVuSans-6f" transform="translate(912.398438 0)"/>
      <use xlink:href="#DejaVuSans-6b" transform="translate(973.580078 0)"/>
      <use xlink:href="#DejaVuSans-65" transform="translate(1027.865234 0)"/>
      <use xlink:href="#DejaVuSans-6e" transform="translate(1089.388672 0)"/>
      <use xlink:href="#DejaVuSans-29" transform="translate(1152.767578 0)"/>
     </g>
    </g>
    <g id="line2d_34">
     <path d="M 471.22 259.3725 
L 479.22 259.3725 
L 487.22 259.3725 
" style="fill: none; stroke: #1f77b4; stroke-width: 1.5; stroke-linecap: square"/>
    </g>
    <g id="text_18">
     <!-- Improved, $S_{EB-tx}$=0 (no closure) -->
     <g transform="translate(493.62 262.1725) scale(0.08 -0.08)">
      <defs>
       <path id="DejaVuSans-2c" d="M 750 794 
L 1409 794 
L 1409 256 
L 897 -744 
L 494 -744 
L 750 256 
L 750 794 
z
" transform="scale(0.015625)"/>
       <path id="DejaVuSans-Oblique-53" d="M 3859 4513 
L 3738 3897 
Q 3422 4066 3111 4152 
Q 2800 4238 2509 4238 
Q 1944 4238 1609 3991 
Q 1275 3744 1275 3334 
Q 1275 3109 1398 2989 
Q 1522 2869 2034 2731 
L 2413 2638 
Q 3053 2472 3303 2217 
Q 3553 1963 3553 1503 
Q 3553 797 2998 353 
Q 2444 -91 1538 -91 
Q 1166 -91 791 -17 
Q 416 56 38 206 
L 166 856 
Q 513 641 861 531 
Q 1209 422 1556 422 
Q 2147 422 2503 684 
Q 2859 947 2859 1369 
Q 2859 1650 2717 1795 
Q 2575 1941 2106 2059 
L 1728 2156 
Q 1081 2325 845 2545 
Q 609 2766 609 3163 
Q 609 3859 1145 4304 
Q 1681 4750 2541 4750 
Q 2875 4750 3203 4690 
Q 3531 4631 3859 4513 
z
" transform="scale(0.015625)"/>
       <path id="DejaVuSans-Oblique-45" d="M 1081 4666 
L 4031 4666 
L 3928 4134 
L 1606 4134 
L 1338 2753 
L 3566 2753 
L 3463 2222 
L 1234 2222 
L 909 531 
L 3284 531 
L 3181 0 
L 172 0 
L 1081 4666 
z
" transform="scale(0.015625)"/>
       <path id="DejaVuSans-Oblique-42" d="M 1081 4666 
L 2694 4666 
Q 3350 4666 3675 4422 
Q 4000 4178 4000 3688 
Q 4000 3238 3720 2911 
Q 3441 2584 2988 2516 
Q 3375 2428 3569 2181 
Q 3763 1934 3763 1522 
Q 3763 819 3242 409 
Q 2722 0 1819 0 
L 172 0 
L 1081 4666 
z
M 1234 2228 
L 903 519 
L 1919 519 
Q 2491 519 2800 781 
Q 3109 1044 3109 1522 
Q 3109 1891 2904 2059 
Q 2700 2228 2247 2228 
L 1234 2228 
z
M 1606 4147 
L 1331 2741 
L 2272 2741 
Q 2775 2741 3058 2959 
Q 3341 3178 3341 3566 
Q 3341 3869 3150 4008 
Q 2959 4147 2541 4147 
L 1606 4147 
z
" transform="scale(0.015625)"/>
       <path id="DejaVuSans-2212" d="M 678 2272 
L 4684 2272 
L 4684 1741 
L 678 1741 
L 678 2272 
z
" transform="scale(0.015625)"/>
       <path id="DejaVuSans-Oblique-74" d="M 2706 3500 
L 2619 3053 
L 1472 3053 
L 1100 1153 
Q 1081 1047 1072 975 
Q 1063 903 1063 863 
Q 1063 663 1183 572 
Q 1303 481 1569 481 
L 2150 481 
L 2053 0 
L 1503 0 
Q 991 0 739 200 
Q 488 400 488 806 
Q 488 878 497 964 
Q 506 1050 525 1153 
L 897 3053 
L 409 3053 
L 500 3500 
L 978 3500 
L 1172 4494 
L 1747 4494 
L 1556 3500 
L 2706 3500 
z
" transform="scale(0.015625)"/>
       <path id="DejaVuSans-Oblique-78" d="M 3841 3500 
L 2234 1784 
L 3219 0 
L 2559 0 
L 1819 1388 
L 531 0 
L -166 0 
L 1556 1844 
L 641 3500 
L 1300 3500 
L 1972 2234 
L 3144 3500 
L 3841 3500 
z
" transform="scale(0.015625)"/>
       <path id="DejaVuSans-3d" d="M 678 2906 
L 4684 2906 
L 4684 2381 
L 678 2381 
L 678 2906 
z
M 678 1631 
L 4684 1631 
L 4684 1100 
L 678 1100 
L 678 1631 
z
" transform="scale(0.015625)"/>
      </defs>
      <use xlink:href="#DejaVuSans-49" transform="translate(0 0.015625)"/>
      <use xlink:href="#DejaVuSans-6d" transform="translate(25.867188 0.015625)"/>
      <use xlink:href="#DejaVuSans-70" transform="translate(123.279297 0.015625)"/>
      <use xlink:href="#DejaVuSans-72" transform="translate(186.755859 0.015625)"/>
      <use xlink:href="#DejaVuSans-6f" transform="translate(227.869141 0.015625)"/>
      <use xlink:href="#DejaVuSans-76" transform="translate(289.050781 0.015625)"/>
      <use xlink:href="#DejaVuSans-65" transform="translate(348.230469 0.015625)"/>
      <use xlink:href="#DejaVuSans-64" transform="translate(409.753906 0.015625)"/>
      <use xlink:href="#DejaVuSans-2c" transform="translate(473.230469 0.015625)"/>
      <use xlink:href="#DejaVuSans-20" transform="translate(505.017578 0.015625)"/>
      <use xlink:href="#DejaVuSans-Oblique-53" transform="translate(536.804688 0.015625)"/>
      <use xlink:href="#DejaVuSans-Oblique-45" transform="translate(600.28125 -16.390625) scale(0.7)"/>
      <use xlink:href="#DejaVuSans-Oblique-42" transform="translate(644.509766 -16.390625) scale(0.7)"/>
      <use xlink:href="#DejaVuSans-2212" transform="translate(706.169922 -16.390625) scale(0.7)"/>
      <use xlink:href="#DejaVuSans-Oblique-74" transform="translate(778.459961 -16.390625) scale(0.7)"/>
      <use xlink:href="#DejaVuSans-Oblique-78" transform="translate(805.90625 -16.390625) scale(0.7)"/>
      <use xlink:href="#DejaVuSans-3d" transform="translate(850.066406 0.015625)"/>
      <use xlink:href="#DejaVuSans-30" transform="translate(933.855469 0.015625)"/>
      <use xlink:href="#DejaVuSans-20" transform="translate(997.478516 0.015625)"/>
      <use xlink:href="#DejaVuSans-28" transform="translate(1029.265625 0.015625)"/>
      <use xlink:href="#DejaVuSans-6e" transform="translate(1068.279297 0.015625)"/>
      <use xlink:href="#DejaVuSans-6f" transform="translate(1131.658203 0.015625)"/>
      <use xlink:href="#DejaVuSans-20" transform="translate(1192.839844 0.015625)"/>
      <use xlink:href="#DejaVuSans-63" transform="translate(1224.626953 0.015625)"/>
      <use xlink:href="#DejaVuSans-6c" transform="translate(1279.607422 0.015625)"/>
      <use xlink:href="#DejaVuSans-6f" transform="translate(1307.390625 0.015625)"/>
      <use xlink:href="#DejaVuSans-73" transform="translate(1368.572266 0.015625)"/>
      <use xlink:href="#DejaVuSans-75" transform="translate(1420.671875 0.015625)"/>
      <use xlink:href="#DejaVuSans-72" transform="translate(1484.050781 0.015625)"/>
      <use xlink:href="#DejaVuSans-65" transform="translate(1525.164062 0.015625)"/>
      <use xlink:href="#DejaVuSans-29" transform="translate(1586.6875 0.015625)"/>
     </g>
    </g>
    <g id="line2d_35">
     <path d="M 471.22 271.1325 
L 479.22 271.1325 
L 487.22 271.1325 
" style="fill: none; stroke: #ff7f0e; stroke-width: 1.5; stroke-linecap: square"/>
    </g>
    <g id="text_19">
     <!-- Improved, $S_{EB-tx}$=12 MB -->
     <g transform="translate(493.62 273.9325) scale(0.08 -0.08)">
      <use xlink:href="#DejaVuSans-49" transform="translate(0 0.015625)"/>
      <use xlink:href="#DejaVuSans-6d" transform="translate(25.867188 0.015625)"/>
      <use xlink:href="#DejaVuSans-70" transform="translate(123.279297 0.015625)"/>
      <use xlink:href="#DejaVuSans-72" transform="translate(186.755859 0.015625)"/>
      <use xlink:href="#DejaVuSans-6f" transform="translate(227.869141 0.015625)"/>
      <use xlink:href="#DejaVuSans-76" transform="translate(289.050781 0.015625)"/>
      <use xlink:href="#DejaVuSans-65" transform="translate(348.230469 0.015625)"/>
      <use xlink:href="#DejaVuSans-64" transform="translate(409.753906 0.015625)"/>
      <use xlink:href="#DejaVuSans-2c" transform="translate(473.230469 0.015625)"/>
      <use xlink:href="#DejaVuSans-20" transform="translate(505.017578 0.015625)"/>
      <use xlink:href="#DejaVuSans-Oblique-53" transform="translate(536.804688 0.015625)"/>
      <use xlink:href="#DejaVuSans-Oblique-45" transform="translate(600.28125 -16.390625) scale(0.7)"/>
      <use xlink:href="#DejaVuSans-Oblique-42" transform="translate(644.509766 -16.390625) scale(0.7)"/>
      <use xlink:href="#DejaVuSans-2212" transform="translate(706.169922 -16.390625) scale(0.7)"/>
      <use xlink:href="#DejaVuSans-Oblique-74" transform="translate(778.459961 -16.390625) scale(0.7)"/>
      <use xlink:href="#DejaVuSans-Oblique-78" transform="translate(805.90625 -16.390625) scale(0.7)"/>
      <use xlink:href="#DejaVuSans-3d" transform="translate(850.066406 0.015625)"/>
      <use xlink:href="#DejaVuSans-31" transform="translate(933.855469 0.015625)"/>
      <use xlink:href="#DejaVuSans-32" transform="translate(997.478516 0.015625)"/>
      <use xlink:href="#DejaVuSans-20" transform="translate(1061.101562 0.015625)"/>
      <use xlink:href="#DejaVuSans-4d" transform="translate(1092.888672 0.015625)"/>
      <use xlink:href="#DejaVuSans-42" transform="translate(1179.167969 0.015625)"/>
     </g>
    </g>
    <g id="line2d_36">
     <path d="M 471.22 282.89125 
L 479.22 282.89125 
L 487.22 282.89125 
" style="fill: none; stroke-dasharray: 1.5,2.475; stroke-dashoffset: 0; stroke: #2ca02c; stroke-width: 1.5"/>
    </g>
    <g id="text_20">
     <!-- txRB path only (no EB cert) -->
     <g transform="translate(493.62 285.69125) scale(0.08 -0.08)">
      <defs>
       <path id="DejaVuSans-79" d="M 2059 -325 
Q 1816 -950 1584 -1140 
Q 1353 -1331 966 -1331 
L 506 -1331 
L 506 -850 
L 844 -850 
Q 1081 -850 1212 -737 
Q 1344 -625 1503 -206 
L 1606 56 
L 191 3500 
L 800 3500 
L 1894 763 
L 2988 3500 
L 3597 3500 
L 2059 -325 
z
" transform="scale(0.015625)"/>
      </defs>
      <use xlink:href="#DejaVuSans-74"/>
      <use xlink:href="#DejaVuSans-78" transform="translate(39.208984 0)"/>
      <use xlink:href="#DejaVuSans-52" transform="translate(98.388672 0)"/>
      <use xlink:href="#DejaVuSans-42" transform="translate(167.871094 0)"/>
      <use xlink:href="#DejaVuSans-20" transform="translate(236.474609 0)"/>
      <use xlink:href="#DejaVuSans-70" transform="translate(268.261719 0)"/>
      <use xlink:href="#DejaVuSans-61" transform="translate(331.738281 0)"/>
      <use xlink:href="#DejaVuSans-74" transform="translate(393.017578 0)"/>
      <use xlink:href="#DejaVuSans-68" transform="translate(432.226562 0)"/>
      <use xlink:href="#DejaVuSans-20" transform="translate(495.605469 0)"/>
      <use xlink:href="#DejaVuSans-6f" transform="translate(527.392578 0)"/>
      <use xlink:href="#DejaVuSans-6e" transform="translate(588.574219 0)"/>
      <use xlink:href="#DejaVuSans-6c" transform="translate(651.953125 0)"/>
      <use xlink:href="#DejaVuSans-79" transform="translate(679.736328 0)"/>
      <use xlink:href="#DejaVuSans-20" transform="translate(738.916016 0)"/>
      <use xlink:href="#DejaVuSans-28" transform="translate(770.703125 0)"/>
      <use xlink:href="#DejaVuSans-6e" transform="translate(809.716797 0)"/>
      <use xlink:href="#DejaVuSans-6f" transform="translate(873.095703 0)"/>
      <use xlink:href="#DejaVuSans-20" transform="translate(934.277344 0)"/>
      <use xlink:href="#DejaVuSans-45" transform="translate(966.064453 0)"/>
      <use xlink:href="#DejaVuSans-42" transform="translate(1029.248047 0)"/>
      <use xlink:href="#DejaVuSans-20" transform="translate(1097.851562 0)"/>
      <use xlink:href="#DejaVuSans-63" transform="translate(1129.638672 0)"/>
      <use xlink:href="#DejaVuSans-65" transform="translate(1184.619141 0)"/>
      <use xlink:href="#DejaVuSans-72" transform="translate(1246.142578 0)"/>
      <use xlink:href="#DejaVuSans-74" transform="translate(1287.255859 0)"/>
      <use xlink:href="#DejaVuSans-29" transform="translate(1326.464844 0)"/>
     </g>
    </g>
    <g id="line2d_37">
     <path d="M 471.22 294.63375 
L 479.22 294.63375 
L 487.22 294.63375 
" style="fill: none; stroke-dasharray: 3.7,1.6; stroke-dashoffset: 0; stroke: #ff0000"/>
    </g>
    <g id="text_21">
     <!-- Deadline $L$=14s -->
     <g transform="translate(493.62 297.43375) scale(0.08 -0.08)">
      <defs>
       <path id="DejaVuSans-Oblique-4c" d="M 1075 4666 
L 1709 4666 
L 909 525 
L 3181 525 
L 3078 0 
L 172 0 
L 1075 4666 
z
" transform="scale(0.015625)"/>
      </defs>
      <use xlink:href="#DejaVuSans-44" transform="translate(0 0.015625)"/>
      <use xlink:href="#DejaVuSans-65" transform="translate(77.001953 0.015625)"/>
      <use xlink:href="#DejaVuSans-61" transform="translate(138.525391 0.015625)"/>
      <use xlink:href="#DejaVuSans-64" transform="translate(199.804688 0.015625)"/>
      <use xlink:href="#DejaVuSans-6c" transform="translate(263.28125 0.015625)"/>
      <use xlink:href="#DejaVuSans-69" transform="translate(291.064453 0.015625)"/>
      <use xlink:href="#DejaVuSans-6e" transform="translate(318.847656 0.015625)"/>
      <use xlink:href="#DejaVuSans-65" transform="translate(382.226562 0.015625)"/>
      <use xlink:href="#DejaVuSans-20" transform="translate(443.75 0.015625)"/>
      <use xlink:href="#DejaVuSans-Oblique-4c" transform="translate(475.537109 0.015625)"/>
      <use xlink:href="#DejaVuSans-3d" transform="translate(531.25 0.015625)"/>
      <use xlink:href="#DejaVuSans-31" transform="translate(615.039062 0.015625)"/>
      <use xlink:href="#DejaVuSans-34" transform="translate(678.662109 0.015625)"/>
      <use xlink:href="#DejaVuSans-73" transform="translate(742.285156 0.015625)"/>
     </g>
    </g>
    <g id="line2d_38">
     <path d="M 471.22 306.37625 
L 479.22 306.37625 
L 487.22 306.37625 
" style="fill: none; stroke-dasharray: 0.8,1.32; stroke-dashoffset: 0; stroke: #808080; stroke-width: 0.8"/>
    </g>
    <g id="text_22">
     <!-- 97% target -->
     <g transform="translate(493.62 309.17625) scale(0.08 -0.08)">
      <defs>
       <path id="DejaVuSans-39" d="M 703 97 
L 703 672 
Q 941 559 1184 500 
Q 1428 441 1663 441 
Q 2288 441 2617 861 
Q 2947 1281 2994 2138 
Q 2813 1869 2534 1725 
Q 2256 1581 1919 1581 
Q 1219 1581 811 2004 
Q 403 2428 403 3163 
Q 403 3881 828 4315 
Q 1253 4750 1959 4750 
Q 2769 4750 3195 4129 
Q 3622 3509 3622 2328 
Q 3622 1225 3098 567 
Q 2575 -91 1691 -91 
Q 1453 -91 1209 -44 
Q 966 3 703 97 
z
M 1959 2075 
Q 2384 2075 2632 2365 
Q 2881 2656 2881 3163 
Q 2881 3666 2632 3958 
Q 2384 4250 1959 4250 
Q 1534 4250 1286 3958 
Q 1038 3666 1038 3163 
Q 1038 2656 1286 2365 
Q 1534 2075 1959 2075 
z
" transform="scale(0.015625)"/>
       <path id="DejaVuSans-37" d="M 525 4666 
L 3525 4666 
L 3525 4397 
L 1831 0 
L 1172 0 
L 2766 4134 
L 525 4134 
L 525 4666 
z
" transform="scale(0.015625)"/>
       <path id="DejaVuSans-25" d="M 4653 2053 
Q 4381 2053 4226 1822 
Q 4072 1591 4072 1178 
Q 4072 772 4226 539 
Q 4381 306 4653 306 
Q 4919 306 5073 539 
Q 5228 772 5228 1178 
Q 5228 1588 5073 1820 
Q 4919 2053 4653 2053 
z
M 4653 2450 
Q 5147 2450 5437 2106 
Q 5728 1763 5728 1178 
Q 5728 594 5436 251 
Q 5144 -91 4653 -91 
Q 4153 -91 3862 251 
Q 3572 594 3572 1178 
Q 3572 1766 3864 2108 
Q 4156 2450 4653 2450 
z
M 1428 4353 
Q 1159 4353 1004 4120 
Q 850 3888 850 3481 
Q 850 3069 1003 2837 
Q 1156 2606 1428 2606 
Q 1700 2606 1854 2837 
Q 2009 3069 2009 3481 
Q 2009 3884 1853 4118 
Q 1697 4353 1428 4353 
z
M 4250 4750 
L 4750 4750 
L 1831 -91 
L 1331 -91 
L 4250 4750 
z
M 1428 4750 
Q 1922 4750 2215 4408 
Q 2509 4066 2509 3481 
Q 2509 2891 2217 2550 
Q 1925 2209 1428 2209 
Q 931 2209 642 2551 
Q 353 2894 353 3481 
Q 353 4063 643 4406 
Q 934 4750 1428 4750 
z
" transform="scale(0.015625)"/>
      </defs>
      <use xlink:href="#DejaVuSans-39"/>
      <use xlink:href="#DejaVuSans-37" transform="translate(63.623047 0)"/>
      <use xlink:href="#DejaVuSans-25" transform="translate(127.246094 0)"/>
      <use xlink:href="#DejaVuSans-20" transform="translate(222.265625 0)"/>
      <use xlink:href="#DejaVuSans-74" transform="translate(254.052734 0)"/>
      <use xlink:href="#DejaVuSans-61" transform="translate(293.261719 0)"/>
      <use xlink:href="#DejaVuSans-72" transform="translate(354.541016 0)"/>
      <use xlink:href="#DejaVuSans-67" transform="translate(393.904297 0)"/>
      <use xlink:href="#DejaVuSans-65" transform="translate(457.380859 0)"/>
      <use xlink:href="#DejaVuSans-74" transform="translate(518.904297 0)"/>
     </g>
    </g>
   </g>
  </g>
 </g>
 <defs>
  <clipPath id="pf7ee67a792">
   <rect x="47.72" y="41.856" width="583.18" height="276.184"/>
  </clipPath>
 </defs>
</svg>
