<?xml version="1.0" encoding="utf-8" standalone="no"?>
<!DOCTYPE svg PUBLIC "-//W3C//DTD SVG 1.1//EN"
  "http://www.w3.org/Graphics/SVG/1.1/DTD/svg11.dtd">
<svg xmlns:xlink="http://www.w3.org/1999/xlink" width="1008pt" height="360pt" viewBox="0 0 1008 360" xmlns="http://www.w3.org/2000/svg" version="1.1">
 <metadata>
  <rdf:RDF xmlns:dc="http://purl.org/dc/elements/1.1/" xmlns:cc="http://creativecommons.org/ns#" xmlns:rdf="http://www.w3.org/1999/02/22-rdf-syntax-ns#">
   <cc:Work>
    <dc:type rdf:resource="http://purl.org/dc/dcmitype/StillImage"/>
    <dc:date>2026-05-11T19:32:31.268854</dc:date>
    <dc:format>image/svg+xml</dc:format>
    <dc:creator>
     <cc:Agent>
      <dc:title>Matplotlib v3.10.9, https://matplotlib.org/</dc:title>
     </cc:Agent>
    </dc:creator>
   </cc:Work>
  </rdf:RDF>
 </metadata>
 <defs>
  <style type="text/css">*{stroke-linejoin: round; stroke-linecap: butt}</style>
 </defs>
 <g id="figure_1">
  <g id="patch_1">
   <path d="M 0 360 
L 1008 360 
L 1008 0 
L 0 0 
z
" style="fill: #ffffff"/>
  </g>
  <g id="axes_1">
   <g id="patch_2">
    <path d="M 47.72 315.592 
L 498.42 315.592 
L 498.42 44.736 
L 47.72 44.736 
z
" style="fill: #ffffff"/>
   </g>
   <g id="matplotlib.axis_1">
    <g id="xtick_1">
     <g id="line2d_1">
      <path d="M 68.206364 315.592 
L 68.206364 44.736 
" clip-path="url(#p46d12a5adf)" style="fill: none; stroke: #b0b0b0; stroke-opacity: 0.3; stroke-width: 0.8; stroke-linecap: square"/>
     </g>
     <g id="line2d_2">
      <defs>
       <path id="mac6b68eaf4" d="M 0 0 
L 0 3.5 
" style="stroke: #000000; stroke-width: 0.8"/>
      </defs>
      <g>
       <use xlink:href="#mac6b68eaf4" x="68.206364" y="315.592" style="stroke: #000000; stroke-width: 0.8"/>
      </g>
     </g>
     <g id="text_1">
      <!-- 0 -->
      <g transform="translate(65.025114 330.190438) scale(0.1 -0.1)">
       <defs>
        <path id="DejaVuSans-30" d="M 2034 4250 
Q 1547 4250 1301 3770 
Q 1056 3291 1056 2328 
Q 1056 1369 1301 889 
Q 1547 409 2034 409 
Q 2525 409 2770 889 
Q 3016 1369 3016 2328 
Q 3016 3291 2770 3770 
Q 2525 4250 2034 4250 
z
M 2034 4750 
Q 2819 4750 3233 4129 
Q 3647 3509 3647 2328 
Q 3647 1150 3233 529 
Q 2819 -91 2034 -91 
Q 1250 -91 836 529 
Q 422 1150 422 2328 
Q 422 3509 836 4129 
Q 1250 4750 2034 4750 
z
" transform="scale(0.015625)"/>
       </defs>
       <use xlink:href="#DejaVuSans-30"/>
      </g>
     </g>
    </g>
    <g id="xtick_2">
     <g id="line2d_3">
      <path d="M 136.494242 315.592 
L 136.494242 44.736 
" clip-path="url(#p46d12a5adf)" style="fill: none; stroke: #b0b0b0; stroke-opacity: 0.3; stroke-width: 0.8; stroke-linecap: square"/>
     </g>
     <g id="line2d_4">
      <g>
       <use xlink:href="#mac6b68eaf4" x="136.494242" y="315.592" style="stroke: #000000; stroke-width: 0.8"/>
      </g>
     </g>
     <g id="text_2">
      <!-- 2 -->
      <g transform="translate(133.312992 330.190438) scale(0.1 -0.1)">
       <defs>
        <path id="DejaVuSans-32" d="M 1228 531 
L 3431 531 
L 3431 0 
L 469 0 
L 469 531 
Q 828 903 1448 1529 
Q 2069 2156 2228 2338 
Q 2531 2678 2651 2914 
Q 2772 3150 2772 3378 
Q 2772 3750 2511 3984 
Q 2250 4219 1831 4219 
Q 1534 4219 1204 4116 
Q 875 4013 500 3803 
L 500 4441 
Q 881 4594 1212 4672 
Q 1544 4750 1819 4750 
Q 2544 4750 2975 4387 
Q 3406 4025 3406 3419 
Q 3406 3131 3298 2873 
Q 3191 2616 2906 2266 
Q 2828 2175 2409 1742 
Q 1991 1309 1228 531 
z
" transform="scale(0.015625)"/>
       </defs>
       <use xlink:href="#DejaVuSans-32"/>
      </g>
     </g>
    </g>
    <g id="xtick_3">
     <g id="line2d_5">
      <path d="M 204.782121 315.592 
L 204.782121 44.736 
" clip-path="url(#p46d12a5adf)" style="fill: none; stroke: #b0b0b0; stroke-opacity: 0.3; stroke-width: 0.8; stroke-linecap: square"/>
     </g>
     <g id="line2d_6">
      <g>
       <use xlink:href="#mac6b68eaf4" x="204.782121" y="315.592" style="stroke: #000000; stroke-width: 0.8"/>
      </g>
     </g>
     <g id="text_3">
      <!-- 4 -->
      <g transform="translate(201.600871 330.190438) scale(0.1 -0.1)">
       <defs>
        <path id="DejaVuSans-34" d="M 2419 4116 
L 825 1625 
L 2419 1625 
L 2419 4116 
z
M 2253 4666 
L 3047 4666 
L 3047 1625 
L 3713 1625 
L 3713 1100 
L 3047 1100 
L 3047 0 
L 2419 0 
L 2419 1100 
L 313 1100 
L 313 1709 
L 2253 4666 
z
" transform="scale(0.015625)"/>
       </defs>
       <use xlink:href="#DejaVuSans-34"/>
      </g>
     </g>
    </g>
    <g id="xtick_4">
     <g id="line2d_7">
      <path d="M 273.07 315.592 
L 273.07 44.736 
" clip-path="url(#p46d12a5adf)" style="fill: none; stroke: #b0b0b0; stroke-opacity: 0.3; stroke-width: 0.8; stroke-linecap: square"/>
     </g>
     <g id="line2d_8">
      <g>
       <use xlink:href="#mac6b68eaf4" x="273.07" y="315.592" style="stroke: #000000; stroke-width: 0.8"/>
      </g>
     </g>
     <g id="text_4">
      <!-- 6 -->
      <g transform="translate(269.88875 330.190438) scale(0.1 -0.1)">
       <defs>
        <path id="DejaVuSans-36" d="M 2113 2584 
Q 1688 2584 1439 2293 
Q 1191 2003 1191 1497 
Q 1191 994 1439 701 
Q 1688 409 2113 409 
Q 2538 409 2786 701 
Q 3034 994 3034 1497 
Q 3034 2003 2786 2293 
Q 2538 2584 2113 2584 
z
M 3366 4563 
L 3366 3988 
Q 3128 4100 2886 4159 
Q 2644 4219 2406 4219 
Q 1781 4219 1451 3797 
Q 1122 3375 1075 2522 
Q 1259 2794 1537 2939 
Q 1816 3084 2150 3084 
Q 2853 3084 3261 2657 
Q 3669 2231 3669 1497 
Q 3669 778 3244 343 
Q 2819 -91 2113 -91 
Q 1303 -91 875 529 
Q 447 1150 447 2328 
Q 447 3434 972 4092 
Q 1497 4750 2381 4750 
Q 2619 4750 2861 4703 
Q 3103 4656 3366 4563 
z
" transform="scale(0.015625)"/>
       </defs>
       <use xlink:href="#DejaVuSans-36"/>
      </g>
     </g>
    </g>
    <g id="xtick_5">
     <g id="line2d_9">
      <path d="M 341.357879 315.592 
L 341.357879 44.736 
" clip-path="url(#p46d12a5adf)" style="fill: none; stroke: #b0b0b0; stroke-opacity: 0.3; stroke-width: 0.8; stroke-linecap: square"/>
     </g>
     <g id="line2d_10">
      <g>
       <use xlink:href="#mac6b68eaf4" x="341.357879" y="315.592" style="stroke: #000000; stroke-width: 0.8"/>
      </g>
     </g>
     <g id="text_5">
      <!-- 8 -->
      <g transform="translate(338.176629 330.190438) scale(0.1 -0.1)">
       <defs>
        <path id="DejaVuSans-38" d="M 2034 2216 
Q 1584 2216 1326 1975 
Q 1069 1734 1069 1313 
Q 1069 891 1326 650 
Q 1584 409 2034 409 
Q 2484 409 2743 651 
Q 3003 894 3003 1313 
Q 3003 1734 2745 1975 
Q 2488 2216 2034 2216 
z
M 1403 2484 
Q 997 2584 770 2862 
Q 544 3141 544 3541 
Q 544 4100 942 4425 
Q 1341 4750 2034 4750 
Q 2731 4750 3128 4425 
Q 3525 4100 3525 3541 
Q 3525 3141 3298 2862 
Q 3072 2584 2669 2484 
Q 3125 2378 3379 2068 
Q 3634 1759 3634 1313 
Q 3634 634 3220 271 
Q 2806 -91 2034 -91 
Q 1263 -91 848 271 
Q 434 634 434 1313 
Q 434 1759 690 2068 
Q 947 2378 1403 2484 
z
M 1172 3481 
Q 1172 3119 1398 2916 
Q 1625 2713 2034 2713 
Q 2441 2713 2670 2916 
Q 2900 3119 2900 3481 
Q 2900 3844 2670 4047 
Q 2441 4250 2034 4250 
Q 1625 4250 1398 4047 
Q 1172 3844 1172 3481 
z
" transform="scale(0.015625)"/>
       </defs>
       <use xlink:href="#DejaVuSans-38"/>
      </g>
     </g>
    </g>
    <g id="xtick_6">
     <g id="line2d_11">
      <path d="M 409.645758 315.592 
L 409.645758 44.736 
" clip-path="url(#p46d12a5adf)" style="fill: none; stroke: #b0b0b0; stroke-opacity: 0.3; stroke-width: 0.8; stroke-linecap: square"/>
     </g>
     <g id="line2d_12">
      <g>
       <use xlink:href="#mac6b68eaf4" x="409.645758" y="315.592" style="stroke: #000000; stroke-width: 0.8"/>
      </g>
     </g>
     <g id="text_6">
      <!-- 10 -->
      <g transform="translate(403.283258 330.190438) scale(0.1 -0.1)">
       <defs>
        <path id="DejaVuSans-31" d="M 794 531 
L 1825 531 
L 1825 4091 
L 703 3866 
L 703 4441 
L 1819 4666 
L 2450 4666 
L 2450 531 
L 3481 531 
L 3481 0 
L 794 0 
L 794 531 
z
" transform="scale(0.015625)"/>
       </defs>
       <use xlink:href="#DejaVuSans-31"/>
       <use xlink:href="#DejaVuSans-30" transform="translate(63.623047 0)"/>
      </g>
     </g>
    </g>
    <g id="xtick_7">
     <g id="line2d_13">
      <path d="M 477.933636 315.592 
L 477.933636 44.736 
" clip-path="url(#p46d12a5adf)" style="fill: none; stroke: #b0b0b0; stroke-opacity: 0.3; stroke-width: 0.8; stroke-linecap: square"/>
     </g>
     <g id="line2d_14">
      <g>
       <use xlink:href="#mac6b68eaf4" x="477.933636" y="315.592" style="stroke: #000000; stroke-width: 0.8"/>
      </g>
     </g>
     <g id="text_7">
      <!-- 12 -->
      <g transform="translate(471.571136 330.190438) scale(0.1 -0.1)">
       <use xlink:href="#DejaVuSans-31"/>
       <use xlink:href="#DejaVuSans-32" transform="translate(63.623047 0)"/>
      </g>
     </g>
    </g>
    <g id="text_8">
     <!-- $S_{EB-tx}$ (MB) -->
     <g transform="translate(244.17 343.868562) scale(0.1 -0.1)">
      <defs>
       <path id="DejaVuSans-Oblique-53" d="M 3859 4513 
L 3738 3897 
Q 3422 4066 3111 4152 
Q 2800 4238 2509 4238 
Q 1944 4238 1609 3991 
Q 1275 3744 1275 3334 
Q 1275 3109 1398 2989 
Q 1522 2869 2034 2731 
L 2413 2638 
Q 3053 2472 3303 2217 
Q 3553 1963 3553 1503 
Q 3553 797 2998 353 
Q 2444 -91 1538 -91 
Q 1166 -91 791 -17 
Q 416 56 38 206 
L 166 856 
Q 513 641 861 531 
Q 1209 422 1556 422 
Q 2147 422 2503 684 
Q 2859 947 2859 1369 
Q 2859 1650 2717 1795 
Q 2575 1941 2106 2059 
L 1728 2156 
Q 1081 2325 845 2545 
Q 609 2766 609 3163 
Q 609 3859 1145 4304 
Q 1681 4750 2541 4750 
Q 2875 4750 3203 4690 
Q 3531 4631 3859 4513 
z
" transform="scale(0.015625)"/>
       <path id="DejaVuSans-Oblique-45" d="M 1081 4666 
L 4031 4666 
L 3928 4134 
L 1606 4134 
L 1338 2753 
L 3566 2753 
L 3463 2222 
L 1234 2222 
L 909 531 
L 3284 531 
L 3181 0 
L 172 0 
L 1081 4666 
z
" transform="scale(0.015625)"/>
       <path id="DejaVuSans-Oblique-42" d="M 1081 4666 
L 2694 4666 
Q 3350 4666 3675 4422 
Q 4000 4178 4000 3688 
Q 4000 3238 3720 2911 
Q 3441 2584 2988 2516 
Q 3375 2428 3569 2181 
Q 3763 1934 3763 1522 
Q 3763 819 3242 409 
Q 2722 0 1819 0 
L 172 0 
L 1081 4666 
z
M 1234 2228 
L 903 519 
L 1919 519 
Q 2491 519 2800 781 
Q 3109 1044 3109 1522 
Q 3109 1891 2904 2059 
Q 2700 2228 2247 2228 
L 1234 2228 
z
M 1606 4147 
L 1331 2741 
L 2272 2741 
Q 2775 2741 3058 2959 
Q 3341 3178 3341 3566 
Q 3341 3869 3150 4008 
Q 2959 4147 2541 4147 
L 1606 4147 
z
" transform="scale(0.015625)"/>
       <path id="DejaVuSans-2212" d="M 678 2272 
L 4684 2272 
L 4684 1741 
L 678 1741 
L 678 2272 
z
" transform="scale(0.015625)"/>
       <path id="DejaVuSans-Oblique-74" d="M 2706 3500 
L 2619 3053 
L 1472 3053 
L 1100 1153 
Q 1081 1047 1072 975 
Q 1063 903 1063 863 
Q 1063 663 1183 572 
Q 1303 481 1569 481 
L 2150 481 
L 2053 0 
L 1503 0 
Q 991 0 739 200 
Q 488 400 488 806 
Q 488 878 497 964 
Q 506 1050 525 1153 
L 897 3053 
L 409 3053 
L 500 3500 
L 978 3500 
L 1172 4494 
L 1747 4494 
L 1556 3500 
L 2706 3500 
z
" transform="scale(0.015625)"/>
       <path id="DejaVuSans-Oblique-78" d="M 3841 3500 
L 2234 1784 
L 3219 0 
L 2559 0 
L 1819 1388 
L 531 0 
L -166 0 
L 1556 1844 
L 641 3500 
L 1300 3500 
L 1972 2234 
L 3144 3500 
L 3841 3500 
z
" transform="scale(0.015625)"/>
       <path id="DejaVuSans-20" transform="scale(0.015625)"/>
       <path id="DejaVuSans-28" d="M 1984 4856 
Q 1566 4138 1362 3434 
Q 1159 2731 1159 2009 
Q 1159 1288 1364 580 
Q 1569 -128 1984 -844 
L 1484 -844 
Q 1016 -109 783 600 
Q 550 1309 550 2009 
Q 550 2706 781 3412 
Q 1013 4119 1484 4856 
L 1984 4856 
z
" transform="scale(0.015625)"/>
       <path id="DejaVuSans-4d" d="M 628 4666 
L 1569 4666 
L 2759 1491 
L 3956 4666 
L 4897 4666 
L 4897 0 
L 4281 0 
L 4281 4097 
L 3078 897 
L 2444 897 
L 1241 4097 
L 1241 0 
L 628 0 
L 628 4666 
z
" transform="scale(0.015625)"/>
       <path id="DejaVuSans-42" d="M 1259 2228 
L 1259 519 
L 2272 519 
Q 2781 519 3026 730 
Q 3272 941 3272 1375 
Q 3272 1813 3026 2020 
Q 2781 2228 2272 2228 
L 1259 2228 
z
M 1259 4147 
L 1259 2741 
L 2194 2741 
Q 2656 2741 2882 2914 
Q 3109 3088 3109 3444 
Q 3109 3797 2882 3972 
Q 2656 4147 2194 4147 
L 1259 4147 
z
M 628 4666 
L 2241 4666 
Q 2963 4666 3353 4366 
Q 3744 4066 3744 3513 
Q 3744 3084 3544 2831 
Q 3344 2578 2956 2516 
Q 3422 2416 3680 2098 
Q 3938 1781 3938 1306 
Q 3938 681 3513 340 
Q 3088 0 2303 0 
L 628 0 
L 628 4666 
z
" transform="scale(0.015625)"/>
       <path id="DejaVuSans-29" d="M 513 4856 
L 1013 4856 
Q 1481 4119 1714 3412 
Q 1947 2706 1947 2009 
Q 1947 1309 1714 600 
Q 1481 -109 1013 -844 
L 513 -844 
Q 928 -128 1133 580 
Q 1338 1288 1338 2009 
Q 1338 2731 1133 3434 
Q 928 4138 513 4856 
z
" transform="scale(0.015625)"/>
      </defs>
      <use xlink:href="#DejaVuSans-Oblique-53" transform="translate(0 0.125)"/>
      <use xlink:href="#DejaVuSans-Oblique-45" transform="translate(63.476562 -16.28125) scale(0.7)"/>
      <use xlink:href="#DejaVuSans-Oblique-42" transform="translate(107.705078 -16.28125) scale(0.7)"/>
      <use xlink:href="#DejaVuSans-2212" transform="translate(169.365234 -16.28125) scale(0.7)"/>
      <use xlink:href="#DejaVuSans-Oblique-74" transform="translate(241.655273 -16.28125) scale(0.7)"/>
      <use xlink:href="#DejaVuSans-Oblique-78" transform="translate(269.101562 -16.28125) scale(0.7)"/>
      <use xlink:href="#DejaVuSans-20" transform="translate(313.261719 0.125)"/>
      <use xlink:href="#DejaVuSans-28" transform="translate(345.048828 0.125)"/>
      <use xlink:href="#DejaVuSans-4d" transform="translate(384.0625 0.125)"/>
      <use xlink:href="#DejaVuSans-42" transform="translate(470.341797 0.125)"/>
      <use xlink:href="#DejaVuSans-29" transform="translate(538.945312 0.125)"/>
     </g>
    </g>
   </g>
   <g id="matplotlib.axis_2">
    <g id="ytick_1">
     <g id="line2d_15">
      <path d="M 47.72 315.592 
L 498.42 315.592 
" clip-path="url(#p46d12a5adf)" style="fill: none; stroke: #b0b0b0; stroke-opacity: 0.3; stroke-width: 0.8; stroke-linecap: square"/>
     </g>
     <g id="line2d_16">
      <defs>
       <path id="m9f1a2f82c8" d="M 0 0 
L -3.5 0 
" style="stroke: #000000; stroke-width: 0.8"/>
      </defs>
      <g>
       <use xlink:href="#m9f1a2f82c8" x="47.72" y="315.592" style="stroke: #000000; stroke-width: 0.8"/>
      </g>
     </g>
     <g id="text_9">
      <!-- 0.0 -->
      <g transform="translate(24.816875 319.391219) scale(0.1 -0.1)">
       <defs>
        <path id="DejaVuSans-2e" d="M 684 794 
L 1344 794 
L 1344 0 
L 684 0 
L 684 794 
z
" transform="scale(0.015625)"/>
       </defs>
       <use xlink:href="#DejaVuSans-30"/>
       <use xlink:href="#DejaVuSans-2e" transform="translate(63.623047 0)"/>
       <use xlink:href="#DejaVuSans-30" transform="translate(95.410156 0)"/>
      </g>
     </g>
    </g>
    <g id="ytick_2">
     <g id="line2d_17">
      <path d="M 47.72 270.449333 
L 498.42 270.449333 
" clip-path="url(#p46d12a5adf)" style="fill: none; stroke: #b0b0b0; stroke-opacity: 0.3; stroke-width: 0.8; stroke-linecap: square"/>
     </g>
     <g id="line2d_18">
      <g>
       <use xlink:href="#m9f1a2f82c8" x="47.72" y="270.449333" style="stroke: #000000; stroke-width: 0.8"/>
      </g>
     </g>
     <g id="text_10">
      <!-- 0.1 -->
      <g transform="translate(24.816875 274.248552) scale(0.1 -0.1)">
       <use xlink:href="#DejaVuSans-30"/>
       <use xlink:href="#DejaVuSans-2e" transform="translate(63.623047 0)"/>
       <use xlink:href="#DejaVuSans-31" transform="translate(95.410156 0)"/>
      </g>
     </g>
    </g>
    <g id="ytick_3">
     <g id="line2d_19">
      <path d="M 47.72 225.306667 
L 498.42 225.306667 
" clip-path="url(#p46d12a5adf)" style="fill: none; stroke: #b0b0b0; stroke-opacity: 0.3; stroke-width: 0.8; stroke-linecap: square"/>
     </g>
     <g id="line2d_20">
      <g>
       <use xlink:href="#m9f1a2f82c8" x="47.72" y="225.306667" style="stroke: #000000; stroke-width: 0.8"/>
      </g>
     </g>
     <g id="text_11">
      <!-- 0.2 -->
      <g transform="translate(24.816875 229.105885) scale(0.1 -0.1)">
       <use xlink:href="#DejaVuSans-30"/>
       <use xlink:href="#DejaVuSans-2e" transform="translate(63.623047 0)"/>
       <use xlink:href="#DejaVuSans-32" transform="translate(95.410156 0)"/>
      </g>
     </g>
    </g>
    <g id="ytick_4">
     <g id="line2d_21">
      <path d="M 47.72 180.164 
L 498.42 180.164 
" clip-path="url(#p46d12a5adf)" style="fill: none; stroke: #b0b0b0; stroke-opacity: 0.3; stroke-width: 0.8; stroke-linecap: square"/>
     </g>
     <g id="line2d_22">
      <g>
       <use xlink:href="#m9f1a2f82c8" x="47.72" y="180.164" style="stroke: #000000; stroke-width: 0.8"/>
      </g>
     </g>
     <g id="text_12">
      <!-- 0.3 -->
      <g transform="translate(24.816875 183.963219) scale(0.1 -0.1)">
       <defs>
        <path id="DejaVuSans-33" d="M 2597 2516 
Q 3050 2419 3304 2112 
Q 3559 1806 3559 1356 
Q 3559 666 3084 287 
Q 2609 -91 1734 -91 
Q 1441 -91 1130 -33 
Q 819 25 488 141 
L 488 750 
Q 750 597 1062 519 
Q 1375 441 1716 441 
Q 2309 441 2620 675 
Q 2931 909 2931 1356 
Q 2931 1769 2642 2001 
Q 2353 2234 1838 2234 
L 1294 2234 
L 1294 2753 
L 1863 2753 
Q 2328 2753 2575 2939 
Q 2822 3125 2822 3475 
Q 2822 3834 2567 4026 
Q 2313 4219 1838 4219 
Q 1578 4219 1281 4162 
Q 984 4106 628 3988 
L 628 4550 
Q 988 4650 1302 4700 
Q 1616 4750 1894 4750 
Q 2613 4750 3031 4423 
Q 3450 4097 3450 3541 
Q 3450 3153 3228 2886 
Q 3006 2619 2597 2516 
z
" transform="scale(0.015625)"/>
       </defs>
       <use xlink:href="#DejaVuSans-30"/>
       <use xlink:href="#DejaVuSans-2e" transform="translate(63.623047 0)"/>
       <use xlink:href="#DejaVuSans-33" transform="translate(95.410156 0)"/>
      </g>
     </g>
    </g>
    <g id="ytick_5">
     <g id="line2d_23">
      <path d="M 47.72 135.021333 
L 498.42 135.021333 
" clip-path="url(#p46d12a5adf)" style="fill: none; stroke: #b0b0b0; stroke-opacity: 0.3; stroke-width: 0.8; stroke-linecap: square"/>
     </g>
     <g id="line2d_24">
      <g>
       <use xlink:href="#m9f1a2f82c8" x="47.72" y="135.021333" style="stroke: #000000; stroke-width: 0.8"/>
      </g>
     </g>
     <g id="text_13">
      <!-- 0.4 -->
      <g transform="translate(24.816875 138.820552) scale(0.1 -0.1)">
       <use xlink:href="#DejaVuSans-30"/>
       <use xlink:href="#DejaVuSans-2e" transform="translate(63.623047 0)"/>
       <use xlink:href="#DejaVuSans-34" transform="translate(95.410156 0)"/>
      </g>
     </g>
    </g>
    <g id="ytick_6">
     <g id="line2d_25">
      <path d="M 47.72 89.878667 
L 498.42 89.878667 
" clip-path="url(#p46d12a5adf)" style="fill: none; stroke: #b0b0b0; stroke-opacity: 0.3; stroke-width: 0.8; stroke-linecap: square"/>
     </g>
     <g id="line2d_26">
      <g>
       <use xlink:href="#m9f1a2f82c8" x="47.72" y="89.878667" style="stroke: #000000; stroke-width: 0.8"/>
      </g>
     </g>
     <g id="text_14">
      <!-- 0.5 -->
      <g transform="translate(24.816875 93.677885) scale(0.1 -0.1)">
       <defs>
        <path id="DejaVuSans-35" d="M 691 4666 
L 3169 4666 
L 3169 4134 
L 1269 4134 
L 1269 2991 
Q 1406 3038 1543 3061 
Q 1681 3084 1819 3084 
Q 2600 3084 3056 2656 
Q 3513 2228 3513 1497 
Q 3513 744 3044 326 
Q 2575 -91 1722 -91 
Q 1428 -91 1123 -41 
Q 819 9 494 109 
L 494 744 
Q 775 591 1075 516 
Q 1375 441 1709 441 
Q 2250 441 2565 725 
Q 2881 1009 2881 1497 
Q 2881 1984 2565 2268 
Q 2250 2553 1709 2553 
Q 1456 2553 1204 2497 
Q 953 2441 691 2322 
L 691 4666 
z
" transform="scale(0.015625)"/>
       </defs>
       <use xlink:href="#DejaVuSans-30"/>
       <use xlink:href="#DejaVuSans-2e" transform="translate(63.623047 0)"/>
       <use xlink:href="#DejaVuSans-35" transform="translate(95.410156 0)"/>
      </g>
     </g>
    </g>
    <g id="ytick_7">
     <g id="line2d_27">
      <path d="M 47.72 44.736 
L 498.42 44.736 
" clip-path="url(#p46d12a5adf)" style="fill: none; stroke: #b0b0b0; stroke-opacity: 0.3; stroke-width: 0.8; stroke-linecap: square"/>
     </g>
     <g id="line2d_28">
      <g>
       <use xlink:href="#m9f1a2f82c8" x="47.72" y="44.736" style="stroke: #000000; stroke-width: 0.8"/>
      </g>
     </g>
     <g id="text_15">
      <!-- 0.6 -->
      <g transform="translate(24.816875 48.535219) scale(0.1 -0.1)">
       <use xlink:href="#DejaVuSans-30"/>
       <use xlink:href="#DejaVuSans-2e" transform="translate(63.623047 0)"/>
       <use xlink:href="#DejaVuSans-36" transform="translate(95.410156 0)"/>
      </g>
     </g>
    </g>
    <g id="text_16">
     <!-- Probability -->
     <g transform="translate(18.737187 206.592906) rotate(-90) scale(0.1 -0.1)">
      <defs>
       <path id="DejaVuSans-50" d="M 1259 4147 
L 1259 2394 
L 2053 2394 
Q 2494 2394 2734 2622 
Q 2975 2850 2975 3272 
Q 2975 3691 2734 3919 
Q 2494 4147 2053 4147 
L 1259 4147 
z
M 628 4666 
L 2053 4666 
Q 2838 4666 3239 4311 
Q 3641 3956 3641 3272 
Q 3641 2581 3239 2228 
Q 2838 1875 2053 1875 
L 1259 1875 
L 1259 0 
L 628 0 
L 628 4666 
z
" transform="scale(0.015625)"/>
       <path id="DejaVuSans-72" d="M 2631 2963 
Q 2534 3019 2420 3045 
Q 2306 3072 2169 3072 
Q 1681 3072 1420 2755 
Q 1159 2438 1159 1844 
L 1159 0 
L 581 0 
L 581 3500 
L 1159 3500 
L 1159 2956 
Q 1341 3275 1631 3429 
Q 1922 3584 2338 3584 
Q 2397 3584 2469 3576 
Q 2541 3569 2628 3553 
L 2631 2963 
z
" transform="scale(0.015625)"/>
       <path id="DejaVuSans-6f" d="M 1959 3097 
Q 1497 3097 1228 2736 
Q 959 2375 959 1747 
Q 959 1119 1226 758 
Q 1494 397 1959 397 
Q 2419 397 2687 759 
Q 2956 1122 2956 1747 
Q 2956 2369 2687 2733 
Q 2419 3097 1959 3097 
z
M 1959 3584 
Q 2709 3584 3137 3096 
Q 3566 2609 3566 1747 
Q 3566 888 3137 398 
Q 2709 -91 1959 -91 
Q 1206 -91 779 398 
Q 353 888 353 1747 
Q 353 2609 779 3096 
Q 1206 3584 1959 3584 
z
" transform="scale(0.015625)"/>
       <path id="DejaVuSans-62" d="M 3116 1747 
Q 3116 2381 2855 2742 
Q 2594 3103 2138 3103 
Q 1681 3103 1420 2742 
Q 1159 2381 1159 1747 
Q 1159 1113 1420 752 
Q 1681 391 2138 391 
Q 2594 391 2855 752 
Q 3116 1113 3116 1747 
z
M 1159 2969 
Q 1341 3281 1617 3432 
Q 1894 3584 2278 3584 
Q 2916 3584 3314 3078 
Q 3713 2572 3713 1747 
Q 3713 922 3314 415 
Q 2916 -91 2278 -91 
Q 1894 -91 1617 61 
Q 1341 213 1159 525 
L 1159 0 
L 581 0 
L 581 4863 
L 1159 4863 
L 1159 2969 
z
" transform="scale(0.015625)"/>
       <path id="DejaVuSans-61" d="M 2194 1759 
Q 1497 1759 1228 1600 
Q 959 1441 959 1056 
Q 959 750 1161 570 
Q 1363 391 1709 391 
Q 2188 391 2477 730 
Q 2766 1069 2766 1631 
L 2766 1759 
L 2194 1759 
z
M 3341 1997 
L 3341 0 
L 2766 0 
L 2766 531 
Q 2569 213 2275 61 
Q 1981 -91 1556 -91 
Q 1019 -91 701 211 
Q 384 513 384 1019 
Q 384 1609 779 1909 
Q 1175 2209 1959 2209 
L 2766 2209 
L 2766 2266 
Q 2766 2663 2505 2880 
Q 2244 3097 1772 3097 
Q 1472 3097 1187 3025 
Q 903 2953 641 2809 
L 641 3341 
Q 956 3463 1253 3523 
Q 1550 3584 1831 3584 
Q 2591 3584 2966 3190 
Q 3341 2797 3341 1997 
z
" transform="scale(0.015625)"/>
       <path id="DejaVuSans-69" d="M 603 3500 
L 1178 3500 
L 1178 0 
L 603 0 
L 603 3500 
z
M 603 4863 
L 1178 4863 
L 1178 4134 
L 603 4134 
L 603 4863 
z
" transform="scale(0.015625)"/>
       <path id="DejaVuSans-6c" d="M 603 4863 
L 1178 4863 
L 1178 0 
L 603 0 
L 603 4863 
z
" transform="scale(0.015625)"/>
       <path id="DejaVuSans-74" d="M 1172 4494 
L 1172 3500 
L 2356 3500 
L 2356 3053 
L 1172 3053 
L 1172 1153 
Q 1172 725 1289 603 
Q 1406 481 1766 481 
L 2356 481 
L 2356 0 
L 1766 0 
Q 1100 0 847 248 
Q 594 497 594 1153 
L 594 3053 
L 172 3053 
L 172 3500 
L 594 3500 
L 594 4494 
L 1172 4494 
z
" transform="scale(0.015625)"/>
       <path id="DejaVuSans-79" d="M 2059 -325 
Q 1816 -950 1584 -1140 
Q 1353 -1331 966 -1331 
L 506 -1331 
L 506 -850 
L 844 -850 
Q 1081 -850 1212 -737 
Q 1344 -625 1503 -206 
L 1606 56 
L 191 3500 
L 800 3500 
L 1894 763 
L 2988 3500 
L 3597 3500 
L 2059 -325 
z
" transform="scale(0.015625)"/>
      </defs>
      <use xlink:href="#DejaVuSans-50"/>
      <use xlink:href="#DejaVuSans-72" transform="translate(58.552734 0)"/>
      <use xlink:href="#DejaVuSans-6f" transform="translate(97.416016 0)"/>
      <use xlink:href="#DejaVuSans-62" transform="translate(158.597656 0)"/>
      <use xlink:href="#DejaVuSans-61" transform="translate(222.074219 0)"/>
      <use xlink:href="#DejaVuSans-62" transform="translate(283.353516 0)"/>
      <use xlink:href="#DejaVuSans-69" transform="translate(346.830078 0)"/>
      <use xlink:href="#DejaVuSans-6c" transform="translate(374.613281 0)"/>
      <use xlink:href="#DejaVuSans-69" transform="translate(402.396484 0)"/>
      <use xlink:href="#DejaVuSans-74" transform="translate(430.179688 0)"/>
      <use xlink:href="#DejaVuSans-79" transform="translate(469.388672 0)"/>
     </g>
    </g>
   </g>
   <g id="line2d_29">
    <path d="M 68.206364 91.420152 
L 72.474356 91.420152 
L 76.742348 91.420152 
L 81.010341 91.420152 
L 85.278333 91.420152 
L 89.546326 91.420152 
L 93.814318 91.420152 
L 98.082311 91.420152 
L 102.350303 91.420152 
L 106.618295 91.420152 
L 110.886288 91.420152 
L 115.15428 91.420152 
L 119.422273 91.420152 
L 123.690265 91.420152 
L 127.958258 91.420152 
L 136.494242 91.420152 
L 153.566212 91.420152 
L 170.638182 91.420152 
L 204.782121 91.420152 
L 273.07 91.420152 
L 341.357879 91.420152 
L 477.933636 91.420152 
" clip-path="url(#p46d12a5adf)" style="fill: none; stroke: #1f77b4; stroke-width: 2; stroke-linecap: square"/>
    <defs>
     <path id="m0630df7424" d="M 0 3 
C 0.795609 3 1.55874 2.683901 2.12132 2.12132 
C 2.683901 1.55874 3 0.795609 3 0 
C 3 -0.795609 2.683901 -1.55874 2.12132 -2.12132 
C 1.55874 -2.683901 0.795609 -3 0 -3 
C -0.795609 -3 -1.55874 -2.683901 -2.12132 -2.12132 
C -2.683901 -1.55874 -3 -0.795609 -3 0 
C -3 0.795609 -2.683901 1.55874 -2.12132 2.12132 
C -1.55874 2.683901 -0.795609 3 0 3 
z
" style="stroke: #1f77b4"/>
    </defs>
    <g clip-path="url(#p46d12a5adf)">
     <use xlink:href="#m0630df7424" x="68.206364" y="91.420152" style="fill: #1f77b4; stroke: #1f77b4"/>
     <use xlink:href="#m0630df7424" x="72.474356" y="91.420152" style="fill: #1f77b4; stroke: #1f77b4"/>
     <use xlink:href="#m0630df7424" x="76.742348" y="91.420152" style="fill: #1f77b4; stroke: #1f77b4"/>
     <use xlink:href="#m0630df7424" x="81.010341" y="91.420152" style="fill: #1f77b4; stroke: #1f77b4"/>
     <use xlink:href="#m0630df7424" x="85.278333" y="91.420152" style="fill: #1f77b4; stroke: #1f77b4"/>
     <use xlink:href="#m0630df7424" x="89.546326" y="91.420152" style="fill: #1f77b4; stroke: #1f77b4"/>
     <use xlink:href="#m0630df7424" x="93.814318" y="91.420152" style="fill: #1f77b4; stroke: #1f77b4"/>
     <use xlink:href="#m0630df7424" x="98.082311" y="91.420152" style="fill: #1f77b4; stroke: #1f77b4"/>
     <use xlink:href="#m0630df7424" x="102.350303" y="91.420152" style="fill: #1f77b4; stroke: #1f77b4"/>
     <use xlink:href="#m0630df7424" x="106.618295" y="91.420152" style="fill: #1f77b4; stroke: #1f77b4"/>
     <use xlink:href="#m0630df7424" x="110.886288" y="91.420152" style="fill: #1f77b4; stroke: #1f77b4"/>
     <use xlink:href="#m0630df7424" x="115.15428" y="91.420152" style="fill: #1f77b4; stroke: #1f77b4"/>
     <use xlink:href="#m0630df7424" x="119.422273" y="91.420152" style="fill: #1f77b4; stroke: #1f77b4"/>
     <use xlink:href="#m0630df7424" x="123.690265" y="91.420152" style="fill: #1f77b4; stroke: #1f77b4"/>
     <use xlink:href="#m0630df7424" x="127.958258" y="91.420152" style="fill: #1f77b4; stroke: #1f77b4"/>
     <use xlink:href="#m0630df7424" x="136.494242" y="91.420152" style="fill: #1f77b4; stroke: #1f77b4"/>
     <use xlink:href="#m0630df7424" x="153.566212" y="91.420152" style="fill: #1f77b4; stroke: #1f77b4"/>
     <use xlink:href="#m0630df7424" x="170.638182" y="91.420152" style="fill: #1f77b4; stroke: #1f77b4"/>
     <use xlink:href="#m0630df7424" x="204.782121" y="91.420152" style="fill: #1f77b4; stroke: #1f77b4"/>
     <use xlink:href="#m0630df7424" x="273.07" y="91.420152" style="fill: #1f77b4; stroke: #1f77b4"/>
     <use xlink:href="#m0630df7424" x="341.357879" y="91.420152" style="fill: #1f77b4; stroke: #1f77b4"/>
     <use xlink:href="#m0630df7424" x="477.933636" y="91.420152" style="fill: #1f77b4; stroke: #1f77b4"/>
    </g>
   </g>
   <g id="line2d_30">
    <path clip-path="url(#p46d12a5adf)" style="fill: none; stroke: #ff7f0e; stroke-width: 2; stroke-linecap: square"/>
    <defs>
     <path id="mfef178b61d" d="M -3 3 
L 3 3 
L 3 -3 
L -3 -3 
z
" style="stroke: #ff7f0e; stroke-linejoin: miter"/>
    </defs>
    <g clip-path="url(#p46d12a5adf)"/>
   </g>
   <g id="line2d_31">
    <path d="M 68.206364 91.420152 
L 72.474356 91.420152 
L 76.742348 91.420152 
L 81.010341 91.420152 
L 85.278333 91.420152 
L 89.546326 91.420152 
L 93.814318 91.420152 
L 98.082311 91.420152 
L 102.350303 91.420152 
L 106.618295 91.420152 
L 110.886288 91.420152 
L 115.15428 91.420152 
L 119.422273 91.420152 
L 123.690265 91.420152 
L 127.958258 91.420152 
L 136.494242 91.420152 
L 153.566212 91.420152 
L 170.638182 91.420152 
L 204.782121 91.420152 
L 273.07 91.420152 
L 341.357879 91.420152 
L 477.933636 91.420152 
" clip-path="url(#p46d12a5adf)" style="fill: none; stroke: #d62728; stroke-width: 2; stroke-linecap: square"/>
    <defs>
     <path id="m81693b4f5b" d="M 0 -3 
L -3 3 
L 3 3 
z
" style="stroke: #d62728; stroke-linejoin: miter"/>
    </defs>
    <g clip-path="url(#p46d12a5adf)">
     <use xlink:href="#m81693b4f5b" x="68.206364" y="91.420152" style="fill: #d62728; stroke: #d62728; stroke-linejoin: miter"/>
     <use xlink:href="#m81693b4f5b" x="72.474356" y="91.420152" style="fill: #d62728; stroke: #d62728; stroke-linejoin: miter"/>
     <use xlink:href="#m81693b4f5b" x="76.742348" y="91.420152" style="fill: #d62728; stroke: #d62728; stroke-linejoin: miter"/>
     <use xlink:href="#m81693b4f5b" x="81.010341" y="91.420152" style="fill: #d62728; stroke: #d62728; stroke-linejoin: miter"/>
     <use xlink:href="#m81693b4f5b" x="85.278333" y="91.420152" style="fill: #d62728; stroke: #d62728; stroke-linejoin: miter"/>
     <use xlink:href="#m81693b4f5b" x="89.546326" y="91.420152" style="fill: #d62728; stroke: #d62728; stroke-linejoin: miter"/>
     <use xlink:href="#m81693b4f5b" x="93.814318" y="91.420152" style="fill: #d62728; stroke: #d62728; stroke-linejoin: miter"/>
     <use xlink:href="#m81693b4f5b" x="98.082311" y="91.420152" style="fill: #d62728; stroke: #d62728; stroke-linejoin: miter"/>
     <use xlink:href="#m81693b4f5b" x="102.350303" y="91.420152" style="fill: #d62728; stroke: #d62728; stroke-linejoin: miter"/>
     <use xlink:href="#m81693b4f5b" x="106.618295" y="91.420152" style="fill: #d62728; stroke: #d62728; stroke-linejoin: miter"/>
     <use xlink:href="#m81693b4f5b" x="110.886288" y="91.420152" style="fill: #d62728; stroke: #d62728; stroke-linejoin: miter"/>
     <use xlink:href="#m81693b4f5b" x="115.15428" y="91.420152" style="fill: #d62728; stroke: #d62728; stroke-linejoin: miter"/>
     <use xlink:href="#m81693b4f5b" x="119.422273" y="91.420152" style="fill: #d62728; stroke: #d62728; stroke-linejoin: miter"/>
     <use xlink:href="#m81693b4f5b" x="123.690265" y="91.420152" style="fill: #d62728; stroke: #d62728; stroke-linejoin: miter"/>
     <use xlink:href="#m81693b4f5b" x="127.958258" y="91.420152" style="fill: #d62728; stroke: #d62728; stroke-linejoin: miter"/>
     <use xlink:href="#m81693b4f5b" x="136.494242" y="91.420152" style="fill: #d62728; stroke: #d62728; stroke-linejoin: miter"/>
     <use xlink:href="#m81693b4f5b" x="153.566212" y="91.420152" style="fill: #d62728; stroke: #d62728; stroke-linejoin: miter"/>
     <use xlink:href="#m81693b4f5b" x="170.638182" y="91.420152" style="fill: #d62728; stroke: #d62728; stroke-linejoin: miter"/>
     <use xlink:href="#m81693b4f5b" x="204.782121" y="91.420152" style="fill: #d62728; stroke: #d62728; stroke-linejoin: miter"/>
     <use xlink:href="#m81693b4f5b" x="273.07" y="91.420152" style="fill: #d62728; stroke: #d62728; stroke-linejoin: miter"/>
     <use xlink:href="#m81693b4f5b" x="341.357879" y="91.420152" style="fill: #d62728; stroke: #d62728; stroke-linejoin: miter"/>
     <use xlink:href="#m81693b4f5b" x="477.933636" y="91.420152" style="fill: #d62728; stroke: #d62728; stroke-linejoin: miter"/>
    </g>
   </g>
   <g id="line2d_32">
    <path d="M 47.72 225.306667 
L 498.42 225.306667 
" clip-path="url(#p46d12a5adf)" style="fill: none; stroke-dasharray: 3.7,1.6; stroke-dashoffset: 0; stroke: #808080"/>
   </g>
   <g id="patch_3">
    <path d="M 47.72 315.592 
L 47.72 44.736 
" style="fill: none; stroke: #000000; stroke-width: 0.8; stroke-linejoin: miter; stroke-linecap: square"/>
   </g>
   <g id="patch_4">
    <path d="M 498.42 315.592 
L 498.42 44.736 
" style="fill: none; stroke: #000000; stroke-width: 0.8; stroke-linejoin: miter; stroke-linecap: square"/>
   </g>
   <g id="patch_5">
    <path d="M 47.72 315.592 
L 498.42 315.592 
" style="fill: none; stroke: #000000; stroke-width: 0.8; stroke-linejoin: miter; stroke-linecap: square"/>
   </g>
   <g id="patch_6">
    <path d="M 47.72 44.736 
L 498.42 44.736 
" style="fill: none; stroke: #000000; stroke-width: 0.8; stroke-linejoin: miter; stroke-linecap: square"/>
   </g>
   <g id="text_17">
    <!-- Liveness × Safety vs $S_{EB-tx}$ -->
    <g transform="translate(189.73 25.27425) scale(0.12 -0.12)">
     <defs>
      <path id="DejaVuSans-4c" d="M 628 4666 
L 1259 4666 
L 1259 531 
L 3531 531 
L 3531 0 
L 628 0 
L 628 4666 
z
" transform="scale(0.015625)"/>
      <path id="DejaVuSans-76" d="M 191 3500 
L 800 3500 
L 1894 563 
L 2988 3500 
L 3597 3500 
L 2284 0 
L 1503 0 
L 191 3500 
z
" transform="scale(0.015625)"/>
      <path id="DejaVuSans-65" d="M 3597 1894 
L 3597 1613 
L 953 1613 
Q 991 1019 1311 708 
Q 1631 397 2203 397 
Q 2534 397 2845 478 
Q 3156 559 3463 722 
L 3463 178 
Q 3153 47 2828 -22 
Q 2503 -91 2169 -91 
Q 1331 -91 842 396 
Q 353 884 353 1716 
Q 353 2575 817 3079 
Q 1281 3584 2069 3584 
Q 2775 3584 3186 3129 
Q 3597 2675 3597 1894 
z
M 3022 2063 
Q 3016 2534 2758 2815 
Q 2500 3097 2075 3097 
Q 1594 3097 1305 2825 
Q 1016 2553 972 2059 
L 3022 2063 
z
" transform="scale(0.015625)"/>
      <path id="DejaVuSans-6e" d="M 3513 2113 
L 3513 0 
L 2938 0 
L 2938 2094 
Q 2938 2591 2744 2837 
Q 2550 3084 2163 3084 
Q 1697 3084 1428 2787 
Q 1159 2491 1159 1978 
L 1159 0 
L 581 0 
L 581 3500 
L 1159 3500 
L 1159 2956 
Q 1366 3272 1645 3428 
Q 1925 3584 2291 3584 
Q 2894 3584 3203 3211 
Q 3513 2838 3513 2113 
z
" transform="scale(0.015625)"/>
      <path id="DejaVuSans-73" d="M 2834 3397 
L 2834 2853 
Q 2591 2978 2328 3040 
Q 2066 3103 1784 3103 
Q 1356 3103 1142 2972 
Q 928 2841 928 2578 
Q 928 2378 1081 2264 
Q 1234 2150 1697 2047 
L 1894 2003 
Q 2506 1872 2764 1633 
Q 3022 1394 3022 966 
Q 3022 478 2636 193 
Q 2250 -91 1575 -91 
Q 1294 -91 989 -36 
Q 684 19 347 128 
L 347 722 
Q 666 556 975 473 
Q 1284 391 1588 391 
Q 1994 391 2212 530 
Q 2431 669 2431 922 
Q 2431 1156 2273 1281 
Q 2116 1406 1581 1522 
L 1381 1569 
Q 847 1681 609 1914 
Q 372 2147 372 2553 
Q 372 3047 722 3315 
Q 1072 3584 1716 3584 
Q 2034 3584 2315 3537 
Q 2597 3491 2834 3397 
z
" transform="scale(0.015625)"/>
      <path id="DejaVuSans-d7" d="M 4488 3438 
L 3059 2003 
L 4488 575 
L 4116 197 
L 2681 1631 
L 1247 197 
L 878 575 
L 2303 2003 
L 878 3438 
L 1247 3816 
L 2681 2381 
L 4116 3816 
L 4488 3438 
z
" transform="scale(0.015625)"/>
      <path id="DejaVuSans-53" d="M 3425 4513 
L 3425 3897 
Q 3066 4069 2747 4153 
Q 2428 4238 2131 4238 
Q 1616 4238 1336 4038 
Q 1056 3838 1056 3469 
Q 1056 3159 1242 3001 
Q 1428 2844 1947 2747 
L 2328 2669 
Q 3034 2534 3370 2195 
Q 3706 1856 3706 1288 
Q 3706 609 3251 259 
Q 2797 -91 1919 -91 
Q 1588 -91 1214 -16 
Q 841 59 441 206 
L 441 856 
Q 825 641 1194 531 
Q 1563 422 1919 422 
Q 2459 422 2753 634 
Q 3047 847 3047 1241 
Q 3047 1584 2836 1778 
Q 2625 1972 2144 2069 
L 1759 2144 
Q 1053 2284 737 2584 
Q 422 2884 422 3419 
Q 422 4038 858 4394 
Q 1294 4750 2059 4750 
Q 2388 4750 2728 4690 
Q 3069 4631 3425 4513 
z
" transform="scale(0.015625)"/>
      <path id="DejaVuSans-66" d="M 2375 4863 
L 2375 4384 
L 1825 4384 
Q 1516 4384 1395 4259 
Q 1275 4134 1275 3809 
L 1275 3500 
L 2222 3500 
L 2222 3053 
L 1275 3053 
L 1275 0 
L 697 0 
L 697 3053 
L 147 3053 
L 147 3500 
L 697 3500 
L 697 3744 
Q 697 4328 969 4595 
Q 1241 4863 1831 4863 
L 2375 4863 
z
" transform="scale(0.015625)"/>
     </defs>
     <use xlink:href="#DejaVuSans-4c" transform="translate(0 0.015625)"/>
     <use xlink:href="#DejaVuSans-69" transform="translate(55.712891 0.015625)"/>
     <use xlink:href="#DejaVuSans-76" transform="translate(83.496094 0.015625)"/>
     <use xlink:href="#DejaVuSans-65" transform="translate(142.675781 0.015625)"/>
     <use xlink:href="#DejaVuSans-6e" transform="translate(204.199219 0.015625)"/>
     <use xlink:href="#DejaVuSans-65" transform="translate(267.578125 0.015625)"/>
     <use xlink:href="#DejaVuSans-73" transform="translate(329.101562 0.015625)"/>
     <use xlink:href="#DejaVuSans-73" transform="translate(381.201172 0.015625)"/>
     <use xlink:href="#DejaVuSans-20" transform="translate(433.300781 0.015625)"/>
     <use xlink:href="#DejaVuSans-d7" transform="translate(465.087891 0.015625)"/>
     <use xlink:href="#DejaVuSans-20" transform="translate(548.876953 0.015625)"/>
     <use xlink:href="#DejaVuSans-53" transform="translate(580.664062 0.015625)"/>
     <use xlink:href="#DejaVuSans-61" transform="translate(644.140625 0.015625)"/>
     <use xlink:href="#DejaVuSans-66" transform="translate(705.419922 0.015625)"/>
     <use xlink:href="#DejaVuSans-65" transform="translate(740.625 0.015625)"/>
     <use xlink:href="#DejaVuSans-74" transform="translate(802.148438 0.015625)"/>
     <use xlink:href="#DejaVuSans-79" transform="translate(841.357422 0.015625)"/>
     <use xlink:href="#DejaVuSans-20" transform="translate(900.537109 0.015625)"/>
     <use xlink:href="#DejaVuSans-76" transform="translate(932.324219 0.015625)"/>
     <use xlink:href="#DejaVuSans-73" transform="translate(991.503906 0.015625)"/>
     <use xlink:href="#DejaVuSans-20" transform="translate(1043.603516 0.015625)"/>
     <use xlink:href="#DejaVuSans-Oblique-53" transform="translate(1075.390625 0.015625)"/>
     <use xlink:href="#DejaVuSans-Oblique-45" transform="translate(1138.867188 -16.390625) scale(0.7)"/>
     <use xlink:href="#DejaVuSans-Oblique-42" transform="translate(1183.095703 -16.390625) scale(0.7)"/>
     <use xlink:href="#DejaVuSans-2212" transform="translate(1244.755859 -16.390625) scale(0.7)"/>
     <use xlink:href="#DejaVuSans-Oblique-74" transform="translate(1317.045898 -16.390625) scale(0.7)"/>
     <use xlink:href="#DejaVuSans-Oblique-78" transform="translate(1344.492188 -16.390625) scale(0.7)"/>
    </g>
    <!-- (cert path; cert-and-safe = EB certified AND processed in time) -->
    <g transform="translate(83.235625 38.736) scale(0.12 -0.12)">
     <defs>
      <path id="DejaVuSans-63" d="M 3122 3366 
L 3122 2828 
Q 2878 2963 2633 3030 
Q 2388 3097 2138 3097 
Q 1578 3097 1268 2742 
Q 959 2388 959 1747 
Q 959 1106 1268 751 
Q 1578 397 2138 397 
Q 2388 397 2633 464 
Q 2878 531 3122 666 
L 3122 134 
Q 2881 22 2623 -34 
Q 2366 -91 2075 -91 
Q 1284 -91 818 406 
Q 353 903 353 1747 
Q 353 2603 823 3093 
Q 1294 3584 2113 3584 
Q 2378 3584 2631 3529 
Q 2884 3475 3122 3366 
z
" transform="scale(0.015625)"/>
      <path id="DejaVuSans-70" d="M 1159 525 
L 1159 -1331 
L 581 -1331 
L 581 3500 
L 1159 3500 
L 1159 2969 
Q 1341 3281 1617 3432 
Q 1894 3584 2278 3584 
Q 2916 3584 3314 3078 
Q 3713 2572 3713 1747 
Q 3713 922 3314 415 
Q 2916 -91 2278 -91 
Q 1894 -91 1617 61 
Q 1341 213 1159 525 
z
M 3116 1747 
Q 3116 2381 2855 2742 
Q 2594 3103 2138 3103 
Q 1681 3103 1420 2742 
Q 1159 2381 1159 1747 
Q 1159 1113 1420 752 
Q 1681 391 2138 391 
Q 2594 391 2855 752 
Q 3116 1113 3116 1747 
z
" transform="scale(0.015625)"/>
      <path id="DejaVuSans-68" d="M 3513 2113 
L 3513 0 
L 2938 0 
L 2938 2094 
Q 2938 2591 2744 2837 
Q 2550 3084 2163 3084 
Q 1697 3084 1428 2787 
Q 1159 2491 1159 1978 
L 1159 0 
L 581 0 
L 581 4863 
L 1159 4863 
L 1159 2956 
Q 1366 3272 1645 3428 
Q 1925 3584 2291 3584 
Q 2894 3584 3203 3211 
Q 3513 2838 3513 2113 
z
" transform="scale(0.015625)"/>
      <path id="DejaVuSans-3b" d="M 750 3309 
L 1409 3309 
L 1409 2516 
L 750 2516 
L 750 3309 
z
M 750 794 
L 1409 794 
L 1409 256 
L 897 -744 
L 494 -744 
L 750 256 
L 750 794 
z
" transform="scale(0.015625)"/>
      <path id="DejaVuSans-2d" d="M 313 2009 
L 1997 2009 
L 1997 1497 
L 313 1497 
L 313 2009 
z
" transform="scale(0.015625)"/>
      <path id="DejaVuSans-64" d="M 2906 2969 
L 2906 4863 
L 3481 4863 
L 3481 0 
L 2906 0 
L 2906 525 
Q 2725 213 2448 61 
Q 2172 -91 1784 -91 
Q 1150 -91 751 415 
Q 353 922 353 1747 
Q 353 2572 751 3078 
Q 1150 3584 1784 3584 
Q 2172 3584 2448 3432 
Q 2725 3281 2906 2969 
z
M 947 1747 
Q 947 1113 1208 752 
Q 1469 391 1925 391 
Q 2381 391 2643 752 
Q 2906 1113 2906 1747 
Q 2906 2381 2643 2742 
Q 2381 3103 1925 3103 
Q 1469 3103 1208 2742 
Q 947 2381 947 1747 
z
" transform="scale(0.015625)"/>
      <path id="DejaVuSans-3d" d="M 678 2906 
L 4684 2906 
L 4684 2381 
L 678 2381 
L 678 2906 
z
M 678 1631 
L 4684 1631 
L 4684 1100 
L 678 1100 
L 678 1631 
z
" transform="scale(0.015625)"/>
      <path id="DejaVuSans-45" d="M 628 4666 
L 3578 4666 
L 3578 4134 
L 1259 4134 
L 1259 2753 
L 3481 2753 
L 3481 2222 
L 1259 2222 
L 1259 531 
L 3634 531 
L 3634 0 
L 628 0 
L 628 4666 
z
" transform="scale(0.015625)"/>
      <path id="DejaVuSans-41" d="M 2188 4044 
L 1331 1722 
L 3047 1722 
L 2188 4044 
z
M 1831 4666 
L 2547 4666 
L 4325 0 
L 3669 0 
L 3244 1197 
L 1141 1197 
L 716 0 
L 50 0 
L 1831 4666 
z
" transform="scale(0.015625)"/>
      <path id="DejaVuSans-4e" d="M 628 4666 
L 1478 4666 
L 3547 763 
L 3547 4666 
L 4159 4666 
L 4159 0 
L 3309 0 
L 1241 3903 
L 1241 0 
L 628 0 
L 628 4666 
z
" transform="scale(0.015625)"/>
      <path id="DejaVuSans-44" d="M 1259 4147 
L 1259 519 
L 2022 519 
Q 2988 519 3436 956 
Q 3884 1394 3884 2338 
Q 3884 3275 3436 3711 
Q 2988 4147 2022 4147 
L 1259 4147 
z
M 628 4666 
L 1925 4666 
Q 3281 4666 3915 4102 
Q 4550 3538 4550 2338 
Q 4550 1131 3912 565 
Q 3275 0 1925 0 
L 628 0 
L 628 4666 
z
" transform="scale(0.015625)"/>
      <path id="DejaVuSans-6d" d="M 3328 2828 
Q 3544 3216 3844 3400 
Q 4144 3584 4550 3584 
Q 5097 3584 5394 3201 
Q 5691 2819 5691 2113 
L 5691 0 
L 5113 0 
L 5113 2094 
Q 5113 2597 4934 2840 
Q 4756 3084 4391 3084 
Q 3944 3084 3684 2787 
Q 3425 2491 3425 1978 
L 3425 0 
L 2847 0 
L 2847 2094 
Q 2847 2600 2669 2842 
Q 2491 3084 2119 3084 
Q 1678 3084 1418 2786 
Q 1159 2488 1159 1978 
L 1159 0 
L 581 0 
L 581 3500 
L 1159 3500 
L 1159 2956 
Q 1356 3278 1631 3431 
Q 1906 3584 2284 3584 
Q 2666 3584 2933 3390 
Q 3200 3197 3328 2828 
z
" transform="scale(0.015625)"/>
     </defs>
     <use xlink:href="#DejaVuSans-28"/>
     <use xlink:href="#DejaVuSans-63" transform="translate(39.013672 0)"/>
     <use xlink:href="#DejaVuSans-65" transform="translate(93.994141 0)"/>
     <use xlink:href="#DejaVuSans-72" transform="translate(155.517578 0)"/>
     <use xlink:href="#DejaVuSans-74" transform="translate(196.630859 0)"/>
     <use xlink:href="#DejaVuSans-20" transform="translate(235.839844 0)"/>
     <use xlink:href="#DejaVuSans-70" transform="translate(267.626953 0)"/>
     <use xlink:href="#DejaVuSans-61" transform="translate(331.103516 0)"/>
     <use xlink:href="#DejaVuSans-74" transform="translate(392.382812 0)"/>
     <use xlink:href="#DejaVuSans-68" transform="translate(431.591797 0)"/>
     <use xlink:href="#DejaVuSans-3b" transform="translate(494.970703 0)"/>
     <use xlink:href="#DejaVuSans-20" transform="translate(528.662109 0)"/>
     <use xlink:href="#DejaVuSans-63" transform="translate(560.449219 0)"/>
     <use xlink:href="#DejaVuSans-65" transform="translate(615.429688 0)"/>
     <use xlink:href="#DejaVuSans-72" transform="translate(676.953125 0)"/>
     <use xlink:href="#DejaVuSans-74" transform="translate(718.066406 0)"/>
     <use xlink:href="#DejaVuSans-2d" transform="translate(757.275391 0)"/>
     <use xlink:href="#DejaVuSans-61" transform="translate(793.359375 0)"/>
     <use xlink:href="#DejaVuSans-6e" transform="translate(854.638672 0)"/>
     <use xlink:href="#DejaVuSans-64" transform="translate(918.017578 0)"/>
     <use xlink:href="#DejaVuSans-2d" transform="translate(981.494141 0)"/>
     <use xlink:href="#DejaVuSans-73" transform="translate(1017.578125 0)"/>
     <use xlink:href="#DejaVuSans-61" transform="translate(1069.677734 0)"/>
     <use xlink:href="#DejaVuSans-66" transform="translate(1130.957031 0)"/>
     <use xlink:href="#DejaVuSans-65" transform="translate(1166.162109 0)"/>
     <use xlink:href="#DejaVuSans-20" transform="translate(1227.685547 0)"/>
     <use xlink:href="#DejaVuSans-3d" transform="translate(1259.472656 0)"/>
     <use xlink:href="#DejaVuSans-20" transform="translate(1343.261719 0)"/>
     <use xlink:href="#DejaVuSans-45" transform="translate(1375.048828 0)"/>
     <use xlink:href="#DejaVuSans-42" transform="translate(1438.232422 0)"/>
     <use xlink:href="#DejaVuSans-20" transform="translate(1506.835938 0)"/>
     <use xlink:href="#DejaVuSans-63" transform="translate(1538.623047 0)"/>
     <use xlink:href="#DejaVuSans-65" transform="translate(1593.603516 0)"/>
     <use xlink:href="#DejaVuSans-72" transform="translate(1655.126953 0)"/>
     <use xlink:href="#DejaVuSans-74" transform="translate(1696.240234 0)"/>
     <use xlink:href="#DejaVuSans-69" transform="translate(1735.449219 0)"/>
     <use xlink:href="#DejaVuSans-66" transform="translate(1763.232422 0)"/>
     <use xlink:href="#DejaVuSans-69" transform="translate(1798.4375 0)"/>
     <use xlink:href="#DejaVuSans-65" transform="translate(1826.220703 0)"/>
     <use xlink:href="#DejaVuSans-64" transform="translate(1887.744141 0)"/>
     <use xlink:href="#DejaVuSans-20" transform="translate(1951.220703 0)"/>
     <use xlink:href="#DejaVuSans-41" transform="translate(1983.007812 0)"/>
     <use xlink:href="#DejaVuSans-4e" transform="translate(2051.416016 0)"/>
     <use xlink:href="#DejaVuSans-44" transform="translate(2126.220703 0)"/>
     <use xlink:href="#DejaVuSans-20" transform="translate(2203.222656 0)"/>
     <use xlink:href="#DejaVuSans-70" transform="translate(2235.009766 0)"/>
     <use xlink:href="#DejaVuSans-72" transform="translate(2298.486328 0)"/>
     <use xlink:href="#DejaVuSans-6f" transform="translate(2337.349609 0)"/>
     <use xlink:href="#DejaVuSans-63" transform="translate(2398.53125 0)"/>
     <use xlink:href="#DejaVuSans-65" transform="translate(2453.511719 0)"/>
     <use xlink:href="#DejaVuSans-73" transform="translate(2515.035156 0)"/>
     <use xlink:href="#DejaVuSans-73" transform="translate(2567.134766 0)"/>
     <use xlink:href="#DejaVuSans-65" transform="translate(2619.234375 0)"/>
     <use xlink:href="#DejaVuSans-64" transform="translate(2680.757812 0)"/>
     <use xlink:href="#DejaVuSans-20" transform="translate(2744.234375 0)"/>
     <use xlink:href="#DejaVuSans-69" transform="translate(2776.021484 0)"/>
     <use xlink:href="#DejaVuSans-6e" transform="translate(2803.804688 0)"/>
     <use xlink:href="#DejaVuSans-20" transform="translate(2867.183594 0)"/>
     <use xlink:href="#DejaVuSans-74" transform="translate(2898.970703 0)"/>
     <use xlink:href="#DejaVuSans-69" transform="translate(2938.179688 0)"/>
     <use xlink:href="#DejaVuSans-6d" transform="translate(2965.962891 0)"/>
     <use xlink:href="#DejaVuSans-65" transform="translate(3063.375 0)"/>
     <use xlink:href="#DejaVuSans-29" transform="translate(3124.898438 0)"/>
    </g>
   </g>
   <g id="legend_1">
    <g id="patch_7">
     <path d="M 53.32 311.592 
L 190.84 311.592 
Q 192.44 311.592 192.44 309.992 
L 192.44 263.822 
Q 192.44 262.222 190.84 262.222 
L 53.32 262.222 
Q 51.72 262.222 51.72 263.822 
L 51.72 309.992 
Q 51.72 311.592 53.32 311.592 
z
" style="fill: #ffffff; opacity: 0.8; stroke: #cccccc; stroke-linejoin: miter"/>
    </g>
    <g id="line2d_33">
     <path d="M 54.92 268.70075 
L 62.92 268.70075 
L 70.92 268.70075 
" style="fill: none; stroke: #1f77b4; stroke-width: 2; stroke-linecap: square"/>
     <g>
      <use xlink:href="#m0630df7424" x="62.92" y="268.70075" style="fill: #1f77b4; stroke: #1f77b4"/>
     </g>
    </g>
    <g id="text_18">
     <!-- $P_{certified}$ -->
     <g transform="translate(77.32 271.50075) scale(0.08 -0.08)">
      <defs>
       <path id="DejaVuSans-Oblique-50" d="M 1081 4666 
L 2541 4666 
Q 3178 4666 3512 4369 
Q 3847 4072 3847 3500 
Q 3847 2731 3353 2303 
Q 2859 1875 1966 1875 
L 1172 1875 
L 806 0 
L 172 0 
L 1081 4666 
z
M 1613 4147 
L 1275 2394 
L 2069 2394 
Q 2606 2394 2893 2669 
Q 3181 2944 3181 3456 
Q 3181 3784 2986 3965 
Q 2791 4147 2438 4147 
L 1613 4147 
z
" transform="scale(0.015625)"/>
       <path id="DejaVuSans-Oblique-63" d="M 3431 3366 
L 3316 2797 
Q 3109 2947 2876 3022 
Q 2644 3097 2394 3097 
Q 2119 3097 1870 3000 
Q 1622 2903 1453 2725 
Q 1184 2453 1037 2087 
Q 891 1722 891 1331 
Q 891 859 1127 628 
Q 1363 397 1844 397 
Q 2081 397 2348 469 
Q 2616 541 2906 684 
L 2797 116 
Q 2547 13 2283 -39 
Q 2019 -91 1741 -91 
Q 1044 -91 669 257 
Q 294 606 294 1253 
Q 294 1797 489 2255 
Q 684 2713 1069 3078 
Q 1331 3328 1684 3456 
Q 2038 3584 2456 3584 
Q 2700 3584 2940 3529 
Q 3181 3475 3431 3366 
z
" transform="scale(0.015625)"/>
       <path id="DejaVuSans-Oblique-65" d="M 3078 2063 
Q 3088 2113 3092 2166 
Q 3097 2219 3097 2272 
Q 3097 2653 2873 2875 
Q 2650 3097 2266 3097 
Q 1838 3097 1509 2826 
Q 1181 2556 1013 2059 
L 3078 2063 
z
M 3578 1613 
L 903 1613 
Q 884 1494 878 1425 
Q 872 1356 872 1306 
Q 872 872 1139 634 
Q 1406 397 1894 397 
Q 2269 397 2603 481 
Q 2938 566 3225 728 
L 3116 159 
Q 2806 34 2476 -28 
Q 2147 -91 1806 -91 
Q 1078 -91 686 257 
Q 294 606 294 1247 
Q 294 1794 489 2264 
Q 684 2734 1063 3103 
Q 1306 3334 1642 3459 
Q 1978 3584 2356 3584 
Q 2950 3584 3301 3228 
Q 3653 2872 3653 2272 
Q 3653 2128 3634 1964 
Q 3616 1800 3578 1613 
z
" transform="scale(0.015625)"/>
       <path id="DejaVuSans-Oblique-72" d="M 2853 2969 
Q 2766 3016 2653 3041 
Q 2541 3066 2413 3066 
Q 1953 3066 1609 2717 
Q 1266 2369 1153 1784 
L 800 0 
L 225 0 
L 909 3500 
L 1484 3500 
L 1375 2956 
Q 1603 3259 1920 3421 
Q 2238 3584 2597 3584 
Q 2691 3584 2781 3573 
Q 2872 3563 2963 3538 
L 2853 2969 
z
" transform="scale(0.015625)"/>
       <path id="DejaVuSans-Oblique-69" d="M 1172 4863 
L 1747 4863 
L 1606 4134 
L 1031 4134 
L 1172 4863 
z
M 909 3500 
L 1484 3500 
L 800 0 
L 225 0 
L 909 3500 
z
" transform="scale(0.015625)"/>
       <path id="DejaVuSans-Oblique-66" d="M 3059 4863 
L 2969 4384 
L 2419 4384 
Q 2106 4384 1964 4261 
Q 1822 4138 1753 3809 
L 1691 3500 
L 2638 3500 
L 2553 3053 
L 1606 3053 
L 1013 0 
L 434 0 
L 1031 3053 
L 481 3053 
L 563 3500 
L 1113 3500 
L 1159 3744 
Q 1278 4363 1576 4613 
Q 1875 4863 2516 4863 
L 3059 4863 
z
" transform="scale(0.015625)"/>
       <path id="DejaVuSans-Oblique-64" d="M 2675 525 
Q 2444 222 2128 65 
Q 1813 -91 1428 -91 
Q 903 -91 598 267 
Q 294 625 294 1247 
Q 294 1766 478 2236 
Q 663 2706 1013 3078 
Q 1244 3325 1534 3454 
Q 1825 3584 2144 3584 
Q 2481 3584 2739 3421 
Q 2997 3259 3138 2956 
L 3513 4863 
L 4091 4863 
L 3144 0 
L 2566 0 
L 2675 525 
z
M 891 1350 
Q 891 897 1095 644 
Q 1300 391 1663 391 
Q 1931 391 2161 520 
Q 2391 650 2566 903 
Q 2750 1166 2856 1509 
Q 2963 1853 2963 2188 
Q 2963 2622 2758 2865 
Q 2553 3109 2194 3109 
Q 1922 3109 1687 2981 
Q 1453 2853 1288 2613 
Q 1106 2353 998 2009 
Q 891 1666 891 1350 
z
" transform="scale(0.015625)"/>
      </defs>
      <use xlink:href="#DejaVuSans-Oblique-50" transform="translate(0 0.09375)"/>
      <use xlink:href="#DejaVuSans-Oblique-63" transform="translate(60.302734 -16.3125) scale(0.7)"/>
      <use xlink:href="#DejaVuSans-Oblique-65" transform="translate(98.789062 -16.3125) scale(0.7)"/>
      <use xlink:href="#DejaVuSans-Oblique-72" transform="translate(141.855469 -16.3125) scale(0.7)"/>
      <use xlink:href="#DejaVuSans-Oblique-74" transform="translate(170.634766 -16.3125) scale(0.7)"/>
      <use xlink:href="#DejaVuSans-Oblique-69" transform="translate(198.081055 -16.3125) scale(0.7)"/>
      <use xlink:href="#DejaVuSans-Oblique-66" transform="translate(217.529297 -16.3125) scale(0.7)"/>
      <use xlink:href="#DejaVuSans-Oblique-69" transform="translate(242.172852 -16.3125) scale(0.7)"/>
      <use xlink:href="#DejaVuSans-Oblique-65" transform="translate(261.621094 -16.3125) scale(0.7)"/>
      <use xlink:href="#DejaVuSans-Oblique-64" transform="translate(304.6875 -16.3125) scale(0.7)"/>
     </g>
    </g>
    <g id="line2d_34">
     <path d="M 54.92 280.44325 
L 62.92 280.44325 
L 70.92 280.44325 
" style="fill: none; stroke: #ff7f0e; stroke-width: 2; stroke-linecap: square"/>
     <g>
      <use xlink:href="#mfef178b61d" x="62.92" y="280.44325" style="fill: #ff7f0e; stroke: #ff7f0e; stroke-linejoin: miter"/>
     </g>
    </g>
    <g id="text_19">
     <!-- $P$(certRB validated $\leq 14s$) -->
     <g transform="translate(77.32 283.24325) scale(0.08 -0.08)">
      <defs>
       <path id="DejaVuSans-52" d="M 2841 2188 
Q 3044 2119 3236 1894 
Q 3428 1669 3622 1275 
L 4263 0 
L 3584 0 
L 2988 1197 
Q 2756 1666 2539 1819 
Q 2322 1972 1947 1972 
L 1259 1972 
L 1259 0 
L 628 0 
L 628 4666 
L 2053 4666 
Q 2853 4666 3247 4331 
Q 3641 3997 3641 3322 
Q 3641 2881 3436 2590 
Q 3231 2300 2841 2188 
z
M 1259 4147 
L 1259 2491 
L 2053 2491 
Q 2509 2491 2742 2702 
Q 2975 2913 2975 3322 
Q 2975 3731 2742 3939 
Q 2509 4147 2053 4147 
L 1259 4147 
z
" transform="scale(0.015625)"/>
       <path id="DejaVuSans-2264" d="M 4684 3175 
L 1684 2309 
L 4684 1453 
L 4684 897 
L 678 2047 
L 678 2578 
L 4684 3725 
L 4684 3175 
z
M 678 531 
L 4684 531 
L 4684 0 
L 678 0 
L 678 531 
z
" transform="scale(0.015625)"/>
       <path id="DejaVuSans-Oblique-73" d="M 3200 3397 
L 3091 2853 
Q 2863 2978 2609 3040 
Q 2356 3103 2088 3103 
Q 1634 3103 1373 2948 
Q 1113 2794 1113 2528 
Q 1113 2219 1719 2053 
Q 1766 2041 1788 2034 
L 1972 1978 
Q 2547 1819 2739 1644 
Q 2931 1469 2931 1166 
Q 2931 609 2489 259 
Q 2047 -91 1331 -91 
Q 1053 -91 747 -37 
Q 441 16 72 128 
L 184 722 
Q 500 559 806 475 
Q 1113 391 1394 391 
Q 1816 391 2080 572 
Q 2344 753 2344 1031 
Q 2344 1331 1650 1516 
L 1591 1531 
L 1394 1581 
Q 956 1697 753 1886 
Q 550 2075 550 2369 
Q 550 2928 970 3256 
Q 1391 3584 2113 3584 
Q 2397 3584 2667 3537 
Q 2938 3491 3200 3397 
z
" transform="scale(0.015625)"/>
      </defs>
      <use xlink:href="#DejaVuSans-Oblique-50" transform="translate(0 0.015625)"/>
      <use xlink:href="#DejaVuSans-28" transform="translate(60.302734 0.015625)"/>
      <use xlink:href="#DejaVuSans-63" transform="translate(99.316406 0.015625)"/>
      <use xlink:href="#DejaVuSans-65" transform="translate(154.296875 0.015625)"/>
      <use xlink:href="#DejaVuSans-72" transform="translate(215.820312 0.015625)"/>
      <use xlink:href="#DejaVuSans-74" transform="translate(256.933594 0.015625)"/>
      <use xlink:href="#DejaVuSans-52" transform="translate(296.142578 0.015625)"/>
      <use xlink:href="#DejaVuSans-42" transform="translate(365.625 0.015625)"/>
      <use xlink:href="#DejaVuSans-20" transform="translate(434.228516 0.015625)"/>
      <use xlink:href="#DejaVuSans-76" transform="translate(466.015625 0.015625)"/>
      <use xlink:href="#DejaVuSans-61" transform="translate(525.195312 0.015625)"/>
      <use xlink:href="#DejaVuSans-6c" transform="translate(586.474609 0.015625)"/>
      <use xlink:href="#DejaVuSans-69" transform="translate(614.257812 0.015625)"/>
      <use xlink:href="#DejaVuSans-64" transform="translate(642.041016 0.015625)"/>
      <use xlink:href="#DejaVuSans-61" transform="translate(705.517578 0.015625)"/>
      <use xlink:href="#DejaVuSans-74" transform="translate(766.796875 0.015625)"/>
      <use xlink:href="#DejaVuSans-65" transform="translate(806.005859 0.015625)"/>
      <use xlink:href="#DejaVuSans-64" transform="translate(867.529297 0.015625)"/>
      <use xlink:href="#DejaVuSans-20" transform="translate(931.005859 0.015625)"/>
      <use xlink:href="#DejaVuSans-2264" transform="translate(982.275391 0.015625)"/>
      <use xlink:href="#DejaVuSans-31" transform="translate(1085.546875 0.015625)"/>
      <use xlink:href="#DejaVuSans-34" transform="translate(1149.169922 0.015625)"/>
      <use xlink:href="#DejaVuSans-Oblique-73" transform="translate(1212.792969 0.015625)"/>
      <use xlink:href="#DejaVuSans-29" transform="translate(1264.892578 0.015625)"/>
     </g>
    </g>
    <g id="line2d_35">
     <path d="M 54.92 292.18575 
L 62.92 292.18575 
L 70.92 292.18575 
" style="fill: none; stroke: #d62728; stroke-width: 2; stroke-linecap: square"/>
     <g>
      <use xlink:href="#m81693b4f5b" x="62.92" y="292.18575" style="fill: #d62728; stroke: #d62728; stroke-linejoin: miter"/>
     </g>
    </g>
    <g id="text_20">
     <!-- $P_{cert} \times P(\leq 14s)$  (combined) -->
     <g transform="translate(77.32 294.98575) scale(0.08 -0.08)">
      <use xlink:href="#DejaVuSans-Oblique-50" transform="translate(0 0.015625)"/>
      <use xlink:href="#DejaVuSans-Oblique-63" transform="translate(60.302734 -16.390625) scale(0.7)"/>
      <use xlink:href="#DejaVuSans-Oblique-65" transform="translate(98.789062 -16.390625) scale(0.7)"/>
      <use xlink:href="#DejaVuSans-Oblique-72" transform="translate(141.855469 -16.390625) scale(0.7)"/>
      <use xlink:href="#DejaVuSans-Oblique-74" transform="translate(170.634766 -16.390625) scale(0.7)"/>
      <use xlink:href="#DejaVuSans-d7" transform="translate(220.297852 0.015625)"/>
      <use xlink:href="#DejaVuSans-Oblique-50" transform="translate(323.569336 0.015625)"/>
      <use xlink:href="#DejaVuSans-28" transform="translate(383.87207 0.015625)"/>
      <use xlink:href="#DejaVuSans-2264" transform="translate(442.368164 0.015625)"/>
      <use xlink:href="#DejaVuSans-31" transform="translate(545.639648 0.015625)"/>
      <use xlink:href="#DejaVuSans-34" transform="translate(609.262695 0.015625)"/>
      <use xlink:href="#DejaVuSans-Oblique-73" transform="translate(672.885742 0.015625)"/>
      <use xlink:href="#DejaVuSans-29" transform="translate(724.985352 0.015625)"/>
      <use xlink:href="#DejaVuSans-20" transform="translate(763.999023 0.015625)"/>
      <use xlink:href="#DejaVuSans-20" transform="translate(795.786133 0.015625)"/>
      <use xlink:href="#DejaVuSans-28" transform="translate(827.573242 0.015625)"/>
      <use xlink:href="#DejaVuSans-63" transform="translate(866.586914 0.015625)"/>
      <use xlink:href="#DejaVuSans-6f" transform="translate(921.567383 0.015625)"/>
      <use xlink:href="#DejaVuSans-6d" transform="translate(982.749023 0.015625)"/>
      <use xlink:href="#DejaVuSans-62" transform="translate(1080.161133 0.015625)"/>
      <use xlink:href="#DejaVuSans-69" transform="translate(1143.637695 0.015625)"/>
      <use xlink:href="#DejaVuSans-6e" transform="translate(1171.420898 0.015625)"/>
      <use xlink:href="#DejaVuSans-65" transform="translate(1234.799805 0.015625)"/>
      <use xlink:href="#DejaVuSans-64" transform="translate(1296.323242 0.015625)"/>
      <use xlink:href="#DejaVuSans-29" transform="translate(1359.799805 0.015625)"/>
     </g>
    </g>
    <g id="line2d_36">
     <path d="M 54.92 303.92825 
L 62.92 303.92825 
L 70.92 303.92825 
" style="fill: none; stroke-dasharray: 3.7,1.6; stroke-dashoffset: 0; stroke: #808080"/>
    </g>
    <g id="text_21">
     <!-- 20% viability floor -->
     <g transform="translate(77.32 306.72825) scale(0.08 -0.08)">
      <defs>
       <path id="DejaVuSans-25" d="M 4653 2053 
Q 4381 2053 4226 1822 
Q 4072 1591 4072 1178 
Q 4072 772 4226 539 
Q 4381 306 4653 306 
Q 4919 306 5073 539 
Q 5228 772 5228 1178 
Q 5228 1588 5073 1820 
Q 4919 2053 4653 2053 
z
M 4653 2450 
Q 5147 2450 5437 2106 
Q 5728 1763 5728 1178 
Q 5728 594 5436 251 
Q 5144 -91 4653 -91 
Q 4153 -91 3862 251 
Q 3572 594 3572 1178 
Q 3572 1766 3864 2108 
Q 4156 2450 4653 2450 
z
M 1428 4353 
Q 1159 4353 1004 4120 
Q 850 3888 850 3481 
Q 850 3069 1003 2837 
Q 1156 2606 1428 2606 
Q 1700 2606 1854 2837 
Q 2009 3069 2009 3481 
Q 2009 3884 1853 4118 
Q 1697 4353 1428 4353 
z
M 4250 4750 
L 4750 4750 
L 1831 -91 
L 1331 -91 
L 4250 4750 
z
M 1428 4750 
Q 1922 4750 2215 4408 
Q 2509 4066 2509 3481 
Q 2509 2891 2217 2550 
Q 1925 2209 1428 2209 
Q 931 2209 642 2551 
Q 353 2894 353 3481 
Q 353 4063 643 4406 
Q 934 4750 1428 4750 
z
" transform="scale(0.015625)"/>
      </defs>
      <use xlink:href="#DejaVuSans-32"/>
      <use xlink:href="#DejaVuSans-30" transform="translate(63.623047 0)"/>
      <use xlink:href="#DejaVuSans-25" transform="translate(127.246094 0)"/>
      <use xlink:href="#DejaVuSans-20" transform="translate(222.265625 0)"/>
      <use xlink:href="#DejaVuSans-76" transform="translate(254.052734 0)"/>
      <use xlink:href="#DejaVuSans-69" transform="translate(313.232422 0)"/>
      <use xlink:href="#DejaVuSans-61" transform="translate(341.015625 0)"/>
      <use xlink:href="#DejaVuSans-62" transform="translate(402.294922 0)"/>
      <use xlink:href="#DejaVuSans-69" transform="translate(465.771484 0)"/>
      <use xlink:href="#DejaVuSans-6c" transform="translate(493.554688 0)"/>
      <use xlink:href="#DejaVuSans-69" transform="translate(521.337891 0)"/>
      <use xlink:href="#DejaVuSans-74" transform="translate(549.121094 0)"/>
      <use xlink:href="#DejaVuSans-79" transform="translate(588.330078 0)"/>
      <use xlink:href="#DejaVuSans-20" transform="translate(647.509766 0)"/>
      <use xlink:href="#DejaVuSans-66" transform="translate(679.296875 0)"/>
      <use xlink:href="#DejaVuSans-6c" transform="translate(714.501953 0)"/>
      <use xlink:href="#DejaVuSans-6f" transform="translate(742.285156 0)"/>
      <use xlink:href="#DejaVuSans-6f" transform="translate(803.466797 0)"/>
      <use xlink:href="#DejaVuSans-72" transform="translate(864.648438 0)"/>
     </g>
    </g>
   </g>
  </g>
  <g id="axes_2">
   <g id="patch_8">
    <path d="M 546.5 315.592 
L 997.2 315.592 
L 997.2 44.736 
L 546.5 44.736 
z
" style="fill: #ffffff"/>
   </g>
   <g id="matplotlib.axis_3">
    <g id="xtick_8">
     <g id="line2d_37">
      <path d="M 566.986364 315.592 
L 566.986364 44.736 
" clip-path="url(#pd2e235ef03)" style="fill: none; stroke: #b0b0b0; stroke-opacity: 0.3; stroke-width: 0.8; stroke-linecap: square"/>
     </g>
     <g id="line2d_38">
      <g>
       <use xlink:href="#mac6b68eaf4" x="566.986364" y="315.592" style="stroke: #000000; stroke-width: 0.8"/>
      </g>
     </g>
     <g id="text_22">
      <!-- 0 -->
      <g transform="translate(563.805114 330.190438) scale(0.1 -0.1)">
       <use xlink:href="#DejaVuSans-30"/>
      </g>
     </g>
    </g>
    <g id="xtick_9">
     <g id="line2d_39">
      <path d="M 635.274242 315.592 
L 635.274242 44.736 
" clip-path="url(#pd2e235ef03)" style="fill: none; stroke: #b0b0b0; stroke-opacity: 0.3; stroke-width: 0.8; stroke-linecap: square"/>
     </g>
     <g id="line2d_40">
      <g>
       <use xlink:href="#mac6b68eaf4" x="635.274242" y="315.592" style="stroke: #000000; stroke-width: 0.8"/>
      </g>
     </g>
     <g id="text_23">
      <!-- 2 -->
      <g transform="translate(632.092992 330.190438) scale(0.1 -0.1)">
       <use xlink:href="#DejaVuSans-32"/>
      </g>
     </g>
    </g>
    <g id="xtick_10">
     <g id="line2d_41">
      <path d="M 703.562121 315.592 
L 703.562121 44.736 
" clip-path="url(#pd2e235ef03)" style="fill: none; stroke: #b0b0b0; stroke-opacity: 0.3; stroke-width: 0.8; stroke-linecap: square"/>
     </g>
     <g id="line2d_42">
      <g>
       <use xlink:href="#mac6b68eaf4" x="703.562121" y="315.592" style="stroke: #000000; stroke-width: 0.8"/>
      </g>
     </g>
     <g id="text_24">
      <!-- 4 -->
      <g transform="translate(700.380871 330.190438) scale(0.1 -0.1)">
       <use xlink:href="#DejaVuSans-34"/>
      </g>
     </g>
    </g>
    <g id="xtick_11">
     <g id="line2d_43">
      <path d="M 771.85 315.592 
L 771.85 44.736 
" clip-path="url(#pd2e235ef03)" style="fill: none; stroke: #b0b0b0; stroke-opacity: 0.3; stroke-width: 0.8; stroke-linecap: square"/>
     </g>
     <g id="line2d_44">
      <g>
       <use xlink:href="#mac6b68eaf4" x="771.85" y="315.592" style="stroke: #000000; stroke-width: 0.8"/>
      </g>
     </g>
     <g id="text_25">
      <!-- 6 -->
      <g transform="translate(768.66875 330.190438) scale(0.1 -0.1)">
       <use xlink:href="#DejaVuSans-36"/>
      </g>
     </g>
    </g>
    <g id="xtick_12">
     <g id="line2d_45">
      <path d="M 840.137879 315.592 
L 840.137879 44.736 
" clip-path="url(#pd2e235ef03)" style="fill: none; stroke: #b0b0b0; stroke-opacity: 0.3; stroke-width: 0.8; stroke-linecap: square"/>
     </g>
     <g id="line2d_46">
      <g>
       <use xlink:href="#mac6b68eaf4" x="840.137879" y="315.592" style="stroke: #000000; stroke-width: 0.8"/>
      </g>
     </g>
     <g id="text_26">
      <!-- 8 -->
      <g transform="translate(836.956629 330.190438) scale(0.1 -0.1)">
       <use xlink:href="#DejaVuSans-38"/>
      </g>
     </g>
    </g>
    <g id="xtick_13">
     <g id="line2d_47">
      <path d="M 908.425758 315.592 
L 908.425758 44.736 
" clip-path="url(#pd2e235ef03)" style="fill: none; stroke: #b0b0b0; stroke-opacity: 0.3; stroke-width: 0.8; stroke-linecap: square"/>
     </g>
     <g id="line2d_48">
      <g>
       <use xlink:href="#mac6b68eaf4" x="908.425758" y="315.592" style="stroke: #000000; stroke-width: 0.8"/>
      </g>
     </g>
     <g id="text_27">
      <!-- 10 -->
      <g transform="translate(902.063258 330.190438) scale(0.1 -0.1)">
       <use xlink:href="#DejaVuSans-31"/>
       <use xlink:href="#DejaVuSans-30" transform="translate(63.623047 0)"/>
      </g>
     </g>
    </g>
    <g id="xtick_14">
     <g id="line2d_49">
      <path d="M 976.713636 315.592 
L 976.713636 44.736 
" clip-path="url(#pd2e235ef03)" style="fill: none; stroke: #b0b0b0; stroke-opacity: 0.3; stroke-width: 0.8; stroke-linecap: square"/>
     </g>
     <g id="line2d_50">
      <g>
       <use xlink:href="#mac6b68eaf4" x="976.713636" y="315.592" style="stroke: #000000; stroke-width: 0.8"/>
      </g>
     </g>
     <g id="text_28">
      <!-- 12 -->
      <g transform="translate(970.351136 330.190438) scale(0.1 -0.1)">
       <use xlink:href="#DejaVuSans-31"/>
       <use xlink:href="#DejaVuSans-32" transform="translate(63.623047 0)"/>
      </g>
     </g>
    </g>
    <g id="text_29">
     <!-- $S_{EB-tx}$ (MB) -->
     <g transform="translate(742.95 343.868562) scale(0.1 -0.1)">
      <use xlink:href="#DejaVuSans-Oblique-53" transform="translate(0 0.125)"/>
      <use xlink:href="#DejaVuSans-Oblique-45" transform="translate(63.476562 -16.28125) scale(0.7)"/>
      <use xlink:href="#DejaVuSans-Oblique-42" transform="translate(107.705078 -16.28125) scale(0.7)"/>
      <use xlink:href="#DejaVuSans-2212" transform="translate(169.365234 -16.28125) scale(0.7)"/>
      <use xlink:href="#DejaVuSans-Oblique-74" transform="translate(241.655273 -16.28125) scale(0.7)"/>
      <use xlink:href="#DejaVuSans-Oblique-78" transform="translate(269.101562 -16.28125) scale(0.7)"/>
      <use xlink:href="#DejaVuSans-20" transform="translate(313.261719 0.125)"/>
      <use xlink:href="#DejaVuSans-28" transform="translate(345.048828 0.125)"/>
      <use xlink:href="#DejaVuSans-4d" transform="translate(384.0625 0.125)"/>
      <use xlink:href="#DejaVuSans-42" transform="translate(470.341797 0.125)"/>
      <use xlink:href="#DejaVuSans-29" transform="translate(538.945312 0.125)"/>
     </g>
    </g>
   </g>
   <g id="matplotlib.axis_4">
    <g id="ytick_8">
     <g id="line2d_51">
      <path d="M 546.5 315.592 
L 997.2 315.592 
" clip-path="url(#pd2e235ef03)" style="fill: none; stroke: #b0b0b0; stroke-opacity: 0.3; stroke-width: 0.8; stroke-linecap: square"/>
     </g>
     <g id="line2d_52">
      <g>
       <use xlink:href="#m9f1a2f82c8" x="546.5" y="315.592" style="stroke: #000000; stroke-width: 0.8"/>
      </g>
     </g>
     <g id="text_30">
      <!-- 0.0 -->
      <g transform="translate(523.596875 319.391219) scale(0.1 -0.1)">
       <use xlink:href="#DejaVuSans-30"/>
       <use xlink:href="#DejaVuSans-2e" transform="translate(63.623047 0)"/>
       <use xlink:href="#DejaVuSans-30" transform="translate(95.410156 0)"/>
      </g>
     </g>
    </g>
    <g id="ytick_9">
     <g id="line2d_53">
      <path d="M 546.5 262.48298 
L 997.2 262.48298 
" clip-path="url(#pd2e235ef03)" style="fill: none; stroke: #b0b0b0; stroke-opacity: 0.3; stroke-width: 0.8; stroke-linecap: square"/>
     </g>
     <g id="line2d_54">
      <g>
       <use xlink:href="#m9f1a2f82c8" x="546.5" y="262.48298" style="stroke: #000000; stroke-width: 0.8"/>
      </g>
     </g>
     <g id="text_31">
      <!-- 0.2 -->
      <g transform="translate(523.596875 266.282199) scale(0.1 -0.1)">
       <use xlink:href="#DejaVuSans-30"/>
       <use xlink:href="#DejaVuSans-2e" transform="translate(63.623047 0)"/>
       <use xlink:href="#DejaVuSans-32" transform="translate(95.410156 0)"/>
      </g>
     </g>
    </g>
    <g id="ytick_10">
     <g id="line2d_55">
      <path d="M 546.5 209.373961 
L 997.2 209.373961 
" clip-path="url(#pd2e235ef03)" style="fill: none; stroke: #b0b0b0; stroke-opacity: 0.3; stroke-width: 0.8; stroke-linecap: square"/>
     </g>
     <g id="line2d_56">
      <g>
       <use xlink:href="#m9f1a2f82c8" x="546.5" y="209.373961" style="stroke: #000000; stroke-width: 0.8"/>
      </g>
     </g>
     <g id="text_32">
      <!-- 0.4 -->
      <g transform="translate(523.596875 213.17318) scale(0.1 -0.1)">
       <use xlink:href="#DejaVuSans-30"/>
       <use xlink:href="#DejaVuSans-2e" transform="translate(63.623047 0)"/>
       <use xlink:href="#DejaVuSans-34" transform="translate(95.410156 0)"/>
      </g>
     </g>
    </g>
    <g id="ytick_11">
     <g id="line2d_57">
      <path d="M 546.5 156.264941 
L 997.2 156.264941 
" clip-path="url(#pd2e235ef03)" style="fill: none; stroke: #b0b0b0; stroke-opacity: 0.3; stroke-width: 0.8; stroke-linecap: square"/>
     </g>
     <g id="line2d_58">
      <g>
       <use xlink:href="#m9f1a2f82c8" x="546.5" y="156.264941" style="stroke: #000000; stroke-width: 0.8"/>
      </g>
     </g>
     <g id="text_33">
      <!-- 0.6 -->
      <g transform="translate(523.596875 160.06416) scale(0.1 -0.1)">
       <use xlink:href="#DejaVuSans-30"/>
       <use xlink:href="#DejaVuSans-2e" transform="translate(63.623047 0)"/>
       <use xlink:href="#DejaVuSans-36" transform="translate(95.410156 0)"/>
      </g>
     </g>
    </g>
    <g id="ytick_12">
     <g id="line2d_59">
      <path d="M 546.5 103.155922 
L 997.2 103.155922 
" clip-path="url(#pd2e235ef03)" style="fill: none; stroke: #b0b0b0; stroke-opacity: 0.3; stroke-width: 0.8; stroke-linecap: square"/>
     </g>
     <g id="line2d_60">
      <g>
       <use xlink:href="#m9f1a2f82c8" x="546.5" y="103.155922" style="stroke: #000000; stroke-width: 0.8"/>
      </g>
     </g>
     <g id="text_34">
      <!-- 0.8 -->
      <g transform="translate(523.596875 106.95514) scale(0.1 -0.1)">
       <use xlink:href="#DejaVuSans-30"/>
       <use xlink:href="#DejaVuSans-2e" transform="translate(63.623047 0)"/>
       <use xlink:href="#DejaVuSans-38" transform="translate(95.410156 0)"/>
      </g>
     </g>
    </g>
    <g id="ytick_13">
     <g id="line2d_61">
      <path d="M 546.5 50.046902 
L 997.2 50.046902 
" clip-path="url(#pd2e235ef03)" style="fill: none; stroke: #b0b0b0; stroke-opacity: 0.3; stroke-width: 0.8; stroke-linecap: square"/>
     </g>
     <g id="line2d_62">
      <g>
       <use xlink:href="#m9f1a2f82c8" x="546.5" y="50.046902" style="stroke: #000000; stroke-width: 0.8"/>
      </g>
     </g>
     <g id="text_35">
      <!-- 1.0 -->
      <g transform="translate(523.596875 53.846121) scale(0.1 -0.1)">
       <use xlink:href="#DejaVuSans-31"/>
       <use xlink:href="#DejaVuSans-2e" transform="translate(63.623047 0)"/>
       <use xlink:href="#DejaVuSans-30" transform="translate(95.410156 0)"/>
      </g>
     </g>
    </g>
    <g id="text_36">
     <!-- P(certRB validated within 14s | cert path) -->
     <g transform="translate(517.239062 283.636656) rotate(-90) scale(0.1 -0.1)">
      <defs>
       <path id="DejaVuSans-77" d="M 269 3500 
L 844 3500 
L 1563 769 
L 2278 3500 
L 2956 3500 
L 3675 769 
L 4391 3500 
L 4966 3500 
L 4050 0 
L 3372 0 
L 2619 2869 
L 1863 0 
L 1184 0 
L 269 3500 
z
" transform="scale(0.015625)"/>
       <path id="DejaVuSans-7c" d="M 1344 4891 
L 1344 -1509 
L 813 -1509 
L 813 4891 
L 1344 4891 
z
" transform="scale(0.015625)"/>
      </defs>
      <use xlink:href="#DejaVuSans-50"/>
      <use xlink:href="#DejaVuSans-28" transform="translate(60.302734 0)"/>
      <use xlink:href="#DejaVuSans-63" transform="translate(99.316406 0)"/>
      <use xlink:href="#DejaVuSans-65" transform="translate(154.296875 0)"/>
      <use xlink:href="#DejaVuSans-72" transform="translate(215.820312 0)"/>
      <use xlink:href="#DejaVuSans-74" transform="translate(256.933594 0)"/>
      <use xlink:href="#DejaVuSans-52" transform="translate(296.142578 0)"/>
      <use xlink:href="#DejaVuSans-42" transform="translate(365.625 0)"/>
      <use xlink:href="#DejaVuSans-20" transform="translate(434.228516 0)"/>
      <use xlink:href="#DejaVuSans-76" transform="translate(466.015625 0)"/>
      <use xlink:href="#DejaVuSans-61" transform="translate(525.195312 0)"/>
      <use xlink:href="#DejaVuSans-6c" transform="translate(586.474609 0)"/>
      <use xlink:href="#DejaVuSans-69" transform="translate(614.257812 0)"/>
      <use xlink:href="#DejaVuSans-64" transform="translate(642.041016 0)"/>
      <use xlink:href="#DejaVuSans-61" transform="translate(705.517578 0)"/>
      <use xlink:href="#DejaVuSans-74" transform="translate(766.796875 0)"/>
      <use xlink:href="#DejaVuSans-65" transform="translate(806.005859 0)"/>
      <use xlink:href="#DejaVuSans-64" transform="translate(867.529297 0)"/>
      <use xlink:href="#DejaVuSans-20" transform="translate(931.005859 0)"/>
      <use xlink:href="#DejaVuSans-77" transform="translate(962.792969 0)"/>
      <use xlink:href="#DejaVuSans-69" transform="translate(1044.580078 0)"/>
      <use xlink:href="#DejaVuSans-74" transform="translate(1072.363281 0)"/>
      <use xlink:href="#DejaVuSans-68" transform="translate(1111.572266 0)"/>
      <use xlink:href="#DejaVuSans-69" transform="translate(1174.951172 0)"/>
      <use xlink:href="#DejaVuSans-6e" transform="translate(1202.734375 0)"/>
      <use xlink:href="#DejaVuSans-20" transform="translate(1266.113281 0)"/>
      <use xlink:href="#DejaVuSans-31" transform="translate(1297.900391 0)"/>
      <use xlink:href="#DejaVuSans-34" transform="translate(1361.523438 0)"/>
      <use xlink:href="#DejaVuSans-73" transform="translate(1425.146484 0)"/>
      <use xlink:href="#DejaVuSans-20" transform="translate(1477.246094 0)"/>
      <use xlink:href="#DejaVuSans-7c" transform="translate(1509.033203 0)"/>
      <use xlink:href="#DejaVuSans-20" transform="translate(1542.724609 0)"/>
      <use xlink:href="#DejaVuSans-63" transform="translate(1574.511719 0)"/>
      <use xlink:href="#DejaVuSans-65" transform="translate(1629.492188 0)"/>
      <use xlink:href="#DejaVuSans-72" transform="translate(1691.015625 0)"/>
      <use xlink:href="#DejaVuSans-74" transform="translate(1732.128906 0)"/>
      <use xlink:href="#DejaVuSans-20" transform="translate(1771.337891 0)"/>
      <use xlink:href="#DejaVuSans-70" transform="translate(1803.125 0)"/>
      <use xlink:href="#DejaVuSans-61" transform="translate(1866.601562 0)"/>
      <use xlink:href="#DejaVuSans-74" transform="translate(1927.880859 0)"/>
      <use xlink:href="#DejaVuSans-68" transform="translate(1967.089844 0)"/>
      <use xlink:href="#DejaVuSans-29" transform="translate(2030.46875 0)"/>
     </g>
    </g>
   </g>
   <g id="line2d_63">
    <path d="M 566.986364 50.046902 
L 571.254356 50.046902 
L 575.522348 50.046902 
L 579.790341 50.046902 
L 584.058333 50.046902 
L 588.326326 50.046902 
L 592.594318 50.046902 
L 596.862311 50.046902 
L 601.130303 50.046902 
L 605.398295 50.046902 
L 609.666288 50.046902 
L 613.93428 50.046902 
L 618.202273 50.046902 
L 622.470265 50.046902 
L 626.738258 50.046902 
L 635.274242 50.046902 
L 652.346212 50.046902 
L 669.418182 50.046902 
L 703.562121 50.046902 
L 771.85 50.046902 
L 840.137879 50.046902 
L 976.713636 50.046902 
" clip-path="url(#pd2e235ef03)" style="fill: none; stroke: #ff7f0e; stroke-width: 2; stroke-linecap: square"/>
    <defs>
     <path id="m5eb9cbf0ba" d="M 0 3 
C 0.795609 3 1.55874 2.683901 2.12132 2.12132 
C 2.683901 1.55874 3 0.795609 3 0 
C 3 -0.795609 2.683901 -1.55874 2.12132 -2.12132 
C 1.55874 -2.683901 0.795609 -3 0 -3 
C -0.795609 -3 -1.55874 -2.683901 -2.12132 -2.12132 
C -2.683901 -1.55874 -3 -0.795609 -3 0 
C -3 0.795609 -2.683901 1.55874 -2.12132 2.12132 
C -1.55874 2.683901 -0.795609 3 0 3 
z
" style="stroke: #ff7f0e"/>
    </defs>
    <g clip-path="url(#pd2e235ef03)">
     <use xlink:href="#m5eb9cbf0ba" x="566.986364" y="50.046902" style="fill: #ff7f0e; stroke: #ff7f0e"/>
     <use xlink:href="#m5eb9cbf0ba" x="571.254356" y="50.046902" style="fill: #ff7f0e; stroke: #ff7f0e"/>
     <use xlink:href="#m5eb9cbf0ba" x="575.522348" y="50.046902" style="fill: #ff7f0e; stroke: #ff7f0e"/>
     <use xlink:href="#m5eb9cbf0ba" x="579.790341" y="50.046902" style="fill: #ff7f0e; stroke: #ff7f0e"/>
     <use xlink:href="#m5eb9cbf0ba" x="584.058333" y="50.046902" style="fill: #ff7f0e; stroke: #ff7f0e"/>
     <use xlink:href="#m5eb9cbf0ba" x="588.326326" y="50.046902" style="fill: #ff7f0e; stroke: #ff7f0e"/>
     <use xlink:href="#m5eb9cbf0ba" x="592.594318" y="50.046902" style="fill: #ff7f0e; stroke: #ff7f0e"/>
     <use xlink:href="#m5eb9cbf0ba" x="596.862311" y="50.046902" style="fill: #ff7f0e; stroke: #ff7f0e"/>
     <use xlink:href="#m5eb9cbf0ba" x="601.130303" y="50.046902" style="fill: #ff7f0e; stroke: #ff7f0e"/>
     <use xlink:href="#m5eb9cbf0ba" x="605.398295" y="50.046902" style="fill: #ff7f0e; stroke: #ff7f0e"/>
     <use xlink:href="#m5eb9cbf0ba" x="609.666288" y="50.046902" style="fill: #ff7f0e; stroke: #ff7f0e"/>
     <use xlink:href="#m5eb9cbf0ba" x="613.93428" y="50.046902" style="fill: #ff7f0e; stroke: #ff7f0e"/>
     <use xlink:href="#m5eb9cbf0ba" x="618.202273" y="50.046902" style="fill: #ff7f0e; stroke: #ff7f0e"/>
     <use xlink:href="#m5eb9cbf0ba" x="622.470265" y="50.046902" style="fill: #ff7f0e; stroke: #ff7f0e"/>
     <use xlink:href="#m5eb9cbf0ba" x="626.738258" y="50.046902" style="fill: #ff7f0e; stroke: #ff7f0e"/>
     <use xlink:href="#m5eb9cbf0ba" x="635.274242" y="50.046902" style="fill: #ff7f0e; stroke: #ff7f0e"/>
     <use xlink:href="#m5eb9cbf0ba" x="652.346212" y="50.046902" style="fill: #ff7f0e; stroke: #ff7f0e"/>
     <use xlink:href="#m5eb9cbf0ba" x="669.418182" y="50.046902" style="fill: #ff7f0e; stroke: #ff7f0e"/>
     <use xlink:href="#m5eb9cbf0ba" x="703.562121" y="50.046902" style="fill: #ff7f0e; stroke: #ff7f0e"/>
     <use xlink:href="#m5eb9cbf0ba" x="771.85" y="50.046902" style="fill: #ff7f0e; stroke: #ff7f0e"/>
     <use xlink:href="#m5eb9cbf0ba" x="840.137879" y="50.046902" style="fill: #ff7f0e; stroke: #ff7f0e"/>
     <use xlink:href="#m5eb9cbf0ba" x="976.713636" y="50.046902" style="fill: #ff7f0e; stroke: #ff7f0e"/>
    </g>
   </g>
   <g id="line2d_64">
    <path d="M 546.5 58.013255 
L 997.2 58.013255 
" clip-path="url(#pd2e235ef03)" style="fill: none; stroke-dasharray: 3.7,1.6; stroke-dashoffset: 0; stroke: #ff0000"/>
   </g>
   <g id="line2d_65">
    <path d="M 546.5 63.324157 
L 997.2 63.324157 
" clip-path="url(#pd2e235ef03)" style="fill: none; stroke-dasharray: 1,1.65; stroke-dashoffset: 0; stroke: #808080"/>
   </g>
   <g id="patch_9">
    <path d="M 546.5 315.592 
L 546.5 44.736 
" style="fill: none; stroke: #000000; stroke-width: 0.8; stroke-linejoin: miter; stroke-linecap: square"/>
   </g>
   <g id="patch_10">
    <path d="M 997.2 315.592 
L 997.2 44.736 
" style="fill: none; stroke: #000000; stroke-width: 0.8; stroke-linejoin: miter; stroke-linecap: square"/>
   </g>
   <g id="patch_11">
    <path d="M 546.5 315.592 
L 997.2 315.592 
" style="fill: none; stroke: #000000; stroke-width: 0.8; stroke-linejoin: miter; stroke-linecap: square"/>
   </g>
   <g id="patch_12">
    <path d="M 546.5 44.736 
L 997.2 44.736 
" style="fill: none; stroke: #000000; stroke-width: 0.8; stroke-linejoin: miter; stroke-linecap: square"/>
   </g>
   <g id="text_37">
    <!-- Safety of certRB Processing -->
    <g transform="translate(689.020937 25.298625) scale(0.12 -0.12)">
     <defs>
      <path id="DejaVuSans-67" d="M 2906 1791 
Q 2906 2416 2648 2759 
Q 2391 3103 1925 3103 
Q 1463 3103 1205 2759 
Q 947 2416 947 1791 
Q 947 1169 1205 825 
Q 1463 481 1925 481 
Q 2391 481 2648 825 
Q 2906 1169 2906 1791 
z
M 3481 434 
Q 3481 -459 3084 -895 
Q 2688 -1331 1869 -1331 
Q 1566 -1331 1297 -1286 
Q 1028 -1241 775 -1147 
L 775 -588 
Q 1028 -725 1275 -790 
Q 1522 -856 1778 -856 
Q 2344 -856 2625 -561 
Q 2906 -266 2906 331 
L 2906 616 
Q 2728 306 2450 153 
Q 2172 0 1784 0 
Q 1141 0 747 490 
Q 353 981 353 1791 
Q 353 2603 747 3093 
Q 1141 3584 1784 3584 
Q 2172 3584 2450 3431 
Q 2728 3278 2906 2969 
L 2906 3500 
L 3481 3500 
L 3481 434 
z
" transform="scale(0.015625)"/>
     </defs>
     <use xlink:href="#DejaVuSans-53"/>
     <use xlink:href="#DejaVuSans-61" transform="translate(63.476562 0)"/>
     <use xlink:href="#DejaVuSans-66" transform="translate(124.755859 0)"/>
     <use xlink:href="#DejaVuSans-65" transform="translate(159.960938 0)"/>
     <use xlink:href="#DejaVuSans-74" transform="translate(221.484375 0)"/>
     <use xlink:href="#DejaVuSans-79" transform="translate(260.693359 0)"/>
     <use xlink:href="#DejaVuSans-20" transform="translate(319.873047 0)"/>
     <use xlink:href="#DejaVuSans-6f" transform="translate(351.660156 0)"/>
     <use xlink:href="#DejaVuSans-66" transform="translate(412.841797 0)"/>
     <use xlink:href="#DejaVuSans-20" transform="translate(448.046875 0)"/>
     <use xlink:href="#DejaVuSans-63" transform="translate(479.833984 0)"/>
     <use xlink:href="#DejaVuSans-65" transform="translate(534.814453 0)"/>
     <use xlink:href="#DejaVuSans-72" transform="translate(596.337891 0)"/>
     <use xlink:href="#DejaVuSans-74" transform="translate(637.451172 0)"/>
     <use xlink:href="#DejaVuSans-52" transform="translate(676.660156 0)"/>
     <use xlink:href="#DejaVuSans-42" transform="translate(746.142578 0)"/>
     <use xlink:href="#DejaVuSans-20" transform="translate(814.746094 0)"/>
     <use xlink:href="#DejaVuSans-50" transform="translate(846.533203 0)"/>
     <use xlink:href="#DejaVuSans-72" transform="translate(905.085938 0)"/>
     <use xlink:href="#DejaVuSans-6f" transform="translate(943.949219 0)"/>
     <use xlink:href="#DejaVuSans-63" transform="translate(1005.130859 0)"/>
     <use xlink:href="#DejaVuSans-65" transform="translate(1060.111328 0)"/>
     <use xlink:href="#DejaVuSans-73" transform="translate(1121.634766 0)"/>
     <use xlink:href="#DejaVuSans-73" transform="translate(1173.734375 0)"/>
     <use xlink:href="#DejaVuSans-69" transform="translate(1225.833984 0)"/>
     <use xlink:href="#DejaVuSans-6e" transform="translate(1253.617188 0)"/>
     <use xlink:href="#DejaVuSans-67" transform="translate(1316.996094 0)"/>
    </g>
    <!-- (fraction of certRBs processed before deadline) -->
    <g transform="translate(629.904062 38.736) scale(0.12 -0.12)">
     <use xlink:href="#DejaVuSans-28"/>
     <use xlink:href="#DejaVuSans-66" transform="translate(39.013672 0)"/>
     <use xlink:href="#DejaVuSans-72" transform="translate(74.21875 0)"/>
     <use xlink:href="#DejaVuSans-61" transform="translate(115.332031 0)"/>
     <use xlink:href="#DejaVuSans-63" transform="translate(176.611328 0)"/>
     <use xlink:href="#DejaVuSans-74" transform="translate(231.591797 0)"/>
     <use xlink:href="#DejaVuSans-69" transform="translate(270.800781 0)"/>
     <use xlink:href="#DejaVuSans-6f" transform="translate(298.583984 0)"/>
     <use xlink:href="#DejaVuSans-6e" transform="translate(359.765625 0)"/>
     <use xlink:href="#DejaVuSans-20" transform="translate(423.144531 0)"/>
     <use xlink:href="#DejaVuSans-6f" transform="translate(454.931641 0)"/>
     <use xlink:href="#DejaVuSans-66" transform="translate(516.113281 0)"/>
     <use xlink:href="#DejaVuSans-20" transform="translate(551.318359 0)"/>
     <use xlink:href="#DejaVuSans-63" transform="translate(583.105469 0)"/>
     <use xlink:href="#DejaVuSans-65" transform="translate(638.085938 0)"/>
     <use xlink:href="#DejaVuSans-72" transform="translate(699.609375 0)"/>
     <use xlink:href="#DejaVuSans-74" transform="translate(740.722656 0)"/>
     <use xlink:href="#DejaVuSans-52" transform="translate(779.931641 0)"/>
     <use xlink:href="#DejaVuSans-42" transform="translate(849.414062 0)"/>
     <use xlink:href="#DejaVuSans-73" transform="translate(918.017578 0)"/>
     <use xlink:href="#DejaVuSans-20" transform="translate(970.117188 0)"/>
     <use xlink:href="#DejaVuSans-70" transform="translate(1001.904297 0)"/>
     <use xlink:href="#DejaVuSans-72" transform="translate(1065.380859 0)"/>
     <use xlink:href="#DejaVuSans-6f" transform="translate(1104.244141 0)"/>
     <use xlink:href="#DejaVuSans-63" transform="translate(1165.425781 0)"/>
     <use xlink:href="#DejaVuSans-65" transform="translate(1220.40625 0)"/>
     <use xlink:href="#DejaVuSans-73" transform="translate(1281.929688 0)"/>
     <use xlink:href="#DejaVuSans-73" transform="translate(1334.029297 0)"/>
     <use xlink:href="#DejaVuSans-65" transform="translate(1386.128906 0)"/>
     <use xlink:href="#DejaVuSans-64" transform="translate(1447.652344 0)"/>
     <use xlink:href="#DejaVuSans-20" transform="translate(1511.128906 0)"/>
     <use xlink:href="#DejaVuSans-62" transform="translate(1542.916016 0)"/>
     <use xlink:href="#DejaVuSans-65" transform="translate(1606.392578 0)"/>
     <use xlink:href="#DejaVuSans-66" transform="translate(1667.916016 0)"/>
     <use xlink:href="#DejaVuSans-6f" transform="translate(1703.121094 0)"/>
     <use xlink:href="#DejaVuSans-72" transform="translate(1764.302734 0)"/>
     <use xlink:href="#DejaVuSans-65" transform="translate(1803.166016 0)"/>
     <use xlink:href="#DejaVuSans-20" transform="translate(1864.689453 0)"/>
     <use xlink:href="#DejaVuSans-64" transform="translate(1896.476562 0)"/>
     <use xlink:href="#DejaVuSans-65" transform="translate(1959.953125 0)"/>
     <use xlink:href="#DejaVuSans-61" transform="translate(2021.476562 0)"/>
     <use xlink:href="#DejaVuSans-64" transform="translate(2082.755859 0)"/>
     <use xlink:href="#DejaVuSans-6c" transform="translate(2146.232422 0)"/>
     <use xlink:href="#DejaVuSans-69" transform="translate(2174.015625 0)"/>
     <use xlink:href="#DejaVuSans-6e" transform="translate(2201.798828 0)"/>
     <use xlink:href="#DejaVuSans-65" transform="translate(2265.177734 0)"/>
     <use xlink:href="#DejaVuSans-29" transform="translate(2326.701172 0)"/>
    </g>
   </g>
   <g id="legend_2">
    <g id="patch_13">
     <path d="M 552.8 311.092 
L 725.42 311.092 
Q 727.22 311.092 727.22 309.292 
L 727.22 270.181375 
Q 727.22 268.381375 725.42 268.381375 
L 552.8 268.381375 
Q 551 268.381375 551 270.181375 
L 551 309.292 
Q 551 311.092 552.8 311.092 
z
" style="fill: #ffffff; opacity: 0.8; stroke: #cccccc; stroke-linejoin: miter"/>
    </g>
    <g id="line2d_66">
     <path d="M 554.6 275.761375 
L 563.6 275.761375 
L 572.6 275.761375 
" style="fill: none; stroke: #ff7f0e; stroke-width: 2; stroke-linecap: square"/>
     <g>
      <use xlink:href="#m5eb9cbf0ba" x="563.6" y="275.761375" style="fill: #ff7f0e; stroke: #ff7f0e"/>
     </g>
    </g>
    <g id="text_38">
     <!-- P(certRB validated $\leq 14s$ | cert) -->
     <g transform="translate(579.8 278.911375) scale(0.09 -0.09)">
      <use xlink:href="#DejaVuSans-50" transform="translate(0 0.578125)"/>
      <use xlink:href="#DejaVuSans-28" transform="translate(60.302734 0.578125)"/>
      <use xlink:href="#DejaVuSans-63" transform="translate(99.316406 0.578125)"/>
      <use xlink:href="#DejaVuSans-65" transform="translate(154.296875 0.578125)"/>
      <use xlink:href="#DejaVuSans-72" transform="translate(215.820312 0.578125)"/>
      <use xlink:href="#DejaVuSans-74" transform="translate(256.933594 0.578125)"/>
      <use xlink:href="#DejaVuSans-52" transform="translate(296.142578 0.578125)"/>
      <use xlink:href="#DejaVuSans-42" transform="translate(365.625 0.578125)"/>
      <use xlink:href="#DejaVuSans-20" transform="translate(434.228516 0.578125)"/>
      <use xlink:href="#DejaVuSans-76" transform="translate(466.015625 0.578125)"/>
      <use xlink:href="#DejaVuSans-61" transform="translate(525.195312 0.578125)"/>
      <use xlink:href="#DejaVuSans-6c" transform="translate(586.474609 0.578125)"/>
      <use xlink:href="#DejaVuSans-69" transform="translate(614.257812 0.578125)"/>
      <use xlink:href="#DejaVuSans-64" transform="translate(642.041016 0.578125)"/>
      <use xlink:href="#DejaVuSans-61" transform="translate(705.517578 0.578125)"/>
      <use xlink:href="#DejaVuSans-74" transform="translate(766.796875 0.578125)"/>
      <use xlink:href="#DejaVuSans-65" transform="translate(806.005859 0.578125)"/>
      <use xlink:href="#DejaVuSans-64" transform="translate(867.529297 0.578125)"/>
      <use xlink:href="#DejaVuSans-20" transform="translate(931.005859 0.578125)"/>
      <use xlink:href="#DejaVuSans-2264" transform="translate(982.275391 0.578125)"/>
      <use xlink:href="#DejaVuSans-31" transform="translate(1085.546875 0.578125)"/>
      <use xlink:href="#DejaVuSans-34" transform="translate(1149.169922 0.578125)"/>
      <use xlink:href="#DejaVuSans-Oblique-73" transform="translate(1212.792969 0.578125)"/>
      <use xlink:href="#DejaVuSans-20" transform="translate(1264.892578 0.578125)"/>
      <use xlink:href="#DejaVuSans-7c" transform="translate(1296.679688 0.578125)"/>
      <use xlink:href="#DejaVuSans-20" transform="translate(1330.371094 0.578125)"/>
      <use xlink:href="#DejaVuSans-63" transform="translate(1362.158203 0.578125)"/>
      <use xlink:href="#DejaVuSans-65" transform="translate(1417.138672 0.578125)"/>
      <use xlink:href="#DejaVuSans-72" transform="translate(1478.662109 0.578125)"/>
      <use xlink:href="#DejaVuSans-74" transform="translate(1519.775391 0.578125)"/>
      <use xlink:href="#DejaVuSans-29" transform="translate(1558.984375 0.578125)"/>
     </g>
    </g>
    <g id="line2d_67">
     <path d="M 554.6 289.259969 
L 563.6 289.259969 
L 572.6 289.259969 
" style="fill: none; stroke-dasharray: 3.7,1.6; stroke-dashoffset: 0; stroke: #ff0000"/>
    </g>
    <g id="text_39">
     <!-- 97% target -->
     <g transform="translate(579.8 292.409969) scale(0.09 -0.09)">
      <defs>
       <path id="DejaVuSans-39" d="M 703 97 
L 703 672 
Q 941 559 1184 500 
Q 1428 441 1663 441 
Q 2288 441 2617 861 
Q 2947 1281 2994 2138 
Q 2813 1869 2534 1725 
Q 2256 1581 1919 1581 
Q 1219 1581 811 2004 
Q 403 2428 403 3163 
Q 403 3881 828 4315 
Q 1253 4750 1959 4750 
Q 2769 4750 3195 4129 
Q 3622 3509 3622 2328 
Q 3622 1225 3098 567 
Q 2575 -91 1691 -91 
Q 1453 -91 1209 -44 
Q 966 3 703 97 
z
M 1959 2075 
Q 2384 2075 2632 2365 
Q 2881 2656 2881 3163 
Q 2881 3666 2632 3958 
Q 2384 4250 1959 4250 
Q 1534 4250 1286 3958 
Q 1038 3666 1038 3163 
Q 1038 2656 1286 2365 
Q 1534 2075 1959 2075 
z
" transform="scale(0.015625)"/>
       <path id="DejaVuSans-37" d="M 525 4666 
L 3525 4666 
L 3525 4397 
L 1831 0 
L 1172 0 
L 2766 4134 
L 525 4134 
L 525 4666 
z
" transform="scale(0.015625)"/>
      </defs>
      <use xlink:href="#DejaVuSans-39"/>
      <use xlink:href="#DejaVuSans-37" transform="translate(63.623047 0)"/>
      <use xlink:href="#DejaVuSans-25" transform="translate(127.246094 0)"/>
      <use xlink:href="#DejaVuSans-20" transform="translate(222.265625 0)"/>
      <use xlink:href="#DejaVuSans-74" transform="translate(254.052734 0)"/>
      <use xlink:href="#DejaVuSans-61" transform="translate(293.261719 0)"/>
      <use xlink:href="#DejaVuSans-72" transform="translate(354.541016 0)"/>
      <use xlink:href="#DejaVuSans-67" transform="translate(393.904297 0)"/>
      <use xlink:href="#DejaVuSans-65" transform="translate(457.380859 0)"/>
      <use xlink:href="#DejaVuSans-74" transform="translate(518.904297 0)"/>
     </g>
    </g>
    <g id="line2d_68">
     <path d="M 554.6 302.470281 
L 563.6 302.470281 
L 572.6 302.470281 
" style="fill: none; stroke-dasharray: 1,1.65; stroke-dashoffset: 0; stroke: #808080"/>
    </g>
    <g id="text_40">
     <!-- 95% target -->
     <g transform="translate(579.8 305.620281) scale(0.09 -0.09)">
      <use xlink:href="#DejaVuSans-39"/>
      <use xlink:href="#DejaVuSans-35" transform="translate(63.623047 0)"/>
      <use xlink:href="#DejaVuSans-25" transform="translate(127.246094 0)"/>
      <use xlink:href="#DejaVuSans-20" transform="translate(222.265625 0)"/>
      <use xlink:href="#DejaVuSans-74" transform="translate(254.052734 0)"/>
      <use xlink:href="#DejaVuSans-61" transform="translate(293.261719 0)"/>
      <use xlink:href="#DejaVuSans-72" transform="translate(354.541016 0)"/>
      <use xlink:href="#DejaVuSans-67" transform="translate(393.904297 0)"/>
      <use xlink:href="#DejaVuSans-65" transform="translate(457.380859 0)"/>
      <use xlink:href="#DejaVuSans-74" transform="translate(518.904297 0)"/>
     </g>
    </g>
   </g>
  </g>
 </g>
 <defs>
  <clipPath id="p46d12a5adf">
   <rect x="47.72" y="44.736" width="450.7" height="270.856"/>
  </clipPath>
  <clipPath id="pd2e235ef03">
   <rect x="546.5" y="44.736" width="450.7" height="270.856"/>
  </clipPath>
 </defs>
</svg>
