<?xml version="1.0" encoding="utf-8" standalone="no"?>
<!DOCTYPE svg PUBLIC "-//W3C//DTD SVG 1.1//EN"
  "http://www.w3.org/Graphics/SVG/1.1/DTD/svg11.dtd">
<svg xmlns:xlink="http://www.w3.org/1999/xlink" width="864pt" height="432pt" viewBox="0 0 864 432" xmlns="http://www.w3.org/2000/svg" version="1.1">
 <metadata>
  <rdf:RDF xmlns:dc="http://purl.org/dc/elements/1.1/" xmlns:cc="http://creativecommons.org/ns#" xmlns:rdf="http://www.w3.org/1999/02/22-rdf-syntax-ns#">
   <cc:Work>
    <dc:type rdf:resource="http://purl.org/dc/dcmitype/StillImage"/>
    <dc:date>2026-05-29T13:04:46.932703</dc:date>
    <dc:format>image/svg+xml</dc:format>
    <dc:creator>
     <cc:Agent>
      <dc:title>Matplotlib v3.10.9, https://matplotlib.org/</dc:title>
     </cc:Agent>
    </dc:creator>
   </cc:Work>
  </rdf:RDF>
 </metadata>
 <defs>
  <style type="text/css">*{stroke-linejoin: round; stroke-linecap: butt}</style>
 </defs>
 <g id="figure_1">
  <g id="patch_1">
   <path d="M 0 432 
L 864 432 
L 864 0 
L 0 0 
z
" style="fill: #ffffff"/>
  </g>
  <g id="axes_1">
   <g id="text_1">
    <g id="patch_2">
     <path d="M 60.1125 245.078375 
L 101.8875 245.078375 
Q 105.0875 245.078375 105.0875 241.878375 
L 105.0875 225.177625 
Q 105.0875 221.977625 101.8875 221.977625 
L 60.1125 221.977625 
Q 56.9125 221.977625 56.9125 225.177625 
L 56.9125 241.878375 
Q 56.9125 245.078375 60.1125 245.078375 
z
" style="fill: #d5f5e3; stroke: #27ae60; stroke-linejoin: miter"/>
    </g>
    <!-- RB header -->
    <g transform="translate(60.1125 231.256375) scale(0.08 -0.08)">
     <defs>
      <path id="DejaVuSans-52" d="M 2841 2188 
Q 3044 2119 3236 1894 
Q 3428 1669 3622 1275 
L 4263 0 
L 3584 0 
L 2988 1197 
Q 2756 1666 2539 1819 
Q 2322 1972 1947 1972 
L 1259 1972 
L 1259 0 
L 628 0 
L 628 4666 
L 2053 4666 
Q 2853 4666 3247 4331 
Q 3641 3997 3641 3322 
Q 3641 2881 3436 2590 
Q 3231 2300 2841 2188 
z
M 1259 4147 
L 1259 2491 
L 2053 2491 
Q 2509 2491 2742 2702 
Q 2975 2913 2975 3322 
Q 2975 3731 2742 3939 
Q 2509 4147 2053 4147 
L 1259 4147 
z
" transform="scale(0.015625)"/>
      <path id="DejaVuSans-42" d="M 1259 2228 
L 1259 519 
L 2272 519 
Q 2781 519 3026 730 
Q 3272 941 3272 1375 
Q 3272 1813 3026 2020 
Q 2781 2228 2272 2228 
L 1259 2228 
z
M 1259 4147 
L 1259 2741 
L 2194 2741 
Q 2656 2741 2882 2914 
Q 3109 3088 3109 3444 
Q 3109 3797 2882 3972 
Q 2656 4147 2194 4147 
L 1259 4147 
z
M 628 4666 
L 2241 4666 
Q 2963 4666 3353 4366 
Q 3744 4066 3744 3513 
Q 3744 3084 3544 2831 
Q 3344 2578 2956 2516 
Q 3422 2416 3680 2098 
Q 3938 1781 3938 1306 
Q 3938 681 3513 340 
Q 3088 0 2303 0 
L 628 0 
L 628 4666 
z
" transform="scale(0.015625)"/>
      <path id="DejaVuSans-20" transform="scale(0.015625)"/>
      <path id="DejaVuSans-68" d="M 3513 2113 
L 3513 0 
L 2938 0 
L 2938 2094 
Q 2938 2591 2744 2837 
Q 2550 3084 2163 3084 
Q 1697 3084 1428 2787 
Q 1159 2491 1159 1978 
L 1159 0 
L 581 0 
L 581 4863 
L 1159 4863 
L 1159 2956 
Q 1366 3272 1645 3428 
Q 1925 3584 2291 3584 
Q 2894 3584 3203 3211 
Q 3513 2838 3513 2113 
z
" transform="scale(0.015625)"/>
      <path id="DejaVuSans-65" d="M 3597 1894 
L 3597 1613 
L 953 1613 
Q 991 1019 1311 708 
Q 1631 397 2203 397 
Q 2534 397 2845 478 
Q 3156 559 3463 722 
L 3463 178 
Q 3153 47 2828 -22 
Q 2503 -91 2169 -91 
Q 1331 -91 842 396 
Q 353 884 353 1716 
Q 353 2575 817 3079 
Q 1281 3584 2069 3584 
Q 2775 3584 3186 3129 
Q 3597 2675 3597 1894 
z
M 3022 2063 
Q 3016 2534 2758 2815 
Q 2500 3097 2075 3097 
Q 1594 3097 1305 2825 
Q 1016 2553 972 2059 
L 3022 2063 
z
" transform="scale(0.015625)"/>
      <path id="DejaVuSans-61" d="M 2194 1759 
Q 1497 1759 1228 1600 
Q 959 1441 959 1056 
Q 959 750 1161 570 
Q 1363 391 1709 391 
Q 2188 391 2477 730 
Q 2766 1069 2766 1631 
L 2766 1759 
L 2194 1759 
z
M 3341 1997 
L 3341 0 
L 2766 0 
L 2766 531 
Q 2569 213 2275 61 
Q 1981 -91 1556 -91 
Q 1019 -91 701 211 
Q 384 513 384 1019 
Q 384 1609 779 1909 
Q 1175 2209 1959 2209 
L 2766 2209 
L 2766 2266 
Q 2766 2663 2505 2880 
Q 2244 3097 1772 3097 
Q 1472 3097 1187 3025 
Q 903 2953 641 2809 
L 641 3341 
Q 956 3463 1253 3523 
Q 1550 3584 1831 3584 
Q 2591 3584 2966 3190 
Q 3341 2797 3341 1997 
z
" transform="scale(0.015625)"/>
      <path id="DejaVuSans-64" d="M 2906 2969 
L 2906 4863 
L 3481 4863 
L 3481 0 
L 2906 0 
L 2906 525 
Q 2725 213 2448 61 
Q 2172 -91 1784 -91 
Q 1150 -91 751 415 
Q 353 922 353 1747 
Q 353 2572 751 3078 
Q 1150 3584 1784 3584 
Q 2172 3584 2448 3432 
Q 2725 3281 2906 2969 
z
M 947 1747 
Q 947 1113 1208 752 
Q 1469 391 1925 391 
Q 2381 391 2643 752 
Q 2906 1113 2906 1747 
Q 2906 2381 2643 2742 
Q 2381 3103 1925 3103 
Q 1469 3103 1208 2742 
Q 947 2381 947 1747 
z
" transform="scale(0.015625)"/>
      <path id="DejaVuSans-72" d="M 2631 2963 
Q 2534 3019 2420 3045 
Q 2306 3072 2169 3072 
Q 1681 3072 1420 2755 
Q 1159 2438 1159 1844 
L 1159 0 
L 581 0 
L 581 3500 
L 1159 3500 
L 1159 2956 
Q 1341 3275 1631 3429 
Q 1922 3584 2338 3584 
Q 2397 3584 2469 3576 
Q 2541 3569 2628 3553 
L 2631 2963 
z
" transform="scale(0.015625)"/>
     </defs>
     <use xlink:href="#DejaVuSans-52"/>
     <use xlink:href="#DejaVuSans-42" transform="translate(69.482422 0)"/>
     <use xlink:href="#DejaVuSans-20" transform="translate(138.085938 0)"/>
     <use xlink:href="#DejaVuSans-68" transform="translate(169.873047 0)"/>
     <use xlink:href="#DejaVuSans-65" transform="translate(233.251953 0)"/>
     <use xlink:href="#DejaVuSans-61" transform="translate(294.775391 0)"/>
     <use xlink:href="#DejaVuSans-64" transform="translate(356.054688 0)"/>
     <use xlink:href="#DejaVuSans-65" transform="translate(419.53125 0)"/>
     <use xlink:href="#DejaVuSans-72" transform="translate(481.054688 0)"/>
    </g>
    <!-- received -->
    <g transform="translate(63.844375 240.214625) scale(0.08 -0.08)">
     <defs>
      <path id="DejaVuSans-63" d="M 3122 3366 
L 3122 2828 
Q 2878 2963 2633 3030 
Q 2388 3097 2138 3097 
Q 1578 3097 1268 2742 
Q 959 2388 959 1747 
Q 959 1106 1268 751 
Q 1578 397 2138 397 
Q 2388 397 2633 464 
Q 2878 531 3122 666 
L 3122 134 
Q 2881 22 2623 -34 
Q 2366 -91 2075 -91 
Q 1284 -91 818 406 
Q 353 903 353 1747 
Q 353 2603 823 3093 
Q 1294 3584 2113 3584 
Q 2378 3584 2631 3529 
Q 2884 3475 3122 3366 
z
" transform="scale(0.015625)"/>
      <path id="DejaVuSans-69" d="M 603 3500 
L 1178 3500 
L 1178 0 
L 603 0 
L 603 3500 
z
M 603 4863 
L 1178 4863 
L 1178 4134 
L 603 4134 
L 603 4863 
z
" transform="scale(0.015625)"/>
      <path id="DejaVuSans-76" d="M 191 3500 
L 800 3500 
L 1894 563 
L 2988 3500 
L 3597 3500 
L 2284 0 
L 1503 0 
L 191 3500 
z
" transform="scale(0.015625)"/>
     </defs>
     <use xlink:href="#DejaVuSans-72"/>
     <use xlink:href="#DejaVuSans-65" transform="translate(38.863281 0)"/>
     <use xlink:href="#DejaVuSans-63" transform="translate(100.386719 0)"/>
     <use xlink:href="#DejaVuSans-65" transform="translate(155.367188 0)"/>
     <use xlink:href="#DejaVuSans-69" transform="translate(216.890625 0)"/>
     <use xlink:href="#DejaVuSans-76" transform="translate(244.673828 0)"/>
     <use xlink:href="#DejaVuSans-65" transform="translate(303.853516 0)"/>
     <use xlink:href="#DejaVuSans-64" transform="translate(365.376953 0)"/>
    </g>
   </g>
   <g id="patch_3">
    <path d="M 146.177512 233.528 
Q 154.710489 233.528 162.125431 233.528 
" style="fill: none; stroke: #000000; stroke-linecap: round"/>
    <path d="M 158.125431 231.528 
L 162.125431 233.528 
L 158.125431 235.528 
" style="fill: none; stroke: #000000; stroke-linecap: round"/>
   </g>
   <g id="text_2">
    <g id="patch_4">
     <path d="M 196.499063 243.031922 
L 218.220937 243.031922 
Q 220.320938 243.031922 220.320938 240.931922 
L 220.320938 226.318766 
Q 220.320938 224.218766 218.220937 224.218766 
L 196.499063 224.218766 
Q 194.399063 224.218766 194.399063 226.318766 
L 194.399063 240.931922 
Q 194.399063 243.031922 196.499063 243.031922 
z
" style="fill: #f9ebea; stroke: #c0392b; stroke-linejoin: miter"/>
    </g>
    <!-- cert? -->
    <g transform="translate(198.613281 231.442984) scale(0.07 -0.07)">
     <defs>
      <path id="DejaVuSans-74" d="M 1172 4494 
L 1172 3500 
L 2356 3500 
L 2356 3053 
L 1172 3053 
L 1172 1153 
Q 1172 725 1289 603 
Q 1406 481 1766 481 
L 2356 481 
L 2356 0 
L 1766 0 
Q 1100 0 847 248 
Q 594 497 594 1153 
L 594 3053 
L 172 3053 
L 172 3500 
L 594 3500 
L 594 4494 
L 1172 4494 
z
" transform="scale(0.015625)"/>
      <path id="DejaVuSans-3f" d="M 1222 794 
L 1856 794 
L 1856 0 
L 1222 0 
L 1222 794 
z
M 1838 1253 
L 1241 1253 
L 1241 1734 
Q 1241 2050 1328 2253 
Q 1416 2456 1697 2725 
L 1978 3003 
Q 2156 3169 2236 3316 
Q 2316 3463 2316 3616 
Q 2316 3894 2111 4066 
Q 1906 4238 1569 4238 
Q 1322 4238 1042 4128 
Q 763 4019 459 3809 
L 459 4397 
Q 753 4575 1054 4662 
Q 1356 4750 1678 4750 
Q 2253 4750 2601 4447 
Q 2950 4144 2950 3647 
Q 2950 3409 2837 3195 
Q 2725 2981 2444 2713 
L 2169 2444 
Q 2022 2297 1961 2214 
Q 1900 2131 1875 2053 
Q 1856 1988 1847 1894 
Q 1838 1800 1838 1638 
L 1838 1253 
z
" transform="scale(0.015625)"/>
     </defs>
     <use xlink:href="#DejaVuSans-63"/>
     <use xlink:href="#DejaVuSans-65" transform="translate(54.980469 0)"/>
     <use xlink:href="#DejaVuSans-72" transform="translate(116.503906 0)"/>
     <use xlink:href="#DejaVuSans-74" transform="translate(157.617188 0)"/>
     <use xlink:href="#DejaVuSans-3f" transform="translate(196.826172 0)"/>
    </g>
    <!-- p_cert -->
    <g transform="translate(196.499063 239.281453) scale(0.07 -0.07)">
     <defs>
      <path id="DejaVuSans-70" d="M 1159 525 
L 1159 -1331 
L 581 -1331 
L 581 3500 
L 1159 3500 
L 1159 2969 
Q 1341 3281 1617 3432 
Q 1894 3584 2278 3584 
Q 2916 3584 3314 3078 
Q 3713 2572 3713 1747 
Q 3713 922 3314 415 
Q 2916 -91 2278 -91 
Q 1894 -91 1617 61 
Q 1341 213 1159 525 
z
M 3116 1747 
Q 3116 2381 2855 2742 
Q 2594 3103 2138 3103 
Q 1681 3103 1420 2742 
Q 1159 2381 1159 1747 
Q 1159 1113 1420 752 
Q 1681 391 2138 391 
Q 2594 391 2855 752 
Q 3116 1113 3116 1747 
z
" transform="scale(0.015625)"/>
      <path id="DejaVuSans-5f" d="M 3263 -1063 
L 3263 -1509 
L -63 -1509 
L -63 -1063 
L 3263 -1063 
z
" transform="scale(0.015625)"/>
     </defs>
     <use xlink:href="#DejaVuSans-70"/>
     <use xlink:href="#DejaVuSans-5f" transform="translate(63.476562 0)"/>
     <use xlink:href="#DejaVuSans-63" transform="translate(113.476562 0)"/>
     <use xlink:href="#DejaVuSans-65" transform="translate(168.457031 0)"/>
     <use xlink:href="#DejaVuSans-72" transform="translate(229.980469 0)"/>
     <use xlink:href="#DejaVuSans-74" transform="translate(271.09375 0)"/>
    </g>
   </g>
   <g id="patch_5">
    <path d="M 208.807361 205.3358 
Q 249.479801 166.502476 289.3436 128.441228 
" style="fill: none; stroke: #27ae60; stroke-linecap: round"/>
    <path d="M 285.069389 129.756949 
L 289.3436 128.441228 
L 287.831651 132.650029 
" style="fill: none; stroke: #27ae60; stroke-linecap: round"/>
   </g>
   <g id="text_3">
    <!-- yes -->
    <g style="fill: #27ae60" transform="translate(228.42 153.097143) scale(0.07 -0.07)">
     <defs>
      <path id="DejaVuSans-79" d="M 2059 -325 
Q 1816 -950 1584 -1140 
Q 1353 -1331 966 -1331 
L 506 -1331 
L 506 -850 
L 844 -850 
Q 1081 -850 1212 -737 
Q 1344 -625 1503 -206 
L 1606 56 
L 191 3500 
L 800 3500 
L 1894 763 
L 2988 3500 
L 3597 3500 
L 2059 -325 
z
" transform="scale(0.015625)"/>
      <path id="DejaVuSans-73" d="M 2834 3397 
L 2834 2853 
Q 2591 2978 2328 3040 
Q 2066 3103 1784 3103 
Q 1356 3103 1142 2972 
Q 928 2841 928 2578 
Q 928 2378 1081 2264 
Q 1234 2150 1697 2047 
L 1894 2003 
Q 2506 1872 2764 1633 
Q 3022 1394 3022 966 
Q 3022 478 2636 193 
Q 2250 -91 1575 -91 
Q 1294 -91 989 -36 
Q 684 19 347 128 
L 347 722 
Q 666 556 975 473 
Q 1284 391 1588 391 
Q 1994 391 2212 530 
Q 2431 669 2431 922 
Q 2431 1156 2273 1281 
Q 2116 1406 1581 1522 
L 1381 1569 
Q 847 1681 609 1914 
Q 372 2147 372 2553 
Q 372 3047 722 3315 
Q 1072 3584 1716 3584 
Q 2034 3584 2315 3537 
Q 2597 3491 2834 3397 
z
" transform="scale(0.015625)"/>
     </defs>
     <use xlink:href="#DejaVuSans-79"/>
     <use xlink:href="#DejaVuSans-65" transform="translate(59.179688 0)"/>
     <use xlink:href="#DejaVuSans-73" transform="translate(120.703125 0)"/>
    </g>
   </g>
   <g id="text_4">
    <g id="patch_6">
     <path d="M 331.980547 113.502384 
L 391.619453 113.502384 
Q 394.419453 113.502384 394.419453 110.702384 
L 394.419453 88.250759 
Q 394.419453 85.450759 391.619453 85.450759 
L 331.980547 85.450759 
Q 329.180547 85.450759 329.180547 88.250759 
L 329.180547 110.702384 
Q 329.180547 113.502384 331.980547 113.502384 
z
" style="fill: #e8f4fd; stroke: #2980b9; stroke-linejoin: miter"/>
    </g>
    <!-- Fetch -->
    <g transform="translate(352.311172 93.569665) scale(0.07 -0.07)">
     <defs>
      <path id="DejaVuSans-46" d="M 628 4666 
L 3309 4666 
L 3309 4134 
L 1259 4134 
L 1259 2759 
L 3109 2759 
L 3109 2228 
L 1259 2228 
L 1259 0 
L 628 0 
L 628 4666 
z
" transform="scale(0.015625)"/>
     </defs>
     <use xlink:href="#DejaVuSans-46"/>
     <use xlink:href="#DejaVuSans-65" transform="translate(52.019531 0)"/>
     <use xlink:href="#DejaVuSans-74" transform="translate(113.542969 0)"/>
     <use xlink:href="#DejaVuSans-63" transform="translate(152.751953 0)"/>
     <use xlink:href="#DejaVuSans-68" transform="translate(207.732422 0)"/>
    </g>
    <!-- certRB body -->
    <g transform="translate(340.308359 101.408134) scale(0.07 -0.07)">
     <defs>
      <path id="DejaVuSans-62" d="M 3116 1747 
Q 3116 2381 2855 2742 
Q 2594 3103 2138 3103 
Q 1681 3103 1420 2742 
Q 1159 2381 1159 1747 
Q 1159 1113 1420 752 
Q 1681 391 2138 391 
Q 2594 391 2855 752 
Q 3116 1113 3116 1747 
z
M 1159 2969 
Q 1341 3281 1617 3432 
Q 1894 3584 2278 3584 
Q 2916 3584 3314 3078 
Q 3713 2572 3713 1747 
Q 3713 922 3314 415 
Q 2916 -91 2278 -91 
Q 1894 -91 1617 61 
Q 1341 213 1159 525 
L 1159 0 
L 581 0 
L 581 4863 
L 1159 4863 
L 1159 2969 
z
" transform="scale(0.015625)"/>
      <path id="DejaVuSans-6f" d="M 1959 3097 
Q 1497 3097 1228 2736 
Q 959 2375 959 1747 
Q 959 1119 1226 758 
Q 1494 397 1959 397 
Q 2419 397 2687 759 
Q 2956 1122 2956 1747 
Q 2956 2369 2687 2733 
Q 2419 3097 1959 3097 
z
M 1959 3584 
Q 2709 3584 3137 3096 
Q 3566 2609 3566 1747 
Q 3566 888 3137 398 
Q 2709 -91 1959 -91 
Q 1206 -91 779 398 
Q 353 888 353 1747 
Q 353 2609 779 3096 
Q 1206 3584 1959 3584 
z
" transform="scale(0.015625)"/>
     </defs>
     <use xlink:href="#DejaVuSans-63"/>
     <use xlink:href="#DejaVuSans-65" transform="translate(54.980469 0)"/>
     <use xlink:href="#DejaVuSans-72" transform="translate(116.503906 0)"/>
     <use xlink:href="#DejaVuSans-74" transform="translate(157.617188 0)"/>
     <use xlink:href="#DejaVuSans-52" transform="translate(196.826172 0)"/>
     <use xlink:href="#DejaVuSans-42" transform="translate(266.308594 0)"/>
     <use xlink:href="#DejaVuSans-20" transform="translate(334.912109 0)"/>
     <use xlink:href="#DejaVuSans-62" transform="translate(366.699219 0)"/>
     <use xlink:href="#DejaVuSans-6f" transform="translate(430.175781 0)"/>
     <use xlink:href="#DejaVuSans-64" transform="translate(491.357422 0)"/>
     <use xlink:href="#DejaVuSans-79" transform="translate(554.833984 0)"/>
    </g>
    <!-- (~8 kB, blended) -->
    <g transform="translate(331.980547 109.246603) scale(0.07 -0.07)">
     <defs>
      <path id="DejaVuSans-28" d="M 1984 4856 
Q 1566 4138 1362 3434 
Q 1159 2731 1159 2009 
Q 1159 1288 1364 580 
Q 1569 -128 1984 -844 
L 1484 -844 
Q 1016 -109 783 600 
Q 550 1309 550 2009 
Q 550 2706 781 3412 
Q 1013 4119 1484 4856 
L 1984 4856 
z
" transform="scale(0.015625)"/>
      <path id="DejaVuSans-7e" d="M 4684 2553 
L 4684 1997 
Q 4356 1750 4076 1644 
Q 3797 1538 3494 1538 
Q 3150 1538 2694 1722 
Q 2659 1734 2644 1741 
Q 2622 1750 2575 1766 
Q 2091 1959 1797 1959 
Q 1522 1959 1253 1839 
Q 984 1719 678 1459 
L 678 2016 
Q 1006 2263 1286 2370 
Q 1566 2478 1869 2478 
Q 2213 2478 2672 2291 
Q 2703 2278 2719 2272 
Q 2744 2263 2788 2247 
Q 3272 2053 3566 2053 
Q 3834 2053 4098 2172 
Q 4363 2291 4684 2553 
z
" transform="scale(0.015625)"/>
      <path id="DejaVuSans-38" d="M 2034 2216 
Q 1584 2216 1326 1975 
Q 1069 1734 1069 1313 
Q 1069 891 1326 650 
Q 1584 409 2034 409 
Q 2484 409 2743 651 
Q 3003 894 3003 1313 
Q 3003 1734 2745 1975 
Q 2488 2216 2034 2216 
z
M 1403 2484 
Q 997 2584 770 2862 
Q 544 3141 544 3541 
Q 544 4100 942 4425 
Q 1341 4750 2034 4750 
Q 2731 4750 3128 4425 
Q 3525 4100 3525 3541 
Q 3525 3141 3298 2862 
Q 3072 2584 2669 2484 
Q 3125 2378 3379 2068 
Q 3634 1759 3634 1313 
Q 3634 634 3220 271 
Q 2806 -91 2034 -91 
Q 1263 -91 848 271 
Q 434 634 434 1313 
Q 434 1759 690 2068 
Q 947 2378 1403 2484 
z
M 1172 3481 
Q 1172 3119 1398 2916 
Q 1625 2713 2034 2713 
Q 2441 2713 2670 2916 
Q 2900 3119 2900 3481 
Q 2900 3844 2670 4047 
Q 2441 4250 2034 4250 
Q 1625 4250 1398 4047 
Q 1172 3844 1172 3481 
z
" transform="scale(0.015625)"/>
      <path id="DejaVuSans-6b" d="M 581 4863 
L 1159 4863 
L 1159 1991 
L 2875 3500 
L 3609 3500 
L 1753 1863 
L 3688 0 
L 2938 0 
L 1159 1709 
L 1159 0 
L 581 0 
L 581 4863 
z
" transform="scale(0.015625)"/>
      <path id="DejaVuSans-2c" d="M 750 794 
L 1409 794 
L 1409 256 
L 897 -744 
L 494 -744 
L 750 256 
L 750 794 
z
" transform="scale(0.015625)"/>
      <path id="DejaVuSans-6c" d="M 603 4863 
L 1178 4863 
L 1178 0 
L 603 0 
L 603 4863 
z
" transform="scale(0.015625)"/>
      <path id="DejaVuSans-6e" d="M 3513 2113 
L 3513 0 
L 2938 0 
L 2938 2094 
Q 2938 2591 2744 2837 
Q 2550 3084 2163 3084 
Q 1697 3084 1428 2787 
Q 1159 2491 1159 1978 
L 1159 0 
L 581 0 
L 581 3500 
L 1159 3500 
L 1159 2956 
Q 1366 3272 1645 3428 
Q 1925 3584 2291 3584 
Q 2894 3584 3203 3211 
Q 3513 2838 3513 2113 
z
" transform="scale(0.015625)"/>
      <path id="DejaVuSans-29" d="M 513 4856 
L 1013 4856 
Q 1481 4119 1714 3412 
Q 1947 2706 1947 2009 
Q 1947 1309 1714 600 
Q 1481 -109 1013 -844 
L 513 -844 
Q 928 -128 1133 580 
Q 1338 1288 1338 2009 
Q 1338 2731 1133 3434 
Q 928 4138 513 4856 
z
" transform="scale(0.015625)"/>
     </defs>
     <use xlink:href="#DejaVuSans-28"/>
     <use xlink:href="#DejaVuSans-7e" transform="translate(39.013672 0)"/>
     <use xlink:href="#DejaVuSans-38" transform="translate(122.802734 0)"/>
     <use xlink:href="#DejaVuSans-20" transform="translate(186.425781 0)"/>
     <use xlink:href="#DejaVuSans-6b" transform="translate(218.212891 0)"/>
     <use xlink:href="#DejaVuSans-42" transform="translate(276.123047 0)"/>
     <use xlink:href="#DejaVuSans-2c" transform="translate(344.726562 0)"/>
     <use xlink:href="#DejaVuSans-20" transform="translate(376.513672 0)"/>
     <use xlink:href="#DejaVuSans-62" transform="translate(408.300781 0)"/>
     <use xlink:href="#DejaVuSans-6c" transform="translate(471.777344 0)"/>
     <use xlink:href="#DejaVuSans-65" transform="translate(499.560547 0)"/>
     <use xlink:href="#DejaVuSans-6e" transform="translate(561.083984 0)"/>
     <use xlink:href="#DejaVuSans-64" transform="translate(624.462891 0)"/>
     <use xlink:href="#DejaVuSans-65" transform="translate(687.939453 0)"/>
     <use xlink:href="#DejaVuSans-64" transform="translate(749.462891 0)"/>
     <use xlink:href="#DejaVuSans-29" transform="translate(812.939453 0)"/>
    </g>
   </g>
   <g id="text_5">
    <g id="patch_7">
     <path d="M 328.639141 163.203721 
L 394.960859 163.203721 
Q 397.760859 163.203721 397.760859 160.403721 
L 397.760859 145.790565 
Q 397.760859 142.990565 394.960859 142.990565 
L 328.639141 142.990565 
Q 325.839141 142.990565 325.839141 145.790565 
L 325.839141 160.403721 
Q 325.839141 163.203721 328.639141 163.203721 
z
" style="fill: #e8f4fd; stroke: #2980b9; stroke-linejoin: miter"/>
    </g>
    <!-- Fetch EB body -->
    <g transform="translate(336.816563 151.109471) scale(0.07 -0.07)">
     <defs>
      <path id="DejaVuSans-45" d="M 628 4666 
L 3578 4666 
L 3578 4134 
L 1259 4134 
L 1259 2753 
L 3481 2753 
L 3481 2222 
L 1259 2222 
L 1259 531 
L 3634 531 
L 3634 0 
L 628 0 
L 628 4666 
z
" transform="scale(0.015625)"/>
     </defs>
     <use xlink:href="#DejaVuSans-46"/>
     <use xlink:href="#DejaVuSans-65" transform="translate(52.019531 0)"/>
     <use xlink:href="#DejaVuSans-74" transform="translate(113.542969 0)"/>
     <use xlink:href="#DejaVuSans-63" transform="translate(152.751953 0)"/>
     <use xlink:href="#DejaVuSans-68" transform="translate(207.732422 0)"/>
     <use xlink:href="#DejaVuSans-20" transform="translate(271.111328 0)"/>
     <use xlink:href="#DejaVuSans-45" transform="translate(302.898438 0)"/>
     <use xlink:href="#DejaVuSans-42" transform="translate(366.082031 0)"/>
     <use xlink:href="#DejaVuSans-20" transform="translate(434.685547 0)"/>
     <use xlink:href="#DejaVuSans-62" transform="translate(466.472656 0)"/>
     <use xlink:href="#DejaVuSans-6f" transform="translate(529.949219 0)"/>
     <use xlink:href="#DejaVuSans-64" transform="translate(591.130859 0)"/>
     <use xlink:href="#DejaVuSans-79" transform="translate(654.607422 0)"/>
    </g>
    <!-- (≤512kB, blended) -->
    <g transform="translate(328.639141 158.94794) scale(0.07 -0.07)">
     <defs>
      <path id="DejaVuSans-2264" d="M 4684 3175 
L 1684 2309 
L 4684 1453 
L 4684 897 
L 678 2047 
L 678 2578 
L 4684 3725 
L 4684 3175 
z
M 678 531 
L 4684 531 
L 4684 0 
L 678 0 
L 678 531 
z
" transform="scale(0.015625)"/>
      <path id="DejaVuSans-35" d="M 691 4666 
L 3169 4666 
L 3169 4134 
L 1269 4134 
L 1269 2991 
Q 1406 3038 1543 3061 
Q 1681 3084 1819 3084 
Q 2600 3084 3056 2656 
Q 3513 2228 3513 1497 
Q 3513 744 3044 326 
Q 2575 -91 1722 -91 
Q 1428 -91 1123 -41 
Q 819 9 494 109 
L 494 744 
Q 775 591 1075 516 
Q 1375 441 1709 441 
Q 2250 441 2565 725 
Q 2881 1009 2881 1497 
Q 2881 1984 2565 2268 
Q 2250 2553 1709 2553 
Q 1456 2553 1204 2497 
Q 953 2441 691 2322 
L 691 4666 
z
" transform="scale(0.015625)"/>
      <path id="DejaVuSans-31" d="M 794 531 
L 1825 531 
L 1825 4091 
L 703 3866 
L 703 4441 
L 1819 4666 
L 2450 4666 
L 2450 531 
L 3481 531 
L 3481 0 
L 794 0 
L 794 531 
z
" transform="scale(0.015625)"/>
      <path id="DejaVuSans-32" d="M 1228 531 
L 3431 531 
L 3431 0 
L 469 0 
L 469 531 
Q 828 903 1448 1529 
Q 2069 2156 2228 2338 
Q 2531 2678 2651 2914 
Q 2772 3150 2772 3378 
Q 2772 3750 2511 3984 
Q 2250 4219 1831 4219 
Q 1534 4219 1204 4116 
Q 875 4013 500 3803 
L 500 4441 
Q 881 4594 1212 4672 
Q 1544 4750 1819 4750 
Q 2544 4750 2975 4387 
Q 3406 4025 3406 3419 
Q 3406 3131 3298 2873 
Q 3191 2616 2906 2266 
Q 2828 2175 2409 1742 
Q 1991 1309 1228 531 
z
" transform="scale(0.015625)"/>
     </defs>
     <use xlink:href="#DejaVuSans-28"/>
     <use xlink:href="#DejaVuSans-2264" transform="translate(39.013672 0)"/>
     <use xlink:href="#DejaVuSans-35" transform="translate(122.802734 0)"/>
     <use xlink:href="#DejaVuSans-31" transform="translate(186.425781 0)"/>
     <use xlink:href="#DejaVuSans-32" transform="translate(250.048828 0)"/>
     <use xlink:href="#DejaVuSans-6b" transform="translate(313.671875 0)"/>
     <use xlink:href="#DejaVuSans-42" transform="translate(371.582031 0)"/>
     <use xlink:href="#DejaVuSans-2c" transform="translate(440.185547 0)"/>
     <use xlink:href="#DejaVuSans-20" transform="translate(471.972656 0)"/>
     <use xlink:href="#DejaVuSans-62" transform="translate(503.759766 0)"/>
     <use xlink:href="#DejaVuSans-6c" transform="translate(567.236328 0)"/>
     <use xlink:href="#DejaVuSans-65" transform="translate(595.019531 0)"/>
     <use xlink:href="#DejaVuSans-6e" transform="translate(656.542969 0)"/>
     <use xlink:href="#DejaVuSans-64" transform="translate(719.921875 0)"/>
     <use xlink:href="#DejaVuSans-65" transform="translate(783.398438 0)"/>
     <use xlink:href="#DejaVuSans-64" transform="translate(844.921875 0)"/>
     <use xlink:href="#DejaVuSans-29" transform="translate(908.398438 0)"/>
    </g>
   </g>
   <g id="text_6">
    <g id="patch_8">
     <path d="M 469.258984 167.220299 
L 535.141016 167.220299 
Q 537.941016 167.220299 537.941016 164.420299 
L 537.941016 141.968674 
Q 537.941016 139.168674 535.141016 139.168674 
L 469.258984 139.168674 
Q 466.458984 139.168674 466.458984 141.968674 
L 466.458984 164.420299 
Q 466.458984 167.220299 469.258984 167.220299 
z
" style="fill: #e8f4fd; stroke: #2980b9; stroke-linejoin: miter"/>
    </g>
    <!-- Fetch missing -->
    <g transform="translate(478.158281 147.092893) scale(0.07 -0.07)">
     <defs>
      <path id="DejaVuSans-6d" d="M 3328 2828 
Q 3544 3216 3844 3400 
Q 4144 3584 4550 3584 
Q 5097 3584 5394 3201 
Q 5691 2819 5691 2113 
L 5691 0 
L 5113 0 
L 5113 2094 
Q 5113 2597 4934 2840 
Q 4756 3084 4391 3084 
Q 3944 3084 3684 2787 
Q 3425 2491 3425 1978 
L 3425 0 
L 2847 0 
L 2847 2094 
Q 2847 2600 2669 2842 
Q 2491 3084 2119 3084 
Q 1678 3084 1418 2786 
Q 1159 2488 1159 1978 
L 1159 0 
L 581 0 
L 581 3500 
L 1159 3500 
L 1159 2956 
Q 1356 3278 1631 3431 
Q 1906 3584 2284 3584 
Q 2666 3584 2933 3390 
Q 3200 3197 3328 2828 
z
" transform="scale(0.015625)"/>
      <path id="DejaVuSans-67" d="M 2906 1791 
Q 2906 2416 2648 2759 
Q 2391 3103 1925 3103 
Q 1463 3103 1205 2759 
Q 947 2416 947 1791 
Q 947 1169 1205 825 
Q 1463 481 1925 481 
Q 2391 481 2648 825 
Q 2906 1169 2906 1791 
z
M 3481 434 
Q 3481 -459 3084 -895 
Q 2688 -1331 1869 -1331 
Q 1566 -1331 1297 -1286 
Q 1028 -1241 775 -1147 
L 775 -588 
Q 1028 -725 1275 -790 
Q 1522 -856 1778 -856 
Q 2344 -856 2625 -561 
Q 2906 -266 2906 331 
L 2906 616 
Q 2728 306 2450 153 
Q 2172 0 1784 0 
Q 1141 0 747 490 
Q 353 981 353 1791 
Q 353 2603 747 3093 
Q 1141 3584 1784 3584 
Q 2172 3584 2450 3431 
Q 2728 3278 2906 2969 
L 2906 3500 
L 3481 3500 
L 3481 434 
z
" transform="scale(0.015625)"/>
     </defs>
     <use xlink:href="#DejaVuSans-46"/>
     <use xlink:href="#DejaVuSans-65" transform="translate(52.019531 0)"/>
     <use xlink:href="#DejaVuSans-74" transform="translate(113.542969 0)"/>
     <use xlink:href="#DejaVuSans-63" transform="translate(152.751953 0)"/>
     <use xlink:href="#DejaVuSans-68" transform="translate(207.732422 0)"/>
     <use xlink:href="#DejaVuSans-20" transform="translate(271.111328 0)"/>
     <use xlink:href="#DejaVuSans-6d" transform="translate(302.898438 0)"/>
     <use xlink:href="#DejaVuSans-69" transform="translate(400.310547 0)"/>
     <use xlink:href="#DejaVuSans-73" transform="translate(428.09375 0)"/>
     <use xlink:href="#DejaVuSans-73" transform="translate(480.193359 0)"/>
     <use xlink:href="#DejaVuSans-69" transform="translate(532.292969 0)"/>
     <use xlink:href="#DejaVuSans-6e" transform="translate(560.076172 0)"/>
     <use xlink:href="#DejaVuSans-67" transform="translate(623.455078 0)"/>
    </g>
    <!-- EB-closure txs -->
    <g transform="translate(477.351641 154.931362) scale(0.07 -0.07)">
     <defs>
      <path id="DejaVuSans-2d" d="M 313 2009 
L 1997 2009 
L 1997 1497 
L 313 1497 
L 313 2009 
z
" transform="scale(0.015625)"/>
      <path id="DejaVuSans-75" d="M 544 1381 
L 544 3500 
L 1119 3500 
L 1119 1403 
Q 1119 906 1312 657 
Q 1506 409 1894 409 
Q 2359 409 2629 706 
Q 2900 1003 2900 1516 
L 2900 3500 
L 3475 3500 
L 3475 0 
L 2900 0 
L 2900 538 
Q 2691 219 2414 64 
Q 2138 -91 1772 -91 
Q 1169 -91 856 284 
Q 544 659 544 1381 
z
M 1991 3584 
L 1991 3584 
z
" transform="scale(0.015625)"/>
      <path id="DejaVuSans-78" d="M 3513 3500 
L 2247 1797 
L 3578 0 
L 2900 0 
L 1881 1375 
L 863 0 
L 184 0 
L 1544 1831 
L 300 3500 
L 978 3500 
L 1906 2253 
L 2834 3500 
L 3513 3500 
z
" transform="scale(0.015625)"/>
     </defs>
     <use xlink:href="#DejaVuSans-45"/>
     <use xlink:href="#DejaVuSans-42" transform="translate(63.183594 0)"/>
     <use xlink:href="#DejaVuSans-2d" transform="translate(131.787109 0)"/>
     <use xlink:href="#DejaVuSans-63" transform="translate(167.871094 0)"/>
     <use xlink:href="#DejaVuSans-6c" transform="translate(222.851562 0)"/>
     <use xlink:href="#DejaVuSans-6f" transform="translate(250.634766 0)"/>
     <use xlink:href="#DejaVuSans-73" transform="translate(311.816406 0)"/>
     <use xlink:href="#DejaVuSans-75" transform="translate(363.916016 0)"/>
     <use xlink:href="#DejaVuSans-72" transform="translate(427.294922 0)"/>
     <use xlink:href="#DejaVuSans-65" transform="translate(466.158203 0)"/>
     <use xlink:href="#DejaVuSans-20" transform="translate(527.681641 0)"/>
     <use xlink:href="#DejaVuSans-74" transform="translate(559.46875 0)"/>
     <use xlink:href="#DejaVuSans-78" transform="translate(598.677734 0)"/>
     <use xlink:href="#DejaVuSans-73" transform="translate(657.857422 0)"/>
    </g>
    <!-- (π₁·S_EB-tx, 1-hop) -->
    <g transform="translate(469.258984 162.76983) scale(0.07 -0.07)">
     <defs>
      <path id="DejaVuSans-3c0" d="M 231 3500 
L 3584 3500 
L 3584 2925 
L 3144 2925 
L 3144 775 
Q 3144 550 3220 451 
Q 3297 353 3469 353 
Q 3516 353 3584 361 
Q 3653 369 3675 372 
L 3675 -44 
Q 3566 -84 3450 -103 
Q 3334 -122 3219 -122 
Q 2844 -122 2700 83 
Q 2556 288 2556 838 
L 2556 2925 
L 1266 2925 
L 1266 0 
L 678 0 
L 678 2925 
L 231 2925 
L 231 3500 
z
" transform="scale(0.015625)"/>
      <path id="DejaVuSans-2081" d="M 488 319 
L 1125 319 
L 1125 2229 
L 428 2101 
L 428 2463 
L 1147 2585 
L 1575 2585 
L 1575 319 
L 2216 319 
L 2216 -24 
L 488 -24 
L 488 319 
z
" transform="scale(0.015625)"/>
      <path id="DejaVuSans-b7" d="M 684 2619 
L 1344 2619 
L 1344 1825 
L 684 1825 
L 684 2619 
z
" transform="scale(0.015625)"/>
      <path id="DejaVuSans-53" d="M 3425 4513 
L 3425 3897 
Q 3066 4069 2747 4153 
Q 2428 4238 2131 4238 
Q 1616 4238 1336 4038 
Q 1056 3838 1056 3469 
Q 1056 3159 1242 3001 
Q 1428 2844 1947 2747 
L 2328 2669 
Q 3034 2534 3370 2195 
Q 3706 1856 3706 1288 
Q 3706 609 3251 259 
Q 2797 -91 1919 -91 
Q 1588 -91 1214 -16 
Q 841 59 441 206 
L 441 856 
Q 825 641 1194 531 
Q 1563 422 1919 422 
Q 2459 422 2753 634 
Q 3047 847 3047 1241 
Q 3047 1584 2836 1778 
Q 2625 1972 2144 2069 
L 1759 2144 
Q 1053 2284 737 2584 
Q 422 2884 422 3419 
Q 422 4038 858 4394 
Q 1294 4750 2059 4750 
Q 2388 4750 2728 4690 
Q 3069 4631 3425 4513 
z
" transform="scale(0.015625)"/>
     </defs>
     <use xlink:href="#DejaVuSans-28"/>
     <use xlink:href="#DejaVuSans-3c0" transform="translate(39.013672 0)"/>
     <use xlink:href="#DejaVuSans-2081" transform="translate(99.21875 0)"/>
     <use xlink:href="#DejaVuSans-b7" transform="translate(139.306641 0)"/>
     <use xlink:href="#DejaVuSans-53" transform="translate(171.09375 0)"/>
     <use xlink:href="#DejaVuSans-5f" transform="translate(234.570312 0)"/>
     <use xlink:href="#DejaVuSans-45" transform="translate(284.570312 0)"/>
     <use xlink:href="#DejaVuSans-42" transform="translate(347.753906 0)"/>
     <use xlink:href="#DejaVuSans-2d" transform="translate(416.357422 0)"/>
     <use xlink:href="#DejaVuSans-74" transform="translate(452.441406 0)"/>
     <use xlink:href="#DejaVuSans-78" transform="translate(491.650391 0)"/>
     <use xlink:href="#DejaVuSans-2c" transform="translate(550.830078 0)"/>
     <use xlink:href="#DejaVuSans-20" transform="translate(582.617188 0)"/>
     <use xlink:href="#DejaVuSans-31" transform="translate(614.404297 0)"/>
     <use xlink:href="#DejaVuSans-2d" transform="translate(678.027344 0)"/>
     <use xlink:href="#DejaVuSans-68" transform="translate(714.111328 0)"/>
     <use xlink:href="#DejaVuSans-6f" transform="translate(777.490234 0)"/>
     <use xlink:href="#DejaVuSans-70" transform="translate(838.671875 0)"/>
     <use xlink:href="#DejaVuSans-29" transform="translate(902.148438 0)"/>
    </g>
   </g>
   <g id="patch_9">
    <path d="M 426.978369 153.097143 
Q 431.998165 153.097143 435.899927 153.097143 
" style="fill: none; stroke: #000000; stroke-linecap: round"/>
    <path d="M 431.899927 151.097143 
L 435.899927 153.097143 
L 431.899927 155.097143 
" style="fill: none; stroke: #000000; stroke-linecap: round"/>
   </g>
   <g id="text_7">
    <g id="patch_10">
     <path d="M 593.46 139.61267 
C 596.994047 139.61267 600.383824 138.208578 602.882772 135.70963 
C 605.381721 133.210681 606.785813 129.820904 606.785813 126.286857 
C 606.785813 122.75281 605.381721 119.363033 602.882772 116.864085 
C 600.383824 114.365136 596.994047 112.961045 593.46 112.961045 
C 589.925953 112.961045 586.536176 114.365136 584.037228 116.864085 
C 581.538279 119.363033 580.134187 122.75281 580.134187 126.286857 
C 580.134187 129.820904 581.538279 133.210681 584.037228 135.70963 
C 586.536176 138.208578 589.925953 139.61267 593.46 139.61267 
z
" style="fill: #fdebd0; stroke: #e67e22; stroke-linejoin: miter"/>
    </g>
    <!-- last -->
    <g transform="translate(587.147422 120.379951) scale(0.07 -0.07)">
     <use xlink:href="#DejaVuSans-6c"/>
     <use xlink:href="#DejaVuSans-61" transform="translate(27.783203 0)"/>
     <use xlink:href="#DejaVuSans-73" transform="translate(89.0625 0)"/>
     <use xlink:href="#DejaVuSans-74" transform="translate(141.162109 0)"/>
    </g>
    <!-- to -->
    <g transform="translate(589.946328 128.21842) scale(0.07 -0.07)">
     <use xlink:href="#DejaVuSans-74"/>
     <use xlink:href="#DejaVuSans-6f" transform="translate(39.208984 0)"/>
    </g>
    <!-- finish -->
    <g transform="translate(584.023672 136.056888) scale(0.07 -0.07)">
     <defs>
      <path id="DejaVuSans-66" d="M 2375 4863 
L 2375 4384 
L 1825 4384 
Q 1516 4384 1395 4259 
Q 1275 4134 1275 3809 
L 1275 3500 
L 2222 3500 
L 2222 3053 
L 1275 3053 
L 1275 0 
L 697 0 
L 697 3053 
L 147 3053 
L 147 3500 
L 697 3500 
L 697 3744 
Q 697 4328 969 4595 
Q 1241 4863 1831 4863 
L 2375 4863 
z
" transform="scale(0.015625)"/>
     </defs>
     <use xlink:href="#DejaVuSans-66"/>
     <use xlink:href="#DejaVuSans-69" transform="translate(35.205078 0)"/>
     <use xlink:href="#DejaVuSans-6e" transform="translate(62.988281 0)"/>
     <use xlink:href="#DejaVuSans-69" transform="translate(126.367188 0)"/>
     <use xlink:href="#DejaVuSans-73" transform="translate(154.150391 0)"/>
     <use xlink:href="#DejaVuSans-68" transform="translate(206.25 0)"/>
    </g>
   </g>
   <g id="patch_11">
    <path d="M 433.992371 99.628754 
Q 502.197241 104.838418 569.287325 109.962932 
" style="fill: none; stroke: #000000; stroke-linecap: round"/>
    <path d="M 565.451264 107.664098 
L 569.287325 109.962932 
L 565.146621 111.65248 
" style="fill: none; stroke: #000000; stroke-linecap: round"/>
   </g>
   <g id="patch_12">
    <path d="M 566.180376 151.263099 
Q 568.890073 145.05389 571.152588 139.869389 
" style="fill: none; stroke: #000000; stroke-linecap: round"/>
    <path d="M 567.719644 142.735554 
L 571.152588 139.869389 
L 571.385753 144.335442 
" style="fill: none; stroke: #000000; stroke-linecap: round"/>
   </g>
   <g id="text_8">
    <g id="patch_13">
     <path d="M 654.620234 136.393435 
L 700.779766 136.393435 
Q 703.579766 136.393435 703.579766 133.593435 
L 703.579766 118.980279 
Q 703.579766 116.180279 700.779766 116.180279 
L 654.620234 116.180279 
Q 651.820234 116.180279 651.820234 118.980279 
L 651.820234 133.593435 
Q 651.820234 136.393435 654.620234 136.393435 
z
" style="fill: #e8f4fd; stroke: #2980b9; stroke-linejoin: miter"/>
    </g>
    <!-- Reapply EB -->
    <g transform="translate(657.914062 124.299185) scale(0.07 -0.07)">
     <use xlink:href="#DejaVuSans-52"/>
     <use xlink:href="#DejaVuSans-65" transform="translate(64.982422 0)"/>
     <use xlink:href="#DejaVuSans-61" transform="translate(126.505859 0)"/>
     <use xlink:href="#DejaVuSans-70" transform="translate(187.785156 0)"/>
     <use xlink:href="#DejaVuSans-70" transform="translate(251.261719 0)"/>
     <use xlink:href="#DejaVuSans-6c" transform="translate(314.738281 0)"/>
     <use xlink:href="#DejaVuSans-79" transform="translate(342.521484 0)"/>
     <use xlink:href="#DejaVuSans-20" transform="translate(401.701172 0)"/>
     <use xlink:href="#DejaVuSans-45" transform="translate(433.488281 0)"/>
     <use xlink:href="#DejaVuSans-42" transform="translate(496.671875 0)"/>
    </g>
    <!-- txs (≤16k tx) -->
    <g transform="translate(654.620234 132.137654) scale(0.07 -0.07)">
     <defs>
      <path id="DejaVuSans-36" d="M 2113 2584 
Q 1688 2584 1439 2293 
Q 1191 2003 1191 1497 
Q 1191 994 1439 701 
Q 1688 409 2113 409 
Q 2538 409 2786 701 
Q 3034 994 3034 1497 
Q 3034 2003 2786 2293 
Q 2538 2584 2113 2584 
z
M 3366 4563 
L 3366 3988 
Q 3128 4100 2886 4159 
Q 2644 4219 2406 4219 
Q 1781 4219 1451 3797 
Q 1122 3375 1075 2522 
Q 1259 2794 1537 2939 
Q 1816 3084 2150 3084 
Q 2853 3084 3261 2657 
Q 3669 2231 3669 1497 
Q 3669 778 3244 343 
Q 2819 -91 2113 -91 
Q 1303 -91 875 529 
Q 447 1150 447 2328 
Q 447 3434 972 4092 
Q 1497 4750 2381 4750 
Q 2619 4750 2861 4703 
Q 3103 4656 3366 4563 
z
" transform="scale(0.015625)"/>
     </defs>
     <use xlink:href="#DejaVuSans-74"/>
     <use xlink:href="#DejaVuSans-78" transform="translate(39.208984 0)"/>
     <use xlink:href="#DejaVuSans-73" transform="translate(98.388672 0)"/>
     <use xlink:href="#DejaVuSans-20" transform="translate(150.488281 0)"/>
     <use xlink:href="#DejaVuSans-28" transform="translate(182.275391 0)"/>
     <use xlink:href="#DejaVuSans-2264" transform="translate(221.289062 0)"/>
     <use xlink:href="#DejaVuSans-31" transform="translate(305.078125 0)"/>
     <use xlink:href="#DejaVuSans-36" transform="translate(368.701172 0)"/>
     <use xlink:href="#DejaVuSans-6b" transform="translate(432.324219 0)"/>
     <use xlink:href="#DejaVuSans-20" transform="translate(490.234375 0)"/>
     <use xlink:href="#DejaVuSans-74" transform="translate(522.021484 0)"/>
     <use xlink:href="#DejaVuSans-78" transform="translate(561.230469 0)"/>
     <use xlink:href="#DejaVuSans-29" transform="translate(620.410156 0)"/>
    </g>
   </g>
   <g id="patch_14">
    <path d="M 616.518369 126.286857 
Q 628.557882 126.286857 639.47936 126.286857 
" style="fill: none; stroke: #000000; stroke-linecap: round"/>
    <path d="M 635.47936 124.286857 
L 639.47936 126.286857 
L 635.47936 128.286857 
" style="fill: none; stroke: #000000; stroke-linecap: round"/>
   </g>
   <g id="patch_15">
    <path d="M 208.807361 261.7202 
Q 249.479801 300.553524 289.3436 338.614772 
" style="fill: none; stroke: #c0392b; stroke-linecap: round"/>
    <path d="M 287.831651 334.405971 
L 289.3436 338.614772 
L 285.069389 337.299051 
" style="fill: none; stroke: #c0392b; stroke-linecap: round"/>
   </g>
   <g id="text_9">
    <!-- no -->
    <g style="fill: #c0392b" transform="translate(228.42 313.958857) scale(0.07 -0.07)">
     <use xlink:href="#DejaVuSans-6e"/>
     <use xlink:href="#DejaVuSans-6f" transform="translate(63.378906 0)"/>
    </g>
   </g>
   <g id="text_10">
    <g id="patch_16">
     <path d="M 330.866016 350.875721 
L 392.733984 350.875721 
Q 395.533984 350.875721 395.533984 348.075721 
L 395.533984 333.462565 
Q 395.533984 330.662565 392.733984 330.662565 
L 330.866016 330.662565 
Q 328.066016 330.662565 328.066016 333.462565 
L 328.066016 348.075721 
Q 328.066016 350.875721 330.866016 350.875721 
z
" style="fill: #e8f4fd; stroke: #2980b9; stroke-linejoin: miter"/>
    </g>
    <!-- Fetch txRB body -->
    <g transform="translate(333.1525 338.781471) scale(0.07 -0.07)">
     <use xlink:href="#DejaVuSans-46"/>
     <use xlink:href="#DejaVuSans-65" transform="translate(52.019531 0)"/>
     <use xlink:href="#DejaVuSans-74" transform="translate(113.542969 0)"/>
     <use xlink:href="#DejaVuSans-63" transform="translate(152.751953 0)"/>
     <use xlink:href="#DejaVuSans-68" transform="translate(207.732422 0)"/>
     <use xlink:href="#DejaVuSans-20" transform="translate(271.111328 0)"/>
     <use xlink:href="#DejaVuSans-74" transform="translate(302.898438 0)"/>
     <use xlink:href="#DejaVuSans-78" transform="translate(342.107422 0)"/>
     <use xlink:href="#DejaVuSans-52" transform="translate(401.287109 0)"/>
     <use xlink:href="#DejaVuSans-42" transform="translate(470.769531 0)"/>
     <use xlink:href="#DejaVuSans-20" transform="translate(539.373047 0)"/>
     <use xlink:href="#DejaVuSans-62" transform="translate(571.160156 0)"/>
     <use xlink:href="#DejaVuSans-6f" transform="translate(634.636719 0)"/>
     <use xlink:href="#DejaVuSans-64" transform="translate(695.818359 0)"/>
     <use xlink:href="#DejaVuSans-79" transform="translate(759.294922 0)"/>
    </g>
    <!-- (≤90kB, blended) -->
    <g transform="translate(330.866016 346.61994) scale(0.07 -0.07)">
     <defs>
      <path id="DejaVuSans-39" d="M 703 97 
L 703 672 
Q 941 559 1184 500 
Q 1428 441 1663 441 
Q 2288 441 2617 861 
Q 2947 1281 2994 2138 
Q 2813 1869 2534 1725 
Q 2256 1581 1919 1581 
Q 1219 1581 811 2004 
Q 403 2428 403 3163 
Q 403 3881 828 4315 
Q 1253 4750 1959 4750 
Q 2769 4750 3195 4129 
Q 3622 3509 3622 2328 
Q 3622 1225 3098 567 
Q 2575 -91 1691 -91 
Q 1453 -91 1209 -44 
Q 966 3 703 97 
z
M 1959 2075 
Q 2384 2075 2632 2365 
Q 2881 2656 2881 3163 
Q 2881 3666 2632 3958 
Q 2384 4250 1959 4250 
Q 1534 4250 1286 3958 
Q 1038 3666 1038 3163 
Q 1038 2656 1286 2365 
Q 1534 2075 1959 2075 
z
" transform="scale(0.015625)"/>
      <path id="DejaVuSans-30" d="M 2034 4250 
Q 1547 4250 1301 3770 
Q 1056 3291 1056 2328 
Q 1056 1369 1301 889 
Q 1547 409 2034 409 
Q 2525 409 2770 889 
Q 3016 1369 3016 2328 
Q 3016 3291 2770 3770 
Q 2525 4250 2034 4250 
z
M 2034 4750 
Q 2819 4750 3233 4129 
Q 3647 3509 3647 2328 
Q 3647 1150 3233 529 
Q 2819 -91 2034 -91 
Q 1250 -91 836 529 
Q 422 1150 422 2328 
Q 422 3509 836 4129 
Q 1250 4750 2034 4750 
z
" transform="scale(0.015625)"/>
     </defs>
     <use xlink:href="#DejaVuSans-28"/>
     <use xlink:href="#DejaVuSans-2264" transform="translate(39.013672 0)"/>
     <use xlink:href="#DejaVuSans-39" transform="translate(122.802734 0)"/>
     <use xlink:href="#DejaVuSans-30" transform="translate(186.425781 0)"/>
     <use xlink:href="#DejaVuSans-6b" transform="translate(250.048828 0)"/>
     <use xlink:href="#DejaVuSans-42" transform="translate(307.958984 0)"/>
     <use xlink:href="#DejaVuSans-2c" transform="translate(376.5625 0)"/>
     <use xlink:href="#DejaVuSans-20" transform="translate(408.349609 0)"/>
     <use xlink:href="#DejaVuSans-62" transform="translate(440.136719 0)"/>
     <use xlink:href="#DejaVuSans-6c" transform="translate(503.613281 0)"/>
     <use xlink:href="#DejaVuSans-65" transform="translate(531.396484 0)"/>
     <use xlink:href="#DejaVuSans-6e" transform="translate(592.919922 0)"/>
     <use xlink:href="#DejaVuSans-64" transform="translate(656.298828 0)"/>
     <use xlink:href="#DejaVuSans-65" transform="translate(719.775391 0)"/>
     <use xlink:href="#DejaVuSans-64" transform="translate(781.298828 0)"/>
     <use xlink:href="#DejaVuSans-29" transform="translate(844.775391 0)"/>
    </g>
   </g>
   <g id="text_11">
    <g id="patch_17">
     <path d="M 520.399375 350.875721 
L 554.200625 350.875721 
Q 557.000625 350.875721 557.000625 348.075721 
L 557.000625 333.462565 
Q 557.000625 330.662565 554.200625 330.662565 
L 520.399375 330.662565 
Q 517.599375 330.662565 517.599375 333.462565 
L 517.599375 348.075721 
Q 517.599375 350.875721 520.399375 350.875721 
z
" style="fill: #e8f4fd; stroke: #2980b9; stroke-linejoin: miter"/>
    </g>
    <!-- Apply txs -->
    <g transform="translate(521.038672 338.781471) scale(0.07 -0.07)">
     <defs>
      <path id="DejaVuSans-41" d="M 2188 4044 
L 1331 1722 
L 3047 1722 
L 2188 4044 
z
M 1831 4666 
L 2547 4666 
L 4325 0 
L 3669 0 
L 3244 1197 
L 1141 1197 
L 716 0 
L 50 0 
L 1831 4666 
z
" transform="scale(0.015625)"/>
     </defs>
     <use xlink:href="#DejaVuSans-41"/>
     <use xlink:href="#DejaVuSans-70" transform="translate(68.408203 0)"/>
     <use xlink:href="#DejaVuSans-70" transform="translate(131.884766 0)"/>
     <use xlink:href="#DejaVuSans-6c" transform="translate(195.361328 0)"/>
     <use xlink:href="#DejaVuSans-79" transform="translate(223.144531 0)"/>
     <use xlink:href="#DejaVuSans-20" transform="translate(282.324219 0)"/>
     <use xlink:href="#DejaVuSans-74" transform="translate(314.111328 0)"/>
     <use xlink:href="#DejaVuSans-78" transform="translate(353.320312 0)"/>
     <use xlink:href="#DejaVuSans-73" transform="translate(412.5 0)"/>
    </g>
    <!-- (≤100 tx) -->
    <g transform="translate(520.399375 346.61994) scale(0.07 -0.07)">
     <use xlink:href="#DejaVuSans-28"/>
     <use xlink:href="#DejaVuSans-2264" transform="translate(39.013672 0)"/>
     <use xlink:href="#DejaVuSans-31" transform="translate(122.802734 0)"/>
     <use xlink:href="#DejaVuSans-30" transform="translate(186.425781 0)"/>
     <use xlink:href="#DejaVuSans-30" transform="translate(250.048828 0)"/>
     <use xlink:href="#DejaVuSans-20" transform="translate(313.671875 0)"/>
     <use xlink:href="#DejaVuSans-74" transform="translate(345.458984 0)"/>
     <use xlink:href="#DejaVuSans-78" transform="translate(384.667969 0)"/>
     <use xlink:href="#DejaVuSans-29" transform="translate(443.847656 0)"/>
    </g>
   </g>
   <g id="patch_18">
    <path d="M 434.00094 340.769143 
Q 449.550468 340.769143 463.981962 340.769143 
" style="fill: none; stroke: #000000; stroke-linecap: round"/>
    <path d="M 459.981962 338.769143 
L 463.981962 340.769143 
L 459.981962 342.769143 
" style="fill: none; stroke: #000000; stroke-linecap: round"/>
   </g>
   <g id="text_12">
    <g id="patch_19">
     <path d="M 750.359375 245.078375 
L 787.560625 245.078375 
Q 790.760625 245.078375 790.760625 241.878375 
L 790.760625 225.177625 
Q 790.760625 221.977625 787.560625 221.977625 
L 750.359375 221.977625 
Q 747.159375 221.977625 747.159375 225.177625 
L 747.159375 241.878375 
Q 747.159375 245.078375 750.359375 245.078375 
z
" style="fill: #fdedec; stroke: #e74c3c; stroke-linejoin: miter"/>
    </g>
    <!-- RB -->
    <g transform="translate(763.43625 231.256375) scale(0.08 -0.08)">
     <use xlink:href="#DejaVuSans-52"/>
     <use xlink:href="#DejaVuSans-42" transform="translate(69.482422 0)"/>
    </g>
    <!-- validated -->
    <g transform="translate(750.359375 240.214625) scale(0.08 -0.08)">
     <use xlink:href="#DejaVuSans-76"/>
     <use xlink:href="#DejaVuSans-61" transform="translate(59.179688 0)"/>
     <use xlink:href="#DejaVuSans-6c" transform="translate(120.458984 0)"/>
     <use xlink:href="#DejaVuSans-69" transform="translate(148.242188 0)"/>
     <use xlink:href="#DejaVuSans-64" transform="translate(176.025391 0)"/>
     <use xlink:href="#DejaVuSans-61" transform="translate(239.501953 0)"/>
     <use xlink:href="#DejaVuSans-74" transform="translate(300.78125 0)"/>
     <use xlink:href="#DejaVuSans-65" transform="translate(339.990234 0)"/>
     <use xlink:href="#DejaVuSans-64" transform="translate(401.513672 0)"/>
    </g>
   </g>
   <g id="patch_20">
    <path d="M 679.506416 207.580081 
Q 705.779195 220.122473 731.043016 232.183197 
" style="fill: none; stroke: #000000; stroke-linecap: round"/>
    <path d="M 728.294891 228.655051 
L 731.043016 232.183197 
L 726.571624 232.264809 
" style="fill: none; stroke: #000000; stroke-linecap: round"/>
   </g>
   <g id="patch_21">
    <path d="M 609.092611 328.828551 
Q 670.682421 281.784665 731.383735 235.419435 
" style="fill: none; stroke: #000000; stroke-linecap: round"/>
    <path d="M 726.990937 236.258079 
L 731.383735 235.419435 
L 729.418972 239.43686 
" style="fill: none; stroke: #000000; stroke-linecap: round"/>
   </g>
   <g id="text_13">
    <!-- Key: cert path = RB holds EB certificate.  tx path = RB holds transactions. -->
    <g transform="translate(17.82 61.942171) scale(0.07 -0.07)">
     <defs>
      <path id="DejaVuSans-Oblique-4b" d="M 1081 4666 
L 1716 4666 
L 1331 2700 
L 3781 4666 
L 4622 4666 
L 1850 2438 
L 3878 0 
L 3109 0 
L 1247 2272 
L 806 0 
L 172 0 
L 1081 4666 
z
" transform="scale(0.015625)"/>
      <path id="DejaVuSans-Oblique-65" d="M 3078 2063 
Q 3088 2113 3092 2166 
Q 3097 2219 3097 2272 
Q 3097 2653 2873 2875 
Q 2650 3097 2266 3097 
Q 1838 3097 1509 2826 
Q 1181 2556 1013 2059 
L 3078 2063 
z
M 3578 1613 
L 903 1613 
Q 884 1494 878 1425 
Q 872 1356 872 1306 
Q 872 872 1139 634 
Q 1406 397 1894 397 
Q 2269 397 2603 481 
Q 2938 566 3225 728 
L 3116 159 
Q 2806 34 2476 -28 
Q 2147 -91 1806 -91 
Q 1078 -91 686 257 
Q 294 606 294 1247 
Q 294 1794 489 2264 
Q 684 2734 1063 3103 
Q 1306 3334 1642 3459 
Q 1978 3584 2356 3584 
Q 2950 3584 3301 3228 
Q 3653 2872 3653 2272 
Q 3653 2128 3634 1964 
Q 3616 1800 3578 1613 
z
" transform="scale(0.015625)"/>
      <path id="DejaVuSans-Oblique-79" d="M 1588 -325 
Q 1188 -997 936 -1164 
Q 684 -1331 294 -1331 
L -159 -1331 
L -63 -850 
L 269 -850 
Q 509 -850 678 -719 
Q 847 -588 1056 -206 
L 1234 128 
L 459 3500 
L 1069 3500 
L 1650 819 
L 3256 3500 
L 3859 3500 
L 1588 -325 
z
" transform="scale(0.015625)"/>
      <path id="DejaVuSans-Oblique-3a" d="M 978 3309 
L 1638 3309 
L 1484 2516 
L 825 2516 
L 978 3309 
z
M 488 794 
L 1147 794 
L 991 0 
L 331 0 
L 488 794 
z
" transform="scale(0.015625)"/>
      <path id="DejaVuSans-Oblique-20" transform="scale(0.015625)"/>
      <path id="DejaVuSans-Oblique-63" d="M 3431 3366 
L 3316 2797 
Q 3109 2947 2876 3022 
Q 2644 3097 2394 3097 
Q 2119 3097 1870 3000 
Q 1622 2903 1453 2725 
Q 1184 2453 1037 2087 
Q 891 1722 891 1331 
Q 891 859 1127 628 
Q 1363 397 1844 397 
Q 2081 397 2348 469 
Q 2616 541 2906 684 
L 2797 116 
Q 2547 13 2283 -39 
Q 2019 -91 1741 -91 
Q 1044 -91 669 257 
Q 294 606 294 1253 
Q 294 1797 489 2255 
Q 684 2713 1069 3078 
Q 1331 3328 1684 3456 
Q 2038 3584 2456 3584 
Q 2700 3584 2940 3529 
Q 3181 3475 3431 3366 
z
" transform="scale(0.015625)"/>
      <path id="DejaVuSans-Oblique-72" d="M 2853 2969 
Q 2766 3016 2653 3041 
Q 2541 3066 2413 3066 
Q 1953 3066 1609 2717 
Q 1266 2369 1153 1784 
L 800 0 
L 225 0 
L 909 3500 
L 1484 3500 
L 1375 2956 
Q 1603 3259 1920 3421 
Q 2238 3584 2597 3584 
Q 2691 3584 2781 3573 
Q 2872 3563 2963 3538 
L 2853 2969 
z
" transform="scale(0.015625)"/>
      <path id="DejaVuSans-Oblique-74" d="M 2706 3500 
L 2619 3053 
L 1472 3053 
L 1100 1153 
Q 1081 1047 1072 975 
Q 1063 903 1063 863 
Q 1063 663 1183 572 
Q 1303 481 1569 481 
L 2150 481 
L 2053 0 
L 1503 0 
Q 991 0 739 200 
Q 488 400 488 806 
Q 488 878 497 964 
Q 506 1050 525 1153 
L 897 3053 
L 409 3053 
L 500 3500 
L 978 3500 
L 1172 4494 
L 1747 4494 
L 1556 3500 
L 2706 3500 
z
" transform="scale(0.015625)"/>
      <path id="DejaVuSans-Oblique-70" d="M 3175 2156 
Q 3175 2616 2975 2859 
Q 2775 3103 2400 3103 
Q 2144 3103 1911 2972 
Q 1678 2841 1497 2591 
Q 1319 2344 1212 1994 
Q 1106 1644 1106 1300 
Q 1106 863 1306 627 
Q 1506 391 1875 391 
Q 2147 391 2380 519 
Q 2613 647 2778 891 
Q 2956 1147 3065 1494 
Q 3175 1841 3175 2156 
z
M 1394 2969 
Q 1625 3272 1939 3428 
Q 2253 3584 2638 3584 
Q 3175 3584 3472 3232 
Q 3769 2881 3769 2247 
Q 3769 1728 3584 1258 
Q 3400 788 3053 416 
Q 2822 169 2531 39 
Q 2241 -91 1919 -91 
Q 1547 -91 1294 64 
Q 1041 219 916 525 
L 556 -1331 
L -19 -1331 
L 922 3500 
L 1497 3500 
L 1394 2969 
z
" transform="scale(0.015625)"/>
      <path id="DejaVuSans-Oblique-61" d="M 3438 1997 
L 3047 0 
L 2472 0 
L 2578 531 
Q 2325 219 2001 64 
Q 1678 -91 1281 -91 
Q 834 -91 548 182 
Q 263 456 263 884 
Q 263 1497 752 1853 
Q 1241 2209 2100 2209 
L 2900 2209 
L 2931 2363 
Q 2938 2388 2941 2417 
Q 2944 2447 2944 2509 
Q 2944 2788 2717 2942 
Q 2491 3097 2081 3097 
Q 1800 3097 1504 3025 
Q 1209 2953 897 2809 
L 997 3341 
Q 1322 3463 1633 3523 
Q 1944 3584 2234 3584 
Q 2853 3584 3176 3315 
Q 3500 3047 3500 2534 
Q 3500 2431 3484 2292 
Q 3469 2153 3438 1997 
z
M 2816 1759 
L 2241 1759 
Q 1534 1759 1195 1570 
Q 856 1381 856 984 
Q 856 709 1029 553 
Q 1203 397 1509 397 
Q 1978 397 2328 733 
Q 2678 1069 2791 1631 
L 2816 1759 
z
" transform="scale(0.015625)"/>
      <path id="DejaVuSans-Oblique-68" d="M 3566 2113 
L 3156 0 
L 2578 0 
L 2988 2091 
Q 3016 2238 3031 2350 
Q 3047 2463 3047 2528 
Q 3047 2791 2881 2937 
Q 2716 3084 2419 3084 
Q 1956 3084 1617 2771 
Q 1278 2459 1178 1941 
L 800 0 
L 225 0 
L 1172 4863 
L 1747 4863 
L 1375 2950 
Q 1594 3244 1934 3414 
Q 2275 3584 2650 3584 
Q 3113 3584 3367 3334 
Q 3622 3084 3622 2631 
Q 3622 2519 3608 2391 
Q 3594 2263 3566 2113 
z
" transform="scale(0.015625)"/>
      <path id="DejaVuSans-Oblique-3d" d="M 678 2906 
L 4684 2906 
L 4684 2381 
L 678 2381 
L 678 2906 
z
M 678 1631 
L 4684 1631 
L 4684 1100 
L 678 1100 
L 678 1631 
z
" transform="scale(0.015625)"/>
      <path id="DejaVuSans-Oblique-52" d="M 1613 4147 
L 1294 2491 
L 2106 2491 
Q 2584 2491 2879 2755 
Q 3175 3019 3175 3444 
Q 3175 3784 2976 3965 
Q 2778 4147 2406 4147 
L 1613 4147 
z
M 2772 2241 
Q 2972 2194 3105 2009 
Q 3238 1825 3413 1275 
L 3809 0 
L 3144 0 
L 2778 1197 
Q 2638 1659 2453 1815 
Q 2269 1972 1888 1972 
L 1191 1972 
L 806 0 
L 172 0 
L 1081 4666 
L 2503 4666 
Q 3150 4666 3495 4373 
Q 3841 4081 3841 3531 
Q 3841 3044 3547 2687 
Q 3253 2331 2772 2241 
z
" transform="scale(0.015625)"/>
      <path id="DejaVuSans-Oblique-42" d="M 1081 4666 
L 2694 4666 
Q 3350 4666 3675 4422 
Q 4000 4178 4000 3688 
Q 4000 3238 3720 2911 
Q 3441 2584 2988 2516 
Q 3375 2428 3569 2181 
Q 3763 1934 3763 1522 
Q 3763 819 3242 409 
Q 2722 0 1819 0 
L 172 0 
L 1081 4666 
z
M 1234 2228 
L 903 519 
L 1919 519 
Q 2491 519 2800 781 
Q 3109 1044 3109 1522 
Q 3109 1891 2904 2059 
Q 2700 2228 2247 2228 
L 1234 2228 
z
M 1606 4147 
L 1331 2741 
L 2272 2741 
Q 2775 2741 3058 2959 
Q 3341 3178 3341 3566 
Q 3341 3869 3150 4008 
Q 2959 4147 2541 4147 
L 1606 4147 
z
" transform="scale(0.015625)"/>
      <path id="DejaVuSans-Oblique-6f" d="M 1625 -91 
Q 1009 -91 651 289 
Q 294 669 294 1325 
Q 294 1706 417 2101 
Q 541 2497 738 2766 
Q 1047 3184 1428 3384 
Q 1809 3584 2291 3584 
Q 2888 3584 3255 3212 
Q 3622 2841 3622 2241 
Q 3622 1825 3500 1412 
Q 3378 1000 3181 728 
Q 2875 309 2494 109 
Q 2113 -91 1625 -91 
z
M 891 1344 
Q 891 869 1089 633 
Q 1288 397 1691 397 
Q 2269 397 2648 901 
Q 3028 1406 3028 2181 
Q 3028 2634 2825 2865 
Q 2622 3097 2228 3097 
Q 1903 3097 1650 2945 
Q 1397 2794 1197 2484 
Q 1050 2253 970 1956 
Q 891 1659 891 1344 
z
" transform="scale(0.015625)"/>
      <path id="DejaVuSans-Oblique-6c" d="M 1172 4863 
L 1747 4863 
L 800 0 
L 225 0 
L 1172 4863 
z
" transform="scale(0.015625)"/>
      <path id="DejaVuSans-Oblique-64" d="M 2675 525 
Q 2444 222 2128 65 
Q 1813 -91 1428 -91 
Q 903 -91 598 267 
Q 294 625 294 1247 
Q 294 1766 478 2236 
Q 663 2706 1013 3078 
Q 1244 3325 1534 3454 
Q 1825 3584 2144 3584 
Q 2481 3584 2739 3421 
Q 2997 3259 3138 2956 
L 3513 4863 
L 4091 4863 
L 3144 0 
L 2566 0 
L 2675 525 
z
M 891 1350 
Q 891 897 1095 644 
Q 1300 391 1663 391 
Q 1931 391 2161 520 
Q 2391 650 2566 903 
Q 2750 1166 2856 1509 
Q 2963 1853 2963 2188 
Q 2963 2622 2758 2865 
Q 2553 3109 2194 3109 
Q 1922 3109 1687 2981 
Q 1453 2853 1288 2613 
Q 1106 2353 998 2009 
Q 891 1666 891 1350 
z
" transform="scale(0.015625)"/>
      <path id="DejaVuSans-Oblique-73" d="M 3200 3397 
L 3091 2853 
Q 2863 2978 2609 3040 
Q 2356 3103 2088 3103 
Q 1634 3103 1373 2948 
Q 1113 2794 1113 2528 
Q 1113 2219 1719 2053 
Q 1766 2041 1788 2034 
L 1972 1978 
Q 2547 1819 2739 1644 
Q 2931 1469 2931 1166 
Q 2931 609 2489 259 
Q 2047 -91 1331 -91 
Q 1053 -91 747 -37 
Q 441 16 72 128 
L 184 722 
Q 500 559 806 475 
Q 1113 391 1394 391 
Q 1816 391 2080 572 
Q 2344 753 2344 1031 
Q 2344 1331 1650 1516 
L 1591 1531 
L 1394 1581 
Q 956 1697 753 1886 
Q 550 2075 550 2369 
Q 550 2928 970 3256 
Q 1391 3584 2113 3584 
Q 2397 3584 2667 3537 
Q 2938 3491 3200 3397 
z
" transform="scale(0.015625)"/>
      <path id="DejaVuSans-Oblique-45" d="M 1081 4666 
L 4031 4666 
L 3928 4134 
L 1606 4134 
L 1338 2753 
L 3566 2753 
L 3463 2222 
L 1234 2222 
L 909 531 
L 3284 531 
L 3181 0 
L 172 0 
L 1081 4666 
z
" transform="scale(0.015625)"/>
      <path id="DejaVuSans-Oblique-69" d="M 1172 4863 
L 1747 4863 
L 1606 4134 
L 1031 4134 
L 1172 4863 
z
M 909 3500 
L 1484 3500 
L 800 0 
L 225 0 
L 909 3500 
z
" transform="scale(0.015625)"/>
      <path id="DejaVuSans-Oblique-66" d="M 3059 4863 
L 2969 4384 
L 2419 4384 
Q 2106 4384 1964 4261 
Q 1822 4138 1753 3809 
L 1691 3500 
L 2638 3500 
L 2553 3053 
L 1606 3053 
L 1013 0 
L 434 0 
L 1031 3053 
L 481 3053 
L 563 3500 
L 1113 3500 
L 1159 3744 
Q 1278 4363 1576 4613 
Q 1875 4863 2516 4863 
L 3059 4863 
z
" transform="scale(0.015625)"/>
      <path id="DejaVuSans-Oblique-2e" d="M 525 794 
L 1184 794 
L 1031 0 
L 372 0 
L 525 794 
z
" transform="scale(0.015625)"/>
      <path id="DejaVuSans-Oblique-78" d="M 3841 3500 
L 2234 1784 
L 3219 0 
L 2559 0 
L 1819 1388 
L 531 0 
L -166 0 
L 1556 1844 
L 641 3500 
L 1300 3500 
L 1972 2234 
L 3144 3500 
L 3841 3500 
z
" transform="scale(0.015625)"/>
      <path id="DejaVuSans-Oblique-6e" d="M 3566 2113 
L 3156 0 
L 2578 0 
L 2988 2091 
Q 3016 2238 3031 2350 
Q 3047 2463 3047 2528 
Q 3047 2791 2881 2937 
Q 2716 3084 2419 3084 
Q 1956 3084 1622 2776 
Q 1288 2469 1184 1941 
L 800 0 
L 225 0 
L 903 3500 
L 1478 3500 
L 1363 2950 
Q 1603 3253 1940 3418 
Q 2278 3584 2650 3584 
Q 3113 3584 3367 3334 
Q 3622 3084 3622 2631 
Q 3622 2519 3608 2391 
Q 3594 2263 3566 2113 
z
" transform="scale(0.015625)"/>
     </defs>
     <use xlink:href="#DejaVuSans-Oblique-4b"/>
     <use xlink:href="#DejaVuSans-Oblique-65" transform="translate(61.951172 0)"/>
     <use xlink:href="#DejaVuSans-Oblique-79" transform="translate(123.474609 0)"/>
     <use xlink:href="#DejaVuSans-Oblique-3a" transform="translate(182.654297 0)"/>
     <use xlink:href="#DejaVuSans-Oblique-20" transform="translate(216.345703 0)"/>
     <use xlink:href="#DejaVuSans-Oblique-63" transform="translate(248.132812 0)"/>
     <use xlink:href="#DejaVuSans-Oblique-65" transform="translate(303.113281 0)"/>
     <use xlink:href="#DejaVuSans-Oblique-72" transform="translate(364.636719 0)"/>
     <use xlink:href="#DejaVuSans-Oblique-74" transform="translate(405.75 0)"/>
     <use xlink:href="#DejaVuSans-Oblique-20" transform="translate(444.958984 0)"/>
     <use xlink:href="#DejaVuSans-Oblique-70" transform="translate(476.746094 0)"/>
     <use xlink:href="#DejaVuSans-Oblique-61" transform="translate(540.222656 0)"/>
     <use xlink:href="#DejaVuSans-Oblique-74" transform="translate(601.501953 0)"/>
     <use xlink:href="#DejaVuSans-Oblique-68" transform="translate(640.710938 0)"/>
     <use xlink:href="#DejaVuSans-Oblique-20" transform="translate(704.089844 0)"/>
     <use xlink:href="#DejaVuSans-Oblique-3d" transform="translate(735.876953 0)"/>
     <use xlink:href="#DejaVuSans-Oblique-20" transform="translate(819.666016 0)"/>
     <use xlink:href="#DejaVuSans-Oblique-52" transform="translate(851.453125 0)"/>
     <use xlink:href="#DejaVuSans-Oblique-42" transform="translate(920.935547 0)"/>
     <use xlink:href="#DejaVuSans-Oblique-20" transform="translate(989.539062 0)"/>
     <use xlink:href="#DejaVuSans-Oblique-68" transform="translate(1021.326172 0)"/>
     <use xlink:href="#DejaVuSans-Oblique-6f" transform="translate(1084.705078 0)"/>
     <use xlink:href="#DejaVuSans-Oblique-6c" transform="translate(1145.886719 0)"/>
     <use xlink:href="#DejaVuSans-Oblique-64" transform="translate(1173.669922 0)"/>
     <use xlink:href="#DejaVuSans-Oblique-73" transform="translate(1237.146484 0)"/>
     <use xlink:href="#DejaVuSans-Oblique-20" transform="translate(1289.246094 0)"/>
     <use xlink:href="#DejaVuSans-Oblique-45" transform="translate(1321.033203 0)"/>
     <use xlink:href="#DejaVuSans-Oblique-42" transform="translate(1384.216797 0)"/>
     <use xlink:href="#DejaVuSans-Oblique-20" transform="translate(1452.820312 0)"/>
     <use xlink:href="#DejaVuSans-Oblique-63" transform="translate(1484.607422 0)"/>
     <use xlink:href="#DejaVuSans-Oblique-65" transform="translate(1539.587891 0)"/>
     <use xlink:href="#DejaVuSans-Oblique-72" transform="translate(1601.111328 0)"/>
     <use xlink:href="#DejaVuSans-Oblique-74" transform="translate(1642.224609 0)"/>
     <use xlink:href="#DejaVuSans-Oblique-69" transform="translate(1681.433594 0)"/>
     <use xlink:href="#DejaVuSans-Oblique-66" transform="translate(1709.216797 0)"/>
     <use xlink:href="#DejaVuSans-Oblique-69" transform="translate(1744.421875 0)"/>
     <use xlink:href="#DejaVuSans-Oblique-63" transform="translate(1772.205078 0)"/>
     <use xlink:href="#DejaVuSans-Oblique-61" transform="translate(1827.185547 0)"/>
     <use xlink:href="#DejaVuSans-Oblique-74" transform="translate(1888.464844 0)"/>
     <use xlink:href="#DejaVuSans-Oblique-65" transform="translate(1927.673828 0)"/>
     <use xlink:href="#DejaVuSans-Oblique-2e" transform="translate(1989.197266 0)"/>
     <use xlink:href="#DejaVuSans-Oblique-20" transform="translate(2020.984375 0)"/>
     <use xlink:href="#DejaVuSans-Oblique-20" transform="translate(2052.771484 0)"/>
     <use xlink:href="#DejaVuSans-Oblique-74" transform="translate(2084.558594 0)"/>
     <use xlink:href="#DejaVuSans-Oblique-78" transform="translate(2123.767578 0)"/>
     <use xlink:href="#DejaVuSans-Oblique-20" transform="translate(2182.947266 0)"/>
     <use xlink:href="#DejaVuSans-Oblique-70" transform="translate(2214.734375 0)"/>
     <use xlink:href="#DejaVuSans-Oblique-61" transform="translate(2278.210938 0)"/>
     <use xlink:href="#DejaVuSans-Oblique-74" transform="translate(2339.490234 0)"/>
     <use xlink:href="#DejaVuSans-Oblique-68" transform="translate(2378.699219 0)"/>
     <use xlink:href="#DejaVuSans-Oblique-20" transform="translate(2442.078125 0)"/>
     <use xlink:href="#DejaVuSans-Oblique-3d" transform="translate(2473.865234 0)"/>
     <use xlink:href="#DejaVuSans-Oblique-20" transform="translate(2557.654297 0)"/>
     <use xlink:href="#DejaVuSans-Oblique-52" transform="translate(2589.441406 0)"/>
     <use xlink:href="#DejaVuSans-Oblique-42" transform="translate(2658.923828 0)"/>
     <use xlink:href="#DejaVuSans-Oblique-20" transform="translate(2727.527344 0)"/>
     <use xlink:href="#DejaVuSans-Oblique-68" transform="translate(2759.314453 0)"/>
     <use xlink:href="#DejaVuSans-Oblique-6f" transform="translate(2822.693359 0)"/>
     <use xlink:href="#DejaVuSans-Oblique-6c" transform="translate(2883.875 0)"/>
     <use xlink:href="#DejaVuSans-Oblique-64" transform="translate(2911.658203 0)"/>
     <use xlink:href="#DejaVuSans-Oblique-73" transform="translate(2975.134766 0)"/>
     <use xlink:href="#DejaVuSans-Oblique-20" transform="translate(3027.234375 0)"/>
     <use xlink:href="#DejaVuSans-Oblique-74" transform="translate(3059.021484 0)"/>
     <use xlink:href="#DejaVuSans-Oblique-72" transform="translate(3098.230469 0)"/>
     <use xlink:href="#DejaVuSans-Oblique-61" transform="translate(3139.34375 0)"/>
     <use xlink:href="#DejaVuSans-Oblique-6e" transform="translate(3200.623047 0)"/>
     <use xlink:href="#DejaVuSans-Oblique-73" transform="translate(3264.001953 0)"/>
     <use xlink:href="#DejaVuSans-Oblique-61" transform="translate(3316.101562 0)"/>
     <use xlink:href="#DejaVuSans-Oblique-63" transform="translate(3377.380859 0)"/>
     <use xlink:href="#DejaVuSans-Oblique-74" transform="translate(3432.361328 0)"/>
     <use xlink:href="#DejaVuSans-Oblique-69" transform="translate(3471.570312 0)"/>
     <use xlink:href="#DejaVuSans-Oblique-6f" transform="translate(3499.353516 0)"/>
     <use xlink:href="#DejaVuSans-Oblique-6e" transform="translate(3560.535156 0)"/>
     <use xlink:href="#DejaVuSans-Oblique-73" transform="translate(3623.914062 0)"/>
     <use xlink:href="#DejaVuSans-Oblique-2e" transform="translate(3676.013672 0)"/>
    </g>
   </g>
   <g id="text_14">
    <!-- In the existing model these paths were incorrectly forced in parallel. -->
    <g style="fill: #ff0000" transform="translate(17.82 78.028343) scale(0.07 -0.07)">
     <defs>
      <path id="DejaVuSans-49" d="M 628 4666 
L 1259 4666 
L 1259 0 
L 628 0 
L 628 4666 
z
" transform="scale(0.015625)"/>
      <path id="DejaVuSans-77" d="M 269 3500 
L 844 3500 
L 1563 769 
L 2278 3500 
L 2956 3500 
L 3675 769 
L 4391 3500 
L 4966 3500 
L 4050 0 
L 3372 0 
L 2619 2869 
L 1863 0 
L 1184 0 
L 269 3500 
z
" transform="scale(0.015625)"/>
      <path id="DejaVuSans-2e" d="M 684 794 
L 1344 794 
L 1344 0 
L 684 0 
L 684 794 
z
" transform="scale(0.015625)"/>
     </defs>
     <use xlink:href="#DejaVuSans-49"/>
     <use xlink:href="#DejaVuSans-6e" transform="translate(29.492188 0)"/>
     <use xlink:href="#DejaVuSans-20" transform="translate(92.871094 0)"/>
     <use xlink:href="#DejaVuSans-74" transform="translate(124.658203 0)"/>
     <use xlink:href="#DejaVuSans-68" transform="translate(163.867188 0)"/>
     <use xlink:href="#DejaVuSans-65" transform="translate(227.246094 0)"/>
     <use xlink:href="#DejaVuSans-20" transform="translate(288.769531 0)"/>
     <use xlink:href="#DejaVuSans-65" transform="translate(320.556641 0)"/>
     <use xlink:href="#DejaVuSans-78" transform="translate(380.330078 0)"/>
     <use xlink:href="#DejaVuSans-69" transform="translate(439.509766 0)"/>
     <use xlink:href="#DejaVuSans-73" transform="translate(467.292969 0)"/>
     <use xlink:href="#DejaVuSans-74" transform="translate(519.392578 0)"/>
     <use xlink:href="#DejaVuSans-69" transform="translate(558.601562 0)"/>
     <use xlink:href="#DejaVuSans-6e" transform="translate(586.384766 0)"/>
     <use xlink:href="#DejaVuSans-67" transform="translate(649.763672 0)"/>
     <use xlink:href="#DejaVuSans-20" transform="translate(713.240234 0)"/>
     <use xlink:href="#DejaVuSans-6d" transform="translate(745.027344 0)"/>
     <use xlink:href="#DejaVuSans-6f" transform="translate(842.439453 0)"/>
     <use xlink:href="#DejaVuSans-64" transform="translate(903.621094 0)"/>
     <use xlink:href="#DejaVuSans-65" transform="translate(967.097656 0)"/>
     <use xlink:href="#DejaVuSans-6c" transform="translate(1028.621094 0)"/>
     <use xlink:href="#DejaVuSans-20" transform="translate(1056.404297 0)"/>
     <use xlink:href="#DejaVuSans-74" transform="translate(1088.191406 0)"/>
     <use xlink:href="#DejaVuSans-68" transform="translate(1127.400391 0)"/>
     <use xlink:href="#DejaVuSans-65" transform="translate(1190.779297 0)"/>
     <use xlink:href="#DejaVuSans-73" transform="translate(1252.302734 0)"/>
     <use xlink:href="#DejaVuSans-65" transform="translate(1304.402344 0)"/>
     <use xlink:href="#DejaVuSans-20" transform="translate(1365.925781 0)"/>
     <use xlink:href="#DejaVuSans-70" transform="translate(1397.712891 0)"/>
     <use xlink:href="#DejaVuSans-61" transform="translate(1461.189453 0)"/>
     <use xlink:href="#DejaVuSans-74" transform="translate(1522.46875 0)"/>
     <use xlink:href="#DejaVuSans-68" transform="translate(1561.677734 0)"/>
     <use xlink:href="#DejaVuSans-73" transform="translate(1625.056641 0)"/>
     <use xlink:href="#DejaVuSans-20" transform="translate(1677.15625 0)"/>
     <use xlink:href="#DejaVuSans-77" transform="translate(1708.943359 0)"/>
     <use xlink:href="#DejaVuSans-65" transform="translate(1790.730469 0)"/>
     <use xlink:href="#DejaVuSans-72" transform="translate(1852.253906 0)"/>
     <use xlink:href="#DejaVuSans-65" transform="translate(1891.117188 0)"/>
     <use xlink:href="#DejaVuSans-20" transform="translate(1952.640625 0)"/>
     <use xlink:href="#DejaVuSans-69" transform="translate(1984.427734 0)"/>
     <use xlink:href="#DejaVuSans-6e" transform="translate(2012.210938 0)"/>
     <use xlink:href="#DejaVuSans-63" transform="translate(2075.589844 0)"/>
     <use xlink:href="#DejaVuSans-6f" transform="translate(2130.570312 0)"/>
     <use xlink:href="#DejaVuSans-72" transform="translate(2191.751953 0)"/>
     <use xlink:href="#DejaVuSans-72" transform="translate(2231.115234 0)"/>
     <use xlink:href="#DejaVuSans-65" transform="translate(2269.978516 0)"/>
     <use xlink:href="#DejaVuSans-63" transform="translate(2331.501953 0)"/>
     <use xlink:href="#DejaVuSans-74" transform="translate(2386.482422 0)"/>
     <use xlink:href="#DejaVuSans-6c" transform="translate(2425.691406 0)"/>
     <use xlink:href="#DejaVuSans-79" transform="translate(2453.474609 0)"/>
     <use xlink:href="#DejaVuSans-20" transform="translate(2512.654297 0)"/>
     <use xlink:href="#DejaVuSans-66" transform="translate(2544.441406 0)"/>
     <use xlink:href="#DejaVuSans-6f" transform="translate(2579.646484 0)"/>
     <use xlink:href="#DejaVuSans-72" transform="translate(2640.828125 0)"/>
     <use xlink:href="#DejaVuSans-63" transform="translate(2679.691406 0)"/>
     <use xlink:href="#DejaVuSans-65" transform="translate(2734.671875 0)"/>
     <use xlink:href="#DejaVuSans-64" transform="translate(2796.195312 0)"/>
     <use xlink:href="#DejaVuSans-20" transform="translate(2859.671875 0)"/>
     <use xlink:href="#DejaVuSans-69" transform="translate(2891.458984 0)"/>
     <use xlink:href="#DejaVuSans-6e" transform="translate(2919.242188 0)"/>
     <use xlink:href="#DejaVuSans-20" transform="translate(2982.621094 0)"/>
     <use xlink:href="#DejaVuSans-70" transform="translate(3014.408203 0)"/>
     <use xlink:href="#DejaVuSans-61" transform="translate(3077.884766 0)"/>
     <use xlink:href="#DejaVuSans-72" transform="translate(3139.164062 0)"/>
     <use xlink:href="#DejaVuSans-61" transform="translate(3180.277344 0)"/>
     <use xlink:href="#DejaVuSans-6c" transform="translate(3241.556641 0)"/>
     <use xlink:href="#DejaVuSans-6c" transform="translate(3269.339844 0)"/>
     <use xlink:href="#DejaVuSans-65" transform="translate(3297.123047 0)"/>
     <use xlink:href="#DejaVuSans-6c" transform="translate(3358.646484 0)"/>
     <use xlink:href="#DejaVuSans-2e" transform="translate(3386.429688 0)"/>
    </g>
   </g>
   <g id="text_15">
    <!-- Improved Linear Leios – RB Validation Outcome Diagram -->
    <g transform="translate(262.0725 22.418625) scale(0.12 -0.12)">
     <defs>
      <path id="DejaVuSans-4c" d="M 628 4666 
L 1259 4666 
L 1259 531 
L 3531 531 
L 3531 0 
L 628 0 
L 628 4666 
z
" transform="scale(0.015625)"/>
      <path id="DejaVuSans-2013" d="M 313 1978 
L 2888 1978 
L 2888 1528 
L 313 1528 
L 313 1978 
z
" transform="scale(0.015625)"/>
      <path id="DejaVuSans-56" d="M 1831 0 
L 50 4666 
L 709 4666 
L 2188 738 
L 3669 4666 
L 4325 4666 
L 2547 0 
L 1831 0 
z
" transform="scale(0.015625)"/>
      <path id="DejaVuSans-4f" d="M 2522 4238 
Q 1834 4238 1429 3725 
Q 1025 3213 1025 2328 
Q 1025 1447 1429 934 
Q 1834 422 2522 422 
Q 3209 422 3611 934 
Q 4013 1447 4013 2328 
Q 4013 3213 3611 3725 
Q 3209 4238 2522 4238 
z
M 2522 4750 
Q 3503 4750 4090 4092 
Q 4678 3434 4678 2328 
Q 4678 1225 4090 567 
Q 3503 -91 2522 -91 
Q 1538 -91 948 565 
Q 359 1222 359 2328 
Q 359 3434 948 4092 
Q 1538 4750 2522 4750 
z
" transform="scale(0.015625)"/>
      <path id="DejaVuSans-44" d="M 1259 4147 
L 1259 519 
L 2022 519 
Q 2988 519 3436 956 
Q 3884 1394 3884 2338 
Q 3884 3275 3436 3711 
Q 2988 4147 2022 4147 
L 1259 4147 
z
M 628 4666 
L 1925 4666 
Q 3281 4666 3915 4102 
Q 4550 3538 4550 2338 
Q 4550 1131 3912 565 
Q 3275 0 1925 0 
L 628 0 
L 628 4666 
z
" transform="scale(0.015625)"/>
     </defs>
     <use xlink:href="#DejaVuSans-49"/>
     <use xlink:href="#DejaVuSans-6d" transform="translate(29.492188 0)"/>
     <use xlink:href="#DejaVuSans-70" transform="translate(126.904297 0)"/>
     <use xlink:href="#DejaVuSans-72" transform="translate(190.380859 0)"/>
     <use xlink:href="#DejaVuSans-6f" transform="translate(229.244141 0)"/>
     <use xlink:href="#DejaVuSans-76" transform="translate(290.425781 0)"/>
     <use xlink:href="#DejaVuSans-65" transform="translate(349.605469 0)"/>
     <use xlink:href="#DejaVuSans-64" transform="translate(411.128906 0)"/>
     <use xlink:href="#DejaVuSans-20" transform="translate(474.605469 0)"/>
     <use xlink:href="#DejaVuSans-4c" transform="translate(506.392578 0)"/>
     <use xlink:href="#DejaVuSans-69" transform="translate(562.105469 0)"/>
     <use xlink:href="#DejaVuSans-6e" transform="translate(589.888672 0)"/>
     <use xlink:href="#DejaVuSans-65" transform="translate(653.267578 0)"/>
     <use xlink:href="#DejaVuSans-61" transform="translate(714.791016 0)"/>
     <use xlink:href="#DejaVuSans-72" transform="translate(776.070312 0)"/>
     <use xlink:href="#DejaVuSans-20" transform="translate(817.183594 0)"/>
     <use xlink:href="#DejaVuSans-4c" transform="translate(848.970703 0)"/>
     <use xlink:href="#DejaVuSans-65" transform="translate(902.933594 0)"/>
     <use xlink:href="#DejaVuSans-69" transform="translate(964.457031 0)"/>
     <use xlink:href="#DejaVuSans-6f" transform="translate(992.240234 0)"/>
     <use xlink:href="#DejaVuSans-73" transform="translate(1053.421875 0)"/>
     <use xlink:href="#DejaVuSans-20" transform="translate(1105.521484 0)"/>
     <use xlink:href="#DejaVuSans-2013" transform="translate(1137.308594 0)"/>
     <use xlink:href="#DejaVuSans-20" transform="translate(1187.308594 0)"/>
     <use xlink:href="#DejaVuSans-52" transform="translate(1219.095703 0)"/>
     <use xlink:href="#DejaVuSans-42" transform="translate(1288.578125 0)"/>
     <use xlink:href="#DejaVuSans-20" transform="translate(1357.181641 0)"/>
     <use xlink:href="#DejaVuSans-56" transform="translate(1388.96875 0)"/>
     <use xlink:href="#DejaVuSans-61" transform="translate(1449.626953 0)"/>
     <use xlink:href="#DejaVuSans-6c" transform="translate(1510.90625 0)"/>
     <use xlink:href="#DejaVuSans-69" transform="translate(1538.689453 0)"/>
     <use xlink:href="#DejaVuSans-64" transform="translate(1566.472656 0)"/>
     <use xlink:href="#DejaVuSans-61" transform="translate(1629.949219 0)"/>
     <use xlink:href="#DejaVuSans-74" transform="translate(1691.228516 0)"/>
     <use xlink:href="#DejaVuSans-69" transform="translate(1730.4375 0)"/>
     <use xlink:href="#DejaVuSans-6f" transform="translate(1758.220703 0)"/>
     <use xlink:href="#DejaVuSans-6e" transform="translate(1819.402344 0)"/>
     <use xlink:href="#DejaVuSans-20" transform="translate(1882.78125 0)"/>
     <use xlink:href="#DejaVuSans-4f" transform="translate(1914.568359 0)"/>
     <use xlink:href="#DejaVuSans-75" transform="translate(1993.279297 0)"/>
     <use xlink:href="#DejaVuSans-74" transform="translate(2056.658203 0)"/>
     <use xlink:href="#DejaVuSans-63" transform="translate(2095.867188 0)"/>
     <use xlink:href="#DejaVuSans-6f" transform="translate(2150.847656 0)"/>
     <use xlink:href="#DejaVuSans-6d" transform="translate(2212.029297 0)"/>
     <use xlink:href="#DejaVuSans-65" transform="translate(2309.441406 0)"/>
     <use xlink:href="#DejaVuSans-20" transform="translate(2370.964844 0)"/>
     <use xlink:href="#DejaVuSans-44" transform="translate(2402.751953 0)"/>
     <use xlink:href="#DejaVuSans-69" transform="translate(2479.753906 0)"/>
     <use xlink:href="#DejaVuSans-61" transform="translate(2507.537109 0)"/>
     <use xlink:href="#DejaVuSans-67" transform="translate(2568.816406 0)"/>
     <use xlink:href="#DejaVuSans-72" transform="translate(2632.292969 0)"/>
     <use xlink:href="#DejaVuSans-61" transform="translate(2673.40625 0)"/>
     <use xlink:href="#DejaVuSans-6d" transform="translate(2734.685547 0)"/>
    </g>
    <!-- (fixing the 'cert XOR txs' RB structure) -->
    <g transform="translate(317.155313 35.856) scale(0.12 -0.12)">
     <defs>
      <path id="DejaVuSans-27" d="M 1147 4666 
L 1147 2931 
L 616 2931 
L 616 4666 
L 1147 4666 
z
" transform="scale(0.015625)"/>
      <path id="DejaVuSans-58" d="M 403 4666 
L 1081 4666 
L 2241 2931 
L 3406 4666 
L 4084 4666 
L 2584 2425 
L 4184 0 
L 3506 0 
L 2194 1984 
L 872 0 
L 191 0 
L 1856 2491 
L 403 4666 
z
" transform="scale(0.015625)"/>
     </defs>
     <use xlink:href="#DejaVuSans-28"/>
     <use xlink:href="#DejaVuSans-66" transform="translate(39.013672 0)"/>
     <use xlink:href="#DejaVuSans-69" transform="translate(74.21875 0)"/>
     <use xlink:href="#DejaVuSans-78" transform="translate(102.001953 0)"/>
     <use xlink:href="#DejaVuSans-69" transform="translate(161.181641 0)"/>
     <use xlink:href="#DejaVuSans-6e" transform="translate(188.964844 0)"/>
     <use xlink:href="#DejaVuSans-67" transform="translate(252.34375 0)"/>
     <use xlink:href="#DejaVuSans-20" transform="translate(315.820312 0)"/>
     <use xlink:href="#DejaVuSans-74" transform="translate(347.607422 0)"/>
     <use xlink:href="#DejaVuSans-68" transform="translate(386.816406 0)"/>
     <use xlink:href="#DejaVuSans-65" transform="translate(450.195312 0)"/>
     <use xlink:href="#DejaVuSans-20" transform="translate(511.71875 0)"/>
     <use xlink:href="#DejaVuSans-27" transform="translate(543.505859 0)"/>
     <use xlink:href="#DejaVuSans-63" transform="translate(570.996094 0)"/>
     <use xlink:href="#DejaVuSans-65" transform="translate(625.976562 0)"/>
     <use xlink:href="#DejaVuSans-72" transform="translate(687.5 0)"/>
     <use xlink:href="#DejaVuSans-74" transform="translate(728.613281 0)"/>
     <use xlink:href="#DejaVuSans-20" transform="translate(767.822266 0)"/>
     <use xlink:href="#DejaVuSans-58" transform="translate(799.609375 0)"/>
     <use xlink:href="#DejaVuSans-4f" transform="translate(861.740234 0)"/>
     <use xlink:href="#DejaVuSans-52" transform="translate(940.451172 0)"/>
     <use xlink:href="#DejaVuSans-20" transform="translate(1009.933594 0)"/>
     <use xlink:href="#DejaVuSans-74" transform="translate(1041.720703 0)"/>
     <use xlink:href="#DejaVuSans-78" transform="translate(1080.929688 0)"/>
     <use xlink:href="#DejaVuSans-73" transform="translate(1140.109375 0)"/>
     <use xlink:href="#DejaVuSans-27" transform="translate(1192.208984 0)"/>
     <use xlink:href="#DejaVuSans-20" transform="translate(1219.699219 0)"/>
     <use xlink:href="#DejaVuSans-52" transform="translate(1251.486328 0)"/>
     <use xlink:href="#DejaVuSans-42" transform="translate(1320.96875 0)"/>
     <use xlink:href="#DejaVuSans-20" transform="translate(1389.572266 0)"/>
     <use xlink:href="#DejaVuSans-73" transform="translate(1421.359375 0)"/>
     <use xlink:href="#DejaVuSans-74" transform="translate(1473.458984 0)"/>
     <use xlink:href="#DejaVuSans-72" transform="translate(1512.667969 0)"/>
     <use xlink:href="#DejaVuSans-75" transform="translate(1553.78125 0)"/>
     <use xlink:href="#DejaVuSans-63" transform="translate(1617.160156 0)"/>
     <use xlink:href="#DejaVuSans-74" transform="translate(1672.140625 0)"/>
     <use xlink:href="#DejaVuSans-75" transform="translate(1711.349609 0)"/>
     <use xlink:href="#DejaVuSans-72" transform="translate(1774.728516 0)"/>
     <use xlink:href="#DejaVuSans-65" transform="translate(1813.591797 0)"/>
     <use xlink:href="#DejaVuSans-29" transform="translate(1875.115234 0)"/>
    </g>
   </g>
  </g>
 </g>
</svg>
