<svg xmlns="http://www.w3.org/2000/svg" viewBox="0 0 960 600" font-family="Helvetica, Arial, sans-serif" font-size="12">
<rect width="100%" height="100%" fill="white"/>
<text x="480.0" y="22" text-anchor="middle" font-size="16" font-weight="bold">Chunking benefit: n = 16 parallel chunks (pointwise 95% bootstrap CI)</text>
<text x="480.0" y="40" text-anchor="middle" fill="#555">size=12500 kB, link=1000 Mbps, RTT=50 ms, p=1.00e-06</text>
<text x="480.0" y="56" text-anchor="middle" fill="#555">scenario=optimistic, runs=500000, bootstrap B=500; curve is F_chunk(t)^n</text>
<rect x="80" y="70" width="820" height="470" fill="#fafafa" stroke="#888"/>
<line x1="80.00" y1="70" x2="80.00" y2="540" stroke="#e0e0e0"/>
<text x="80.00" y="556" text-anchor="middle" fill="#333">0.000</text>
<line x1="182.50" y1="70" x2="182.50" y2="540" stroke="#e0e0e0"/>
<text x="182.50" y="556" text-anchor="middle" fill="#333">1.25</text>
<line x1="285.00" y1="70" x2="285.00" y2="540" stroke="#e0e0e0"/>
<text x="285.00" y="556" text-anchor="middle" fill="#333">2.50</text>
<line x1="387.50" y1="70" x2="387.50" y2="540" stroke="#e0e0e0"/>
<text x="387.50" y="556" text-anchor="middle" fill="#333">3.75</text>
<line x1="490.00" y1="70" x2="490.00" y2="540" stroke="#e0e0e0"/>
<text x="490.00" y="556" text-anchor="middle" fill="#333">5.00</text>
<line x1="592.50" y1="70" x2="592.50" y2="540" stroke="#e0e0e0"/>
<text x="592.50" y="556" text-anchor="middle" fill="#333">6.25</text>
<line x1="695.00" y1="70" x2="695.00" y2="540" stroke="#e0e0e0"/>
<text x="695.00" y="556" text-anchor="middle" fill="#333">7.50</text>
<line x1="797.50" y1="70" x2="797.50" y2="540" stroke="#e0e0e0"/>
<text x="797.50" y="556" text-anchor="middle" fill="#333">8.75</text>
<line x1="900.00" y1="70" x2="900.00" y2="540" stroke="#e0e0e0"/>
<text x="900.00" y="556" text-anchor="middle" fill="#333">10.0</text>
<line x1="80" y1="540.00" x2="900" y2="540.00" stroke="#e0e0e0"/>
<text x="72" y="544.00" text-anchor="end" fill="#333">0.990</text>
<line x1="80" y1="493.00" x2="900" y2="493.00" stroke="#e0e0e0"/>
<text x="72" y="497.00" text-anchor="end" fill="#333">0.991</text>
<line x1="80" y1="446.00" x2="900" y2="446.00" stroke="#e0e0e0"/>
<text x="72" y="450.00" text-anchor="end" fill="#333">0.992</text>
<line x1="80" y1="399.00" x2="900" y2="399.00" stroke="#e0e0e0"/>
<text x="72" y="403.00" text-anchor="end" fill="#333">0.993</text>
<line x1="80" y1="352.00" x2="900" y2="352.00" stroke="#e0e0e0"/>
<text x="72" y="356.00" text-anchor="end" fill="#333">0.994</text>
<line x1="80" y1="305.00" x2="900" y2="305.00" stroke="#e0e0e0"/>
<text x="72" y="309.00" text-anchor="end" fill="#333">0.995</text>
<line x1="80" y1="258.00" x2="900" y2="258.00" stroke="#e0e0e0"/>
<text x="72" y="262.00" text-anchor="end" fill="#333">0.996</text>
<line x1="80" y1="211.00" x2="900" y2="211.00" stroke="#e0e0e0"/>
<text x="72" y="215.00" text-anchor="end" fill="#333">0.997</text>
<line x1="80" y1="164.00" x2="900" y2="164.00" stroke="#e0e0e0"/>
<text x="72" y="168.00" text-anchor="end" fill="#333">0.998</text>
<line x1="80" y1="117.00" x2="900" y2="117.00" stroke="#e0e0e0"/>
<text x="72" y="121.00" text-anchor="end" fill="#333">0.999</text>
<line x1="80" y1="70.00" x2="900" y2="70.00" stroke="#e0e0e0"/>
<text x="72" y="74.00" text-anchor="end" fill="#333">1.000</text>
<line x1="80" y1="540.00" x2="900" y2="540.00" stroke="#888" stroke-width="1" stroke-dasharray="4,4"/>
<text x="894.00" y="536.00" text-anchor="end" fill="#555" font-style="italic">P99</text>
<text x="490.0" y="585" text-anchor="middle">Download time (seconds)</text>
<text transform="translate(20,305.0) rotate(-90)" text-anchor="middle">Cumulative probability  (whole-file)</text>
<polygon points="110.67,540.00 110.67,484.88 110.67,487.86 110.68,487.86 110.68,481.90 110.68,483.39 110.69,481.90 110.70,474.44 110.70,475.93 110.71,477.42 110.71,472.95 110.72,474.44 110.73,471.46 110.73,468.47 110.74,472.95 110.74,472.95 110.74,466.98 110.74,461.01 110.74,465.49 110.74,464.00 110.75,464.00 110.75,459.52 110.76,455.04 110.77,458.03 110.77,455.04 110.77,453.55 110.77,455.04 110.77,452.06 110.77,447.58 110.78,447.58 110.78,452.06 110.79,443.10 110.81,438.62 110.82,441.61 110.82,443.10 110.83,443.10 110.83,441.61 110.83,435.64 110.85,440.11 110.85,432.65 110.85,429.66 110.85,432.65 110.85,429.66 110.86,428.17 110.86,425.18 110.86,426.68 110.87,422.20 110.87,419.21 110.87,419.21 110.88,422.20 110.88,417.72 110.89,417.72 110.90,414.73 110.91,410.25 110.91,411.74 110.91,410.25 110.91,411.74 110.92,407.26 110.93,405.77 110.93,402.78 110.94,404.27 110.95,407.26 110.95,405.77 110.96,395.31 110.96,399.79 110.97,396.80 110.98,396.80 110.98,398.30 110.99,392.32 110.99,387.84 110.99,393.81 111.00,386.34 111.01,390.82 111.02,389.33 111.03,386.34 111.04,387.84 111.05,381.86 111.05,384.85 111.07,380.36 111.07,375.88 111.08,380.36 111.08,374.38 111.10,375.88 111.10,375.88 111.11,374.38 111.11,371.39 111.12,369.90 111.12,363.92 111.12,365.41 111.13,357.94 111.13,363.92 111.13,354.95 111.13,357.94 111.15,357.94 111.16,357.94 111.16,353.45 111.16,353.45 111.17,348.96 111.17,353.45 111.19,347.47 111.20,348.96 111.21,347.47 111.22,344.48 111.23,345.97 111.24,341.49 111.24,339.99 111.24,338.49 111.25,339.99 111.26,338.49 111.26,338.49 111.29,335.50 111.30,332.51 111.32,334.01 111.33,331.01 111.34,331.01 111.35,326.53 111.37,326.53 111.38,323.53 111.39,323.53 111.39,319.04 111.41,319.04 111.42,322.04 111.44,319.04 111.48,314.55 111.51,317.55 111.52,314.55 111.53,314.55 111.53,310.06 111.54,313.06 111.54,304.08 111.57,307.07 111.59,305.57 111.59,301.08 111.60,301.08 111.61,299.58 111.61,298.09 111.64,301.08 111.65,298.09 111.67,296.59 111.67,293.60 111.68,293.60 111.71,292.10 111.71,295.09 111.72,289.10 111.74,289.10 111.75,281.62 111.77,286.11 111.85,278.62 111.88,281.62 111.90,278.62 111.96,278.62 111.97,278.62 111.98,278.62 112.01,275.63 112.02,275.63 112.06,274.13 112.09,272.63 112.10,271.13 112.17,271.13 112.23,263.64 112.31,265.14 112.35,263.64 112.36,263.64 112.41,263.64 112.43,259.15 112.44,256.15 112.52,260.64 112.54,253.15 112.61,256.15 112.61,251.65 112.75,250.16 112.77,247.16 112.85,250.16 112.88,250.16 112.88,247.16 112.89,244.16 112.93,242.66 112.99,242.66 113.02,241.16 113.05,235.17 113.19,239.66 113.27,236.67 113.32,236.67 113.33,232.17 113.35,232.17 113.47,230.67 113.53,229.17 113.59,229.17 113.63,224.67 113.69,224.67 113.73,224.67 113.82,224.67 113.86,220.17 113.91,218.68 113.91,215.68 113.94,214.18 114.00,217.18 114.29,215.68 114.49,212.68 114.68,212.68 114.68,209.68 114.69,209.68 114.74,208.18 114.76,209.68 114.78,205.18 114.95,208.18 115.19,202.18 115.23,197.68 115.24,199.18 115.29,200.68 115.73,196.18 115.76,194.68 115.81,193.18 115.90,194.68 116.01,188.68 116.05,191.68 117.21,187.17 117.75,187.17 121.71,187.17 122.28,184.17 122.49,187.17 123.71,182.67 123.76,179.67 123.77,178.17 124.01,176.67 124.02,173.67 124.22,178.17 124.41,175.17 124.56,173.67 124.69,172.17 124.73,169.17 125.01,169.17 125.12,167.66 125.16,169.17 125.49,167.66 125.68,163.16 125.70,164.66 125.73,161.66 125.74,158.66 125.77,158.66 125.82,158.66 126.01,155.65 126.02,152.65 126.11,152.65 126.14,149.65 126.37,149.65 126.40,151.15 126.55,145.14 126.65,146.65 126.68,142.14 126.74,143.64 126.83,143.64 127.16,142.14 127.78,139.14 128.19,136.13 128.41,137.63 128.77,136.13 129.73,136.13 129.89,134.63 151.82,131.63 152.53,130.12 152.85,130.12 153.51,128.62 153.69,125.62 154.17,125.62 154.19,124.11 154.34,121.11 154.58,122.61 154.76,122.61 154.86,116.60 154.94,116.60 155.24,116.60 155.30,115.10 155.90,113.60 155.98,109.09 156.16,110.59 156.21,109.09 156.29,107.59 157.22,107.59 157.62,106.08 157.64,104.58 157.99,104.58 158.01,103.08 158.16,100.07 158.42,100.07 158.50,98.57 158.82,98.57 158.97,95.56 159.27,95.56 159.34,94.06 160.09,92.55 160.11,92.55 160.36,89.55 160.55,89.55 160.87,86.54 209.80,88.04 210.18,85.04 210.96,85.04 211.03,83.53 212.30,82.03 212.83,79.02 213.43,80.53 213.47,79.02 213.71,77.52 215.37,76.02 215.40,76.02 216.05,74.51 218.29,73.01 324.01,71.50 324.65,71.50 327.20,70.00 327.48,70.00 329.64,70.00 332.76,70.00 333.05,70.00 900.00,70.00 900.00,70.00 333.05,70.00 332.76,74.51 329.64,77.52 327.48,80.53 327.20,83.53 324.65,83.53 324.01,86.54 218.29,88.04 216.05,91.05 215.40,92.55 215.37,95.56 213.71,97.06 213.47,98.57 213.43,100.07 212.83,103.08 212.30,106.08 211.03,106.08 210.96,107.59 210.18,109.09 209.80,110.59 160.87,113.60 160.55,115.10 160.36,116.60 160.11,119.61 160.09,121.11 159.34,122.61 159.27,124.11 158.97,127.12 158.82,128.62 158.50,133.13 158.42,130.12 158.16,133.13 158.01,134.63 157.99,139.14 157.64,137.63 157.62,140.64 157.22,142.14 156.29,145.14 156.21,148.15 156.16,148.15 155.98,151.15 155.90,149.65 155.30,152.65 155.24,154.15 154.94,155.65 154.86,158.66 154.76,161.66 154.58,160.16 154.34,161.66 154.19,166.16 154.17,166.16 153.69,169.17 153.51,169.17 152.85,170.67 152.53,173.67 151.82,173.67 129.89,176.67 129.73,181.17 128.77,178.17 128.41,182.67 128.19,185.67 127.78,184.17 127.16,187.17 126.83,188.68 126.74,193.18 126.68,194.68 126.65,193.18 126.55,194.68 126.40,197.68 126.37,197.68 126.14,199.18 126.11,203.68 126.02,205.18 126.01,205.18 125.82,208.18 125.77,208.18 125.74,211.18 125.73,211.18 125.70,212.68 125.68,215.68 125.49,217.18 125.16,217.18 125.12,220.17 125.01,220.17 124.73,224.67 124.69,224.67 124.56,227.67 124.41,229.17 124.22,229.17 124.02,232.17 124.01,232.17 123.77,233.67 123.76,238.17 123.71,238.17 122.49,239.66 122.28,241.16 121.71,244.16 117.75,244.16 117.21,247.16 116.05,251.65 116.01,248.66 115.90,256.15 115.81,251.65 115.76,254.65 115.73,259.15 115.29,259.15 115.24,263.64 115.23,262.14 115.19,265.14 114.95,266.64 114.78,265.14 114.76,271.13 114.74,269.63 114.69,269.63 114.68,271.13 114.68,277.12 114.49,277.12 114.29,275.63 114.00,278.62 113.94,280.12 113.91,281.62 113.91,287.61 113.86,284.61 113.82,287.61 113.73,290.60 113.69,287.61 113.63,293.60 113.59,293.60 113.53,295.09 113.47,295.09 113.35,302.58 113.33,302.58 113.32,299.58 113.27,302.58 113.19,305.57 113.05,305.57 113.02,308.57 112.99,313.06 112.93,310.06 112.89,314.55 112.88,311.56 112.88,316.05 112.85,320.54 112.77,320.54 112.75,322.04 112.61,320.54 112.61,325.03 112.54,326.53 112.52,326.53 112.44,331.01 112.43,334.01 112.41,334.01 112.36,334.01 112.35,332.51 112.31,338.49 112.23,337.00 112.17,341.49 112.10,347.47 112.09,347.47 112.06,345.97 112.02,345.97 112.01,348.96 111.98,351.96 111.97,351.96 111.96,356.44 111.90,357.94 111.88,362.42 111.85,356.44 111.77,356.44 111.75,362.42 111.74,360.93 111.72,365.41 111.71,363.92 111.71,365.41 111.68,369.90 111.67,374.38 111.67,380.36 111.65,372.89 111.64,375.88 111.61,372.89 111.61,383.35 111.60,383.35 111.59,381.86 111.59,381.86 111.57,392.32 111.54,393.81 111.54,390.82 111.53,392.32 111.53,389.33 111.52,396.80 111.51,398.30 111.48,398.30 111.44,399.79 111.42,401.28 111.41,401.28 111.39,404.27 111.39,405.77 111.38,407.26 111.37,405.77 111.35,411.74 111.34,414.73 111.33,414.73 111.32,425.18 111.30,420.70 111.29,419.21 111.26,419.21 111.26,417.72 111.25,425.18 111.24,428.17 111.24,423.69 111.24,429.66 111.23,426.68 111.22,435.64 111.21,432.65 111.20,431.16 111.19,437.13 111.17,437.13 111.17,443.10 111.16,441.61 111.16,446.09 111.16,440.11 111.15,441.61 111.13,450.56 111.13,449.07 111.13,450.56 111.13,453.55 111.12,453.55 111.12,456.53 111.12,462.50 111.11,456.53 111.11,461.01 111.10,462.50 111.10,461.01 111.08,466.98 111.08,465.49 111.07,466.98 111.07,471.46 111.05,469.96 111.05,466.98 111.04,477.42 111.03,477.42 111.02,478.91 111.01,480.41 111.00,480.41 110.99,483.39 110.99,484.88 110.99,484.88 110.98,486.37 110.98,490.85 110.97,486.37 110.96,493.83 110.96,495.32 110.95,492.34 110.95,496.81 110.94,498.30 110.93,499.79 110.93,505.76 110.92,501.29 110.91,502.78 110.91,505.76 110.91,505.76 110.91,507.25 110.90,514.70 110.89,513.21 110.88,507.25 110.88,513.21 110.87,522.16 110.87,517.68 110.87,516.19 110.86,525.14 110.86,517.68 110.86,525.14 110.85,526.63 110.85,531.10 110.85,534.08 110.85,532.59 110.85,535.57 110.83,531.10 110.83,540.00 110.83,540.00 110.82,537.06 110.82,540.00 110.81,540.00 110.79,540.00 110.78,540.00 110.78,540.00 110.77,540.00 110.77,540.00 110.77,540.00 110.77,540.00 110.77,540.00 110.77,540.00 110.76,540.00 110.75,540.00 110.75,540.00 110.74,540.00 110.74,540.00 110.74,540.00 110.74,540.00 110.74,540.00 110.74,540.00 110.73,540.00 110.73,540.00 110.72,540.00 110.71,540.00 110.71,540.00 110.70,540.00 110.70,540.00 110.69,540.00 110.68,540.00 110.68,540.00 110.68,540.00 110.67,540.00 110.67,540.00 110.67,540.00" fill="#17becf" fill-opacity="0.35" stroke="none"/>
<polyline points="110.67,540.00 110.67,484.88 110.67,487.86 110.68,487.86 110.68,481.90 110.68,483.39 110.69,481.90 110.70,474.44 110.70,475.93 110.71,477.42 110.71,472.95 110.72,474.44 110.73,471.46 110.73,468.47 110.74,472.95 110.74,472.95 110.74,466.98 110.74,461.01 110.74,465.49 110.74,464.00 110.75,464.00 110.75,459.52 110.76,455.04 110.77,458.03 110.77,455.04 110.77,453.55 110.77,455.04 110.77,452.06 110.77,447.58 110.78,447.58 110.78,452.06 110.79,443.10 110.81,438.62 110.82,441.61 110.82,443.10 110.83,443.10 110.83,441.61 110.83,435.64 110.85,440.11 110.85,432.65 110.85,429.66 110.85,432.65 110.85,429.66 110.86,428.17 110.86,425.18 110.86,426.68 110.87,422.20 110.87,419.21 110.87,419.21 110.88,422.20 110.88,417.72 110.89,417.72 110.90,414.73 110.91,410.25 110.91,411.74 110.91,410.25 110.91,411.74 110.92,407.26 110.93,405.77 110.93,402.78 110.94,404.27 110.95,407.26 110.95,405.77 110.96,395.31 110.96,399.79 110.97,396.80 110.98,396.80 110.98,398.30 110.99,392.32 110.99,387.84 110.99,393.81 111.00,386.34 111.01,390.82 111.02,389.33 111.03,386.34 111.04,387.84 111.05,381.86 111.05,384.85 111.07,380.36 111.07,375.88 111.08,380.36 111.08,374.38 111.10,375.88 111.10,375.88 111.11,374.38 111.11,371.39 111.12,369.90 111.12,363.92 111.12,365.41 111.13,357.94 111.13,363.92 111.13,354.95 111.13,357.94 111.15,357.94 111.16,357.94 111.16,353.45 111.16,353.45 111.17,348.96 111.17,353.45 111.19,347.47 111.20,348.96 111.21,347.47 111.22,344.48 111.23,345.97 111.24,341.49 111.24,339.99 111.24,338.49 111.25,339.99 111.26,338.49 111.26,338.49 111.29,335.50 111.30,332.51 111.32,334.01 111.33,331.01 111.34,331.01 111.35,326.53 111.37,326.53 111.38,323.53 111.39,323.53 111.39,319.04 111.41,319.04 111.42,322.04 111.44,319.04 111.48,314.55 111.51,317.55 111.52,314.55 111.53,314.55 111.53,310.06 111.54,313.06 111.54,304.08 111.57,307.07 111.59,305.57 111.59,301.08 111.60,301.08 111.61,299.58 111.61,298.09 111.64,301.08 111.65,298.09 111.67,296.59 111.67,293.60 111.68,293.60 111.71,292.10 111.71,295.09 111.72,289.10 111.74,289.10 111.75,281.62 111.77,286.11 111.85,278.62 111.88,281.62 111.90,278.62 111.96,278.62 111.97,278.62 111.98,278.62 112.01,275.63 112.02,275.63 112.06,274.13 112.09,272.63 112.10,271.13 112.17,271.13 112.23,263.64 112.31,265.14 112.35,263.64 112.36,263.64 112.41,263.64 112.43,259.15 112.44,256.15 112.52,260.64 112.54,253.15 112.61,256.15 112.61,251.65 112.75,250.16 112.77,247.16 112.85,250.16 112.88,250.16 112.88,247.16 112.89,244.16 112.93,242.66 112.99,242.66 113.02,241.16 113.05,235.17 113.19,239.66 113.27,236.67 113.32,236.67 113.33,232.17 113.35,232.17 113.47,230.67 113.53,229.17 113.59,229.17 113.63,224.67 113.69,224.67 113.73,224.67 113.82,224.67 113.86,220.17 113.91,218.68 113.91,215.68 113.94,214.18 114.00,217.18 114.29,215.68 114.49,212.68 114.68,212.68 114.68,209.68 114.69,209.68 114.74,208.18 114.76,209.68 114.78,205.18 114.95,208.18 115.19,202.18 115.23,197.68 115.24,199.18 115.29,200.68 115.73,196.18 115.76,194.68 115.81,193.18 115.90,194.68 116.01,188.68 116.05,191.68 117.21,187.17 117.75,187.17 121.71,187.17 122.28,184.17 122.49,187.17 123.71,182.67 123.76,179.67 123.77,178.17 124.01,176.67 124.02,173.67 124.22,178.17 124.41,175.17 124.56,173.67 124.69,172.17 124.73,169.17 125.01,169.17 125.12,167.66 125.16,169.17 125.49,167.66 125.68,163.16 125.70,164.66 125.73,161.66 125.74,158.66 125.77,158.66 125.82,158.66 126.01,155.65 126.02,152.65 126.11,152.65 126.14,149.65 126.37,149.65 126.40,151.15 126.55,145.14 126.65,146.65 126.68,142.14 126.74,143.64 126.83,143.64 127.16,142.14 127.78,139.14 128.19,136.13 128.41,137.63 128.77,136.13 129.73,136.13 129.89,134.63 151.82,131.63 152.53,130.12 152.85,130.12 153.51,128.62 153.69,125.62 154.17,125.62 154.19,124.11 154.34,121.11 154.58,122.61 154.76,122.61 154.86,116.60 154.94,116.60 155.24,116.60 155.30,115.10 155.90,113.60 155.98,109.09 156.16,110.59 156.21,109.09 156.29,107.59 157.22,107.59 157.62,106.08 157.64,104.58 157.99,104.58 158.01,103.08 158.16,100.07 158.42,100.07 158.50,98.57 158.82,98.57 158.97,95.56 159.27,95.56 159.34,94.06 160.09,92.55 160.11,92.55 160.36,89.55 160.55,89.55 160.87,86.54 209.80,88.04 210.18,85.04 210.96,85.04 211.03,83.53 212.30,82.03 212.83,79.02 213.43,80.53 213.47,79.02 213.71,77.52 215.37,76.02 215.40,76.02 216.05,74.51 218.29,73.01 324.01,71.50 324.65,71.50 327.20,70.00 327.48,70.00 329.64,70.00 332.76,70.00 333.05,70.00 900.00,70.00" fill="none" stroke="#17becf" stroke-width="0.9" stroke-opacity="0.85"/>
<polyline points="110.67,540.00 110.67,540.00 110.67,540.00 110.68,540.00 110.68,540.00 110.68,540.00 110.69,540.00 110.70,540.00 110.70,540.00 110.71,540.00 110.71,540.00 110.72,540.00 110.73,540.00 110.73,540.00 110.74,540.00 110.74,540.00 110.74,540.00 110.74,540.00 110.74,540.00 110.74,540.00 110.75,540.00 110.75,540.00 110.76,540.00 110.77,540.00 110.77,540.00 110.77,540.00 110.77,540.00 110.77,540.00 110.77,540.00 110.78,540.00 110.78,540.00 110.79,540.00 110.81,540.00 110.82,540.00 110.82,537.06 110.83,540.00 110.83,540.00 110.83,531.10 110.85,535.57 110.85,532.59 110.85,534.08 110.85,531.10 110.85,526.63 110.86,525.14 110.86,517.68 110.86,525.14 110.87,516.19 110.87,517.68 110.87,522.16 110.88,513.21 110.88,507.25 110.89,513.21 110.90,514.70 110.91,507.25 110.91,505.76 110.91,505.76 110.91,502.78 110.92,501.29 110.93,505.76 110.93,499.79 110.94,498.30 110.95,496.81 110.95,492.34 110.96,495.32 110.96,493.83 110.97,486.37 110.98,490.85 110.98,486.37 110.99,484.88 110.99,484.88 110.99,483.39 111.00,480.41 111.01,480.41 111.02,478.91 111.03,477.42 111.04,477.42 111.05,466.98 111.05,469.96 111.07,471.46 111.07,466.98 111.08,465.49 111.08,466.98 111.10,461.01 111.10,462.50 111.11,461.01 111.11,456.53 111.12,462.50 111.12,456.53 111.12,453.55 111.13,453.55 111.13,450.56 111.13,449.07 111.13,450.56 111.15,441.61 111.16,440.11 111.16,446.09 111.16,441.61 111.17,443.10 111.17,437.13 111.19,437.13 111.20,431.16 111.21,432.65 111.22,435.64 111.23,426.68 111.24,429.66 111.24,423.69 111.24,428.17 111.25,425.18 111.26,417.72 111.26,419.21 111.29,419.21 111.30,420.70 111.32,425.18 111.33,414.73 111.34,414.73 111.35,411.74 111.37,405.77 111.38,407.26 111.39,405.77 111.39,404.27 111.41,401.28 111.42,401.28 111.44,399.79 111.48,398.30 111.51,398.30 111.52,396.80 111.53,389.33 111.53,392.32 111.54,390.82 111.54,393.81 111.57,392.32 111.59,381.86 111.59,381.86 111.60,383.35 111.61,383.35 111.61,372.89 111.64,375.88 111.65,372.89 111.67,380.36 111.67,374.38 111.68,369.90 111.71,365.41 111.71,363.92 111.72,365.41 111.74,360.93 111.75,362.42 111.77,356.44 111.85,356.44 111.88,362.42 111.90,357.94 111.96,356.44 111.97,351.96 111.98,351.96 112.01,348.96 112.02,345.97 112.06,345.97 112.09,347.47 112.10,347.47 112.17,341.49 112.23,337.00 112.31,338.49 112.35,332.51 112.36,334.01 112.41,334.01 112.43,334.01 112.44,331.01 112.52,326.53 112.54,326.53 112.61,325.03 112.61,320.54 112.75,322.04 112.77,320.54 112.85,320.54 112.88,316.05 112.88,311.56 112.89,314.55 112.93,310.06 112.99,313.06 113.02,308.57 113.05,305.57 113.19,305.57 113.27,302.58 113.32,299.58 113.33,302.58 113.35,302.58 113.47,295.09 113.53,295.09 113.59,293.60 113.63,293.60 113.69,287.61 113.73,290.60 113.82,287.61 113.86,284.61 113.91,287.61 113.91,281.62 113.94,280.12 114.00,278.62 114.29,275.63 114.49,277.12 114.68,277.12 114.68,271.13 114.69,269.63 114.74,269.63 114.76,271.13 114.78,265.14 114.95,266.64 115.19,265.14 115.23,262.14 115.24,263.64 115.29,259.15 115.73,259.15 115.76,254.65 115.81,251.65 115.90,256.15 116.01,248.66 116.05,251.65 117.21,247.16 117.75,244.16 121.71,244.16 122.28,241.16 122.49,239.66 123.71,238.17 123.76,238.17 123.77,233.67 124.01,232.17 124.02,232.17 124.22,229.17 124.41,229.17 124.56,227.67 124.69,224.67 124.73,224.67 125.01,220.17 125.12,220.17 125.16,217.18 125.49,217.18 125.68,215.68 125.70,212.68 125.73,211.18 125.74,211.18 125.77,208.18 125.82,208.18 126.01,205.18 126.02,205.18 126.11,203.68 126.14,199.18 126.37,197.68 126.40,197.68 126.55,194.68 126.65,193.18 126.68,194.68 126.74,193.18 126.83,188.68 127.16,187.17 127.78,184.17 128.19,185.67 128.41,182.67 128.77,178.17 129.73,181.17 129.89,176.67 151.82,173.67 152.53,173.67 152.85,170.67 153.51,169.17 153.69,169.17 154.17,166.16 154.19,166.16 154.34,161.66 154.58,160.16 154.76,161.66 154.86,158.66 154.94,155.65 155.24,154.15 155.30,152.65 155.90,149.65 155.98,151.15 156.16,148.15 156.21,148.15 156.29,145.14 157.22,142.14 157.62,140.64 157.64,137.63 157.99,139.14 158.01,134.63 158.16,133.13 158.42,130.12 158.50,133.13 158.82,128.62 158.97,127.12 159.27,124.11 159.34,122.61 160.09,121.11 160.11,119.61 160.36,116.60 160.55,115.10 160.87,113.60 209.80,110.59 210.18,109.09 210.96,107.59 211.03,106.08 212.30,106.08 212.83,103.08 213.43,100.07 213.47,98.57 213.71,97.06 215.37,95.56 215.40,92.55 216.05,91.05 218.29,88.04 324.01,86.54 324.65,83.53 327.20,83.53 327.48,80.53 329.64,77.52 332.76,74.51 333.05,70.00 900.00,70.00" fill="none" stroke="#17becf" stroke-width="0.9" stroke-opacity="0.85"/>
<polyline points="110.67,540.00 110.67,538.55 110.67,537.06 110.68,535.57 110.68,534.08 110.68,532.59 110.69,531.10 110.70,529.61 110.70,528.12 110.71,526.63 110.71,525.14 110.72,523.65 110.73,522.16 110.73,520.67 110.74,519.18 110.74,517.68 110.74,516.19 110.74,514.70 110.74,513.21 110.74,511.72 110.75,510.23 110.75,508.74 110.76,507.25 110.77,505.76 110.77,504.27 110.77,502.78 110.77,501.29 110.77,499.79 110.77,498.30 110.78,496.81 110.78,495.32 110.79,493.83 110.81,492.34 110.82,490.85 110.82,489.36 110.83,487.86 110.83,486.37 110.83,484.88 110.85,483.39 110.85,481.90 110.85,480.41 110.85,478.91 110.85,477.42 110.86,475.93 110.86,474.44 110.86,472.95 110.87,471.46 110.87,469.96 110.87,468.47 110.88,466.98 110.88,465.49 110.89,464.00 110.90,462.50 110.91,461.01 110.91,459.52 110.91,458.03 110.91,456.53 110.92,455.04 110.93,453.55 110.93,452.06 110.94,450.56 110.95,449.07 110.95,447.58 110.96,446.09 110.96,444.59 110.97,443.10 110.98,441.61 110.98,440.11 110.99,438.62 110.99,437.13 110.99,435.64 111.00,434.14 111.01,432.65 111.02,431.16 111.03,429.66 111.04,428.17 111.05,426.68 111.05,425.18 111.07,423.69 111.07,422.20 111.08,420.70 111.08,419.21 111.10,417.72 111.10,416.22 111.11,414.73 111.11,413.24 111.12,411.74 111.12,410.25 111.12,408.75 111.13,407.26 111.13,405.77 111.13,404.27 111.13,402.78 111.15,401.28 111.16,399.79 111.16,398.30 111.16,396.80 111.17,395.31 111.17,393.81 111.19,392.32 111.20,390.82 111.21,389.33 111.22,387.84 111.23,386.34 111.24,384.85 111.24,383.35 111.24,381.86 111.25,380.36 111.26,378.87 111.26,377.37 111.29,375.88 111.30,374.38 111.32,372.89 111.33,371.39 111.34,369.90 111.35,368.40 111.37,366.91 111.38,365.41 111.39,363.92 111.39,362.42 111.41,360.93 111.42,359.43 111.44,357.94 111.48,356.44 111.51,354.95 111.52,353.45 111.53,351.96 111.53,350.46 111.54,348.96 111.54,347.47 111.57,345.97 111.59,344.48 111.59,342.98 111.60,341.49 111.61,339.99 111.61,338.49 111.64,337.00 111.65,335.50 111.67,334.01 111.67,332.51 111.68,331.01 111.71,329.52 111.71,328.02 111.72,326.53 111.74,325.03 111.75,323.53 111.77,322.04 111.85,320.54 111.88,319.04 111.90,317.55 111.96,316.05 111.97,314.55 111.98,313.06 112.01,311.56 112.02,310.06 112.06,308.57 112.09,307.07 112.10,305.57 112.17,304.08 112.23,302.58 112.31,301.08 112.35,299.58 112.36,298.09 112.41,296.59 112.43,295.09 112.44,293.60 112.52,292.10 112.54,290.60 112.61,289.10 112.61,287.61 112.75,286.11 112.77,284.61 112.85,283.11 112.88,281.62 112.88,280.12 112.89,278.62 112.93,277.12 112.99,275.63 113.02,274.13 113.05,272.63 113.19,271.13 113.27,269.63 113.32,268.14 113.33,266.64 113.35,265.14 113.47,263.64 113.53,262.14 113.59,260.64 113.63,259.15 113.69,257.65 113.73,256.15 113.82,254.65 113.86,253.15 113.91,251.65 113.91,250.16 113.94,248.66 114.00,247.16 114.29,245.66 114.49,244.16 114.68,242.66 114.68,241.16 114.69,239.66 114.74,238.17 114.76,236.67 114.78,235.17 114.95,233.67 115.19,232.17 115.23,230.67 115.24,229.17 115.29,227.67 115.73,226.17 115.76,224.67 115.81,223.17 115.90,221.67 116.01,220.17 116.05,218.68 117.21,217.18 117.75,215.68 121.71,214.18 122.28,212.68 122.49,211.18 123.71,209.68 123.76,208.18 123.77,206.68 124.01,205.18 124.02,203.68 124.22,202.18 124.41,200.68 124.56,199.18 124.69,197.68 124.73,196.18 125.01,194.68 125.12,193.18 125.16,191.68 125.49,190.18 125.68,188.68 125.70,187.17 125.73,185.67 125.74,184.17 125.77,182.67 125.82,181.17 126.01,179.67 126.02,178.17 126.11,176.67 126.14,175.17 126.37,173.67 126.40,172.17 126.55,170.67 126.65,169.17 126.68,167.66 126.74,166.16 126.83,164.66 127.16,163.16 127.78,161.66 128.19,160.16 128.41,158.66 128.77,157.16 129.73,155.65 129.89,154.15 151.82,152.65 152.53,151.15 152.85,149.65 153.51,148.15 153.69,146.65 154.17,145.14 154.19,143.64 154.34,142.14 154.58,140.64 154.76,139.14 154.86,137.63 154.94,136.13 155.24,134.63 155.30,133.13 155.90,131.63 155.98,130.12 156.16,128.62 156.21,127.12 156.29,125.62 157.22,124.11 157.62,122.61 157.64,121.11 157.99,119.61 158.01,118.10 158.16,116.60 158.42,115.10 158.50,113.60 158.82,112.09 158.97,110.59 159.27,109.09 159.34,107.59 160.09,106.08 160.11,104.58 160.36,103.08 160.55,101.57 160.87,100.07 209.80,98.57 210.18,97.06 210.96,95.56 211.03,94.06 212.30,92.55 212.83,91.05 213.43,89.55 213.47,88.04 213.71,86.54 215.37,85.04 215.40,83.53 216.05,82.03 218.29,80.53 324.01,79.02 324.65,77.52 327.20,76.02 327.48,74.51 329.64,73.01 332.76,71.50 333.05,70.00 900.00,70.00" fill="none" stroke="#17becf" stroke-width="2.0"/>
<rect x="86" y="514" width="90" height="20" fill="white" fill-opacity="0.85" stroke="#888"/>
<text x="92" y="528" font-weight="bold" fill="#17becf">n = 16</text>
</svg>