<svg xmlns="http://www.w3.org/2000/svg" viewBox="0 0 960 600" font-family="Helvetica, Arial, sans-serif" font-size="12">
<rect width="100%" height="100%" fill="white"/>
<text x="480.0" y="22" text-anchor="middle" font-size="16" font-weight="bold">Chunking benefit: n = 8 parallel chunks (pointwise 95% bootstrap CI)</text>
<text x="480.0" y="40" text-anchor="middle" fill="#555">size=12500 kB, link=1000 Mbps, RTT=50 ms, p=1.00e-06</text>
<text x="480.0" y="56" text-anchor="middle" fill="#555">scenario=optimistic, runs=500000, bootstrap B=500; curve is F_chunk(t)^n</text>
<rect x="80" y="70" width="820" height="470" fill="#fafafa" stroke="#888"/>
<line x1="80.00" y1="70" x2="80.00" y2="540" stroke="#e0e0e0"/>
<text x="80.00" y="556" text-anchor="middle" fill="#333">0.000</text>
<line x1="182.50" y1="70" x2="182.50" y2="540" stroke="#e0e0e0"/>
<text x="182.50" y="556" text-anchor="middle" fill="#333">1.25</text>
<line x1="285.00" y1="70" x2="285.00" y2="540" stroke="#e0e0e0"/>
<text x="285.00" y="556" text-anchor="middle" fill="#333">2.50</text>
<line x1="387.50" y1="70" x2="387.50" y2="540" stroke="#e0e0e0"/>
<text x="387.50" y="556" text-anchor="middle" fill="#333">3.75</text>
<line x1="490.00" y1="70" x2="490.00" y2="540" stroke="#e0e0e0"/>
<text x="490.00" y="556" text-anchor="middle" fill="#333">5.00</text>
<line x1="592.50" y1="70" x2="592.50" y2="540" stroke="#e0e0e0"/>
<text x="592.50" y="556" text-anchor="middle" fill="#333">6.25</text>
<line x1="695.00" y1="70" x2="695.00" y2="540" stroke="#e0e0e0"/>
<text x="695.00" y="556" text-anchor="middle" fill="#333">7.50</text>
<line x1="797.50" y1="70" x2="797.50" y2="540" stroke="#e0e0e0"/>
<text x="797.50" y="556" text-anchor="middle" fill="#333">8.75</text>
<line x1="900.00" y1="70" x2="900.00" y2="540" stroke="#e0e0e0"/>
<text x="900.00" y="556" text-anchor="middle" fill="#333">10.0</text>
<line x1="80" y1="540.00" x2="900" y2="540.00" stroke="#e0e0e0"/>
<text x="72" y="544.00" text-anchor="end" fill="#333">0.990</text>
<line x1="80" y1="493.00" x2="900" y2="493.00" stroke="#e0e0e0"/>
<text x="72" y="497.00" text-anchor="end" fill="#333">0.991</text>
<line x1="80" y1="446.00" x2="900" y2="446.00" stroke="#e0e0e0"/>
<text x="72" y="450.00" text-anchor="end" fill="#333">0.992</text>
<line x1="80" y1="399.00" x2="900" y2="399.00" stroke="#e0e0e0"/>
<text x="72" y="403.00" text-anchor="end" fill="#333">0.993</text>
<line x1="80" y1="352.00" x2="900" y2="352.00" stroke="#e0e0e0"/>
<text x="72" y="356.00" text-anchor="end" fill="#333">0.994</text>
<line x1="80" y1="305.00" x2="900" y2="305.00" stroke="#e0e0e0"/>
<text x="72" y="309.00" text-anchor="end" fill="#333">0.995</text>
<line x1="80" y1="258.00" x2="900" y2="258.00" stroke="#e0e0e0"/>
<text x="72" y="262.00" text-anchor="end" fill="#333">0.996</text>
<line x1="80" y1="211.00" x2="900" y2="211.00" stroke="#e0e0e0"/>
<text x="72" y="215.00" text-anchor="end" fill="#333">0.997</text>
<line x1="80" y1="164.00" x2="900" y2="164.00" stroke="#e0e0e0"/>
<text x="72" y="168.00" text-anchor="end" fill="#333">0.998</text>
<line x1="80" y1="117.00" x2="900" y2="117.00" stroke="#e0e0e0"/>
<text x="72" y="121.00" text-anchor="end" fill="#333">0.999</text>
<line x1="80" y1="70.00" x2="900" y2="70.00" stroke="#e0e0e0"/>
<text x="72" y="74.00" text-anchor="end" fill="#333">1.000</text>
<line x1="80" y1="540.00" x2="900" y2="540.00" stroke="#888" stroke-width="1" stroke-dasharray="4,4"/>
<text x="894.00" y="536.00" text-anchor="end" fill="#555" font-style="italic">P99</text>
<text x="490.0" y="585" text-anchor="middle">Download time (seconds)</text>
<text transform="translate(20,305.0) rotate(-90)" text-anchor="middle">Cumulative probability  (whole-file)</text>
<polygon points="114.67,540.00 114.67,501.41 114.67,503.65 114.67,505.89 114.68,496.19 114.68,498.43 114.68,501.41 114.68,501.41 114.68,496.93 114.68,496.93 114.68,498.43 114.68,495.44 114.68,493.20 114.68,493.20 114.69,494.70 114.69,493.95 114.69,496.19 114.69,490.97 114.69,489.47 114.69,492.46 114.69,491.71 114.70,488.73 114.70,487.23 114.70,488.73 114.70,485.00 114.70,487.23 114.71,485.74 114.71,486.49 114.71,482.01 114.71,482.01 114.71,481.26 114.71,479.03 114.71,479.77 114.71,481.26 114.72,480.52 114.72,478.28 114.72,481.26 114.72,477.53 114.73,479.03 114.73,477.53 114.73,472.31 114.73,471.56 114.73,475.29 114.73,472.31 114.73,473.06 114.73,468.58 114.74,470.07 114.74,472.31 114.74,467.83 114.74,467.83 114.74,467.83 114.74,467.08 114.74,466.34 114.74,464.85 114.74,462.61 114.74,466.34 114.75,465.59 114.75,463.35 114.75,462.61 114.75,457.38 114.75,460.37 114.75,458.87 114.75,461.86 114.75,456.63 114.76,455.14 114.76,458.13 114.76,455.89 114.76,457.38 114.76,455.14 114.77,454.39 114.77,455.14 114.77,455.89 114.77,450.66 114.77,454.39 114.77,449.17 114.77,451.41 114.77,454.39 114.78,449.91 114.78,448.42 114.78,448.42 114.78,446.18 114.78,446.18 114.78,446.18 114.78,445.43 114.79,446.93 114.79,443.94 114.79,443.94 114.79,445.43 114.79,440.95 114.79,439.46 114.79,434.98 114.79,439.46 114.79,434.98 114.80,434.98 114.80,434.23 114.81,432.74 114.81,433.48 114.82,434.23 114.82,431.24 114.82,431.24 114.82,431.99 114.82,433.48 114.82,431.24 114.82,427.51 114.82,429.75 114.82,429.00 114.82,425.27 114.83,429.75 114.83,423.77 114.83,427.51 114.84,426.76 114.84,426.01 114.84,425.27 114.84,421.53 114.84,424.52 114.84,423.03 114.84,419.29 114.85,420.04 114.85,419.29 114.85,416.30 114.85,417.05 114.85,416.30 114.85,415.56 114.85,412.57 114.85,415.56 114.85,415.56 114.85,414.81 114.86,416.30 114.86,413.31 114.86,409.58 114.86,408.83 114.86,407.34 114.86,408.08 114.86,408.83 114.86,406.59 114.87,405.09 114.87,405.09 114.88,405.09 114.88,403.60 114.88,404.35 114.88,404.35 114.88,402.10 114.89,403.60 114.89,402.10 114.89,404.35 114.90,402.85 114.90,398.37 114.90,395.38 114.90,396.13 114.90,394.63 114.90,399.12 114.91,390.89 114.91,394.63 114.91,393.88 114.91,396.13 114.92,393.14 114.92,394.63 114.92,393.14 114.92,392.39 114.92,388.65 114.92,392.39 114.92,387.90 114.92,387.90 114.92,386.41 114.93,388.65 114.93,387.90 114.93,382.67 114.93,386.41 114.93,380.43 114.93,383.42 114.93,381.92 114.94,383.42 114.94,381.92 114.95,378.93 114.95,378.93 114.95,380.43 114.95,378.93 114.95,378.18 114.95,376.69 114.96,374.45 114.96,376.69 114.96,373.70 114.96,372.95 114.97,372.95 114.97,374.45 114.98,372.20 114.98,369.96 114.98,367.72 114.98,369.96 114.98,369.21 114.99,369.96 115.00,366.22 115.00,365.47 115.00,368.46 115.01,364.72 115.01,366.22 115.01,363.23 115.01,360.24 115.02,361.73 115.02,361.73 115.03,362.48 115.03,360.24 115.04,362.48 115.04,358.74 115.04,358.74 115.05,358.74 115.06,356.50 115.06,356.50 115.06,357.25 115.06,352.01 115.07,349.76 115.07,353.50 115.08,352.01 115.08,351.26 115.08,349.02 115.08,352.76 115.08,349.76 115.08,349.76 115.09,346.77 115.09,347.52 115.09,346.02 115.09,346.02 115.10,345.28 115.10,345.28 115.10,343.03 115.10,340.79 115.11,341.54 115.11,339.29 115.11,340.04 115.11,336.30 115.12,343.78 115.12,340.04 115.12,340.79 115.13,340.04 115.13,337.79 115.13,335.55 115.13,335.55 115.14,337.79 115.14,336.30 115.14,334.80 115.15,335.55 115.15,331.06 115.15,328.81 115.15,332.56 115.15,325.82 115.16,330.31 115.16,327.32 115.16,326.57 115.16,326.57 115.16,325.07 115.16,326.57 115.17,326.57 115.17,323.58 115.17,322.08 115.17,321.33 115.19,320.58 115.19,321.33 115.20,322.08 115.21,319.83 115.21,317.59 115.21,318.34 115.22,319.08 115.22,319.08 115.22,316.84 115.22,316.09 115.23,313.10 115.23,313.84 115.24,313.84 115.24,313.84 115.25,310.85 115.26,313.10 115.26,310.10 115.27,312.35 115.27,308.60 115.27,306.36 115.28,305.61 115.29,307.11 115.29,306.36 115.29,304.86 115.30,304.86 115.31,301.87 115.31,304.11 115.32,302.61 115.33,301.87 115.34,301.87 115.34,302.61 115.34,299.62 115.34,298.87 115.34,299.62 115.35,295.13 115.35,292.88 115.35,297.37 115.35,292.13 115.36,297.37 115.36,295.13 115.36,293.63 115.36,295.13 115.36,291.38 115.37,292.88 115.38,289.14 115.39,289.88 115.39,287.64 115.39,288.39 115.39,286.89 115.39,288.39 115.39,286.89 115.39,288.39 115.39,281.65 115.39,281.65 115.40,285.39 115.40,283.14 115.41,283.14 115.41,280.90 115.42,281.65 115.42,277.90 115.43,277.15 115.43,277.15 115.43,273.41 115.44,277.15 115.44,272.66 115.45,276.40 115.45,275.65 115.46,273.41 115.46,275.65 115.47,272.66 115.47,271.16 115.47,274.15 115.47,271.16 115.48,268.91 115.49,271.91 115.49,268.16 115.50,268.16 115.50,266.66 115.53,267.41 115.53,266.66 115.53,267.41 115.53,264.42 115.53,261.42 115.54,262.17 115.55,262.92 115.56,261.42 115.56,262.17 115.56,259.17 115.56,260.67 115.57,258.42 115.58,259.17 115.58,257.67 115.59,256.92 115.60,256.92 115.61,252.43 115.62,253.17 115.62,253.92 115.62,253.92 115.62,253.17 115.63,252.43 115.64,253.17 115.64,250.93 115.64,249.43 115.65,247.93 115.66,248.68 115.66,247.93 115.68,248.68 115.69,244.18 115.70,247.18 115.71,247.18 115.73,244.18 115.73,244.18 115.73,244.18 115.73,242.68 115.74,241.18 115.74,238.93 115.76,241.93 115.77,236.68 115.77,236.68 115.77,237.43 115.77,236.68 115.77,237.43 115.77,235.94 115.77,235.19 115.77,233.69 115.77,235.19 115.78,234.44 115.79,232.94 115.81,228.44 115.81,231.44 115.85,232.94 115.85,226.94 115.86,231.44 115.87,228.44 115.89,227.69 115.89,227.69 115.90,225.44 115.90,224.69 115.90,225.44 115.91,226.94 115.91,220.94 115.92,225.44 115.92,223.19 115.92,219.44 115.92,219.44 115.94,221.69 115.96,218.69 115.97,217.19 115.97,215.69 115.98,216.44 115.98,217.19 116.00,215.69 116.03,216.44 116.04,214.19 116.05,213.44 116.05,211.94 116.06,211.94 116.09,209.69 116.10,208.19 116.10,209.69 116.13,210.44 116.13,206.69 116.15,208.19 116.16,205.94 116.17,208.19 116.17,207.44 116.19,202.94 116.22,205.19 116.25,202.94 116.27,202.19 116.28,202.94 116.30,200.69 116.30,199.94 116.32,201.44 116.36,198.44 116.39,198.44 116.39,195.44 116.42,199.19 116.43,196.94 116.46,195.44 116.46,194.69 116.47,192.44 116.47,194.69 116.48,192.44 116.51,192.44 116.56,189.44 116.56,190.94 116.61,191.69 116.65,189.44 116.70,189.44 116.71,187.93 116.73,184.93 116.96,186.43 116.96,186.43 117.00,183.43 117.02,184.93 117.04,183.43 117.10,183.43 117.20,181.18 117.21,182.68 117.23,180.43 117.63,178.93 118.05,178.18 118.15,178.93 118.28,176.68 118.88,178.93 126.04,177.43 126.22,176.68 126.42,175.93 126.55,175.93 127.15,174.43 127.20,172.93 127.46,172.17 127.55,172.93 127.88,171.42 127.93,172.17 127.97,170.67 127.99,169.17 128.09,169.17 128.10,168.42 128.10,167.67 128.12,166.17 128.13,163.92 128.14,164.67 128.20,165.42 128.20,162.42 128.28,163.17 128.32,161.67 128.34,160.91 128.64,163.17 128.68,160.16 128.76,159.41 128.85,159.41 128.92,157.91 128.92,156.41 128.93,157.16 128.96,154.91 128.97,154.91 129.16,154.91 129.28,153.41 129.28,153.41 129.32,151.91 129.38,152.66 129.43,151.91 129.44,150.40 129.47,150.40 129.61,149.65 129.65,148.90 129.72,149.65 129.79,146.65 129.83,146.65 129.99,147.40 130.04,145.15 130.16,145.90 130.21,145.15 130.28,142.14 130.30,142.14 130.32,141.39 130.37,142.14 130.38,139.14 130.45,138.39 130.46,139.14 130.53,137.64 130.55,137.64 130.60,136.14 130.71,136.89 130.73,136.89 130.76,135.38 130.78,133.13 130.88,135.38 131.09,133.88 131.19,131.63 131.25,130.88 131.29,130.88 131.32,130.13 131.45,128.62 131.47,130.13 131.70,127.87 131.71,126.37 131.76,126.37 131.95,126.37 131.95,125.62 132.25,125.62 132.54,123.37 132.66,122.61 132.76,123.37 132.90,121.11 133.43,121.86 133.45,119.61 133.54,120.36 133.60,119.61 133.87,118.11 134.50,118.11 135.58,118.11 156.31,116.60 157.57,115.10 158.15,115.85 158.55,112.85 158.60,113.60 159.12,112.85 159.14,111.34 159.81,112.10 160.32,110.59 160.56,110.59 160.60,109.84 160.62,109.09 160.72,108.34 160.74,108.34 160.91,107.59 161.04,106.84 161.18,105.33 161.25,105.33 161.37,104.58 161.50,105.33 161.54,103.08 161.71,103.08 162.39,102.33 162.43,101.57 162.70,100.82 162.74,100.07 163.07,99.32 163.07,98.57 163.08,98.57 163.41,98.57 163.53,97.82 163.78,97.07 164.07,94.81 164.90,94.81 165.23,94.06 165.38,92.56 166.34,93.31 167.30,91.80 212.08,91.80 213.70,91.05 214.07,90.30 214.39,89.55 215.27,89.55 215.65,88.80 217.09,88.04 218.11,87.29 218.20,86.54 218.92,86.54 219.00,85.79 219.56,85.04 222.41,83.53 224.17,83.53 324.19,83.53 324.53,82.03 326.51,82.03 327.84,81.28 327.87,81.28 328.15,79.78 328.42,79.78 328.96,79.02 329.11,78.27 329.15,77.52 329.24,76.77 329.27,76.77 331.12,76.02 331.57,75.26 334.40,74.51 334.55,75.26 334.71,73.76 335.97,73.01 489.71,72.26 489.96,72.26 492.32,71.50 492.56,71.50 494.15,70.75 494.78,70.75 495.31,70.00 496.60,70.00 496.96,70.00 497.04,70.00 900.00,70.00 900.00,70.00 497.04,70.00 496.96,72.26 496.60,74.51 495.31,75.26 494.78,76.02 494.15,77.52 492.56,78.27 492.32,79.78 489.96,80.53 489.71,81.28 335.97,82.78 334.71,82.78 334.55,83.53 334.40,85.04 331.57,87.29 331.12,87.29 329.27,88.04 329.24,89.55 329.15,90.30 329.11,91.05 328.96,91.80 328.42,93.31 328.15,93.31 327.87,95.56 327.84,94.81 326.51,97.07 324.53,97.82 324.19,97.82 224.17,98.57 222.41,100.82 219.56,101.57 219.00,101.57 218.92,103.08 218.20,103.83 218.11,103.83 217.09,104.58 215.65,106.84 215.27,106.84 214.39,107.59 214.07,108.34 213.70,109.09 212.08,110.59 167.30,111.34 166.34,112.85 165.38,112.85 165.23,113.60 164.90,113.60 164.07,116.60 163.78,117.36 163.53,117.36 163.41,118.11 163.08,119.61 163.07,119.61 163.07,121.11 162.74,121.11 162.70,123.37 162.43,123.37 162.39,126.37 161.71,124.87 161.54,126.37 161.50,126.37 161.37,127.87 161.25,127.12 161.18,129.38 161.04,130.13 160.91,131.63 160.74,133.13 160.72,133.88 160.62,133.13 160.60,134.63 160.56,135.38 160.32,136.14 159.81,138.39 159.14,136.89 159.12,140.64 158.60,141.39 158.55,139.14 158.15,141.39 157.57,142.14 156.31,141.39 135.58,142.89 134.50,143.65 133.87,145.90 133.60,145.90 133.54,147.40 133.45,148.90 133.43,148.15 132.90,148.90 132.76,151.91 132.66,149.65 132.54,150.40 132.25,154.16 131.95,154.16 131.95,154.16 131.76,154.16 131.71,157.16 131.70,157.91 131.47,157.16 131.45,160.16 131.32,159.41 131.29,160.16 131.25,162.42 131.19,162.42 131.09,161.67 130.88,163.17 130.78,163.92 130.76,164.67 130.73,164.67 130.71,168.42 130.60,166.92 130.55,168.42 130.53,169.17 130.46,171.42 130.45,171.42 130.38,170.67 130.37,171.42 130.32,174.43 130.30,173.68 130.28,173.68 130.21,176.68 130.16,177.43 130.04,177.43 129.99,176.68 129.83,180.43 129.79,179.68 129.72,183.43 129.65,182.68 129.61,181.18 129.47,184.18 129.44,181.93 129.43,185.68 129.38,185.68 129.32,185.68 129.28,188.68 129.28,185.68 129.16,189.44 128.97,189.44 128.96,189.44 128.93,190.94 128.92,192.44 128.92,193.94 128.85,193.94 128.76,194.69 128.68,193.94 128.64,196.94 128.34,197.69 128.32,198.44 128.28,199.19 128.20,197.69 128.20,200.69 128.14,200.69 128.13,202.19 128.12,202.94 128.10,203.69 128.10,205.94 128.09,205.19 127.99,208.19 127.97,205.94 127.93,205.94 127.88,208.94 127.55,208.94 127.46,211.19 127.20,211.19 127.15,211.94 126.55,212.69 126.42,212.69 126.22,214.94 126.04,214.94 118.88,215.69 118.28,214.94 118.15,217.94 118.05,217.94 117.63,217.94 117.23,220.94 117.21,223.19 117.20,221.69 117.10,223.19 117.04,224.69 117.02,223.94 117.00,225.44 116.96,223.94 116.96,223.94 116.73,228.44 116.71,227.69 116.70,229.19 116.65,229.94 116.61,232.19 116.56,233.69 116.56,234.44 116.51,237.43 116.48,232.19 116.47,235.19 116.47,235.19 116.46,235.19 116.46,236.68 116.43,238.93 116.42,238.93 116.39,239.68 116.39,238.18 116.36,238.93 116.32,241.18 116.30,240.43 116.30,241.93 116.28,243.43 116.27,241.93 116.25,244.18 116.22,247.93 116.19,243.43 116.17,250.18 116.17,248.68 116.16,249.43 116.15,249.43 116.13,252.43 116.13,253.17 116.10,250.93 116.10,252.43 116.09,254.67 116.06,253.92 116.05,256.92 116.05,256.92 116.04,257.67 116.03,258.42 116.00,260.67 115.98,258.42 115.98,259.92 115.97,259.92 115.97,262.92 115.96,262.92 115.94,263.67 115.92,267.41 115.92,265.91 115.92,265.16 115.92,266.66 115.91,268.16 115.91,266.66 115.90,269.66 115.90,267.41 115.90,269.66 115.89,271.91 115.89,274.15 115.87,273.41 115.86,274.15 115.85,273.41 115.85,274.15 115.81,276.40 115.81,277.90 115.79,277.90 115.78,278.65 115.77,280.15 115.77,280.90 115.77,281.65 115.77,279.40 115.77,281.65 115.77,283.14 115.77,284.64 115.77,283.89 115.77,284.64 115.76,288.39 115.74,288.39 115.74,288.39 115.73,287.64 115.73,289.88 115.73,291.38 115.73,289.88 115.71,292.88 115.70,295.88 115.69,292.88 115.68,292.13 115.66,298.12 115.66,294.38 115.65,295.88 115.64,298.87 115.64,297.37 115.64,299.62 115.63,301.12 115.62,302.61 115.62,301.12 115.62,304.11 115.62,302.61 115.61,304.11 115.60,302.61 115.59,306.36 115.58,306.36 115.58,307.86 115.57,306.36 115.56,308.60 115.56,308.60 115.56,311.60 115.56,310.10 115.55,312.35 115.54,311.60 115.53,311.60 115.53,315.34 115.53,316.84 115.53,319.08 115.53,315.34 115.50,316.09 115.50,319.83 115.49,324.32 115.49,321.33 115.48,319.83 115.47,319.83 115.47,321.33 115.47,325.07 115.47,322.83 115.46,322.83 115.46,325.07 115.45,326.57 115.45,328.81 115.44,328.81 115.44,325.82 115.43,332.56 115.43,331.81 115.43,331.06 115.42,333.30 115.42,337.79 115.41,334.80 115.41,330.31 115.40,334.80 115.40,335.55 115.39,337.05 115.39,337.05 115.39,337.79 115.39,342.28 115.39,339.29 115.39,340.04 115.39,341.54 115.39,340.79 115.39,342.28 115.38,344.53 115.37,343.03 115.36,344.53 115.36,345.28 115.36,343.78 115.36,350.51 115.36,348.27 115.35,352.01 115.35,349.76 115.35,347.52 115.35,352.76 115.34,351.26 115.34,354.25 115.34,350.51 115.34,355.75 115.34,357.99 115.33,357.99 115.32,357.25 115.31,357.99 115.31,355.75 115.30,358.74 115.29,362.48 115.29,360.98 115.29,362.48 115.28,365.47 115.27,364.72 115.27,364.72 115.27,365.47 115.26,362.48 115.26,366.97 115.25,366.97 115.24,369.96 115.24,366.22 115.23,369.21 115.23,372.20 115.22,370.71 115.22,371.45 115.22,375.94 115.22,372.20 115.21,376.69 115.21,378.93 115.21,375.19 115.20,377.44 115.19,376.69 115.19,377.44 115.17,380.43 115.17,381.17 115.17,378.18 115.17,382.67 115.16,381.17 115.16,381.17 115.16,383.42 115.16,386.41 115.16,386.41 115.16,386.41 115.15,388.65 115.15,387.90 115.15,384.91 115.15,388.65 115.15,390.15 115.14,392.39 115.14,390.89 115.14,393.14 115.13,396.87 115.13,393.88 115.13,398.37 115.13,395.38 115.12,396.87 115.12,398.37 115.12,400.61 115.11,396.13 115.11,395.38 115.11,399.86 115.11,402.10 115.10,401.36 115.10,402.10 115.10,402.85 115.10,402.85 115.09,401.36 115.09,404.35 115.09,409.58 115.09,407.34 115.08,407.34 115.08,411.82 115.08,407.34 115.08,413.31 115.08,414.06 115.08,411.07 115.07,411.82 115.07,417.80 115.06,414.06 115.06,416.30 115.06,412.57 115.06,418.54 115.05,419.29 115.04,415.56 115.04,419.29 115.04,419.29 115.03,420.04 115.03,419.29 115.02,421.53 115.02,420.79 115.01,423.77 115.01,424.52 115.01,423.77 115.01,424.52 115.00,429.00 115.00,426.01 115.00,426.76 114.99,429.00 114.98,429.00 114.98,428.26 114.98,431.24 114.98,429.75 114.98,431.99 114.97,433.48 114.97,432.74 114.96,434.98 114.96,437.22 114.96,440.95 114.96,434.23 114.95,440.21 114.95,438.71 114.95,439.46 114.95,437.22 114.95,440.21 114.95,440.95 114.94,445.43 114.94,440.95 114.93,445.43 114.93,444.69 114.93,448.42 114.93,448.42 114.93,449.17 114.93,449.91 114.93,448.42 114.92,447.67 114.92,449.91 114.92,447.67 114.92,454.39 114.92,456.63 114.92,455.14 114.92,456.63 114.92,455.89 114.92,455.89 114.91,455.89 114.91,457.38 114.91,461.86 114.91,461.86 114.90,463.35 114.90,459.62 114.90,461.11 114.90,461.11 114.90,461.86 114.90,464.10 114.89,462.61 114.89,462.61 114.89,467.83 114.88,470.07 114.88,472.31 114.88,469.32 114.88,467.83 114.88,470.82 114.87,469.32 114.87,473.80 114.86,472.31 114.86,472.31 114.86,478.28 114.86,481.26 114.86,477.53 114.86,473.80 114.86,476.79 114.86,479.03 114.85,482.01 114.85,479.77 114.85,477.53 114.85,484.25 114.85,481.26 114.85,485.00 114.85,484.25 114.85,482.01 114.85,486.49 114.85,484.25 114.84,488.73 114.84,487.98 114.84,494.70 114.84,490.22 114.84,493.95 114.84,491.71 114.84,490.22 114.83,489.47 114.83,492.46 114.83,495.44 114.82,492.46 114.82,493.95 114.82,495.44 114.82,496.93 114.82,496.93 114.82,496.19 114.82,500.66 114.82,498.43 114.82,505.14 114.82,502.90 114.81,502.90 114.81,499.92 114.80,505.89 114.80,507.38 114.79,505.89 114.79,504.39 114.79,507.38 114.79,506.63 114.79,510.36 114.79,514.09 114.79,508.12 114.79,511.85 114.79,511.85 114.78,512.60 114.78,512.60 114.78,514.84 114.78,514.84 114.78,515.58 114.78,517.82 114.78,512.60 114.77,519.31 114.77,520.06 114.77,522.29 114.77,521.55 114.77,520.80 114.77,522.29 114.77,525.27 114.77,521.55 114.76,523.04 114.76,526.02 114.76,523.78 114.76,528.26 114.76,528.26 114.75,526.02 114.75,527.51 114.75,530.49 114.75,528.26 114.75,531.98 114.75,536.46 114.75,532.73 114.75,532.73 114.74,533.48 114.74,536.46 114.74,535.71 114.74,540.00 114.74,538.69 114.74,534.22 114.74,540.00 114.74,540.00 114.74,540.00 114.74,539.44 114.73,540.00 114.73,540.00 114.73,540.00 114.73,540.00 114.73,540.00 114.73,540.00 114.73,540.00 114.73,540.00 114.72,540.00 114.72,540.00 114.72,540.00 114.72,540.00 114.71,540.00 114.71,540.00 114.71,540.00 114.71,540.00 114.71,540.00 114.71,540.00 114.71,540.00 114.71,540.00 114.70,540.00 114.70,540.00 114.70,540.00 114.70,540.00 114.70,540.00 114.69,540.00 114.69,540.00 114.69,540.00 114.69,540.00 114.69,540.00 114.69,540.00 114.69,540.00 114.68,540.00 114.68,540.00 114.68,540.00 114.68,540.00 114.68,540.00 114.68,540.00 114.68,540.00 114.68,540.00 114.68,540.00 114.68,540.00 114.67,540.00 114.67,540.00 114.67,540.00 114.67,540.00" fill="#2ca02c" fill-opacity="0.35" stroke="none"/>
<polyline points="114.67,540.00 114.67,501.41 114.67,503.65 114.67,505.89 114.68,496.19 114.68,498.43 114.68,501.41 114.68,501.41 114.68,496.93 114.68,496.93 114.68,498.43 114.68,495.44 114.68,493.20 114.68,493.20 114.69,494.70 114.69,493.95 114.69,496.19 114.69,490.97 114.69,489.47 114.69,492.46 114.69,491.71 114.70,488.73 114.70,487.23 114.70,488.73 114.70,485.00 114.70,487.23 114.71,485.74 114.71,486.49 114.71,482.01 114.71,482.01 114.71,481.26 114.71,479.03 114.71,479.77 114.71,481.26 114.72,480.52 114.72,478.28 114.72,481.26 114.72,477.53 114.73,479.03 114.73,477.53 114.73,472.31 114.73,471.56 114.73,475.29 114.73,472.31 114.73,473.06 114.73,468.58 114.74,470.07 114.74,472.31 114.74,467.83 114.74,467.83 114.74,467.83 114.74,467.08 114.74,466.34 114.74,464.85 114.74,462.61 114.74,466.34 114.75,465.59 114.75,463.35 114.75,462.61 114.75,457.38 114.75,460.37 114.75,458.87 114.75,461.86 114.75,456.63 114.76,455.14 114.76,458.13 114.76,455.89 114.76,457.38 114.76,455.14 114.77,454.39 114.77,455.14 114.77,455.89 114.77,450.66 114.77,454.39 114.77,449.17 114.77,451.41 114.77,454.39 114.78,449.91 114.78,448.42 114.78,448.42 114.78,446.18 114.78,446.18 114.78,446.18 114.78,445.43 114.79,446.93 114.79,443.94 114.79,443.94 114.79,445.43 114.79,440.95 114.79,439.46 114.79,434.98 114.79,439.46 114.79,434.98 114.80,434.98 114.80,434.23 114.81,432.74 114.81,433.48 114.82,434.23 114.82,431.24 114.82,431.24 114.82,431.99 114.82,433.48 114.82,431.24 114.82,427.51 114.82,429.75 114.82,429.00 114.82,425.27 114.83,429.75 114.83,423.77 114.83,427.51 114.84,426.76 114.84,426.01 114.84,425.27 114.84,421.53 114.84,424.52 114.84,423.03 114.84,419.29 114.85,420.04 114.85,419.29 114.85,416.30 114.85,417.05 114.85,416.30 114.85,415.56 114.85,412.57 114.85,415.56 114.85,415.56 114.85,414.81 114.86,416.30 114.86,413.31 114.86,409.58 114.86,408.83 114.86,407.34 114.86,408.08 114.86,408.83 114.86,406.59 114.87,405.09 114.87,405.09 114.88,405.09 114.88,403.60 114.88,404.35 114.88,404.35 114.88,402.10 114.89,403.60 114.89,402.10 114.89,404.35 114.90,402.85 114.90,398.37 114.90,395.38 114.90,396.13 114.90,394.63 114.90,399.12 114.91,390.89 114.91,394.63 114.91,393.88 114.91,396.13 114.92,393.14 114.92,394.63 114.92,393.14 114.92,392.39 114.92,388.65 114.92,392.39 114.92,387.90 114.92,387.90 114.92,386.41 114.93,388.65 114.93,387.90 114.93,382.67 114.93,386.41 114.93,380.43 114.93,383.42 114.93,381.92 114.94,383.42 114.94,381.92 114.95,378.93 114.95,378.93 114.95,380.43 114.95,378.93 114.95,378.18 114.95,376.69 114.96,374.45 114.96,376.69 114.96,373.70 114.96,372.95 114.97,372.95 114.97,374.45 114.98,372.20 114.98,369.96 114.98,367.72 114.98,369.96 114.98,369.21 114.99,369.96 115.00,366.22 115.00,365.47 115.00,368.46 115.01,364.72 115.01,366.22 115.01,363.23 115.01,360.24 115.02,361.73 115.02,361.73 115.03,362.48 115.03,360.24 115.04,362.48 115.04,358.74 115.04,358.74 115.05,358.74 115.06,356.50 115.06,356.50 115.06,357.25 115.06,352.01 115.07,349.76 115.07,353.50 115.08,352.01 115.08,351.26 115.08,349.02 115.08,352.76 115.08,349.76 115.08,349.76 115.09,346.77 115.09,347.52 115.09,346.02 115.09,346.02 115.10,345.28 115.10,345.28 115.10,343.03 115.10,340.79 115.11,341.54 115.11,339.29 115.11,340.04 115.11,336.30 115.12,343.78 115.12,340.04 115.12,340.79 115.13,340.04 115.13,337.79 115.13,335.55 115.13,335.55 115.14,337.79 115.14,336.30 115.14,334.80 115.15,335.55 115.15,331.06 115.15,328.81 115.15,332.56 115.15,325.82 115.16,330.31 115.16,327.32 115.16,326.57 115.16,326.57 115.16,325.07 115.16,326.57 115.17,326.57 115.17,323.58 115.17,322.08 115.17,321.33 115.19,320.58 115.19,321.33 115.20,322.08 115.21,319.83 115.21,317.59 115.21,318.34 115.22,319.08 115.22,319.08 115.22,316.84 115.22,316.09 115.23,313.10 115.23,313.84 115.24,313.84 115.24,313.84 115.25,310.85 115.26,313.10 115.26,310.10 115.27,312.35 115.27,308.60 115.27,306.36 115.28,305.61 115.29,307.11 115.29,306.36 115.29,304.86 115.30,304.86 115.31,301.87 115.31,304.11 115.32,302.61 115.33,301.87 115.34,301.87 115.34,302.61 115.34,299.62 115.34,298.87 115.34,299.62 115.35,295.13 115.35,292.88 115.35,297.37 115.35,292.13 115.36,297.37 115.36,295.13 115.36,293.63 115.36,295.13 115.36,291.38 115.37,292.88 115.38,289.14 115.39,289.88 115.39,287.64 115.39,288.39 115.39,286.89 115.39,288.39 115.39,286.89 115.39,288.39 115.39,281.65 115.39,281.65 115.40,285.39 115.40,283.14 115.41,283.14 115.41,280.90 115.42,281.65 115.42,277.90 115.43,277.15 115.43,277.15 115.43,273.41 115.44,277.15 115.44,272.66 115.45,276.40 115.45,275.65 115.46,273.41 115.46,275.65 115.47,272.66 115.47,271.16 115.47,274.15 115.47,271.16 115.48,268.91 115.49,271.91 115.49,268.16 115.50,268.16 115.50,266.66 115.53,267.41 115.53,266.66 115.53,267.41 115.53,264.42 115.53,261.42 115.54,262.17 115.55,262.92 115.56,261.42 115.56,262.17 115.56,259.17 115.56,260.67 115.57,258.42 115.58,259.17 115.58,257.67 115.59,256.92 115.60,256.92 115.61,252.43 115.62,253.17 115.62,253.92 115.62,253.92 115.62,253.17 115.63,252.43 115.64,253.17 115.64,250.93 115.64,249.43 115.65,247.93 115.66,248.68 115.66,247.93 115.68,248.68 115.69,244.18 115.70,247.18 115.71,247.18 115.73,244.18 115.73,244.18 115.73,244.18 115.73,242.68 115.74,241.18 115.74,238.93 115.76,241.93 115.77,236.68 115.77,236.68 115.77,237.43 115.77,236.68 115.77,237.43 115.77,235.94 115.77,235.19 115.77,233.69 115.77,235.19 115.78,234.44 115.79,232.94 115.81,228.44 115.81,231.44 115.85,232.94 115.85,226.94 115.86,231.44 115.87,228.44 115.89,227.69 115.89,227.69 115.90,225.44 115.90,224.69 115.90,225.44 115.91,226.94 115.91,220.94 115.92,225.44 115.92,223.19 115.92,219.44 115.92,219.44 115.94,221.69 115.96,218.69 115.97,217.19 115.97,215.69 115.98,216.44 115.98,217.19 116.00,215.69 116.03,216.44 116.04,214.19 116.05,213.44 116.05,211.94 116.06,211.94 116.09,209.69 116.10,208.19 116.10,209.69 116.13,210.44 116.13,206.69 116.15,208.19 116.16,205.94 116.17,208.19 116.17,207.44 116.19,202.94 116.22,205.19 116.25,202.94 116.27,202.19 116.28,202.94 116.30,200.69 116.30,199.94 116.32,201.44 116.36,198.44 116.39,198.44 116.39,195.44 116.42,199.19 116.43,196.94 116.46,195.44 116.46,194.69 116.47,192.44 116.47,194.69 116.48,192.44 116.51,192.44 116.56,189.44 116.56,190.94 116.61,191.69 116.65,189.44 116.70,189.44 116.71,187.93 116.73,184.93 116.96,186.43 116.96,186.43 117.00,183.43 117.02,184.93 117.04,183.43 117.10,183.43 117.20,181.18 117.21,182.68 117.23,180.43 117.63,178.93 118.05,178.18 118.15,178.93 118.28,176.68 118.88,178.93 126.04,177.43 126.22,176.68 126.42,175.93 126.55,175.93 127.15,174.43 127.20,172.93 127.46,172.17 127.55,172.93 127.88,171.42 127.93,172.17 127.97,170.67 127.99,169.17 128.09,169.17 128.10,168.42 128.10,167.67 128.12,166.17 128.13,163.92 128.14,164.67 128.20,165.42 128.20,162.42 128.28,163.17 128.32,161.67 128.34,160.91 128.64,163.17 128.68,160.16 128.76,159.41 128.85,159.41 128.92,157.91 128.92,156.41 128.93,157.16 128.96,154.91 128.97,154.91 129.16,154.91 129.28,153.41 129.28,153.41 129.32,151.91 129.38,152.66 129.43,151.91 129.44,150.40 129.47,150.40 129.61,149.65 129.65,148.90 129.72,149.65 129.79,146.65 129.83,146.65 129.99,147.40 130.04,145.15 130.16,145.90 130.21,145.15 130.28,142.14 130.30,142.14 130.32,141.39 130.37,142.14 130.38,139.14 130.45,138.39 130.46,139.14 130.53,137.64 130.55,137.64 130.60,136.14 130.71,136.89 130.73,136.89 130.76,135.38 130.78,133.13 130.88,135.38 131.09,133.88 131.19,131.63 131.25,130.88 131.29,130.88 131.32,130.13 131.45,128.62 131.47,130.13 131.70,127.87 131.71,126.37 131.76,126.37 131.95,126.37 131.95,125.62 132.25,125.62 132.54,123.37 132.66,122.61 132.76,123.37 132.90,121.11 133.43,121.86 133.45,119.61 133.54,120.36 133.60,119.61 133.87,118.11 134.50,118.11 135.58,118.11 156.31,116.60 157.57,115.10 158.15,115.85 158.55,112.85 158.60,113.60 159.12,112.85 159.14,111.34 159.81,112.10 160.32,110.59 160.56,110.59 160.60,109.84 160.62,109.09 160.72,108.34 160.74,108.34 160.91,107.59 161.04,106.84 161.18,105.33 161.25,105.33 161.37,104.58 161.50,105.33 161.54,103.08 161.71,103.08 162.39,102.33 162.43,101.57 162.70,100.82 162.74,100.07 163.07,99.32 163.07,98.57 163.08,98.57 163.41,98.57 163.53,97.82 163.78,97.07 164.07,94.81 164.90,94.81 165.23,94.06 165.38,92.56 166.34,93.31 167.30,91.80 212.08,91.80 213.70,91.05 214.07,90.30 214.39,89.55 215.27,89.55 215.65,88.80 217.09,88.04 218.11,87.29 218.20,86.54 218.92,86.54 219.00,85.79 219.56,85.04 222.41,83.53 224.17,83.53 324.19,83.53 324.53,82.03 326.51,82.03 327.84,81.28 327.87,81.28 328.15,79.78 328.42,79.78 328.96,79.02 329.11,78.27 329.15,77.52 329.24,76.77 329.27,76.77 331.12,76.02 331.57,75.26 334.40,74.51 334.55,75.26 334.71,73.76 335.97,73.01 489.71,72.26 489.96,72.26 492.32,71.50 492.56,71.50 494.15,70.75 494.78,70.75 495.31,70.00 496.60,70.00 496.96,70.00 497.04,70.00 900.00,70.00" fill="none" stroke="#2ca02c" stroke-width="0.9" stroke-opacity="0.85"/>
<polyline points="114.67,540.00 114.67,540.00 114.67,540.00 114.67,540.00 114.68,540.00 114.68,540.00 114.68,540.00 114.68,540.00 114.68,540.00 114.68,540.00 114.68,540.00 114.68,540.00 114.68,540.00 114.68,540.00 114.69,540.00 114.69,540.00 114.69,540.00 114.69,540.00 114.69,540.00 114.69,540.00 114.69,540.00 114.70,540.00 114.70,540.00 114.70,540.00 114.70,540.00 114.70,540.00 114.71,540.00 114.71,540.00 114.71,540.00 114.71,540.00 114.71,540.00 114.71,540.00 114.71,540.00 114.71,540.00 114.72,540.00 114.72,540.00 114.72,540.00 114.72,540.00 114.73,540.00 114.73,540.00 114.73,540.00 114.73,540.00 114.73,540.00 114.73,540.00 114.73,540.00 114.73,540.00 114.74,539.44 114.74,540.00 114.74,540.00 114.74,540.00 114.74,534.22 114.74,538.69 114.74,540.00 114.74,535.71 114.74,536.46 114.74,533.48 114.75,532.73 114.75,532.73 114.75,536.46 114.75,531.98 114.75,528.26 114.75,530.49 114.75,527.51 114.75,526.02 114.76,528.26 114.76,528.26 114.76,523.78 114.76,526.02 114.76,523.04 114.77,521.55 114.77,525.27 114.77,522.29 114.77,520.80 114.77,521.55 114.77,522.29 114.77,520.06 114.77,519.31 114.78,512.60 114.78,517.82 114.78,515.58 114.78,514.84 114.78,514.84 114.78,512.60 114.78,512.60 114.79,511.85 114.79,511.85 114.79,508.12 114.79,514.09 114.79,510.36 114.79,506.63 114.79,507.38 114.79,504.39 114.79,505.89 114.80,507.38 114.80,505.89 114.81,499.92 114.81,502.90 114.82,502.90 114.82,505.14 114.82,498.43 114.82,500.66 114.82,496.19 114.82,496.93 114.82,496.93 114.82,495.44 114.82,493.95 114.82,492.46 114.83,495.44 114.83,492.46 114.83,489.47 114.84,490.22 114.84,491.71 114.84,493.95 114.84,490.22 114.84,494.70 114.84,487.98 114.84,488.73 114.85,484.25 114.85,486.49 114.85,482.01 114.85,484.25 114.85,485.00 114.85,481.26 114.85,484.25 114.85,477.53 114.85,479.77 114.85,482.01 114.86,479.03 114.86,476.79 114.86,473.80 114.86,477.53 114.86,481.26 114.86,478.28 114.86,472.31 114.86,472.31 114.87,473.80 114.87,469.32 114.88,470.82 114.88,467.83 114.88,469.32 114.88,472.31 114.88,470.07 114.89,467.83 114.89,462.61 114.89,462.61 114.90,464.10 114.90,461.86 114.90,461.11 114.90,461.11 114.90,459.62 114.90,463.35 114.91,461.86 114.91,461.86 114.91,457.38 114.91,455.89 114.92,455.89 114.92,455.89 114.92,456.63 114.92,455.14 114.92,456.63 114.92,454.39 114.92,447.67 114.92,449.91 114.92,447.67 114.93,448.42 114.93,449.91 114.93,449.17 114.93,448.42 114.93,448.42 114.93,444.69 114.93,445.43 114.94,440.95 114.94,445.43 114.95,440.95 114.95,440.21 114.95,437.22 114.95,439.46 114.95,438.71 114.95,440.21 114.96,434.23 114.96,440.95 114.96,437.22 114.96,434.98 114.97,432.74 114.97,433.48 114.98,431.99 114.98,429.75 114.98,431.24 114.98,428.26 114.98,429.00 114.99,429.00 115.00,426.76 115.00,426.01 115.00,429.00 115.01,424.52 115.01,423.77 115.01,424.52 115.01,423.77 115.02,420.79 115.02,421.53 115.03,419.29 115.03,420.04 115.04,419.29 115.04,419.29 115.04,415.56 115.05,419.29 115.06,418.54 115.06,412.57 115.06,416.30 115.06,414.06 115.07,417.80 115.07,411.82 115.08,411.07 115.08,414.06 115.08,413.31 115.08,407.34 115.08,411.82 115.08,407.34 115.09,407.34 115.09,409.58 115.09,404.35 115.09,401.36 115.10,402.85 115.10,402.85 115.10,402.10 115.10,401.36 115.11,402.10 115.11,399.86 115.11,395.38 115.11,396.13 115.12,400.61 115.12,398.37 115.12,396.87 115.13,395.38 115.13,398.37 115.13,393.88 115.13,396.87 115.14,393.14 115.14,390.89 115.14,392.39 115.15,390.15 115.15,388.65 115.15,384.91 115.15,387.90 115.15,388.65 115.16,386.41 115.16,386.41 115.16,386.41 115.16,383.42 115.16,381.17 115.16,381.17 115.17,382.67 115.17,378.18 115.17,381.17 115.17,380.43 115.19,377.44 115.19,376.69 115.20,377.44 115.21,375.19 115.21,378.93 115.21,376.69 115.22,372.20 115.22,375.94 115.22,371.45 115.22,370.71 115.23,372.20 115.23,369.21 115.24,366.22 115.24,369.96 115.25,366.97 115.26,366.97 115.26,362.48 115.27,365.47 115.27,364.72 115.27,364.72 115.28,365.47 115.29,362.48 115.29,360.98 115.29,362.48 115.30,358.74 115.31,355.75 115.31,357.99 115.32,357.25 115.33,357.99 115.34,357.99 115.34,355.75 115.34,350.51 115.34,354.25 115.34,351.26 115.35,352.76 115.35,347.52 115.35,349.76 115.35,352.01 115.36,348.27 115.36,350.51 115.36,343.78 115.36,345.28 115.36,344.53 115.37,343.03 115.38,344.53 115.39,342.28 115.39,340.79 115.39,341.54 115.39,340.04 115.39,339.29 115.39,342.28 115.39,337.79 115.39,337.05 115.39,337.05 115.40,335.55 115.40,334.80 115.41,330.31 115.41,334.80 115.42,337.79 115.42,333.30 115.43,331.06 115.43,331.81 115.43,332.56 115.44,325.82 115.44,328.81 115.45,328.81 115.45,326.57 115.46,325.07 115.46,322.83 115.47,322.83 115.47,325.07 115.47,321.33 115.47,319.83 115.48,319.83 115.49,321.33 115.49,324.32 115.50,319.83 115.50,316.09 115.53,315.34 115.53,319.08 115.53,316.84 115.53,315.34 115.53,311.60 115.54,311.60 115.55,312.35 115.56,310.10 115.56,311.60 115.56,308.60 115.56,308.60 115.57,306.36 115.58,307.86 115.58,306.36 115.59,306.36 115.60,302.61 115.61,304.11 115.62,302.61 115.62,304.11 115.62,301.12 115.62,302.61 115.63,301.12 115.64,299.62 115.64,297.37 115.64,298.87 115.65,295.88 115.66,294.38 115.66,298.12 115.68,292.13 115.69,292.88 115.70,295.88 115.71,292.88 115.73,289.88 115.73,291.38 115.73,289.88 115.73,287.64 115.74,288.39 115.74,288.39 115.76,288.39 115.77,284.64 115.77,283.89 115.77,284.64 115.77,283.14 115.77,281.65 115.77,279.40 115.77,281.65 115.77,280.90 115.77,280.15 115.78,278.65 115.79,277.90 115.81,277.90 115.81,276.40 115.85,274.15 115.85,273.41 115.86,274.15 115.87,273.41 115.89,274.15 115.89,271.91 115.90,269.66 115.90,267.41 115.90,269.66 115.91,266.66 115.91,268.16 115.92,266.66 115.92,265.16 115.92,265.91 115.92,267.41 115.94,263.67 115.96,262.92 115.97,262.92 115.97,259.92 115.98,259.92 115.98,258.42 116.00,260.67 116.03,258.42 116.04,257.67 116.05,256.92 116.05,256.92 116.06,253.92 116.09,254.67 116.10,252.43 116.10,250.93 116.13,253.17 116.13,252.43 116.15,249.43 116.16,249.43 116.17,248.68 116.17,250.18 116.19,243.43 116.22,247.93 116.25,244.18 116.27,241.93 116.28,243.43 116.30,241.93 116.30,240.43 116.32,241.18 116.36,238.93 116.39,238.18 116.39,239.68 116.42,238.93 116.43,238.93 116.46,236.68 116.46,235.19 116.47,235.19 116.47,235.19 116.48,232.19 116.51,237.43 116.56,234.44 116.56,233.69 116.61,232.19 116.65,229.94 116.70,229.19 116.71,227.69 116.73,228.44 116.96,223.94 116.96,223.94 117.00,225.44 117.02,223.94 117.04,224.69 117.10,223.19 117.20,221.69 117.21,223.19 117.23,220.94 117.63,217.94 118.05,217.94 118.15,217.94 118.28,214.94 118.88,215.69 126.04,214.94 126.22,214.94 126.42,212.69 126.55,212.69 127.15,211.94 127.20,211.19 127.46,211.19 127.55,208.94 127.88,208.94 127.93,205.94 127.97,205.94 127.99,208.19 128.09,205.19 128.10,205.94 128.10,203.69 128.12,202.94 128.13,202.19 128.14,200.69 128.20,200.69 128.20,197.69 128.28,199.19 128.32,198.44 128.34,197.69 128.64,196.94 128.68,193.94 128.76,194.69 128.85,193.94 128.92,193.94 128.92,192.44 128.93,190.94 128.96,189.44 128.97,189.44 129.16,189.44 129.28,185.68 129.28,188.68 129.32,185.68 129.38,185.68 129.43,185.68 129.44,181.93 129.47,184.18 129.61,181.18 129.65,182.68 129.72,183.43 129.79,179.68 129.83,180.43 129.99,176.68 130.04,177.43 130.16,177.43 130.21,176.68 130.28,173.68 130.30,173.68 130.32,174.43 130.37,171.42 130.38,170.67 130.45,171.42 130.46,171.42 130.53,169.17 130.55,168.42 130.60,166.92 130.71,168.42 130.73,164.67 130.76,164.67 130.78,163.92 130.88,163.17 131.09,161.67 131.19,162.42 131.25,162.42 131.29,160.16 131.32,159.41 131.45,160.16 131.47,157.16 131.70,157.91 131.71,157.16 131.76,154.16 131.95,154.16 131.95,154.16 132.25,154.16 132.54,150.40 132.66,149.65 132.76,151.91 132.90,148.90 133.43,148.15 133.45,148.90 133.54,147.40 133.60,145.90 133.87,145.90 134.50,143.65 135.58,142.89 156.31,141.39 157.57,142.14 158.15,141.39 158.55,139.14 158.60,141.39 159.12,140.64 159.14,136.89 159.81,138.39 160.32,136.14 160.56,135.38 160.60,134.63 160.62,133.13 160.72,133.88 160.74,133.13 160.91,131.63 161.04,130.13 161.18,129.38 161.25,127.12 161.37,127.87 161.50,126.37 161.54,126.37 161.71,124.87 162.39,126.37 162.43,123.37 162.70,123.37 162.74,121.11 163.07,121.11 163.07,119.61 163.08,119.61 163.41,118.11 163.53,117.36 163.78,117.36 164.07,116.60 164.90,113.60 165.23,113.60 165.38,112.85 166.34,112.85 167.30,111.34 212.08,110.59 213.70,109.09 214.07,108.34 214.39,107.59 215.27,106.84 215.65,106.84 217.09,104.58 218.11,103.83 218.20,103.83 218.92,103.08 219.00,101.57 219.56,101.57 222.41,100.82 224.17,98.57 324.19,97.82 324.53,97.82 326.51,97.07 327.84,94.81 327.87,95.56 328.15,93.31 328.42,93.31 328.96,91.80 329.11,91.05 329.15,90.30 329.24,89.55 329.27,88.04 331.12,87.29 331.57,87.29 334.40,85.04 334.55,83.53 334.71,82.78 335.97,82.78 489.71,81.28 489.96,80.53 492.32,79.78 492.56,78.27 494.15,77.52 494.78,76.02 495.31,75.26 496.60,74.51 496.96,72.26 497.04,70.00 900.00,70.00" fill="none" stroke="#2ca02c" stroke-width="0.9" stroke-opacity="0.85"/>
<polyline points="114.67,540.00 114.67,539.44 114.67,538.69 114.67,537.95 114.68,537.20 114.68,536.46 114.68,535.71 114.68,534.97 114.68,534.22 114.68,533.48 114.68,532.73 114.68,531.98 114.68,531.24 114.68,530.49 114.69,529.75 114.69,529.00 114.69,528.26 114.69,527.51 114.69,526.77 114.69,526.02 114.69,525.27 114.70,524.53 114.70,523.78 114.70,523.04 114.70,522.29 114.70,521.55 114.71,520.80 114.71,520.06 114.71,519.31 114.71,518.56 114.71,517.82 114.71,517.07 114.71,516.33 114.71,515.58 114.72,514.84 114.72,514.09 114.72,513.34 114.72,512.60 114.73,511.85 114.73,511.11 114.73,510.36 114.73,509.61 114.73,508.87 114.73,508.12 114.73,507.38 114.73,506.63 114.74,505.89 114.74,505.14 114.74,504.39 114.74,503.65 114.74,502.90 114.74,502.16 114.74,501.41 114.74,500.66 114.74,499.92 114.74,499.17 114.75,498.43 114.75,497.68 114.75,496.93 114.75,496.19 114.75,495.44 114.75,494.70 114.75,493.95 114.75,493.20 114.76,492.46 114.76,491.71 114.76,490.97 114.76,490.22 114.76,489.47 114.77,488.73 114.77,487.98 114.77,487.23 114.77,486.49 114.77,485.74 114.77,485.00 114.77,484.25 114.77,483.50 114.78,482.76 114.78,482.01 114.78,481.26 114.78,480.52 114.78,479.77 114.78,479.03 114.78,478.28 114.79,477.53 114.79,476.79 114.79,476.04 114.79,475.29 114.79,474.55 114.79,473.80 114.79,473.06 114.79,472.31 114.79,471.56 114.80,470.82 114.80,470.07 114.81,469.32 114.81,468.58 114.82,467.83 114.82,467.08 114.82,466.34 114.82,465.59 114.82,464.85 114.82,464.10 114.82,463.35 114.82,462.61 114.82,461.86 114.82,461.11 114.83,460.37 114.83,459.62 114.83,458.87 114.84,458.13 114.84,457.38 114.84,456.63 114.84,455.89 114.84,455.14 114.84,454.39 114.84,453.65 114.85,452.90 114.85,452.15 114.85,451.41 114.85,450.66 114.85,449.91 114.85,449.17 114.85,448.42 114.85,447.67 114.85,446.93 114.85,446.18 114.86,445.43 114.86,444.69 114.86,443.94 114.86,443.19 114.86,442.45 114.86,441.70 114.86,440.95 114.86,440.21 114.87,439.46 114.87,438.71 114.88,437.97 114.88,437.22 114.88,436.47 114.88,435.72 114.88,434.98 114.89,434.23 114.89,433.48 114.89,432.74 114.90,431.99 114.90,431.24 114.90,430.50 114.90,429.75 114.90,429.00 114.90,428.26 114.91,427.51 114.91,426.76 114.91,426.01 114.91,425.27 114.92,424.52 114.92,423.77 114.92,423.03 114.92,422.28 114.92,421.53 114.92,420.79 114.92,420.04 114.92,419.29 114.92,418.54 114.93,417.80 114.93,417.05 114.93,416.30 114.93,415.56 114.93,414.81 114.93,414.06 114.93,413.31 114.94,412.57 114.94,411.82 114.95,411.07 114.95,410.32 114.95,409.58 114.95,408.83 114.95,408.08 114.95,407.34 114.96,406.59 114.96,405.84 114.96,405.09 114.96,404.35 114.97,403.60 114.97,402.85 114.98,402.10 114.98,401.36 114.98,400.61 114.98,399.86 114.98,399.12 114.99,398.37 115.00,397.62 115.00,396.87 115.00,396.13 115.01,395.38 115.01,394.63 115.01,393.88 115.01,393.14 115.02,392.39 115.02,391.64 115.03,390.89 115.03,390.15 115.04,389.40 115.04,388.65 115.04,387.90 115.05,387.16 115.06,386.41 115.06,385.66 115.06,384.91 115.06,384.17 115.07,383.42 115.07,382.67 115.08,381.92 115.08,381.17 115.08,380.43 115.08,379.68 115.08,378.93 115.08,378.18 115.09,377.44 115.09,376.69 115.09,375.94 115.09,375.19 115.10,374.45 115.10,373.70 115.10,372.95 115.10,372.20 115.11,371.45 115.11,370.71 115.11,369.96 115.11,369.21 115.12,368.46 115.12,367.72 115.12,366.97 115.13,366.22 115.13,365.47 115.13,364.72 115.13,363.98 115.14,363.23 115.14,362.48 115.14,361.73 115.15,360.98 115.15,360.24 115.15,359.49 115.15,358.74 115.15,357.99 115.16,357.25 115.16,356.50 115.16,355.75 115.16,355.00 115.16,354.25 115.16,353.50 115.17,352.76 115.17,352.01 115.17,351.26 115.17,350.51 115.19,349.76 115.19,349.02 115.20,348.27 115.21,347.52 115.21,346.77 115.21,346.02 115.22,345.28 115.22,344.53 115.22,343.78 115.22,343.03 115.23,342.28 115.23,341.54 115.24,340.79 115.24,340.04 115.25,339.29 115.26,338.54 115.26,337.79 115.27,337.05 115.27,336.30 115.27,335.55 115.28,334.80 115.29,334.05 115.29,333.30 115.29,332.56 115.30,331.81 115.31,331.06 115.31,330.31 115.32,329.56 115.33,328.81 115.34,328.07 115.34,327.32 115.34,326.57 115.34,325.82 115.34,325.07 115.35,324.32 115.35,323.58 115.35,322.83 115.35,322.08 115.36,321.33 115.36,320.58 115.36,319.83 115.36,319.08 115.36,318.34 115.37,317.59 115.38,316.84 115.39,316.09 115.39,315.34 115.39,314.59 115.39,313.84 115.39,313.10 115.39,312.35 115.39,311.60 115.39,310.85 115.39,310.10 115.40,309.35 115.40,308.60 115.41,307.86 115.41,307.11 115.42,306.36 115.42,305.61 115.43,304.86 115.43,304.11 115.43,303.36 115.44,302.61 115.44,301.87 115.45,301.12 115.45,300.37 115.46,299.62 115.46,298.87 115.47,298.12 115.47,297.37 115.47,296.62 115.47,295.88 115.48,295.13 115.49,294.38 115.49,293.63 115.50,292.88 115.50,292.13 115.53,291.38 115.53,290.63 115.53,289.88 115.53,289.14 115.53,288.39 115.54,287.64 115.55,286.89 115.56,286.14 115.56,285.39 115.56,284.64 115.56,283.89 115.57,283.14 115.58,282.39 115.58,281.65 115.59,280.90 115.60,280.15 115.61,279.40 115.62,278.65 115.62,277.90 115.62,277.15 115.62,276.40 115.63,275.65 115.64,274.90 115.64,274.15 115.64,273.41 115.65,272.66 115.66,271.91 115.66,271.16 115.68,270.41 115.69,269.66 115.70,268.91 115.71,268.16 115.73,267.41 115.73,266.66 115.73,265.91 115.73,265.16 115.74,264.42 115.74,263.67 115.76,262.92 115.77,262.17 115.77,261.42 115.77,260.67 115.77,259.92 115.77,259.17 115.77,258.42 115.77,257.67 115.77,256.92 115.77,256.17 115.78,255.42 115.79,254.67 115.81,253.92 115.81,253.17 115.85,252.43 115.85,251.68 115.86,250.93 115.87,250.18 115.89,249.43 115.89,248.68 115.90,247.93 115.90,247.18 115.90,246.43 115.91,245.68 115.91,244.93 115.92,244.18 115.92,243.43 115.92,242.68 115.92,241.93 115.94,241.18 115.96,240.43 115.97,239.68 115.97,238.93 115.98,238.18 115.98,237.43 116.00,236.68 116.03,235.94 116.04,235.19 116.05,234.44 116.05,233.69 116.06,232.94 116.09,232.19 116.10,231.44 116.10,230.69 116.13,229.94 116.13,229.19 116.15,228.44 116.16,227.69 116.17,226.94 116.17,226.19 116.19,225.44 116.22,224.69 116.25,223.94 116.27,223.19 116.28,222.44 116.30,221.69 116.30,220.94 116.32,220.19 116.36,219.44 116.39,218.69 116.39,217.94 116.42,217.19 116.43,216.44 116.46,215.69 116.46,214.94 116.47,214.19 116.47,213.44 116.48,212.69 116.51,211.94 116.56,211.19 116.56,210.44 116.61,209.69 116.65,208.94 116.70,208.19 116.71,207.44 116.73,206.69 116.96,205.94 116.96,205.19 117.00,204.44 117.02,203.69 117.04,202.94 117.10,202.19 117.20,201.44 117.21,200.69 117.23,199.94 117.63,199.19 118.05,198.44 118.15,197.69 118.28,196.94 118.88,196.19 126.04,195.44 126.22,194.69 126.42,193.94 126.55,193.19 127.15,192.44 127.20,191.69 127.46,190.94 127.55,190.19 127.88,189.44 127.93,188.68 127.97,187.93 127.99,187.18 128.09,186.43 128.10,185.68 128.10,184.93 128.12,184.18 128.13,183.43 128.14,182.68 128.20,181.93 128.20,181.18 128.28,180.43 128.32,179.68 128.34,178.93 128.64,178.18 128.68,177.43 128.76,176.68 128.85,175.93 128.92,175.18 128.92,174.43 128.93,173.68 128.96,172.93 128.97,172.17 129.16,171.42 129.28,170.67 129.28,169.92 129.32,169.17 129.38,168.42 129.43,167.67 129.44,166.92 129.47,166.17 129.61,165.42 129.65,164.67 129.72,163.92 129.79,163.17 129.83,162.42 129.99,161.67 130.04,160.91 130.16,160.16 130.21,159.41 130.28,158.66 130.30,157.91 130.32,157.16 130.37,156.41 130.38,155.66 130.45,154.91 130.46,154.16 130.53,153.41 130.55,152.66 130.60,151.91 130.71,151.15 130.73,150.40 130.76,149.65 130.78,148.90 130.88,148.15 131.09,147.40 131.19,146.65 131.25,145.90 131.29,145.15 131.32,144.40 131.45,143.65 131.47,142.89 131.70,142.14 131.71,141.39 131.76,140.64 131.95,139.89 131.95,139.14 132.25,138.39 132.54,137.64 132.66,136.89 132.76,136.14 132.90,135.38 133.43,134.63 133.45,133.88 133.54,133.13 133.60,132.38 133.87,131.63 134.50,130.88 135.58,130.13 156.31,129.38 157.57,128.62 158.15,127.87 158.55,127.12 158.60,126.37 159.12,125.62 159.14,124.87 159.81,124.12 160.32,123.37 160.56,122.61 160.60,121.86 160.62,121.11 160.72,120.36 160.74,119.61 160.91,118.86 161.04,118.11 161.18,117.36 161.25,116.60 161.37,115.85 161.50,115.10 161.54,114.35 161.71,113.60 162.39,112.85 162.43,112.10 162.70,111.34 162.74,110.59 163.07,109.84 163.07,109.09 163.08,108.34 163.41,107.59 163.53,106.84 163.78,106.08 164.07,105.33 164.90,104.58 165.23,103.83 165.38,103.08 166.34,102.33 167.30,101.57 212.08,100.82 213.70,100.07 214.07,99.32 214.39,98.57 215.27,97.82 215.65,97.07 217.09,96.31 218.11,95.56 218.20,94.81 218.92,94.06 219.00,93.31 219.56,92.56 222.41,91.80 224.17,91.05 324.19,90.30 324.53,89.55 326.51,88.80 327.84,88.04 327.87,87.29 328.15,86.54 328.42,85.79 328.96,85.04 329.11,84.29 329.15,83.53 329.24,82.78 329.27,82.03 331.12,81.28 331.57,80.53 334.40,79.78 334.55,79.02 334.71,78.27 335.97,77.52 489.71,76.77 489.96,76.02 492.32,75.26 492.56,74.51 494.15,73.76 494.78,73.01 495.31,72.26 496.60,71.50 496.96,70.75 497.04,70.00 900.00,70.00" fill="none" stroke="#2ca02c" stroke-width="2.0"/>
<rect x="86" y="514" width="90" height="20" fill="white" fill-opacity="0.85" stroke="#888"/>
<text x="92" y="528" font-weight="bold" fill="#2ca02c">n = 8</text>
</svg>