<svg xmlns="http://www.w3.org/2000/svg" viewBox="0 0 960 600" font-family="Helvetica, Arial, sans-serif" font-size="12">
<rect width="100%" height="100%" fill="white"/>
<text x="480.0" y="22" text-anchor="middle" font-size="16" font-weight="bold">Chunking benefit: n = 4 parallel chunks (pointwise 95% bootstrap CI)</text>
<text x="480.0" y="40" text-anchor="middle" fill="#555">size=12500 kB, link=1000 Mbps, RTT=50 ms, p=1.00e-06</text>
<text x="480.0" y="56" text-anchor="middle" fill="#555">scenario=optimistic, runs=500000, bootstrap B=500; curve is F_chunk(t)^n</text>
<rect x="80" y="70" width="820" height="470" fill="#fafafa" stroke="#888"/>
<line x1="80.00" y1="70" x2="80.00" y2="540" stroke="#e0e0e0"/>
<text x="80.00" y="556" text-anchor="middle" fill="#333">0.000</text>
<line x1="182.50" y1="70" x2="182.50" y2="540" stroke="#e0e0e0"/>
<text x="182.50" y="556" text-anchor="middle" fill="#333">1.25</text>
<line x1="285.00" y1="70" x2="285.00" y2="540" stroke="#e0e0e0"/>
<text x="285.00" y="556" text-anchor="middle" fill="#333">2.50</text>
<line x1="387.50" y1="70" x2="387.50" y2="540" stroke="#e0e0e0"/>
<text x="387.50" y="556" text-anchor="middle" fill="#333">3.75</text>
<line x1="490.00" y1="70" x2="490.00" y2="540" stroke="#e0e0e0"/>
<text x="490.00" y="556" text-anchor="middle" fill="#333">5.00</text>
<line x1="592.50" y1="70" x2="592.50" y2="540" stroke="#e0e0e0"/>
<text x="592.50" y="556" text-anchor="middle" fill="#333">6.25</text>
<line x1="695.00" y1="70" x2="695.00" y2="540" stroke="#e0e0e0"/>
<text x="695.00" y="556" text-anchor="middle" fill="#333">7.50</text>
<line x1="797.50" y1="70" x2="797.50" y2="540" stroke="#e0e0e0"/>
<text x="797.50" y="556" text-anchor="middle" fill="#333">8.75</text>
<line x1="900.00" y1="70" x2="900.00" y2="540" stroke="#e0e0e0"/>
<text x="900.00" y="556" text-anchor="middle" fill="#333">10.0</text>
<line x1="80" y1="540.00" x2="900" y2="540.00" stroke="#e0e0e0"/>
<text x="72" y="544.00" text-anchor="end" fill="#333">0.990</text>
<line x1="80" y1="493.00" x2="900" y2="493.00" stroke="#e0e0e0"/>
<text x="72" y="497.00" text-anchor="end" fill="#333">0.991</text>
<line x1="80" y1="446.00" x2="900" y2="446.00" stroke="#e0e0e0"/>
<text x="72" y="450.00" text-anchor="end" fill="#333">0.992</text>
<line x1="80" y1="399.00" x2="900" y2="399.00" stroke="#e0e0e0"/>
<text x="72" y="403.00" text-anchor="end" fill="#333">0.993</text>
<line x1="80" y1="352.00" x2="900" y2="352.00" stroke="#e0e0e0"/>
<text x="72" y="356.00" text-anchor="end" fill="#333">0.994</text>
<line x1="80" y1="305.00" x2="900" y2="305.00" stroke="#e0e0e0"/>
<text x="72" y="309.00" text-anchor="end" fill="#333">0.995</text>
<line x1="80" y1="258.00" x2="900" y2="258.00" stroke="#e0e0e0"/>
<text x="72" y="262.00" text-anchor="end" fill="#333">0.996</text>
<line x1="80" y1="211.00" x2="900" y2="211.00" stroke="#e0e0e0"/>
<text x="72" y="215.00" text-anchor="end" fill="#333">0.997</text>
<line x1="80" y1="164.00" x2="900" y2="164.00" stroke="#e0e0e0"/>
<text x="72" y="168.00" text-anchor="end" fill="#333">0.998</text>
<line x1="80" y1="117.00" x2="900" y2="117.00" stroke="#e0e0e0"/>
<text x="72" y="121.00" text-anchor="end" fill="#333">0.999</text>
<line x1="80" y1="70.00" x2="900" y2="70.00" stroke="#e0e0e0"/>
<text x="72" y="74.00" text-anchor="end" fill="#333">1.000</text>
<line x1="80" y1="540.00" x2="900" y2="540.00" stroke="#888" stroke-width="1" stroke-dasharray="4,4"/>
<text x="894.00" y="536.00" text-anchor="end" fill="#555" font-style="italic">P99</text>
<text x="490.0" y="585" text-anchor="middle">Download time (seconds)</text>
<text transform="translate(20,305.0) rotate(-90)" text-anchor="middle">Cumulative probability  (whole-file)</text>
<polygon points="118.73,540.00 118.73,512.11 118.73,514.73 118.73,515.85 118.73,512.49 118.74,510.99 118.74,513.23 118.74,513.23 118.74,509.87 118.74,510.25 118.74,512.11 118.74,509.50 118.74,508.38 118.74,508.38 118.74,510.25 118.74,509.50 118.74,512.11 118.74,506.51 118.74,506.88 118.74,508.00 118.74,508.38 118.74,505.39 118.74,507.63 118.75,506.14 118.75,505.02 118.75,506.14 118.75,505.76 118.75,505.76 118.75,503.15 118.75,503.90 118.75,502.40 118.75,501.28 118.75,501.66 118.75,502.40 118.75,502.78 118.75,503.90 118.75,503.15 118.76,501.28 118.76,501.66 118.76,502.40 118.76,498.67 118.76,497.92 118.76,500.16 118.76,497.92 118.76,498.30 118.76,496.43 118.76,497.92 118.76,496.06 118.76,496.06 118.76,496.43 118.76,496.06 118.76,495.31 118.77,497.55 118.77,494.94 118.77,495.31 118.77,493.44 118.77,495.31 118.77,492.69 118.77,492.69 118.77,493.82 118.77,493.82 118.77,491.20 118.77,493.82 118.77,492.69 118.77,489.33 118.78,491.57 118.78,490.08 118.78,489.33 118.78,489.71 118.78,490.08 118.78,487.09 118.78,491.20 118.78,485.60 118.78,487.84 118.78,490.83 118.78,487.09 118.78,488.96 118.79,489.71 118.79,486.35 118.79,485.60 118.79,485.97 118.79,486.35 118.79,482.61 118.79,485.23 118.79,484.10 118.79,484.85 118.79,485.97 118.79,484.10 118.80,481.86 118.80,483.73 118.80,481.12 118.80,478.88 118.80,479.62 118.80,478.13 118.80,479.25 118.80,480.00 118.80,479.62 118.80,477.75 118.80,478.88 118.80,475.89 118.80,479.25 118.80,477.75 118.80,477.75 118.80,476.63 118.81,475.89 118.81,476.26 118.81,475.89 118.81,474.39 118.81,475.51 118.81,473.27 118.81,475.89 118.81,475.51 118.81,475.89 118.81,474.02 118.81,471.78 118.81,474.39 118.81,473.65 118.81,470.66 118.81,471.78 118.81,471.03 118.81,469.16 118.82,469.91 118.82,469.54 118.82,468.79 118.82,466.92 118.82,469.54 118.82,468.42 118.82,469.54 118.82,469.16 118.82,471.40 118.82,469.16 118.82,466.17 118.83,463.18 118.83,465.80 118.83,466.17 118.83,463.93 118.83,462.06 118.83,463.93 118.83,464.68 118.83,463.93 118.83,460.20 118.83,463.93 118.83,462.44 118.83,463.18 118.83,462.44 118.83,460.94 118.83,461.69 118.83,462.44 118.84,457.58 118.84,459.82 118.84,459.07 118.84,458.70 118.84,458.70 118.84,457.21 118.84,458.70 118.85,457.95 118.85,456.08 118.85,459.82 118.85,458.33 118.85,457.58 118.85,455.71 118.85,458.70 118.85,455.71 118.85,454.22 118.85,455.71 118.85,454.96 118.86,454.22 118.86,454.96 118.86,451.97 118.86,450.11 118.86,453.47 118.86,450.48 118.86,454.96 118.86,452.35 118.86,451.23 118.86,449.36 118.86,451.60 118.86,450.48 118.86,450.11 118.86,451.23 118.86,448.24 118.86,449.36 118.86,448.98 118.86,445.99 118.87,449.73 118.87,446.37 118.87,444.13 118.87,447.12 118.87,444.87 118.87,444.87 118.87,445.25 118.87,446.37 118.87,445.99 118.87,446.74 118.87,443.75 118.87,445.25 118.87,443.00 118.88,444.50 118.88,443.38 118.88,440.01 118.88,443.00 118.88,442.63 118.88,441.88 118.88,440.76 118.88,441.51 118.88,441.51 118.88,440.01 118.89,440.01 118.89,437.77 118.89,439.27 118.89,438.89 118.89,438.89 118.90,434.41 118.90,437.40 118.90,436.28 118.90,435.53 118.90,435.16 118.91,437.40 118.91,435.90 118.91,435.90 118.91,432.16 118.91,435.53 118.91,432.16 118.91,431.79 118.91,432.16 118.91,434.41 118.91,432.16 118.92,431.79 118.92,430.67 118.92,430.30 118.92,430.30 118.92,429.17 118.92,432.16 118.92,431.42 118.93,429.92 118.93,430.67 118.93,429.92 118.93,428.05 118.93,428.80 118.93,428.05 118.93,428.80 118.93,428.43 118.93,428.05 118.94,425.81 118.94,426.18 118.94,424.69 118.94,424.31 118.94,424.31 118.94,425.44 118.94,423.19 118.95,424.31 118.95,421.32 118.95,422.82 118.95,423.19 118.95,420.95 118.95,423.57 118.95,421.32 118.95,419.45 118.95,419.45 118.95,421.32 118.96,418.33 118.96,419.08 118.96,418.71 118.96,419.83 118.96,419.08 118.96,420.95 118.96,417.21 118.96,417.96 118.96,417.58 118.96,418.33 118.96,416.09 118.96,416.09 118.96,414.97 118.96,414.59 118.96,415.71 118.96,414.97 118.97,412.72 118.97,411.97 118.97,411.60 118.97,413.10 118.97,412.35 118.97,413.10 118.97,411.97 118.97,409.73 118.97,411.60 118.97,412.72 118.97,409.73 118.98,410.85 118.98,411.97 118.98,409.73 118.98,409.73 118.98,408.61 118.98,406.37 118.98,405.99 118.98,409.36 118.98,404.50 118.98,409.73 118.98,408.61 118.98,407.11 118.98,407.86 118.98,404.50 118.98,403.37 118.98,404.12 118.98,403.00 118.98,404.12 118.98,402.63 118.99,404.12 118.99,403.75 118.99,403.37 118.99,404.87 118.99,402.25 119.00,401.50 119.00,401.13 119.00,401.50 119.00,401.13 119.00,400.76 119.00,401.50 119.00,397.39 119.00,399.26 119.00,400.01 119.00,395.89 119.00,397.02 119.00,397.02 119.00,395.15 119.00,396.27 119.01,397.76 119.01,397.02 119.01,395.52 119.01,396.27 119.01,395.15 119.01,394.40 119.01,394.40 119.01,395.89 119.01,393.27 119.02,393.27 119.02,391.03 119.02,393.27 119.02,393.65 119.02,393.27 119.03,392.53 119.03,392.15 119.03,389.91 119.03,388.79 119.03,388.79 119.03,391.40 119.03,389.53 119.03,390.28 119.03,389.16 119.03,388.41 119.03,387.66 119.03,387.29 119.04,385.79 119.04,387.66 119.04,384.30 119.04,386.17 119.04,385.79 119.04,385.04 119.04,386.17 119.05,385.42 119.05,385.79 119.05,385.42 119.05,386.17 119.05,384.67 119.05,383.55 119.05,383.17 119.06,382.05 119.06,380.18 119.06,382.05 119.06,383.17 119.07,380.56 119.07,383.55 119.07,380.93 119.07,381.68 119.07,379.43 119.07,379.06 119.08,377.56 119.08,375.32 119.08,377.94 119.08,378.68 119.08,376.81 119.08,376.81 119.08,376.44 119.08,377.94 119.09,375.32 119.09,374.57 119.09,377.94 119.09,374.94 119.09,374.57 119.09,371.58 119.09,375.32 119.09,373.82 119.10,373.45 119.10,371.95 119.10,372.32 119.10,372.32 119.10,371.20 119.10,371.20 119.10,369.70 119.10,370.45 119.11,372.70 119.11,370.08 119.12,370.45 119.12,369.70 119.12,368.21 119.12,367.46 119.12,368.96 119.12,366.71 119.12,367.46 119.12,366.34 119.12,367.09 119.13,365.59 119.13,365.59 119.13,366.34 119.13,364.09 119.13,365.21 119.13,364.47 119.13,363.72 119.14,362.59 119.14,361.47 119.14,362.22 119.14,364.09 119.14,362.22 119.14,362.59 119.14,360.72 119.14,359.97 119.14,362.22 119.14,359.23 119.15,360.72 119.15,359.23 119.15,358.85 119.15,358.48 119.15,359.23 119.15,356.98 119.15,356.98 119.15,356.61 119.15,357.35 119.15,355.86 119.16,355.86 119.16,356.61 119.16,353.61 119.16,356.23 119.16,355.86 119.16,353.24 119.16,356.61 119.17,352.11 119.17,352.11 119.17,352.49 119.17,350.62 119.17,351.74 119.17,351.74 119.17,352.49 119.17,350.62 119.18,348.00 119.18,350.24 119.18,350.24 119.18,348.75 119.18,348.75 119.18,349.49 119.18,348.75 119.18,347.25 119.19,347.25 119.19,347.62 119.19,345.75 119.19,347.25 119.19,347.25 119.19,347.25 119.20,347.25 119.20,345.75 119.20,345.00 119.20,345.38 119.20,344.25 119.20,344.25 119.20,343.51 119.20,341.63 119.20,343.13 119.21,340.14 119.21,343.13 119.21,342.38 119.21,340.14 119.21,341.26 119.21,341.26 119.21,342.01 119.21,340.51 119.22,339.39 119.22,341.63 119.22,339.01 119.22,337.89 119.23,337.52 119.23,335.27 119.23,336.77 119.23,336.77 119.23,338.64 119.23,335.64 119.24,335.64 119.24,336.02 119.24,336.39 119.24,334.52 119.25,334.52 119.25,331.90 119.25,331.90 119.25,333.77 119.25,334.52 119.25,334.52 119.25,332.27 119.25,330.03 119.26,331.90 119.26,331.15 119.26,330.78 119.26,331.52 119.26,329.28 119.26,331.90 119.26,329.28 119.26,328.53 119.26,332.27 119.27,328.53 119.27,327.78 119.27,329.28 119.27,330.03 119.27,325.91 119.27,328.15 119.27,327.03 119.27,326.66 119.28,325.16 119.28,325.16 119.28,324.78 119.28,323.66 119.29,324.78 119.29,322.54 119.29,322.91 119.29,324.78 119.29,323.66 119.30,320.29 119.30,323.29 119.30,322.16 119.30,321.04 119.30,321.79 119.30,320.29 119.31,320.67 119.31,319.54 119.31,320.67 119.31,319.54 119.31,318.42 119.31,316.92 119.32,316.55 119.32,317.29 119.32,318.04 119.32,315.05 119.33,316.55 119.33,315.42 119.33,317.29 119.33,312.05 119.33,313.55 119.33,313.55 119.34,315.42 119.34,315.05 119.34,312.05 119.34,314.30 119.34,314.30 119.34,312.43 119.34,312.05 119.35,310.55 119.35,309.43 119.36,311.68 119.36,309.05 119.37,309.43 119.37,310.18 119.37,311.30 119.37,310.18 119.37,309.80 119.37,308.68 119.37,307.93 119.38,306.43 119.38,306.43 119.38,309.05 119.38,307.18 119.38,306.06 119.39,305.31 119.39,303.81 119.39,305.31 119.39,305.31 119.39,305.68 119.39,305.31 119.40,301.19 119.40,300.81 119.40,301.56 119.41,301.19 119.41,302.31 119.41,302.31 119.41,302.69 119.41,303.06 119.41,301.19 119.42,298.94 119.42,300.81 119.42,300.06 119.42,298.19 119.43,297.82 119.43,298.57 119.43,297.07 119.43,297.44 119.43,297.44 119.44,296.32 119.44,295.94 119.44,298.19 119.44,295.19 119.44,295.57 119.44,295.94 119.45,295.57 119.45,294.07 119.45,294.44 119.45,292.57 119.45,294.82 119.46,292.57 119.46,292.95 119.46,293.32 119.46,290.32 119.46,291.45 119.46,291.82 119.47,292.20 119.49,292.20 119.49,289.95 119.49,289.57 119.50,289.95 119.50,289.20 119.50,288.45 119.50,286.58 119.51,288.82 119.51,286.20 119.52,287.33 119.52,287.33 119.53,286.58 119.54,288.45 119.54,285.45 119.54,285.45 119.54,286.95 119.54,285.83 119.54,283.95 119.54,282.08 119.54,285.08 119.55,283.58 119.55,282.83 119.55,285.08 119.55,283.20 119.55,282.45 119.55,282.45 119.55,282.45 119.55,281.71 119.56,280.21 119.56,282.83 119.56,280.58 119.57,279.46 119.57,278.33 119.57,277.58 119.57,278.33 119.57,277.58 119.58,277.96 119.58,276.83 119.58,277.58 119.58,277.58 119.59,277.58 119.59,276.83 119.59,275.33 119.59,275.33 119.59,273.46 119.60,273.84 119.60,272.71 119.61,273.46 119.61,272.34 119.61,274.59 119.61,271.96 119.62,271.96 119.62,271.21 119.62,272.34 119.63,269.34 119.63,270.84 119.63,270.46 119.63,269.34 119.63,270.46 119.64,269.34 119.64,267.09 119.64,268.59 119.65,269.71 119.65,267.84 119.65,269.71 119.65,266.34 119.65,267.46 119.65,265.96 119.67,267.09 119.67,264.84 119.68,265.96 119.68,265.59 119.68,265.96 119.68,265.22 119.68,264.47 119.69,262.59 119.69,262.22 119.69,264.09 119.70,261.84 119.70,262.22 119.71,262.22 119.71,263.72 119.72,261.84 119.72,261.84 119.72,259.97 119.72,259.22 119.73,260.34 119.73,261.47 119.73,259.59 119.73,259.59 119.73,259.59 119.74,258.47 119.74,258.09 119.74,256.59 119.74,256.22 119.74,254.34 119.75,258.47 119.75,254.34 119.75,256.59 119.75,256.22 119.75,253.59 119.76,254.34 119.76,253.22 119.76,255.09 119.77,253.22 119.77,255.09 119.77,252.84 119.78,253.59 119.78,252.09 119.79,251.35 119.79,250.97 119.79,250.97 119.79,251.72 119.79,249.85 119.79,251.35 119.80,250.60 119.80,249.10 119.80,248.35 119.81,248.72 119.81,247.60 119.82,247.97 119.82,246.85 119.82,247.97 119.82,247.60 119.82,247.60 119.82,246.85 119.82,245.72 119.83,245.35 119.84,245.35 119.85,244.22 119.85,245.35 119.85,241.22 119.85,244.22 119.85,241.60 119.85,242.72 119.85,242.35 119.85,242.72 119.86,241.22 119.86,241.60 119.86,241.22 119.86,240.10 119.86,238.97 119.87,237.47 119.87,239.35 119.87,238.97 119.87,239.35 119.88,237.47 119.88,238.60 119.89,236.72 119.89,237.85 119.90,236.35 119.91,236.72 119.91,234.47 119.91,235.97 119.91,235.60 119.91,235.22 119.92,235.22 119.93,234.10 119.94,232.97 119.94,233.72 119.95,231.85 119.95,233.35 119.96,232.22 119.96,232.60 119.96,231.47 119.97,232.97 119.97,231.10 119.97,229.97 119.97,230.72 119.98,231.10 119.98,229.22 119.98,226.60 119.99,228.85 119.99,229.22 119.99,228.85 120.02,228.10 120.02,228.47 120.03,228.47 120.03,228.47 120.04,225.85 120.05,226.60 120.05,225.10 120.06,225.85 120.06,226.60 120.07,223.60 120.07,224.72 120.08,223.22 120.08,223.60 120.09,220.97 120.09,222.85 120.10,222.47 120.11,222.10 120.12,221.34 120.13,221.34 120.13,220.97 120.16,220.59 120.16,222.47 120.16,220.22 120.17,219.09 120.17,219.09 120.18,217.59 120.18,217.59 120.20,219.47 120.20,219.09 120.20,217.97 120.21,216.09 120.21,217.97 120.22,214.59 120.23,216.09 120.23,217.22 120.23,213.84 120.23,214.59 120.24,214.22 120.25,214.97 120.26,213.47 120.26,212.34 120.27,212.34 120.27,210.84 120.28,213.09 120.28,210.84 120.28,210.09 120.29,211.22 120.29,211.59 120.31,211.97 120.32,211.22 120.32,210.84 120.34,208.97 120.34,209.34 120.36,208.22 120.36,207.46 120.38,208.22 120.39,207.09 120.41,206.71 120.43,206.34 120.43,206.71 120.43,207.09 120.44,206.34 120.44,206.34 120.44,205.21 120.44,205.21 120.45,204.84 120.46,203.34 120.46,204.46 120.47,202.96 120.47,203.34 120.48,202.96 120.54,202.21 120.55,201.46 120.56,200.71 120.56,201.84 120.56,200.71 120.56,201.09 120.57,199.59 120.57,200.71 120.58,200.34 120.59,199.59 120.62,197.33 120.67,198.08 120.68,198.08 120.69,198.84 120.71,196.21 120.74,196.58 120.74,195.83 120.76,195.83 120.78,195.08 120.79,196.58 120.81,195.08 120.82,194.71 120.82,193.96 120.87,195.83 120.89,193.58 120.91,195.08 120.95,192.83 120.96,190.58 121.03,192.83 121.03,190.58 121.05,192.08 121.08,192.08 121.08,191.33 121.09,191.71 121.15,189.83 121.16,189.83 121.19,190.20 121.21,190.20 121.39,189.08 121.45,187.58 121.49,189.08 121.50,188.70 121.55,187.58 121.58,186.45 121.62,187.58 121.75,188.33 121.94,185.33 121.96,186.45 122.12,185.33 122.57,185.70 123.18,184.58 124.37,184.20 127.25,184.20 128.16,183.07 129.28,181.20 129.44,181.57 129.71,183.45 129.79,182.32 129.96,181.57 130.37,181.57 130.50,181.57 130.59,179.70 130.68,181.57 130.80,180.45 130.81,180.45 130.88,180.07 130.91,178.95 131.16,178.95 131.30,178.95 131.32,178.19 131.38,177.07 131.46,177.44 131.54,176.32 131.63,177.07 131.77,175.57 131.81,175.57 131.86,176.32 131.89,176.32 131.90,174.07 131.96,174.44 132.06,173.69 132.06,173.69 132.12,174.07 132.14,172.94 132.17,170.69 132.50,173.31 132.52,170.31 132.52,170.69 132.53,171.06 132.56,170.69 132.57,170.31 132.59,170.31 132.62,169.19 132.63,169.94 132.64,168.81 132.74,168.81 132.75,167.31 132.79,167.31 132.81,168.43 132.88,167.31 132.91,166.18 132.94,166.18 132.94,165.81 132.99,165.06 133.00,164.68 133.01,165.81 133.03,164.30 133.03,164.68 133.05,164.68 133.11,163.18 133.12,162.05 133.13,164.30 133.14,162.80 133.14,161.30 133.15,163.18 133.17,162.80 133.18,161.68 133.18,160.93 133.20,161.30 133.25,160.18 133.31,159.80 133.34,159.05 133.34,158.67 133.36,159.05 133.37,158.67 133.39,157.92 133.40,157.92 133.42,157.92 133.43,156.80 133.44,156.04 133.46,156.04 133.50,158.30 133.53,154.54 133.53,155.67 133.62,154.54 133.64,154.17 133.66,153.04 133.77,153.42 133.78,153.79 133.91,153.79 133.93,152.67 133.94,153.04 133.97,152.29 134.03,151.54 134.05,151.16 134.05,151.91 134.12,151.54 134.15,150.41 134.16,150.41 134.20,149.29 134.21,149.66 134.29,148.91 134.39,148.16 134.41,148.16 134.48,147.03 134.58,148.53 134.58,147.41 134.60,147.03 134.73,147.78 134.73,145.15 134.74,146.66 134.80,147.03 134.80,145.91 134.87,145.15 134.89,145.53 134.92,143.28 134.93,142.53 135.09,142.53 135.13,143.28 135.20,143.28 135.29,142.53 135.30,141.40 135.36,142.15 135.36,141.40 135.38,139.15 135.46,141.40 135.46,139.52 135.48,139.90 135.51,139.15 135.53,138.77 135.57,139.15 135.58,138.02 135.58,137.64 135.66,137.64 135.68,136.52 135.79,136.89 135.82,136.14 135.88,136.52 135.94,136.89 135.97,136.14 136.14,134.64 136.21,134.64 136.31,134.64 136.34,133.89 136.36,133.89 136.38,133.89 136.67,133.89 136.71,133.14 136.78,132.76 136.86,132.76 137.01,132.01 137.02,132.01 137.18,130.88 137.18,129.76 137.25,130.88 137.73,130.51 137.86,129.76 137.90,130.88 138.25,129.00 138.33,129.00 138.33,128.25 138.52,127.50 138.54,127.50 138.71,127.13 160.43,127.13 161.89,126.00 163.33,126.00 163.38,126.37 163.60,125.25 163.61,125.25 163.77,124.50 163.79,125.62 163.85,124.12 163.87,123.74 164.08,122.99 164.14,122.99 164.21,122.99 164.24,122.62 164.37,121.87 164.58,121.49 164.67,120.74 164.68,121.49 164.75,119.61 164.77,120.74 164.89,119.61 164.89,119.61 164.91,118.86 165.03,118.86 165.03,118.86 165.06,118.49 165.10,118.86 165.15,116.98 165.33,116.98 165.41,116.98 165.51,115.10 165.59,115.48 165.61,116.23 165.71,115.48 165.71,115.86 165.77,115.10 165.77,113.98 165.79,114.73 165.81,113.60 165.97,113.60 165.98,112.85 166.04,112.85 166.40,112.47 166.62,111.72 166.86,111.72 167.28,110.97 167.31,110.97 167.38,110.97 167.40,110.22 167.51,110.22 167.53,109.47 167.58,109.84 167.62,108.72 167.68,108.34 167.78,107.59 167.79,107.96 167.88,107.21 167.92,107.59 167.93,106.84 167.94,106.09 168.04,105.71 168.17,106.84 168.26,105.71 168.57,106.09 168.80,104.21 169.11,103.46 169.19,104.96 169.25,103.08 169.27,103.83 169.34,102.70 169.44,103.46 169.62,102.70 169.74,101.95 169.76,101.95 170.03,102.70 170.39,101.20 171.09,100.82 171.22,100.07 171.27,99.70 171.30,99.32 171.93,99.70 172.25,98.95 173.15,98.95 176.60,97.82 218.47,97.82 220.30,97.82 220.95,96.69 221.24,97.44 221.30,96.31 221.47,96.31 221.69,96.31 221.85,96.69 221.91,95.56 222.29,95.19 222.48,94.81 222.63,94.06 223.02,92.56 223.09,93.31 223.22,93.31 223.40,92.56 223.50,92.18 223.63,92.56 224.61,91.80 224.68,91.43 224.81,91.05 225.30,90.68 225.43,90.30 225.51,90.68 225.77,89.92 225.89,89.55 226.47,89.92 226.48,89.55 226.48,88.42 226.82,88.80 226.85,87.67 226.95,87.67 227.26,88.05 227.66,86.54 227.94,86.92 228.02,86.17 228.42,86.17 228.74,85.41 229.49,84.66 230.38,84.29 230.51,84.29 230.87,85.04 234.08,83.91 234.57,83.91 328.18,83.53 328.35,82.78 329.09,83.16 329.40,82.03 331.12,82.03 331.21,82.41 331.64,81.28 331.69,80.90 331.90,80.90 332.24,80.53 332.95,80.53 332.99,80.15 333.01,79.40 333.09,79.40 334.74,79.02 334.91,78.65 335.05,78.65 335.32,78.27 336.00,77.90 336.05,77.90 336.23,77.14 336.44,76.77 337.88,76.77 338.79,76.02 339.17,75.64 339.45,75.64 340.64,75.26 344.19,75.26 345.19,74.51 521.72,74.14 521.87,74.14 522.84,73.76 524.44,73.38 527.72,73.38 529.47,73.01 529.67,72.63 530.11,72.63 530.50,72.26 531.23,71.88 531.85,71.50 533.12,71.50 533.44,71.13 534.43,70.75 628.07,70.75 629.10,70.38 629.34,70.38 632.31,70.00 634.20,70.00 634.69,70.00 636.25,70.00 900.00,70.00 900.00,70.00 636.25,70.00 634.69,71.13 634.20,71.88 632.31,72.26 629.34,73.01 629.10,73.76 628.07,74.51 534.43,74.51 533.44,75.26 533.12,75.64 531.85,76.02 531.23,76.77 530.50,76.77 530.11,77.52 529.67,77.90 529.47,79.02 527.72,79.02 524.44,79.78 522.84,79.78 521.87,80.53 521.72,80.53 345.19,81.65 344.19,81.65 340.64,82.41 339.45,83.16 339.17,83.53 338.79,83.91 337.88,83.91 336.44,85.04 336.23,84.66 336.05,85.79 336.00,85.41 335.32,86.17 335.05,86.54 334.91,88.05 334.74,87.67 333.09,88.05 333.01,88.80 332.99,89.17 332.95,89.55 332.24,89.92 331.90,90.30 331.69,90.30 331.64,91.43 331.21,91.80 331.12,92.18 329.40,92.56 329.09,92.93 328.35,92.93 328.18,94.06 234.57,94.06 234.08,94.44 230.87,94.81 230.51,95.19 230.38,96.31 229.49,96.31 228.74,97.44 228.42,97.07 228.02,98.19 227.94,98.95 227.66,98.95 227.26,98.95 226.95,99.32 226.85,100.07 226.82,100.07 226.48,100.07 226.48,101.20 226.47,101.20 225.89,102.70 225.77,102.33 225.51,102.70 225.43,103.83 225.30,103.83 224.81,104.58 224.68,104.58 224.61,103.83 223.63,104.96 223.50,105.33 223.40,106.46 223.22,107.21 223.09,106.84 223.02,106.46 222.63,106.84 222.48,107.59 222.29,107.59 221.91,108.34 221.85,110.22 221.69,110.97 221.47,110.22 221.30,109.47 221.24,110.22 220.95,111.35 220.30,111.72 218.47,111.72 176.60,112.85 173.15,112.47 172.25,113.60 171.93,113.23 171.30,113.60 171.27,113.98 171.22,113.98 171.09,116.23 170.39,115.86 170.03,116.98 169.76,116.61 169.74,116.98 169.62,117.73 169.44,118.49 169.34,117.73 169.27,118.86 169.25,119.61 169.19,120.36 169.11,120.36 168.80,120.36 168.57,120.74 168.26,121.49 168.17,120.74 168.04,122.99 167.94,121.87 167.93,123.37 167.92,124.87 167.88,123.74 167.79,123.74 167.78,124.50 167.68,124.50 167.62,125.25 167.58,125.62 167.53,126.37 167.51,126.75 167.40,127.13 167.38,127.13 167.31,127.50 167.28,127.88 166.86,128.25 166.62,128.25 166.40,129.38 166.04,130.88 165.98,130.51 165.97,131.63 165.81,131.26 165.79,131.26 165.77,132.38 165.77,132.01 165.71,132.38 165.71,132.38 165.61,133.51 165.59,134.64 165.51,134.64 165.41,134.26 165.33,135.39 165.15,134.64 165.10,135.77 165.06,137.27 165.03,136.14 165.03,137.64 164.91,138.39 164.89,138.02 164.89,137.27 164.77,138.02 164.75,139.52 164.68,139.15 164.67,139.52 164.58,140.27 164.37,140.65 164.24,141.02 164.21,141.40 164.14,141.02 164.08,142.15 163.87,142.15 163.85,142.15 163.79,144.40 163.77,143.65 163.61,144.78 163.60,144.03 163.38,144.40 163.33,145.53 161.89,146.66 160.43,147.03 138.71,147.03 138.54,147.78 138.52,147.41 138.33,149.29 138.33,149.66 138.25,150.04 137.90,149.66 137.86,149.66 137.73,149.29 137.25,151.16 137.18,151.91 137.18,151.54 137.02,151.16 137.01,152.67 136.86,151.91 136.78,153.79 136.71,153.04 136.67,153.79 136.38,154.17 136.36,154.17 136.34,156.04 136.31,153.79 136.21,157.17 136.14,155.67 135.97,156.42 135.94,155.67 135.88,157.55 135.82,158.67 135.79,157.55 135.68,157.92 135.66,158.67 135.58,159.80 135.58,160.18 135.57,160.18 135.53,162.05 135.51,160.18 135.48,160.18 135.46,161.68 135.46,162.80 135.38,162.43 135.36,162.80 135.36,163.18 135.30,164.68 135.29,164.30 135.20,164.68 135.13,164.68 135.09,165.06 134.93,165.81 134.92,165.81 134.89,167.31 134.87,168.43 134.80,166.93 134.80,166.93 134.74,168.81 134.73,168.06 134.73,168.43 134.60,169.94 134.58,169.94 134.58,169.56 134.48,170.31 134.41,170.69 134.39,171.81 134.29,172.56 134.21,171.81 134.20,172.19 134.16,171.81 134.15,173.69 134.12,174.07 134.05,174.82 134.05,174.82 134.03,174.44 133.97,175.57 133.94,174.44 133.93,176.32 133.91,176.32 133.78,175.94 133.77,178.19 133.66,177.44 133.64,176.69 133.62,178.95 133.53,178.57 133.53,180.07 133.50,180.07 133.46,179.32 133.44,180.45 133.43,180.82 133.42,180.82 133.40,181.20 133.39,182.70 133.37,180.82 133.36,183.82 133.34,183.45 133.34,183.82 133.31,183.45 133.25,185.70 133.20,185.33 133.18,186.45 133.18,185.70 133.17,185.33 133.15,186.45 133.14,187.95 133.14,186.45 133.13,189.08 133.12,188.33 133.11,187.95 133.05,187.58 133.03,187.58 133.03,188.70 133.01,189.08 133.00,191.33 132.99,191.33 132.94,191.33 132.94,191.71 132.91,190.58 132.88,191.71 132.81,192.83 132.79,193.58 132.75,192.46 132.74,192.83 132.64,192.46 132.63,196.96 132.62,195.08 132.59,195.08 132.57,196.96 132.56,195.46 132.53,196.58 132.52,195.46 132.52,197.71 132.50,198.84 132.17,199.21 132.14,197.71 132.12,199.59 132.06,198.84 132.06,199.21 131.96,200.34 131.90,199.59 131.89,201.46 131.86,201.84 131.81,201.84 131.77,202.59 131.63,201.84 131.54,204.09 131.46,204.09 131.38,202.59 131.32,204.46 131.30,204.46 131.16,205.21 130.91,206.34 130.88,205.59 130.81,206.34 130.80,207.09 130.68,206.71 130.59,207.84 130.50,208.59 130.37,208.97 129.96,207.09 129.79,209.34 129.71,208.22 129.44,210.09 129.28,210.84 128.16,209.34 127.25,211.59 124.37,211.59 123.18,211.97 122.57,212.72 122.12,211.97 121.96,214.22 121.94,212.34 121.75,213.84 121.62,214.59 121.58,214.97 121.55,212.72 121.50,213.84 121.49,215.72 121.45,216.47 121.39,216.47 121.21,215.34 121.19,215.34 121.16,217.59 121.15,219.09 121.09,217.97 121.08,217.97 121.08,220.22 121.05,219.09 121.03,219.47 121.03,219.47 120.96,220.97 120.95,220.22 120.91,223.22 120.89,222.85 120.87,222.85 120.82,223.22 120.82,222.47 120.81,222.85 120.79,224.72 120.78,226.22 120.76,224.72 120.74,225.85 120.74,226.97 120.71,225.85 120.69,225.47 120.68,227.72 120.67,226.22 120.62,226.60 120.59,227.35 120.58,229.60 120.57,228.47 120.57,228.85 120.56,229.22 120.56,228.47 120.56,230.35 120.56,231.47 120.55,231.47 120.54,231.10 120.48,231.47 120.47,232.97 120.47,234.10 120.46,233.35 120.46,232.97 120.45,234.10 120.44,232.97 120.44,232.97 120.44,235.22 120.44,235.22 120.43,235.97 120.43,234.85 120.43,235.97 120.41,236.35 120.39,238.22 120.38,237.47 120.36,237.47 120.36,238.22 120.34,240.10 120.34,239.35 120.32,241.22 120.32,238.97 120.31,241.60 120.29,242.72 120.29,240.85 120.28,240.85 120.28,241.97 120.28,243.85 120.27,243.47 120.27,241.97 120.26,244.22 120.26,246.47 120.25,245.35 120.24,244.97 120.23,244.60 120.23,246.10 120.23,245.72 120.23,246.47 120.22,248.35 120.21,247.22 120.21,247.97 120.20,246.85 120.20,249.47 120.20,247.60 120.18,250.60 120.18,249.85 120.17,249.85 120.17,251.35 120.16,252.47 120.16,251.35 120.16,251.35 120.13,251.72 120.13,253.22 120.12,252.84 120.11,252.47 120.10,254.34 120.09,255.09 120.09,252.47 120.08,254.34 120.08,255.09 120.07,254.72 120.07,255.47 120.06,256.22 120.06,256.22 120.05,255.84 120.05,256.22 120.04,257.72 120.03,260.34 120.03,259.22 120.02,256.97 120.02,258.84 119.99,259.97 119.99,262.22 119.99,261.84 119.98,261.84 119.98,259.97 119.98,260.72 119.97,262.22 119.97,263.34 119.97,262.97 119.97,263.72 119.96,265.59 119.96,263.72 119.96,265.22 119.95,265.96 119.95,265.22 119.94,265.22 119.94,265.59 119.93,264.47 119.92,266.34 119.91,268.59 119.91,265.96 119.91,270.84 119.91,268.21 119.91,268.21 119.90,268.59 119.89,269.71 119.89,268.59 119.88,270.09 119.88,271.21 119.87,272.34 119.87,271.59 119.87,273.09 119.87,271.59 119.86,272.71 119.86,273.09 119.86,273.84 119.86,274.59 119.86,274.59 119.85,276.08 119.85,274.21 119.85,275.71 119.85,276.83 119.85,274.96 119.85,274.59 119.85,274.96 119.85,277.58 119.84,277.21 119.83,277.21 119.82,279.83 119.82,278.71 119.82,280.21 119.82,280.21 119.82,279.46 119.82,280.96 119.82,280.21 119.81,282.08 119.81,279.46 119.80,282.08 119.80,280.96 119.80,282.45 119.79,282.45 119.79,285.45 119.79,281.33 119.79,284.70 119.79,285.45 119.79,285.08 119.78,286.95 119.78,283.95 119.77,286.95 119.77,286.58 119.77,288.08 119.76,289.57 119.76,286.95 119.76,289.20 119.75,288.82 119.75,290.32 119.75,290.32 119.75,289.57 119.75,291.07 119.74,293.32 119.74,291.45 119.74,290.70 119.74,290.70 119.74,293.70 119.73,292.20 119.73,293.70 119.73,293.32 119.73,295.19 119.73,294.82 119.72,294.82 119.72,295.19 119.72,294.07 119.72,294.44 119.71,297.82 119.71,295.19 119.70,296.69 119.70,298.19 119.69,298.19 119.69,298.57 119.69,298.19 119.68,299.69 119.68,299.32 119.68,300.44 119.68,298.57 119.68,300.06 119.67,302.69 119.67,298.94 119.65,300.06 119.65,300.81 119.65,303.06 119.65,303.81 119.65,302.69 119.65,304.93 119.64,303.06 119.64,303.06 119.64,304.56 119.63,305.31 119.63,307.18 119.63,307.18 119.63,306.43 119.63,306.81 119.62,306.81 119.62,306.43 119.62,307.93 119.61,308.68 119.61,306.81 119.61,307.56 119.61,310.18 119.60,309.05 119.60,310.55 119.59,310.55 119.59,312.05 119.59,310.55 119.59,313.17 119.59,312.43 119.58,312.05 119.58,313.17 119.58,313.17 119.58,314.67 119.57,314.67 119.57,315.42 119.57,313.55 119.57,316.17 119.57,315.42 119.56,315.42 119.56,316.17 119.56,318.04 119.55,316.55 119.55,315.80 119.55,317.29 119.55,317.67 119.55,319.17 119.55,317.67 119.55,318.42 119.55,318.42 119.54,319.92 119.54,320.29 119.54,319.92 119.54,320.29 119.54,322.16 119.54,323.66 119.54,323.66 119.54,322.91 119.53,322.91 119.52,324.41 119.52,324.41 119.51,324.04 119.51,324.41 119.50,326.28 119.50,326.66 119.50,325.16 119.50,325.53 119.49,327.41 119.49,327.03 119.49,328.15 119.47,326.66 119.46,327.78 119.46,328.90 119.46,327.78 119.46,329.28 119.46,328.90 119.46,332.27 119.45,331.15 119.45,331.15 119.45,331.90 119.45,334.52 119.45,330.03 119.44,331.15 119.44,334.52 119.44,333.77 119.44,334.52 119.44,334.15 119.44,332.65 119.43,334.15 119.43,335.27 119.43,337.52 119.43,336.02 119.43,337.89 119.42,337.52 119.42,337.52 119.42,340.51 119.42,338.64 119.41,337.89 119.41,337.89 119.41,339.76 119.41,340.14 119.41,339.76 119.41,341.63 119.40,341.26 119.40,343.13 119.40,341.63 119.39,340.88 119.39,342.38 119.39,341.63 119.39,345.00 119.39,343.13 119.39,343.88 119.38,344.25 119.38,345.00 119.38,345.75 119.38,346.50 119.38,347.62 119.37,347.25 119.37,347.25 119.37,347.62 119.37,347.62 119.37,348.37 119.37,347.62 119.37,351.74 119.36,351.74 119.36,351.37 119.35,347.25 119.35,349.12 119.34,352.11 119.34,348.75 119.34,350.62 119.34,350.62 119.34,351.37 119.34,352.86 119.34,353.61 119.33,353.24 119.33,352.49 119.33,353.24 119.33,356.23 119.33,355.11 119.33,353.24 119.32,356.98 119.32,356.98 119.32,356.98 119.32,356.61 119.31,357.35 119.31,360.72 119.31,358.85 119.31,358.10 119.31,359.60 119.31,358.85 119.30,358.85 119.30,359.97 119.30,360.72 119.30,361.10 119.30,360.72 119.30,361.10 119.29,361.10 119.29,361.10 119.29,364.84 119.29,362.22 119.29,364.47 119.28,364.47 119.28,365.21 119.28,362.97 119.28,368.21 119.27,364.84 119.27,365.21 119.27,366.71 119.27,366.71 119.27,368.21 119.27,367.83 119.27,368.96 119.27,368.21 119.26,368.96 119.26,368.96 119.26,372.70 119.26,370.08 119.26,370.45 119.26,373.07 119.26,372.70 119.26,370.45 119.26,371.95 119.25,371.95 119.25,373.07 119.25,370.83 119.25,373.07 119.25,373.45 119.25,374.19 119.25,374.19 119.25,371.58 119.24,375.69 119.24,377.56 119.24,376.81 119.24,376.07 119.23,375.32 119.23,379.06 119.23,377.94 119.23,376.07 119.23,377.19 119.23,376.81 119.22,379.06 119.22,380.18 119.22,380.93 119.22,379.81 119.21,381.68 119.21,380.56 119.21,382.05 119.21,380.93 119.21,386.17 119.21,383.92 119.21,381.30 119.21,383.17 119.20,382.80 119.20,384.67 119.20,383.92 119.20,385.42 119.20,384.67 119.20,385.04 119.20,385.42 119.20,386.17 119.20,388.04 119.19,387.29 119.19,387.29 119.19,388.41 119.19,387.29 119.19,390.66 119.19,391.78 119.18,390.28 119.18,390.28 119.18,389.91 119.18,390.66 119.18,392.15 119.18,390.28 119.18,391.03 119.18,394.02 119.17,393.27 119.17,390.66 119.17,394.40 119.17,394.40 119.17,396.64 119.17,397.76 119.17,398.89 119.17,396.64 119.16,396.27 119.16,398.51 119.16,395.15 119.16,396.27 119.16,397.39 119.16,399.63 119.16,398.89 119.15,400.38 119.15,398.14 119.15,399.26 119.15,398.14 119.15,399.63 119.15,397.76 119.15,400.01 119.15,398.89 119.15,400.76 119.15,403.75 119.14,402.63 119.14,403.00 119.14,403.37 119.14,407.11 119.14,402.63 119.14,405.62 119.14,406.37 119.14,404.50 119.14,404.87 119.14,406.37 119.13,404.50 119.13,405.24 119.13,407.49 119.13,406.74 119.13,407.49 119.13,408.24 119.13,407.86 119.12,408.61 119.12,406.37 119.12,408.98 119.12,410.11 119.12,412.35 119.12,410.85 119.12,414.22 119.12,410.11 119.12,411.97 119.11,411.97 119.11,411.23 119.10,413.47 119.10,410.48 119.10,411.97 119.10,412.35 119.10,416.09 119.10,415.34 119.10,413.84 119.10,417.96 119.09,414.22 119.09,415.71 119.09,417.21 119.09,417.96 119.09,417.96 119.09,418.71 119.09,417.96 119.09,419.08 119.08,418.33 119.08,419.08 119.08,418.71 119.08,420.20 119.08,420.95 119.08,420.20 119.08,420.58 119.08,423.19 119.07,424.69 119.07,422.44 119.07,422.44 119.07,423.57 119.07,424.31 119.07,423.57 119.06,425.06 119.06,427.30 119.06,422.82 119.06,423.19 119.05,427.68 119.05,424.31 119.05,428.43 119.05,428.05 119.05,424.31 119.05,428.05 119.05,428.43 119.04,429.92 119.04,428.80 119.04,431.42 119.04,430.67 119.04,430.30 119.04,428.43 119.04,431.04 119.03,432.16 119.03,432.54 119.03,430.30 119.03,432.16 119.03,432.54 119.03,436.28 119.03,435.53 119.03,433.29 119.03,435.90 119.03,434.41 119.03,434.03 119.03,437.02 119.02,438.15 119.02,437.02 119.02,436.28 119.02,437.02 119.02,438.89 119.01,438.52 119.01,440.01 119.01,436.28 119.01,439.64 119.01,441.14 119.01,441.51 119.01,438.15 119.01,440.76 119.01,440.39 119.00,442.26 119.00,441.51 119.00,441.14 119.00,442.63 119.00,445.99 119.00,444.87 119.00,444.87 119.00,445.99 119.00,446.74 119.00,444.87 119.00,444.87 119.00,446.74 119.00,445.62 119.00,446.74 118.99,446.37 118.99,447.12 118.99,448.98 118.99,447.86 118.99,447.49 118.98,448.61 118.98,448.61 118.98,449.73 118.98,450.48 118.98,448.98 118.98,450.48 118.98,449.36 118.98,449.73 118.98,455.71 118.98,452.35 118.98,451.97 118.98,452.72 118.98,452.35 118.98,454.59 118.98,453.47 118.98,454.96 118.98,452.72 118.98,456.08 118.98,457.58 118.97,456.08 118.97,456.83 118.97,456.83 118.97,459.07 118.97,456.83 118.97,457.95 118.97,458.33 118.97,460.20 118.97,458.70 118.97,460.94 118.97,460.20 118.96,461.32 118.96,458.70 118.96,459.45 118.96,461.32 118.96,462.81 118.96,463.18 118.96,462.44 118.96,464.68 118.96,462.81 118.96,463.56 118.96,466.55 118.96,464.68 118.96,466.17 118.96,468.79 118.96,465.80 118.96,464.68 118.95,465.80 118.95,467.67 118.95,468.42 118.95,469.54 118.95,467.29 118.95,468.42 118.95,468.04 118.95,468.42 118.95,467.67 118.95,472.90 118.94,471.03 118.94,471.40 118.94,472.15 118.94,471.78 118.94,471.40 118.94,471.78 118.94,470.66 118.93,474.39 118.93,473.65 118.93,472.90 118.93,475.14 118.93,478.50 118.93,475.14 118.93,477.01 118.93,475.89 118.93,475.51 118.92,479.25 118.92,477.01 118.92,477.75 118.92,477.01 118.92,478.13 118.92,480.00 118.92,477.75 118.91,478.88 118.91,479.25 118.91,481.12 118.91,478.13 118.91,481.49 118.91,483.36 118.91,481.86 118.91,483.36 118.91,481.12 118.91,481.49 118.90,485.23 118.90,485.60 118.90,484.85 118.90,482.98 118.90,488.21 118.89,486.35 118.89,486.72 118.89,483.36 118.89,486.35 118.89,489.33 118.88,486.35 118.88,487.84 118.88,487.47 118.88,487.84 118.88,486.72 118.88,488.96 118.88,487.84 118.88,492.32 118.88,490.83 118.88,488.59 118.87,490.08 118.87,493.07 118.87,491.57 118.87,496.06 118.87,490.83 118.87,492.69 118.87,491.57 118.87,493.44 118.87,493.44 118.87,493.44 118.87,495.31 118.87,496.80 118.87,493.44 118.86,495.68 118.86,499.04 118.86,495.68 118.86,495.31 118.86,498.30 118.86,498.30 118.86,497.92 118.86,495.68 118.86,499.04 118.86,500.54 118.86,498.30 118.86,500.54 118.86,501.28 118.86,499.79 118.86,502.40 118.86,504.27 118.86,502.78 118.86,501.28 118.85,501.28 118.85,502.78 118.85,503.15 118.85,502.03 118.85,506.14 118.85,508.00 118.85,504.27 118.85,506.51 118.85,505.39 118.85,506.14 118.85,509.13 118.84,508.00 118.84,509.87 118.84,509.13 118.84,509.13 118.84,506.14 118.84,506.14 118.84,509.87 118.83,508.75 118.83,510.62 118.83,512.49 118.83,510.25 118.83,509.87 118.83,513.61 118.83,515.47 118.83,511.37 118.83,512.49 118.83,511.74 118.83,513.98 118.83,513.61 118.83,514.35 118.83,512.86 118.83,516.97 118.83,519.95 118.82,515.85 118.82,514.73 118.82,517.71 118.82,518.83 118.82,518.46 118.82,519.20 118.82,516.22 118.82,520.70 118.82,517.34 118.82,520.32 118.82,520.70 118.81,518.46 118.81,518.09 118.81,520.32 118.81,522.19 118.81,523.68 118.81,524.06 118.81,524.43 118.81,525.55 118.81,524.80 118.81,521.82 118.81,521.07 118.81,523.31 118.81,527.04 118.81,523.31 118.81,523.31 118.81,525.92 118.81,525.55 118.80,527.42 118.80,525.55 118.80,528.16 118.80,526.67 118.80,530.78 118.80,528.91 118.80,531.52 118.80,528.54 118.80,531.15 118.80,532.64 118.80,530.78 118.80,530.40 118.80,531.90 118.80,531.90 118.80,533.39 118.80,531.52 118.79,533.39 118.79,534.88 118.79,534.14 118.79,533.02 118.79,533.76 118.79,534.51 118.79,534.88 118.79,535.63 118.79,536.75 118.79,536.37 118.79,538.99 118.78,536.37 118.78,537.12 118.78,539.36 118.78,538.61 118.78,538.99 118.78,540.00 118.78,539.73 118.78,540.00 118.78,540.00 118.78,538.61 118.78,539.73 118.78,540.00 118.77,540.00 118.77,540.00 118.77,540.00 118.77,540.00 118.77,540.00 118.77,540.00 118.77,540.00 118.77,540.00 118.77,540.00 118.77,540.00 118.77,540.00 118.77,540.00 118.77,540.00 118.76,540.00 118.76,540.00 118.76,540.00 118.76,540.00 118.76,540.00 118.76,540.00 118.76,540.00 118.76,540.00 118.76,540.00 118.76,540.00 118.76,540.00 118.76,540.00 118.76,540.00 118.76,540.00 118.76,540.00 118.75,540.00 118.75,540.00 118.75,540.00 118.75,540.00 118.75,540.00 118.75,540.00 118.75,540.00 118.75,540.00 118.75,540.00 118.75,540.00 118.75,540.00 118.75,540.00 118.75,540.00 118.75,540.00 118.74,540.00 118.74,540.00 118.74,540.00 118.74,540.00 118.74,540.00 118.74,540.00 118.74,540.00 118.74,540.00 118.74,540.00 118.74,540.00 118.74,540.00 118.74,540.00 118.74,540.00 118.74,540.00 118.74,540.00 118.74,540.00 118.74,540.00 118.74,540.00 118.73,540.00 118.73,540.00 118.73,540.00 118.73,540.00 118.73,540.00" fill="#bcbd22" fill-opacity="0.35" stroke="none"/>
<polyline points="118.73,540.00 118.73,512.11 118.73,514.73 118.73,515.85 118.73,512.49 118.74,510.99 118.74,513.23 118.74,513.23 118.74,509.87 118.74,510.25 118.74,512.11 118.74,509.50 118.74,508.38 118.74,508.38 118.74,510.25 118.74,509.50 118.74,512.11 118.74,506.51 118.74,506.88 118.74,508.00 118.74,508.38 118.74,505.39 118.74,507.63 118.75,506.14 118.75,505.02 118.75,506.14 118.75,505.76 118.75,505.76 118.75,503.15 118.75,503.90 118.75,502.40 118.75,501.28 118.75,501.66 118.75,502.40 118.75,502.78 118.75,503.90 118.75,503.15 118.76,501.28 118.76,501.66 118.76,502.40 118.76,498.67 118.76,497.92 118.76,500.16 118.76,497.92 118.76,498.30 118.76,496.43 118.76,497.92 118.76,496.06 118.76,496.06 118.76,496.43 118.76,496.06 118.76,495.31 118.77,497.55 118.77,494.94 118.77,495.31 118.77,493.44 118.77,495.31 118.77,492.69 118.77,492.69 118.77,493.82 118.77,493.82 118.77,491.20 118.77,493.82 118.77,492.69 118.77,489.33 118.78,491.57 118.78,490.08 118.78,489.33 118.78,489.71 118.78,490.08 118.78,487.09 118.78,491.20 118.78,485.60 118.78,487.84 118.78,490.83 118.78,487.09 118.78,488.96 118.79,489.71 118.79,486.35 118.79,485.60 118.79,485.97 118.79,486.35 118.79,482.61 118.79,485.23 118.79,484.10 118.79,484.85 118.79,485.97 118.79,484.10 118.80,481.86 118.80,483.73 118.80,481.12 118.80,478.88 118.80,479.62 118.80,478.13 118.80,479.25 118.80,480.00 118.80,479.62 118.80,477.75 118.80,478.88 118.80,475.89 118.80,479.25 118.80,477.75 118.80,477.75 118.80,476.63 118.81,475.89 118.81,476.26 118.81,475.89 118.81,474.39 118.81,475.51 118.81,473.27 118.81,475.89 118.81,475.51 118.81,475.89 118.81,474.02 118.81,471.78 118.81,474.39 118.81,473.65 118.81,470.66 118.81,471.78 118.81,471.03 118.81,469.16 118.82,469.91 118.82,469.54 118.82,468.79 118.82,466.92 118.82,469.54 118.82,468.42 118.82,469.54 118.82,469.16 118.82,471.40 118.82,469.16 118.82,466.17 118.83,463.18 118.83,465.80 118.83,466.17 118.83,463.93 118.83,462.06 118.83,463.93 118.83,464.68 118.83,463.93 118.83,460.20 118.83,463.93 118.83,462.44 118.83,463.18 118.83,462.44 118.83,460.94 118.83,461.69 118.83,462.44 118.84,457.58 118.84,459.82 118.84,459.07 118.84,458.70 118.84,458.70 118.84,457.21 118.84,458.70 118.85,457.95 118.85,456.08 118.85,459.82 118.85,458.33 118.85,457.58 118.85,455.71 118.85,458.70 118.85,455.71 118.85,454.22 118.85,455.71 118.85,454.96 118.86,454.22 118.86,454.96 118.86,451.97 118.86,450.11 118.86,453.47 118.86,450.48 118.86,454.96 118.86,452.35 118.86,451.23 118.86,449.36 118.86,451.60 118.86,450.48 118.86,450.11 118.86,451.23 118.86,448.24 118.86,449.36 118.86,448.98 118.86,445.99 118.87,449.73 118.87,446.37 118.87,444.13 118.87,447.12 118.87,444.87 118.87,444.87 118.87,445.25 118.87,446.37 118.87,445.99 118.87,446.74 118.87,443.75 118.87,445.25 118.87,443.00 118.88,444.50 118.88,443.38 118.88,440.01 118.88,443.00 118.88,442.63 118.88,441.88 118.88,440.76 118.88,441.51 118.88,441.51 118.88,440.01 118.89,440.01 118.89,437.77 118.89,439.27 118.89,438.89 118.89,438.89 118.90,434.41 118.90,437.40 118.90,436.28 118.90,435.53 118.90,435.16 118.91,437.40 118.91,435.90 118.91,435.90 118.91,432.16 118.91,435.53 118.91,432.16 118.91,431.79 118.91,432.16 118.91,434.41 118.91,432.16 118.92,431.79 118.92,430.67 118.92,430.30 118.92,430.30 118.92,429.17 118.92,432.16 118.92,431.42 118.93,429.92 118.93,430.67 118.93,429.92 118.93,428.05 118.93,428.80 118.93,428.05 118.93,428.80 118.93,428.43 118.93,428.05 118.94,425.81 118.94,426.18 118.94,424.69 118.94,424.31 118.94,424.31 118.94,425.44 118.94,423.19 118.95,424.31 118.95,421.32 118.95,422.82 118.95,423.19 118.95,420.95 118.95,423.57 118.95,421.32 118.95,419.45 118.95,419.45 118.95,421.32 118.96,418.33 118.96,419.08 118.96,418.71 118.96,419.83 118.96,419.08 118.96,420.95 118.96,417.21 118.96,417.96 118.96,417.58 118.96,418.33 118.96,416.09 118.96,416.09 118.96,414.97 118.96,414.59 118.96,415.71 118.96,414.97 118.97,412.72 118.97,411.97 118.97,411.60 118.97,413.10 118.97,412.35 118.97,413.10 118.97,411.97 118.97,409.73 118.97,411.60 118.97,412.72 118.97,409.73 118.98,410.85 118.98,411.97 118.98,409.73 118.98,409.73 118.98,408.61 118.98,406.37 118.98,405.99 118.98,409.36 118.98,404.50 118.98,409.73 118.98,408.61 118.98,407.11 118.98,407.86 118.98,404.50 118.98,403.37 118.98,404.12 118.98,403.00 118.98,404.12 118.98,402.63 118.99,404.12 118.99,403.75 118.99,403.37 118.99,404.87 118.99,402.25 119.00,401.50 119.00,401.13 119.00,401.50 119.00,401.13 119.00,400.76 119.00,401.50 119.00,397.39 119.00,399.26 119.00,400.01 119.00,395.89 119.00,397.02 119.00,397.02 119.00,395.15 119.00,396.27 119.01,397.76 119.01,397.02 119.01,395.52 119.01,396.27 119.01,395.15 119.01,394.40 119.01,394.40 119.01,395.89 119.01,393.27 119.02,393.27 119.02,391.03 119.02,393.27 119.02,393.65 119.02,393.27 119.03,392.53 119.03,392.15 119.03,389.91 119.03,388.79 119.03,388.79 119.03,391.40 119.03,389.53 119.03,390.28 119.03,389.16 119.03,388.41 119.03,387.66 119.03,387.29 119.04,385.79 119.04,387.66 119.04,384.30 119.04,386.17 119.04,385.79 119.04,385.04 119.04,386.17 119.05,385.42 119.05,385.79 119.05,385.42 119.05,386.17 119.05,384.67 119.05,383.55 119.05,383.17 119.06,382.05 119.06,380.18 119.06,382.05 119.06,383.17 119.07,380.56 119.07,383.55 119.07,380.93 119.07,381.68 119.07,379.43 119.07,379.06 119.08,377.56 119.08,375.32 119.08,377.94 119.08,378.68 119.08,376.81 119.08,376.81 119.08,376.44 119.08,377.94 119.09,375.32 119.09,374.57 119.09,377.94 119.09,374.94 119.09,374.57 119.09,371.58 119.09,375.32 119.09,373.82 119.10,373.45 119.10,371.95 119.10,372.32 119.10,372.32 119.10,371.20 119.10,371.20 119.10,369.70 119.10,370.45 119.11,372.70 119.11,370.08 119.12,370.45 119.12,369.70 119.12,368.21 119.12,367.46 119.12,368.96 119.12,366.71 119.12,367.46 119.12,366.34 119.12,367.09 119.13,365.59 119.13,365.59 119.13,366.34 119.13,364.09 119.13,365.21 119.13,364.47 119.13,363.72 119.14,362.59 119.14,361.47 119.14,362.22 119.14,364.09 119.14,362.22 119.14,362.59 119.14,360.72 119.14,359.97 119.14,362.22 119.14,359.23 119.15,360.72 119.15,359.23 119.15,358.85 119.15,358.48 119.15,359.23 119.15,356.98 119.15,356.98 119.15,356.61 119.15,357.35 119.15,355.86 119.16,355.86 119.16,356.61 119.16,353.61 119.16,356.23 119.16,355.86 119.16,353.24 119.16,356.61 119.17,352.11 119.17,352.11 119.17,352.49 119.17,350.62 119.17,351.74 119.17,351.74 119.17,352.49 119.17,350.62 119.18,348.00 119.18,350.24 119.18,350.24 119.18,348.75 119.18,348.75 119.18,349.49 119.18,348.75 119.18,347.25 119.19,347.25 119.19,347.62 119.19,345.75 119.19,347.25 119.19,347.25 119.19,347.25 119.20,347.25 119.20,345.75 119.20,345.00 119.20,345.38 119.20,344.25 119.20,344.25 119.20,343.51 119.20,341.63 119.20,343.13 119.21,340.14 119.21,343.13 119.21,342.38 119.21,340.14 119.21,341.26 119.21,341.26 119.21,342.01 119.21,340.51 119.22,339.39 119.22,341.63 119.22,339.01 119.22,337.89 119.23,337.52 119.23,335.27 119.23,336.77 119.23,336.77 119.23,338.64 119.23,335.64 119.24,335.64 119.24,336.02 119.24,336.39 119.24,334.52 119.25,334.52 119.25,331.90 119.25,331.90 119.25,333.77 119.25,334.52 119.25,334.52 119.25,332.27 119.25,330.03 119.26,331.90 119.26,331.15 119.26,330.78 119.26,331.52 119.26,329.28 119.26,331.90 119.26,329.28 119.26,328.53 119.26,332.27 119.27,328.53 119.27,327.78 119.27,329.28 119.27,330.03 119.27,325.91 119.27,328.15 119.27,327.03 119.27,326.66 119.28,325.16 119.28,325.16 119.28,324.78 119.28,323.66 119.29,324.78 119.29,322.54 119.29,322.91 119.29,324.78 119.29,323.66 119.30,320.29 119.30,323.29 119.30,322.16 119.30,321.04 119.30,321.79 119.30,320.29 119.31,320.67 119.31,319.54 119.31,320.67 119.31,319.54 119.31,318.42 119.31,316.92 119.32,316.55 119.32,317.29 119.32,318.04 119.32,315.05 119.33,316.55 119.33,315.42 119.33,317.29 119.33,312.05 119.33,313.55 119.33,313.55 119.34,315.42 119.34,315.05 119.34,312.05 119.34,314.30 119.34,314.30 119.34,312.43 119.34,312.05 119.35,310.55 119.35,309.43 119.36,311.68 119.36,309.05 119.37,309.43 119.37,310.18 119.37,311.30 119.37,310.18 119.37,309.80 119.37,308.68 119.37,307.93 119.38,306.43 119.38,306.43 119.38,309.05 119.38,307.18 119.38,306.06 119.39,305.31 119.39,303.81 119.39,305.31 119.39,305.31 119.39,305.68 119.39,305.31 119.40,301.19 119.40,300.81 119.40,301.56 119.41,301.19 119.41,302.31 119.41,302.31 119.41,302.69 119.41,303.06 119.41,301.19 119.42,298.94 119.42,300.81 119.42,300.06 119.42,298.19 119.43,297.82 119.43,298.57 119.43,297.07 119.43,297.44 119.43,297.44 119.44,296.32 119.44,295.94 119.44,298.19 119.44,295.19 119.44,295.57 119.44,295.94 119.45,295.57 119.45,294.07 119.45,294.44 119.45,292.57 119.45,294.82 119.46,292.57 119.46,292.95 119.46,293.32 119.46,290.32 119.46,291.45 119.46,291.82 119.47,292.20 119.49,292.20 119.49,289.95 119.49,289.57 119.50,289.95 119.50,289.20 119.50,288.45 119.50,286.58 119.51,288.82 119.51,286.20 119.52,287.33 119.52,287.33 119.53,286.58 119.54,288.45 119.54,285.45 119.54,285.45 119.54,286.95 119.54,285.83 119.54,283.95 119.54,282.08 119.54,285.08 119.55,283.58 119.55,282.83 119.55,285.08 119.55,283.20 119.55,282.45 119.55,282.45 119.55,282.45 119.55,281.71 119.56,280.21 119.56,282.83 119.56,280.58 119.57,279.46 119.57,278.33 119.57,277.58 119.57,278.33 119.57,277.58 119.58,277.96 119.58,276.83 119.58,277.58 119.58,277.58 119.59,277.58 119.59,276.83 119.59,275.33 119.59,275.33 119.59,273.46 119.60,273.84 119.60,272.71 119.61,273.46 119.61,272.34 119.61,274.59 119.61,271.96 119.62,271.96 119.62,271.21 119.62,272.34 119.63,269.34 119.63,270.84 119.63,270.46 119.63,269.34 119.63,270.46 119.64,269.34 119.64,267.09 119.64,268.59 119.65,269.71 119.65,267.84 119.65,269.71 119.65,266.34 119.65,267.46 119.65,265.96 119.67,267.09 119.67,264.84 119.68,265.96 119.68,265.59 119.68,265.96 119.68,265.22 119.68,264.47 119.69,262.59 119.69,262.22 119.69,264.09 119.70,261.84 119.70,262.22 119.71,262.22 119.71,263.72 119.72,261.84 119.72,261.84 119.72,259.97 119.72,259.22 119.73,260.34 119.73,261.47 119.73,259.59 119.73,259.59 119.73,259.59 119.74,258.47 119.74,258.09 119.74,256.59 119.74,256.22 119.74,254.34 119.75,258.47 119.75,254.34 119.75,256.59 119.75,256.22 119.75,253.59 119.76,254.34 119.76,253.22 119.76,255.09 119.77,253.22 119.77,255.09 119.77,252.84 119.78,253.59 119.78,252.09 119.79,251.35 119.79,250.97 119.79,250.97 119.79,251.72 119.79,249.85 119.79,251.35 119.80,250.60 119.80,249.10 119.80,248.35 119.81,248.72 119.81,247.60 119.82,247.97 119.82,246.85 119.82,247.97 119.82,247.60 119.82,247.60 119.82,246.85 119.82,245.72 119.83,245.35 119.84,245.35 119.85,244.22 119.85,245.35 119.85,241.22 119.85,244.22 119.85,241.60 119.85,242.72 119.85,242.35 119.85,242.72 119.86,241.22 119.86,241.60 119.86,241.22 119.86,240.10 119.86,238.97 119.87,237.47 119.87,239.35 119.87,238.97 119.87,239.35 119.88,237.47 119.88,238.60 119.89,236.72 119.89,237.85 119.90,236.35 119.91,236.72 119.91,234.47 119.91,235.97 119.91,235.60 119.91,235.22 119.92,235.22 119.93,234.10 119.94,232.97 119.94,233.72 119.95,231.85 119.95,233.35 119.96,232.22 119.96,232.60 119.96,231.47 119.97,232.97 119.97,231.10 119.97,229.97 119.97,230.72 119.98,231.10 119.98,229.22 119.98,226.60 119.99,228.85 119.99,229.22 119.99,228.85 120.02,228.10 120.02,228.47 120.03,228.47 120.03,228.47 120.04,225.85 120.05,226.60 120.05,225.10 120.06,225.85 120.06,226.60 120.07,223.60 120.07,224.72 120.08,223.22 120.08,223.60 120.09,220.97 120.09,222.85 120.10,222.47 120.11,222.10 120.12,221.34 120.13,221.34 120.13,220.97 120.16,220.59 120.16,222.47 120.16,220.22 120.17,219.09 120.17,219.09 120.18,217.59 120.18,217.59 120.20,219.47 120.20,219.09 120.20,217.97 120.21,216.09 120.21,217.97 120.22,214.59 120.23,216.09 120.23,217.22 120.23,213.84 120.23,214.59 120.24,214.22 120.25,214.97 120.26,213.47 120.26,212.34 120.27,212.34 120.27,210.84 120.28,213.09 120.28,210.84 120.28,210.09 120.29,211.22 120.29,211.59 120.31,211.97 120.32,211.22 120.32,210.84 120.34,208.97 120.34,209.34 120.36,208.22 120.36,207.46 120.38,208.22 120.39,207.09 120.41,206.71 120.43,206.34 120.43,206.71 120.43,207.09 120.44,206.34 120.44,206.34 120.44,205.21 120.44,205.21 120.45,204.84 120.46,203.34 120.46,204.46 120.47,202.96 120.47,203.34 120.48,202.96 120.54,202.21 120.55,201.46 120.56,200.71 120.56,201.84 120.56,200.71 120.56,201.09 120.57,199.59 120.57,200.71 120.58,200.34 120.59,199.59 120.62,197.33 120.67,198.08 120.68,198.08 120.69,198.84 120.71,196.21 120.74,196.58 120.74,195.83 120.76,195.83 120.78,195.08 120.79,196.58 120.81,195.08 120.82,194.71 120.82,193.96 120.87,195.83 120.89,193.58 120.91,195.08 120.95,192.83 120.96,190.58 121.03,192.83 121.03,190.58 121.05,192.08 121.08,192.08 121.08,191.33 121.09,191.71 121.15,189.83 121.16,189.83 121.19,190.20 121.21,190.20 121.39,189.08 121.45,187.58 121.49,189.08 121.50,188.70 121.55,187.58 121.58,186.45 121.62,187.58 121.75,188.33 121.94,185.33 121.96,186.45 122.12,185.33 122.57,185.70 123.18,184.58 124.37,184.20 127.25,184.20 128.16,183.07 129.28,181.20 129.44,181.57 129.71,183.45 129.79,182.32 129.96,181.57 130.37,181.57 130.50,181.57 130.59,179.70 130.68,181.57 130.80,180.45 130.81,180.45 130.88,180.07 130.91,178.95 131.16,178.95 131.30,178.95 131.32,178.19 131.38,177.07 131.46,177.44 131.54,176.32 131.63,177.07 131.77,175.57 131.81,175.57 131.86,176.32 131.89,176.32 131.90,174.07 131.96,174.44 132.06,173.69 132.06,173.69 132.12,174.07 132.14,172.94 132.17,170.69 132.50,173.31 132.52,170.31 132.52,170.69 132.53,171.06 132.56,170.69 132.57,170.31 132.59,170.31 132.62,169.19 132.63,169.94 132.64,168.81 132.74,168.81 132.75,167.31 132.79,167.31 132.81,168.43 132.88,167.31 132.91,166.18 132.94,166.18 132.94,165.81 132.99,165.06 133.00,164.68 133.01,165.81 133.03,164.30 133.03,164.68 133.05,164.68 133.11,163.18 133.12,162.05 133.13,164.30 133.14,162.80 133.14,161.30 133.15,163.18 133.17,162.80 133.18,161.68 133.18,160.93 133.20,161.30 133.25,160.18 133.31,159.80 133.34,159.05 133.34,158.67 133.36,159.05 133.37,158.67 133.39,157.92 133.40,157.92 133.42,157.92 133.43,156.80 133.44,156.04 133.46,156.04 133.50,158.30 133.53,154.54 133.53,155.67 133.62,154.54 133.64,154.17 133.66,153.04 133.77,153.42 133.78,153.79 133.91,153.79 133.93,152.67 133.94,153.04 133.97,152.29 134.03,151.54 134.05,151.16 134.05,151.91 134.12,151.54 134.15,150.41 134.16,150.41 134.20,149.29 134.21,149.66 134.29,148.91 134.39,148.16 134.41,148.16 134.48,147.03 134.58,148.53 134.58,147.41 134.60,147.03 134.73,147.78 134.73,145.15 134.74,146.66 134.80,147.03 134.80,145.91 134.87,145.15 134.89,145.53 134.92,143.28 134.93,142.53 135.09,142.53 135.13,143.28 135.20,143.28 135.29,142.53 135.30,141.40 135.36,142.15 135.36,141.40 135.38,139.15 135.46,141.40 135.46,139.52 135.48,139.90 135.51,139.15 135.53,138.77 135.57,139.15 135.58,138.02 135.58,137.64 135.66,137.64 135.68,136.52 135.79,136.89 135.82,136.14 135.88,136.52 135.94,136.89 135.97,136.14 136.14,134.64 136.21,134.64 136.31,134.64 136.34,133.89 136.36,133.89 136.38,133.89 136.67,133.89 136.71,133.14 136.78,132.76 136.86,132.76 137.01,132.01 137.02,132.01 137.18,130.88 137.18,129.76 137.25,130.88 137.73,130.51 137.86,129.76 137.90,130.88 138.25,129.00 138.33,129.00 138.33,128.25 138.52,127.50 138.54,127.50 138.71,127.13 160.43,127.13 161.89,126.00 163.33,126.00 163.38,126.37 163.60,125.25 163.61,125.25 163.77,124.50 163.79,125.62 163.85,124.12 163.87,123.74 164.08,122.99 164.14,122.99 164.21,122.99 164.24,122.62 164.37,121.87 164.58,121.49 164.67,120.74 164.68,121.49 164.75,119.61 164.77,120.74 164.89,119.61 164.89,119.61 164.91,118.86 165.03,118.86 165.03,118.86 165.06,118.49 165.10,118.86 165.15,116.98 165.33,116.98 165.41,116.98 165.51,115.10 165.59,115.48 165.61,116.23 165.71,115.48 165.71,115.86 165.77,115.10 165.77,113.98 165.79,114.73 165.81,113.60 165.97,113.60 165.98,112.85 166.04,112.85 166.40,112.47 166.62,111.72 166.86,111.72 167.28,110.97 167.31,110.97 167.38,110.97 167.40,110.22 167.51,110.22 167.53,109.47 167.58,109.84 167.62,108.72 167.68,108.34 167.78,107.59 167.79,107.96 167.88,107.21 167.92,107.59 167.93,106.84 167.94,106.09 168.04,105.71 168.17,106.84 168.26,105.71 168.57,106.09 168.80,104.21 169.11,103.46 169.19,104.96 169.25,103.08 169.27,103.83 169.34,102.70 169.44,103.46 169.62,102.70 169.74,101.95 169.76,101.95 170.03,102.70 170.39,101.20 171.09,100.82 171.22,100.07 171.27,99.70 171.30,99.32 171.93,99.70 172.25,98.95 173.15,98.95 176.60,97.82 218.47,97.82 220.30,97.82 220.95,96.69 221.24,97.44 221.30,96.31 221.47,96.31 221.69,96.31 221.85,96.69 221.91,95.56 222.29,95.19 222.48,94.81 222.63,94.06 223.02,92.56 223.09,93.31 223.22,93.31 223.40,92.56 223.50,92.18 223.63,92.56 224.61,91.80 224.68,91.43 224.81,91.05 225.30,90.68 225.43,90.30 225.51,90.68 225.77,89.92 225.89,89.55 226.47,89.92 226.48,89.55 226.48,88.42 226.82,88.80 226.85,87.67 226.95,87.67 227.26,88.05 227.66,86.54 227.94,86.92 228.02,86.17 228.42,86.17 228.74,85.41 229.49,84.66 230.38,84.29 230.51,84.29 230.87,85.04 234.08,83.91 234.57,83.91 328.18,83.53 328.35,82.78 329.09,83.16 329.40,82.03 331.12,82.03 331.21,82.41 331.64,81.28 331.69,80.90 331.90,80.90 332.24,80.53 332.95,80.53 332.99,80.15 333.01,79.40 333.09,79.40 334.74,79.02 334.91,78.65 335.05,78.65 335.32,78.27 336.00,77.90 336.05,77.90 336.23,77.14 336.44,76.77 337.88,76.77 338.79,76.02 339.17,75.64 339.45,75.64 340.64,75.26 344.19,75.26 345.19,74.51 521.72,74.14 521.87,74.14 522.84,73.76 524.44,73.38 527.72,73.38 529.47,73.01 529.67,72.63 530.11,72.63 530.50,72.26 531.23,71.88 531.85,71.50 533.12,71.50 533.44,71.13 534.43,70.75 628.07,70.75 629.10,70.38 629.34,70.38 632.31,70.00 634.20,70.00 634.69,70.00 636.25,70.00 900.00,70.00" fill="none" stroke="#bcbd22" stroke-width="0.9" stroke-opacity="0.85"/>
<polyline points="118.73,540.00 118.73,540.00 118.73,540.00 118.73,540.00 118.73,540.00 118.74,540.00 118.74,540.00 118.74,540.00 118.74,540.00 118.74,540.00 118.74,540.00 118.74,540.00 118.74,540.00 118.74,540.00 118.74,540.00 118.74,540.00 118.74,540.00 118.74,540.00 118.74,540.00 118.74,540.00 118.74,540.00 118.74,540.00 118.74,540.00 118.75,540.00 118.75,540.00 118.75,540.00 118.75,540.00 118.75,540.00 118.75,540.00 118.75,540.00 118.75,540.00 118.75,540.00 118.75,540.00 118.75,540.00 118.75,540.00 118.75,540.00 118.75,540.00 118.76,540.00 118.76,540.00 118.76,540.00 118.76,540.00 118.76,540.00 118.76,540.00 118.76,540.00 118.76,540.00 118.76,540.00 118.76,540.00 118.76,540.00 118.76,540.00 118.76,540.00 118.76,540.00 118.76,540.00 118.77,540.00 118.77,540.00 118.77,540.00 118.77,540.00 118.77,540.00 118.77,540.00 118.77,540.00 118.77,540.00 118.77,540.00 118.77,540.00 118.77,540.00 118.77,540.00 118.77,540.00 118.78,540.00 118.78,539.73 118.78,538.61 118.78,540.00 118.78,540.00 118.78,539.73 118.78,540.00 118.78,538.99 118.78,538.61 118.78,539.36 118.78,537.12 118.78,536.37 118.79,538.99 118.79,536.37 118.79,536.75 118.79,535.63 118.79,534.88 118.79,534.51 118.79,533.76 118.79,533.02 118.79,534.14 118.79,534.88 118.79,533.39 118.80,531.52 118.80,533.39 118.80,531.90 118.80,531.90 118.80,530.40 118.80,530.78 118.80,532.64 118.80,531.15 118.80,528.54 118.80,531.52 118.80,528.91 118.80,530.78 118.80,526.67 118.80,528.16 118.80,525.55 118.80,527.42 118.81,525.55 118.81,525.92 118.81,523.31 118.81,523.31 118.81,527.04 118.81,523.31 118.81,521.07 118.81,521.82 118.81,524.80 118.81,525.55 118.81,524.43 118.81,524.06 118.81,523.68 118.81,522.19 118.81,520.32 118.81,518.09 118.81,518.46 118.82,520.70 118.82,520.32 118.82,517.34 118.82,520.70 118.82,516.22 118.82,519.20 118.82,518.46 118.82,518.83 118.82,517.71 118.82,514.73 118.82,515.85 118.83,519.95 118.83,516.97 118.83,512.86 118.83,514.35 118.83,513.61 118.83,513.98 118.83,511.74 118.83,512.49 118.83,511.37 118.83,515.47 118.83,513.61 118.83,509.87 118.83,510.25 118.83,512.49 118.83,510.62 118.83,508.75 118.84,509.87 118.84,506.14 118.84,506.14 118.84,509.13 118.84,509.13 118.84,509.87 118.84,508.00 118.85,509.13 118.85,506.14 118.85,505.39 118.85,506.51 118.85,504.27 118.85,508.00 118.85,506.14 118.85,502.03 118.85,503.15 118.85,502.78 118.85,501.28 118.86,501.28 118.86,502.78 118.86,504.27 118.86,502.40 118.86,499.79 118.86,501.28 118.86,500.54 118.86,498.30 118.86,500.54 118.86,499.04 118.86,495.68 118.86,497.92 118.86,498.30 118.86,498.30 118.86,495.31 118.86,495.68 118.86,499.04 118.86,495.68 118.87,493.44 118.87,496.80 118.87,495.31 118.87,493.44 118.87,493.44 118.87,493.44 118.87,491.57 118.87,492.69 118.87,490.83 118.87,496.06 118.87,491.57 118.87,493.07 118.87,490.08 118.88,488.59 118.88,490.83 118.88,492.32 118.88,487.84 118.88,488.96 118.88,486.72 118.88,487.84 118.88,487.47 118.88,487.84 118.88,486.35 118.89,489.33 118.89,486.35 118.89,483.36 118.89,486.72 118.89,486.35 118.90,488.21 118.90,482.98 118.90,484.85 118.90,485.60 118.90,485.23 118.91,481.49 118.91,481.12 118.91,483.36 118.91,481.86 118.91,483.36 118.91,481.49 118.91,478.13 118.91,481.12 118.91,479.25 118.91,478.88 118.92,477.75 118.92,480.00 118.92,478.13 118.92,477.01 118.92,477.75 118.92,477.01 118.92,479.25 118.93,475.51 118.93,475.89 118.93,477.01 118.93,475.14 118.93,478.50 118.93,475.14 118.93,472.90 118.93,473.65 118.93,474.39 118.94,470.66 118.94,471.78 118.94,471.40 118.94,471.78 118.94,472.15 118.94,471.40 118.94,471.03 118.95,472.90 118.95,467.67 118.95,468.42 118.95,468.04 118.95,468.42 118.95,467.29 118.95,469.54 118.95,468.42 118.95,467.67 118.95,465.80 118.96,464.68 118.96,465.80 118.96,468.79 118.96,466.17 118.96,464.68 118.96,466.55 118.96,463.56 118.96,462.81 118.96,464.68 118.96,462.44 118.96,463.18 118.96,462.81 118.96,461.32 118.96,459.45 118.96,458.70 118.96,461.32 118.97,460.20 118.97,460.94 118.97,458.70 118.97,460.20 118.97,458.33 118.97,457.95 118.97,456.83 118.97,459.07 118.97,456.83 118.97,456.83 118.97,456.08 118.98,457.58 118.98,456.08 118.98,452.72 118.98,454.96 118.98,453.47 118.98,454.59 118.98,452.35 118.98,452.72 118.98,451.97 118.98,452.35 118.98,455.71 118.98,449.73 118.98,449.36 118.98,450.48 118.98,448.98 118.98,450.48 118.98,449.73 118.98,448.61 118.98,448.61 118.99,447.49 118.99,447.86 118.99,448.98 118.99,447.12 118.99,446.37 119.00,446.74 119.00,445.62 119.00,446.74 119.00,444.87 119.00,444.87 119.00,446.74 119.00,445.99 119.00,444.87 119.00,444.87 119.00,445.99 119.00,442.63 119.00,441.14 119.00,441.51 119.00,442.26 119.01,440.39 119.01,440.76 119.01,438.15 119.01,441.51 119.01,441.14 119.01,439.64 119.01,436.28 119.01,440.01 119.01,438.52 119.02,438.89 119.02,437.02 119.02,436.28 119.02,437.02 119.02,438.15 119.03,437.02 119.03,434.03 119.03,434.41 119.03,435.90 119.03,433.29 119.03,435.53 119.03,436.28 119.03,432.54 119.03,432.16 119.03,430.30 119.03,432.54 119.03,432.16 119.04,431.04 119.04,428.43 119.04,430.30 119.04,430.67 119.04,431.42 119.04,428.80 119.04,429.92 119.05,428.43 119.05,428.05 119.05,424.31 119.05,428.05 119.05,428.43 119.05,424.31 119.05,427.68 119.06,423.19 119.06,422.82 119.06,427.30 119.06,425.06 119.07,423.57 119.07,424.31 119.07,423.57 119.07,422.44 119.07,422.44 119.07,424.69 119.08,423.19 119.08,420.58 119.08,420.20 119.08,420.95 119.08,420.20 119.08,418.71 119.08,419.08 119.08,418.33 119.09,419.08 119.09,417.96 119.09,418.71 119.09,417.96 119.09,417.96 119.09,417.21 119.09,415.71 119.09,414.22 119.10,417.96 119.10,413.84 119.10,415.34 119.10,416.09 119.10,412.35 119.10,411.97 119.10,410.48 119.10,413.47 119.11,411.23 119.11,411.97 119.12,411.97 119.12,410.11 119.12,414.22 119.12,410.85 119.12,412.35 119.12,410.11 119.12,408.98 119.12,406.37 119.12,408.61 119.13,407.86 119.13,408.24 119.13,407.49 119.13,406.74 119.13,407.49 119.13,405.24 119.13,404.50 119.14,406.37 119.14,404.87 119.14,404.50 119.14,406.37 119.14,405.62 119.14,402.63 119.14,407.11 119.14,403.37 119.14,403.00 119.14,402.63 119.15,403.75 119.15,400.76 119.15,398.89 119.15,400.01 119.15,397.76 119.15,399.63 119.15,398.14 119.15,399.26 119.15,398.14 119.15,400.38 119.16,398.89 119.16,399.63 119.16,397.39 119.16,396.27 119.16,395.15 119.16,398.51 119.16,396.27 119.17,396.64 119.17,398.89 119.17,397.76 119.17,396.64 119.17,394.40 119.17,394.40 119.17,390.66 119.17,393.27 119.18,394.02 119.18,391.03 119.18,390.28 119.18,392.15 119.18,390.66 119.18,389.91 119.18,390.28 119.18,390.28 119.19,391.78 119.19,390.66 119.19,387.29 119.19,388.41 119.19,387.29 119.19,387.29 119.20,388.04 119.20,386.17 119.20,385.42 119.20,385.04 119.20,384.67 119.20,385.42 119.20,383.92 119.20,384.67 119.20,382.80 119.21,383.17 119.21,381.30 119.21,383.92 119.21,386.17 119.21,380.93 119.21,382.05 119.21,380.56 119.21,381.68 119.22,379.81 119.22,380.93 119.22,380.18 119.22,379.06 119.23,376.81 119.23,377.19 119.23,376.07 119.23,377.94 119.23,379.06 119.23,375.32 119.24,376.07 119.24,376.81 119.24,377.56 119.24,375.69 119.25,371.58 119.25,374.19 119.25,374.19 119.25,373.45 119.25,373.07 119.25,370.83 119.25,373.07 119.25,371.95 119.26,371.95 119.26,370.45 119.26,372.70 119.26,373.07 119.26,370.45 119.26,370.08 119.26,372.70 119.26,368.96 119.26,368.96 119.27,368.21 119.27,368.96 119.27,367.83 119.27,368.21 119.27,366.71 119.27,366.71 119.27,365.21 119.27,364.84 119.28,368.21 119.28,362.97 119.28,365.21 119.28,364.47 119.29,364.47 119.29,362.22 119.29,364.84 119.29,361.10 119.29,361.10 119.30,361.10 119.30,360.72 119.30,361.10 119.30,360.72 119.30,359.97 119.30,358.85 119.31,358.85 119.31,359.60 119.31,358.10 119.31,358.85 119.31,360.72 119.31,357.35 119.32,356.61 119.32,356.98 119.32,356.98 119.32,356.98 119.33,353.24 119.33,355.11 119.33,356.23 119.33,353.24 119.33,352.49 119.33,353.24 119.34,353.61 119.34,352.86 119.34,351.37 119.34,350.62 119.34,350.62 119.34,348.75 119.34,352.11 119.35,349.12 119.35,347.25 119.36,351.37 119.36,351.74 119.37,351.74 119.37,347.62 119.37,348.37 119.37,347.62 119.37,347.62 119.37,347.25 119.37,347.25 119.38,347.62 119.38,346.50 119.38,345.75 119.38,345.00 119.38,344.25 119.39,343.88 119.39,343.13 119.39,345.00 119.39,341.63 119.39,342.38 119.39,340.88 119.40,341.63 119.40,343.13 119.40,341.26 119.41,341.63 119.41,339.76 119.41,340.14 119.41,339.76 119.41,337.89 119.41,337.89 119.42,338.64 119.42,340.51 119.42,337.52 119.42,337.52 119.43,337.89 119.43,336.02 119.43,337.52 119.43,335.27 119.43,334.15 119.44,332.65 119.44,334.15 119.44,334.52 119.44,333.77 119.44,334.52 119.44,331.15 119.45,330.03 119.45,334.52 119.45,331.90 119.45,331.15 119.45,331.15 119.46,332.27 119.46,328.90 119.46,329.28 119.46,327.78 119.46,328.90 119.46,327.78 119.47,326.66 119.49,328.15 119.49,327.03 119.49,327.41 119.50,325.53 119.50,325.16 119.50,326.66 119.50,326.28 119.51,324.41 119.51,324.04 119.52,324.41 119.52,324.41 119.53,322.91 119.54,322.91 119.54,323.66 119.54,323.66 119.54,322.16 119.54,320.29 119.54,319.92 119.54,320.29 119.54,319.92 119.55,318.42 119.55,318.42 119.55,317.67 119.55,319.17 119.55,317.67 119.55,317.29 119.55,315.80 119.55,316.55 119.56,318.04 119.56,316.17 119.56,315.42 119.57,315.42 119.57,316.17 119.57,313.55 119.57,315.42 119.57,314.67 119.58,314.67 119.58,313.17 119.58,313.17 119.58,312.05 119.59,312.43 119.59,313.17 119.59,310.55 119.59,312.05 119.59,310.55 119.60,310.55 119.60,309.05 119.61,310.18 119.61,307.56 119.61,306.81 119.61,308.68 119.62,307.93 119.62,306.43 119.62,306.81 119.63,306.81 119.63,306.43 119.63,307.18 119.63,307.18 119.63,305.31 119.64,304.56 119.64,303.06 119.64,303.06 119.65,304.93 119.65,302.69 119.65,303.81 119.65,303.06 119.65,300.81 119.65,300.06 119.67,298.94 119.67,302.69 119.68,300.06 119.68,298.57 119.68,300.44 119.68,299.32 119.68,299.69 119.69,298.19 119.69,298.57 119.69,298.19 119.70,298.19 119.70,296.69 119.71,295.19 119.71,297.82 119.72,294.44 119.72,294.07 119.72,295.19 119.72,294.82 119.73,294.82 119.73,295.19 119.73,293.32 119.73,293.70 119.73,292.20 119.74,293.70 119.74,290.70 119.74,290.70 119.74,291.45 119.74,293.32 119.75,291.07 119.75,289.57 119.75,290.32 119.75,290.32 119.75,288.82 119.76,289.20 119.76,286.95 119.76,289.57 119.77,288.08 119.77,286.58 119.77,286.95 119.78,283.95 119.78,286.95 119.79,285.08 119.79,285.45 119.79,284.70 119.79,281.33 119.79,285.45 119.79,282.45 119.80,282.45 119.80,280.96 119.80,282.08 119.81,279.46 119.81,282.08 119.82,280.21 119.82,280.96 119.82,279.46 119.82,280.21 119.82,280.21 119.82,278.71 119.82,279.83 119.83,277.21 119.84,277.21 119.85,277.58 119.85,274.96 119.85,274.59 119.85,274.96 119.85,276.83 119.85,275.71 119.85,274.21 119.85,276.08 119.86,274.59 119.86,274.59 119.86,273.84 119.86,273.09 119.86,272.71 119.87,271.59 119.87,273.09 119.87,271.59 119.87,272.34 119.88,271.21 119.88,270.09 119.89,268.59 119.89,269.71 119.90,268.59 119.91,268.21 119.91,268.21 119.91,270.84 119.91,265.96 119.91,268.59 119.92,266.34 119.93,264.47 119.94,265.59 119.94,265.22 119.95,265.22 119.95,265.96 119.96,265.22 119.96,263.72 119.96,265.59 119.97,263.72 119.97,262.97 119.97,263.34 119.97,262.22 119.98,260.72 119.98,259.97 119.98,261.84 119.99,261.84 119.99,262.22 119.99,259.97 120.02,258.84 120.02,256.97 120.03,259.22 120.03,260.34 120.04,257.72 120.05,256.22 120.05,255.84 120.06,256.22 120.06,256.22 120.07,255.47 120.07,254.72 120.08,255.09 120.08,254.34 120.09,252.47 120.09,255.09 120.10,254.34 120.11,252.47 120.12,252.84 120.13,253.22 120.13,251.72 120.16,251.35 120.16,251.35 120.16,252.47 120.17,251.35 120.17,249.85 120.18,249.85 120.18,250.60 120.20,247.60 120.20,249.47 120.20,246.85 120.21,247.97 120.21,247.22 120.22,248.35 120.23,246.47 120.23,245.72 120.23,246.10 120.23,244.60 120.24,244.97 120.25,245.35 120.26,246.47 120.26,244.22 120.27,241.97 120.27,243.47 120.28,243.85 120.28,241.97 120.28,240.85 120.29,240.85 120.29,242.72 120.31,241.60 120.32,238.97 120.32,241.22 120.34,239.35 120.34,240.10 120.36,238.22 120.36,237.47 120.38,237.47 120.39,238.22 120.41,236.35 120.43,235.97 120.43,234.85 120.43,235.97 120.44,235.22 120.44,235.22 120.44,232.97 120.44,232.97 120.45,234.10 120.46,232.97 120.46,233.35 120.47,234.10 120.47,232.97 120.48,231.47 120.54,231.10 120.55,231.47 120.56,231.47 120.56,230.35 120.56,228.47 120.56,229.22 120.57,228.85 120.57,228.47 120.58,229.60 120.59,227.35 120.62,226.60 120.67,226.22 120.68,227.72 120.69,225.47 120.71,225.85 120.74,226.97 120.74,225.85 120.76,224.72 120.78,226.22 120.79,224.72 120.81,222.85 120.82,222.47 120.82,223.22 120.87,222.85 120.89,222.85 120.91,223.22 120.95,220.22 120.96,220.97 121.03,219.47 121.03,219.47 121.05,219.09 121.08,220.22 121.08,217.97 121.09,217.97 121.15,219.09 121.16,217.59 121.19,215.34 121.21,215.34 121.39,216.47 121.45,216.47 121.49,215.72 121.50,213.84 121.55,212.72 121.58,214.97 121.62,214.59 121.75,213.84 121.94,212.34 121.96,214.22 122.12,211.97 122.57,212.72 123.18,211.97 124.37,211.59 127.25,211.59 128.16,209.34 129.28,210.84 129.44,210.09 129.71,208.22 129.79,209.34 129.96,207.09 130.37,208.97 130.50,208.59 130.59,207.84 130.68,206.71 130.80,207.09 130.81,206.34 130.88,205.59 130.91,206.34 131.16,205.21 131.30,204.46 131.32,204.46 131.38,202.59 131.46,204.09 131.54,204.09 131.63,201.84 131.77,202.59 131.81,201.84 131.86,201.84 131.89,201.46 131.90,199.59 131.96,200.34 132.06,199.21 132.06,198.84 132.12,199.59 132.14,197.71 132.17,199.21 132.50,198.84 132.52,197.71 132.52,195.46 132.53,196.58 132.56,195.46 132.57,196.96 132.59,195.08 132.62,195.08 132.63,196.96 132.64,192.46 132.74,192.83 132.75,192.46 132.79,193.58 132.81,192.83 132.88,191.71 132.91,190.58 132.94,191.71 132.94,191.33 132.99,191.33 133.00,191.33 133.01,189.08 133.03,188.70 133.03,187.58 133.05,187.58 133.11,187.95 133.12,188.33 133.13,189.08 133.14,186.45 133.14,187.95 133.15,186.45 133.17,185.33 133.18,185.70 133.18,186.45 133.20,185.33 133.25,185.70 133.31,183.45 133.34,183.82 133.34,183.45 133.36,183.82 133.37,180.82 133.39,182.70 133.40,181.20 133.42,180.82 133.43,180.82 133.44,180.45 133.46,179.32 133.50,180.07 133.53,180.07 133.53,178.57 133.62,178.95 133.64,176.69 133.66,177.44 133.77,178.19 133.78,175.94 133.91,176.32 133.93,176.32 133.94,174.44 133.97,175.57 134.03,174.44 134.05,174.82 134.05,174.82 134.12,174.07 134.15,173.69 134.16,171.81 134.20,172.19 134.21,171.81 134.29,172.56 134.39,171.81 134.41,170.69 134.48,170.31 134.58,169.56 134.58,169.94 134.60,169.94 134.73,168.43 134.73,168.06 134.74,168.81 134.80,166.93 134.80,166.93 134.87,168.43 134.89,167.31 134.92,165.81 134.93,165.81 135.09,165.06 135.13,164.68 135.20,164.68 135.29,164.30 135.30,164.68 135.36,163.18 135.36,162.80 135.38,162.43 135.46,162.80 135.46,161.68 135.48,160.18 135.51,160.18 135.53,162.05 135.57,160.18 135.58,160.18 135.58,159.80 135.66,158.67 135.68,157.92 135.79,157.55 135.82,158.67 135.88,157.55 135.94,155.67 135.97,156.42 136.14,155.67 136.21,157.17 136.31,153.79 136.34,156.04 136.36,154.17 136.38,154.17 136.67,153.79 136.71,153.04 136.78,153.79 136.86,151.91 137.01,152.67 137.02,151.16 137.18,151.54 137.18,151.91 137.25,151.16 137.73,149.29 137.86,149.66 137.90,149.66 138.25,150.04 138.33,149.66 138.33,149.29 138.52,147.41 138.54,147.78 138.71,147.03 160.43,147.03 161.89,146.66 163.33,145.53 163.38,144.40 163.60,144.03 163.61,144.78 163.77,143.65 163.79,144.40 163.85,142.15 163.87,142.15 164.08,142.15 164.14,141.02 164.21,141.40 164.24,141.02 164.37,140.65 164.58,140.27 164.67,139.52 164.68,139.15 164.75,139.52 164.77,138.02 164.89,137.27 164.89,138.02 164.91,138.39 165.03,137.64 165.03,136.14 165.06,137.27 165.10,135.77 165.15,134.64 165.33,135.39 165.41,134.26 165.51,134.64 165.59,134.64 165.61,133.51 165.71,132.38 165.71,132.38 165.77,132.01 165.77,132.38 165.79,131.26 165.81,131.26 165.97,131.63 165.98,130.51 166.04,130.88 166.40,129.38 166.62,128.25 166.86,128.25 167.28,127.88 167.31,127.50 167.38,127.13 167.40,127.13 167.51,126.75 167.53,126.37 167.58,125.62 167.62,125.25 167.68,124.50 167.78,124.50 167.79,123.74 167.88,123.74 167.92,124.87 167.93,123.37 167.94,121.87 168.04,122.99 168.17,120.74 168.26,121.49 168.57,120.74 168.80,120.36 169.11,120.36 169.19,120.36 169.25,119.61 169.27,118.86 169.34,117.73 169.44,118.49 169.62,117.73 169.74,116.98 169.76,116.61 170.03,116.98 170.39,115.86 171.09,116.23 171.22,113.98 171.27,113.98 171.30,113.60 171.93,113.23 172.25,113.60 173.15,112.47 176.60,112.85 218.47,111.72 220.30,111.72 220.95,111.35 221.24,110.22 221.30,109.47 221.47,110.22 221.69,110.97 221.85,110.22 221.91,108.34 222.29,107.59 222.48,107.59 222.63,106.84 223.02,106.46 223.09,106.84 223.22,107.21 223.40,106.46 223.50,105.33 223.63,104.96 224.61,103.83 224.68,104.58 224.81,104.58 225.30,103.83 225.43,103.83 225.51,102.70 225.77,102.33 225.89,102.70 226.47,101.20 226.48,101.20 226.48,100.07 226.82,100.07 226.85,100.07 226.95,99.32 227.26,98.95 227.66,98.95 227.94,98.95 228.02,98.19 228.42,97.07 228.74,97.44 229.49,96.31 230.38,96.31 230.51,95.19 230.87,94.81 234.08,94.44 234.57,94.06 328.18,94.06 328.35,92.93 329.09,92.93 329.40,92.56 331.12,92.18 331.21,91.80 331.64,91.43 331.69,90.30 331.90,90.30 332.24,89.92 332.95,89.55 332.99,89.17 333.01,88.80 333.09,88.05 334.74,87.67 334.91,88.05 335.05,86.54 335.32,86.17 336.00,85.41 336.05,85.79 336.23,84.66 336.44,85.04 337.88,83.91 338.79,83.91 339.17,83.53 339.45,83.16 340.64,82.41 344.19,81.65 345.19,81.65 521.72,80.53 521.87,80.53 522.84,79.78 524.44,79.78 527.72,79.02 529.47,79.02 529.67,77.90 530.11,77.52 530.50,76.77 531.23,76.77 531.85,76.02 533.12,75.64 533.44,75.26 534.43,74.51 628.07,74.51 629.10,73.76 629.34,73.01 632.31,72.26 634.20,71.88 634.69,71.13 636.25,70.00 900.00,70.00" fill="none" stroke="#bcbd22" stroke-width="0.9" stroke-opacity="0.85"/>
<polyline points="118.73,540.00 118.73,539.73 118.73,539.36 118.73,538.99 118.73,538.61 118.74,538.24 118.74,537.87 118.74,537.49 118.74,537.12 118.74,536.75 118.74,536.37 118.74,536.00 118.74,535.63 118.74,535.25 118.74,534.88 118.74,534.51 118.74,534.14 118.74,533.76 118.74,533.39 118.74,533.02 118.74,532.64 118.74,532.27 118.74,531.90 118.75,531.52 118.75,531.15 118.75,530.78 118.75,530.40 118.75,530.03 118.75,529.66 118.75,529.28 118.75,528.91 118.75,528.54 118.75,528.16 118.75,527.79 118.75,527.42 118.75,527.04 118.75,526.67 118.76,526.30 118.76,525.92 118.76,525.55 118.76,525.18 118.76,524.80 118.76,524.43 118.76,524.06 118.76,523.68 118.76,523.31 118.76,522.94 118.76,522.56 118.76,522.19 118.76,521.82 118.76,521.44 118.76,521.07 118.77,520.70 118.77,520.32 118.77,519.95 118.77,519.58 118.77,519.20 118.77,518.83 118.77,518.46 118.77,518.09 118.77,517.71 118.77,517.34 118.77,516.97 118.77,516.59 118.77,516.22 118.78,515.85 118.78,515.47 118.78,515.10 118.78,514.73 118.78,514.35 118.78,513.98 118.78,513.61 118.78,513.23 118.78,512.86 118.78,512.49 118.78,512.11 118.78,511.74 118.79,511.37 118.79,510.99 118.79,510.62 118.79,510.25 118.79,509.87 118.79,509.50 118.79,509.13 118.79,508.75 118.79,508.38 118.79,508.00 118.79,507.63 118.80,507.26 118.80,506.88 118.80,506.51 118.80,506.14 118.80,505.76 118.80,505.39 118.80,505.02 118.80,504.64 118.80,504.27 118.80,503.90 118.80,503.52 118.80,503.15 118.80,502.78 118.80,502.40 118.80,502.03 118.80,501.66 118.81,501.28 118.81,500.91 118.81,500.54 118.81,500.16 118.81,499.79 118.81,499.42 118.81,499.04 118.81,498.67 118.81,498.30 118.81,497.92 118.81,497.55 118.81,497.18 118.81,496.80 118.81,496.43 118.81,496.06 118.81,495.68 118.81,495.31 118.82,494.94 118.82,494.56 118.82,494.19 118.82,493.82 118.82,493.44 118.82,493.07 118.82,492.69 118.82,492.32 118.82,491.95 118.82,491.57 118.82,491.20 118.83,490.83 118.83,490.45 118.83,490.08 118.83,489.71 118.83,489.33 118.83,488.96 118.83,488.59 118.83,488.21 118.83,487.84 118.83,487.47 118.83,487.09 118.83,486.72 118.83,486.35 118.83,485.97 118.83,485.60 118.83,485.23 118.84,484.85 118.84,484.48 118.84,484.10 118.84,483.73 118.84,483.36 118.84,482.98 118.84,482.61 118.85,482.24 118.85,481.86 118.85,481.49 118.85,481.12 118.85,480.74 118.85,480.37 118.85,480.00 118.85,479.62 118.85,479.25 118.85,478.88 118.85,478.50 118.86,478.13 118.86,477.75 118.86,477.38 118.86,477.01 118.86,476.63 118.86,476.26 118.86,475.89 118.86,475.51 118.86,475.14 118.86,474.77 118.86,474.39 118.86,474.02 118.86,473.65 118.86,473.27 118.86,472.90 118.86,472.52 118.86,472.15 118.86,471.78 118.87,471.40 118.87,471.03 118.87,470.66 118.87,470.28 118.87,469.91 118.87,469.54 118.87,469.16 118.87,468.79 118.87,468.42 118.87,468.04 118.87,467.67 118.87,467.29 118.87,466.92 118.88,466.55 118.88,466.17 118.88,465.80 118.88,465.43 118.88,465.05 118.88,464.68 118.88,464.31 118.88,463.93 118.88,463.56 118.88,463.18 118.89,462.81 118.89,462.44 118.89,462.06 118.89,461.69 118.89,461.32 118.90,460.94 118.90,460.57 118.90,460.20 118.90,459.82 118.90,459.45 118.91,459.07 118.91,458.70 118.91,458.33 118.91,457.95 118.91,457.58 118.91,457.21 118.91,456.83 118.91,456.46 118.91,456.08 118.91,455.71 118.92,455.34 118.92,454.96 118.92,454.59 118.92,454.22 118.92,453.84 118.92,453.47 118.92,453.10 118.93,452.72 118.93,452.35 118.93,451.97 118.93,451.60 118.93,451.23 118.93,450.85 118.93,450.48 118.93,450.11 118.93,449.73 118.94,449.36 118.94,448.98 118.94,448.61 118.94,448.24 118.94,447.86 118.94,447.49 118.94,447.12 118.95,446.74 118.95,446.37 118.95,445.99 118.95,445.62 118.95,445.25 118.95,444.87 118.95,444.50 118.95,444.13 118.95,443.75 118.95,443.38 118.96,443.00 118.96,442.63 118.96,442.26 118.96,441.88 118.96,441.51 118.96,441.14 118.96,440.76 118.96,440.39 118.96,440.01 118.96,439.64 118.96,439.27 118.96,438.89 118.96,438.52 118.96,438.15 118.96,437.77 118.96,437.40 118.97,437.02 118.97,436.65 118.97,436.28 118.97,435.90 118.97,435.53 118.97,435.16 118.97,434.78 118.97,434.41 118.97,434.03 118.97,433.66 118.97,433.29 118.98,432.91 118.98,432.54 118.98,432.16 118.98,431.79 118.98,431.42 118.98,431.04 118.98,430.67 118.98,430.30 118.98,429.92 118.98,429.55 118.98,429.17 118.98,428.80 118.98,428.43 118.98,428.05 118.98,427.68 118.98,427.30 118.98,426.93 118.98,426.56 118.98,426.18 118.99,425.81 118.99,425.44 118.99,425.06 118.99,424.69 118.99,424.31 119.00,423.94 119.00,423.57 119.00,423.19 119.00,422.82 119.00,422.44 119.00,422.07 119.00,421.70 119.00,421.32 119.00,420.95 119.00,420.58 119.00,420.20 119.00,419.83 119.00,419.45 119.00,419.08 119.01,418.71 119.01,418.33 119.01,417.96 119.01,417.58 119.01,417.21 119.01,416.84 119.01,416.46 119.01,416.09 119.01,415.71 119.02,415.34 119.02,414.97 119.02,414.59 119.02,414.22 119.02,413.84 119.03,413.47 119.03,413.10 119.03,412.72 119.03,412.35 119.03,411.97 119.03,411.60 119.03,411.23 119.03,410.85 119.03,410.48 119.03,410.11 119.03,409.73 119.03,409.36 119.04,408.98 119.04,408.61 119.04,408.24 119.04,407.86 119.04,407.49 119.04,407.11 119.04,406.74 119.05,406.37 119.05,405.99 119.05,405.62 119.05,405.24 119.05,404.87 119.05,404.50 119.05,404.12 119.06,403.75 119.06,403.37 119.06,403.00 119.06,402.63 119.07,402.25 119.07,401.88 119.07,401.50 119.07,401.13 119.07,400.76 119.07,400.38 119.08,400.01 119.08,399.63 119.08,399.26 119.08,398.89 119.08,398.51 119.08,398.14 119.08,397.76 119.08,397.39 119.09,397.02 119.09,396.64 119.09,396.27 119.09,395.89 119.09,395.52 119.09,395.15 119.09,394.77 119.09,394.40 119.10,394.02 119.10,393.65 119.10,393.27 119.10,392.90 119.10,392.53 119.10,392.15 119.10,391.78 119.10,391.40 119.11,391.03 119.11,390.66 119.12,390.28 119.12,389.91 119.12,389.53 119.12,389.16 119.12,388.79 119.12,388.41 119.12,388.04 119.12,387.66 119.12,387.29 119.13,386.92 119.13,386.54 119.13,386.17 119.13,385.79 119.13,385.42 119.13,385.04 119.13,384.67 119.14,384.30 119.14,383.92 119.14,383.55 119.14,383.17 119.14,382.80 119.14,382.43 119.14,382.05 119.14,381.68 119.14,381.30 119.14,380.93 119.15,380.56 119.15,380.18 119.15,379.81 119.15,379.43 119.15,379.06 119.15,378.68 119.15,378.31 119.15,377.94 119.15,377.56 119.15,377.19 119.16,376.81 119.16,376.44 119.16,376.07 119.16,375.69 119.16,375.32 119.16,374.94 119.16,374.57 119.17,374.19 119.17,373.82 119.17,373.45 119.17,373.07 119.17,372.70 119.17,372.32 119.17,371.95 119.17,371.58 119.18,371.20 119.18,370.83 119.18,370.45 119.18,370.08 119.18,369.70 119.18,369.33 119.18,368.96 119.18,368.58 119.19,368.21 119.19,367.83 119.19,367.46 119.19,367.09 119.19,366.71 119.19,366.34 119.20,365.96 119.20,365.59 119.20,365.21 119.20,364.84 119.20,364.47 119.20,364.09 119.20,363.72 119.20,363.34 119.20,362.97 119.21,362.59 119.21,362.22 119.21,361.85 119.21,361.47 119.21,361.10 119.21,360.72 119.21,360.35 119.21,359.97 119.22,359.60 119.22,359.23 119.22,358.85 119.22,358.48 119.23,358.10 119.23,357.73 119.23,357.35 119.23,356.98 119.23,356.61 119.23,356.23 119.24,355.86 119.24,355.48 119.24,355.11 119.24,354.73 119.25,354.36 119.25,353.99 119.25,353.61 119.25,353.24 119.25,352.86 119.25,352.49 119.25,352.11 119.25,351.74 119.26,351.37 119.26,350.99 119.26,350.62 119.26,350.24 119.26,349.87 119.26,349.49 119.26,349.12 119.26,348.75 119.26,348.37 119.27,348.00 119.27,347.62 119.27,347.25 119.27,346.87 119.27,346.50 119.27,346.13 119.27,345.75 119.27,345.38 119.28,345.00 119.28,344.63 119.28,344.25 119.28,343.88 119.29,343.51 119.29,343.13 119.29,342.76 119.29,342.38 119.29,342.01 119.30,341.63 119.30,341.26 119.30,340.88 119.30,340.51 119.30,340.14 119.30,339.76 119.31,339.39 119.31,339.01 119.31,338.64 119.31,338.26 119.31,337.89 119.31,337.52 119.32,337.14 119.32,336.77 119.32,336.39 119.32,336.02 119.33,335.64 119.33,335.27 119.33,334.89 119.33,334.52 119.33,334.15 119.33,333.77 119.34,333.40 119.34,333.02 119.34,332.65 119.34,332.27 119.34,331.90 119.34,331.52 119.34,331.15 119.35,330.78 119.35,330.40 119.36,330.03 119.36,329.65 119.37,329.28 119.37,328.90 119.37,328.53 119.37,328.15 119.37,327.78 119.37,327.41 119.37,327.03 119.38,326.66 119.38,326.28 119.38,325.91 119.38,325.53 119.38,325.16 119.39,324.78 119.39,324.41 119.39,324.04 119.39,323.66 119.39,323.29 119.39,322.91 119.40,322.54 119.40,322.16 119.40,321.79 119.41,321.41 119.41,321.04 119.41,320.67 119.41,320.29 119.41,319.92 119.41,319.54 119.42,319.17 119.42,318.79 119.42,318.42 119.42,318.04 119.43,317.67 119.43,317.29 119.43,316.92 119.43,316.55 119.43,316.17 119.44,315.80 119.44,315.42 119.44,315.05 119.44,314.67 119.44,314.30 119.44,313.92 119.45,313.55 119.45,313.17 119.45,312.80 119.45,312.43 119.45,312.05 119.46,311.68 119.46,311.30 119.46,310.93 119.46,310.55 119.46,310.18 119.46,309.80 119.47,309.43 119.49,309.05 119.49,308.68 119.49,308.31 119.50,307.93 119.50,307.56 119.50,307.18 119.50,306.81 119.51,306.43 119.51,306.06 119.52,305.68 119.52,305.31 119.53,304.93 119.54,304.56 119.54,304.19 119.54,303.81 119.54,303.44 119.54,303.06 119.54,302.69 119.54,302.31 119.54,301.94 119.55,301.56 119.55,301.19 119.55,300.81 119.55,300.44 119.55,300.06 119.55,299.69 119.55,299.32 119.55,298.94 119.56,298.57 119.56,298.19 119.56,297.82 119.57,297.44 119.57,297.07 119.57,296.69 119.57,296.32 119.57,295.94 119.58,295.57 119.58,295.19 119.58,294.82 119.58,294.44 119.59,294.07 119.59,293.70 119.59,293.32 119.59,292.95 119.59,292.57 119.60,292.20 119.60,291.82 119.61,291.45 119.61,291.07 119.61,290.70 119.61,290.32 119.62,289.95 119.62,289.57 119.62,289.20 119.63,288.82 119.63,288.45 119.63,288.08 119.63,287.70 119.63,287.33 119.64,286.95 119.64,286.58 119.64,286.20 119.65,285.83 119.65,285.45 119.65,285.08 119.65,284.70 119.65,284.33 119.65,283.95 119.67,283.58 119.67,283.20 119.68,282.83 119.68,282.45 119.68,282.08 119.68,281.71 119.68,281.33 119.69,280.96 119.69,280.58 119.69,280.21 119.70,279.83 119.70,279.46 119.71,279.08 119.71,278.71 119.72,278.33 119.72,277.96 119.72,277.58 119.72,277.21 119.73,276.83 119.73,276.46 119.73,276.08 119.73,275.71 119.73,275.33 119.74,274.96 119.74,274.59 119.74,274.21 119.74,273.84 119.74,273.46 119.75,273.09 119.75,272.71 119.75,272.34 119.75,271.96 119.75,271.59 119.76,271.21 119.76,270.84 119.76,270.46 119.77,270.09 119.77,269.71 119.77,269.34 119.78,268.96 119.78,268.59 119.79,268.21 119.79,267.84 119.79,267.46 119.79,267.09 119.79,266.71 119.79,266.34 119.80,265.96 119.80,265.59 119.80,265.22 119.81,264.84 119.81,264.47 119.82,264.09 119.82,263.72 119.82,263.34 119.82,262.97 119.82,262.59 119.82,262.22 119.82,261.84 119.83,261.47 119.84,261.09 119.85,260.72 119.85,260.34 119.85,259.97 119.85,259.59 119.85,259.22 119.85,258.84 119.85,258.47 119.85,258.09 119.86,257.72 119.86,257.34 119.86,256.97 119.86,256.59 119.86,256.22 119.87,255.84 119.87,255.47 119.87,255.09 119.87,254.72 119.88,254.34 119.88,253.97 119.89,253.59 119.89,253.22 119.90,252.84 119.91,252.47 119.91,252.09 119.91,251.72 119.91,251.35 119.91,250.97 119.92,250.60 119.93,250.22 119.94,249.85 119.94,249.47 119.95,249.10 119.95,248.72 119.96,248.35 119.96,247.97 119.96,247.60 119.97,247.22 119.97,246.85 119.97,246.47 119.97,246.10 119.98,245.72 119.98,245.35 119.98,244.97 119.99,244.60 119.99,244.22 119.99,243.85 120.02,243.47 120.02,243.10 120.03,242.72 120.03,242.35 120.04,241.97 120.05,241.60 120.05,241.22 120.06,240.85 120.06,240.47 120.07,240.10 120.07,239.72 120.08,239.35 120.08,238.97 120.09,238.60 120.09,238.22 120.10,237.85 120.11,237.47 120.12,237.10 120.13,236.72 120.13,236.35 120.16,235.97 120.16,235.60 120.16,235.22 120.17,234.85 120.17,234.47 120.18,234.10 120.18,233.72 120.20,233.35 120.20,232.97 120.20,232.60 120.21,232.22 120.21,231.85 120.22,231.47 120.23,231.10 120.23,230.72 120.23,230.35 120.23,229.97 120.24,229.60 120.25,229.22 120.26,228.85 120.26,228.47 120.27,228.10 120.27,227.72 120.28,227.35 120.28,226.97 120.28,226.60 120.29,226.22 120.29,225.85 120.31,225.47 120.32,225.10 120.32,224.72 120.34,224.35 120.34,223.97 120.36,223.60 120.36,223.22 120.38,222.85 120.39,222.47 120.41,222.10 120.43,221.72 120.43,221.34 120.43,220.97 120.44,220.59 120.44,220.22 120.44,219.84 120.44,219.47 120.45,219.09 120.46,218.72 120.46,218.34 120.47,217.97 120.47,217.59 120.48,217.22 120.54,216.84 120.55,216.47 120.56,216.09 120.56,215.72 120.56,215.34 120.56,214.97 120.57,214.59 120.57,214.22 120.58,213.84 120.59,213.47 120.62,213.09 120.67,212.72 120.68,212.34 120.69,211.97 120.71,211.59 120.74,211.22 120.74,210.84 120.76,210.47 120.78,210.09 120.79,209.72 120.81,209.34 120.82,208.97 120.82,208.59 120.87,208.22 120.89,207.84 120.91,207.46 120.95,207.09 120.96,206.71 121.03,206.34 121.03,205.96 121.05,205.59 121.08,205.21 121.08,204.84 121.09,204.46 121.15,204.09 121.16,203.71 121.19,203.34 121.21,202.96 121.39,202.59 121.45,202.21 121.49,201.84 121.50,201.46 121.55,201.09 121.58,200.71 121.62,200.34 121.75,199.96 121.94,199.59 121.96,199.21 122.12,198.84 122.57,198.46 123.18,198.08 124.37,197.71 127.25,197.33 128.16,196.96 129.28,196.58 129.44,196.21 129.71,195.83 129.79,195.46 129.96,195.08 130.37,194.71 130.50,194.33 130.59,193.96 130.68,193.58 130.80,193.21 130.81,192.83 130.88,192.46 130.91,192.08 131.16,191.71 131.30,191.33 131.32,190.96 131.38,190.58 131.46,190.20 131.54,189.83 131.63,189.45 131.77,189.08 131.81,188.70 131.86,188.33 131.89,187.95 131.90,187.58 131.96,187.20 132.06,186.83 132.06,186.45 132.12,186.08 132.14,185.70 132.17,185.33 132.50,184.95 132.52,184.58 132.52,184.20 132.53,183.82 132.56,183.45 132.57,183.07 132.59,182.70 132.62,182.32 132.63,181.95 132.64,181.57 132.74,181.20 132.75,180.82 132.79,180.45 132.81,180.07 132.88,179.70 132.91,179.32 132.94,178.95 132.94,178.57 132.99,178.19 133.00,177.82 133.01,177.44 133.03,177.07 133.03,176.69 133.05,176.32 133.11,175.94 133.12,175.57 133.13,175.19 133.14,174.82 133.14,174.44 133.15,174.07 133.17,173.69 133.18,173.31 133.18,172.94 133.20,172.56 133.25,172.19 133.31,171.81 133.34,171.44 133.34,171.06 133.36,170.69 133.37,170.31 133.39,169.94 133.40,169.56 133.42,169.19 133.43,168.81 133.44,168.43 133.46,168.06 133.50,167.68 133.53,167.31 133.53,166.93 133.62,166.56 133.64,166.18 133.66,165.81 133.77,165.43 133.78,165.06 133.91,164.68 133.93,164.30 133.94,163.93 133.97,163.55 134.03,163.18 134.05,162.80 134.05,162.43 134.12,162.05 134.15,161.68 134.16,161.30 134.20,160.93 134.21,160.55 134.29,160.18 134.39,159.80 134.41,159.42 134.48,159.05 134.58,158.67 134.58,158.30 134.60,157.92 134.73,157.55 134.73,157.17 134.74,156.80 134.80,156.42 134.80,156.04 134.87,155.67 134.89,155.29 134.92,154.92 134.93,154.54 135.09,154.17 135.13,153.79 135.20,153.42 135.29,153.04 135.30,152.67 135.36,152.29 135.36,151.91 135.38,151.54 135.46,151.16 135.46,150.79 135.48,150.41 135.51,150.04 135.53,149.66 135.57,149.29 135.58,148.91 135.58,148.53 135.66,148.16 135.68,147.78 135.79,147.41 135.82,147.03 135.88,146.66 135.94,146.28 135.97,145.91 136.14,145.53 136.21,145.15 136.31,144.78 136.34,144.40 136.36,144.03 136.38,143.65 136.67,143.28 136.71,142.90 136.78,142.53 136.86,142.15 137.01,141.77 137.02,141.40 137.18,141.02 137.18,140.65 137.25,140.27 137.73,139.90 137.86,139.52 137.90,139.15 138.25,138.77 138.33,138.39 138.33,138.02 138.52,137.64 138.54,137.27 138.71,136.89 160.43,136.52 161.89,136.14 163.33,135.77 163.38,135.39 163.60,135.01 163.61,134.64 163.77,134.26 163.79,133.89 163.85,133.51 163.87,133.14 164.08,132.76 164.14,132.38 164.21,132.01 164.24,131.63 164.37,131.26 164.58,130.88 164.67,130.51 164.68,130.13 164.75,129.76 164.77,129.38 164.89,129.00 164.89,128.63 164.91,128.25 165.03,127.88 165.03,127.50 165.06,127.13 165.10,126.75 165.15,126.37 165.33,126.00 165.41,125.62 165.51,125.25 165.59,124.87 165.61,124.50 165.71,124.12 165.71,123.74 165.77,123.37 165.77,122.99 165.79,122.62 165.81,122.24 165.97,121.87 165.98,121.49 166.04,121.12 166.40,120.74 166.62,120.36 166.86,119.99 167.28,119.61 167.31,119.24 167.38,118.86 167.40,118.49 167.51,118.11 167.53,117.73 167.58,117.36 167.62,116.98 167.68,116.61 167.78,116.23 167.79,115.86 167.88,115.48 167.92,115.10 167.93,114.73 167.94,114.35 168.04,113.98 168.17,113.60 168.26,113.23 168.57,112.85 168.80,112.47 169.11,112.10 169.19,111.72 169.25,111.35 169.27,110.97 169.34,110.59 169.44,110.22 169.62,109.84 169.74,109.47 169.76,109.09 170.03,108.72 170.39,108.34 171.09,107.96 171.22,107.59 171.27,107.21 171.30,106.84 171.93,106.46 172.25,106.09 173.15,105.71 176.60,105.33 218.47,104.96 220.30,104.58 220.95,104.21 221.24,103.83 221.30,103.46 221.47,103.08 221.69,102.70 221.85,102.33 221.91,101.95 222.29,101.58 222.48,101.20 222.63,100.82 223.02,100.45 223.09,100.07 223.22,99.70 223.40,99.32 223.50,98.95 223.63,98.57 224.61,98.19 224.68,97.82 224.81,97.44 225.30,97.07 225.43,96.69 225.51,96.31 225.77,95.94 225.89,95.56 226.47,95.19 226.48,94.81 226.48,94.44 226.82,94.06 226.85,93.68 226.95,93.31 227.26,92.93 227.66,92.56 227.94,92.18 228.02,91.80 228.42,91.43 228.74,91.05 229.49,90.68 230.38,90.30 230.51,89.92 230.87,89.55 234.08,89.17 234.57,88.80 328.18,88.42 328.35,88.05 329.09,87.67 329.40,87.29 331.12,86.92 331.21,86.54 331.64,86.17 331.69,85.79 331.90,85.41 332.24,85.04 332.95,84.66 332.99,84.29 333.01,83.91 333.09,83.53 334.74,83.16 334.91,82.78 335.05,82.41 335.32,82.03 336.00,81.65 336.05,81.28 336.23,80.90 336.44,80.53 337.88,80.15 338.79,79.78 339.17,79.40 339.45,79.02 340.64,78.65 344.19,78.27 345.19,77.90 521.72,77.52 521.87,77.14 522.84,76.77 524.44,76.39 527.72,76.02 529.47,75.64 529.67,75.26 530.11,74.89 530.50,74.51 531.23,74.14 531.85,73.76 533.12,73.38 533.44,73.01 534.43,72.63 628.07,72.26 629.10,71.88 629.34,71.50 632.31,71.13 634.20,70.75 634.69,70.38 636.25,70.00 900.00,70.00" fill="none" stroke="#bcbd22" stroke-width="2.0"/>
<rect x="86" y="514" width="90" height="20" fill="white" fill-opacity="0.85" stroke="#888"/>
<text x="92" y="528" font-weight="bold" fill="#bcbd22">n = 4</text>
</svg>