<svg xmlns="http://www.w3.org/2000/svg" viewBox="0 0 960 600" font-family="Helvetica, Arial, sans-serif" font-size="12">
<rect width="100%" height="100%" fill="white"/>
<text x="480.0" y="22" text-anchor="middle" font-size="16" font-weight="bold">Chunking benefit: n = 32 parallel chunks (pointwise 95% bootstrap CI)</text>
<text x="480.0" y="40" text-anchor="middle" fill="#555">size=12500 kB, link=1000 Mbps, RTT=50 ms, p=1.00e-06</text>
<text x="480.0" y="56" text-anchor="middle" fill="#555">scenario=optimistic, runs=500000, bootstrap B=500; curve is F_chunk(t)^n</text>
<rect x="80" y="70" width="820" height="470" fill="#fafafa" stroke="#888"/>
<line x1="80.00" y1="70" x2="80.00" y2="540" stroke="#e0e0e0"/>
<text x="80.00" y="556" text-anchor="middle" fill="#333">0.000</text>
<line x1="182.50" y1="70" x2="182.50" y2="540" stroke="#e0e0e0"/>
<text x="182.50" y="556" text-anchor="middle" fill="#333">1.25</text>
<line x1="285.00" y1="70" x2="285.00" y2="540" stroke="#e0e0e0"/>
<text x="285.00" y="556" text-anchor="middle" fill="#333">2.50</text>
<line x1="387.50" y1="70" x2="387.50" y2="540" stroke="#e0e0e0"/>
<text x="387.50" y="556" text-anchor="middle" fill="#333">3.75</text>
<line x1="490.00" y1="70" x2="490.00" y2="540" stroke="#e0e0e0"/>
<text x="490.00" y="556" text-anchor="middle" fill="#333">5.00</text>
<line x1="592.50" y1="70" x2="592.50" y2="540" stroke="#e0e0e0"/>
<text x="592.50" y="556" text-anchor="middle" fill="#333">6.25</text>
<line x1="695.00" y1="70" x2="695.00" y2="540" stroke="#e0e0e0"/>
<text x="695.00" y="556" text-anchor="middle" fill="#333">7.50</text>
<line x1="797.50" y1="70" x2="797.50" y2="540" stroke="#e0e0e0"/>
<text x="797.50" y="556" text-anchor="middle" fill="#333">8.75</text>
<line x1="900.00" y1="70" x2="900.00" y2="540" stroke="#e0e0e0"/>
<text x="900.00" y="556" text-anchor="middle" fill="#333">10.0</text>
<line x1="80" y1="540.00" x2="900" y2="540.00" stroke="#e0e0e0"/>
<text x="72" y="544.00" text-anchor="end" fill="#333">0.990</text>
<line x1="80" y1="493.00" x2="900" y2="493.00" stroke="#e0e0e0"/>
<text x="72" y="497.00" text-anchor="end" fill="#333">0.991</text>
<line x1="80" y1="446.00" x2="900" y2="446.00" stroke="#e0e0e0"/>
<text x="72" y="450.00" text-anchor="end" fill="#333">0.992</text>
<line x1="80" y1="399.00" x2="900" y2="399.00" stroke="#e0e0e0"/>
<text x="72" y="403.00" text-anchor="end" fill="#333">0.993</text>
<line x1="80" y1="352.00" x2="900" y2="352.00" stroke="#e0e0e0"/>
<text x="72" y="356.00" text-anchor="end" fill="#333">0.994</text>
<line x1="80" y1="305.00" x2="900" y2="305.00" stroke="#e0e0e0"/>
<text x="72" y="309.00" text-anchor="end" fill="#333">0.995</text>
<line x1="80" y1="258.00" x2="900" y2="258.00" stroke="#e0e0e0"/>
<text x="72" y="262.00" text-anchor="end" fill="#333">0.996</text>
<line x1="80" y1="211.00" x2="900" y2="211.00" stroke="#e0e0e0"/>
<text x="72" y="215.00" text-anchor="end" fill="#333">0.997</text>
<line x1="80" y1="164.00" x2="900" y2="164.00" stroke="#e0e0e0"/>
<text x="72" y="168.00" text-anchor="end" fill="#333">0.998</text>
<line x1="80" y1="117.00" x2="900" y2="117.00" stroke="#e0e0e0"/>
<text x="72" y="121.00" text-anchor="end" fill="#333">0.999</text>
<line x1="80" y1="70.00" x2="900" y2="70.00" stroke="#e0e0e0"/>
<text x="72" y="74.00" text-anchor="end" fill="#333">1.000</text>
<line x1="80" y1="540.00" x2="900" y2="540.00" stroke="#888" stroke-width="1" stroke-dasharray="4,4"/>
<text x="894.00" y="536.00" text-anchor="end" fill="#555" font-style="italic">P99</text>
<text x="490.0" y="585" text-anchor="middle">Download time (seconds)</text>
<text transform="translate(20,305.0) rotate(-90)" text-anchor="middle">Cumulative probability  (whole-file)</text>
<polygon points="106.40,540.00 106.40,465.44 106.41,474.39 106.41,465.44 106.41,456.48 106.42,462.45 106.42,453.50 106.42,450.52 106.44,450.52 106.46,447.53 106.47,441.56 106.48,438.58 106.48,432.61 106.49,432.61 106.50,432.61 106.51,438.58 106.51,423.65 106.52,426.63 106.52,420.66 106.53,423.65 106.56,414.69 106.57,414.69 106.57,405.73 106.57,408.72 106.57,402.74 106.58,405.73 106.59,399.75 106.60,393.78 106.60,396.77 106.61,390.79 106.61,384.81 106.62,381.83 106.68,381.83 106.68,375.85 106.69,384.81 106.69,381.83 106.71,372.86 106.71,372.86 106.72,366.88 106.73,363.89 106.74,357.91 106.75,360.90 106.76,360.90 106.76,351.93 106.78,348.94 106.79,345.95 106.81,345.95 106.81,339.97 106.84,342.96 106.85,336.97 106.88,333.98 106.90,328.00 106.93,325.01 106.94,325.01 107.05,325.01 107.06,325.01 107.07,319.02 107.07,313.04 107.11,310.04 107.11,307.05 107.13,310.04 107.17,304.06 107.18,298.07 107.19,298.07 107.21,295.08 107.22,298.07 107.24,292.08 107.25,283.10 107.27,280.10 107.29,289.09 107.31,277.11 107.34,280.10 107.38,271.12 107.40,274.11 107.41,277.11 107.44,268.12 107.44,268.12 107.46,262.13 107.47,262.13 107.50,256.14 107.53,253.14 107.54,253.14 107.54,250.14 107.54,250.14 107.60,244.15 107.66,238.16 107.70,235.16 107.78,235.16 107.87,229.16 107.97,226.16 107.99,220.17 108.02,223.17 108.04,220.17 108.14,217.17 108.20,217.17 108.24,208.17 108.25,208.17 108.47,205.17 108.55,205.17 108.67,202.17 108.75,196.17 108.95,199.17 109.31,193.17 109.39,196.17 109.68,190.17 109.78,190.17 109.97,184.17 110.00,184.17 110.03,181.17 110.05,178.17 110.53,178.17 110.74,172.16 110.80,169.16 110.90,166.16 111.17,166.16 111.29,163.16 113.21,157.15 114.89,157.15 118.63,154.15 118.85,148.14 119.55,148.14 119.60,148.14 119.82,148.14 119.90,142.14 120.25,142.14 120.28,136.13 120.58,130.12 120.81,130.12 121.56,127.12 121.63,127.12 121.79,124.11 122.08,124.11 122.29,118.10 122.49,118.10 122.51,115.10 122.74,112.09 123.01,109.09 123.24,109.09 123.59,106.08 123.85,106.08 124.25,100.07 124.51,100.07 149.07,97.06 150.69,94.06 150.81,91.05 152.07,88.04 153.16,85.04 153.32,85.04 153.78,82.03 154.87,79.02 155.08,79.02 155.38,76.02 155.50,73.01 155.77,73.01 155.82,73.01 207.08,70.00 213.07,70.00 213.57,70.00 218.52,70.00 900.00,70.00 900.00,70.00 218.52,70.00 213.57,79.02 213.07,85.04 207.08,91.05 155.82,94.06 155.77,100.07 155.50,103.08 155.38,109.09 155.08,112.09 154.87,115.10 153.78,121.11 153.32,124.11 153.16,127.12 152.07,130.12 150.81,136.13 150.69,139.13 149.07,142.14 124.51,145.14 124.25,154.15 123.85,154.15 123.59,160.16 123.24,163.16 123.01,166.16 122.74,172.16 122.51,175.17 122.49,175.17 122.29,178.17 122.08,181.17 121.79,193.17 121.63,187.17 121.56,193.17 120.81,199.17 120.58,208.17 120.28,205.17 120.25,211.17 119.90,211.17 119.82,214.17 119.60,220.17 119.55,217.17 118.85,223.17 118.63,232.16 114.89,232.16 113.21,238.16 111.29,238.16 111.17,244.15 110.90,241.15 110.80,250.14 110.74,253.14 110.53,262.13 110.05,259.13 110.03,271.12 110.00,265.13 109.97,265.13 109.78,274.11 109.68,280.10 109.39,283.10 109.31,283.10 108.95,289.09 108.75,286.09 108.67,295.08 108.55,295.08 108.47,301.06 108.25,298.07 108.24,310.04 108.20,313.04 108.14,313.04 108.04,316.03 108.02,322.02 107.99,325.01 107.97,328.00 107.87,336.97 107.78,333.98 107.70,345.95 107.66,339.97 107.60,348.94 107.54,351.93 107.54,351.93 107.54,354.92 107.53,357.91 107.50,360.90 107.47,366.88 107.46,366.88 107.44,369.87 107.44,369.87 107.41,381.83 107.40,378.84 107.38,384.81 107.34,390.79 107.31,390.79 107.29,393.78 107.27,399.75 107.25,399.75 107.24,411.70 107.22,408.72 107.21,405.73 107.19,414.69 107.18,417.68 107.17,417.68 107.13,423.65 107.11,426.63 107.11,426.63 107.07,438.58 107.07,429.62 107.06,438.58 107.05,441.56 106.94,447.53 106.93,453.50 106.90,453.50 106.88,456.48 106.85,450.52 106.84,468.42 106.81,468.42 106.81,465.44 106.79,465.44 106.78,480.35 106.76,474.39 106.76,486.32 106.75,492.28 106.74,492.28 106.73,495.26 106.72,498.24 106.71,498.24 106.71,507.19 106.69,507.19 106.69,516.13 106.68,504.21 106.68,516.13 106.62,516.13 106.61,525.07 106.61,522.09 106.60,534.01 106.60,531.03 106.59,539.96 106.58,539.96 106.57,540.00 106.57,539.96 106.57,540.00 106.57,540.00 106.56,540.00 106.53,540.00 106.52,540.00 106.52,540.00 106.51,540.00 106.51,540.00 106.50,540.00 106.49,540.00 106.48,540.00 106.48,540.00 106.47,540.00 106.46,540.00 106.44,540.00 106.42,540.00 106.42,540.00 106.42,540.00 106.41,540.00 106.41,540.00 106.41,540.00 106.40,540.00 106.40,540.00" fill="#1f77b4" fill-opacity="0.35" stroke="none"/>
<polyline points="106.40,540.00 106.40,465.44 106.41,474.39 106.41,465.44 106.41,456.48 106.42,462.45 106.42,453.50 106.42,450.52 106.44,450.52 106.46,447.53 106.47,441.56 106.48,438.58 106.48,432.61 106.49,432.61 106.50,432.61 106.51,438.58 106.51,423.65 106.52,426.63 106.52,420.66 106.53,423.65 106.56,414.69 106.57,414.69 106.57,405.73 106.57,408.72 106.57,402.74 106.58,405.73 106.59,399.75 106.60,393.78 106.60,396.77 106.61,390.79 106.61,384.81 106.62,381.83 106.68,381.83 106.68,375.85 106.69,384.81 106.69,381.83 106.71,372.86 106.71,372.86 106.72,366.88 106.73,363.89 106.74,357.91 106.75,360.90 106.76,360.90 106.76,351.93 106.78,348.94 106.79,345.95 106.81,345.95 106.81,339.97 106.84,342.96 106.85,336.97 106.88,333.98 106.90,328.00 106.93,325.01 106.94,325.01 107.05,325.01 107.06,325.01 107.07,319.02 107.07,313.04 107.11,310.04 107.11,307.05 107.13,310.04 107.17,304.06 107.18,298.07 107.19,298.07 107.21,295.08 107.22,298.07 107.24,292.08 107.25,283.10 107.27,280.10 107.29,289.09 107.31,277.11 107.34,280.10 107.38,271.12 107.40,274.11 107.41,277.11 107.44,268.12 107.44,268.12 107.46,262.13 107.47,262.13 107.50,256.14 107.53,253.14 107.54,253.14 107.54,250.14 107.54,250.14 107.60,244.15 107.66,238.16 107.70,235.16 107.78,235.16 107.87,229.16 107.97,226.16 107.99,220.17 108.02,223.17 108.04,220.17 108.14,217.17 108.20,217.17 108.24,208.17 108.25,208.17 108.47,205.17 108.55,205.17 108.67,202.17 108.75,196.17 108.95,199.17 109.31,193.17 109.39,196.17 109.68,190.17 109.78,190.17 109.97,184.17 110.00,184.17 110.03,181.17 110.05,178.17 110.53,178.17 110.74,172.16 110.80,169.16 110.90,166.16 111.17,166.16 111.29,163.16 113.21,157.15 114.89,157.15 118.63,154.15 118.85,148.14 119.55,148.14 119.60,148.14 119.82,148.14 119.90,142.14 120.25,142.14 120.28,136.13 120.58,130.12 120.81,130.12 121.56,127.12 121.63,127.12 121.79,124.11 122.08,124.11 122.29,118.10 122.49,118.10 122.51,115.10 122.74,112.09 123.01,109.09 123.24,109.09 123.59,106.08 123.85,106.08 124.25,100.07 124.51,100.07 149.07,97.06 150.69,94.06 150.81,91.05 152.07,88.04 153.16,85.04 153.32,85.04 153.78,82.03 154.87,79.02 155.08,79.02 155.38,76.02 155.50,73.01 155.77,73.01 155.82,73.01 207.08,70.00 213.07,70.00 213.57,70.00 218.52,70.00 900.00,70.00" fill="none" stroke="#1f77b4" stroke-width="0.9" stroke-opacity="0.85"/>
<polyline points="106.40,540.00 106.40,540.00 106.41,540.00 106.41,540.00 106.41,540.00 106.42,540.00 106.42,540.00 106.42,540.00 106.44,540.00 106.46,540.00 106.47,540.00 106.48,540.00 106.48,540.00 106.49,540.00 106.50,540.00 106.51,540.00 106.51,540.00 106.52,540.00 106.52,540.00 106.53,540.00 106.56,540.00 106.57,540.00 106.57,540.00 106.57,539.96 106.57,540.00 106.58,539.96 106.59,539.96 106.60,531.03 106.60,534.01 106.61,522.09 106.61,525.07 106.62,516.13 106.68,516.13 106.68,504.21 106.69,516.13 106.69,507.19 106.71,507.19 106.71,498.24 106.72,498.24 106.73,495.26 106.74,492.28 106.75,492.28 106.76,486.32 106.76,474.39 106.78,480.35 106.79,465.44 106.81,465.44 106.81,468.42 106.84,468.42 106.85,450.52 106.88,456.48 106.90,453.50 106.93,453.50 106.94,447.53 107.05,441.56 107.06,438.58 107.07,429.62 107.07,438.58 107.11,426.63 107.11,426.63 107.13,423.65 107.17,417.68 107.18,417.68 107.19,414.69 107.21,405.73 107.22,408.72 107.24,411.70 107.25,399.75 107.27,399.75 107.29,393.78 107.31,390.79 107.34,390.79 107.38,384.81 107.40,378.84 107.41,381.83 107.44,369.87 107.44,369.87 107.46,366.88 107.47,366.88 107.50,360.90 107.53,357.91 107.54,354.92 107.54,351.93 107.54,351.93 107.60,348.94 107.66,339.97 107.70,345.95 107.78,333.98 107.87,336.97 107.97,328.00 107.99,325.01 108.02,322.02 108.04,316.03 108.14,313.04 108.20,313.04 108.24,310.04 108.25,298.07 108.47,301.06 108.55,295.08 108.67,295.08 108.75,286.09 108.95,289.09 109.31,283.10 109.39,283.10 109.68,280.10 109.78,274.11 109.97,265.13 110.00,265.13 110.03,271.12 110.05,259.13 110.53,262.13 110.74,253.14 110.80,250.14 110.90,241.15 111.17,244.15 111.29,238.16 113.21,238.16 114.89,232.16 118.63,232.16 118.85,223.17 119.55,217.17 119.60,220.17 119.82,214.17 119.90,211.17 120.25,211.17 120.28,205.17 120.58,208.17 120.81,199.17 121.56,193.17 121.63,187.17 121.79,193.17 122.08,181.17 122.29,178.17 122.49,175.17 122.51,175.17 122.74,172.16 123.01,166.16 123.24,163.16 123.59,160.16 123.85,154.15 124.25,154.15 124.51,145.14 149.07,142.14 150.69,139.13 150.81,136.13 152.07,130.12 153.16,127.12 153.32,124.11 153.78,121.11 154.87,115.10 155.08,112.09 155.38,109.09 155.50,103.08 155.77,100.07 155.82,94.06 207.08,91.05 213.07,85.04 213.57,79.02 218.52,70.00 900.00,70.00" fill="none" stroke="#1f77b4" stroke-width="0.9" stroke-opacity="0.85"/>
<polyline points="106.40,540.00 106.40,539.96 106.41,536.99 106.41,534.01 106.41,531.03 106.42,528.05 106.42,525.07 106.42,522.09 106.44,519.11 106.46,516.13 106.47,513.15 106.48,510.17 106.48,507.19 106.49,504.21 106.50,501.22 106.51,498.24 106.51,495.26 106.52,492.28 106.52,489.30 106.53,486.32 106.56,483.33 106.57,480.35 106.57,477.37 106.57,474.39 106.57,471.40 106.58,468.42 106.59,465.44 106.60,462.45 106.60,459.47 106.61,456.48 106.61,453.50 106.62,450.52 106.68,447.53 106.68,444.55 106.69,441.56 106.69,438.58 106.71,435.59 106.71,432.61 106.72,429.62 106.73,426.63 106.74,423.65 106.75,420.66 106.76,417.68 106.76,414.69 106.78,411.70 106.79,408.72 106.81,405.73 106.81,402.74 106.84,399.75 106.85,396.77 106.88,393.78 106.90,390.79 106.93,387.80 106.94,384.81 107.05,381.83 107.06,378.84 107.07,375.85 107.07,372.86 107.11,369.87 107.11,366.88 107.13,363.89 107.17,360.90 107.18,357.91 107.19,354.92 107.21,351.93 107.22,348.94 107.24,345.95 107.25,342.96 107.27,339.97 107.29,336.97 107.31,333.98 107.34,330.99 107.38,328.00 107.40,325.01 107.41,322.02 107.44,319.02 107.44,316.03 107.46,313.04 107.47,310.04 107.50,307.05 107.53,304.06 107.54,301.06 107.54,298.07 107.54,295.08 107.60,292.08 107.66,289.09 107.70,286.09 107.78,283.10 107.87,280.10 107.97,277.11 107.99,274.11 108.02,271.12 108.04,268.12 108.14,265.13 108.20,262.13 108.24,259.13 108.25,256.14 108.47,253.14 108.55,250.14 108.67,247.15 108.75,244.15 108.95,241.15 109.31,238.16 109.39,235.16 109.68,232.16 109.78,229.16 109.97,226.16 110.00,223.17 110.03,220.17 110.05,217.17 110.53,214.17 110.74,211.17 110.80,208.17 110.90,205.17 111.17,202.17 111.29,199.17 113.21,196.17 114.89,193.17 118.63,190.17 118.85,187.17 119.55,184.17 119.60,181.17 119.82,178.17 119.90,175.17 120.25,172.16 120.28,169.16 120.58,166.16 120.81,163.16 121.56,160.16 121.63,157.15 121.79,154.15 122.08,151.15 122.29,148.14 122.49,145.14 122.51,142.14 122.74,139.13 123.01,136.13 123.24,133.13 123.59,130.12 123.85,127.12 124.25,124.11 124.51,121.11 149.07,118.10 150.69,115.10 150.81,112.09 152.07,109.09 153.16,106.08 153.32,103.08 153.78,100.07 154.87,97.06 155.08,94.06 155.38,91.05 155.50,88.04 155.77,85.04 155.82,82.03 207.08,79.02 213.07,76.02 213.57,73.01 218.52,70.00 900.00,70.00" fill="none" stroke="#1f77b4" stroke-width="2.0"/>
<rect x="86" y="514" width="90" height="20" fill="white" fill-opacity="0.85" stroke="#888"/>
<text x="92" y="528" font-weight="bold" fill="#1f77b4">n = 32</text>
</svg>