<svg xmlns="http://www.w3.org/2000/svg" viewBox="0 0 960 600" font-family="Helvetica, Arial, sans-serif" font-size="12">
<rect width="100%" height="100%" fill="white"/>
<text x="480.0" y="22" text-anchor="middle" font-size="16" font-weight="bold">Chunking benefit: whole-file download CDF vs n parallel chunks</text>
<text x="480.0" y="40" text-anchor="middle" fill="#555">size=12500 kB, link=1000 Mbps, RTT=50 ms, p=1.00e-06</text>
<text x="480.0" y="56" text-anchor="middle" fill="#555">scenario=optimistic (each chunk gets full link), runs=500000; curves are F_chunk(t)^n</text>
<rect x="80" y="70" width="820" height="470" fill="#fafafa" stroke="#888"/>
<line x1="80.00" y1="70" x2="80.00" y2="540" stroke="#e0e0e0"/>
<text x="80.00" y="556" text-anchor="middle" fill="#333">0.000</text>
<line x1="182.50" y1="70" x2="182.50" y2="540" stroke="#e0e0e0"/>
<text x="182.50" y="556" text-anchor="middle" fill="#333">1.25</text>
<line x1="285.00" y1="70" x2="285.00" y2="540" stroke="#e0e0e0"/>
<text x="285.00" y="556" text-anchor="middle" fill="#333">2.50</text>
<line x1="387.50" y1="70" x2="387.50" y2="540" stroke="#e0e0e0"/>
<text x="387.50" y="556" text-anchor="middle" fill="#333">3.75</text>
<line x1="490.00" y1="70" x2="490.00" y2="540" stroke="#e0e0e0"/>
<text x="490.00" y="556" text-anchor="middle" fill="#333">5.00</text>
<line x1="592.50" y1="70" x2="592.50" y2="540" stroke="#e0e0e0"/>
<text x="592.50" y="556" text-anchor="middle" fill="#333">6.25</text>
<line x1="695.00" y1="70" x2="695.00" y2="540" stroke="#e0e0e0"/>
<text x="695.00" y="556" text-anchor="middle" fill="#333">7.50</text>
<line x1="797.50" y1="70" x2="797.50" y2="540" stroke="#e0e0e0"/>
<text x="797.50" y="556" text-anchor="middle" fill="#333">8.75</text>
<line x1="900.00" y1="70" x2="900.00" y2="540" stroke="#e0e0e0"/>
<text x="900.00" y="556" text-anchor="middle" fill="#333">10.0</text>
<line x1="80" y1="540.00" x2="900" y2="540.00" stroke="#e0e0e0"/>
<text x="72" y="544.00" text-anchor="end" fill="#333">0.990</text>
<line x1="80" y1="493.00" x2="900" y2="493.00" stroke="#e0e0e0"/>
<text x="72" y="497.00" text-anchor="end" fill="#333">0.991</text>
<line x1="80" y1="446.00" x2="900" y2="446.00" stroke="#e0e0e0"/>
<text x="72" y="450.00" text-anchor="end" fill="#333">0.992</text>
<line x1="80" y1="399.00" x2="900" y2="399.00" stroke="#e0e0e0"/>
<text x="72" y="403.00" text-anchor="end" fill="#333">0.993</text>
<line x1="80" y1="352.00" x2="900" y2="352.00" stroke="#e0e0e0"/>
<text x="72" y="356.00" text-anchor="end" fill="#333">0.994</text>
<line x1="80" y1="305.00" x2="900" y2="305.00" stroke="#e0e0e0"/>
<text x="72" y="309.00" text-anchor="end" fill="#333">0.995</text>
<line x1="80" y1="258.00" x2="900" y2="258.00" stroke="#e0e0e0"/>
<text x="72" y="262.00" text-anchor="end" fill="#333">0.996</text>
<line x1="80" y1="211.00" x2="900" y2="211.00" stroke="#e0e0e0"/>
<text x="72" y="215.00" text-anchor="end" fill="#333">0.997</text>
<line x1="80" y1="164.00" x2="900" y2="164.00" stroke="#e0e0e0"/>
<text x="72" y="168.00" text-anchor="end" fill="#333">0.998</text>
<line x1="80" y1="117.00" x2="900" y2="117.00" stroke="#e0e0e0"/>
<text x="72" y="121.00" text-anchor="end" fill="#333">0.999</text>
<line x1="80" y1="70.00" x2="900" y2="70.00" stroke="#e0e0e0"/>
<text x="72" y="74.00" text-anchor="end" fill="#333">1.000</text>
<line x1="80" y1="540.00" x2="900" y2="540.00" stroke="#888" stroke-width="1" stroke-dasharray="4,4"/>
<text x="894.00" y="536.00" text-anchor="end" fill="#555" font-style="italic">P99</text>
<text x="490.0" y="585" text-anchor="middle">Download time (seconds)</text>
<text transform="translate(20,305.0) rotate(-90)" text-anchor="middle">Cumulative probability  (whole-file)</text>
<polyline points="126.61,540.00 126.61,540.00 126.61,539.91 126.61,539.53 126.61,539.06 126.61,538.97 126.61,538.59 126.61,538.12 126.61,538.03 126.61,537.65 126.62,537.18 126.62,537.09 126.62,536.71 126.62,536.24 126.62,536.15 126.62,535.77 126.62,535.30 126.62,535.21 126.62,534.83 126.62,534.36 126.62,534.27 126.62,533.89 126.62,533.42 126.62,533.33 126.63,532.95 126.63,532.48 126.63,532.39 126.63,532.01 126.63,531.54 126.63,531.45 126.63,531.07 126.63,530.60 126.63,530.51 126.63,530.13 126.63,529.66 126.63,529.57 126.63,529.19 126.64,528.72 126.64,528.63 126.64,528.25 126.64,527.78 126.64,527.69 126.64,527.31 126.64,526.84 126.64,526.75 126.64,526.37 126.64,525.90 126.64,525.81 126.64,525.43 126.64,524.96 126.64,524.87 126.65,524.49 126.65,524.02 126.65,523.93 126.65,523.55 126.65,523.08 126.65,522.99 126.65,522.61 126.65,522.14 126.65,522.05 126.65,521.67 126.65,521.20 126.65,521.11 126.65,520.73 126.65,520.26 126.66,520.17 126.66,519.79 126.66,519.32 126.66,519.23 126.66,518.85 126.66,518.38 126.66,518.29 126.66,517.91 126.66,517.44 126.66,517.35 126.66,516.97 126.66,516.50 126.66,516.41 126.67,516.03 126.67,515.56 126.67,515.47 126.67,515.09 126.67,514.62 126.67,514.53 126.67,514.15 126.67,513.68 126.67,513.59 126.67,513.21 126.68,512.74 126.68,512.65 126.68,512.27 126.68,511.80 126.68,511.71 126.68,511.33 126.68,510.86 126.68,510.77 126.68,510.39 126.68,509.92 126.68,509.83 126.68,509.45 126.69,508.98 126.69,508.89 126.69,508.51 126.69,508.04 126.69,507.95 126.69,507.57 126.69,507.10 126.69,507.01 126.69,506.63 126.69,506.16 126.69,506.07 126.69,505.69 126.70,505.22 126.70,505.13 126.70,504.75 126.70,504.28 126.70,504.19 126.70,503.81 126.70,503.34 126.70,503.25 126.70,502.87 126.70,502.40 126.70,502.31 126.70,501.93 126.70,501.46 126.71,501.37 126.71,500.99 126.71,500.52 126.71,500.43 126.71,500.05 126.71,499.58 126.71,499.49 126.71,499.11 126.71,498.64 126.71,498.55 126.71,498.17 126.72,497.70 126.72,497.61 126.72,497.23 126.72,496.76 126.72,496.67 126.72,496.29 126.72,495.82 126.72,495.73 126.72,495.35 126.73,494.88 126.73,494.79 126.73,494.41 126.73,493.94 126.73,493.85 126.73,493.47 126.73,493.00 126.73,492.91 126.73,492.53 126.73,492.06 126.73,491.97 126.74,491.59 126.74,491.12 126.74,491.03 126.74,490.65 126.74,490.18 126.74,490.09 126.74,489.71 126.74,489.24 126.74,489.15 126.74,488.77 126.75,488.30 126.75,488.21 126.75,487.83 126.75,487.36 126.75,487.27 126.75,486.89 126.75,486.42 126.75,486.33 126.75,485.95 126.75,485.48 126.75,485.39 126.75,485.01 126.75,484.54 126.76,484.45 126.76,484.07 126.76,483.60 126.76,483.51 126.76,483.13 126.76,482.66 126.76,482.57 126.76,482.19 126.77,481.72 126.77,481.63 126.77,481.25 126.77,480.78 126.77,480.69 126.77,480.31 126.77,479.84 126.77,479.75 126.77,479.37 126.77,478.90 126.78,478.81 126.78,478.43 126.78,477.96 126.78,477.87 126.78,477.49 126.78,477.02 126.78,476.93 126.78,476.55 126.78,476.08 126.78,475.99 126.78,475.61 126.79,475.14 126.79,475.05 126.79,474.67 126.79,474.20 126.79,474.11 126.79,473.73 126.79,473.26 126.79,473.17 126.79,472.79 126.80,472.32 126.80,472.23 126.80,471.85 126.80,471.38 126.80,471.29 126.80,470.91 126.80,470.44 126.80,470.35 126.80,469.97 126.81,469.50 126.81,469.41 126.81,469.03 126.81,468.56 126.81,468.47 126.81,468.09 126.81,467.62 126.81,467.53 126.81,467.15 126.81,466.68 126.81,466.59 126.81,466.21 126.82,465.74 126.82,465.65 126.82,465.27 126.82,464.80 126.82,464.71 126.82,464.33 126.82,463.86 126.82,463.77 126.82,463.39 126.83,462.92 126.83,462.83 126.83,462.45 126.83,461.98 126.83,461.89 126.83,461.51 126.83,461.04 126.83,460.95 126.83,460.57 126.83,460.10 126.83,460.01 126.84,459.63 126.84,459.16 126.84,459.07 126.84,458.69 126.84,458.22 126.84,458.13 126.84,457.75 126.84,457.28 126.84,457.19 126.84,456.81 126.85,456.34 126.85,456.25 126.85,455.87 126.85,455.40 126.85,455.31 126.85,454.93 126.85,454.46 126.85,454.37 126.85,453.99 126.85,453.52 126.85,453.43 126.86,453.05 126.86,452.58 126.86,452.49 126.86,452.11 126.86,451.64 126.86,451.55 126.86,451.17 126.86,450.70 126.87,450.61 126.87,450.23 126.87,449.76 126.87,449.67 126.87,449.29 126.87,448.82 126.87,448.73 126.87,448.35 126.87,447.88 126.87,447.79 126.88,447.41 126.88,446.94 126.88,446.85 126.88,446.47 126.88,446.00 126.88,445.91 126.88,445.53 126.89,445.06 126.89,444.97 126.89,444.59 126.89,444.12 126.89,444.03 126.89,443.65 126.89,443.18 126.89,443.09 126.89,442.71 126.90,442.24 126.90,442.15 126.90,441.77 126.90,441.30 126.90,441.21 126.90,440.83 126.90,440.36 126.90,440.27 126.90,439.89 126.91,439.42 126.91,439.33 126.91,438.95 126.91,438.48 126.91,438.39 126.91,438.01 126.91,437.54 126.91,437.45 126.91,437.07 126.92,436.60 126.92,436.51 126.92,436.13 126.92,435.66 126.92,435.57 126.92,435.19 126.92,434.72 126.92,434.63 126.92,434.25 126.93,433.78 126.93,433.69 126.93,433.31 126.93,432.84 126.93,432.75 126.93,432.37 126.93,431.90 126.93,431.81 126.93,431.43 126.94,430.96 126.94,430.87 126.94,430.49 126.94,430.02 126.94,429.93 126.94,429.55 126.94,429.08 126.94,428.99 126.95,428.61 126.95,428.14 126.95,428.05 126.95,427.67 126.95,427.20 126.95,427.11 126.95,426.73 126.96,426.26 126.96,426.17 126.96,425.79 126.96,425.32 126.96,425.23 126.96,424.85 126.97,424.38 126.97,424.29 126.97,423.91 126.97,423.44 126.97,423.35 126.97,422.97 126.97,422.50 126.97,422.41 126.97,422.03 126.97,421.56 126.97,421.47 126.98,421.09 126.98,420.62 126.98,420.53 126.98,420.15 126.98,419.68 126.98,419.59 126.98,419.21 126.99,418.74 126.99,418.65 126.99,418.27 126.99,417.80 126.99,417.71 126.99,417.33 126.99,416.86 126.99,416.77 126.99,416.39 127.00,415.92 127.00,415.83 127.00,415.45 127.00,414.98 127.00,414.89 127.00,414.51 127.00,414.04 127.00,413.95 127.00,413.57 127.01,413.10 127.01,413.01 127.01,412.63 127.01,412.16 127.01,412.07 127.01,411.69 127.01,411.22 127.01,411.13 127.02,410.75 127.02,410.28 127.02,410.19 127.02,409.81 127.02,409.34 127.02,409.25 127.02,408.87 127.02,408.40 127.02,408.31 127.02,407.93 127.03,407.46 127.03,407.37 127.03,406.99 127.03,406.52 127.03,406.43 127.03,406.05 127.03,405.58 127.03,405.49 127.04,405.11 127.04,404.64 127.04,404.55 127.04,404.17 127.04,403.70 127.04,403.61 127.04,403.23 127.05,402.76 127.05,402.67 127.05,402.29 127.05,401.82 127.05,401.73 127.05,401.35 127.05,400.88 127.05,400.79 127.05,400.41 127.06,399.94 127.06,399.85 127.06,399.47 127.06,399.00 127.06,398.91 127.06,398.53 127.07,398.06 127.07,397.97 127.07,397.59 127.07,397.12 127.07,397.03 127.07,396.65 127.07,396.18 127.07,396.09 127.07,395.71 127.08,395.24 127.08,395.15 127.08,394.77 127.08,394.30 127.08,394.21 127.08,393.83 127.08,393.36 127.09,393.27 127.09,392.89 127.09,392.42 127.09,392.33 127.09,391.95 127.09,391.48 127.09,391.39 127.10,391.01 127.10,390.54 127.10,390.45 127.10,390.07 127.10,389.60 127.10,389.51 127.10,389.13 127.10,388.66 127.11,388.57 127.11,388.19 127.11,387.72 127.11,387.63 127.11,387.25 127.11,386.78 127.11,386.69 127.11,386.31 127.11,385.84 127.12,385.75 127.12,385.37 127.12,384.90 127.12,384.81 127.12,384.43 127.12,383.96 127.12,383.87 127.12,383.49 127.12,383.02 127.12,382.93 127.13,382.55 127.13,382.08 127.13,381.99 127.13,381.61 127.13,381.14 127.13,381.05 127.13,380.67 127.14,380.20 127.14,380.11 127.14,379.73 127.14,379.26 127.14,379.17 127.14,378.79 127.14,378.32 127.14,378.23 127.15,377.85 127.15,377.38 127.15,377.29 127.15,376.91 127.16,376.44 127.16,376.35 127.16,375.97 127.16,375.50 127.16,375.41 127.16,375.03 127.16,374.56 127.16,374.47 127.16,374.09 127.17,373.62 127.17,373.53 127.17,373.15 127.17,372.68 127.17,372.59 127.17,372.21 127.17,371.74 127.17,371.65 127.18,371.27 127.18,370.80 127.18,370.71 127.18,370.33 127.18,369.86 127.18,369.77 127.18,369.39 127.19,368.92 127.19,368.83 127.19,368.45 127.19,367.98 127.19,367.89 127.20,367.51 127.20,367.04 127.20,366.95 127.20,366.57 127.20,366.10 127.20,366.01 127.20,365.63 127.21,365.16 127.21,365.07 127.21,364.69 127.21,364.22 127.21,364.13 127.22,363.75 127.22,363.28 127.22,363.19 127.22,362.81 127.22,362.34 127.22,362.25 127.23,361.87 127.23,361.40 127.23,361.31 127.23,360.93 127.24,360.46 127.24,360.37 127.24,359.99 127.24,359.52 127.24,359.43 127.24,359.05 127.24,358.58 127.24,358.49 127.25,358.11 127.25,357.64 127.25,357.55 127.25,357.17 127.25,356.70 127.25,356.61 127.25,356.23 127.26,355.76 127.26,355.67 127.26,355.29 127.26,354.82 127.26,354.73 127.26,354.35 127.27,353.88 127.27,353.79 127.27,353.41 127.27,352.94 127.27,352.85 127.28,352.47 127.28,352.00 127.28,351.91 127.28,351.53 127.28,351.06 127.28,350.97 127.29,350.59 127.29,350.12 127.29,350.03 127.29,349.65 127.29,349.18 127.29,349.09 127.29,348.71 127.30,348.24 127.30,348.15 127.30,347.77 127.30,347.30 127.30,347.21 127.30,346.83 127.31,346.36 127.31,346.27 127.31,345.89 127.31,345.42 127.31,345.33 127.31,344.95 127.32,344.48 127.32,344.39 127.32,344.01 127.32,343.54 127.32,343.45 127.33,343.07 127.33,342.60 127.33,342.51 127.33,342.13 127.34,341.66 127.34,341.57 127.34,341.19 127.34,340.72 127.34,340.63 127.35,340.25 127.35,339.78 127.35,339.69 127.35,339.31 127.35,338.84 127.35,338.75 127.35,338.37 127.36,337.90 127.36,337.81 127.36,337.43 127.36,336.96 127.36,336.87 127.37,336.49 127.37,336.02 127.37,335.93 127.37,335.55 127.37,335.08 127.37,334.99 127.37,334.61 127.37,334.14 127.38,334.05 127.38,333.67 127.38,333.20 127.38,333.11 127.38,332.73 127.39,332.26 127.39,332.17 127.39,331.79 127.39,331.32 127.39,331.23 127.39,330.85 127.40,330.38 127.40,330.29 127.40,329.91 127.40,329.44 127.40,329.35 127.40,328.97 127.41,328.50 127.41,328.41 127.41,328.03 127.41,327.56 127.41,327.47 127.42,327.09 127.42,326.62 127.42,326.53 127.42,326.15 127.42,325.68 127.42,325.59 127.43,325.21 127.43,324.74 127.43,324.65 127.43,324.27 127.43,323.80 127.43,323.71 127.44,323.33 127.44,322.86 127.44,322.77 127.45,322.39 127.45,321.92 127.45,321.83 127.45,321.45 127.46,320.98 127.46,320.89 127.46,320.51 127.46,320.04 127.47,319.95 127.47,319.57 127.47,319.10 127.47,319.01 127.47,318.63 127.48,318.16 127.48,318.07 127.48,317.69 127.48,317.22 127.48,317.13 127.48,316.75 127.49,316.28 127.49,316.19 127.49,315.81 127.49,315.34 127.49,315.25 127.49,314.87 127.50,314.40 127.50,314.31 127.50,313.93 127.50,313.46 127.50,313.37 127.51,312.99 127.51,312.52 127.51,312.43 127.51,312.05 127.51,311.58 127.51,311.49 127.52,311.11 127.52,310.64 127.52,310.55 127.52,310.17 127.53,309.70 127.53,309.61 127.53,309.23 127.53,308.76 127.53,308.67 127.54,308.29 127.54,307.82 127.54,307.73 127.54,307.35 127.55,306.88 127.55,306.79 127.55,306.41 127.55,305.94 127.55,305.85 127.55,305.47 127.56,305.00 127.56,304.91 127.56,304.53 127.57,304.06 127.57,303.97 127.57,303.59 127.57,303.12 127.57,303.03 127.58,302.65 127.58,302.18 127.58,302.09 127.58,301.71 127.59,301.24 127.59,301.15 127.59,300.77 127.59,300.30 127.59,300.21 127.60,299.83 127.60,299.36 127.60,299.27 127.60,298.89 127.61,298.42 127.61,298.33 127.61,297.95 127.61,297.48 127.61,297.39 127.62,297.01 127.62,296.54 127.62,296.45 127.63,296.07 127.63,295.60 127.63,295.51 127.64,295.13 127.64,294.66 127.64,294.57 127.64,294.19 127.65,293.72 127.65,293.63 127.65,293.25 127.65,292.78 127.66,292.69 127.66,292.31 127.66,291.84 127.66,291.75 127.67,291.37 127.67,290.90 127.67,290.81 127.67,290.43 127.68,289.96 127.68,289.87 127.68,289.49 127.68,289.02 127.69,288.93 127.69,288.55 127.69,288.08 127.69,287.99 127.69,287.61 127.69,287.14 127.70,287.05 127.70,286.67 127.70,286.20 127.71,286.11 127.71,285.73 127.72,285.26 127.72,285.17 127.73,284.79 127.73,284.32 127.73,284.23 127.73,283.85 127.74,283.38 127.74,283.29 127.74,282.91 127.75,282.44 127.75,282.35 127.75,281.97 127.76,281.50 127.76,281.41 127.76,281.03 127.77,280.56 127.77,280.47 127.78,280.09 127.78,279.62 127.78,279.53 127.78,279.15 127.79,278.68 127.79,278.59 127.79,278.21 127.80,277.74 127.80,277.65 127.80,277.27 127.81,276.80 127.81,276.71 127.81,276.33 127.82,275.86 127.82,275.77 127.83,275.39 127.83,274.92 127.83,274.83 127.83,274.45 127.84,273.98 127.84,273.89 127.85,273.51 127.85,273.04 127.85,272.95 127.86,272.57 127.86,272.10 127.87,272.01 127.87,271.63 127.87,271.16 127.87,271.07 127.87,270.69 127.88,270.22 127.88,270.13 127.89,269.75 127.90,269.28 127.90,269.19 127.90,268.81 127.91,268.34 127.91,268.25 127.91,267.87 127.92,267.40 127.92,267.31 127.92,266.93 127.93,266.46 127.93,266.37 127.93,265.99 127.94,265.52 127.94,265.43 127.94,265.05 127.95,264.58 127.95,264.49 127.95,264.11 127.96,263.64 127.96,263.55 127.97,263.17 127.98,262.70 127.98,262.61 127.99,262.23 127.99,261.76 127.99,261.67 127.99,261.29 128.00,260.82 128.00,260.73 128.00,260.35 128.01,259.88 128.01,259.79 128.01,259.41 128.01,258.94 128.01,258.85 128.02,258.47 128.03,258.00 128.03,257.91 128.03,257.53 128.04,257.06 128.04,256.97 128.04,256.59 128.05,256.12 128.05,256.03 128.05,255.65 128.06,255.18 128.06,255.09 128.06,254.71 128.06,254.24 128.07,254.15 128.07,253.77 128.08,253.30 128.08,253.21 128.08,252.83 128.09,252.36 128.09,252.27 128.10,251.89 128.10,251.42 128.10,251.33 128.11,250.95 128.12,250.48 128.12,250.39 128.13,250.01 128.13,249.54 128.14,249.45 128.14,249.07 128.14,248.60 128.14,248.51 128.15,248.13 128.16,247.66 128.16,247.57 128.17,247.19 128.18,246.72 128.18,246.63 128.18,246.25 128.19,245.78 128.19,245.69 128.19,245.31 128.20,244.84 128.21,244.75 128.22,244.37 128.22,243.90 128.23,243.81 128.23,243.43 128.24,242.96 128.24,242.87 128.25,242.49 128.25,242.02 128.26,241.93 128.26,241.55 128.26,241.08 128.26,240.99 128.27,240.61 128.27,240.14 128.27,240.05 128.28,239.67 128.29,239.20 128.29,239.11 128.29,238.73 128.30,238.26 128.30,238.17 128.31,237.79 128.33,237.32 128.33,237.23 128.34,236.85 128.34,236.38 128.34,236.29 128.35,235.91 128.36,235.44 128.36,235.35 128.37,234.97 128.38,234.50 128.38,234.41 128.39,234.03 128.40,233.56 128.40,233.47 128.40,233.09 128.41,232.62 128.41,232.53 128.42,232.15 128.43,231.68 128.43,231.59 128.44,231.21 128.44,230.74 128.45,230.65 128.45,230.27 128.47,229.80 128.47,229.71 128.48,229.33 128.50,228.86 128.50,228.77 128.51,228.39 128.52,227.92 128.52,227.83 128.54,227.45 128.54,226.98 128.54,226.89 128.55,226.51 128.56,226.04 128.57,225.95 128.58,225.57 128.59,225.10 128.59,225.01 128.61,224.63 128.63,224.16 128.63,224.07 128.63,223.69 128.64,223.22 128.64,223.13 128.65,222.75 128.67,222.28 128.67,222.19 128.68,221.81 128.69,221.34 128.69,221.25 128.70,220.87 128.71,220.40 128.72,220.31 128.72,219.93 128.74,219.46 128.74,219.37 128.75,218.99 128.76,218.52 128.76,218.43 128.77,218.05 128.79,217.58 128.79,217.49 128.81,217.11 128.83,216.64 128.84,216.55 128.84,216.17 128.86,215.70 128.86,215.61 128.89,215.23 128.90,214.76 128.90,214.67 128.93,214.29 128.94,213.82 128.94,213.73 128.95,213.35 128.97,212.88 128.97,212.79 128.98,212.41 129.00,211.94 129.00,211.85 129.01,211.47 129.03,211.00 129.03,210.91 129.06,210.53 129.08,210.06 129.08,209.97 129.10,209.59 129.13,209.12 129.14,209.03 129.15,208.65 129.16,208.18 129.17,208.09 129.19,207.71 129.21,207.24 129.21,207.15 129.24,206.77 129.27,206.30 129.27,206.21 129.31,205.83 129.34,205.36 129.35,205.27 129.40,204.89 129.47,204.42 129.47,204.33 129.53,203.95 129.55,203.48 129.56,203.39 129.63,203.01 129.66,202.54 129.67,202.45 129.71,202.07 129.75,201.60 129.75,201.51 129.79,201.13 129.81,200.66 129.81,200.57 129.85,200.19 129.89,199.72 129.91,199.63 129.97,199.25 130.07,198.78 130.10,198.69 130.14,198.31 130.27,197.84 130.29,197.75 130.39,197.37 130.71,196.90 130.76,196.81 130.94,196.43 131.42,195.96 131.43,195.87 131.64,195.49 131.84,195.02 131.84,194.93 136.15,194.55 137.10,194.08 137.18,193.99 137.44,193.61 137.61,193.14 137.73,193.05 137.93,192.67 138.12,192.20 138.15,192.11 138.28,191.73 138.45,191.26 138.48,191.17 138.76,190.79 138.80,190.32 138.82,190.23 138.90,189.85 138.94,189.38 138.96,189.29 139.15,188.91 139.31,188.44 139.32,188.35 139.43,187.97 139.51,187.50 139.53,187.41 139.69,187.03 139.74,186.56 139.78,186.47 139.82,186.09 139.89,185.62 139.89,185.53 139.93,185.15 139.98,184.68 139.99,184.59 140.02,184.21 140.08,183.74 140.09,183.65 140.16,183.27 140.23,182.80 140.25,182.71 140.29,182.33 140.38,181.86 140.40,181.77 140.48,181.39 140.52,180.92 140.53,180.83 140.58,180.45 140.65,179.98 140.65,179.89 140.71,179.51 140.77,179.04 140.77,178.95 140.79,178.57 140.86,178.10 140.87,178.01 140.90,177.63 140.93,177.16 140.93,177.07 140.97,176.69 141.02,176.22 141.03,176.13 141.06,175.75 141.08,175.28 141.09,175.19 141.12,174.81 141.16,174.34 141.17,174.25 141.20,173.87 141.27,173.40 141.28,173.31 141.31,172.93 141.37,172.46 141.37,172.37 141.42,171.99 141.46,171.52 141.48,171.43 141.52,171.05 141.56,170.58 141.57,170.49 141.60,170.11 141.62,169.64 141.63,169.55 141.67,169.17 141.74,168.70 141.75,168.61 141.81,168.23 141.84,167.76 141.86,167.67 141.90,167.29 141.98,166.82 142.01,166.73 142.06,166.35 142.08,165.88 142.09,165.79 142.12,165.41 142.17,164.94 142.17,164.85 142.20,164.47 142.24,164.00 142.25,163.91 142.30,163.53 142.36,163.06 142.38,162.97 142.42,162.59 142.47,162.12 142.48,162.03 142.51,161.65 142.57,161.18 142.57,161.09 142.63,160.71 142.69,160.24 142.71,160.15 142.76,159.77 142.78,159.30 142.78,159.21 142.79,158.83 142.82,158.36 142.82,158.27 142.85,157.89 142.87,157.42 142.88,157.33 142.89,156.95 142.96,156.48 142.97,156.39 143.00,156.01 143.04,155.54 143.05,155.45 143.10,155.07 143.16,154.60 143.17,154.51 143.23,154.13 143.29,153.66 143.31,153.57 143.37,153.19 143.43,152.72 143.44,152.63 143.47,152.25 143.53,151.78 143.53,151.69 143.58,151.31 143.61,150.84 143.62,150.75 143.65,150.37 143.69,149.90 143.69,149.81 143.74,149.43 143.81,148.96 143.81,148.87 143.89,148.49 143.93,148.02 143.96,147.93 143.99,147.55 144.03,147.08 144.04,146.99 144.07,146.61 144.16,146.14 144.17,146.05 144.19,145.67 144.25,145.20 144.26,145.11 144.30,144.73 144.36,144.26 144.37,144.17 144.46,143.79 144.55,143.32 144.56,143.23 144.66,142.85 144.76,142.38 144.80,142.29 145.00,141.91 145.06,141.44 145.07,141.35 145.13,140.97 145.21,140.50 145.22,140.41 145.33,140.03 145.51,139.56 145.56,139.47 145.60,139.09 145.76,138.62 145.81,138.53 145.85,138.15 146.07,137.68 146.08,137.59 146.22,137.21 146.68,136.74 146.78,136.65 147.09,136.27 147.42,135.80 147.43,135.71 147.76,135.33 147.97,134.86 148.03,134.77 148.30,134.39 150.37,133.92 151.71,133.83 168.24,133.45 169.87,132.98 169.89,132.89 170.01,132.51 170.28,132.04 170.38,131.95 171.17,131.57 171.45,131.10 171.46,131.01 171.74,130.63 171.86,130.16 171.87,130.07 171.96,129.69 172.10,129.22 172.13,129.13 172.21,128.75 172.74,128.28 172.75,128.19 172.85,127.81 173.01,127.34 173.02,127.25 173.11,126.87 173.20,126.40 173.26,126.31 173.34,125.93 173.45,125.46 173.50,125.37 173.61,124.99 173.72,124.52 173.74,124.43 173.84,124.05 173.89,123.58 173.90,123.49 174.11,123.11 174.25,122.64 174.27,122.55 174.34,122.17 174.50,121.70 174.53,121.61 174.61,121.23 174.82,120.76 174.83,120.67 174.88,120.29 174.96,119.82 174.97,119.73 175.00,119.35 175.06,118.88 175.07,118.79 175.12,118.41 175.23,117.94 175.23,117.85 175.39,117.47 175.48,117.00 175.49,116.91 175.57,116.53 175.66,116.06 175.67,115.97 175.75,115.59 175.83,115.12 175.83,115.03 175.98,114.65 176.03,114.18 176.03,114.09 176.10,113.71 176.26,113.24 176.28,113.15 176.39,112.77 176.48,112.30 176.49,112.21 176.61,111.83 176.71,111.36 176.73,111.27 176.77,110.89 176.90,110.42 176.90,110.33 177.01,109.95 177.11,109.48 177.14,109.39 177.31,109.01 177.46,108.54 177.49,108.45 177.69,108.07 177.91,107.60 177.94,107.51 177.99,107.13 178.15,106.66 178.16,106.57 178.22,106.19 178.41,105.72 178.44,105.63 178.56,105.25 178.68,104.78 178.71,104.69 178.83,104.31 178.92,103.84 178.93,103.75 179.09,103.37 179.49,102.90 179.54,102.81 179.71,102.43 180.04,101.96 180.10,101.87 180.30,101.49 180.93,101.02 181.09,100.93 181.38,100.55 182.52,100.08 182.63,99.99 230.05,99.61 232.29,99.14 232.92,99.05 233.34,98.67 233.84,98.20 233.87,98.11 234.00,97.73 234.29,97.26 234.40,97.17 234.71,96.79 235.02,96.32 235.04,96.23 235.57,95.85 235.72,95.38 235.76,95.29 235.98,94.91 236.26,94.44 236.29,94.35 236.46,93.97 236.81,93.50 236.85,93.41 236.95,93.03 237.22,92.56 237.23,92.47 237.55,92.09 237.69,91.62 237.74,91.53 237.94,91.15 238.32,90.68 238.56,90.59 238.95,90.21 239.37,89.74 239.49,89.65 239.70,89.27 240.02,88.80 240.04,88.71 240.68,88.33 241.14,87.86 241.17,87.77 241.74,87.39 242.54,86.92 242.69,86.83 243.05,86.45 243.33,85.98 243.66,85.89 244.67,85.51 340.58,85.04 340.97,84.95 343.70,84.57 344.11,84.10 344.31,84.01 344.74,83.63 345.76,83.16 345.83,83.07 347.10,82.69 347.66,82.22 347.78,82.13 348.54,81.75 349.42,81.28 349.67,81.19 350.40,80.81 350.97,80.34 351.06,80.25 352.29,79.87 353.42,79.40 353.78,79.31 357.22,78.93 549.71,78.46 552.47,78.37 555.35,77.99 557.52,77.52 557.74,77.43 559.71,77.05 561.19,76.58 561.64,76.49 564.06,76.11 567.07,75.64 567.36,75.55 575.27,75.17 797.34,74.70 799.82,74.61 803.35,74.23 804.80,73.76 805.22,73.67 806.22,73.29 807.17,72.82 807.49,72.73 810.96,72.35 870.12,71.88 870.29,71.79 873.19,71.41 875.62,70.94 876.01,70.85 877.30,70.47 880.96,70.00 900.00,70.00" fill="none" stroke="#d62728" stroke-width="1.8"/>
<polyline points="122.71,540.00 122.71,539.95 122.71,539.57 122.71,539.20 122.71,539.01 122.71,538.82 122.71,538.45 122.71,538.08 122.71,537.70 122.72,537.33 122.72,537.14 122.72,536.95 122.72,536.58 122.72,536.21 122.72,535.83 122.72,535.46 122.72,535.27 122.72,535.08 122.72,534.71 122.72,534.34 122.72,533.96 122.72,533.59 122.72,533.40 122.72,533.21 122.73,532.84 122.73,532.46 122.73,532.09 122.73,531.72 122.73,531.53 122.73,531.34 122.73,530.97 122.73,530.59 122.73,530.22 122.73,529.85 122.73,529.66 122.74,529.47 122.74,529.10 122.74,528.72 122.74,528.35 122.74,527.97 122.74,527.79 122.74,527.60 122.74,527.23 122.74,526.85 122.74,526.48 122.74,526.10 122.74,525.92 122.74,525.73 122.75,525.36 122.75,524.98 122.75,524.61 122.75,524.23 122.75,524.05 122.75,523.86 122.75,523.48 122.75,523.11 122.75,522.74 122.75,522.36 122.75,522.18 122.75,521.99 122.75,521.61 122.76,521.24 122.76,520.87 122.76,520.49 122.76,520.30 122.76,520.12 122.76,519.74 122.76,519.37 122.76,518.99 122.76,518.62 122.76,518.43 122.76,518.25 122.76,517.87 122.77,517.50 122.77,517.12 122.77,516.75 122.77,516.56 122.77,516.38 122.77,516.00 122.77,515.63 122.77,515.25 122.77,514.88 122.77,514.69 122.77,514.50 122.77,514.13 122.77,513.76 122.77,513.38 122.78,513.01 122.78,512.82 122.78,512.63 122.78,512.26 122.78,511.88 122.78,511.51 122.78,511.14 122.78,510.95 122.78,510.76 122.79,510.39 122.79,510.01 122.79,509.64 122.79,509.26 122.79,509.08 122.79,508.89 122.79,508.52 122.79,508.14 122.79,507.77 122.79,507.39 122.79,507.21 122.79,507.02 122.79,506.65 122.80,506.27 122.80,505.90 122.80,505.52 122.80,505.34 122.80,505.15 122.80,504.77 122.80,504.40 122.80,504.03 122.80,503.65 122.80,503.46 122.80,503.28 122.80,502.90 122.81,502.53 122.81,502.15 122.81,501.78 122.81,501.59 122.81,501.41 122.81,501.03 122.81,500.66 122.81,500.28 122.81,499.91 122.81,499.72 122.81,499.53 122.81,499.16 122.81,498.79 122.81,498.41 122.81,498.04 122.82,497.85 122.82,497.66 122.82,497.29 122.82,496.91 122.82,496.54 122.82,496.17 122.82,495.98 122.82,495.79 122.82,495.42 122.82,495.04 122.82,494.67 122.82,494.29 122.82,494.11 122.82,493.92 122.82,493.55 122.82,493.17 122.83,492.80 122.83,492.42 122.83,492.24 122.83,492.05 122.83,491.67 122.83,491.30 122.83,490.93 122.83,490.55 122.83,490.36 122.83,490.18 122.83,489.80 122.83,489.43 122.83,489.05 122.83,488.68 122.83,488.49 122.84,488.31 122.84,487.93 122.84,487.56 122.84,487.18 122.84,486.81 122.84,486.62 122.84,486.43 122.84,486.06 122.84,485.68 122.84,485.31 122.84,484.94 122.84,484.75 122.84,484.56 122.84,484.19 122.85,483.81 122.85,483.44 122.85,483.06 122.85,482.88 122.85,482.69 122.85,482.32 122.85,481.94 122.85,481.57 122.85,481.19 122.85,481.01 122.85,480.82 122.86,480.44 122.86,480.07 122.86,479.70 122.86,479.32 122.86,479.13 122.86,478.95 122.86,478.57 122.86,478.20 122.86,477.82 122.86,477.45 122.86,477.26 122.86,477.07 122.87,476.70 122.87,476.33 122.87,475.95 122.87,475.58 122.87,475.39 122.87,475.20 122.87,474.83 122.87,474.45 122.87,474.08 122.87,473.71 122.87,473.52 122.87,473.33 122.87,472.96 122.87,472.58 122.87,472.21 122.87,471.83 122.87,471.65 122.87,471.46 122.88,471.08 122.88,470.71 122.88,470.34 122.88,469.96 122.88,469.77 122.88,469.59 122.88,469.21 122.88,468.84 122.88,468.46 122.88,468.09 122.88,467.90 122.89,467.72 122.89,467.34 122.89,466.97 122.89,466.59 122.89,466.22 122.89,466.03 122.89,465.84 122.89,465.47 122.89,465.09 122.89,464.72 122.89,464.35 122.89,464.16 122.89,463.97 122.89,463.60 122.89,463.22 122.90,462.85 122.90,462.47 122.90,462.29 122.90,462.10 122.90,461.72 122.90,461.35 122.90,460.98 122.90,460.60 122.90,460.41 122.90,460.23 122.90,459.85 122.90,459.48 122.90,459.10 122.90,458.73 122.90,458.54 122.90,458.35 122.91,457.98 122.91,457.61 122.91,457.23 122.91,456.86 122.91,456.67 122.91,456.48 122.91,456.11 122.91,455.73 122.92,455.36 122.92,454.98 122.92,454.80 122.92,454.61 122.92,454.24 122.92,453.86 122.92,453.49 122.92,453.11 122.92,452.92 122.92,452.74 122.92,452.36 122.92,451.99 122.92,451.61 122.92,451.24 122.93,451.05 122.93,450.87 122.93,450.49 122.93,450.12 122.93,449.74 122.93,449.37 122.93,449.18 122.93,448.99 122.93,448.62 122.93,448.24 122.93,447.87 122.94,447.49 122.94,447.31 122.94,447.12 122.94,446.75 122.94,446.37 122.94,446.00 122.94,445.62 122.94,445.44 122.94,445.25 122.94,444.87 122.94,444.50 122.94,444.12 122.94,443.75 122.95,443.56 122.95,443.38 122.95,443.00 122.95,442.63 122.95,442.25 122.95,441.88 122.95,441.69 122.95,441.50 122.95,441.13 122.95,440.75 122.96,440.38 122.96,440.00 122.96,439.82 122.96,439.63 122.96,439.26 122.96,438.88 122.96,438.51 122.96,438.13 122.96,437.95 122.97,437.76 122.97,437.38 122.97,437.01 122.97,436.63 122.97,436.26 122.97,436.07 122.97,435.89 122.97,435.51 122.97,435.14 122.98,434.76 122.98,434.39 122.98,434.20 122.98,434.01 122.98,433.64 122.98,433.26 122.98,432.89 122.98,432.51 122.98,432.33 122.98,432.14 122.99,431.77 122.99,431.39 122.99,431.02 122.99,430.64 122.99,430.45 122.99,430.27 122.99,429.89 122.99,429.52 122.99,429.14 123.00,428.77 123.00,428.58 123.00,428.39 123.00,428.02 123.00,427.65 123.00,427.27 123.01,426.90 123.01,426.71 123.01,426.52 123.01,426.15 123.01,425.77 123.01,425.40 123.01,425.02 123.01,424.84 123.01,424.65 123.01,424.27 123.01,423.90 123.01,423.52 123.02,423.15 123.02,422.96 123.02,422.78 123.02,422.40 123.02,422.03 123.02,421.65 123.02,421.28 123.02,421.09 123.02,420.90 123.02,420.53 123.02,420.15 123.03,419.78 123.03,419.40 123.03,419.22 123.03,419.03 123.03,418.65 123.03,418.28 123.03,417.91 123.03,417.53 123.03,417.34 123.03,417.16 123.03,416.78 123.03,416.41 123.03,416.03 123.03,415.66 123.04,415.47 123.04,415.28 123.04,414.91 123.04,414.53 123.04,414.16 123.04,413.79 123.04,413.60 123.04,413.41 123.04,413.04 123.05,412.66 123.05,412.29 123.05,411.91 123.05,411.72 123.05,411.54 123.05,411.16 123.06,410.79 123.06,410.41 123.06,410.04 123.06,409.85 123.06,409.66 123.06,409.29 123.06,408.91 123.06,408.54 123.06,408.17 123.06,407.98 123.06,407.79 123.06,407.42 123.06,407.04 123.07,406.67 123.07,406.29 123.07,406.10 123.07,405.92 123.07,405.54 123.07,405.17 123.07,404.79 123.08,404.42 123.08,404.23 123.08,404.04 123.08,403.67 123.08,403.30 123.08,402.92 123.08,402.55 123.08,402.36 123.08,402.17 123.08,401.80 123.08,401.42 123.09,401.05 123.09,400.67 123.09,400.48 123.09,400.30 123.09,399.92 123.09,399.55 123.09,399.17 123.09,398.80 123.09,398.61 123.09,398.42 123.10,398.05 123.10,397.67 123.10,397.30 123.10,396.93 123.10,396.74 123.10,396.55 123.10,396.18 123.10,395.80 123.10,395.43 123.11,395.05 123.11,394.86 123.11,394.68 123.11,394.30 123.11,393.93 123.11,393.55 123.11,393.18 123.11,392.99 123.11,392.80 123.11,392.43 123.12,392.05 123.12,391.68 123.12,391.30 123.12,391.12 123.12,390.93 123.12,390.56 123.12,390.18 123.12,389.81 123.12,389.43 123.12,389.24 123.13,389.06 123.13,388.68 123.13,388.31 123.13,387.93 123.13,387.56 123.13,387.37 123.13,387.18 123.13,386.81 123.13,386.43 123.14,386.06 123.14,385.68 123.14,385.50 123.14,385.31 123.14,384.93 123.14,384.56 123.14,384.19 123.14,383.81 123.14,383.62 123.14,383.44 123.14,383.06 123.14,382.69 123.15,382.31 123.15,381.94 123.15,381.75 123.15,381.56 123.15,381.19 123.15,380.81 123.15,380.44 123.16,380.06 123.16,379.88 123.16,379.69 123.16,379.31 123.16,378.94 123.16,378.56 123.17,378.19 123.17,378.00 123.17,377.81 123.17,377.44 123.17,377.06 123.17,376.69 123.17,376.32 123.17,376.13 123.17,375.94 123.18,375.57 123.18,375.19 123.18,374.82 123.18,374.44 123.18,374.25 123.18,374.07 123.18,373.69 123.18,373.32 123.19,372.94 123.19,372.57 123.19,372.38 123.19,372.19 123.19,371.82 123.19,371.44 123.20,371.07 123.20,370.69 123.20,370.51 123.20,370.32 123.20,369.94 123.20,369.57 123.20,369.19 123.21,368.82 123.21,368.63 123.21,368.44 123.21,368.07 123.21,367.70 123.21,367.32 123.21,366.95 123.21,366.76 123.21,366.57 123.21,366.20 123.21,365.82 123.22,365.45 123.22,365.07 123.22,364.88 123.22,364.70 123.22,364.32 123.22,363.95 123.23,363.57 123.23,363.20 123.23,363.01 123.23,362.82 123.23,362.45 123.24,362.07 123.24,361.70 123.24,361.32 123.24,361.14 123.24,360.95 123.24,360.57 123.25,360.20 123.25,359.82 123.25,359.45 123.25,359.26 123.25,359.07 123.26,358.70 123.26,358.32 123.26,357.95 123.26,357.57 123.26,357.39 123.26,357.20 123.26,356.83 123.26,356.45 123.26,356.08 123.26,355.70 123.27,355.51 123.27,355.33 123.27,354.95 123.27,354.58 123.28,354.20 123.28,353.83 123.28,353.64 123.28,353.45 123.28,353.08 123.28,352.70 123.29,352.33 123.29,351.95 123.29,351.76 123.29,351.58 123.29,351.20 123.29,350.83 123.30,350.45 123.30,350.08 123.30,349.89 123.30,349.70 123.30,349.33 123.30,348.95 123.30,348.58 123.30,348.20 123.30,348.02 123.31,347.83 123.31,347.45 123.31,347.08 123.31,346.70 123.31,346.33 123.32,346.14 123.32,345.95 123.32,345.58 123.32,345.20 123.32,344.83 123.33,344.45 123.33,344.27 123.33,344.08 123.33,343.70 123.34,343.33 123.34,342.95 123.34,342.58 123.34,342.39 123.34,342.20 123.34,341.83 123.35,341.45 123.35,341.08 123.35,340.71 123.35,340.52 123.35,340.33 123.35,339.96 123.36,339.58 123.36,339.21 123.36,338.83 123.36,338.64 123.36,338.46 123.36,338.08 123.37,337.71 123.37,337.33 123.37,336.96 123.37,336.77 123.37,336.58 123.38,336.21 123.38,335.83 123.38,335.46 123.39,335.08 123.39,334.89 123.39,334.71 123.39,334.33 123.39,333.96 123.39,333.58 123.39,333.21 123.39,333.02 123.39,332.83 123.40,332.46 123.40,332.08 123.40,331.71 123.40,331.33 123.40,331.14 123.40,330.96 123.40,330.58 123.41,330.21 123.41,329.83 123.41,329.46 123.41,329.27 123.41,329.08 123.41,328.71 123.41,328.33 123.42,327.96 123.42,327.58 123.42,327.39 123.42,327.21 123.42,326.83 123.42,326.46 123.42,326.08 123.43,325.71 123.43,325.52 123.43,325.33 123.44,324.96 123.44,324.58 123.44,324.21 123.44,323.83 123.44,323.64 123.45,323.46 123.45,323.08 123.45,322.71 123.45,322.33 123.45,321.96 123.45,321.77 123.45,321.58 123.46,321.21 123.46,320.83 123.47,320.46 123.47,320.08 123.47,319.89 123.48,319.71 123.48,319.33 123.48,318.96 123.48,318.58 123.49,318.21 123.49,318.02 123.49,317.83 123.49,317.46 123.50,317.08 123.50,316.71 123.50,316.33 123.50,316.14 123.50,315.96 123.50,315.58 123.51,315.21 123.51,314.83 123.51,314.46 123.51,314.27 123.51,314.08 123.51,313.71 123.51,313.33 123.52,312.96 123.52,312.58 123.52,312.39 123.52,312.21 123.52,311.83 123.52,311.46 123.52,311.08 123.53,310.71 123.53,310.52 123.53,310.33 123.53,309.96 123.53,309.58 123.53,309.21 123.53,308.83 123.54,308.64 123.54,308.46 123.54,308.08 123.54,307.71 123.55,307.33 123.55,306.96 123.55,306.77 123.55,306.58 123.55,306.21 123.55,305.83 123.56,305.46 123.56,305.08 123.56,304.89 123.57,304.71 123.57,304.33 123.57,303.96 123.57,303.58 123.58,303.21 123.58,303.02 123.58,302.83 123.58,302.46 123.59,302.08 123.59,301.71 123.59,301.33 123.59,301.14 123.60,300.96 123.60,300.58 123.60,300.21 123.60,299.83 123.61,299.46 123.61,299.27 123.61,299.08 123.61,298.71 123.61,298.33 123.61,297.95 123.62,297.58 123.62,297.39 123.62,297.20 123.62,296.83 123.63,296.45 123.63,296.08 123.63,295.70 123.63,295.52 123.63,295.33 123.63,294.95 123.64,294.58 123.64,294.20 123.64,293.83 123.65,293.64 123.65,293.45 123.65,293.08 123.65,292.70 123.65,292.33 123.65,291.95 123.65,291.77 123.66,291.58 123.66,291.20 123.66,290.83 123.66,290.45 123.66,290.08 123.67,289.89 123.67,289.70 123.67,289.33 123.67,288.95 123.67,288.58 123.67,288.20 123.67,288.01 123.68,287.83 123.68,287.45 123.68,287.08 123.69,286.70 123.69,286.33 123.69,286.14 123.69,285.95 123.70,285.58 123.70,285.20 123.71,284.83 123.71,284.45 123.71,284.26 123.72,284.08 123.72,283.70 123.72,283.33 123.73,282.95 123.73,282.58 123.74,282.39 123.74,282.20 123.74,281.82 123.74,281.45 123.74,281.07 123.75,280.70 123.75,280.51 123.75,280.32 123.76,279.95 123.76,279.57 123.76,279.20 123.76,278.82 123.76,278.64 123.77,278.45 123.77,278.07 123.78,277.70 123.78,277.32 123.78,276.95 123.78,276.76 123.79,276.57 123.79,276.20 123.79,275.82 123.79,275.45 123.80,275.07 123.80,274.88 123.80,274.70 123.81,274.32 123.81,273.95 123.81,273.57 123.82,273.20 123.82,273.01 123.82,272.82 123.83,272.45 123.83,272.07 123.83,271.70 123.83,271.32 123.83,271.13 123.83,270.94 123.84,270.57 123.85,270.19 123.85,269.82 123.85,269.44 123.86,269.26 123.86,269.07 123.86,268.69 123.86,268.32 123.87,267.94 123.87,267.57 123.87,267.38 123.87,267.19 123.87,266.82 123.88,266.44 123.88,266.07 123.88,265.69 123.89,265.50 123.89,265.32 123.89,264.94 123.90,264.57 123.90,264.19 123.91,263.82 123.91,263.63 123.91,263.44 123.91,263.07 123.92,262.69 123.92,262.31 123.93,261.94 123.93,261.75 123.93,261.56 123.94,261.19 123.94,260.81 123.95,260.44 123.95,260.06 123.95,259.88 123.95,259.69 123.96,259.31 123.96,258.94 123.96,258.56 123.97,258.19 123.98,258.00 123.98,257.81 123.98,257.44 123.99,257.06 124.00,256.69 124.00,256.31 124.00,256.12 124.01,255.94 124.01,255.56 124.01,255.19 124.02,254.81 124.02,254.43 124.02,254.25 124.02,254.06 124.03,253.68 124.03,253.31 124.04,252.93 124.04,252.56 124.04,252.37 124.04,252.18 124.05,251.81 124.05,251.43 124.05,251.06 124.06,250.68 124.06,250.49 124.06,250.31 124.06,249.93 124.07,249.56 124.07,249.18 124.07,248.81 124.07,248.62 124.08,248.43 124.08,248.06 124.09,247.68 124.11,247.30 124.11,246.93 124.11,246.74 124.11,246.55 124.12,246.18 124.12,245.80 124.12,245.43 124.13,245.05 124.13,244.87 124.13,244.68 124.13,244.30 124.13,243.93 124.14,243.55 124.14,243.18 124.14,242.99 124.14,242.80 124.15,242.43 124.15,242.05 124.16,241.67 124.16,241.30 124.17,241.11 124.17,240.92 124.17,240.55 124.18,240.17 124.18,239.80 124.18,239.42 124.19,239.24 124.19,239.05 124.20,238.67 124.21,238.30 124.22,237.92 124.22,237.55 124.22,237.36 124.22,237.17 124.23,236.80 124.24,236.42 124.25,236.05 124.26,235.67 124.26,235.48 124.26,235.29 124.27,234.92 124.27,234.54 124.27,234.17 124.28,233.79 124.28,233.61 124.28,233.42 124.28,233.04 124.29,232.67 124.30,232.29 124.30,231.92 124.31,231.73 124.32,231.54 124.33,231.17 124.33,230.79 124.34,230.41 124.34,230.04 124.35,229.85 124.35,229.66 124.35,229.29 124.36,228.91 124.37,228.54 124.38,228.16 124.39,227.98 124.41,227.79 124.42,227.41 124.42,227.04 124.42,226.66 124.45,226.29 124.45,226.10 124.46,225.91 124.47,225.54 124.47,225.16 124.48,224.78 124.49,224.41 124.51,224.22 124.51,224.03 124.51,223.66 124.52,223.28 124.53,222.91 124.54,222.53 124.54,222.34 124.54,222.16 124.55,221.78 124.56,221.41 124.56,221.03 124.57,220.66 124.57,220.47 124.57,220.28 124.58,219.90 124.59,219.53 124.60,219.15 124.62,218.78 124.62,218.59 124.63,218.40 124.64,218.03 124.65,217.65 124.67,217.28 124.68,216.90 124.69,216.71 124.69,216.53 124.70,216.15 124.72,215.77 124.73,215.40 124.73,215.02 124.74,214.84 124.75,214.65 124.76,214.27 124.77,213.90 124.77,213.52 124.78,213.15 124.79,212.96 124.79,212.77 124.80,212.40 124.81,212.02 124.82,211.65 124.86,211.27 124.86,211.08 124.86,210.89 124.88,210.52 124.88,210.14 124.89,209.77 124.89,209.39 124.91,209.20 124.91,209.02 124.92,208.64 124.94,208.27 124.94,207.89 124.97,207.52 124.97,207.33 124.98,207.14 125.00,206.76 125.08,206.39 125.08,206.01 125.10,205.64 125.11,205.45 125.12,205.26 125.13,204.89 125.14,204.51 125.18,204.14 125.19,203.76 125.22,203.57 125.23,203.39 125.25,203.01 125.32,202.63 125.33,202.26 125.34,201.88 125.34,201.70 125.37,201.51 125.38,201.13 125.40,200.76 125.46,200.38 125.50,200.01 125.57,199.82 125.59,199.63 125.63,199.26 125.65,198.88 125.67,198.50 125.68,198.13 125.75,197.94 125.76,197.75 125.81,197.38 125.90,197.00 126.00,196.63 126.04,196.25 126.09,196.06 126.12,195.88 126.42,195.50 126.70,195.12 127.52,194.75 128.12,194.37 128.14,194.19 129.00,194.00 133.30,193.62 133.63,193.25 133.74,192.87 134.22,192.50 134.23,192.31 134.27,192.12 134.40,191.75 134.49,191.37 134.74,190.99 134.79,190.62 134.89,190.43 134.93,190.24 135.02,189.87 135.04,189.49 135.06,189.12 135.11,188.74 135.17,188.55 135.32,188.37 135.34,187.99 135.49,187.61 135.50,187.24 135.54,186.86 135.55,186.68 135.57,186.49 135.60,186.11 135.65,185.74 135.74,185.36 135.75,184.99 135.75,184.80 135.81,184.61 135.85,184.23 135.91,183.86 135.93,183.48 135.94,183.11 135.95,182.92 135.99,182.73 136.01,182.36 136.11,181.98 136.13,181.61 136.16,181.23 136.17,181.04 136.23,180.85 136.24,180.48 136.29,180.10 136.36,179.73 136.40,179.35 136.44,179.16 136.45,178.98 136.46,178.60 136.48,178.23 136.56,177.85 136.57,177.47 136.64,177.29 136.64,177.10 136.66,176.72 136.67,176.35 136.69,175.97 136.73,175.60 136.75,175.41 136.76,175.22 136.77,174.85 136.87,174.47 136.87,174.09 136.89,173.72 136.90,173.53 136.96,173.34 137.11,172.97 137.12,172.59 137.12,172.22 137.26,171.84 137.28,171.65 137.31,171.47 137.34,171.09 137.45,170.71 137.47,170.34 137.48,169.96 137.49,169.77 137.50,169.59 137.50,169.21 137.53,168.84 137.59,168.46 137.63,168.08 137.67,167.90 137.68,167.71 137.73,167.33 137.74,166.96 137.81,166.58 137.87,166.21 137.88,166.02 137.88,165.83 137.93,165.46 137.94,165.08 138.00,164.70 138.04,164.33 138.06,164.14 138.07,163.95 138.09,163.58 138.11,163.20 138.12,162.83 138.14,162.45 138.16,162.26 138.19,162.07 138.21,161.70 138.24,161.32 138.26,160.95 138.28,160.57 138.35,160.38 138.36,160.20 138.48,159.82 138.51,159.45 138.57,159.07 138.61,158.69 138.61,158.51 138.63,158.32 138.64,157.94 138.71,157.57 138.75,157.19 138.79,156.82 138.79,156.63 138.81,156.44 138.87,156.06 138.92,155.69 138.94,155.31 138.98,154.94 138.99,154.75 139.00,154.56 139.06,154.19 139.11,153.81 139.12,153.43 139.15,153.06 139.16,152.87 139.18,152.68 139.20,152.31 139.33,151.93 139.36,151.56 139.38,151.18 139.39,150.99 139.39,150.81 139.42,150.43 139.47,150.05 139.50,149.68 139.52,149.30 139.52,149.11 139.53,148.93 139.58,148.55 139.61,148.18 139.63,147.80 139.68,147.42 139.69,147.24 139.70,147.05 139.86,146.67 139.96,146.30 139.98,145.92 140.05,145.55 140.13,145.36 140.14,145.17 140.18,144.79 140.27,144.42 140.37,144.04 140.42,143.67 140.43,143.48 140.48,143.29 140.58,142.92 140.66,142.54 140.68,142.16 140.72,141.79 140.83,141.60 140.97,141.41 141.06,141.04 141.09,140.66 141.15,140.29 141.37,139.91 141.44,139.72 141.45,139.53 141.52,139.16 141.56,138.78 141.81,138.41 141.96,138.03 141.98,137.84 142.03,137.66 142.05,137.28 142.21,136.90 142.32,136.53 142.66,136.15 142.88,135.96 142.91,135.78 143.01,135.40 143.17,135.03 143.36,134.65 143.62,134.27 143.63,134.09 144.22,133.90 145.00,133.52 146.84,133.15 164.19,132.77 165.46,132.40 165.78,132.21 166.00,132.02 166.60,131.64 167.20,131.27 167.47,130.89 167.58,130.52 167.68,130.33 167.75,130.14 168.03,129.76 168.25,129.39 168.29,129.01 168.46,128.64 168.47,128.45 168.49,128.26 168.57,127.89 168.87,127.51 168.90,127.13 168.99,126.76 169.01,126.57 169.02,126.38 169.07,126.01 169.09,125.63 169.16,125.26 169.30,124.88 169.31,124.69 169.33,124.50 169.43,124.13 169.50,123.75 169.57,123.38 169.74,123.00 169.78,122.81 169.88,122.63 169.98,122.25 170.07,121.87 170.17,121.50 170.34,121.12 170.45,120.93 170.51,120.75 170.55,120.37 170.68,119.99 170.77,119.62 170.94,119.24 170.94,119.06 170.98,118.87 171.12,118.49 171.13,118.12 171.20,117.74 171.25,117.36 171.26,117.18 171.29,116.99 171.36,116.61 171.38,116.24 171.47,115.86 171.51,115.48 171.56,115.30 171.58,115.11 171.66,114.73 171.72,114.36 171.78,113.98 171.83,113.61 171.86,113.42 171.87,113.23 171.90,112.85 171.92,112.48 172.07,112.10 172.24,111.73 172.27,111.54 172.29,111.35 172.36,110.98 172.42,110.60 172.45,110.22 172.49,109.85 172.82,109.66 172.96,109.47 173.13,109.10 173.18,108.72 173.38,108.34 173.40,107.97 173.54,107.78 173.59,107.59 173.74,107.22 173.85,106.84 173.88,106.46 174.10,106.09 174.20,105.90 174.21,105.71 174.36,105.34 174.55,104.96 174.88,104.59 175.29,104.21 175.55,104.02 175.60,103.83 175.75,103.46 175.82,103.08 175.89,102.71 176.05,102.33 176.31,102.14 176.34,101.95 176.71,101.58 176.97,101.20 178.26,100.83 182.49,100.45 221.39,100.26 222.23,100.08 222.52,99.70 222.94,99.32 223.36,98.95 223.50,98.57 223.61,98.38 223.62,98.20 224.14,97.82 224.90,97.44 225.91,97.07 226.15,96.69 226.16,96.50 226.30,96.32 226.67,95.94 226.92,95.56 227.16,95.19 227.61,94.81 227.63,94.62 228.15,94.44 228.18,94.06 228.56,93.69 228.83,93.31 228.98,92.93 229.23,92.75 229.46,92.56 229.64,92.18 229.90,91.81 230.21,91.43 230.81,91.05 231.03,90.87 231.10,90.68 231.26,90.30 231.54,89.93 232.04,89.55 232.26,89.17 232.58,88.99 232.88,88.80 232.95,88.42 233.41,88.05 234.59,87.67 235.37,87.29 235.40,87.11 236.41,86.92 237.38,86.54 330.27,86.17 332.03,85.79 334.77,85.41 334.89,85.23 334.90,85.04 335.33,84.66 336.18,84.29 337.26,83.91 337.88,83.54 338.29,83.35 338.32,83.16 338.99,82.78 339.32,82.41 339.86,82.03 340.06,81.66 340.12,81.47 340.27,81.28 341.14,80.90 341.51,80.53 341.81,80.15 342.20,79.78 342.45,79.59 342.85,79.40 343.24,79.02 343.64,78.65 345.69,78.27 349.38,77.90 536.96,77.71 537.88,77.52 541.95,77.14 545.62,76.77 546.69,76.39 548.38,76.02 548.54,75.83 548.54,75.64 552.43,75.26 554.71,74.89 709.87,74.51 712.03,74.14 712.25,73.95 713.33,73.76 715.66,73.38 716.44,73.01 717.35,72.63 719.38,72.26 719.86,72.07 719.95,71.88 721.65,71.50 747.07,71.13 750.26,70.75 752.71,70.38 753.90,70.19 755.88,70.00 900.00,70.00" fill="none" stroke="#ff7f0e" stroke-width="1.8"/>
<polyline points="118.73,540.00 118.73,539.73 118.73,539.36 118.73,538.99 118.73,538.61 118.74,538.24 118.74,537.87 118.74,537.49 118.74,537.12 118.74,536.75 118.74,536.37 118.74,536.00 118.74,535.63 118.74,535.25 118.74,534.88 118.74,534.51 118.74,534.14 118.74,533.76 118.74,533.39 118.74,533.02 118.74,532.64 118.74,532.27 118.74,531.90 118.75,531.52 118.75,531.15 118.75,530.78 118.75,530.40 118.75,530.03 118.75,529.66 118.75,529.28 118.75,528.91 118.75,528.54 118.75,528.16 118.75,527.79 118.75,527.42 118.75,527.04 118.75,526.67 118.76,526.30 118.76,525.92 118.76,525.55 118.76,525.18 118.76,524.80 118.76,524.43 118.76,524.06 118.76,523.68 118.76,523.31 118.76,522.94 118.76,522.56 118.76,522.19 118.76,521.82 118.76,521.44 118.76,521.07 118.77,520.70 118.77,520.32 118.77,519.95 118.77,519.58 118.77,519.20 118.77,518.83 118.77,518.46 118.77,518.09 118.77,517.71 118.77,517.34 118.77,516.97 118.77,516.59 118.77,516.22 118.78,515.85 118.78,515.47 118.78,515.10 118.78,514.73 118.78,514.35 118.78,513.98 118.78,513.61 118.78,513.23 118.78,512.86 118.78,512.49 118.78,512.11 118.78,511.74 118.79,511.37 118.79,510.99 118.79,510.62 118.79,510.25 118.79,509.87 118.79,509.50 118.79,509.13 118.79,508.75 118.79,508.38 118.79,508.00 118.79,507.63 118.80,507.26 118.80,506.88 118.80,506.51 118.80,506.14 118.80,505.76 118.80,505.39 118.80,505.02 118.80,504.64 118.80,504.27 118.80,503.90 118.80,503.52 118.80,503.15 118.80,502.78 118.80,502.40 118.80,502.03 118.80,501.66 118.81,501.28 118.81,500.91 118.81,500.54 118.81,500.16 118.81,499.79 118.81,499.42 118.81,499.04 118.81,498.67 118.81,498.30 118.81,497.92 118.81,497.55 118.81,497.18 118.81,496.80 118.81,496.43 118.81,496.06 118.81,495.68 118.81,495.31 118.82,494.94 118.82,494.56 118.82,494.19 118.82,493.82 118.82,493.44 118.82,493.07 118.82,492.69 118.82,492.32 118.82,491.95 118.82,491.57 118.82,491.20 118.83,490.83 118.83,490.45 118.83,490.08 118.83,489.71 118.83,489.33 118.83,488.96 118.83,488.59 118.83,488.21 118.83,487.84 118.83,487.47 118.83,487.09 118.83,486.72 118.83,486.35 118.83,485.97 118.83,485.60 118.83,485.23 118.84,484.85 118.84,484.48 118.84,484.10 118.84,483.73 118.84,483.36 118.84,482.98 118.84,482.61 118.85,482.24 118.85,481.86 118.85,481.49 118.85,481.12 118.85,480.74 118.85,480.37 118.85,480.00 118.85,479.62 118.85,479.25 118.85,478.88 118.85,478.50 118.86,478.13 118.86,477.75 118.86,477.38 118.86,477.01 118.86,476.63 118.86,476.26 118.86,475.89 118.86,475.51 118.86,475.14 118.86,474.77 118.86,474.39 118.86,474.02 118.86,473.65 118.86,473.27 118.86,472.90 118.86,472.52 118.86,472.15 118.86,471.78 118.87,471.40 118.87,471.03 118.87,470.66 118.87,470.28 118.87,469.91 118.87,469.54 118.87,469.16 118.87,468.79 118.87,468.42 118.87,468.04 118.87,467.67 118.87,467.29 118.87,466.92 118.88,466.55 118.88,466.17 118.88,465.80 118.88,465.43 118.88,465.05 118.88,464.68 118.88,464.31 118.88,463.93 118.88,463.56 118.88,463.18 118.89,462.81 118.89,462.44 118.89,462.06 118.89,461.69 118.89,461.32 118.90,460.94 118.90,460.57 118.90,460.20 118.90,459.82 118.90,459.45 118.91,459.07 118.91,458.70 118.91,458.33 118.91,457.95 118.91,457.58 118.91,457.21 118.91,456.83 118.91,456.46 118.91,456.08 118.91,455.71 118.92,455.34 118.92,454.96 118.92,454.59 118.92,454.22 118.92,453.84 118.92,453.47 118.92,453.10 118.93,452.72 118.93,452.35 118.93,451.97 118.93,451.60 118.93,451.23 118.93,450.85 118.93,450.48 118.93,450.11 118.93,449.73 118.94,449.36 118.94,448.98 118.94,448.61 118.94,448.24 118.94,447.86 118.94,447.49 118.94,447.12 118.95,446.74 118.95,446.37 118.95,445.99 118.95,445.62 118.95,445.25 118.95,444.87 118.95,444.50 118.95,444.13 118.95,443.75 118.95,443.38 118.96,443.00 118.96,442.63 118.96,442.26 118.96,441.88 118.96,441.51 118.96,441.14 118.96,440.76 118.96,440.39 118.96,440.01 118.96,439.64 118.96,439.27 118.96,438.89 118.96,438.52 118.96,438.15 118.96,437.77 118.96,437.40 118.97,437.02 118.97,436.65 118.97,436.28 118.97,435.90 118.97,435.53 118.97,435.16 118.97,434.78 118.97,434.41 118.97,434.03 118.97,433.66 118.97,433.29 118.98,432.91 118.98,432.54 118.98,432.16 118.98,431.79 118.98,431.42 118.98,431.04 118.98,430.67 118.98,430.30 118.98,429.92 118.98,429.55 118.98,429.17 118.98,428.80 118.98,428.43 118.98,428.05 118.98,427.68 118.98,427.30 118.98,426.93 118.98,426.56 118.98,426.18 118.99,425.81 118.99,425.44 118.99,425.06 118.99,424.69 118.99,424.31 119.00,423.94 119.00,423.57 119.00,423.19 119.00,422.82 119.00,422.44 119.00,422.07 119.00,421.70 119.00,421.32 119.00,420.95 119.00,420.58 119.00,420.20 119.00,419.83 119.00,419.45 119.00,419.08 119.01,418.71 119.01,418.33 119.01,417.96 119.01,417.58 119.01,417.21 119.01,416.84 119.01,416.46 119.01,416.09 119.01,415.71 119.02,415.34 119.02,414.97 119.02,414.59 119.02,414.22 119.02,413.84 119.03,413.47 119.03,413.10 119.03,412.72 119.03,412.35 119.03,411.97 119.03,411.60 119.03,411.23 119.03,410.85 119.03,410.48 119.03,410.11 119.03,409.73 119.03,409.36 119.04,408.98 119.04,408.61 119.04,408.24 119.04,407.86 119.04,407.49 119.04,407.11 119.04,406.74 119.05,406.37 119.05,405.99 119.05,405.62 119.05,405.24 119.05,404.87 119.05,404.50 119.05,404.12 119.06,403.75 119.06,403.37 119.06,403.00 119.06,402.63 119.07,402.25 119.07,401.88 119.07,401.50 119.07,401.13 119.07,400.76 119.07,400.38 119.08,400.01 119.08,399.63 119.08,399.26 119.08,398.89 119.08,398.51 119.08,398.14 119.08,397.76 119.08,397.39 119.09,397.02 119.09,396.64 119.09,396.27 119.09,395.89 119.09,395.52 119.09,395.15 119.09,394.77 119.09,394.40 119.10,394.02 119.10,393.65 119.10,393.27 119.10,392.90 119.10,392.53 119.10,392.15 119.10,391.78 119.10,391.40 119.11,391.03 119.11,390.66 119.12,390.28 119.12,389.91 119.12,389.53 119.12,389.16 119.12,388.79 119.12,388.41 119.12,388.04 119.12,387.66 119.12,387.29 119.13,386.92 119.13,386.54 119.13,386.17 119.13,385.79 119.13,385.42 119.13,385.04 119.13,384.67 119.14,384.30 119.14,383.92 119.14,383.55 119.14,383.17 119.14,382.80 119.14,382.43 119.14,382.05 119.14,381.68 119.14,381.30 119.14,380.93 119.15,380.56 119.15,380.18 119.15,379.81 119.15,379.43 119.15,379.06 119.15,378.68 119.15,378.31 119.15,377.94 119.15,377.56 119.15,377.19 119.16,376.81 119.16,376.44 119.16,376.07 119.16,375.69 119.16,375.32 119.16,374.94 119.16,374.57 119.17,374.19 119.17,373.82 119.17,373.45 119.17,373.07 119.17,372.70 119.17,372.32 119.17,371.95 119.17,371.58 119.18,371.20 119.18,370.83 119.18,370.45 119.18,370.08 119.18,369.70 119.18,369.33 119.18,368.96 119.18,368.58 119.19,368.21 119.19,367.83 119.19,367.46 119.19,367.09 119.19,366.71 119.19,366.34 119.20,365.96 119.20,365.59 119.20,365.21 119.20,364.84 119.20,364.47 119.20,364.09 119.20,363.72 119.20,363.34 119.20,362.97 119.21,362.59 119.21,362.22 119.21,361.85 119.21,361.47 119.21,361.10 119.21,360.72 119.21,360.35 119.21,359.97 119.22,359.60 119.22,359.23 119.22,358.85 119.22,358.48 119.23,358.10 119.23,357.73 119.23,357.35 119.23,356.98 119.23,356.61 119.23,356.23 119.24,355.86 119.24,355.48 119.24,355.11 119.24,354.73 119.25,354.36 119.25,353.99 119.25,353.61 119.25,353.24 119.25,352.86 119.25,352.49 119.25,352.11 119.25,351.74 119.26,351.37 119.26,350.99 119.26,350.62 119.26,350.24 119.26,349.87 119.26,349.49 119.26,349.12 119.26,348.75 119.26,348.37 119.27,348.00 119.27,347.62 119.27,347.25 119.27,346.87 119.27,346.50 119.27,346.13 119.27,345.75 119.27,345.38 119.28,345.00 119.28,344.63 119.28,344.25 119.28,343.88 119.29,343.51 119.29,343.13 119.29,342.76 119.29,342.38 119.29,342.01 119.30,341.63 119.30,341.26 119.30,340.88 119.30,340.51 119.30,340.14 119.30,339.76 119.31,339.39 119.31,339.01 119.31,338.64 119.31,338.26 119.31,337.89 119.31,337.52 119.32,337.14 119.32,336.77 119.32,336.39 119.32,336.02 119.33,335.64 119.33,335.27 119.33,334.89 119.33,334.52 119.33,334.15 119.33,333.77 119.34,333.40 119.34,333.02 119.34,332.65 119.34,332.27 119.34,331.90 119.34,331.52 119.34,331.15 119.35,330.78 119.35,330.40 119.36,330.03 119.36,329.65 119.37,329.28 119.37,328.90 119.37,328.53 119.37,328.15 119.37,327.78 119.37,327.41 119.37,327.03 119.38,326.66 119.38,326.28 119.38,325.91 119.38,325.53 119.38,325.16 119.39,324.78 119.39,324.41 119.39,324.04 119.39,323.66 119.39,323.29 119.39,322.91 119.40,322.54 119.40,322.16 119.40,321.79 119.41,321.41 119.41,321.04 119.41,320.67 119.41,320.29 119.41,319.92 119.41,319.54 119.42,319.17 119.42,318.79 119.42,318.42 119.42,318.04 119.43,317.67 119.43,317.29 119.43,316.92 119.43,316.55 119.43,316.17 119.44,315.80 119.44,315.42 119.44,315.05 119.44,314.67 119.44,314.30 119.44,313.92 119.45,313.55 119.45,313.17 119.45,312.80 119.45,312.43 119.45,312.05 119.46,311.68 119.46,311.30 119.46,310.93 119.46,310.55 119.46,310.18 119.46,309.80 119.47,309.43 119.49,309.05 119.49,308.68 119.49,308.31 119.50,307.93 119.50,307.56 119.50,307.18 119.50,306.81 119.51,306.43 119.51,306.06 119.52,305.68 119.52,305.31 119.53,304.93 119.54,304.56 119.54,304.19 119.54,303.81 119.54,303.44 119.54,303.06 119.54,302.69 119.54,302.31 119.54,301.94 119.55,301.56 119.55,301.19 119.55,300.81 119.55,300.44 119.55,300.06 119.55,299.69 119.55,299.32 119.55,298.94 119.56,298.57 119.56,298.19 119.56,297.82 119.57,297.44 119.57,297.07 119.57,296.69 119.57,296.32 119.57,295.94 119.58,295.57 119.58,295.19 119.58,294.82 119.58,294.44 119.59,294.07 119.59,293.70 119.59,293.32 119.59,292.95 119.59,292.57 119.60,292.20 119.60,291.82 119.61,291.45 119.61,291.07 119.61,290.70 119.61,290.32 119.62,289.95 119.62,289.57 119.62,289.20 119.63,288.82 119.63,288.45 119.63,288.08 119.63,287.70 119.63,287.33 119.64,286.95 119.64,286.58 119.64,286.20 119.65,285.83 119.65,285.45 119.65,285.08 119.65,284.70 119.65,284.33 119.65,283.95 119.67,283.58 119.67,283.20 119.68,282.83 119.68,282.45 119.68,282.08 119.68,281.71 119.68,281.33 119.69,280.96 119.69,280.58 119.69,280.21 119.70,279.83 119.70,279.46 119.71,279.08 119.71,278.71 119.72,278.33 119.72,277.96 119.72,277.58 119.72,277.21 119.73,276.83 119.73,276.46 119.73,276.08 119.73,275.71 119.73,275.33 119.74,274.96 119.74,274.59 119.74,274.21 119.74,273.84 119.74,273.46 119.75,273.09 119.75,272.71 119.75,272.34 119.75,271.96 119.75,271.59 119.76,271.21 119.76,270.84 119.76,270.46 119.77,270.09 119.77,269.71 119.77,269.34 119.78,268.96 119.78,268.59 119.79,268.21 119.79,267.84 119.79,267.46 119.79,267.09 119.79,266.71 119.79,266.34 119.80,265.96 119.80,265.59 119.80,265.22 119.81,264.84 119.81,264.47 119.82,264.09 119.82,263.72 119.82,263.34 119.82,262.97 119.82,262.59 119.82,262.22 119.82,261.84 119.83,261.47 119.84,261.09 119.85,260.72 119.85,260.34 119.85,259.97 119.85,259.59 119.85,259.22 119.85,258.84 119.85,258.47 119.85,258.09 119.86,257.72 119.86,257.34 119.86,256.97 119.86,256.59 119.86,256.22 119.87,255.84 119.87,255.47 119.87,255.09 119.87,254.72 119.88,254.34 119.88,253.97 119.89,253.59 119.89,253.22 119.90,252.84 119.91,252.47 119.91,252.09 119.91,251.72 119.91,251.35 119.91,250.97 119.92,250.60 119.93,250.22 119.94,249.85 119.94,249.47 119.95,249.10 119.95,248.72 119.96,248.35 119.96,247.97 119.96,247.60 119.97,247.22 119.97,246.85 119.97,246.47 119.97,246.10 119.98,245.72 119.98,245.35 119.98,244.97 119.99,244.60 119.99,244.22 119.99,243.85 120.02,243.47 120.02,243.10 120.03,242.72 120.03,242.35 120.04,241.97 120.05,241.60 120.05,241.22 120.06,240.85 120.06,240.47 120.07,240.10 120.07,239.72 120.08,239.35 120.08,238.97 120.09,238.60 120.09,238.22 120.10,237.85 120.11,237.47 120.12,237.10 120.13,236.72 120.13,236.35 120.16,235.97 120.16,235.60 120.16,235.22 120.17,234.85 120.17,234.47 120.18,234.10 120.18,233.72 120.20,233.35 120.20,232.97 120.20,232.60 120.21,232.22 120.21,231.85 120.22,231.47 120.23,231.10 120.23,230.72 120.23,230.35 120.23,229.97 120.24,229.60 120.25,229.22 120.26,228.85 120.26,228.47 120.27,228.10 120.27,227.72 120.28,227.35 120.28,226.97 120.28,226.60 120.29,226.22 120.29,225.85 120.31,225.47 120.32,225.10 120.32,224.72 120.34,224.35 120.34,223.97 120.36,223.60 120.36,223.22 120.38,222.85 120.39,222.47 120.41,222.10 120.43,221.72 120.43,221.34 120.43,220.97 120.44,220.59 120.44,220.22 120.44,219.84 120.44,219.47 120.45,219.09 120.46,218.72 120.46,218.34 120.47,217.97 120.47,217.59 120.48,217.22 120.54,216.84 120.55,216.47 120.56,216.09 120.56,215.72 120.56,215.34 120.56,214.97 120.57,214.59 120.57,214.22 120.58,213.84 120.59,213.47 120.62,213.09 120.67,212.72 120.68,212.34 120.69,211.97 120.71,211.59 120.74,211.22 120.74,210.84 120.76,210.47 120.78,210.09 120.79,209.72 120.81,209.34 120.82,208.97 120.82,208.59 120.87,208.22 120.89,207.84 120.91,207.46 120.95,207.09 120.96,206.71 121.03,206.34 121.03,205.96 121.05,205.59 121.08,205.21 121.08,204.84 121.09,204.46 121.15,204.09 121.16,203.71 121.19,203.34 121.21,202.96 121.39,202.59 121.45,202.21 121.49,201.84 121.50,201.46 121.55,201.09 121.58,200.71 121.62,200.34 121.75,199.96 121.94,199.59 121.96,199.21 122.12,198.84 122.57,198.46 123.18,198.08 124.37,197.71 127.25,197.33 128.16,196.96 129.28,196.58 129.44,196.21 129.71,195.83 129.79,195.46 129.96,195.08 130.37,194.71 130.50,194.33 130.59,193.96 130.68,193.58 130.80,193.21 130.81,192.83 130.88,192.46 130.91,192.08 131.16,191.71 131.30,191.33 131.32,190.96 131.38,190.58 131.46,190.20 131.54,189.83 131.63,189.45 131.77,189.08 131.81,188.70 131.86,188.33 131.89,187.95 131.90,187.58 131.96,187.20 132.06,186.83 132.06,186.45 132.12,186.08 132.14,185.70 132.17,185.33 132.50,184.95 132.52,184.58 132.52,184.20 132.53,183.82 132.56,183.45 132.57,183.07 132.59,182.70 132.62,182.32 132.63,181.95 132.64,181.57 132.74,181.20 132.75,180.82 132.79,180.45 132.81,180.07 132.88,179.70 132.91,179.32 132.94,178.95 132.94,178.57 132.99,178.19 133.00,177.82 133.01,177.44 133.03,177.07 133.03,176.69 133.05,176.32 133.11,175.94 133.12,175.57 133.13,175.19 133.14,174.82 133.14,174.44 133.15,174.07 133.17,173.69 133.18,173.31 133.18,172.94 133.20,172.56 133.25,172.19 133.31,171.81 133.34,171.44 133.34,171.06 133.36,170.69 133.37,170.31 133.39,169.94 133.40,169.56 133.42,169.19 133.43,168.81 133.44,168.43 133.46,168.06 133.50,167.68 133.53,167.31 133.53,166.93 133.62,166.56 133.64,166.18 133.66,165.81 133.77,165.43 133.78,165.06 133.91,164.68 133.93,164.30 133.94,163.93 133.97,163.55 134.03,163.18 134.05,162.80 134.05,162.43 134.12,162.05 134.15,161.68 134.16,161.30 134.20,160.93 134.21,160.55 134.29,160.18 134.39,159.80 134.41,159.42 134.48,159.05 134.58,158.67 134.58,158.30 134.60,157.92 134.73,157.55 134.73,157.17 134.74,156.80 134.80,156.42 134.80,156.04 134.87,155.67 134.89,155.29 134.92,154.92 134.93,154.54 135.09,154.17 135.13,153.79 135.20,153.42 135.29,153.04 135.30,152.67 135.36,152.29 135.36,151.91 135.38,151.54 135.46,151.16 135.46,150.79 135.48,150.41 135.51,150.04 135.53,149.66 135.57,149.29 135.58,148.91 135.58,148.53 135.66,148.16 135.68,147.78 135.79,147.41 135.82,147.03 135.88,146.66 135.94,146.28 135.97,145.91 136.14,145.53 136.21,145.15 136.31,144.78 136.34,144.40 136.36,144.03 136.38,143.65 136.67,143.28 136.71,142.90 136.78,142.53 136.86,142.15 137.01,141.77 137.02,141.40 137.18,141.02 137.18,140.65 137.25,140.27 137.73,139.90 137.86,139.52 137.90,139.15 138.25,138.77 138.33,138.39 138.33,138.02 138.52,137.64 138.54,137.27 138.71,136.89 160.43,136.52 161.89,136.14 163.33,135.77 163.38,135.39 163.60,135.01 163.61,134.64 163.77,134.26 163.79,133.89 163.85,133.51 163.87,133.14 164.08,132.76 164.14,132.38 164.21,132.01 164.24,131.63 164.37,131.26 164.58,130.88 164.67,130.51 164.68,130.13 164.75,129.76 164.77,129.38 164.89,129.00 164.89,128.63 164.91,128.25 165.03,127.88 165.03,127.50 165.06,127.13 165.10,126.75 165.15,126.37 165.33,126.00 165.41,125.62 165.51,125.25 165.59,124.87 165.61,124.50 165.71,124.12 165.71,123.74 165.77,123.37 165.77,122.99 165.79,122.62 165.81,122.24 165.97,121.87 165.98,121.49 166.04,121.12 166.40,120.74 166.62,120.36 166.86,119.99 167.28,119.61 167.31,119.24 167.38,118.86 167.40,118.49 167.51,118.11 167.53,117.73 167.58,117.36 167.62,116.98 167.68,116.61 167.78,116.23 167.79,115.86 167.88,115.48 167.92,115.10 167.93,114.73 167.94,114.35 168.04,113.98 168.17,113.60 168.26,113.23 168.57,112.85 168.80,112.47 169.11,112.10 169.19,111.72 169.25,111.35 169.27,110.97 169.34,110.59 169.44,110.22 169.62,109.84 169.74,109.47 169.76,109.09 170.03,108.72 170.39,108.34 171.09,107.96 171.22,107.59 171.27,107.21 171.30,106.84 171.93,106.46 172.25,106.09 173.15,105.71 176.60,105.33 218.47,104.96 220.30,104.58 220.95,104.21 221.24,103.83 221.30,103.46 221.47,103.08 221.69,102.70 221.85,102.33 221.91,101.95 222.29,101.58 222.48,101.20 222.63,100.82 223.02,100.45 223.09,100.07 223.22,99.70 223.40,99.32 223.50,98.95 223.63,98.57 224.61,98.19 224.68,97.82 224.81,97.44 225.30,97.07 225.43,96.69 225.51,96.31 225.77,95.94 225.89,95.56 226.47,95.19 226.48,94.81 226.48,94.44 226.82,94.06 226.85,93.68 226.95,93.31 227.26,92.93 227.66,92.56 227.94,92.18 228.02,91.80 228.42,91.43 228.74,91.05 229.49,90.68 230.38,90.30 230.51,89.92 230.87,89.55 234.08,89.17 234.57,88.80 328.18,88.42 328.35,88.05 329.09,87.67 329.40,87.29 331.12,86.92 331.21,86.54 331.64,86.17 331.69,85.79 331.90,85.41 332.24,85.04 332.95,84.66 332.99,84.29 333.01,83.91 333.09,83.53 334.74,83.16 334.91,82.78 335.05,82.41 335.32,82.03 336.00,81.65 336.05,81.28 336.23,80.90 336.44,80.53 337.88,80.15 338.79,79.78 339.17,79.40 339.45,79.02 340.64,78.65 344.19,78.27 345.19,77.90 521.72,77.52 521.87,77.14 522.84,76.77 524.44,76.39 527.72,76.02 529.47,75.64 529.67,75.26 530.11,74.89 530.50,74.51 531.23,74.14 531.85,73.76 533.12,73.38 533.44,73.01 534.43,72.63 628.07,72.26 629.10,71.88 629.34,71.50 632.31,71.13 634.20,70.75 634.69,70.38 636.25,70.00 900.00,70.00" fill="none" stroke="#bcbd22" stroke-width="1.8"/>
<polyline points="114.67,540.00 114.67,539.44 114.67,538.69 114.67,537.95 114.68,537.20 114.68,536.46 114.68,535.71 114.68,534.97 114.68,534.22 114.68,533.48 114.68,532.73 114.68,531.98 114.68,531.24 114.68,530.49 114.69,529.75 114.69,529.00 114.69,528.26 114.69,527.51 114.69,526.77 114.69,526.02 114.69,525.27 114.70,524.53 114.70,523.78 114.70,523.04 114.70,522.29 114.70,521.55 114.71,520.80 114.71,520.06 114.71,519.31 114.71,518.56 114.71,517.82 114.71,517.07 114.71,516.33 114.71,515.58 114.72,514.84 114.72,514.09 114.72,513.34 114.72,512.60 114.73,511.85 114.73,511.11 114.73,510.36 114.73,509.61 114.73,508.87 114.73,508.12 114.73,507.38 114.73,506.63 114.74,505.89 114.74,505.14 114.74,504.39 114.74,503.65 114.74,502.90 114.74,502.16 114.74,501.41 114.74,500.66 114.74,499.92 114.74,499.17 114.75,498.43 114.75,497.68 114.75,496.93 114.75,496.19 114.75,495.44 114.75,494.70 114.75,493.95 114.75,493.20 114.76,492.46 114.76,491.71 114.76,490.97 114.76,490.22 114.76,489.47 114.77,488.73 114.77,487.98 114.77,487.23 114.77,486.49 114.77,485.74 114.77,485.00 114.77,484.25 114.77,483.50 114.78,482.76 114.78,482.01 114.78,481.26 114.78,480.52 114.78,479.77 114.78,479.03 114.78,478.28 114.79,477.53 114.79,476.79 114.79,476.04 114.79,475.29 114.79,474.55 114.79,473.80 114.79,473.06 114.79,472.31 114.79,471.56 114.80,470.82 114.80,470.07 114.81,469.32 114.81,468.58 114.82,467.83 114.82,467.08 114.82,466.34 114.82,465.59 114.82,464.85 114.82,464.10 114.82,463.35 114.82,462.61 114.82,461.86 114.82,461.11 114.83,460.37 114.83,459.62 114.83,458.87 114.84,458.13 114.84,457.38 114.84,456.63 114.84,455.89 114.84,455.14 114.84,454.39 114.84,453.65 114.85,452.90 114.85,452.15 114.85,451.41 114.85,450.66 114.85,449.91 114.85,449.17 114.85,448.42 114.85,447.67 114.85,446.93 114.85,446.18 114.86,445.43 114.86,444.69 114.86,443.94 114.86,443.19 114.86,442.45 114.86,441.70 114.86,440.95 114.86,440.21 114.87,439.46 114.87,438.71 114.88,437.97 114.88,437.22 114.88,436.47 114.88,435.72 114.88,434.98 114.89,434.23 114.89,433.48 114.89,432.74 114.90,431.99 114.90,431.24 114.90,430.50 114.90,429.75 114.90,429.00 114.90,428.26 114.91,427.51 114.91,426.76 114.91,426.01 114.91,425.27 114.92,424.52 114.92,423.77 114.92,423.03 114.92,422.28 114.92,421.53 114.92,420.79 114.92,420.04 114.92,419.29 114.92,418.54 114.93,417.80 114.93,417.05 114.93,416.30 114.93,415.56 114.93,414.81 114.93,414.06 114.93,413.31 114.94,412.57 114.94,411.82 114.95,411.07 114.95,410.32 114.95,409.58 114.95,408.83 114.95,408.08 114.95,407.34 114.96,406.59 114.96,405.84 114.96,405.09 114.96,404.35 114.97,403.60 114.97,402.85 114.98,402.10 114.98,401.36 114.98,400.61 114.98,399.86 114.98,399.12 114.99,398.37 115.00,397.62 115.00,396.87 115.00,396.13 115.01,395.38 115.01,394.63 115.01,393.88 115.01,393.14 115.02,392.39 115.02,391.64 115.03,390.89 115.03,390.15 115.04,389.40 115.04,388.65 115.04,387.90 115.05,387.16 115.06,386.41 115.06,385.66 115.06,384.91 115.06,384.17 115.07,383.42 115.07,382.67 115.08,381.92 115.08,381.17 115.08,380.43 115.08,379.68 115.08,378.93 115.08,378.18 115.09,377.44 115.09,376.69 115.09,375.94 115.09,375.19 115.10,374.45 115.10,373.70 115.10,372.95 115.10,372.20 115.11,371.45 115.11,370.71 115.11,369.96 115.11,369.21 115.12,368.46 115.12,367.72 115.12,366.97 115.13,366.22 115.13,365.47 115.13,364.72 115.13,363.98 115.14,363.23 115.14,362.48 115.14,361.73 115.15,360.98 115.15,360.24 115.15,359.49 115.15,358.74 115.15,357.99 115.16,357.25 115.16,356.50 115.16,355.75 115.16,355.00 115.16,354.25 115.16,353.50 115.17,352.76 115.17,352.01 115.17,351.26 115.17,350.51 115.19,349.76 115.19,349.02 115.20,348.27 115.21,347.52 115.21,346.77 115.21,346.02 115.22,345.28 115.22,344.53 115.22,343.78 115.22,343.03 115.23,342.28 115.23,341.54 115.24,340.79 115.24,340.04 115.25,339.29 115.26,338.54 115.26,337.79 115.27,337.05 115.27,336.30 115.27,335.55 115.28,334.80 115.29,334.05 115.29,333.30 115.29,332.56 115.30,331.81 115.31,331.06 115.31,330.31 115.32,329.56 115.33,328.81 115.34,328.07 115.34,327.32 115.34,326.57 115.34,325.82 115.34,325.07 115.35,324.32 115.35,323.58 115.35,322.83 115.35,322.08 115.36,321.33 115.36,320.58 115.36,319.83 115.36,319.08 115.36,318.34 115.37,317.59 115.38,316.84 115.39,316.09 115.39,315.34 115.39,314.59 115.39,313.84 115.39,313.10 115.39,312.35 115.39,311.60 115.39,310.85 115.39,310.10 115.40,309.35 115.40,308.60 115.41,307.86 115.41,307.11 115.42,306.36 115.42,305.61 115.43,304.86 115.43,304.11 115.43,303.36 115.44,302.61 115.44,301.87 115.45,301.12 115.45,300.37 115.46,299.62 115.46,298.87 115.47,298.12 115.47,297.37 115.47,296.62 115.47,295.88 115.48,295.13 115.49,294.38 115.49,293.63 115.50,292.88 115.50,292.13 115.53,291.38 115.53,290.63 115.53,289.88 115.53,289.14 115.53,288.39 115.54,287.64 115.55,286.89 115.56,286.14 115.56,285.39 115.56,284.64 115.56,283.89 115.57,283.14 115.58,282.39 115.58,281.65 115.59,280.90 115.60,280.15 115.61,279.40 115.62,278.65 115.62,277.90 115.62,277.15 115.62,276.40 115.63,275.65 115.64,274.90 115.64,274.15 115.64,273.41 115.65,272.66 115.66,271.91 115.66,271.16 115.68,270.41 115.69,269.66 115.70,268.91 115.71,268.16 115.73,267.41 115.73,266.66 115.73,265.91 115.73,265.16 115.74,264.42 115.74,263.67 115.76,262.92 115.77,262.17 115.77,261.42 115.77,260.67 115.77,259.92 115.77,259.17 115.77,258.42 115.77,257.67 115.77,256.92 115.77,256.17 115.78,255.42 115.79,254.67 115.81,253.92 115.81,253.17 115.85,252.43 115.85,251.68 115.86,250.93 115.87,250.18 115.89,249.43 115.89,248.68 115.90,247.93 115.90,247.18 115.90,246.43 115.91,245.68 115.91,244.93 115.92,244.18 115.92,243.43 115.92,242.68 115.92,241.93 115.94,241.18 115.96,240.43 115.97,239.68 115.97,238.93 115.98,238.18 115.98,237.43 116.00,236.68 116.03,235.94 116.04,235.19 116.05,234.44 116.05,233.69 116.06,232.94 116.09,232.19 116.10,231.44 116.10,230.69 116.13,229.94 116.13,229.19 116.15,228.44 116.16,227.69 116.17,226.94 116.17,226.19 116.19,225.44 116.22,224.69 116.25,223.94 116.27,223.19 116.28,222.44 116.30,221.69 116.30,220.94 116.32,220.19 116.36,219.44 116.39,218.69 116.39,217.94 116.42,217.19 116.43,216.44 116.46,215.69 116.46,214.94 116.47,214.19 116.47,213.44 116.48,212.69 116.51,211.94 116.56,211.19 116.56,210.44 116.61,209.69 116.65,208.94 116.70,208.19 116.71,207.44 116.73,206.69 116.96,205.94 116.96,205.19 117.00,204.44 117.02,203.69 117.04,202.94 117.10,202.19 117.20,201.44 117.21,200.69 117.23,199.94 117.63,199.19 118.05,198.44 118.15,197.69 118.28,196.94 118.88,196.19 126.04,195.44 126.22,194.69 126.42,193.94 126.55,193.19 127.15,192.44 127.20,191.69 127.46,190.94 127.55,190.19 127.88,189.44 127.93,188.68 127.97,187.93 127.99,187.18 128.09,186.43 128.10,185.68 128.10,184.93 128.12,184.18 128.13,183.43 128.14,182.68 128.20,181.93 128.20,181.18 128.28,180.43 128.32,179.68 128.34,178.93 128.64,178.18 128.68,177.43 128.76,176.68 128.85,175.93 128.92,175.18 128.92,174.43 128.93,173.68 128.96,172.93 128.97,172.17 129.16,171.42 129.28,170.67 129.28,169.92 129.32,169.17 129.38,168.42 129.43,167.67 129.44,166.92 129.47,166.17 129.61,165.42 129.65,164.67 129.72,163.92 129.79,163.17 129.83,162.42 129.99,161.67 130.04,160.91 130.16,160.16 130.21,159.41 130.28,158.66 130.30,157.91 130.32,157.16 130.37,156.41 130.38,155.66 130.45,154.91 130.46,154.16 130.53,153.41 130.55,152.66 130.60,151.91 130.71,151.15 130.73,150.40 130.76,149.65 130.78,148.90 130.88,148.15 131.09,147.40 131.19,146.65 131.25,145.90 131.29,145.15 131.32,144.40 131.45,143.65 131.47,142.89 131.70,142.14 131.71,141.39 131.76,140.64 131.95,139.89 131.95,139.14 132.25,138.39 132.54,137.64 132.66,136.89 132.76,136.14 132.90,135.38 133.43,134.63 133.45,133.88 133.54,133.13 133.60,132.38 133.87,131.63 134.50,130.88 135.58,130.13 156.31,129.38 157.57,128.62 158.15,127.87 158.55,127.12 158.60,126.37 159.12,125.62 159.14,124.87 159.81,124.12 160.32,123.37 160.56,122.61 160.60,121.86 160.62,121.11 160.72,120.36 160.74,119.61 160.91,118.86 161.04,118.11 161.18,117.36 161.25,116.60 161.37,115.85 161.50,115.10 161.54,114.35 161.71,113.60 162.39,112.85 162.43,112.10 162.70,111.34 162.74,110.59 163.07,109.84 163.07,109.09 163.08,108.34 163.41,107.59 163.53,106.84 163.78,106.08 164.07,105.33 164.90,104.58 165.23,103.83 165.38,103.08 166.34,102.33 167.30,101.57 212.08,100.82 213.70,100.07 214.07,99.32 214.39,98.57 215.27,97.82 215.65,97.07 217.09,96.31 218.11,95.56 218.20,94.81 218.92,94.06 219.00,93.31 219.56,92.56 222.41,91.80 224.17,91.05 324.19,90.30 324.53,89.55 326.51,88.80 327.84,88.04 327.87,87.29 328.15,86.54 328.42,85.79 328.96,85.04 329.11,84.29 329.15,83.53 329.24,82.78 329.27,82.03 331.12,81.28 331.57,80.53 334.40,79.78 334.55,79.02 334.71,78.27 335.97,77.52 489.71,76.77 489.96,76.02 492.32,75.26 492.56,74.51 494.15,73.76 494.78,73.01 495.31,72.26 496.60,71.50 496.96,70.75 497.04,70.00 900.00,70.00" fill="none" stroke="#2ca02c" stroke-width="1.8"/>
<polyline points="110.67,540.00 110.67,538.55 110.67,537.06 110.68,535.57 110.68,534.08 110.68,532.59 110.69,531.10 110.70,529.61 110.70,528.12 110.71,526.63 110.71,525.14 110.72,523.65 110.73,522.16 110.73,520.67 110.74,519.18 110.74,517.68 110.74,516.19 110.74,514.70 110.74,513.21 110.74,511.72 110.75,510.23 110.75,508.74 110.76,507.25 110.77,505.76 110.77,504.27 110.77,502.78 110.77,501.29 110.77,499.79 110.77,498.30 110.78,496.81 110.78,495.32 110.79,493.83 110.81,492.34 110.82,490.85 110.82,489.36 110.83,487.86 110.83,486.37 110.83,484.88 110.85,483.39 110.85,481.90 110.85,480.41 110.85,478.91 110.85,477.42 110.86,475.93 110.86,474.44 110.86,472.95 110.87,471.46 110.87,469.96 110.87,468.47 110.88,466.98 110.88,465.49 110.89,464.00 110.90,462.50 110.91,461.01 110.91,459.52 110.91,458.03 110.91,456.53 110.92,455.04 110.93,453.55 110.93,452.06 110.94,450.56 110.95,449.07 110.95,447.58 110.96,446.09 110.96,444.59 110.97,443.10 110.98,441.61 110.98,440.11 110.99,438.62 110.99,437.13 110.99,435.64 111.00,434.14 111.01,432.65 111.02,431.16 111.03,429.66 111.04,428.17 111.05,426.68 111.05,425.18 111.07,423.69 111.07,422.20 111.08,420.70 111.08,419.21 111.10,417.72 111.10,416.22 111.11,414.73 111.11,413.24 111.12,411.74 111.12,410.25 111.12,408.75 111.13,407.26 111.13,405.77 111.13,404.27 111.13,402.78 111.15,401.28 111.16,399.79 111.16,398.30 111.16,396.80 111.17,395.31 111.17,393.81 111.19,392.32 111.20,390.82 111.21,389.33 111.22,387.84 111.23,386.34 111.24,384.85 111.24,383.35 111.24,381.86 111.25,380.36 111.26,378.87 111.26,377.37 111.29,375.88 111.30,374.38 111.32,372.89 111.33,371.39 111.34,369.90 111.35,368.40 111.37,366.91 111.38,365.41 111.39,363.92 111.39,362.42 111.41,360.93 111.42,359.43 111.44,357.94 111.48,356.44 111.51,354.95 111.52,353.45 111.53,351.96 111.53,350.46 111.54,348.96 111.54,347.47 111.57,345.97 111.59,344.48 111.59,342.98 111.60,341.49 111.61,339.99 111.61,338.49 111.64,337.00 111.65,335.50 111.67,334.01 111.67,332.51 111.68,331.01 111.71,329.52 111.71,328.02 111.72,326.53 111.74,325.03 111.75,323.53 111.77,322.04 111.85,320.54 111.88,319.04 111.90,317.55 111.96,316.05 111.97,314.55 111.98,313.06 112.01,311.56 112.02,310.06 112.06,308.57 112.09,307.07 112.10,305.57 112.17,304.08 112.23,302.58 112.31,301.08 112.35,299.58 112.36,298.09 112.41,296.59 112.43,295.09 112.44,293.60 112.52,292.10 112.54,290.60 112.61,289.10 112.61,287.61 112.75,286.11 112.77,284.61 112.85,283.11 112.88,281.62 112.88,280.12 112.89,278.62 112.93,277.12 112.99,275.63 113.02,274.13 113.05,272.63 113.19,271.13 113.27,269.63 113.32,268.14 113.33,266.64 113.35,265.14 113.47,263.64 113.53,262.14 113.59,260.64 113.63,259.15 113.69,257.65 113.73,256.15 113.82,254.65 113.86,253.15 113.91,251.65 113.91,250.16 113.94,248.66 114.00,247.16 114.29,245.66 114.49,244.16 114.68,242.66 114.68,241.16 114.69,239.66 114.74,238.17 114.76,236.67 114.78,235.17 114.95,233.67 115.19,232.17 115.23,230.67 115.24,229.17 115.29,227.67 115.73,226.17 115.76,224.67 115.81,223.17 115.90,221.67 116.01,220.17 116.05,218.68 117.21,217.18 117.75,215.68 121.71,214.18 122.28,212.68 122.49,211.18 123.71,209.68 123.76,208.18 123.77,206.68 124.01,205.18 124.02,203.68 124.22,202.18 124.41,200.68 124.56,199.18 124.69,197.68 124.73,196.18 125.01,194.68 125.12,193.18 125.16,191.68 125.49,190.18 125.68,188.68 125.70,187.17 125.73,185.67 125.74,184.17 125.77,182.67 125.82,181.17 126.01,179.67 126.02,178.17 126.11,176.67 126.14,175.17 126.37,173.67 126.40,172.17 126.55,170.67 126.65,169.17 126.68,167.66 126.74,166.16 126.83,164.66 127.16,163.16 127.78,161.66 128.19,160.16 128.41,158.66 128.77,157.16 129.73,155.65 129.89,154.15 151.82,152.65 152.53,151.15 152.85,149.65 153.51,148.15 153.69,146.65 154.17,145.14 154.19,143.64 154.34,142.14 154.58,140.64 154.76,139.14 154.86,137.63 154.94,136.13 155.24,134.63 155.30,133.13 155.90,131.63 155.98,130.12 156.16,128.62 156.21,127.12 156.29,125.62 157.22,124.11 157.62,122.61 157.64,121.11 157.99,119.61 158.01,118.10 158.16,116.60 158.42,115.10 158.50,113.60 158.82,112.09 158.97,110.59 159.27,109.09 159.34,107.59 160.09,106.08 160.11,104.58 160.36,103.08 160.55,101.57 160.87,100.07 209.80,98.57 210.18,97.06 210.96,95.56 211.03,94.06 212.30,92.55 212.83,91.05 213.43,89.55 213.47,88.04 213.71,86.54 215.37,85.04 215.40,83.53 216.05,82.03 218.29,80.53 324.01,79.02 324.65,77.52 327.20,76.02 327.48,74.51 329.64,73.01 332.76,71.50 333.05,70.00 900.00,70.00" fill="none" stroke="#17becf" stroke-width="1.8"/>
<polyline points="106.40,540.00 106.40,539.96 106.41,536.99 106.41,534.01 106.41,531.03 106.42,528.05 106.42,525.07 106.42,522.09 106.44,519.11 106.46,516.13 106.47,513.15 106.48,510.17 106.48,507.19 106.49,504.21 106.50,501.22 106.51,498.24 106.51,495.26 106.52,492.28 106.52,489.30 106.53,486.32 106.56,483.33 106.57,480.35 106.57,477.37 106.57,474.39 106.57,471.40 106.58,468.42 106.59,465.44 106.60,462.45 106.60,459.47 106.61,456.48 106.61,453.50 106.62,450.52 106.68,447.53 106.68,444.55 106.69,441.56 106.69,438.58 106.71,435.59 106.71,432.61 106.72,429.62 106.73,426.63 106.74,423.65 106.75,420.66 106.76,417.68 106.76,414.69 106.78,411.70 106.79,408.72 106.81,405.73 106.81,402.74 106.84,399.75 106.85,396.77 106.88,393.78 106.90,390.79 106.93,387.80 106.94,384.81 107.05,381.83 107.06,378.84 107.07,375.85 107.07,372.86 107.11,369.87 107.11,366.88 107.13,363.89 107.17,360.90 107.18,357.91 107.19,354.92 107.21,351.93 107.22,348.94 107.24,345.95 107.25,342.96 107.27,339.97 107.29,336.97 107.31,333.98 107.34,330.99 107.38,328.00 107.40,325.01 107.41,322.02 107.44,319.02 107.44,316.03 107.46,313.04 107.47,310.04 107.50,307.05 107.53,304.06 107.54,301.06 107.54,298.07 107.54,295.08 107.60,292.08 107.66,289.09 107.70,286.09 107.78,283.10 107.87,280.10 107.97,277.11 107.99,274.11 108.02,271.12 108.04,268.12 108.14,265.13 108.20,262.13 108.24,259.13 108.25,256.14 108.47,253.14 108.55,250.14 108.67,247.15 108.75,244.15 108.95,241.15 109.31,238.16 109.39,235.16 109.68,232.16 109.78,229.16 109.97,226.16 110.00,223.17 110.03,220.17 110.05,217.17 110.53,214.17 110.74,211.17 110.80,208.17 110.90,205.17 111.17,202.17 111.29,199.17 113.21,196.17 114.89,193.17 118.63,190.17 118.85,187.17 119.55,184.17 119.60,181.17 119.82,178.17 119.90,175.17 120.25,172.16 120.28,169.16 120.58,166.16 120.81,163.16 121.56,160.16 121.63,157.15 121.79,154.15 122.08,151.15 122.29,148.14 122.49,145.14 122.51,142.14 122.74,139.13 123.01,136.13 123.24,133.13 123.59,130.12 123.85,127.12 124.25,124.11 124.51,121.11 149.07,118.10 150.69,115.10 150.81,112.09 152.07,109.09 153.16,106.08 153.32,103.08 153.78,100.07 154.87,97.06 155.08,94.06 155.38,91.05 155.50,88.04 155.77,85.04 155.82,82.03 207.08,79.02 213.07,76.02 213.57,73.01 218.52,70.00 900.00,70.00" fill="none" stroke="#1f77b4" stroke-width="1.8"/>
<rect x="778" y="382" width="110" height="146" fill="white" fill-opacity="0.85" stroke="#888"/>
<text x="786" y="396" font-size="11" font-weight="bold">n parallel</text>
<text x="786" y="410" font-size="11" font-weight="bold">chunks</text>
<line x1="786" y1="422" x2="814" y2="422" stroke="#d62728" stroke-width="2.2"/>
<text x="822" y="426">n = 1</text>
<line x1="786" y1="440" x2="814" y2="440" stroke="#ff7f0e" stroke-width="2.2"/>
<text x="822" y="444">n = 2</text>
<line x1="786" y1="458" x2="814" y2="458" stroke="#bcbd22" stroke-width="2.2"/>
<text x="822" y="462">n = 4</text>
<line x1="786" y1="476" x2="814" y2="476" stroke="#2ca02c" stroke-width="2.2"/>
<text x="822" y="480">n = 8</text>
<line x1="786" y1="494" x2="814" y2="494" stroke="#17becf" stroke-width="2.2"/>
<text x="822" y="498">n = 16</text>
<line x1="786" y1="512" x2="814" y2="512" stroke="#1f77b4" stroke-width="2.2"/>
<text x="822" y="516">n = 32</text>
</svg>