<?xml version="1.0" encoding="UTF-8"?>
<svg width="1200" height="350" xmlns="http://www.w3.org/2000/svg">
  <defs>
    <!-- Arrow markers -->
    <marker id="arrowhead" markerWidth="6" markerHeight="4" refX="5" refY="2" orient="auto">
      <polygon points="0 0, 6 2, 0 4" fill="#595959"/>
    </marker>
    
    <!-- Hover effects -->
    <style>
      .block-link, .param-link {
        cursor: pointer;
      }
      .block-link:hover rect {
        stroke-width: 2.5;
        filter: brightness(1.1);
      }
      .block-link:hover polygon {
        stroke-width: 2.5;
        filter: brightness(1.1);
      }
      .param-link:hover line {
        stroke-width: 3;
        filter: brightness(1.1);
      }
      .param-link:hover rect {
        filter: brightness(1.1);
      }
      .param-link:hover text {
        font-weight: bold;
      }
    </style>
  </defs>
  
  <!-- Background -->
  <rect width="1200" height="350" fill="#ffffff"/>
  
  <!-- Time scale bar at top -->
  <g id="time-scale">
    <rect x="50" y="30" width="1100" height="25" fill="#f8f8f8" stroke="#ddd" stroke-width="1" rx="3"/>
    <text x="600" y="47" font-family="Arial, sans-serif" font-size="12" text-anchor="middle" fill="#666">Time (slots) →</text>
  </g>
  
  <!-- Block chain with non-uniform distances -->
  <g id="block-chain">
    <!-- Connection lines -->
    <line x1="150" y1="140" x2="1100" y2="140" stroke="#999" stroke-width="1.5"/>
    
    <!-- Dashed line before first RB to indicate partial view -->
    <line x1="50" y1="140" x2="135" y2="140" stroke="#999" stroke-width="1.5" stroke-dasharray="5,5"/>
    
    <!-- RB at slot 0 -->
    <a href="#ranking-blocks-rbs" class="block-link">
      <rect x="135" y="120" width="30" height="40" fill="#fce5cd" stroke="#783f04" stroke-width="2" rx="3"/>

    </a>
    
    <!-- RB at slot 5 (announces EB) - longer gap, has time to certify -->
    <a href="#ranking-blocks-rbs" class="block-link">
      <rect x="285" y="120" width="30" height="40" fill="#fce5cd" stroke="#783f04" stroke-width="2" rx="3"/>

    </a>
    <!-- Vertical line to EB -->
    <line x1="300" y1="160" x2="300" y2="180" stroke="#783f04" stroke-width="1.5"/>
    <!-- EB below -->
    <a href="#endorser-blocks-ebs" class="block-link">
      <rect x="275" y="180" width="50" height="30" fill="#d9ead3" stroke="#274e13" stroke-width="2" rx="3"/>
    </a>
    
    <!-- RB at slot 10 (short gap from previous) -->
    <a href="#ranking-blocks-rbs" class="block-link">
      <rect x="535" y="120" width="30" height="40" fill="#fce5cd" stroke="#783f04" stroke-width="2" rx="3"/>

    </a>
    <!-- Certificate for first EB -->
    <a href="#votes-and-certificates" class="block-link">
      <polygon points="550,150 563,160 563,170 550,180 537,170 537,160" fill="#fff2cc" stroke="#f9a825" stroke-width="2"/>

    </a>
    <!-- Curved line from cert to EB -->
    <path d="M 550 180 Q 550 195 325 195" stroke="#f9a825" stroke-width="1.5" stroke-dasharray="3,3" fill="none"/>
    
    <!-- RB at slot 15 (announces EB, short gap so no time to certify) -->
    <a href="#ranking-blocks-rbs" class="block-link">
      <rect x="635" y="120" width="30" height="40" fill="#fce5cd" stroke="#783f04" stroke-width="2" rx="3"/>

    </a>
    <line x1="650" y1="160" x2="650" y2="180" stroke="#783f04" stroke-width="1.5"/>
    <a href="#endorser-blocks-ebs" class="block-link">
      <rect x="625" y="180" width="50" height="30" fill="#f5f5f5" stroke="#666666" stroke-width="2" rx="3"/>
    </a>

    <!-- RB at slot 17 (announces EB) -->
    <a href="#ranking-blocks-rbs" class="block-link">
      <rect x="710" y="120" width="30" height="40" fill="#fce5cd" stroke="#783f04" stroke-width="2" rx="3"/>

    </a>
    <line x1="725" y1="160" x2="725" y2="180" stroke="#783f04" stroke-width="1.5"/>
    <a href="#endorser-blocks-ebs" class="block-link">
      <rect x="700" y="180" width="50" height="30" fill="#d9ead3" stroke="#274e13" stroke-width="2" rx="3"/>

    </a>
    
    <!-- RB at slot 20 with certificate -->
    <a href="#ranking-blocks-rbs" class="block-link">
      <rect x="885" y="120" width="30" height="40" fill="#fce5cd" stroke="#783f04" stroke-width="2" rx="3"/>

    </a>
    <a href="#votes-and-certificates" class="block-link">
      <polygon points="900,150 913,160 913,170 900,180 887,170 887,160" fill="#fff2cc" stroke="#f9a825" stroke-width="2"/>

    </a>
    <!-- Curved line from cert to EB -->
    <path d="M 900 180 Q 900 195 750 195" stroke="#f9a825" stroke-width="1.5" stroke-dasharray="3,3" fill="none"/>
    
    <!-- RB at slot 25 (short gap) -->
    <a href="#ranking-blocks-rbs" class="block-link">
      <rect x="935" y="120" width="30" height="40" fill="#fce5cd" stroke="#783f04" stroke-width="2" rx="3"/>

    </a>
    
    <!-- RB at slot 30 -->
    <a href="#ranking-blocks-rbs" class="block-link">
      <rect x="1085" y="120" width="30" height="40" fill="#fce5cd" stroke="#783f04" stroke-width="2" rx="3"/>

    </a>
    
    <!-- Dashed line after last RB to indicate partial view -->
    <line x1="1115" y1="140" x2="1150" y2="140" stroke="#999" stroke-width="1.5" stroke-dasharray="5,5"/>
  </g>
  
  <!-- Legend -->
  <g id="legend" transform="translate(600, 280)">
    <text x="0" y="0" font-family="Arial, sans-serif" font-size="12" font-weight="bold" fill="#333" text-anchor="middle">Legend</text>
    
    <!-- RB -->
    <rect x="-350" y="15" width="25" height="30" fill="#fce5cd" stroke="#783f04" stroke-width="2" rx="3"/>
    <text x="-320" y="35" font-family="Arial, sans-serif" font-size="11" fill="#333">Ranking Block</text>
    
    <!-- EB -->
    <rect x="-150" y="18" width="35" height="22" fill="#d9ead3" stroke="#274e13" stroke-width="2" rx="3"/>
    <text x="-110" y="35" font-family="Arial, sans-serif" font-size="11" fill="#333">Endorser Block</text>
    
    <!-- Certificate -->
    <polygon points="50,15 63,25 63,35 50,45 37,35 37,25" fill="#fff2cc" stroke="#f9a825" stroke-width="2"/>
    <text x="70" y="35" font-family="Arial, sans-serif" font-size="11" fill="#333">Certificate</text>
    
    <!-- Uncertified EB -->
    <rect x="160" y="18" width="35" height="22" fill="#f5f5f5" stroke="#666666" stroke-width="2" rx="3"/>
    <text x="200" y="35" font-family="Arial, sans-serif" font-size="11" fill="#333">Announced Endorser Block (uncertified)</text>
  </g>
</svg>
