<svg xmlns="http://www.w3.org/2000/svg" xmlns:xlink="http://www.w3.org/1999/xlink" version="1.1" width="1464" height="1054.81"><g id="Context Diagram"><g id="Operates"><polyline points="288,362.81 328.97,363.1 352.68,365.17 366.75,368.64 380.33,374.94 391.38,378.84 409.67,381.7 423.03,382.52 464,382.81" fill="none" stroke-width="1" stroke="#adb3b3" opacity="1"></polyline></g><g id="Operates"><rect width="70.856" height="22.2" x="340.5266498648947" y="361.8101983909305" rx="4" ry="4" fill-opacity="0.8" fill="#e5e7e8" stroke-opacity="1" stroke-width="1" stroke="#cfd2d2" opacity="0.8"></rect><g opacity="1" fill="#434647"><text font-family="IBM Plex Sans Medium, Arial, sans-serif" font-size="14" text-anchor="middle" x="375.9546498648947" y="378.16019839093053"><tspan dy="0" x="375.9546498648947">Operates</tspan></text></g></g><g id="Uses"><polyline points="848,382.81 720,382.81" fill="none" stroke-width="1" stroke="#adb3b3" opacity="1"></polyline></g><g id="Uses"><rect width="43.19200000000001" height="22.2" x="762.404" y="371.71" rx="4" ry="4" fill-opacity="0.8" fill="#e5e7e8" stroke-opacity="1" stroke-width="1" stroke="#cfd2d2" opacity="0.8"></rect><g opacity="1" fill="#434647"><text font-family="IBM Plex Sans Medium, Arial, sans-serif" font-size="14" text-anchor="middle" x="784" y="388.06"><tspan dy="0" x="784">Uses</tspan></text></g></g><g id="Uses"><polyline points="592,542.81 592,446.81" fill="none" stroke-width="1" stroke="#adb3b3" opacity="1"></polyline></g><g id="Uses"><rect width="43.19200000000001" height="22.2" x="570.404" y="483.71" rx="4" ry="4" fill-opacity="0.8" fill="#e5e7e8" stroke-opacity="1" stroke-width="1" stroke="#cfd2d2" opacity="0.8"></rect><g opacity="1" fill="#434647"><text font-family="IBM Plex Sans Medium, Arial, sans-serif" font-size="14" text-anchor="middle" x="592" y="500.06"><tspan dy="0" x="592">Uses</tspan></text></g></g><g id="Sends Transactions"><polyline points="1040,542.81 1040,446.81" fill="none" stroke-width="1" stroke="#adb3b3" opacity="1"></polyline></g><g id="Sends Transactions"><rect width="137.48199999999997" height="22.2" x="971.259" y="483.71" rx="4" ry="4" fill-opacity="0.8" fill="#e5e7e8" stroke-opacity="1" stroke-width="1" stroke="#cfd2d2" opacity="0.8"></rect><g opacity="1" fill="#434647"><text font-family="IBM Plex Sans Medium, Arial, sans-serif" font-size="14" text-anchor="middle" x="1040" y="500.06"><tspan dy="0" x="1040">Sends Transactions</tspan></text></g></g><g id="Queries Chain"><polyline points="912,542.81 912,446.81" fill="none" stroke-width="1" stroke="#adb3b3" opacity="1"></polyline></g><g id="Queries Chain"><rect width="101.41799999999999" height="22.2" x="861.291" y="483.71" rx="4" ry="4" fill-opacity="0.8" fill="#e5e7e8" stroke-opacity="1" stroke-width="1" stroke="#cfd2d2" opacity="0.8"></rect><g opacity="1" fill="#434647"><text font-family="IBM Plex Sans Medium, Arial, sans-serif" font-size="14" text-anchor="middle" x="912" y="500.06"><tspan dy="0" x="912">Queries Chain</tspan></text></g></g><g id="Connects via CIP-30"><polyline points="848,606.81 720,606.81" fill="none" stroke-width="1" stroke="#adb3b3" opacity="1"></polyline></g><g id="Connects via CIP-30"><rect width="93.774" height="38.2" x="737.113" y="587.7099999999999" rx="4" ry="4" fill-opacity="0.8" fill="#e5e7e8" stroke-opacity="1" stroke-width="1" stroke="#cfd2d2" opacity="0.8"></rect><g opacity="1" fill="#434647"><text font-family="IBM Plex Sans Medium, Arial, sans-serif" font-size="14" text-anchor="middle" x="784" y="604.0600000000001"><tspan dy="0" x="784">Connects via</tspan></text><text font-family="IBM Plex Sans Medium, Arial, sans-serif" font-size="14" text-anchor="middle" x="784" y="620.0600000000001"><tspan dy="0" x="784">CIP-30</tspan></text></g></g><g id="Uses"><polyline points="768,862.81 768,838.81 767.24,825.0799999999999 765.04,813.31 761.51,803.3499999999999 756.78,795.03 750.98,788.18 744.21,782.64 736.6,778.25 728.27,774.8399999999999 719.33,772.25 700.15,768.8699999999999 650.08,763.3 631.73,758.78 623.4,755.3699999999999 615.79,750.9799999999999 609.02,745.4399999999999 603.22,738.5899999999999 598.49,730.27 594.96,720.31 592.76,708.54 592,694.81 592,670.81" fill="none" stroke-width="1" stroke="#adb3b3" opacity="1"></polyline></g><g id="Uses"><rect width="43.19200000000001" height="22.2" x="658.4310342652395" y="755.5314356072973" rx="4" ry="4" fill-opacity="0.8" fill="#e5e7e8" stroke-opacity="1" stroke-width="1" stroke="#cfd2d2" opacity="0.8"></rect><g opacity="1" fill="#434647"><text font-family="IBM Plex Sans Medium, Arial, sans-serif" font-size="14" text-anchor="middle" x="680.0270342652395" y="771.8814356072975"><tspan dy="0" x="680.0270342652395">Uses</tspan></text></g></g><g id="Uses"><polyline points="768,862.81 768,838.81 768.72,826.41 770.8299999999999,815.5899999999999 774.22,806.26 778.78,798.28 784.4200000000001,791.55 791.03,785.93 798.51,781.3199999999999 806.75,777.5899999999999 825.14,772.3299999999999 845.37,769.1899999999999 898.63,764.43 918.86,761.29 928.3299999999999,758.9799999999999 937.25,756.03 945.49,752.3 952.97,747.6899999999999 959.5799999999999,742.0699999999999 965.22,735.3399999999999 969.78,727.3599999999999 973.1700000000001,718.03 975.28,707.2099999999999 976,694.81 976,670.81" fill="none" stroke-width="1" stroke="#adb3b3" opacity="1"></polyline></g><g id="Uses"><rect width="43.19200000000001" height="22.2" x="850.4116495473684" y="755.7093163378619" rx="4" ry="4" fill-opacity="0.8" fill="#e5e7e8" stroke-opacity="1" stroke-width="1" stroke="#cfd2d2" opacity="0.8"></rect><g opacity="1" fill="#434647"><text font-family="IBM Plex Sans Medium, Arial, sans-serif" font-size="14" text-anchor="middle" x="872.0076495473684" y="772.059316337862"><tspan dy="0" x="872.0076495473684">Uses</tspan></text></g></g><g id="Certifies"><polyline points="592,166.81 592,318.81" fill="none" stroke-width="1" stroke="#adb3b3" opacity="1"></polyline></g><g id="Certifies"><rect width="65.928" height="22.2" x="559.0360000000001" y="231.71" rx="4" ry="4" fill-opacity="0.8" fill="#e5e7e8" stroke-opacity="1" stroke-width="1" stroke="#cfd2d2" opacity="0.8"></rect><g opacity="1" fill="#434647"><text font-family="IBM Plex Sans Medium, Arial, sans-serif" font-size="14" text-anchor="middle" x="592" y="248.05999999999997"><tspan dy="0" x="592">Certifies</tspan></text></g></g><g id="Uses"><polyline points="1304,118.81 1304,94.81 1302.65,81.19 1298.6799999999998,69.48 1295.77,64.3 1288.1799999999998,55.239999999999995 1278.3600000000001,47.83 1272.6599999999999,44.709999999999994 1259.78,39.58 1252.63,37.54 1237.03,34.47 1210.63,32.15 1191.26,32 1159.9099999999999,33.59 1137.71,35.72 1102.83,40.269999999999996 1066.52,46.14 1029.28,53 869.71,85.74000000000001 815.0799999999999,95.67 785.69,99.86 767.8199999999999,101.71000000000001 751.52,102.68 720,102.81" fill="none" stroke-width="1" stroke="#adb3b3" opacity="1"></polyline></g><g id="Uses"><rect width="43.19200000000001" height="22.2" x="1017.1633280360488" y="40.153807993359415" rx="4" ry="4" fill-opacity="0.8" fill="#e5e7e8" stroke-opacity="1" stroke-width="1" stroke="#cfd2d2" opacity="0.8"></rect><g opacity="1" fill="#434647"><text font-family="IBM Plex Sans Medium, Arial, sans-serif" font-size="14" text-anchor="middle" x="1038.7593280360488" y="56.50380799335941"><tspan dy="0" x="1038.7593280360488">Uses</tspan></text></g></g><g id="Creates"><polyline points="1304,278.81 1303.62,322.85 1301.5700000000002,353.94 1297.6599999999999,385.7 1291.83,417.55 1283.96,448.85 1273.99,479 1261.81,507.39 1247.35,533.4100000000001 1236.4,549.13 1230.52,556.4399999999999 1217.9299999999998,569.8299999999999 1204.23,581.4399999999999 1196.95,586.53 1181.51,595.13 1164.8899999999999,601.5 1147.0700000000002,605.4499999999999 1128,606.81 1104,606.81" fill="none" stroke-width="1" stroke="#adb3b3" opacity="1"></polyline></g><g id="Creates"><rect width="61.49" height="22.2" x="1237.7932104133258" y="480.60741431573757" rx="4" ry="4" fill-opacity="0.8" fill="#e5e7e8" stroke-opacity="1" stroke-width="1" stroke="#cfd2d2" opacity="0.8"></rect><g opacity="1" fill="#434647"><text font-family="IBM Plex Sans Medium, Arial, sans-serif" font-size="14" text-anchor="middle" x="1268.5382104133257" y="496.9574143157376"><tspan dy="0" x="1268.5382104133257">Creates</tspan></text></g></g><g id="Uses"><polyline points="1240,278.81 1239.72,316.99 1237.35,340.14 1235.19,349.35 1232.31,357.14 1228.69,363.62 1224.28,368.92 1219.04,373.16 1212.94,376.44 1205.92,378.9 1189,381.8 1167.97,382.8 1104,382.81" fill="none" stroke-width="1" stroke="#adb3b3" opacity="1"></polyline></g><g id="Uses"><rect width="43.19200000000001" height="22.2" x="1190.1983470915493" y="365.7414681132177" rx="4" ry="4" fill-opacity="0.8" fill="#e5e7e8" stroke-opacity="1" stroke-width="1" stroke="#cfd2d2" opacity="0.8"></rect><g opacity="1" fill="#434647"><text font-family="IBM Plex Sans Medium, Arial, sans-serif" font-size="14" text-anchor="middle" x="1211.7943470915493" y="382.09146811321773"><tspan dy="0" x="1211.7943470915493">Uses</tspan></text></g></g><g id="Uses manually"><polyline points="1176,234.81 1144.54,234.74 1110.3,233.22 953.35,220.57 879.4300000000001,216.59 843.35,215.99 808.6800000000001,216.68 776.03,218.95 755.7,221.48 727.8199999999999,226.99 703.62,234.81 689.83,241.45 683.71,245.23 673.14,253.75 664.94,263.63 661.78,269.1 657.48,281.17 656,294.81 656,318.81" fill="none" stroke-width="1" stroke="#adb3b3" opacity="1"></polyline></g><g id="Uses manually"><rect width="105.63199999999999" height="22.2" x="833.4172631950906" y="205.85630123804734" rx="4" ry="4" fill-opacity="0.8" fill="#e5e7e8" stroke-opacity="1" stroke-width="1" stroke="#cfd2d2" opacity="0.8"></rect><g opacity="1" fill="#434647"><text font-family="IBM Plex Sans Medium, Arial, sans-serif" font-size="14" text-anchor="middle" x="886.2332631950907" y="222.2063012380473"><tspan dy="0" x="886.2332631950907">Uses manually</tspan></text></g></g><a href="https://app.icepanel.io/landscapes/uXaSNEkX1PFAJr6ppM94/versions/latest/model/objects?object=U7calFxRdS&amp;focus=U7calFxRdS" id="SPO" target="_blank"><rect width="56" height="56" rx="8" ry="8" fill-opacity="0.8" fill="#f5f6f6" stroke-opacity="1" stroke-width="1" stroke="#adb3b3" opacity="1" x="132" y="246.81"></rect><rect width="256" height="96" rx="8" ry="8" fill-opacity="0.8" fill="#f5f6f6" stroke-opacity="1" stroke-width="1" stroke="#adb3b3" opacity="1" x="32" y="310.81"></rect><path d="M160 276.5242857142857C163.7875 276.5242857142857 166.85714285714286 273.45464285714286 166.85714285714286 269.66714285714284C166.85714285714286 265.87964285714287 163.7875 262.81 160 262.81C156.2125 262.81 153.14285714285714 265.87964285714287 153.14285714285714 269.66714285714284C153.14285714285714 273.45464285714286 156.2125 276.5242857142857 160 276.5242857142857ZM164.8 278.2385714285714L163.90535714285716 278.2385714285714C162.71607142857144 278.78499999999997 161.39285714285714 279.0957142857143 160 279.0957142857143C158.60714285714286 279.0957142857143 157.2892857142857 278.78499999999997 156.09464285714284 278.2385714285714L155.2 278.2385714285714C151.225 278.2385714285714 148 281.4635714285714 148 285.43857142857144L148 287.66714285714284C148 289.0867857142857 149.15178571428572 290.23857142857145 150.57142857142856 290.23857142857145L169.42857142857142 290.23857142857145C170.84821428571428 290.23857142857145 172 289.0867857142857 172 287.66714285714284L172 285.43857142857144C172 281.4635714285714 168.775 278.2385714285714 164.8 278.2385714285714Z " fill="#0c0d0d" opacity="1"></path><text font-family="IBM Plex Sans Medium, Arial, sans-serif" font-size="24" font-weight="500" text-anchor="middle" fill="#0c0d0d" opacity="1" x="159.99999999999997" y="349.1433333333333"><tspan dy="0" x="159.99999999999997">SPO</tspan></text><g opacity="1"><text font-family="IBM Plex Sans, Arial, sans-serif" font-size="14" text-anchor="middle" fill="#595f61" x="160" y="376.3933333333333"><tspan dy="0" x="160">Stake pool operator</tspan></text></g><g id="Actor" opacity="1"><text font-family="Courier New, monospace" font-size="12" text-anchor="middle" fill="#595f61" x="160" y="395.4652734375"><tspan dy="0" x="160">Actor</tspan></text></g></a><a href="https://app.icepanel.io/landscapes/uXaSNEkX1PFAJr6ppM94/versions/latest/model/objects?object=deCt3Td0Mf&amp;focus=deCt3Td0Mf" id="Cardano Network" target="_blank"><rect width="256" height="128" rx="8" ry="8" fill-opacity="0.8" fill="#f5f6f6" stroke-opacity="1" stroke-width="1" stroke="#adb3b3" opacity="1" x="464" y="318.81"></rect><text font-family="IBM Plex Sans Medium, Arial, sans-serif" font-size="24" font-weight="500" text-anchor="middle" fill="#0c0d0d" opacity="1" x="591.9999999999998" y="369.81"><tspan dy="0" x="591.9999999999998">Cardano Network</tspan></text><g opacity="1"><text font-family="IBM Plex Sans, Arial, sans-serif" font-size="11" text-anchor="middle" fill="#595f61" x="592" y="396.43499999999995"><tspan dy="0" x="592">The whole Cardano P2P network as a system</tspan></text><text font-family="IBM Plex Sans, Arial, sans-serif" font-size="11" text-anchor="middle" fill="#595f61" x="592" y="409.43499999999995"><tspan dy="0" x="592">with a few key infrastructure containers.</tspan></text></g><g id="System" opacity="1"><text font-family="Courier New, monospace" font-size="12" text-anchor="middle" fill="#595f61" x="592" y="435.4652734375"><tspan dy="0" x="592">System</tspan></text></g></a><a href="https://app.icepanel.io/landscapes/uXaSNEkX1PFAJr6ppM94/versions/latest/model/objects?object=P7okF1D4vi&amp;focus=P7okF1D4vi" id="Blockfrost" target="_blank"><rect width="256" height="128" rx="8" ry="8" fill-opacity="0.8" fill="#f5f6f6" stroke-opacity="1" stroke-width="1" stroke="#adb3b3" opacity="1" x="848" y="318.81"></rect><text font-family="IBM Plex Sans Medium, Arial, sans-serif" font-size="24" font-weight="500" text-anchor="middle" fill="#0c0d0d" opacity="1" x="976.0000000000001" y="387.81000000000006"><tspan dy="0" x="976.0000000000001">Blockfrost</tspan></text><g id="System" opacity="1"><text font-family="Courier New, monospace" font-size="12" text-anchor="middle" fill="#595f61" x="976" y="435.4652734375"><tspan dy="0" x="976">System</tspan></text></g></a><a href="https://app.icepanel.io/landscapes/uXaSNEkX1PFAJr6ppM94/versions/latest/model/objects?object=OwkalTYEkk&amp;focus=OwkalTYEkk" id="Lace Wallet" target="_blank"><rect width="256" height="128" rx="8" ry="8" fill-opacity="0.8" fill="#f5f6f6" stroke-opacity="1" stroke-width="1" stroke="#adb3b3" opacity="1" x="464" y="542.81"></rect><text font-family="IBM Plex Sans Medium, Arial, sans-serif" font-size="24" font-weight="500" text-anchor="middle" fill="#0c0d0d" opacity="1" x="592" y="611.81"><tspan dy="0" x="592">Lace Wallet</tspan></text><g id="System" opacity="1"><text font-family="Courier New, monospace" font-size="12" text-anchor="middle" fill="#595f61" x="592" y="659.4652734375"><tspan dy="0" x="592">System</tspan></text></g></a><a href="https://app.icepanel.io/landscapes/uXaSNEkX1PFAJr6ppM94/versions/latest/model/objects?object=4FsyMmO7mJ&amp;focus=4FsyMmO7mJ" id="dApp" target="_blank"><rect width="256" height="128" rx="8" ry="8" fill-opacity="0.8" fill="#f5f6f6" stroke-opacity="1" stroke-width="1" stroke="#adb3b3" opacity="1" x="848" y="542.81"></rect><text font-family="IBM Plex Sans Medium, Arial, sans-serif" font-size="24" font-weight="500" text-anchor="middle" fill="#0c0d0d" opacity="1" x="976" y="611.81"><tspan dy="0" x="976">dApp</tspan></text><g id="System" opacity="1"><text font-family="Courier New, monospace" font-size="12" text-anchor="middle" fill="#595f61" x="976" y="659.4652734375"><tspan dy="0" x="976">System</tspan></text></g></a><a href="https://app.icepanel.io/landscapes/uXaSNEkX1PFAJr6ppM94/versions/latest/model/objects?object=pGBdcNRAWY&amp;focus=pGBdcNRAWY" id="End User" target="_blank"><rect width="56" height="56" rx="8" ry="8" fill-opacity="0.8" fill="#f5f6f6" stroke-opacity="1" stroke-width="1" stroke="#adb3b3" opacity="1" x="740" y="862.81"></rect><rect width="256" height="96" rx="8" ry="8" fill-opacity="0.8" fill="#f5f6f6" stroke-opacity="1" stroke-width="1" stroke="#adb3b3" opacity="1" x="640" y="926.81"></rect><path d="M768 892.5242857142856C771.7875 892.5242857142856 774.8571428571429 889.4546428571427 774.8571428571429 885.6671428571428C774.8571428571429 881.8796428571428 771.7875 878.81 768 878.81C764.2125 878.81 761.1428571428571 881.8796428571428 761.1428571428571 885.6671428571428C761.1428571428571 889.4546428571427 764.2125 892.5242857142856 768 892.5242857142856ZM772.8 894.2385714285714L771.9053571428572 894.2385714285714C770.7160714285715 894.785 769.3928571428571 895.0957142857143 768 895.0957142857143C766.6071428571429 895.0957142857143 765.2892857142857 894.785 764.0946428571428 894.2385714285714L763.2 894.2385714285714C759.225 894.2385714285714 756 897.4635714285714 756 901.4385714285713L756 903.6671428571428C756 905.0867857142856 757.1517857142857 906.2385714285714 758.5714285714286 906.2385714285714L777.4285714285714 906.2385714285714C778.8482142857142 906.2385714285714 780 905.0867857142856 780 903.6671428571428L780 901.4385714285713C780 897.4635714285714 776.775 894.2385714285714 772.8 894.2385714285714Z " fill="#0c0d0d" opacity="1"></path><text font-family="IBM Plex Sans Medium, Arial, sans-serif" font-size="24" font-weight="500" text-anchor="middle" fill="#0c0d0d" opacity="1" x="767.9999999999999" y="974.81"><tspan dy="0" x="767.9999999999999">End User</tspan></text><g id="Actor" opacity="1"><text font-family="Courier New, monospace" font-size="12" text-anchor="middle" fill="#595f61" x="768" y="1011.4652734375"><tspan dy="0" x="768">Actor</tspan></text></g></a><a href="https://app.icepanel.io/landscapes/uXaSNEkX1PFAJr6ppM94/versions/latest/model/objects?object=Dciyq5gY6Z&amp;focus=Dciyq5gY6Z" id="dDapp Developer" target="_blank"><rect width="56" height="56" rx="8" ry="8" fill-opacity="0.8" fill="#f5f6f6" stroke-opacity="1" stroke-width="1" stroke="#adb3b3" opacity="1" x="1276" y="118.81"></rect><rect width="256" height="96" rx="8" ry="8" fill-opacity="0.8" fill="#f5f6f6" stroke-opacity="1" stroke-width="1" stroke="#adb3b3" opacity="1" x="1176" y="182.81"></rect><path d="M1304 148.52428571428572C1307.7875 148.52428571428572 1310.857142857143 145.45464285714286 1310.857142857143 141.66714285714286C1310.857142857143 137.87964285714287 1307.7875 134.81 1304 134.81C1300.2125 134.81 1297.142857142857 137.87964285714287 1297.142857142857 141.66714285714286C1297.142857142857 145.45464285714286 1300.2125 148.52428571428572 1304 148.52428571428572ZM1308.8 150.23857142857145L1307.9053571428572 150.23857142857145C1306.7160714285715 150.785 1305.392857142857 151.09571428571428 1304 151.09571428571428C1302.607142857143 151.09571428571428 1301.2892857142856 150.785 1300.0946428571428 150.23857142857145L1299.2 150.23857142857145C1295.225 150.23857142857145 1292 153.4635714285714 1292 157.43857142857144L1292 159.66714285714286C1292 161.08678571428572 1293.1517857142858 162.23857142857145 1294.5714285714287 162.23857142857145L1313.4285714285713 162.23857142857145C1314.8482142857142 162.23857142857145 1316 161.08678571428572 1316 159.66714285714286L1316 157.43857142857144C1316 153.4635714285714 1312.775 150.23857142857145 1308.8 150.23857142857145Z " fill="#0c0d0d" opacity="1"></path><text font-family="IBM Plex Sans Medium, Arial, sans-serif" font-size="24" font-weight="500" text-anchor="middle" fill="#0c0d0d" opacity="1" x="1304.0000000000002" y="230.81000000000006"><tspan dy="0" x="1304.0000000000002">dDapp Developer</tspan></text><g id="Actor" opacity="1"><text font-family="Courier New, monospace" font-size="12" text-anchor="middle" fill="#595f61" x="1304" y="267.4652734375"><tspan dy="0" x="1304">Actor</tspan></text></g></a><a href="https://app.icepanel.io/landscapes/uXaSNEkX1PFAJr6ppM94/versions/latest/model/objects?object=efGfPQ7NZj&amp;focus=efGfPQ7NZj" id="Mithril" target="_blank"><rect width="256" height="128" rx="8" ry="8" fill-opacity="0.8" fill="#f5f6f6" stroke-opacity="1" stroke-width="1" stroke="#adb3b3" opacity="1" x="464" y="38.81"></rect><text font-family="IBM Plex Sans Medium, Arial, sans-serif" font-size="24" font-weight="500" text-anchor="middle" fill="#0c0d0d" opacity="1" x="591.9999999999999" y="107.81"><tspan dy="0" x="591.9999999999999">Mithril</tspan></text><g id="System" opacity="1"><text font-family="Courier New, monospace" font-size="12" text-anchor="middle" fill="#595f61" x="592" y="155.4652734375"><tspan dy="0" x="592">System</tspan></text></g></a><g id="Operates"><polygon points="455.77289725987094,310.5276747106821 447.77289725987094,326.5276747106821 463.77289725987094,326.5276747106821 455.77289725987094,310.5276747106821" fill="#adb3b3" opacity="1" transform="matrix(-0.007078172695444012,0.999974949421881,-0.999974949421881,-0.007078172695444012,777.7459350896168,-70.7535113769867)"></polygon><circle r="4" fill="#adb3b3" opacity="1" cx="288" cy="362.81"></circle></g><g id="Uses"><polygon points="664,374.80999999999995 656,390.80999999999995 672,390.80999999999995 664,374.80999999999995" fill="#adb3b3" opacity="1" transform="matrix(-1.8369701987210297e-16,-1,1,-1.8369701987210297e-16,345.1900000000001,1046.8100000000002)"></polygon><circle r="4" fill="#adb3b3" opacity="1" cx="848" cy="382.81"></circle></g><g id="Uses"><polygon points="592,446.81 584,462.81 600,462.81 592,446.81" fill="#adb3b3" opacity="1" transform="matrix(1,0,0,1,0,0)"></polygon><circle r="4" fill="#adb3b3" opacity="1" cx="592" cy="542.81"></circle></g><g id="Sends Transactions"><polygon points="1040,446.81 1032,462.81 1048,462.81 1040,446.81" fill="#adb3b3" opacity="1" transform="matrix(1,0,0,1,0,0)"></polygon><circle r="4" fill="#adb3b3" opacity="1" cx="1040" cy="542.81"></circle></g><g id="Queries Chain"><polygon points="912,446.81 904,462.81 920,462.81 912,446.81" fill="#adb3b3" opacity="1" transform="matrix(1,0,0,1,0,0)"></polygon><circle r="4" fill="#adb3b3" opacity="1" cx="912" cy="542.81"></circle></g><g id="Connects via CIP-30"><polygon points="664,598.81 656,614.81 672,614.81 664,598.81" fill="#adb3b3" opacity="1" transform="matrix(-1.8369701987210297e-16,-1,1,-1.8369701987210297e-16,121.19000000000017,1270.81)"></polygon><circle r="4" fill="#adb3b3" opacity="1" cx="848" cy="606.81"></circle></g><g id="Uses"><polygon points="592,670.81 584,686.81 600,686.81 592,670.81" fill="#adb3b3" opacity="1" transform="matrix(1,0,0,1,0,0)"></polygon><circle r="4" fill="#adb3b3" opacity="1" cx="768" cy="862.81"></circle></g><g id="Uses"><polygon points="976,670.81 968,686.81 984,686.81 976,670.81" fill="#adb3b3" opacity="1" transform="matrix(1,0,0,1,0,0)"></polygon><circle r="4" fill="#adb3b3" opacity="1" cx="768" cy="862.81"></circle></g><g id="Certifies"><polygon points="528.0000000000001,238.81 520.0000000000001,254.81 536.0000000000001,254.81 528.0000000000001,238.81" fill="#adb3b3" opacity="1" transform="matrix(-1,1.2246467991473532e-16,-1.2246467991473532e-16,-1,1120,557.6199999999999)"></polygon><circle r="4" fill="#adb3b3" opacity="1" cx="592" cy="166.81"></circle></g><g id="Uses"><polygon points="663.8682255491507,94.64475462105628 655.8682255491507,110.64475462105628 671.8682255491507,110.64475462105628 663.8682255491507,94.64475462105628" fill="#adb3b3" opacity="1" transform="matrix(-0.004124330404147283,-0.9999914949131905,0.9999914949131905,-0.004124330404147283,628.0940622477776,767.062925531339)"></polygon><circle r="4" fill="#adb3b3" opacity="1" cx="1304" cy="118.81"></circle></g><g id="Creates"><polygon points="1048,598.81 1040,614.81 1056,614.81 1048,598.81" fill="#adb3b3" opacity="1" transform="matrix(-1.8369701987210297e-16,-1,1,-1.8369701987210297e-16,505.1900000000003,1654.81)"></polygon><circle r="4" fill="#adb3b3" opacity="1" cx="1304" cy="278.81"></circle></g><g id="Uses"><polygon points="1047.9949979484556,374.80374667802346 1039.9949979484556,390.80374667802346 1055.9949979484556,390.80374667802346 1047.9949979484556,374.80374667802346" fill="#adb3b3" opacity="1" transform="matrix(-0.00015632327462655426,-0.9999999877815169,0.9999999877815169,-0.00015632327462655426,729.3600839113813,1430.8635756925694)"></polygon><circle r="4" fill="#adb3b3" opacity="1" cx="1240" cy="278.81"></circle></g><g id="Uses manually"><polygon points="592.0000000000001,238.81 584.0000000000001,254.81 600.0000000000001,254.81 592.0000000000001,238.81" fill="#adb3b3" opacity="1" transform="matrix(-1,1.2246467991473532e-16,-1.2246467991473532e-16,-1,1248,557.6199999999999)"></polygon><circle r="4" fill="#adb3b3" opacity="1" cx="1176" cy="234.81"></circle></g></g></svg>