<svg xmlns="http://www.w3.org/2000/svg" xmlns:xlink="http://www.w3.org/1999/xlink" version="1.1" width="2040" height="1672"><g id="Cardano Network App diagram"><g id="Cardano Network"><rect width="1552" height="1032" rx="8" ry="8" fill-opacity="0.02" fill="#000000" stroke-opacity="1" stroke-width="2" stroke="#cfd2d2" opacity="1" x="32" y="304"></rect><text font-family="IBM Plex Sans Medium, Arial, sans-serif" font-size="15" font-weight="500" fill="#0c0d0d" opacity="1" x="48" y="335.375"><tspan dy="0" x="48">Cardano Network</tspan></text><g opacity="1"><text font-family="IBM Plex Sans, Arial, sans-serif" font-size="14" text-anchor="middle" fill="#595f61" x="807.9999999999999" y="1301.25"><tspan dy="0" x="807.9999999999999">The whole Cardano P2P network as a system with a few key infrastructure containers.</tspan></text></g><g id="System" opacity="1"><text font-family="Courier New, monospace" font-size="12" text-anchor="middle" fill="#595f61" x="808" y="1324.6552734375"><tspan dy="0" x="808">System</tspan></text></g></g><g id="Operates"><polyline points="488,192 488,360" fill="none" stroke-width="1" stroke="#adb3b3" opacity="1"></polyline></g><g id="Operates"><rect width="70.856" height="22.2" x="452.572" y="264.9" rx="4" ry="4" fill-opacity="0.8" fill="#e5e7e8" stroke-opacity="1" stroke-width="1" stroke="#cfd2d2" opacity="0.8"></rect><g opacity="1" fill="#434647"><text font-family="IBM Plex Sans Medium, Arial, sans-serif" font-size="14" text-anchor="middle" x="488" y="281.25"><tspan dy="0" x="488">Operates</tspan></text></g></g><g id="Connects To"><polyline points="792,616 791.9,578.62 791.08,553.83 789.25,531.5699999999999 786.25,511.75 781.9,494.25 776.04,478.98 768.47,465.82 764,460 753.56,449.82 740.99,441.49 726.11,434.92 708.75,429.98 688.72,426.59000000000003 665.87,424.63 616,424" fill="none" stroke-width="1" stroke="#adb3b3" opacity="1"></polyline></g><g id="Connects To"><rect width="91.156" height="22.2" x="719.7541989268346" y="450.63454088460344" rx="4" ry="4" fill-opacity="0.8" fill="#e5e7e8" stroke-opacity="1" stroke-width="1" stroke="#cfd2d2" opacity="0.8"></rect><g opacity="1" fill="#434647"><text font-family="IBM Plex Sans Medium, Arial, sans-serif" font-size="14" text-anchor="middle" x="765.3321989268346" y="466.98454088460346"><tspan dy="0" x="765.3321989268346">Connects To</tspan></text></g></g><g id="Operates"><polyline points="616,148 646.88,148.3 653.8,149.19 667.73,152.65 674.73,155.2 688.78,161.83 709.87,175.36 730.82,192.78 744.64,206.32999999999998 758.28,221.26 778.31,245.95999999999998 791.3,263.75 803.94,282.45 828,322 839.32,342.58 855.27,374.06 874.38,416.47 882.9,437.55 894.25,468.63 903.74,498.63 908.95,517.81 916.49,553.58 918.72,569.89 919.86,584.97 920,616" fill="none" stroke-width="1" stroke="#adb3b3" opacity="1"></polyline></g><g id="Operates"><rect width="70.856" height="22.2" x="797.8395511752858" y="320.4765197161997" rx="4" ry="4" fill-opacity="0.8" fill="#e5e7e8" stroke-opacity="1" stroke-width="1" stroke="#cfd2d2" opacity="0.8"></rect><g opacity="1" fill="#434647"><text font-family="IBM Plex Sans Medium, Arial, sans-serif" font-size="14" text-anchor="middle" x="833.2675511752858" y="336.8265197161997"><tspan dy="0" x="833.2675511752858">Operates</tspan></text></g></g><g id="Connects To"><polyline points="1128,680 984,680" fill="none" stroke-width="1" stroke="#adb3b3" opacity="1"></polyline></g><g id="Connects To"><rect width="91.156" height="22.2" x="1010.422" y="668.9" rx="4" ry="4" fill-opacity="0.8" fill="#e5e7e8" stroke-opacity="1" stroke-width="1" stroke="#cfd2d2" opacity="0.8"></rect><g opacity="1" fill="#434647"><text font-family="IBM Plex Sans Medium, Arial, sans-serif" font-size="14" text-anchor="middle" x="1056" y="685.2500000000001"><tspan dy="0" x="1056">Connects To</tspan></text></g></g><g id="Connects To"><polyline points="1256,848 1256,744" fill="none" stroke-width="1" stroke="#adb3b3" opacity="1"></polyline></g><g id="Connects To"><rect width="91.156" height="22.2" x="1210.422" y="784.9" rx="4" ry="4" fill-opacity="0.8" fill="#e5e7e8" stroke-opacity="1" stroke-width="1" stroke="#cfd2d2" opacity="0.8"></rect><g opacity="1" fill="#434647"><text font-family="IBM Plex Sans Medium, Arial, sans-serif" font-size="14" text-anchor="middle" x="1256" y="801.2500000000001"><tspan dy="0" x="1256">Connects To</tspan></text></g></g><g id="Connects To"><polyline points="1128,880 1022.3199999999999,880.62 979.3900000000001,879.17 959.47,877.19 940.81,874.07 923.57,869.56 907.9,863.43 893.99,855.45 881.98,845.39 876.75,839.5 872.05,833 867.92,825.87 864.36,818.06 861.41,809.56 859.07,800.3299999999999 857.38,790.35 856,768 856,744" fill="none" stroke-width="1" stroke="#adb3b3" opacity="1"></polyline></g><g id="Connects To"><rect width="91.156" height="22.2" x="901.8742544568057" y="864.080602031363" rx="4" ry="4" fill-opacity="0.8" fill="#e5e7e8" stroke-opacity="1" stroke-width="1" stroke="#cfd2d2" opacity="0.8"></rect><g opacity="1" fill="#434647"><text font-family="IBM Plex Sans Medium, Arial, sans-serif" font-size="14" text-anchor="middle" x="947.4522544568057" y="880.4306020313629"><tspan dy="0" x="947.4522544568057">Connects To</tspan></text></g></g><g id="Uses"><polyline points="1744,912 1384,912" fill="none" stroke-width="1" stroke="#adb3b3" opacity="1"></polyline></g><g id="Uses"><rect width="43.19200000000001" height="22.2" x="1542.404" y="900.9" rx="4" ry="4" fill-opacity="0.8" fill="#e5e7e8" stroke-opacity="1" stroke-width="1" stroke="#cfd2d2" opacity="0.8"></rect><g opacity="1" fill="#434647"><text font-family="IBM Plex Sans Medium, Arial, sans-serif" font-size="14" text-anchor="middle" x="1564" y="917.2500000000001"><tspan dy="0" x="1564">Uses</tspan></text></g></g><g id="Uses"><polyline points="1752,680 1728,680 1708.8,681.52 1690.5,685.88 1681.66,689.02 1664.52,697.02 1656.2,701.79 1640,712.7 1616.59,731.85 1593.94,753.37 1549.5,799.13 1527.03,821.19 1503.91,841.24 1487.96,852.96 1471.48,862.98 1463,867.26 1445.5,874.12 1436.46,876.63 1417.72,879.61 1384,880" fill="none" stroke-width="1" stroke="#adb3b3" opacity="1"></polyline></g><g id="Uses"><rect width="43.19200000000001" height="22.2" x="1546.4424403635599" y="768.9409128929682" rx="4" ry="4" fill-opacity="0.8" fill="#e5e7e8" stroke-opacity="1" stroke-width="1" stroke="#cfd2d2" opacity="0.8"></rect><g opacity="1" fill="#434647"><text font-family="IBM Plex Sans Medium, Arial, sans-serif" font-size="14" text-anchor="middle" x="1568.0384403635599" y="785.2909128929683"><tspan dy="0" x="1568.0384403635599">Uses</tspan></text></g></g><g id="N2C"><polyline points="1112,1144 1112,1120 1112.9,1104.3400000000001 1115.44,1091.95 1119.38,1082.35 1124.5,1075.08 1130.55,1069.6799999999998 1137.31,1065.6799999999998 1159.46,1057.3899999999999 1166.69,1054.3200000000002 1173.45,1050.3200000000002 1179.5,1044.92 1184.62,1037.65 1188.56,1028.05 1191.1,1015.66 1192,1000 1192,976" fill="none" stroke-width="1" stroke="#adb3b3" opacity="1"></polyline></g><g id="N2C"><rect width="39.272" height="22.2" x="1132.427223144742" y="1049.058364791426" rx="4" ry="4" fill-opacity="0.8" fill="#e5e7e8" stroke-opacity="1" stroke-width="1" stroke="#cfd2d2" opacity="0.8"></rect><g opacity="1" fill="#434647"><text font-family="IBM Plex Sans Medium, Arial, sans-serif" font-size="14" text-anchor="middle" x="1152.0632231447419" y="1065.4083647914254"><tspan dy="0" x="1152.0632231447419">N2C</tspan></text></g></g><g id="N2C"><polyline points="816,1144 816.33,1110.06 818.9,1091.1599999999999 823.87,1073.56 831.09,1057.21 840.37,1042.0900000000001 851.56,1028.1799999999998 864.49,1015.44 871.55,1009.5 886.76,998.48 903.29,988.55 930.19,975.69 959.0999999999999,965.15 989.46,956.84 1020.69,950.68 1052.25,946.57 1083.55,944.4 1128,944" fill="none" stroke-width="1" stroke="#adb3b3" opacity="1"></polyline></g><g id="N2C"><rect width="39.272" height="22.2" x="902.3002695958161" y="968.5358354274277" rx="4" ry="4" fill-opacity="0.8" fill="#e5e7e8" stroke-opacity="1" stroke-width="1" stroke="#cfd2d2" opacity="0.8"></rect><g opacity="1" fill="#434647"><text font-family="IBM Plex Sans Medium, Arial, sans-serif" font-size="14" text-anchor="middle" x="921.936269595816" y="984.8858354274279"><tspan dy="0" x="921.936269595816">N2C</tspan></text></g></g><g id="N2C"><polyline points="1344,1144 1344,1120 1343.12,1104.9099999999999 1340.63,1092.83 1336.75,1083.3600000000001 1331.68,1076.1 1325.64,1070.65 1318.85,1066.6 1311.53,1063.56 1288.47,1056.44 1281.15,1053.4 1274.36,1049.35 1268.32,1043.9 1263.25,1036.6399999999999 1259.37,1027.17 1256.88,1015.09 1256,1000 1256,976" fill="none" stroke-width="1" stroke="#adb3b3" opacity="1"></polyline></g><g id="N2C"><rect width="39.272" height="22.2" x="1280.364" y="1048.9" rx="4" ry="4" fill-opacity="0.8" fill="#e5e7e8" stroke-opacity="1" stroke-width="1" stroke="#cfd2d2" opacity="0.8"></rect><g opacity="1" fill="#434647"><text font-family="IBM Plex Sans Medium, Arial, sans-serif" font-size="14" text-anchor="middle" x="1300" y="1065.25"><tspan dy="0" x="1300">N2C</tspan></text></g></g><g id="UTXO-RPC"><polyline points="1408,1144 1408,1120 1407.12,1104.9099999999999 1404.63,1092.83 1400.75,1083.3600000000001 1395.68,1076.1 1389.64,1070.65 1382.85,1066.6 1375.53,1063.56 1352.47,1056.44 1345.15,1053.4 1338.36,1049.35 1332.32,1043.9 1327.25,1036.6399999999999 1323.37,1027.17 1320.88,1015.09 1320,1000 1320,976" fill="none" stroke-width="1" stroke="#adb3b3" opacity="1"></polyline></g><g id="UTXO-RPC"><rect width="81.006" height="22.2" x="1323.497" y="1048.9" rx="4" ry="4" fill-opacity="0.8" fill="#e5e7e8" stroke-opacity="1" stroke-width="1" stroke="#cfd2d2" opacity="0.8"></rect><g opacity="1" fill="#434647"><text font-family="IBM Plex Sans Medium, Arial, sans-serif" font-size="14" text-anchor="middle" x="1364" y="1065.25"><tspan dy="0" x="1364">UTXO-RPC</tspan></text></g></g><g id="Deploys"><polyline points="936,1480 936,1456 936.71,1442.68 938.75,1431.06 942.04,1421.02 946.44,1412.4 951.8699999999999,1405.09 958.21,1398.94 965.3599999999999,1393.81 973.2,1389.56 990.54,1383.2 1009.3900000000001,1378.74 1048.17,1371.2 1066.37,1365.93 1074.8,1362.44 1082.64,1358.19 1089.79,1353.06 1096.13,1346.91 1101.56,1339.6 1105.96,1330.98 1109.25,1320.94 1111.29,1309.3200000000002 1112,1296 1112,1272" fill="none" stroke-width="1" stroke="#adb3b3" opacity="1"></polyline></g><g id="Deploys"><rect width="63.576" height="22.2" x="992.197525571822" y="1364.802190231781" rx="4" ry="4" fill-opacity="0.8" fill="#e5e7e8" stroke-opacity="1" stroke-width="1" stroke="#cfd2d2" opacity="0.8"></rect><g opacity="1" fill="#434647"><text font-family="IBM Plex Sans Medium, Arial, sans-serif" font-size="14" text-anchor="middle" x="1023.985525571822" y="1381.1521902317809"><tspan dy="0" x="1023.985525571822">Deploys</tspan></text></g></g><g id="Uses manually"><polyline points="936,1480 936,1456 935.28,1440.83 933.21,1427.92 929.91,1417.03 925.54,1407.96 920.22,1400.46 914.09,1394.31 907.28,1389.3 899.94,1385.18 892.18,1381.75 859.82,1370.25 844.72,1362.7 837.91,1357.69 831.78,1351.54 826.46,1344.04 822.09,1334.97 818.79,1324.08 816.72,1311.17 816,1296 816,1272" fill="none" stroke-width="1" stroke="#adb3b3" opacity="1"></polyline></g><g id="Uses manually"><rect width="105.63199999999999" height="22.2" x="823.193036860949" y="1364.9032114926117" rx="4" ry="4" fill-opacity="0.8" fill="#e5e7e8" stroke-opacity="1" stroke-width="1" stroke="#cfd2d2" opacity="0.8"></rect><g opacity="1" fill="#434647"><text font-family="IBM Plex Sans Medium, Arial, sans-serif" font-size="14" text-anchor="middle" x="876.009036860949" y="1381.2532114926116"><tspan dy="0" x="876.009036860949">Uses manually</tspan></text></g></g><g id="Operates for L2"><polyline points="1408,1480 1408,1272" fill="none" stroke-width="1" stroke="#adb3b3" opacity="1"></polyline></g><g id="Operates for L2"><rect width="111.036" height="22.2" x="1352.482" y="1364.9" rx="4" ry="4" fill-opacity="0.8" fill="#e5e7e8" stroke-opacity="1" stroke-width="1" stroke="#cfd2d2" opacity="0.8"></rect><g opacity="1" fill="#434647"><text font-family="IBM Plex Sans Medium, Arial, sans-serif" font-size="14" text-anchor="middle" x="1408" y="1381.25"><tspan dy="0" x="1408">Operates for L2</tspan></text></g></g><g id="N2C"><polyline points="752,1144 752.36,1098.95 753.37,1078.4299999999998 755.95,1048.49 762.37,1000.3 780.12,897.16 786.95,849.29 789.9,819.65 791.21,799.37 791.91,778.5899999999999 792,744" fill="none" stroke-width="1" stroke="#adb3b3" opacity="1"></polyline></g><g id="N2C"><rect width="39.272" height="22.2" x="752.4216017623212" y="932.908211506152" rx="4" ry="4" fill-opacity="0.8" fill="#e5e7e8" stroke-opacity="1" stroke-width="1" stroke="#cfd2d2" opacity="0.8"></rect><g opacity="1" fill="#434647"><text font-family="IBM Plex Sans Medium, Arial, sans-serif" font-size="14" text-anchor="middle" x="772.0576017623212" y="949.2582115061522"><tspan dy="0" x="772.0576017623212">N2C</tspan></text></g></g><g id="Reads"><polyline points="360,424 224,424" fill="none" stroke-width="1" stroke="#adb3b3" opacity="1"></polyline></g><g id="Reads"><rect width="51.830000000000005" height="22.2" x="266.08500000000004" y="412.9" rx="4" ry="4" fill-opacity="0.8" fill="#e5e7e8" stroke-opacity="1" stroke-width="1" stroke="#cfd2d2" opacity="0.8"></rect><g opacity="1" fill="#434647"><text font-family="IBM Plex Sans Medium, Arial, sans-serif" font-size="14" text-anchor="middle" x="292" y="429.25"><tspan dy="0" x="292">Reads</tspan></text></g></g><g id="Owns and rotates"><polyline points="360,148 323.84,148.21 300.85,149.9 279.62,153.27 260.12,158.31 242.32999999999998,165 226.22000000000003,173.33 211.76999999999998,183.29 198.95,194.86 187.74,208.03 178.10000000000002,222.79000000000002 170.01999999999998,239.13 166.55,247.88 160.75,266.56 156.44,286.78 153.59,308.53 152.18,331.8 152,368" fill="none" stroke-width="1" stroke="#adb3b3" opacity="1"></polyline></g><g id="Owns and rotates"><rect width="124.70000000000002" height="22.2" x="132.8931757232089" y="188.11493985061006" rx="4" ry="4" fill-opacity="0.8" fill="#e5e7e8" stroke-opacity="1" stroke-width="1" stroke="#cfd2d2" opacity="0.8"></rect><g opacity="1" fill="#434647"><text font-family="IBM Plex Sans Medium, Arial, sans-serif" font-size="14" text-anchor="middle" x="195.24317572320888" y="204.46493985061002"><tspan dy="0" x="195.24317572320888">Owns and rotates</tspan></text></g></g><g id="Reads"><polyline points="144,1376 144.66,1245.99 150.98,649.02 152,480" fill="none" stroke-width="1" stroke="#adb3b3" opacity="1"></polyline></g><g id="Reads"><rect width="51.830000000000005" height="22.2" x="122.1114913211361" y="916.900391775538" rx="4" ry="4" fill-opacity="0.8" fill="#e5e7e8" stroke-opacity="1" stroke-width="1" stroke="#cfd2d2" opacity="0.8"></rect><g opacity="1" fill="#434647"><text font-family="IBM Plex Sans Medium, Arial, sans-serif" font-size="14" text-anchor="middle" x="148.0264913211361" y="933.2503917755381"><tspan dy="0" x="148.0264913211361">Reads</tspan></text></g></g><g id="Queries chain state via N2C"><polyline points="272,1376 272.34,1342.46 274.94,1319.31 281.49,1283.42 291.23,1240.78 306.45,1182.17 324.72,1117.12 425.27,781.26 444.74,713.6700000000001 461.59000000000003,651.61 474.97,596.88 484.03,551.28 487.65999999999997,521.54 488,488" fill="none" stroke-width="1" stroke="#adb3b3" opacity="1"></polyline></g><g id="Queries chain state via N2C"><rect width="135.56400000000002" height="38.2" x="312.34699738393977" y="912.9412743772255" rx="4" ry="4" fill-opacity="0.8" fill="#e5e7e8" stroke-opacity="1" stroke-width="1" stroke="#cfd2d2" opacity="0.8"></rect><g opacity="1" fill="#434647"><text font-family="IBM Plex Sans Medium, Arial, sans-serif" font-size="14" text-anchor="middle" x="380.1289973839398" y="929.2912743772254"><tspan dy="0" x="380.1289973839398">Queries chain state</tspan></text><text font-family="IBM Plex Sans Medium, Arial, sans-serif" font-size="14" text-anchor="middle" x="380.1289973839398" y="945.2912743772254"><tspan dy="0" x="380.1289973839398">via N2C</tspan></text></g></g><g id="Uses"><polyline points="808,1596 768.65,1596.25 733.33,1598.02 551.43,1612.95 501.45000000000005,1616.1 464.20000000000005,1617.69 415.77,1618.34 380.98,1617.47 348.04,1615.18 317.42,1611.28 289.61,1605.53 265.08,1597.74 250.79000000000002,1591.3 244.31,1587.68 232.77999999999997,1579.62 227.76999999999998,1575.15 219.32999999999998,1565.31 215.94,1559.93 210.91000000000003,1548.18 208.32999999999998,1535.08 208,1504" fill="none" stroke-width="1" stroke="#adb3b3" opacity="1"></polyline></g><g id="Uses"><rect width="43.19200000000001" height="22.2" x="454.0515970983197" y="1606.1013643117765" rx="4" ry="4" fill-opacity="0.8" fill="#e5e7e8" stroke-opacity="1" stroke-width="1" stroke="#cfd2d2" opacity="0.8"></rect><g opacity="1" fill="#434647"><text font-family="IBM Plex Sans Medium, Arial, sans-serif" font-size="14" text-anchor="middle" x="475.6475970983197" y="1622.4513643117764"><tspan dy="0" x="475.6475970983197">Uses</tspan></text></g></g><g id="Connects to"><polyline points="728,680 592,680" fill="none" stroke-width="1" stroke="#adb3b3" opacity="1"></polyline></g><g id="Connects to"><rect width="88.188" height="22.2" x="615.906" y="668.9" rx="4" ry="4" fill-opacity="0.8" fill="#e5e7e8" stroke-opacity="1" stroke-width="1" stroke="#cfd2d2" opacity="0.8"></rect><g opacity="1" fill="#434647"><text font-family="IBM Plex Sans Medium, Arial, sans-serif" font-size="14" text-anchor="middle" x="660" y="685.2500000000001"><tspan dy="0" x="660">Connects to</tspan></text></g></g><g id="Connects To"><polyline points="1128,912 928.14,912.79 868.36,911.68 807.01,909.12 745.81,904.67 698.1,899.43 652.46,892.45 609.75,883.48 589.78,878.19 570.87,872.31 553.13,865.82 536.67,858.69 521.6,850.88 508.03999999999996,842.38 496.08000000000004,833.14 490.74,828.24 481.40999999999997,817.86 477.44000000000005,812.37 470.97,800.77 468.5,794.65 465.14,781.77 464.28999999999996,775 464,744" fill="none" stroke-width="1" stroke="#adb3b3" opacity="1"></polyline></g><g id="Connects To"><rect width="91.156" height="22.2" x="710.3203740081896" y="894.3035500708569" rx="4" ry="4" fill-opacity="0.8" fill="#e5e7e8" stroke-opacity="1" stroke-width="1" stroke="#cfd2d2" opacity="0.8"></rect><g opacity="1" fill="#434647"><text font-family="IBM Plex Sans Medium, Arial, sans-serif" font-size="14" text-anchor="middle" x="755.8983740081895" y="910.653550070857"><tspan dy="0" x="755.8983740081895">Connects To</tspan></text></g></g><a href="https://app.icepanel.io/landscapes/uXaSNEkX1PFAJr6ppM94/versions/latest/model/objects?object=U7calFxRdS&amp;focus=U7calFxRdS" id="SPO" target="_blank"><rect width="56" height="56" rx="8" ry="8" fill-opacity="0.8" fill="#f5f6f6" stroke-opacity="1" stroke-width="1" stroke="#adb3b3" opacity="1" x="460" y="32"></rect><rect width="256" height="96" rx="8" ry="8" fill-opacity="0.8" fill="#f5f6f6" stroke-opacity="1" stroke-width="1" stroke="#adb3b3" opacity="1" x="360" y="96"></rect><path d="M488 61.714285714285715C491.7875 61.714285714285715 494.8571428571429 58.644642857142856 494.8571428571429 54.85714285714286C494.8571428571429 51.06964285714285 491.7875 48 488 48C484.2125 48 481.1428571428571 51.06964285714285 481.1428571428571 54.85714285714286C481.1428571428571 58.644642857142856 484.2125 61.714285714285715 488 61.714285714285715ZM492.8 63.42857142857143L491.90535714285716 63.42857142857143C490.71607142857147 63.974999999999994 489.3928571428571 64.28571428571428 488 64.28571428571428C486.6071428571429 64.28571428571428 485.2892857142857 63.974999999999994 484.09464285714284 63.42857142857143L483.2 63.42857142857143C479.225 63.42857142857143 476 66.65357142857142 476 70.62857142857143L476 72.85714285714286C476 74.27678571428571 477.1517857142857 75.42857142857143 478.57142857142856 75.42857142857143L497.42857142857144 75.42857142857143C498.8482142857143 75.42857142857143 500 74.27678571428571 500 72.85714285714286L500 70.62857142857143C500 66.65357142857142 496.775 63.42857142857143 492.8 63.42857142857143Z " fill="#0c0d0d" opacity="1"></path><text font-family="IBM Plex Sans Medium, Arial, sans-serif" font-size="24" font-weight="500" text-anchor="middle" fill="#0c0d0d" opacity="1" x="488" y="134.33333333333334"><tspan dy="0" x="488">SPO</tspan></text><g opacity="1"><text font-family="IBM Plex Sans, Arial, sans-serif" font-size="14" text-anchor="middle" fill="#595f61" x="488" y="161.58333333333337"><tspan dy="0" x="488">Stake pool operator</tspan></text></g><g id="Actor" opacity="1"><text font-family="Courier New, monospace" font-size="12" text-anchor="middle" fill="#595f61" x="488" y="180.6552734375"><tspan dy="0" x="488">Actor</tspan></text></g></a><a href="https://app.icepanel.io/landscapes/uXaSNEkX1PFAJr6ppM94/versions/latest/model/objects?object=mxR165kS34&amp;focus=mxR165kS34" id="Block Producer" target="_blank"><rect width="256" height="128" rx="8" ry="8" fill-opacity="0.8" fill="#f5f6f6" stroke-opacity="1" stroke-width="1" stroke="#adb3b3" opacity="1" x="360" y="360"></rect><text font-family="IBM Plex Sans Medium, Arial, sans-serif" font-size="24" font-weight="500" text-anchor="middle" fill="#0c0d0d" opacity="1" x="488" y="411"><tspan dy="0" x="488">Block Producer</tspan></text><g opacity="1"><text font-family="IBM Plex Sans, Arial, sans-serif" font-size="12" text-anchor="middle" fill="#595f61" x="487.99999999999994" y="437.50000000000006"><tspan dy="0" x="487.99999999999994">Connects to the cardano network, accepts</tspan></text><text font-family="IBM Plex Sans, Arial, sans-serif" font-size="12" text-anchor="middle" fill="#595f61" x="488.00000000000006" y="451.50000000000006"><tspan dy="0" x="488.00000000000006">transactions and produces blocks.</tspan></text></g><g id="App" opacity="1"><text font-family="Courier New, monospace" font-size="12" text-anchor="middle" fill="#595f61" x="488" y="476.6552734375"><tspan dy="0" x="488">App</tspan></text></g></a><a href="https://app.icepanel.io/landscapes/uXaSNEkX1PFAJr6ppM94/versions/latest/model/objects?object=dKcVWrOveh&amp;focus=dKcVWrOveh" id="Relay" target="_blank"><rect width="256" height="128" rx="8" ry="8" fill-opacity="0.8" fill="#f5f6f6" stroke-opacity="1" stroke-width="1" stroke="#adb3b3" opacity="1" x="728" y="616"></rect><text font-family="IBM Plex Sans Medium, Arial, sans-serif" font-size="24" font-weight="500" text-anchor="middle" fill="#0c0d0d" opacity="1" x="856.0000000000001" y="667.0000000000001"><tspan dy="0" x="856.0000000000001">Relay</tspan></text><g opacity="1"><text font-family="IBM Plex Sans, Arial, sans-serif" font-size="13" text-anchor="middle" fill="#595f61" x="856" y="693.375"><tspan dy="0" x="856">Outbound  inbound components and no</tspan></text><text font-family="IBM Plex Sans, Arial, sans-serif" font-size="13" text-anchor="middle" fill="#595f61" x="856" y="708.375"><tspan dy="0" x="856">block forging.</tspan></text></g><g id="App" opacity="1"><text font-family="Courier New, monospace" font-size="12" text-anchor="middle" fill="#595f61" x="856" y="732.6552734375"><tspan dy="0" x="856">App</tspan></text></g></a><a href="https://app.icepanel.io/landscapes/uXaSNEkX1PFAJr6ppM94/versions/latest/model/objects?object=0UWUcf7xkO&amp;focus=0UWUcf7xkO" id="Downstream Node" target="_blank"><rect width="256" height="128" rx="8" ry="8" fill-opacity="0.8" fill="#f5f6f6" stroke-opacity="1" stroke-width="1" stroke="#adb3b3" opacity="1" x="1128" y="616"></rect><text font-family="IBM Plex Sans Medium, Arial, sans-serif" font-size="24" font-weight="500" text-anchor="middle" fill="#0c0d0d" opacity="1" x="1256" y="667.0000000000001"><tspan dy="0" x="1256">Downstream Node</tspan></text><g opacity="1"><text font-family="IBM Plex Sans, Arial, sans-serif" font-size="13" text-anchor="middle" fill="#595f61" x="1256" y="693.375"><tspan dy="0" x="1256">Isolated role of a Cardano node being a</tspan></text><text font-family="IBM Plex Sans, Arial, sans-serif" font-size="13" text-anchor="middle" fill="#595f61" x="1256.0000000000002" y="708.375"><tspan dy="0" x="1256.0000000000002">downstream peer.</tspan></text></g><g id="App" opacity="1"><text font-family="Courier New, monospace" font-size="12" text-anchor="middle" fill="#595f61" x="1256" y="732.6552734375"><tspan dy="0" x="1256">App</tspan></text></g></a><a href="https://app.icepanel.io/landscapes/uXaSNEkX1PFAJr6ppM94/versions/latest/model/objects?object=Pn4rCQow7j&amp;focus=Pn4rCQow7j" id="Data Node" target="_blank"><rect width="256" height="128" rx="8" ry="8" fill-opacity="0.8" fill="#f5f6f6" stroke-opacity="1" stroke-width="1" stroke="#adb3b3" opacity="1" x="1128" y="848"></rect><text font-family="IBM Plex Sans Medium, Arial, sans-serif" font-size="24" font-weight="500" text-anchor="middle" fill="#0c0d0d" opacity="1" x="1255.9999999999998" y="899.0000000000001"><tspan dy="0" x="1255.9999999999998">Data Node</tspan></text><g opacity="1"><text font-family="IBM Plex Sans, Arial, sans-serif" font-size="13" text-anchor="middle" fill="#595f61" x="1255.9999999999998" y="925.375"><tspan dy="0" x="1255.9999999999998">Client node that only acts as a</tspan></text><text font-family="IBM Plex Sans, Arial, sans-serif" font-size="13" text-anchor="middle" fill="#595f61" x="1256.0000000000002" y="940.375"><tspan dy="0" x="1256.0000000000002">downstream peer.</tspan></text></g><g id="App" opacity="1"><text font-family="Courier New, monospace" font-size="12" text-anchor="middle" fill="#595f61" x="1256" y="964.6552734375"><tspan dy="0" x="1256">App</tspan></text></g></a><a href="https://app.icepanel.io/landscapes/uXaSNEkX1PFAJr6ppM94/versions/latest/model/objects?object=P7okF1D4vi&amp;focus=P7okF1D4vi" id="Blockfrost" target="_blank"><rect width="256" height="128" rx="8" ry="8" fill-opacity="0.8" fill="#f5f6f6" stroke-opacity="1" stroke-width="1" stroke="#adb3b3" opacity="1" x="1744" y="848"></rect><text font-family="IBM Plex Sans Medium, Arial, sans-serif" font-size="24" font-weight="500" text-anchor="middle" fill="#0c0d0d" opacity="1" x="1872" y="917.0000000000001"><tspan dy="0" x="1872">Blockfrost</tspan></text><g id="System" opacity="1"><text font-family="Courier New, monospace" font-size="12" text-anchor="middle" fill="#595f61" x="1872" y="964.6552734375"><tspan dy="0" x="1872">System</tspan></text></g></a><a href="https://app.icepanel.io/landscapes/uXaSNEkX1PFAJr6ppM94/versions/latest/model/objects?object=OwkalTYEkk&amp;focus=OwkalTYEkk" id="Lace Wallet" target="_blank"><rect width="256" height="128" rx="8" ry="8" fill-opacity="0.8" fill="#f5f6f6" stroke-opacity="1" stroke-width="1" stroke="#adb3b3" opacity="1" x="1752" y="616"></rect><text font-family="IBM Plex Sans Medium, Arial, sans-serif" font-size="24" font-weight="500" text-anchor="middle" fill="#0c0d0d" opacity="1" x="1880" y="685.0000000000001"><tspan dy="0" x="1880">Lace Wallet</tspan></text><g id="System" opacity="1"><text font-family="Courier New, monospace" font-size="12" text-anchor="middle" fill="#595f61" x="1880" y="732.6552734375"><tspan dy="0" x="1880">System</tspan></text></g></a><a href="https://app.icepanel.io/landscapes/uXaSNEkX1PFAJr6ppM94/versions/latest/model/objects?object=TwN4kgnalt&amp;focus=TwN4kgnalt" id="dbSync" target="_blank"><rect width="256" height="128" rx="8" ry="8" fill-opacity="0.8" fill="#f5f6f6" stroke-opacity="1" stroke-width="1" stroke="#adb3b3" opacity="1" x="984" y="1144"></rect><text font-family="IBM Plex Sans Medium, Arial, sans-serif" font-size="24" font-weight="500" text-anchor="middle" fill="#0c0d0d" opacity="1" x="1112" y="1213"><tspan dy="0" x="1112">dbSync</tspan></text><g id="App" opacity="1"><text font-family="Courier New, monospace" font-size="12" text-anchor="middle" fill="#595f61" x="1112" y="1260.6552734375"><tspan dy="0" x="1112">App</tspan></text></g></a><a href="https://app.icepanel.io/landscapes/uXaSNEkX1PFAJr6ppM94/versions/latest/model/objects?object=fYLhsj7mOk&amp;focus=fYLhsj7mOk" id="cardano-cli" target="_blank"><rect width="256" height="128" rx="8" ry="8" fill-opacity="0.8" fill="#f5f6f6" stroke-opacity="1" stroke-width="1" stroke="#adb3b3" opacity="1" x="688" y="1144"></rect><text font-family="IBM Plex Sans Medium, Arial, sans-serif" font-size="24" font-weight="500" text-anchor="middle" fill="#0c0d0d" opacity="1" x="815.9999999999999" y="1213"><tspan dy="0" x="815.9999999999999">cardano-cli</tspan></text><g id="App" opacity="1"><text font-family="Courier New, monospace" font-size="12" text-anchor="middle" fill="#595f61" x="816" y="1260.6552734375"><tspan dy="0" x="816">App</tspan></text></g></a><a href="https://app.icepanel.io/landscapes/uXaSNEkX1PFAJr6ppM94/versions/latest/model/objects?object=qAscVeXiG4&amp;focus=qAscVeXiG4" id="hydra-node" target="_blank"><rect width="256" height="128" rx="8" ry="8" fill-opacity="0.8" fill="#f5f6f6" stroke-opacity="1" stroke-width="1" stroke="#adb3b3" opacity="1" x="1280" y="1144"></rect><text font-family="IBM Plex Sans Medium, Arial, sans-serif" font-size="24" font-weight="500" text-anchor="middle" fill="#0c0d0d" opacity="1" x="1408" y="1213"><tspan dy="0" x="1408">hydra-node</tspan></text><g id="App" opacity="1"><text font-family="Courier New, monospace" font-size="12" text-anchor="middle" fill="#595f61" x="1408" y="1260.6552734375"><tspan dy="0" x="1408">App</tspan></text></g></a><a href="https://app.icepanel.io/landscapes/uXaSNEkX1PFAJr6ppM94/versions/latest/model/objects?object=Dciyq5gY6Z&amp;focus=Dciyq5gY6Z" id="dDapp Developer" target="_blank"><rect width="56" height="56" rx="8" ry="8" fill-opacity="0.8" fill="#f5f6f6" stroke-opacity="1" stroke-width="1" stroke="#adb3b3" opacity="1" x="908" y="1480"></rect><rect width="256" height="96" rx="8" ry="8" fill-opacity="0.8" fill="#f5f6f6" stroke-opacity="1" stroke-width="1" stroke="#adb3b3" opacity="1" x="808" y="1544"></rect><path d="M936 1509.7142857142858C939.7875 1509.7142857142858 942.8571428571429 1506.6446428571428 942.8571428571429 1502.857142857143C942.8571428571429 1499.0696428571428 939.7875 1496 936 1496C932.2125 1496 929.1428571428571 1499.0696428571428 929.1428571428571 1502.857142857143C929.1428571428571 1506.6446428571428 932.2125 1509.7142857142858 936 1509.7142857142858ZM940.8 1511.4285714285713L939.9053571428572 1511.4285714285713C938.7160714285715 1511.975 937.3928571428571 1512.2857142857142 936 1512.2857142857142C934.6071428571429 1512.2857142857142 933.2892857142857 1511.975 932.0946428571428 1511.4285714285713L931.2 1511.4285714285713C927.225 1511.4285714285713 924 1514.6535714285715 924 1518.6285714285714L924 1520.857142857143C924 1522.2767857142858 925.1517857142857 1523.4285714285713 926.5714285714286 1523.4285714285713L945.4285714285714 1523.4285714285713C946.8482142857142 1523.4285714285713 948 1522.2767857142858 948 1520.857142857143L948 1518.6285714285714C948 1514.6535714285715 944.775 1511.4285714285713 940.8 1511.4285714285713Z " fill="#0c0d0d" opacity="1"></path><text font-family="IBM Plex Sans Medium, Arial, sans-serif" font-size="24" font-weight="500" text-anchor="middle" fill="#0c0d0d" opacity="1" x="936" y="1592"><tspan dy="0" x="936">dDapp Developer</tspan></text><g id="Actor" opacity="1"><text font-family="Courier New, monospace" font-size="12" text-anchor="middle" fill="#595f61" x="936" y="1628.6552734375"><tspan dy="0" x="936">Actor</tspan></text></g></a><a href="https://app.icepanel.io/landscapes/uXaSNEkX1PFAJr6ppM94/versions/latest/model/objects?object=GqWVKygj8o&amp;focus=GqWVKygj8o" id="Hydra operator" target="_blank"><rect width="56" height="56" rx="8" ry="8" fill-opacity="0.8" fill="#f5f6f6" stroke-opacity="1" stroke-width="1" stroke="#adb3b3" opacity="1" x="1380" y="1480"></rect><rect width="256" height="96" rx="8" ry="8" fill-opacity="0.8" fill="#f5f6f6" stroke-opacity="1" stroke-width="1" stroke="#adb3b3" opacity="1" x="1280" y="1544"></rect><path d="M1408 1509.7142857142858C1411.7875 1509.7142857142858 1414.857142857143 1506.6446428571428 1414.857142857143 1502.857142857143C1414.857142857143 1499.0696428571428 1411.7875 1496 1408 1496C1404.2125 1496 1401.142857142857 1499.0696428571428 1401.142857142857 1502.857142857143C1401.142857142857 1506.6446428571428 1404.2125 1509.7142857142858 1408 1509.7142857142858ZM1412.8 1511.4285714285713L1411.9053571428572 1511.4285714285713C1410.7160714285715 1511.975 1409.392857142857 1512.2857142857142 1408 1512.2857142857142C1406.607142857143 1512.2857142857142 1405.2892857142856 1511.975 1404.0946428571428 1511.4285714285713L1403.2 1511.4285714285713C1399.225 1511.4285714285713 1396 1514.6535714285715 1396 1518.6285714285714L1396 1520.857142857143C1396 1522.2767857142858 1397.1517857142858 1523.4285714285713 1398.5714285714287 1523.4285714285713L1417.4285714285713 1523.4285714285713C1418.8482142857142 1523.4285714285713 1420 1522.2767857142858 1420 1520.857142857143L1420 1518.6285714285714C1420 1514.6535714285715 1416.775 1511.4285714285713 1412.8 1511.4285714285713Z " fill="#0c0d0d" opacity="1"></path><text font-family="IBM Plex Sans Medium, Arial, sans-serif" font-size="24" font-weight="500" text-anchor="middle" fill="#0c0d0d" opacity="1" x="1408" y="1592"><tspan dy="0" x="1408">Hydra operator</tspan></text><g id="Actor" opacity="1"><text font-family="Courier New, monospace" font-size="12" text-anchor="middle" fill="#595f61" x="1408" y="1628.6552734375"><tspan dy="0" x="1408">Actor</tspan></text></g></a><a href="https://app.icepanel.io/landscapes/uXaSNEkX1PFAJr6ppM94/versions/latest/model/objects?object=hcO6ijIJza&amp;focus=hcO6ijIJza" id="Link" target="_blank"><path d="M80 377C80 365 224 365 224 377L224 465Q152 490 80 465L80 377Z " fill-opacity="0.8" fill="#f5f6f6" opacity="1"></path><path d="M80 377C80 365 224 365 224 377C224 389 80 389 80 377Z " fill="#cfd2d2" opacity="1"></path><path d="M80 377C80 365 224 365 224 377L224 465Q152 490 80 465L80 377Z " fill-opacity="0" stroke-width="1" stroke="#adb3b3" opacity="1"></path><text font-family="IBM Plex Sans Medium, Arial, sans-serif" font-size="24" font-weight="500" text-anchor="middle" fill="#0c0d0d" opacity="1" x="152" y="433"><tspan dy="0" x="152">KES keys</tspan></text><g id="Store" opacity="1"><text font-family="Courier New, monospace" font-size="12" text-anchor="middle" fill="#595f61" x="152" y="466.6552734375"><tspan dy="0" x="152">Store</tspan></text></g></a><a href="https://app.icepanel.io/landscapes/uXaSNEkX1PFAJr6ppM94/versions/latest/model/objects?object=efGfPQ7NZj&amp;focus=efGfPQ7NZj" id="Mithril" target="_blank"><rect width="256" height="128" rx="8" ry="8" fill-opacity="0.8" fill="#f5f6f6" stroke-opacity="1" stroke-width="1" stroke="#adb3b3" opacity="1" x="80" y="1376"></rect><text font-family="IBM Plex Sans Medium, Arial, sans-serif" font-size="24" font-weight="500" text-anchor="middle" fill="#0c0d0d" opacity="1" x="208" y="1445"><tspan dy="0" x="208">Mithril</tspan></text><g id="System" opacity="1"><text font-family="Courier New, monospace" font-size="12" text-anchor="middle" fill="#595f61" x="208" y="1492.6552734375"><tspan dy="0" x="208">System</tspan></text></g></a><a href="https://app.icepanel.io/landscapes/uXaSNEkX1PFAJr6ppM94/versions/latest/model/objects?object=rlW7JyrszM&amp;focus=rlW7JyrszM" id="Upstream Node" target="_blank"><rect width="256" height="128" rx="8" ry="8" fill-opacity="0.8" fill="#f5f6f6" stroke-opacity="1" stroke-width="1" stroke="#adb3b3" opacity="1" x="336" y="616"></rect><text font-family="IBM Plex Sans Medium, Arial, sans-serif" font-size="24" font-weight="500" text-anchor="middle" fill="#0c0d0d" opacity="1" x="464" y="667.0000000000001"><tspan dy="0" x="464">Upstream Node</tspan></text><g opacity="1"><text font-family="IBM Plex Sans, Arial, sans-serif" font-size="13" text-anchor="middle" fill="#595f61" x="464.00000000000006" y="693.375"><tspan dy="0" x="464.00000000000006">Isolated role of a Cardano node being an</tspan></text><text font-family="IBM Plex Sans, Arial, sans-serif" font-size="13" text-anchor="middle" fill="#595f61" x="464" y="708.375"><tspan dy="0" x="464">upstream peer.</tspan></text></g><g id="App" opacity="1"><text font-family="Courier New, monospace" font-size="12" text-anchor="middle" fill="#595f61" x="464" y="732.6552734375"><tspan dy="0" x="464">App</tspan></text></g></a><g id="Operates"><polygon points="424,280 416,296 432,296 424,280" fill="#adb3b3" opacity="1" transform="matrix(-1,1.2246467991473532e-16,-1.2246467991473532e-16,-1,912,640)"></polygon><circle r="4" fill="#adb3b3" opacity="1" cx="488" cy="192"></circle></g><g id="Connects To"><polygon points="560.4061336358384,416.50272038459514 552.4061336358384,432.50272038459514 568.4061336358384,432.50272038459514 560.4061336358384,416.50272038459514" fill="#adb3b3" opacity="1" transform="matrix(0.01263183748846032,-0.9999202151580221,0.9999202151580221,0.01263183748846032,192.45155101150982,979.1002270436229)"></polygon><circle r="4" fill="#adb3b3" opacity="1" cx="792" cy="616"></circle></g><g id="Operates"><polygon points="856.1086068964498,535.8560321733729 848.1086068964498,551.8560321733729 864.1086068964498,551.8560321733729 856.1086068964498,535.8560321733729" fill="#adb3b3" opacity="1" transform="matrix(-0.9999898221535573,0.004511716890154191,-0.004511716890154191,-0.9999898221535573,1778.5175242655582,1147.988058651421)"></polygon><circle r="4" fill="#adb3b3" opacity="1" cx="616" cy="148"></circle></g><g id="Connects To"><polygon points="928,672 920,688 936,688 928,672" fill="#adb3b3" opacity="1" transform="matrix(-1.8369701987210297e-16,-1,1,-1.8369701987210297e-16,312.0000000000002,1608)"></polygon><circle r="4" fill="#adb3b3" opacity="1" cx="1128" cy="680"></circle></g><g id="Connects To"><polygon points="1256,744 1248,760 1264,760 1256,744" fill="#adb3b3" opacity="1" transform="matrix(1,0,0,1,0,0)"></polygon><circle r="4" fill="#adb3b3" opacity="1" cx="1256" cy="848"></circle></g><g id="Connects To"><polygon points="856,744 848,760 864,760 856,744" fill="#adb3b3" opacity="1" transform="matrix(1,0,0,1,0,0)"></polygon><circle r="4" fill="#adb3b3" opacity="1" cx="1128" cy="880"></circle></g><g id="Uses"><polygon points="1328,904 1320,920 1336,920 1328,904" fill="#adb3b3" opacity="1" transform="matrix(-1.8369701987210297e-16,-1,1,-1.8369701987210297e-16,480.0000000000002,2240)"></polygon><circle r="4" fill="#adb3b3" opacity="1" cx="1744" cy="912"></circle></g><g id="Uses"><polygon points="1327.6315230520795,871.5352574054419 1319.6315230520795,887.5352574054419 1335.6315230520795,887.5352574054419 1327.6315230520795,871.5352574054419" fill="#adb3b3" opacity="1" transform="matrix(-0.011565062803845874,-0.9999331224248665,0.9999331224248665,-0.011565062803845874,527.8771707036794,2217.622094262808)"></polygon><circle r="4" fill="#adb3b3" opacity="1" cx="1752" cy="680"></circle></g><g id="N2C"><polygon points="1192,976 1184,992 1200,992 1192,976" fill="#adb3b3" opacity="1" transform="matrix(1,0,0,1,0,0)"></polygon><circle r="4" fill="#adb3b3" opacity="1" cx="1112" cy="1144"></circle></g><g id="N2C"><polygon points="1120.2869806475503,872.361236029349 1112.2869806475503,888.361236029349 1128.2869806475503,888.361236029349 1120.2869806475503,872.361236029349" fill="#adb3b3" opacity="1" transform="matrix(0.0089985107993882,0.9999595125820812,-0.9999595125820812,0.0089985107993882,1990.2450018816385,-184.0915751237535)"></polygon><circle r="4" fill="#adb3b3" opacity="1" cx="816" cy="1144"></circle></g><g id="N2C"><polygon points="1256,976 1248,992 1264,992 1256,976" fill="#adb3b3" opacity="1" transform="matrix(1,0,0,1,0,0)"></polygon><circle r="4" fill="#adb3b3" opacity="1" cx="1344" cy="1144"></circle></g><g id="UTXO-RPC"><polygon points="1320,976 1312,992 1328,992 1320,976" fill="#adb3b3" opacity="1" transform="matrix(1,0,0,1,0,0)"></polygon><circle r="4" fill="#adb3b3" opacity="1" cx="1408" cy="1144"></circle></g><g id="Deploys"><polygon points="1112,1272 1104,1288 1120,1288 1112,1272" fill="#adb3b3" opacity="1" transform="matrix(1,0,0,1,0,0)"></polygon><circle r="4" fill="#adb3b3" opacity="1" cx="936" cy="1480"></circle></g><g id="Uses manually"><polygon points="816,1272 808,1288 824,1288 816,1272" fill="#adb3b3" opacity="1" transform="matrix(1,0,0,1,0,0)"></polygon><circle r="4" fill="#adb3b3" opacity="1" cx="936" cy="1480"></circle></g><g id="Operates for L2"><polygon points="1408,1272 1400,1288 1416,1288 1408,1272" fill="#adb3b3" opacity="1" transform="matrix(1,0,0,1,0,0)"></polygon><circle r="4" fill="#adb3b3" opacity="1" cx="1408" cy="1480"></circle></g><g id="N2C"><polygon points="792.062337263947,743.9166038259007 784.062337263947,759.9166038259007 800.062337263947,759.9166038259007 792.062337263947,743.9166038259007" fill="#adb3b3" opacity="1" transform="matrix(0.9999966150543951,0.0026018992585991607,-0.0026018992585991607,0.9999966150543951,1.8759398839345067,-1.9749521167534567)"></polygon><circle r="4" fill="#adb3b3" opacity="1" cx="752" cy="1144"></circle></g><g id="Reads"><polygon points="168,416 160,432 176,432 168,416" fill="#adb3b3" opacity="1" transform="matrix(-1.8369701987210297e-16,-1,1,-1.8369701987210297e-16,-191.99999999999994,592.0000000000001)"></polygon><circle r="4" fill="#adb3b3" opacity="1" cx="360" cy="424"></circle></g><g id="Owns and rotates"><polygon points="87.88106004365793,288.15960853633305 79.88106004365793,304.15960853633305 95.88106004365791,304.15960853633305 87.88106004365793,288.15960853633305" fill="#adb3b3" opacity="1" transform="matrix(-0.9999876379692292,-0.004972314221946481,0.004972314221946481,-0.9999876379692292,238.44715353557376,656.5930185430803)"></polygon><circle r="4" fill="#adb3b3" opacity="1" cx="360" cy="148"></circle></g><g id="Reads"><polygon points="152.14424961060627,479.8061619217128 144.14424961060627,495.8061619217128 160.14424961060627,495.8061619217128 152.14424961060627,479.8061619217128" fill="#adb3b3" opacity="1" transform="matrix(0.9999817911595308,0.006034678895886571,-0.006034678895886571,0.9999817911595308,2.7539968792284952,-0.7155669001099341)"></polygon><circle r="4" fill="#adb3b3" opacity="1" cx="144" cy="1376"></circle></g><g id="Queries chain state via N2C"><polygon points="488.24163503040427,487.6735727989157 480.24163503040427,503.6735727989157 496.24163503040427,503.6735727989157 488.24163503040427,487.6735727989157" fill="#adb3b3" opacity="1" transform="matrix(0.9999486230579199,0.010136628856283265,-0.010136628856283265,0.9999486230579199,4.7268153422800765,-4.597641868500148)"></polygon><circle r="4" fill="#adb3b3" opacity="1" cx="272" cy="1376"></circle></g><g id="Uses"><polygon points="207.743384471165,1504.3374946429983 199.743384471165,1520.3374946429983 215.743384471165,1520.3374946429983 207.743384471165,1504.3374946429983" fill="#adb3b3" opacity="1" transform="matrix(0.9999436363453824,-0.010617162161967965,0.010617162161967965,0.9999436363453824,-15.703470421746914,1.9529405169844267)"></polygon><circle r="4" fill="#adb3b3" opacity="1" cx="808" cy="1596"></circle></g><g id="Connects to"><polygon points="536,672 528,688 544,688 536,672" fill="#adb3b3" opacity="1" transform="matrix(-1.8369701987210297e-16,-1,1,-1.8369701987210297e-16,-79.99999999999989,1216)"></polygon><circle r="4" fill="#adb3b3" opacity="1" cx="728" cy="680"></circle></g><g id="Connects To"><polygon points="463.7740935781429,744.297591595572 455.7740935781429,760.297591595572 471.7740935781429,760.297591595572 463.7740935781429,744.297591595572" fill="#adb3b3" opacity="1" transform="matrix(0.999956246368096,-0.009354429401506216,0.009354429401506216,0.999956246368096,-6.71628105145777,4.073316143901934)"></polygon><circle r="4" fill="#adb3b3" opacity="1" cx="1128" cy="912"></circle></g></g></svg>