<?xml version="1.0" encoding="iso-8859-1"?>

<!DOCTYPE svg PUBLIC "-//W3C//DTD SVG 1.1//EN" "http://www.w3.org/Graphics/SVG/1.1/DTD/svg11.dtd">
<!-- Uploaded to: SVG Repo, www.svgrepo.com, Generator: SVG Repo Mixer Tools -->
<svg version="1.1" id="_x36_" xmlns="http://www.w3.org/2000/svg" xmlns:xlink="http://www.w3.org/1999/xlink" 
	 viewBox="0 0 512 512"  xml:space="preserve">
<g>
	<g>
		<g>
			<g>
				<polygon style="fill:#4F4B4B;" points="117.929,512 64.4,512 64.4,468.34 170.378,468.34 				"/>
				<polygon style="fill:#4F4B4B;" points="426.946,512 373.417,512 320.967,468.34 426.946,468.34 				"/>
			</g>
			<rect style="fill:#2D6E74;" width="481.805" height="481.805"/>
			<rect x="47.704" y="47.681" style="fill:#D7EDF3;" width="386.398" height="386.398"/>
			<path style="fill:#395051;" d="M481.805,114.466v69.17h-84.674c-19.034,0-34.585-15.551-34.585-34.585
				c0-9.517,3.888-18.175,10.161-24.424c6.249-6.273,14.907-10.161,24.424-10.161H481.805z"/>
			<path style="fill:#395051;" d="M481.805,274.272v69.17h-84.674c-19.034,0-34.585-15.551-34.585-34.585
				c0-9.517,3.888-18.175,10.161-24.424c6.249-6.273,14.907-10.161,24.424-10.161H481.805z"/>
			<g>
				<g>
					<circle style="fill:#2D6E74;" cx="249.964" cy="260.757" r="99.382"/>
					<g>
						<path style="fill:#FFFFFF;" d="M257.884,185.613c-0.316-0.079-0.711-0.079-1.027-0.079c-4.186,0-7.74,3.081-8.214,7.346
							c-0.553,4.581,2.764,8.767,7.346,9.32h0.948c4.186,0,7.819-3.08,8.293-7.345c0.079-0.316,0.079-0.632,0.079-1.027
							C265.309,189.721,262.149,186.087,257.884,185.613z M232.767,194.855c-1.264-3.318-4.423-5.371-7.819-5.371
							c-1.027,0-2.054,0.158-3.002,0.553c-4.265,1.659-6.398,6.477-4.818,10.821c1.343,3.318,4.502,5.371,7.82,5.371
							c1.027,0,1.975-0.237,3.001-0.553c3.317-1.264,5.371-4.423,5.371-7.819C233.32,196.908,233.162,195.882,232.767,194.855z
							 M294.849,202.042c-0.553-1.501-1.58-2.764-3.001-3.712c-1.501-1.027-3.16-1.501-4.739-1.501
							c-2.686,0-5.292,1.264-6.872,3.633c-2.607,3.792-1.659,9.004,2.132,11.611c0.474,0.395,1.027,0.632,1.58,0.869
							c1.027,0.395,2.054,0.632,3.081,0.632c2.685,0,5.371-1.264,6.951-3.633c1.027-1.422,1.501-3.081,1.501-4.739
							C295.481,204.096,295.244,203.069,294.849,202.042z M204.017,210.02c-1.58-1.422-3.554-2.133-5.529-2.133
							c-2.369,0-4.66,0.948-6.24,2.843c-3.08,3.397-2.765,8.689,0.711,11.769c1.58,1.422,3.554,2.053,5.529,2.053
							c2.369,0,4.66-0.948,6.24-2.764c1.422-1.58,2.132-3.554,2.132-5.529C206.86,213.89,205.912,211.6,204.017,210.02z
							 M315.938,225.343c-1.501-2.843-4.423-4.423-7.425-4.423c-1.263,0-2.606,0.316-3.87,0.948
							c-4.107,2.133-5.687,7.187-3.475,11.295c1.501,2.843,4.423,4.423,7.425,4.423c1.264,0,2.607-0.316,3.87-0.948
							c2.844-1.58,4.423-4.423,4.423-7.424C316.885,227.949,316.57,226.606,315.938,225.343z M185.534,236.637
							c-0.632-0.158-1.264-0.237-1.896-0.237c-3.791,0-7.266,2.528-8.135,6.398c-1.106,4.502,1.658,9.004,6.081,10.11
							c0.711,0.158,1.343,0.237,1.975,0.237c3.792,0,7.188-2.528,8.136-6.398c0.158-0.632,0.237-1.343,0.237-1.975
							C191.932,240.982,189.405,237.585,185.534,236.637z M316.332,252.119c-4.581,0.079-8.293,3.712-8.293,8.214
							c0,0.079,0,0.079,0,0.158c0,0.158,0,0.237,0,0.237c0,4.66,3.712,8.372,8.293,8.372c4.66,0,8.373-3.712,8.373-8.372
							c0,0,0,0,0-0.079s0-0.158,0-0.158C324.705,255.831,320.914,252.119,316.332,252.119z M191.774,275.024
							c-0.948-3.87-4.423-6.398-8.215-6.398c-0.632,0-1.264,0.079-1.895,0.237c-4.502,1.105-7.187,5.687-6.161,10.11
							c0.948,3.791,4.423,6.398,8.135,6.398c0.632,0,1.343-0.079,1.975-0.237c3.87-0.948,6.398-4.423,6.398-8.136
							C192.011,276.366,191.932,275.656,191.774,275.024z M312.541,284.66c-1.263-0.632-2.607-0.948-3.87-0.948
							c-3.001,0-5.845,1.579-7.425,4.423c-2.133,4.107-0.553,9.162,3.554,11.295c1.264,0.632,2.528,0.948,3.87,0.948
							c3.001,0,5.924-1.58,7.345-4.423c0.711-1.264,1.027-2.607,1.027-3.949C317.044,289.004,315.385,286.161,312.541,284.66z
							 M204.886,299.983c-1.422-1.58-3.317-2.528-5.213-2.765c-0.316-0.079-0.711-0.079-1.027-0.079
							c-1.975,0-3.949,0.711-5.529,2.133c-1.817,1.659-2.764,3.87-2.764,6.161c0,0.316,0,0.711,0.079,1.027
							c0.158,1.579,0.869,3.238,2.053,4.581c1.659,1.896,3.871,2.843,6.161,2.843c1.975,0,3.949-0.711,5.608-2.132
							c1.817-1.659,2.764-3.949,2.764-6.24C207.018,303.537,206.307,301.563,204.886,299.983z M294.138,311.435
							c-1.579-2.369-4.186-3.633-6.872-3.633c-1.658,0-3.317,0.474-4.739,1.501c-3.791,2.606-4.739,7.819-2.054,11.61
							c1.58,2.369,4.186,3.633,6.793,3.633c1.659,0,3.318-0.474,4.818-1.501c2.29-1.58,3.554-4.186,3.554-6.793
							C295.639,314.595,295.165,312.936,294.138,311.435z M228.186,316.017c-1.027-0.395-2.054-0.553-3.001-0.553
							c-3.396,0-6.556,2.054-7.819,5.371c-1.58,4.266,0.553,9.083,4.897,10.742c0.948,0.395,1.975,0.553,2.922,0.553
							c3.396,0,6.556-2.054,7.819-5.371c0.395-0.948,0.553-1.975,0.553-3.001C233.557,320.361,231.503,317.202,228.186,316.017z
							 M265.467,326.601c-0.474-4.266-4.107-7.345-8.215-7.345c-0.395,0-0.711,0-1.027,0.079c-4.581,0.553-7.898,4.739-7.345,9.321
							c0.553,4.186,4.186,7.345,8.293,7.345c0.316,0,0.711-0.079,1.027-0.079c4.266-0.474,7.345-4.107,7.345-8.293
							C265.546,327.311,265.546,326.917,265.467,326.601z"/>
					</g>
					<circle style="fill:#E0E0E0;" cx="249.964" cy="260.757" r="40.548"/>
				</g>
				<polygon style="fill:#2D6E74;" points="236.164,164.157 250.452,139.411 264.739,164.157 				"/>
				<g>
					<polygon style="fill:#99414D;" points="264.333,108.006 250.046,132.752 235.758,108.006 					"/>
					<circle style="fill:#99414D;" cx="250.046" cy="98.565" r="23.852"/>
				</g>
				<circle style="fill:#FBF2C0;" cx="250.046" cy="98.167" r="7.156"/>
			</g>
			<path style="fill:#C2C1C1;" d="M108.923,375.245L108.923,375.245c-10.057,0-18.286-8.229-18.286-18.286V143.883
				c0-10.057,8.229-18.286,18.286-18.286l0,0c10.058,0,18.286,8.229,18.286,18.286v213.076
				C127.209,367.016,118.98,375.245,108.923,375.245z"/>
			<path style="fill:#ABABAB;" d="M108.525,218.618L108.525,218.618c-14.649,0-26.634-11.986-26.634-26.634v-15.901
				c0-14.649,11.986-26.635,26.634-26.635h0c14.649,0,26.634,11.986,26.634,26.635v15.901
				C135.16,206.633,123.174,218.618,108.525,218.618z"/>
			<circle style="fill:#D7EDF3;" cx="406.672" cy="149.647" r="11.33"/>
			<circle style="fill:#D7EDF3;" cx="406.672" cy="310.05" r="11.33"/>
		</g>
		<polygon style="opacity:0.09;fill:#040000;" points="15.108,481.782 64.399,481.782 64.399,512 117.928,512 154.229,481.782 
			337.117,481.782 373.417,512 426.946,512 426.946,481.782 481.805,481.782 481.805,343.443 481.805,274.272 481.805,183.636 
			481.805,114.466 481.805,15.086 		"/>
	</g>
	<rect y="0.698" style="opacity:0.09;fill:#FFFFFF;" width="481.805" height="12.796"/>
</g>
</svg>