<svg xmlns="http://www.w3.org/2000/svg" viewBox="0 -4 70 70" width="70" height="70">
  <defs>
    <pattern id="compact-pattern" width="70" height="70" patternUnits="userSpaceOnUse">
      <path transform="scale(0.16, 0.16)" d="M0.099,292.6 C9.764,279.649 107.377,27.311 248.71,12.645 C334.413,3.751 426.044,33.113 435.377,109.978 C448.135,215.049 368.703,236.839 353.707,240.922 C323.565,249.443 282.046,236.909 271.568,230.241 C262.462,223.853 242.877,205.835 243.366,172.794 C244.705,134.809 268.796,126.64 273.656,125.791 C272.19,135.91 273.993,149.223 286.527,163.324 C299.061,177.425 307.939,178.991 324.129,176.902 C340.319,174.813 360.165,151.312 360.687,128.855 C361.209,106.398 342.808,79.12 288.493,80.164 C234.179,81.209 181.555,126.244 180.51,212.415 C179.466,298.587 281.075,330.457 315.979,330.733 C348.652,330.991 413.646,320.733 440.988,292.571 C440.903,303.642 440.988,411.363 440.988,411.363 C440.988,411.363 0.043,413 0.043,413 C0.043,413 -0.055,299.673 0.099,292.6 z" fill="#29586C"/>
    </pattern>
  </defs>
  <rect width="100%" height="100%" fill="url(#compact-pattern)" />
</svg>
